<svg xmlns="http://www.w3.org/2000/svg" height="69.538" width="250"><defs><clipPath id="a" clipPathUnits="userSpaceOnUse"><path d="M0 595.28h841.89V0H0z"/></clipPath></defs><g clip-path="url(#a)" transform="matrix(.80227 0 0 -.80227 -211.543 291.952)"><path d="M263.68 278.69h27.245l10.29 10.327-12.064 12.124h24.136l15.913 15.871v-15.87h16.03l-16.03-12.125V278.69h19.815l.003 85.217z" fill="#c64f15"/><path d="M373.456 278.727c-4.102 0-9.896-.587-12.36 4.877-1.373 3.05 1.104 8.05 3.832 10.787l6.698 6.765 16.326.124-13.064-13.19h31.904v-9.363zm47.51 0h24.181v9.364h-35.425c0-1.752.521-4.17 2.723-6.248 2.153-2.081 5.537-3.116 8.52-3.116m27.178 0h11.826v9.364h-11.826zm26.647 0v12.927h-26.647v20.744l-7.744-7.732h-18.846v-13.012h-11.83v13.012c0 2.338.576 5.202 3.263 7.076 3.227 2.216 6.226 2.418 8.567 2.418h38.416v-13.004h14.821c3.187 0 6.367 0 8.706-2.153 3.006-2.66 3.067-4.931 3.067-7.35v-12.926zm73.982 0h-11.889v22.429h26.574v13.004h11.84v-22.506h-26.525zm14.685 0h11.84v9.364h-11.84zm-156.665 12.927v13.012c0-.07 0 4.544-2.988 6.893-2.99 2.338-6.75 2.6-8.91 2.6l-9.809.12-9.488-9.493 19.297-.12v-13.012zm82.758 0v13.012c0 2.08 1.093 4.489 3.118 6.372 2.015 1.813 5.465 3.122 8.708 3.122h20.806c3.123 0 6.691-1.24 8.327-2.674 2.198-1.883 3.378-4.294 3.378-6.82h-32.51v-13.012zm44.337 9.502h-11.833v-12.941H489.55c0-2.534 1.165-5.007 3.387-6.888 1.68-1.44 5.131-2.6 8.378-2.6h20.74c3.315 0 6.694 1.23 8.7 3.116 2.091 1.895 3.132 4.228 3.132 6.372zm-56.76 3.51l9.436 9.494h-13.85l-9.433-9.494zm59.756 0h11.891v9.494h-11.89z" fill="#85888b" fill-rule="evenodd"/></g><path d="M39.798 69.538L52.196 60.3h-21.61z" fill="#c64f15"/></svg>