<svg width="363" height="165" fill="none" xmlns="http://www.w3.org/2000/svg"><path fill="#000" d="M0 0h363v165H0z"/><mask id="a" style="mask-type:luminance" maskUnits="userSpaceOnUse" x="20" y="34" width="323" height="98"><path d="M343 34H20v97.694h323V34z" fill="#fff"/></mask><g mask="url(#a)" fill-rule="evenodd" clip-rule="evenodd"><path d="M144.354 53.633c3.679-.048 7.354 0 11.028-.022 0 3.023.031 6.051 0 9.075h-11.023c.039-3.024.043-6.047 0-9.07l-.005.017zm46.564 0h10.981c-.062 15.249 0 30.502 0 45.751-.053 3.146.375 6.585-1.364 9.39-1.241 1.957-3.674 2.621-5.863 2.621-5.965 0-11.929.04-17.893 0-4.16-.021-8.516-1.433-11.268-4.683-3.387-3.933-4.313-9.268-4.632-14.27-.249-6.026-.332-12.532 2.919-17.858 2.656-4.531 7.891-6.991 13.016-7.21 4.706-.174 9.416-.03 14.126-.083-.02-4.55-.02-9.098 0-13.645l-.022-.013zM174.59 78.389c-1.874 2.146-2.228 5.108-2.451 7.839-.114 3.364-.131 6.764.437 10.093a7.1 7.1 0 002.145 4.217c1.931 1.857 4.78 2.053 7.314 2.036 2.801-.053 5.619.166 8.403-.262.638-1.927.437-3.972.476-5.965V76.034c-3.548.03-7.096-.022-10.639.044-2.08.087-4.291.682-5.702 2.311h.017zm-30.218-11.115c3.674-.022 7.349 0 11.023 0 0 14.703.027 29.41 0 44.13-3.683 0-7.362-.026-11.045 0 0-14.707.03-29.414 0-44.13h.022zm67.48 4.75c4.155-4.2 10.438-4.877 16.044-4.938 5.222.04 10.841 0 15.45 2.81 3.88 2.28 5.942 6.741 6.305 11.106.245 3.19.546 6.755-1.311 9.547-1.31 1.97-3.735 2.722-5.981 2.727-7.944 0-15.883.026-23.822 0 .336 2.508.074 5.427 1.927 7.428 1.822 1.883 4.631 1.747 7.048 1.887h21.016c-.026 2.936 0 5.868 0 8.804-7.305-.017-14.612-.017-21.921 0-3.574-.048-7.305.149-10.665-1.284-3.692-1.481-6.415-4.868-7.472-8.656-1.564-5.33-1.175-10.962-1.123-16.45.179-4.601 1.036-9.64 4.527-12.96l-.022-.022zm8.302 6.553c-1.429 1.582-1.499 3.815-1.643 5.825 6.554-.07 13.108.161 19.662-.118.983-2.788-.594-6.091-3.22-7.337-2.622-1.162-5.593-1.14-8.416-1.013-2.337.096-4.872.72-6.392 2.621l.009.022zm52.126-11.316c6.471-.048 12.938 0 19.409-.026 0 2.931.026 5.859 0 8.786h-15.708c-2.735.057-5.733.529-7.764 2.534-1.748 1.608-2.447 4.016-2.622 6.323-.258 3.963-.406 8 .437 11.906a6.554 6.554 0 003.251 4.413c2.285 1.311 4.994 1.219 7.537 1.337 5.278.04 10.56-.026 15.839.031-.07 2.927 0 5.859-.027 8.787h-21.095c-4.238.052-8.651-1.084-11.902-3.906-3.832-3.264-5.322-8.411-5.505-13.283-.179-5.85-.437-11.99 1.914-17.478a14.437 14.437 0 016.291-7.096c3.006-1.686 6.502-2.324 9.923-2.32l.022-.008zm40.447-.184a77.118 77.118 0 0112.588-.122c5.191.463 10.841 2.184 13.895 6.72 3.74 5.566 4.024 12.61 3.674 19.09-.437 5.2-1.778 10.809-5.793 14.445-4.274 3.731-10.238 4.504-15.704 4.574-5.916.092-12.265-.026-17.477-3.22-3.496-2.08-5.65-5.802-6.672-9.647-1.202-4.37-1.184-8.944-.913-13.423.436-5.042 1.769-10.36 5.492-14.008 2.971-2.718 6.991-3.885 10.901-4.409h.009zm1.883 8.988c-2.407.511-4.719 1.953-5.732 4.264-1.578 3.496-1.398 7.428-1.364 11.169.075 3.276.743 6.942 3.4 9.144 3.281 2.683 7.865 2.504 11.828 2.185 3.884-.279 7.528-3.058 8.398-6.943.799-3.744.694-7.633.371-11.425-.24-3.29-2.067-6.59-5.243-7.84-3.692-1.332-7.808-1.262-11.645-.532l-.013-.022z" fill="#fff"/><path d="M96.147 92.616c.721-1.748 1.145-3.6 1.94-5.322 1.027 6.178 1.062 12.632-.874 18.648-3.473 12.042-13.732 21.777-25.919 24.683a36.27 36.27 0 01-40.353-17.152 36.27 36.27 0 01-4.651-14.862c1.59 1.651 2.74 3.67 4.321 5.335a39.45 39.45 0 0039.713 11.46c11.518-3.076 21.249-11.819 25.823-22.79zM61.218 36.74a36.34 36.34 0 0147.67 20.318c1.403 3.421 1.966 7.104 2.521 10.735-4.631-7.952-12.317-13.982-20.995-16.983a39.63 39.63 0 00-27.295.756C51.523 56.07 42.61 66.482 39.577 78.51c-1.219-6.492-1.118-13.33 1.053-19.618A36.2 36.2 0 0161.218 36.74z" fill="#E77C06"/><path d="M78.613 55.564c-1.748-.72-3.6-1.144-5.322-1.94 6.178-1.026 12.632-1.061 18.648.874 12.042 3.474 21.777 13.733 24.683 25.92A36.27 36.27 0 0199.47 120.77a36.273 36.273 0 01-14.862 4.652c1.651-1.591 3.67-2.74 5.335-4.322a39.792 39.792 0 0011.264-17.949c5.776-19.181-4.029-39.862-22.594-47.587zM22.738 90.493a36.338 36.338 0 0120.335-47.67c3.421-1.403 7.104-1.966 10.735-2.521-7.97 4.631-14.012 12.334-17 20.995a39.433 39.433 0 0027.7 50.833c-6.492 1.219-13.33 1.118-19.617-1.053a36.212 36.212 0 01-22.153-20.584z" fill="#fff"/></g></svg>