<svg width="120" height="32" fill="none" xmlns="http://www.w3.org/2000/svg"><path d="M.52 16.173v14.711h4.543v-14.71H.52zm113.289 5.314c-1.405-.243-2.81-.562-2.81-1.124 0-.324 0-.967 1.899-.967s2.065.805 2.129 1.529l.085.32h4.458l-.085-.427c-.243-3.295-2.474-4.981-6.766-4.981-4.543 0-6.195 2.555-6.195 5.062 0 3.377 3.47 4.1 6.029 4.582 1.486.243 2.891.566 2.891 1.21 0 .48-.579 1.042-2.069 1.042-2.393 0-2.721-.966-2.721-1.703v-.4h-4.607v.4c.081 3.296 2.721 5.229 7.264 5.229 3.219 0 6.689-1.367 6.689-5.224 0-3.381-3.632-4.1-6.191-4.586v.038zm-18.083-1.805c1.567-.081 1.98 1.124 2.129 1.928l.08.324h4.544l-.085-.426c-.328-4.258-3.632-5.71-6.685-5.71-4.624 0-7.268 2.896-7.268 8.12 0 1.703.494 7.315 7.021 7.315 5.033 0 6.77-3.695 6.932-5.786v-.4h-4.607v.319c0 .324-.328 2.09-2.13 2.09-2.226 0-2.473-2.09-2.473-4.18 0-.801.162-3.616 2.555-3.616l-.013.022zm-17.99-.102c-1.32 0-2.129.72-2.478 2.167h4.876c-.332-1.93-1.738-2.168-2.398-2.168zm.086-3.781c2.129 0 7.097.804 7.097 8.038v1.048h-9.84c.167 1.043.584 2.648 2.981 2.648.826 0 1.818-.4 2.065-1.277l.081-.239h4.624l-.085.482c-.907 2.98-3.406 4.743-6.685 4.743-4.956 0-7.515-2.815-7.515-8.039 0-1.205.332-7.396 7.268-7.396l.009-.008zm-27.017 7.774c0-1.767-.494-3.857-3.053-3.857s-3.044 2.09-3.044 3.857c0 1.767.498 3.858 3.057 3.858 2.56 0 3.053-2.086 3.053-3.858h-.013zm-3.053-7.715c3.551 0 7.664 2.01 7.664 7.715 0 5.706-4.13 7.716-7.664 7.716s-7.664-2.01-7.664-7.716c0-5.705 4.13-7.715 7.664-7.715zm-28.817 0c-2.065 0-3.304.886-3.964 1.703V16.2h-4.377v14.69h4.543v-8.363c0-1.767.992-2.814 2.555-2.814 1.899 0 2.065 1.128 2.065 2.333v8.843H24.3v-9.967c0-3.138-2.061-5.067-5.365-5.067v.004zm46.075-3.376h-4.548v3.717h-1.899v3.376h1.9v8.12c0 1.767.493 3.377 4.21 3.377h2.13l.497-.081v-3.534l-1.158.076c-1.154 0-1.154 0-1.154-.724v-7.238H67.3v-3.372h-2.312l.022-3.717zm-30.138 3.534v.183h2.474v3.376h-2.474V30.89H30.33V19.553h-2.065v-3.355h2.065v-.724c0-2.896 1.571-4.343 4.624-4.343l2.312.085v3.696h-1.499c-.907 0-.907 0-.907 1.124" fill="#fff"/><path d="M11.948 7.943c-.396.05-.797.025-1.183-.077A2.018 2.018 0 019.168 6.38a2.274 2.274 0 01.677-2.265c.313-.22.654-.398 1.013-.528C14.026 2.54 20.345.815 31.338.181A97.872 97.872 0 0163.95 3.702c3.406.984 4.658 1.682 4.48 2.304-.18.621-1.883.425-4.395-.022-1.937-.332-6.813-.975-11.615-1.452a111.029 111.029 0 00-20.698-.115 141.076 141.076 0 00-19.774 3.517M0 9.302a2.78 2.78 0 002.836 2.717 2.767 2.767 0 000-5.535A2.793 2.793 0 000 9.302z" fill="#D66965"/></svg>