<svg xmlns="http://www.w3.org/2000/svg" viewBox="0 0 363.8 137.5"><path d="M168.1 68.7c0 10.6-6.5 15.6-14.5 15.6h-4.9V78h4.6c4.9 0 8.1-2.6 8.1-9.2 0-6.5-3.1-9.8-8.3-9.8-5 0-8.6 3.1-8.6 9.7v26.6h-6.7V53.4h6.7V57h1c2.2-3 5.6-4.4 9-4.4 7.4 0 13.6 5.4 13.6 16.1zM123.8 66l-4.5-.4c-3.5-.3-5.4-1.3-5.4-3.3 0-2.4 2.4-3.8 5.8-3.8 3.5 0 5.8 1.7 6 4h6.5c-.3-6-4.9-9.7-12.4-9.7s-12.6 4-12.6 9.8c0 4.9 3.1 8 10.1 8.7l4.6.4c2.8.3 4.6.8 4.6 3.5 0 2.4-1.7 4.1-6.3 4.1-4.2 0-6.3-1.9-7-4.5h-7c.7 5.8 5.6 10.4 14 10.4 7.9 0 13-4.2 13-10.3 0-5.6-3.6-8.3-9.4-8.9zm70.4 8.7c-1.1 2.4-3.6 4.3-7.2 4.3-4.9 0-8.6-3.2-8.6-10.1 0-6.6 3.4-10.3 8.7-10.3 4.7 0 7.4 2.8 7.6 7.1h-12.1v4.9h18.7v-3.2c0-8.9-5.9-14.7-14.3-14.7-7.8 0-15.3 5.3-15.3 16.2 0 10.9 7.5 16.2 15.3 16.2 7.2 0 12.3-4.4 13.8-10.4h-6.6zM88 52.6c-7.4 0-12.9 3.8-13.5 9.7h7.2c.5-2.2 2.5-3.8 6.3-3.8 4.9 0 6.5 2.6 6.5 5.7v10.6c-2.8 3.1-6 4.6-9.2 4.6-3.3 0-5.6-1.6-5.6-4.5 0-2.8 1.8-4.5 5.3-4.5h5.4v-4.9h-5.6c-7.7 0-12 3.8-12 9.7 0 5.5 4.2 9.7 11 9.7 3.8 0 7.2-1.5 9.7-3.4h1v2.6h6.7V63.7c0-7.7-5.2-11.1-13.2-11.1zM42.3 84.3H49V42h-6.7v42.3zm28.3-30.9h-8.2l-9.8 12.9v4l10.1 14H71l-11.8-16 11.4-14.9zm243.4 0l-5.5 12.2c-1.3 3-2.6 5.8-3 7.8h-1c-.4-1.9-1.7-4.7-3.1-7.7L296 53.4h-7.4l13 27.8-6.4 14h7.2l19.2-41.8H314zm-27 0h-8.2L269 66.3v4l10.1 14h8.3l-11.8-16L287 53.4zM244.9 66l-4.5-.4c-3.5-.3-5.4-1.3-5.4-3.3 0-2.4 2.4-3.8 5.8-3.8 3.5 0 5.8 1.7 6 4h6.5c-.3-6-4.9-9.7-12.4-9.7s-12.6 4-12.6 9.8c0 4.9 3.1 8 10.1 8.7l4.6.4c2.8.3 4.6.8 4.6 3.5 0 2.4-1.7 4.1-6.3 4.1-4.2 0-6.3-1.9-7-4.5h-7c.7 5.8 5.6 10.4 14 10.4 7.9 0 13-4.2 13-10.3-.1-5.6-3.7-8.3-9.4-8.9zm13.8 18.3h6.7V42h-6.7v42.3zM214.3 57h-1v-3.6h-6.7v30.9h6.7V68.2c0-5.5 2.5-8.7 7.6-8.7h4.3v-6.8h-2.5c-4.6-.1-6.6 1.7-8.4 4.3z" fill="#00a88e"/></svg>