<svg xmlns="http://www.w3.org/2000/svg" viewBox="0 0 144.6 65.2"><path fill="#FEFEFE" d="M54.3 14.2v-1.7h6.8v1.7h-2.5v7.9h-1.7v-7.9h-2.6zm10.9 2.3h2.7s.1 0 .1-.1c.1 0 .1-.1.2-.2s.1-.2.2-.3c.1-.1.1-.3.1-.5s0-.4-.1-.5c-.1-.1-.1-.2-.2-.3-.1-.1-.1-.2-.2-.2s-.1-.1-.1-.1h-2.7v2.2zm-1.7 5.6v-9.6H68c.2 0 .4.1.7.2.3.1.5.3.7.5.2.2.4.5.6.9.2.4.2.8.2 1.2 0 .4-.1.8-.2 1.1-.1.3-.3.6-.5.8l-.6.6-.6.3 1.6 2.3v1.7h-1.7V21l-2-2.8h-1.1v4h-1.6v-.1zm11.6-3.9h2.4l-1.2-3.8-1.2 3.8zm-2.4 3.9v-1.8l2.5-7.7h2.3l2.5 7.7v1.8h-1.7v-1.6l-.2-.7h-3.5l-.2.7v1.6h-1.7zm10.1 0v-9.6h6.1v1.7h-4.4v2.3h3.9v1.7h-3.9v3.9h-1.7zm8.8 0v-9.6h6.2v1.7h-4.5v2.3h3.9v1.7h-3.9v3.9h-1.7zm8.8 0v-9.6h1.7v9.6h-1.7zm4.9-2v-5.6c0-.2.1-.5.3-.7.2-.3.4-.5.8-.7.3-.2.7-.4 1.1-.6.4-.1.8-.2 1.2-.2.4 0 .8.1 1.2.2.4.1.8.3 1.1.6.3.2.6.5.8.7.2.3.3.5.3.7v.8h-1.7v-.6l-.2-.2c-.1-.1-.2-.2-.4-.3-.1-.1-.3-.1-.5-.2s-.4-.1-.6-.1c-.2 0-.4 0-.6.1-.2.1-.3.1-.5.2-.1.1-.3.2-.4.3l-.2.2v5.2l.2.2c.1.1.2.2.4.3.1.1.3.1.5.2s.4.1.6.1c.2 0 .4 0 .6-.1.2-.1.3-.1.5-.2.1-.1.3-.2.4-.3.1-.1.2-.2.3-.2v-.6h1.7v.8c0 .2-.1.5-.3.8-.2.3-.5.5-.8.7-.3.2-.7.4-1.1.5-.4.1-.8.2-1.2.2-.4 0-.8-.1-1.2-.2-.4-.1-.8-.3-1.1-.5-.3-.2-.6-.5-.8-.7-.3-.3-.4-.5-.4-.8zM55.3 36v-9.6H57V36h-1.7zm5 0v-9.6h1.4l3.7 6.2v-6.2h1.7V36h-1.7L62 30.3V36h-1.7zm9.8-1.7v-.8h1.7v.5c.1.1.3.2.6.3.3.1.6.2 1 .2s.8-.1 1.1-.2c.3-.1.5-.2.6-.4v-1.3c-.1 0-.3-.1-.6-.2s-.6-.2-.9-.4c-.3-.1-.7-.2-1-.4-.3-.1-.6-.2-.7-.3-.6-.2-1-.4-1.3-.6-.3-.2-.5-.5-.5-.8V28c0-.3.1-.5.3-.8.2-.2.5-.4.8-.6.3-.2.7-.3 1.1-.4.4-.1.8-.2 1.2-.2.4 0 .8.1 1.2.2.4.1.8.3 1.1.4.3.2.6.4.8.6.2.2.3.5.3.8v.8h-1.7v-.6c-.1-.1-.3-.2-.6-.3-.3-.1-.7-.2-1.1-.2-.4 0-.7.1-1 .2-.3.1-.5.2-.6.3v1.3c.1.1.3.1.6.2s.6.2 1 .3c.3.1.7.2 1 .4.3.1.6.2.7.3.6.2 1 .4 1.3.6.3.2.5.5.5.8v2c0 .3-.1.5-.3.8-.2.2-.5.4-.8.6-.3.2-.7.3-1.1.4-.4.1-.8.2-1.2.2-.4 0-.8-.1-1.2-.2-.4-.1-.8-.2-1.1-.4-.3-.2-.6-.4-.8-.6-.3-.1-.4-.3-.4-.6zm11.3-4h2.7s.1 0 .1-.1c.1 0 .1-.1.2-.2s.1-.2.2-.3c.1-.1.1-.3.1-.5s0-.4-.1-.5c-.1-.1-.1-.2-.2-.3-.1-.1-.1-.2-.2-.2s-.1-.1-.1-.1h-2.7v2.2zM79.7 36v-9.6h4.5c.2 0 .4.1.7.2.3.1.5.3.7.5.2.2.4.5.6.9.2.3.2.8.2 1.2 0 .5-.1.9-.2 1.2l-.6.9c-.2.2-.5.4-.7.5-.2.2-.5.2-.7.2h-2.8v4h-1.7zm9.4 0v-9.6h6.2v1.7h-4.5v2.2h3.9V32h-3.9v2.3h4.5V36h-6.2zm9.3-2v-5.6c0-.2.1-.5.3-.7.2-.3.4-.5.8-.7.3-.2.7-.4 1.1-.6.4-.1.8-.2 1.2-.2.4 0 .8.1 1.2.2.4.1.8.3 1.1.6.3.2.6.5.8.7.2.3.3.5.3.7v.8h-1.7v-.6l-.2-.2c-.1-.1-.2-.2-.4-.3-.1-.1-.3-.1-.5-.2s-.4-.1-.6-.1c-.2 0-.4 0-.6.1-.2.1-.3.1-.5.2-.1.1-.3.2-.4.3l-.2.2v5.2l.2.2c.1.1.2.2.4.3.1.1.3.1.5.2s.4.1.6.1c.2 0 .4 0 .6-.1.2-.1.3-.1.5-.2.1-.1.3-.2.4-.3.1-.1.2-.2.3-.2v-.6h1.7v.8c0 .2-.1.5-.3.8-.2.3-.5.5-.8.7-.3.2-.7.4-1.1.5-.4.1-.8.2-1.2.2-.4 0-.8-.1-1.2-.2-.4-.1-.8-.3-1.1-.5-.3-.2-.6-.5-.8-.7-.3-.3-.4-.6-.4-.8zm9-5.9v-1.7h6.8v1.7h-2.6V36H110v-7.9h-2.6zm10.7 5.7l.2.2c.1.1.2.2.4.3.2.1.3.1.5.2s.4.1.6.1c.2 0 .4 0 .6-.1.2-.1.3-.1.5-.2s.3-.2.4-.3l.2-.2v-5.2l-.2-.2c-.1-.1-.2-.2-.4-.3-.2-.1-.3-.1-.5-.2s-.4-.1-.6-.1c-.2 0-.4 0-.6.1-.2.1-.3.1-.5.2s-.3.2-.4.3l-.2.2v5.2zm-1.7.2v-5.6c0-.2.1-.5.3-.7.2-.3.4-.5.8-.7.3-.2.7-.4 1.1-.6.4-.1.8-.2 1.2-.2.4 0 .8.1 1.2.2.4.1.8.3 1.1.6.3.2.6.5.8.7.2.3.3.5.3.7V34c0 .2-.1.5-.3.8-.2.3-.5.5-.8.7-.3.2-.7.4-1.1.5-.4.1-.8.2-1.2.2-.4 0-.8-.1-1.2-.2-.4-.1-.8-.3-1.1-.5-.3-.2-.6-.5-.8-.7-.2-.3-.3-.6-.3-.8zm11.7-3.7h2.7s.1 0 .1-.1c.1 0 .1-.1.2-.2s.1-.2.2-.3c.1-.1.1-.3.1-.5s0-.4-.1-.5c-.1-.1-.1-.2-.2-.3-.1-.1-.1-.2-.2-.2s-.1-.1-.1-.1h-2.7v2.2zm-1.7 5.7v-9.6h4.5c.2 0 .4.1.7.2.3.1.5.3.7.5.2.2.4.5.6.9.2.3.2.8.2 1.2 0 .4-.1.8-.2 1.1-.1.3-.3.6-.5.8l-.6.6-.6.3 1.6 2.3V36h-1.7v-1.2l-2-2.8H128v4h-1.6zM55.3 49.8v-9.5h1.3l3.7 6.2v-6.2H62v9.5h-1.7L57 44.2v5.6h-1.7zm10.1 0v-9.5h6.2V42h-4.5v2.2h4v1.7h-4v2.2h4.5v1.7h-6.2zm9.2 0v-2l2.3-2.8-2.3-2.8v-1.9h1.7v1.4l1.7 2 1.7-2v-1.4h1.7v1.9L79.1 45l2.3 2.8v2h-1.7v-1.4l-1.7-2-1.7 2v1.4h-1.7zm9-7.8v-1.7h6.7V42h-2.5v7.8h-1.7V42h-2.5zM55.1 61.7v-5.6c0-.2.1-.5.3-.7.2-.3.4-.5.8-.7.3-.2.7-.4 1.1-.6.4-.1.8-.2 1.2-.2.4 0 .8.1 1.2.2.4.1.8.3 1.1.6.3.2.6.5.8.7.2.3.3.5.3.7v.8h-1.7v-.6l-.2-.2c-.1-.1-.2-.2-.4-.3-.1-.1-.3-.1-.5-.2s-.4-.1-.6-.1c-.2 0-.4 0-.6.1-.2.1-.3.1-.5.2s-.3.2-.4.3l-.2.2v5.2l.2.2c.1.1.2.2.4.3.2.1.3.1.5.2s.4.1.6.1c.2 0 .4 0 .6-.1.2-.1.3-.1.5-.2s.3-.2.4-.3l.2-.2V60h-1.4v-1.7h3.1v3.4c0 .2-.1.5-.3.8-.2.3-.5.5-.8.7-.3.2-.7.4-1.1.5-.4.1-.8.2-1.2.2-.4 0-.8-.1-1.2-.2-.4-.1-.8-.3-1.1-.5-.3-.2-.6-.5-.8-.7-.2-.3-.3-.5-.3-.8zm9.9 2v-9.6h6.2v1.7h-4.5V58h4v1.7h-4V62h4.5v1.7H65zm9.5 0v-9.6h1.4l3.7 6.2v-6.2h1.7v9.6h-1.7L76.2 58v5.7h-1.7zm10.2 0v-9.6h6.2v1.7h-4.5V58h3.9v1.7h-3.9V62h4.5v1.7h-6.2zM95.9 58h2.7s.1 0 .1-.1c.1 0 .1-.1.2-.2s.1-.2.2-.3c.1-.1.1-.3.1-.5s0-.4-.1-.5c-.1-.1-.1-.2-.2-.3-.1-.1-.1-.2-.2-.2s-.1-.1-.1-.1h-2.7V58zm-1.7 5.7v-9.6h4.5c.2 0 .4.1.7.2.3.1.5.3.7.5.2.2.4.5.6.9.2.3.2.8.2 1.2 0 .4-.1.8-.2 1.1-.1.3-.3.6-.5.8l-.6.6-.6.3 1.6 2.3v1.7H99v-1.2l-2-2.8h-1.1v4h-1.7zm11.6-4h2.4L107 56l-1.2 3.7zm-2.4 4v-1.8l2.5-7.7h2.3l2.5 7.7v1.8H109v-1.6l-.2-.7h-3.5l-.2.7v1.6h-1.7zm9.1-7.9v-1.7h6.8v1.7h-2.5v7.9h-1.7v-7.9h-2.6zm9.2 7.9v-9.6h1.7v9.6h-1.7zm6.6-2.2l.2.2c.1.1.2.2.4.3.1.1.3.1.5.2s.4.1.6.1c.2 0 .4 0 .6-.1.2-.1.3-.1.5-.2s.3-.2.4-.3l.2-.2v-5.2l-.2-.2c-.1-.1-.2-.2-.4-.3-.2-.1-.3-.1-.5-.2s-.4-.1-.6-.1c-.2 0-.4 0-.6.1-.2.1-.3.1-.5.2s-.3.2-.4.3l-.2.2v5.2zm-1.7.2v-5.6c0-.2.1-.5.3-.7.2-.3.4-.5.8-.7.3-.2.7-.4 1.1-.6.4-.1.8-.2 1.2-.2.4 0 .8.1 1.2.2.4.1.8.3 1.1.6.3.2.6.5.8.7.2.3.3.5.3.7v5.6c0 .2-.1.5-.3.8-.2.3-.5.5-.8.7-.3.2-.7.4-1.1.5-.4.1-.8.2-1.2.2-.4 0-.8-.1-1.2-.2-.4-.1-.8-.3-1.1-.5-.3-.2-.6-.5-.8-.7-.2-.3-.3-.5-.3-.8zm10 2v-9.6h1.3l3.7 6.2v-6.2h1.7v9.6h-1.7l-3.4-5.7v5.7h-1.6z"/><path fill="#2DE2B5" d="M38.4 49.3c-1.1 3.2-3.2 5.9-5.8 7.9-2.6 2-5.7 3.3-9.1 3.6l-.2-2.7c2.9-.3 5.5-1.3 7.7-3s3.9-4 4.9-6.7l2.5.9zM20.6 60.8c-3.2-.3-6.2-1.4-8.7-3.2-2.5-1.8-4.6-4.2-5.8-7.2l2.4-1.1c1.1 2.5 2.8 4.5 4.9 6.1 2.1 1.5 4.6 2.5 7.3 2.7l-.1 2.7zm5.3-5.9c-.6.2-1.3.4-1.9.5-.7.1-1.3.2-2 .2-3.3 0-6.3-1.3-8.5-3.5S10 46.9 10 43.6s1.4-6.3 3.5-8.5c2.2-2.2 5.2-3.5 8.5-3.5s6.3 1.3 8.5 3.5 3.5 5.2 3.5 8.5c0 .5 0 1-.1 1.5l-.3 1.5v.1c-.3 1.2-1.1 2.1-2.1 2.7-1 .6-2.2.8-3.4.4-1-.3-1.8-.8-2.4-1.6-.5-.7-.9-1.6-.9-2.5v-2.1c0-.9-.4-1.8-1-2.4-.6-.6-1.4-1-2.4-1-.9 0-1.8.4-2.4 1-.6.6-1 1.4-1 2.4 0 .9.4 1.8 1 2.4.6.6 1.4 1 2.4 1h.6l.5 2.6c-.1 0-.3 0-.5.1h-.5c-1.7 0-3.2-.7-4.3-1.8-1.1-1.1-1.8-2.6-1.8-4.3 0-1.7.7-3.2 1.8-4.3 1.1-1.1 2.6-1.8 4.3-1.8 1.3 0 2.6.4 3.6 1.2h2.5v6.8c0 .4.1.8.4 1.1.2.3.6.5.9.6.5.1.9.1 1.3-.2.4-.2.7-.6.8-1.1v-.1l.4.1-.4-.1c.1-.4.2-.7.2-1.1 0-.4.1-.8.1-1.2 0-2.6-1-4.9-2.7-6.6-1.7-1.7-4-2.7-6.6-2.7s-4.9 1-6.6 2.7c-1.7 1.7-2.7 4-2.7 6.6 0 2.6 1 4.9 2.7 6.6 1.7 1.7 4 2.7 6.6 2.7.5 0 1 0 1.5-.1s1-.2 1.5-.4l.9 2.6zm-1-9.3zm18.7 5.1c-.5 1.6-1.3 3.1-2.1 4.6-.9 1.5-1.9 2.8-3.1 4l-1.9-1.9c1-1.1 2-2.3 2.7-3.5.8-1.3 1.4-2.6 1.9-4.1l2.5.9zm-19-24.4c4.3.6 8 2.8 10.6 5.9 2.6 3.1 4.2 7 4.2 11.4 0 .5 0 1-.1 1.5 0 .6-.1 1.1-.2 1.5l-2.6-.5c.1-.5.1-.9.2-1.3 0-.4.1-.8.1-1.3 0-3.6-1.3-7-3.6-9.6-2.2-2.6-5.4-4.4-9-5l.4-2.6zM8.8 32.1c1.6-1.9 3.6-3.4 5.8-4.4 2.2-1 4.6-1.6 7.1-1.6v2.7c-2.1 0-4.1.5-6 1.4-1.9.9-3.5 2.1-4.9 3.7l-2-1.8zM5.1 47.8c-.2-.7-.3-1.4-.4-2.1-.1-.7-.1-1.4-.1-2.2 0-1.6.2-3.2.7-4.7.4-1.5 1.1-3 1.9-4.4l2.3 1.4c-.7 1.2-1.2 2.4-1.6 3.7-.4 1.3-.5 2.6-.5 4 0 .6 0 1.2.1 1.8l.3 1.8-2.7.7zm28.8 15.1c-1.8 1.1-3.7 1.9-5.7 2.5-2 .6-4.1.9-6.2.9-2.1 0-4.2-.3-6.2-.9-2-.6-4-1.4-5.8-2.6l1.4-2.3c1.6 1 3.3 1.7 5.1 2.3 1.8.5 3.6.8 5.5.8s3.7-.3 5.5-.8c1.8-.5 3.5-1.2 5.1-2.2l1.3 2.3zM7.7 61.2c-1.9-1.5-3.5-3.3-4.8-5.3-1.3-2-2.3-4.2-2.9-6.5l2.6-.7c.5 2.1 1.4 4 2.5 5.7 1.1 1.8 2.6 3.3 4.2 4.7l-1.6 2.1zm25.8-37.3c2.6 1.5 4.8 3.5 6.6 5.8 1.8 2.3 3.1 5 3.9 7.9l-2.6.7c-.7-2.5-1.9-4.9-3.4-6.9-1.6-2.1-3.5-3.8-5.8-5.1l1.3-2.4zm-22-.6c1.6-.8 3.3-1.5 5.1-1.9 1.8-.4 3.6-.7 5.4-.7 1.5 0 3.1.2 4.6.5 1.5.3 3 .8 4.4 1.4L30 25c-1.3-.5-2.6-1-3.9-1.2-1.3-.3-2.7-.4-4.1-.4-1.6 0-3.2.2-4.8.6-1.6.4-3.1 1-4.5 1.7l-1.2-2.4zm-6.2-2.5c1.4-1.1 3-2 4.6-2.7 1.6-.8 3.3-1.4 5-1.8l.7 2.6c-1.5.4-3.1 1-4.5 1.7-1.5.6-2.9 1.4-4.2 2.4l-1.6-2.2zm5-8.7c1.9-.7 3.8-1.2 5.8-1.6 2-.4 4-.5 6-.5h.8l-.1 2.7H22c-1.9 0-3.7.2-5.5.5-1.8.3-3.6.8-5.3 1.5l-.9-2.6zm15.3-1.9c1.2.1 2.5.3 3.7.6 1.2.3 2.4.6 3.6 1l-.9 2.5c-1.1-.4-2.2-.7-3.3-.9-1.1-.2-2.2-.4-3.4-.6l.3-2.6zm-7.9 5.5c.7-.1 1.5-.2 2.2-.3.7-.1 1.5-.1 2.2-.1 2.9 0 5.8.5 8.6 1.4 2.8.9 5.4 2.2 7.8 3.9l-1.6 2.2c-2.2-1.6-4.5-2.7-7-3.6-2.6-.8-5.2-1.2-7.9-1.2-.7 0-1.3 0-2 .1s-1.3.1-1.9.2l-.4-2.6zM0 37.5c.7-2.6 1.9-5 3.4-7.2s3.4-4.1 5.6-5.6l1.5 2.2c-1.9 1.3-3.6 3-5 4.9-1.3 1.9-2.4 4.1-3 6.3L0 37.5z"/><path fill="#FEFEFE" d="M137.2.2c.8 0 1.6.2 2.4.5.8.3 1.4.8 2 1.3 1.1 1.1 1.8 2.7 1.8 4.4 0 .8-.2 1.6-.5 2.4-.3.8-.8 1.4-1.3 2-.6.6-1.2 1-2 1.3-.7.3-1.5.5-2.4.5-.8 0-1.6-.2-2.4-.5-.8-.3-1.4-.8-2-1.3-.6-.6-1-1.2-1.3-2-.3-.7-.5-1.5-.5-2.4 0-.8.2-1.6.5-2.4.3-.8.8-1.4 1.3-2 .6-.6 1.2-1 2-1.3.8-.3 1.6-.5 2.4-.5zm3.4 2.8c-.4-.4-1-.8-1.5-1-.6-.2-1.2-.4-1.8-.4-.6 0-1.3.1-1.8.4-.6.2-1.1.6-1.5 1-.4.4-.8 1-1 1.5-.2.6-.4 1.2-.4 1.8 0 .6.1 1.3.4 1.8.2.6.6 1.1 1 1.5.4.4 1 .8 1.5 1 .6.2 1.2.4 1.8.4.6 0 1.3-.1 1.8-.4.6-.2 1.1-.6 1.5-1 .4-.4.8-1 1-1.5.2-.6.4-1.2.4-1.8 0-.6-.1-1.3-.4-1.8-.2-.5-.6-1-1-1.5z"/><path fill="#FEFEFE" d="M134.6 9.4V3.2h3.6c.2 0 .5.1.6.1.2.1.3.1.4.2.1.1.2.2.3.4.1.2.2.3.2.5s.1.4.1.5c0 .2 0 .5-.1.7-.1.2-.2.4-.3.5-.1.2-.3.3-.5.4-.1.1-.3.1-.5.2l.1.1.3.3c.1.1.2.2.3.4.1.2.3.4.4.6l.8 1.2.1.2h-1.8l-.9-1.3c-.2-.2-.3-.4-.4-.6-.1-.1-.2-.2-.2-.3-.1-.1-.1-.1-.2-.1s-.1-.1-.2-.1h-.7v2.6h-1.3v-.3h-.1zm1.5-3.6h1.5c.2 0 .3 0 .4-.1.1 0 .1-.1.2-.1l.1-.1c0-.1.1-.1.1-.2v-.4c0-.1-.1-.1-.1-.2s-.1-.1-.2-.1-.1-.1-.2-.1h-1.8v1.3z"/></svg>