<svg width="1273" height="378" fill="none" xmlns="http://www.w3.org/2000/svg"><g clip-path="url(#clip0_5070_9931)"><path d="M472.298 126.108h24.382L532.688 233h.323l36.007-106.892H593.4v127.076h-15.824V146.291h-.323l-35.846 106.893h-16.954l-35.846-106.893h-.323v106.893H472.46V126.108h-.162zm223.151 80.573c0 7.589-.969 14.371-2.906 20.507-1.938 6.135-4.844 11.302-8.397 15.501-3.552 4.198-8.235 7.589-13.563 9.849-5.329 2.261-11.303 3.391-18.085 3.391s-12.756-1.13-18.084-3.391c-5.329-2.26-9.85-5.49-13.402-9.849-3.553-4.36-6.459-9.366-8.397-15.501-1.937-6.136-2.906-12.918-2.906-20.507 0-7.589.969-14.209 2.906-20.345 1.938-5.975 4.844-11.142 8.397-15.501 3.552-4.36 8.235-7.589 13.402-9.85 5.328-2.26 11.302-3.391 18.084-3.391s12.756 1.131 18.085 3.391c5.328 2.261 9.849 5.49 13.563 9.85 3.714 4.359 6.459 9.365 8.397 15.501 1.937 5.974 2.906 12.756 2.906 20.345zm-15.824 0c0-5.167-.646-9.85-1.776-14.209-1.13-4.36-2.907-7.912-5.167-11.142-2.261-3.068-5.167-5.49-8.558-7.266-3.391-1.776-7.266-2.583-11.787-2.583-4.521 0-8.397.807-11.626 2.583-3.391 1.776-6.136 4.198-8.397 7.266-2.26 3.068-4.036 6.782-5.167 11.142-1.13 4.359-1.776 9.042-1.776 14.209s.646 10.011 1.776 14.371c1.131 4.359 2.907 8.073 5.167 11.141 2.261 3.068 5.168 5.49 8.397 7.266 3.391 1.776 7.266 2.584 11.626 2.584 4.359 0 8.396-.808 11.787-2.584s6.136-4.198 8.558-7.266c2.26-3.068 4.037-6.782 5.167-11.141 1.13-4.36 1.776-9.043 1.776-14.371zm33.101-46.18h15.824v70.885h.323l45.535-70.885h18.246v92.522h-15.986v-70.886h-.323l-45.373 70.886h-18.246v-92.522zm25.028-36.008c.807 3.714 2.261 6.62 4.683 8.719 2.422 2.099 5.813 3.23 10.495 3.23 4.683 0 8.235-.969 10.496-3.23 2.422-2.099 3.875-5.005 4.521-8.881h14.694c0 3.391-.808 6.621-2.261 9.366-1.453 2.745-3.391 5.167-6.136 7.104-2.583 1.938-5.813 3.553-9.365 4.521-3.714 1.131-7.751 1.615-12.11 1.615-4.36 0-8.397-.484-12.111-1.615-3.552-.968-6.781-2.583-9.365-4.521-2.583-1.937-4.682-4.359-6.136-7.104-1.453-2.745-2.26-5.975-2.26-9.527h14.694l.161.323zm193.763 65.072c0 5.49-.484 10.98-1.614 16.309-1.131 5.328-2.745 10.657-5.006 15.501-2.26 5.005-5.005 9.526-8.396 13.725-3.391 4.198-7.428 7.912-11.949 11.141-4.683 3.068-9.85 5.651-15.663 7.266-5.812 1.776-12.271 2.584-19.214 2.584-6.944 0-13.402-.808-19.215-2.584-5.813-1.776-10.98-4.198-15.663-7.266-4.521-3.068-8.558-6.782-11.949-11.141-3.39-4.199-6.297-8.881-8.396-13.725-2.261-4.844-3.875-10.173-5.005-15.501-1.131-5.329-1.615-10.819-1.615-16.309 0-9.849 1.453-18.892 4.198-27.127s6.782-15.178 12.11-21.152c5.329-5.813 11.788-10.496 19.377-13.725 7.589-3.23 16.469-4.844 26.158-4.844 9.688 0 18.407 1.614 26.158 4.844 7.75 3.229 14.209 7.75 19.376 13.725 5.167 5.974 9.365 12.917 12.11 21.152 2.745 8.235 4.198 17.278 4.198 27.127zm-16.954 0c0-7.589-.969-14.532-3.068-20.829-1.937-6.298-5.005-11.788-8.719-16.47-3.875-4.521-8.558-8.235-14.048-10.657-5.651-2.584-11.949-3.876-19.053-3.876-7.105 0-13.564 1.292-19.054 3.876-5.651 2.583-10.334 6.136-14.048 10.657-3.875 4.521-6.781 10.011-8.719 16.47-1.938 6.297-3.068 13.402-3.068 20.829 0 7.428.969 14.694 2.745 21.153 1.776 6.458 4.683 11.787 8.396 16.308 3.714 4.521 8.397 8.074 14.048 10.657 5.652 2.584 12.272 3.714 19.861 3.714s14.209-1.292 19.861-3.714c5.651-2.583 10.334-5.974 14.048-10.657 3.713-4.683 6.458-10.011 8.396-16.308 1.938-6.298 2.745-13.402 2.745-21.153h-.323zm89.457 52.316h-.33c-1.61 2.907-3.39 5.329-5.163 7.105-1.776 1.776-3.714 3.229-5.651 4.198-1.938.969-4.037 1.776-6.298 2.099a44.027 44.027 0 01-6.62.485c-4.521 0-8.881-1.131-13.079-3.23s-8.073-5.328-11.303-9.527c-3.391-4.198-5.974-9.365-8.073-15.662-1.938-6.297-3.068-13.402-3.068-21.476 0-4.036.323-7.912.807-11.948.485-4.037 1.453-7.751 2.745-11.303 1.292-3.552 2.745-6.943 4.683-10.011 1.937-3.068 4.198-5.813 6.782-8.074 2.583-2.26 5.651-4.036 9.042-5.328 3.391-1.292 7.266-1.938 11.464-1.938 3.23 0 5.975.485 8.558 1.292 2.584.969 4.844 2.099 6.62 3.391 1.938 1.453 3.553 2.906 5.004 4.521 1.46 1.615 2.59 3.068 3.72 4.521h.32v-45.534H1020v45.534h.33c.96-1.453 2.26-2.906 3.71-4.521 1.45-1.615 3.07-3.068 5-4.521 1.94-1.453 4.2-2.584 6.63-3.391 2.58-.969 5.32-1.292 8.55-1.292 4.2 0 8.08.646 11.47 1.938 3.39 1.292 6.46 3.068 9.04 5.328 2.58 2.261 4.84 4.844 6.78 8.074 1.94 3.068 3.39 6.459 4.68 10.011 1.13 3.552 2.1 7.266 2.75 11.303.64 4.036.81 7.912.81 11.948 0 8.074-.97 15.34-3.07 21.476-2.1 6.297-4.68 11.464-8.08 15.662-3.39 4.199-7.1 7.267-11.3 9.527-4.2 2.099-8.72 3.23-13.08 3.23-2.26 0-4.52-.162-6.62-.485-2.1-.323-4.2-1.13-6.29-2.099-1.94-.969-3.88-2.422-5.82-4.198-1.94-1.776-3.55-4.198-5.16-7.105h-.33v47.634h-15.82v-47.634h-.16zm0-43.274c0-4.359-.49-8.235-1.62-11.625-1.13-3.391-2.581-6.136-4.357-8.558-1.776-2.261-4.037-4.037-6.459-5.329-2.422-1.13-5.006-1.776-7.589-1.776-4.198 0-7.912.969-10.819 2.745-3.067 1.776-5.489 4.36-7.427 7.589-1.938 3.229-3.23 6.943-4.198 11.141-.969 4.199-1.292 8.881-1.292 13.725 0 2.584.161 5.329.484 8.074a62.35 62.35 0 001.454 8.235c.645 2.745 1.614 5.328 2.745 7.75 1.13 2.422 2.583 4.521 4.359 6.459 1.776 1.938 3.714 3.229 6.136 4.36 2.422 1.13 5.006 1.614 8.235 1.614 6.62 0 11.626-2.422 15.178-7.104 3.55-4.683 5.17-11.303 5.17-20.022v-17.439.161zm36 44.404c3.23 0 5.98-.484 8.4-1.614 2.42-1.131 4.52-2.584 6.3-4.36 1.77-1.776 3.23-4.037 4.36-6.459 1.13-2.422 2.1-5.005 2.74-7.75.65-2.745 1.13-5.49 1.46-8.235.32-2.745.48-5.49.48-8.074 0-4.844-.48-9.365-1.29-13.725-.97-4.198-2.26-8.073-4.2-11.141-1.94-3.229-4.36-5.651-7.27-7.589-2.9-1.938-6.62-2.745-10.81-2.745-2.59 0-5.17.646-7.59 1.776-2.42 1.292-4.52 2.907-6.46 5.329a25.066 25.066 0 00-4.36 8.558c-1.13 3.39-1.62 7.266-1.62 11.625v17.439c0 8.719 1.78 15.34 5.17 20.022 3.39 4.683 8.4 7.105 14.86 7.105l-.17-.162zm56.68-82.51h15.82v70.885h.33l45.53-70.885h18.25v92.522h-15.99v-70.885h-.32l-45.37 70.885h-18.25v-92.522zm175.36 60.066c-.17 2.261-.65 4.683-1.3 7.428a38.905 38.905 0 01-2.9 7.912 42.726 42.726 0 01-4.85 7.589c-1.93 2.422-4.36 4.521-7.26 6.459-2.91 1.937-6.14 3.391-10.01 4.521-3.88 1.13-8.24 1.615-13.24 1.615-2.75 0-5.49-.323-8.56-.969a28.722 28.722 0 01-8.72-3.391c-2.91-1.615-5.49-3.552-8.07-5.974-2.59-2.422-4.85-5.49-6.79-9.043-1.93-3.552-3.55-7.912-4.68-12.594-1.13-4.844-1.77-10.334-1.77-16.632 0-7.589 1.13-14.532 3.22-20.668 2.27-6.136 5.17-11.303 8.72-15.662 3.72-4.198 7.92-7.589 12.76-9.85a36.01 36.01 0 0115.34-3.391c4.84 0 9.2.485 12.76 1.615 3.71.969 6.94 2.422 9.68 4.198 2.75 1.776 5.17 3.714 6.95 5.975 1.93 2.26 3.39 4.682 4.68 7.104 1.29 2.422 2.1 5.006 2.74 7.589.65 2.584.97 5.006 1.13 7.428h-14.85c-.81-6.297-2.91-11.142-6.46-14.694-3.55-3.552-8.56-5.328-14.85-5.328-4.36 0-8.24.968-11.47 2.745-3.23 1.776-5.97 4.198-8.07 7.427-2.1 3.23-3.72 7.105-4.85 11.626-1.13 4.521-1.61 9.527-1.61 14.855 0 6.136.65 11.303 1.78 15.824 1.13 4.36 2.74 8.074 4.84 10.819 2.1 2.906 4.68 5.005 7.75 6.297a27.036 27.036 0 0010.5 2.099c2.74 0 5.32-.484 7.91-1.453a19.713 19.713 0 006.62-4.36c1.94-1.937 3.55-4.36 5-7.105 1.46-2.744 2.43-5.974 2.91-9.526h14.85l.17-.485z" fill="#100C08"/><path d="M325.375 0H106.576l82.461 81.963a96.35 96.35 0 015.6-.162 101.407 101.407 0 0153.161 15.01c15.97 9.821 28.863 23.874 37.229 40.578a73 73 0 0143.213 10.712 72.341 72.341 0 0126.783 29.331l25.889-25.718V58.036c-.25-14.828-6.097-29.022-16.382-39.77C354.244 7.517 340.27.998 325.375 0z" fill="#00B4FF"/><path d="M355.061 177.432L249.818 282.008l92.787 92.173a59.276 59.276 0 0027.618-21.309 58.661 58.661 0 0010.736-33.06V151.677l-25.898 25.755z" fill="#FF6E6E"/><path d="M42.286 248.015a56.5 56.5 0 01-4.228-21.536c0-30.68 24.287-55.55 54.242-55.55.7 0 1.39 0 2.08.048 2.63-23.573 13.59-45.454 30.933-61.753s39.944-25.958 63.782-27.259L106.635.05H55.959c-15.072.955-29.213 7.578-39.544 18.522C6.084 29.516.338 43.959.346 58.962v230.725l41.94-41.672z" fill="#23D3FF"/><path d="M249.733 282.007H92.281a52.96 52.96 0 01-23.588-5.515c-11.991-6.004-21.381-16.127-26.426-28.49L.327 289.684v29.251c0 15.663 6.264 30.683 17.412 41.758a59.478 59.478 0 0019.287 12.802 59.788 59.788 0 0022.75 4.495h261.736a60.062 60.062 0 0021.028-3.81l-92.807-92.173z" fill="#00F5D0"/><path d="M380.662 58.036c-.249-14.84-6.106-29.046-16.407-39.797C353.953 7.489 339.958.978 325.049 0H55.613c-15.068.968-29.2 7.595-39.529 18.536C5.756 29.477.005 43.913 0 58.912v260.033c0 15.662 6.263 30.683 17.412 41.758C28.561 371.778 43.682 378 59.45 378h261.765a60.03 60.03 0 0021.027-3.81h.067a59.253 59.253 0 0027.619-21.308 58.648 58.648 0 0010.735-33.061V58.036z" fill="url(#paint0_radial_5070_9931)"/><path d="M355.301 177.546a72.343 72.343 0 00-26.784-29.331 73.004 73.004 0 00-43.202-10.712c-8.369-16.704-21.264-30.756-37.235-40.577a101.427 101.427 0 00-53.166-15.01c-1.917 0-3.739.056-5.599.161-23.839 1.301-46.44 10.96-63.783 27.259-17.343 16.299-28.303 38.18-30.932 61.752-.69 0-1.38-.047-2.08-.047-29.955 0-54.243 24.87-54.243 55.55a56.501 56.501 0 004.229 21.536c5.044 12.362 14.434 22.485 26.426 28.489a52.947 52.947 0 0023.587 5.515h157.539L355.31 177.556l-.009-.01z" fill="#fff"/><path fill-rule="evenodd" clip-rule="evenodd" d="M322.853 170.317a72.707 72.707 0 0132.6 7.191L250.162 282.083v-42.796h.096c.842-18.567 8.857-36.097 22.378-48.943 13.521-12.846 31.507-20.019 50.217-20.027z" fill="#FFD12F"/></g><defs><radialGradient id="paint0_radial_5070_9931" cx="0" cy="0" r="1" gradientUnits="userSpaceOnUse" gradientTransform="matrix(190.293 0 0 189.033 190.331 189.005)"><stop stop-color="#261C38" stop-opacity=".6"/><stop offset=".28" stop-color="#261C38" stop-opacity=".3"/><stop offset=".86" stop-color="#302640" stop-opacity=".05"/><stop offset="1" stop-color="#302640" stop-opacity="0"/></radialGradient><clipPath id="clip0_5070_9931"><path fill="#fff" d="M0 0h1272.06v378H0z"/></clipPath></defs></svg>