<svg xmlns="http://www.w3.org/2000/svg" viewBox="0 0 1430 807.33"><path d="M727.35 328.43l84.18-49.28v139.61L727.35 467v48.25l211.46-121.13v-48.24l-84.17 47.21v-139.6l84.17-49.27V157L727.35 278.13zm179.64-207.36l-16.42-9.24-173.48 100.6-130.37-74.93 131.39-75.97 30.8 18.48 44.14-25.66-75.96-43.11-217.62 125.23 1.03 1.03 217.61 125.23 215.57-126.26zM497.42 394.12l39.01 22.58 1.03 1.03v-87.25l128.31 74.93v85.2l44.14 24.64V278.13L497.42 157v237.12zm39-166.29l129.34 75.96v52.35l-129.34-73.91v-54.4zM177.47 707.16l.22.65c.29 16.96-4.89 30.41-15.53 40.37-10.64 9.96-25.41 14.94-44.32 14.94-18.98 0-34.38-6.1-46.21-18.29-11.83-12.19-17.75-27.89-17.75-47.08v-31.28c0-19.12 5.77-34.81 17.32-47.08S97.74 601 116.21 601c19.48 0 34.7 5 45.67 14.99 10.97 9.99 16.31 23.61 16.02 40.86l-.22.65h-30.74c0-10.39-2.49-18.34-7.47-23.86s-12.73-8.28-23.27-8.28c-9.45 0-16.96 3.84-22.51 11.51-5.56 7.68-8.33 17.47-8.33 29.36v31.46c0 12.04 2.92 21.9 8.77 29.58 5.84 7.68 13.74 11.51 23.7 11.51 9.88 0 17.19-2.65 21.92-7.95 4.73-5.3 7.09-13.19 7.09-23.65h30.63zm160.54-10.93c0 19.34-6.11 35.32-18.34 47.94-12.23 12.63-28.12 18.94-47.67 18.94-19.41 0-35.17-6.31-47.29-18.94-12.12-12.63-18.18-28.61-18.18-47.94v-28.36c0-19.26 6.04-35.23 18.13-47.89 12.09-12.66 27.83-18.99 47.24-18.99 19.55 0 35.46 6.33 47.73 18.99 12.27 12.66 18.4 28.63 18.4 47.89v28.36zm-31.61-28.48c0-12.29-3.07-22.37-9.2-30.26-6.13-7.88-14.57-11.82-25.32-11.82s-19.08 3.92-25 11.77c-5.92 7.84-8.87 17.95-8.87 30.31v28.62c0 12.51 2.99 22.7 8.98 30.58 5.99 7.88 14.32 11.82 25 11.82 10.82 0 19.26-3.94 25.32-11.82 6.06-7.88 9.09-18.07 9.09-30.58v-28.62zm194.75 93.09h-31.49l-63.64-107.68-.65.11v107.58h-31.6V603.27h31.6L469 710.84l.65-.11V603.27h31.49v157.57zm149.5-133.22h-44.59v133.23h-31.6V627.62h-44.37v-24.35h120.56v24.35zm125.58 63.96h-65.26v44.91h76.3v24.35h-107.9V603.27h107.68v24.35h-76.08v39.61h65.26v24.35zm168.88 69.26h-31.49l-63.64-107.68-.65.11v107.58h-31.6V603.27h31.6l63.64 107.58.65-.11V603.27h31.49v157.57zm149.5-133.22h-44.59v133.23h-31.6V627.62h-44.37v-24.35h120.56v24.35z" fill="#0027c8"/><path d="M1274.14 726.86h-55.3l-10.71 33.98h-31.93l54.22-157.58h32.36l54 157.58h-31.93l-10.71-33.98zm-47.51-24.78h39.72l-19.48-61.91h-.65l-19.59 61.91zm149.5 58.76h-31.6V603.27h31.6v157.57z"/></svg>