<svg xmlns="http://www.w3.org/2000/svg" viewBox="0 0 439 165"><path d="M187.1 109.5h-62.5c-.9 0-1.6.7-1.6 1.6v2.8c0 .9.7 1.6 1.6 1.6h62.5c.9 0 1.6-.7 1.6-1.6v-2.8c0-.9-.7-1.6-1.6-1.6zm-76.5-44.6c-1.7-1.7-3.8-2.6-6.3-2.6H60v53.2h6V95.6l22.4.1 16.6 19.8h7.9v-.1L96.2 95.7h8.1c2.5 0 4.6-.9 6.3-2.6 1.7-1.7 2.6-3.8 2.6-6.2V71.1c0-2.3-.9-4.4-2.6-6.2zm-3.5 22c0 .8-.3 1.5-.8 2s-1.2.8-2 .8H68.9c-.8 0-1.5-.3-2-.8-.6-.5-.8-1.2-.8-2V71.1c0-.8.3-1.5.8-2 .6-.6 1.2-.8 2-.8h35.5c.8 0 1.5.3 2 .8.5.6.8 1.2.8 2v15.8zm204.6-24.6h-35.5c-2.5 0-4.6.9-6.3 2.6-1.7 1.7-2.6 3.8-2.6 6.3v11.9c0 2.4.9 4.5 2.6 6.2 1.7 1.7 3.8 2.6 6.3 2.6h35.5c.8 0 1.5.3 2 .8.6.5.8 1.2.8 2v11.9c0 .8-.3 1.5-.8 2-.6.6-1.2.8-2 .8h-35.5c-.8 0-1.5-.3-2-.8-.6-.6-.8-1.2-.8-2v-2.1h-6v2.1c0 2.5.9 4.6 2.6 6.3 1.7 1.7 3.8 2.6 6.3 2.6h35.5c2.5 0 4.6-.9 6.3-2.6 1.7-1.7 2.6-3.8 2.6-6.3V94.8c0-2.4-.9-4.5-2.6-6.2-1.7-1.7-3.8-2.6-6.3-2.6h-35.5c-.8 0-1.5-.3-2-.8-.6-.5-.8-1.2-.8-2v-12c0-.8.3-1.5.8-2 .6-.6 1.2-.8 2-.8h35.5c.8 0 1.5.3 2 .8.6.6.8 1.2.8 2v2.1h6v-2.1c0-2.5-.9-4.6-2.6-6.3-1.7-1.7-3.8-2.6-6.3-2.6zm-60.9 0H236v6h14.8c.8 0 1.5.3 2 .8.6.6.8 1.2.8 2v35.5c0 .8-.3 1.5-.8 2-.6.6-1.2.8-2 .8h-35.5c-.8 0-1.5-.3-2-.8-.6-.6-.8-1.2-.8-2V82.8h-6v23.8c0 2.5.9 4.6 2.6 6.3 1.7 1.7 3.8 2.6 6.3 2.6h35.5c2.5 0 4.6-.9 6.3-2.6 1.7-1.7 2.6-3.8 2.6-6.3V71.2c0-2.5-.9-4.6-2.6-6.3-1.9-1.7-4-2.6-6.4-2.6zm75 0v6h23.7v47.2h5.9V68.3H379v-6z" fill="#3b3e40"/><path d="M170.2 49.5v44.2c0 .8-.3 1.5-.8 2-.6.6-1.2.8-2 .8h-35.5c-.8 0-1.5-.3-2-.8-.6-.6-.8-1.2-.8-2V49.5h-6v44.3c0 2.5.9 4.6 2.6 6.3 1.7 1.7 3.8 2.6 6.3 2.6h35.5c2.5 0 4.6-.9 6.3-2.6 1.7-1.7 2.6-3.8 2.6-6.3V49.5h-6.2zm63.1 2.6c-1.7-1.7-3.8-2.6-6.3-2.6h-44.2v18.8h6V55.5h38.5c1.6 0 2.8 1.3 2.8 2.8V74c0 .3-.1.6-.2.9 0 .1-.1.2-.1.3-.1.3-.3.5-.5.8-.3.2-.5.4-.9.6h-.1c-.3.1-.7.2-1 .2h-44.4v25.9h6V82.8h38.3c2.5 0 4.6-.9 6.3-2.6 1.7-1.7 2.6-3.8 2.6-6.2V58.4c-.2-2.5-1-4.5-2.8-6.3z" fill="#ee4a23"/></svg>