<svg xmlns="http://www.w3.org/2000/svg" width="350.208" height="75.145" viewBox="0 1.334 350.208 75.145"><path fill="#2F3947" d="M47.447 49.937c-1.698 0-3.109 1.388-3.105 3.064l-.004 3.805c.004 1.693 1.404 3.064 3.111 3.072 1.7.004 3.109-1.4 3.109-3.072v-3.799c-.002-1.69-1.399-3.065-3.111-3.07zM2.05 45.976l.002 18.481 6.225.006-.004-18.49-6.223.003zm10.574 0v18.481l6.224.006-.004-18.486-6.22-.001zm24.252-3.832c-1.699-.004-3.108 1.396-3.109 3.061l-.004 20.015c.004 1.693 1.407 3.064 3.119 3.07 1.701.006 3.109-1.402 3.109-3.07l.001-20.015c-.006-1.684-1.407-3.061-3.116-3.061zm-10.567-6.937c-1.703 0-3.109 1.38-3.106 3.06l-.005 33.9c0 1.682 1.4 3.064 3.109 3.072 1.695 0 3.108-1.406 3.108-3.072l.001-33.908c.002-1.687-1.396-3.058-3.107-3.052zm96.457-21.828h-8.876v30.826c.009.984-.108 1.988-.341 3.027a11.972 11.972 0 01-1.153 3.038c-.516.972-1.221 1.832-2.079 2.626-.87.771-1.935 1.395-3.194 1.842-1.253.469-2.736.699-4.438.711-1.703-.012-3.185-.242-4.439-.711-1.256-.449-2.324-1.07-3.181-1.842-.869-.794-1.574-1.655-2.09-2.626a12.331 12.331 0 01-1.149-3.038 13.634 13.634 0 01-.341-3.027V13.379h-8.879v31.098c.013 2.978.528 5.646 1.541 8.019.995 2.387 2.406 4.41 4.224 6.084 1.809 1.68 3.932 2.961 6.363 3.855 2.429.879 5.087 1.326 7.951 1.34 2.862-.014 5.519-.461 7.951-1.34 2.442-.895 4.556-2.178 6.374-3.855 1.81-1.678 3.221-3.697 4.23-6.084.996-2.372 1.514-5.043 1.525-8.019l.001-31.098zm86.562 23.233c-.248-.059-.514-.098-.769-.14a10.708 10.708 0 00-2.02-.189c-1.586.02-2.924.248-4.002.697-1.083.453-1.964 1.03-2.633 1.737-.685.715-1.199 1.459-1.55 2.232-.355.777-.6 1.504-.729 2.165-.13.667-.186 1.19-.175 1.566v17.847h-8.456V29.205h8.456v5.281h.14c.622-1.274 1.422-2.374 2.423-3.288a10.579 10.579 0 013.428-2.083c1.278-.489 2.662-.741 4.157-.741a8 8 0 011.538.142c.522.094 1.09.225 1.581.377.165-.492.343-.972.533-1.444 1.282-3.19 3.103-5.936 5.461-8.216 2.349-2.279 5.12-4.023 8.337-5.25 3.203-1.231 6.742-1.836 10.593-1.857a43.2 43.2 0 017.316.583 28.676 28.676 0 016.622 1.958 22.73 22.73 0 015.722 3.643l-6.559 6.528a15.49 15.49 0 00-3.676-2.604 19.922 19.922 0 00-4.459-1.633 21.362 21.362 0 00-4.897-.552c-2.583.011-4.921.469-7.012 1.363-2.101.902-3.895 2.14-5.412 3.746-1.504 1.603-2.654 3.463-3.464 5.578-.808 2.121-1.222 4.406-1.234 6.869.013 2.642.426 5.062 1.234 7.285.811 2.204 1.96 4.138 3.464 5.786a15.769 15.769 0 005.412 3.815c2.091.898 4.429 1.359 7.012 1.373 2.266 0 4.392-.205 6.374-.639 1.989-.416 3.759-1.061 5.32-1.922V41.701h-10.217v-7.913h19.094v25.126c-3.023 1.605-6.269 2.816-9.71 3.629-3.451.82-7.092 1.232-10.934 1.232-3.851-.014-7.387-.625-10.593-1.852-3.216-1.209-5.986-2.949-8.336-5.203-2.362-2.268-4.181-4.955-5.462-8.09-1.289-3.139-1.936-6.615-1.959-10.467.005-.522.016-1.039.041-1.551zm-58.702-3.174a11.022 11.022 0 00-3.347-2.949 14.978 14.978 0 00-4.181-1.619 20.033 20.033 0 00-4.518-.498c-1.728 0-3.396.208-5.001.639-1.623.425-3.07 1.072-4.36 1.955-1.285.88-2.312 2-3.073 3.351-.754 1.354-1.144 2.968-1.164 4.816.021 1.804.354 3.275 1.009 4.415a7.602 7.602 0 002.609 2.742 14.398 14.398 0 003.568 1.589 53.44 53.44 0 003.876.96c1.303.257 2.49.545 3.572.866 1.078.318 1.949.751 2.607 1.312.657.549.997 1.304 1.008 2.283-.014.654-.189 1.221-.528 1.709a4.213 4.213 0 01-1.362 1.189 7.782 7.782 0 01-1.819.688 8.269 8.269 0 01-1.928.229c-1.187-.016-2.253-.188-3.193-.531a9.668 9.668 0 01-2.583-1.455 18.52 18.52 0 01-2.257-2.105l-5.635 5.199c1.15 1.264 2.421 2.287 3.792 3.037a15.728 15.728 0 004.415 1.615c1.576.332 3.229.494 4.968.49 1.396 0 2.781-.119 4.169-.355a18.362 18.362 0 003.944-1.135c1.244-.51 2.362-1.182 3.325-2.021a8.868 8.868 0 002.287-3.031c.563-1.193.846-2.559.856-4.154-.011-1.837-.351-3.355-1.006-4.554-.66-1.193-1.53-2.153-2.608-2.871a14.24 14.24 0 00-3.57-1.692 39.016 39.016 0 00-3.875-1.002 59.107 59.107 0 01-3.57-.837c-1.083-.283-1.952-.665-2.61-1.156-.656-.483-.998-1.15-1.008-1.977.022-.834.281-1.506.779-2.025.502-.533 1.125-.916 1.874-1.158a7.262 7.262 0 012.28-.358c1.445 0 2.699.292 3.792.866 1.08.581 2.029 1.422 2.829 2.536l5.637-5.003zm35.693 15.349v-2.295c-.014-2.904-.387-5.476-1.151-7.718-.751-2.256-1.83-4.141-3.23-5.69a13.831 13.831 0 00-5.016-3.507c-1.934-.797-4.085-1.203-6.458-1.203-2.572.008-4.966.424-7.187 1.261-2.218.833-4.155 2.012-5.836 3.551-1.678 1.539-2.981 3.377-3.935 5.522-.94 2.137-1.419 4.532-1.432 7.16.013 2.626.492 5.009 1.432 7.159.953 2.137 2.256 3.986 3.935 5.525 1.684 1.537 3.618 2.715 5.836 3.553 2.219.834 4.614 1.25 7.187 1.262a20.45 20.45 0 005.213-.662c1.682-.449 3.29-1.174 4.818-2.156 1.524-.971 2.956-2.266 4.27-3.848l-6.057-4.514a13.978 13.978 0 01-2.362 2.314 10.478 10.478 0 01-2.958 1.594c-1.103.395-2.359.588-3.771.604-1.585-.016-3.027-.328-4.335-.967a8.203 8.203 0 01-3.192-2.699c-.846-1.188-1.362-2.605-1.562-4.248h25.791v.002zm-25.787-6.256c.212-1.604.693-2.991 1.437-4.176a7.515 7.515 0 012.956-2.753c1.222-.652 2.678-.972 4.345-.985 1.773.013 3.287.333 4.566.971 1.27.636 2.256 1.553 2.95 2.733.694 1.183 1.059 2.578 1.08 4.209h-17.334v.001zM281.931 62.53h7.609V43.372a37.529 37.529 0 00-.073-2.761 17.55 17.55 0 00-.47-3.224 11.856 11.856 0 00-1.266-3.287c-.589-1.064-1.408-2.024-2.472-2.892-1.065-.855-2.415-1.538-4.084-2.052-1.651-.502-3.685-.774-6.082-.783-1.794 0-3.558.184-5.271.553a20.229 20.229 0 00-4.905 1.739 16.49 16.49 0 00-4.195 3.054l4.442 4.375c1.139-1.055 2.488-1.899 4.026-2.521 1.549-.622 3.221-.941 4.99-.955 1.515 0 2.856.235 4.012.71 1.166.469 2.069 1.171 2.732 2.105.655.922.995 2.072 1.006 3.432v.906h-2.11a75.286 75.286 0 00-4.511.106 42.308 42.308 0 00-4.77.5 24.67 24.67 0 00-4.532 1.128c-1.434.511-2.713 1.194-3.833 2.043a9.108 9.108 0 00-2.653 3.205c-.64 1.283-.973 2.821-.984 4.616.013 1.654.362 3.1 1.045 4.332a9.457 9.457 0 002.77 3.141 12.712 12.712 0 003.95 1.883c1.455.428 2.981.639 4.562.639 1.517 0 2.937-.188 4.288-.566a12.014 12.014 0 003.688-1.789c1.115-.787 2.082-1.809 2.88-3.059h.208v4.58h.003zm-.495-13.05c0 1.554-.305 2.903-.924 4.043-.626 1.143-1.562 2.021-2.821 2.646-1.258.617-2.856.928-4.78.945a8.557 8.557 0 01-2.076-.256 6.849 6.849 0 01-1.914-.789 4.348 4.348 0 01-1.39-1.365c-.35-.545-.527-1.199-.538-1.965.011-.95.302-1.749.87-2.367.573-.639 1.315-1.139 2.253-1.506.94-.377 1.961-.654 3.089-.838a29.332 29.332 0 013.37-.36 60.075 60.075 0 013.099-.067h1.76l.002 1.879zm15.009-13.196v15.273c-.011 1.966.14 3.683.468 5.154.332 1.48.89 2.705 1.704 3.693.812.98 1.938 1.721 3.386 2.219 1.44.496 3.282.74 5.507.74.665 0 1.407-.037 2.215-.109a18.056 18.056 0 002.401-.346 9.074 9.074 0 002.074-.656V55.24c-.363.254-.812.453-1.328.609a9.366 9.366 0 01-1.644.328c-.577.07-1.104.1-1.61.1-1.23 0-2.196-.221-2.889-.654-.676-.439-1.16-1.068-1.435-1.873-.282-.805-.41-1.777-.398-2.888V36.284h9.302v-7.081h-9.301v-9.646h-8.453v9.646h-6.033v7.081h6.034zm51.713 12.503v-2.295c-.009-2.904-.388-5.476-1.151-7.718-.749-2.256-1.831-4.141-3.231-5.69a13.803 13.803 0 00-5.013-3.507c-1.933-.797-4.09-1.203-6.452-1.203-2.581.008-4.972.424-7.192 1.261-2.219.833-4.157 2.012-5.832 3.551-1.677 1.539-2.985 3.377-3.933 5.522-.938 2.137-1.424 4.532-1.434 7.16.01 2.626.495 5.009 1.434 7.159.947 2.137 2.256 3.986 3.933 5.525 1.678 1.537 3.613 2.715 5.832 3.553 2.219.834 4.611 1.25 7.192 1.262a20.53 20.53 0 005.213-.662c1.674-.449 3.281-1.174 4.811-2.156 1.526-.971 2.959-2.266 4.277-3.848l-6.061-4.514a13.967 13.967 0 01-2.354 2.314 10.582 10.582 0 01-2.964 1.594c-1.108.395-2.364.588-3.771.604-1.588-.016-3.029-.328-4.335-.967a8.19 8.19 0 01-3.192-2.699c-.851-1.188-1.367-2.605-1.562-4.248h25.785v.002zm-25.785-6.256c.211-1.604.689-2.991 1.434-4.176a7.562 7.562 0 012.956-2.753c1.221-.652 2.68-.972 4.347-.985 1.772.013 3.287.333 4.569.971 1.266.636 2.251 1.553 2.942 2.733.693 1.183 1.06 2.578 1.084 4.209h-17.332v.001z"/><path fill="#5779A1" d="M26.313 27.876c1.7 0 3.11-1.391 3.105-3.068l.005-3.804c-.005-1.688-1.402-3.06-3.109-3.071-1.702-.003-3.109 1.402-3.109 3.071v3.798c.002 1.69 1.399 3.064 3.108 3.074zm45.397 3.953l-.002-18.479-6.225-.003.004 18.49 6.223-.008zm-10.572.006l-.001-18.484-6.224-.003.005 18.481 6.22.006zM36.887 35.67c1.698 0 3.106-1.4 3.108-3.063l.004-20.016c-.004-1.691-1.404-3.062-3.117-3.071-1.703 0-3.109 1.402-3.109 3.071l-.001 20.016c.002 1.683 1.402 3.063 3.115 3.063zm10.566 6.936c1.703 0 3.108-1.381 3.107-3.064l.002-33.897c.001-1.685-1.397-3.068-3.109-3.07-1.697-.003-3.105 1.403-3.105 3.071l-.004 33.902c-.002 1.686 1.398 3.058 3.109 3.058z"/></svg>