<svg version="1.1" id="Layer_1" xmlns="http://www.w3.org/2000/svg" x="0" y="0" viewBox="0 0 340 120" xml:space="preserve"><style>.st0{fill:#555}.st1{fill:#333}</style><path class="st0" d="M144.9 73.7l10.7-25.3c.1-.1 0-.3-.2-.3h-9.6c-.1 0-.1 0-.2-.1l-3.3-5.2c-.1-.1 0-.3.2-.3H162c.1 0 .2.1.2.2v4l-11 27.2c0 .1-.1.1-.2.1h-6c-.1 0-.2-.1-.1-.3zM160.3 63l2-4.9c0-.1.1-.1.2-.1h9.7c.1 0 .2.1.2.2v4.9c0 .1-.1.2-.2.2h-11.7c-.2 0-.3-.1-.2-.3z"/><path class="st1" d="M221.4 74v-4.7h-.4c-2.6 0-4.9-.5-6.9-1.4-2-.9-3.5-2.3-4.6-4.1-1.1-1.8-1.7-3.9-1.7-6.1 0-2.2.5-4.1 1.5-5.9 1-1.7 2.5-3.1 4.3-4.1s4.1-1.5 6.7-1.5h1.1v-3.8h5.9v3.8h1.1c2.6 0 4.8.5 6.7 1.5s3.3 2.3 4.4 4.1c1 1.7 1.5 3.7 1.5 5.9s-.6 4.3-1.7 6.1c-1.1 1.8-2.7 3.2-4.6 4.1-2 .9-4.3 1.4-6.9 1.4h-.5V74h-5.9zm0-22.7h-.9c-2.1 0-3.7.6-4.9 1.7-1.2 1.1-1.8 2.7-1.8 4.6 0 2 .6 3.6 1.9 4.8 1.3 1.2 3 1.8 5.3 1.8h.3V51.3zm5.9 13h.3c2.3 0 4-.6 5.3-1.8 1.3-1.2 1.9-2.8 1.9-4.9 0-1.9-.6-3.4-1.8-4.6-1.2-1.2-2.8-1.7-4.9-1.7h-.9v13zM205 58.2c0 5.1-1.3 9-3.8 11.7-2.5 2.7-6.1 4.1-10.8 4.1s-8.3-1.4-10.8-4.1c-2.5-2.7-3.8-6.6-3.8-11.7s1.3-9 3.8-11.7c2.5-2.7 6.1-4 10.9-4 4.7 0 8.3 1.4 10.8 4.1 2.5 2.6 3.7 6.5 3.7 11.6zm-22.4 0c0 3.4.7 6 2 7.7 1.3 1.7 3.2 2.6 5.8 2.6 5.2 0 7.8-3.4 7.8-10.3s-2.6-10.3-7.7-10.3c-2.6 0-4.5.9-5.9 2.6-1.3 1.7-2 4.3-2 7.7z"/><path class="st0" d="M141.8 52.3c0 3.4-1.1 6-3.2 7.8-2.1 1.8-5.1 2.7-9.1 2.7h-2.9V74H120V42.5h10.1c3.8 0 6.7.8 8.7 2.5 2 1.6 3 4.1 3 7.3zm-15.1 5h2.2c2.1 0 3.6-.4 4.6-1.2 1-.8 1.5-2 1.5-3.5 0-1.6-.4-2.7-1.3-3.5-.9-.7-2.2-1.1-4-1.1h-3v9.3z"/><path class="st1" d="M244.5 42.5h6v15.2l-.1 4.1-.2 4.6h.1l14.6-23.9h8V74h-6V58.9c0-2 .1-5 .4-9h-.2L252.6 74h-8V42.5zm46.5 5.4c-2.4 0-4.3.9-5.7 2.8-1.3 1.8-2 4.4-2 7.7 0 6.8 2.6 10.3 7.7 10.3 2.2 0 4.8-.5 7.8-1.6v5.5c-2.5 1-5.3 1.6-8.4 1.6-4.5 0-7.9-1.4-10.2-4.1-2.4-2.7-3.5-6.6-3.5-11.7 0-3.2.6-6 1.7-8.4 1.2-2.4 2.8-4.2 5-5.5 2.2-1.3 4.7-1.9 7.6-1.9 3 0 6 .7 9 2.2l-2.1 5.3c-1.1-.5-2.3-1-3.5-1.4-1.2-.6-2.3-.8-3.4-.8z"/><linearGradient id="SVGID_1_" gradientUnits="userSpaceOnUse" x1="68.993" y1="63.408" x2="68.993" y2="32.166" gradientTransform="translate(-.007 -.008)"><stop offset="0" stop-color="#ff8745"/><stop offset=".661" stop-color="#e15318"/><stop offset="1" stop-color="#d13700"/></linearGradient><path d="M66 62.2L54.6 50.8c-1.6-1.6-1.6-4.3 0-6L66 33.4c1.6-1.6 4.3-1.6 6 0l11.4 11.4c1.6 1.6 1.6 4.3 0 6L72 62.2c-1.7 1.6-4.4 1.6-6 0z" fill="url(#SVGID_1_)"/><linearGradient id="SVGID_2_" gradientUnits="userSpaceOnUse" x1="47.881" y1="84.482" x2="47.881" y2="53.24" gradientTransform="translate(-.007 -.008)"><stop offset="0" stop-color="#4eb7e5"/><stop offset="1" stop-color="#328bcb"/></linearGradient><path d="M44.9 83.1L33.5 71.7c-1.6-1.6-1.6-4.3 0-6l11.4-11.4c1.6-1.6 4.3-1.6 6 0l11.4 11.4c1.6 1.6 1.6 4.3 0 6L50.9 83.1c-1.7 1.7-4.4 1.7-6 0z" fill="url(#SVGID_2_)"/><linearGradient id="SVGID_3_" gradientUnits="userSpaceOnUse" x1="89.767" y1="84.35" x2="89.767" y2="53.108" gradientTransform="translate(-.007 -.008)"><stop offset="0" stop-color="#9bda32"/><stop offset="1" stop-color="#6ea70e"/></linearGradient><path d="M86.8 83.1L75.4 71.7c-1.6-1.6-1.6-4.3 0-6l11.4-11.4c1.6-1.6 4.3-1.6 6 0l11.4 11.4c1.6 1.6 1.6 4.3 0 6L92.7 83.1a4.05 4.05 0 01-5.9 0z" fill="url(#SVGID_3_)"/></svg>