<svg width="333" height="64" fill="none" xmlns="http://www.w3.org/2000/svg"><path d="M28.45 19.863c-6.164 2.07-9.98 5.797-12.45 10.45 1.205-6.684 5.221-10.726 11.648-12.52.16-.04.3-.08.461-.099 2.37-.414 3.093.276 1.788 1.38a4.474 4.474 0 01-1.446.789z" fill="url(#paint0_linear_601_14081)"/><path d="M18.33 40.547c-2.028-2.878-2.47-5.994-.642-9.464 1.204-2.13 2.71-3.924 4.558-5.343 1.346-1.045 2.872-1.814 4.498-2.386 5.362-1.893 7.592-3.845 5.844-5.876 2.029.138 3.595.73 3.434 2.879-.883 3.53-3.996 5.757-8.334 7.315-1.245.454-2.45 1.006-3.574 1.735-4.298 2.74-6.346 6.408-5.784 11.14z" fill="url(#paint1_linear_601_14081)"/><path d="M32.547 34.1c-6.165 2.72-10.081 4.771-9.097 10.844-4.74-3.53-3.113-10.647 2.73-13.684 9.84-4.475 13.737-8.715 11.508-12.205 4.498 3.747 4.518 7.631.06 11.673-1.526 1.42-3.293 2.544-5.201 3.372z" fill="url(#paint2_linear_601_14081)"/><path d="M38.27 38.871c-7.008 5.245-10.703 4.299-9.498 7.65-7.21-1.577-2.55-6.427 4.398-9.957 1.847-.946 3.634-1.892 5.281-3.135 5.04-3.766 4.74-8.577 3.454-10.785 5.061 4.95 2.49 11.436-3.635 16.227z" fill="url(#paint3_linear_601_14081)"/><path d="M33.27 44.017c6.166-2.07 9.981-5.796 12.451-10.45-1.204 6.665-5.22 10.727-11.647 12.52-.16.04-.301.08-.462.1-2.37.413-3.093-.277-1.787-1.38a4.881 4.881 0 011.446-.79z" fill="url(#paint4_linear_601_14081)"/><path d="M60.86 24.91c1.49.735 1.686 2.108 1.539 2.922-.279 1.708-1.458 2.745-3.882 2.745H54.06V19.931h4.39c2.08 0 3.604 1.213 3.555 3.24-.033.495-.344 1.34-1.147 1.74zm-2.409-.813c1.343 0 1.393-1.9 0-1.9h-1.605v1.9h1.605zm0 4.118c1.671 0 1.638-2.187 0-2.187h-1.605v2.187h1.605zm7.977-1.197c0 1.708 3.112 1.708 3.128 0V19.93h2.801v7.087c-.016 4.996-8.73 4.996-8.714 0V19.93h2.785v7.087zm8.782.192c1.097 1.293 3.505 1.356 3.587.207.033-.606-.967-.942-1.867-1.07-1.753-.27-3.358-1.356-3.358-3.383 0-2.091 1.949-3.192 3.947-3.192 1.327 0 2.605.367 3.735 1.691l-1.802 1.357c-1.147-1.181-3.096-1.15-3.145.096.033.51.606.814 1.458.99 1.95.35 3.882 1.005 3.767 3.623-.098 2.059-2.31 3.192-4.324 3.192-1.31 0-2.703-.654-3.718-1.931l1.72-1.58zm10.237 3.367h-2.769V19.931h2.769v10.646zm1.735-10.647h2.621l2.637 4.534.934 2.139.082-.016c-.017 0-.295-1.836-.311-1.836v-4.82h2.751v10.646h-2.8l-2.474-4.198-.95-2.139-.082.017.36 2.059v4.261h-2.768V19.931zm13.219 4.183h4.423v2.33h-4.423v1.596h4.816v2.538h-7.6V19.931h7.6v2.522h-4.816v1.66zm7.501 3.097c1.098 1.293 3.506 1.356 3.588.207.032-.606-.967-.942-1.868-1.07-1.752-.27-3.358-1.356-3.358-3.383 0-2.091 1.95-3.192 3.948-3.192 1.327 0 2.604.367 3.735 1.691l-1.802 1.357c-1.147-1.181-3.096-1.15-3.145.096.033.51.606.814 1.458.99 1.949.35 3.882 1.005 3.767 3.623-.098 2.059-2.31 3.192-4.324 3.192-1.311 0-2.703-.654-3.719-1.931l1.72-1.58zm8.715 0c1.097 1.293 3.505 1.356 3.587.207.033-.606-.967-.942-1.867-1.07-1.753-.27-3.358-1.356-3.358-3.383 0-2.091 1.949-3.192 3.947-3.192 1.327 0 2.605.367 3.735 1.691l-1.802 1.357c-1.147-1.181-3.096-1.15-3.145.096.033.51.606.814 1.458.99 1.949.35 3.882 1.005 3.767 3.623-.098 2.059-2.309 3.192-4.324 3.192-1.31 0-2.703-.654-3.718-1.931l1.72-1.58zm12.138.287h-4.816v-2.554h4.816v2.554zm4.308-.479c0 1.708 3.112 1.708 3.128 0V19.93h2.801v7.087c-.016 4.996-8.73 4.996-8.714 0V19.93h2.801v7.087h-.016zm7.567-7.088h4.373c2.67 0 3.997 1.884 3.997 3.768 0 1.9-1.343 3.767-3.98 3.767h-1.622v3.112h-2.768V19.931zm4.357 5.14c1.671.017 1.671-2.65 0-2.633h-1.605v2.633h1.605zM54.061 41.723v-6.685h2.38c1.074 0 1.96.319 2.637.955.677.637 1.027 1.433 1.027 2.388 0 .955-.35 1.75-1.027 2.387-.676.637-1.563.955-2.613.955H54.06zm.77-.682h1.61c.864 0 1.54-.25 2.077-.75.514-.5.77-1.137.77-1.887s-.256-1.387-.793-1.888c-.513-.5-1.213-.75-2.053-.75h-1.61v5.275zm6.789-5.344v-.795h.864v.818h-.863v-.023zm.047 6.026V36.79h.747v4.934h-.747zm4.762 1.547c-.864 0-1.634-.227-2.31-.682l.35-.569a3.251 3.251 0 001.96.637c.56 0 1.026-.159 1.353-.455.327-.295.49-.727.49-1.296v-.59c-.537.704-1.19 1.045-1.983 1.045-.63 0-1.19-.205-1.68-.637-.467-.432-.7-1-.7-1.682 0-.705.233-1.25.723-1.683a2.36 2.36 0 011.657-.637c.816 0 1.47.342 1.983 1v-.886h.747v4.093c0 .75-.21 1.319-.654 1.75-.443.387-1.096.592-1.936.592zm0-2.57c.49 0 .933-.159 1.306-.477.374-.318.56-.727.56-1.205 0-.477-.186-.887-.56-1.205a1.966 1.966 0 00-1.306-.478c-.49 0-.91.16-1.26.455a1.622 1.622 0 00-.514 1.228c0 .477.164.887.514 1.205.35.319.77.478 1.26.478zm4.291-5.003v-.795h.864v.818h-.864v-.023zm.047 6.026V36.79h.747v4.934h-.747zm4.203.091c-.443 0-.793-.114-1.05-.34-.257-.228-.397-.57-.397-1.047V37.45h-.7v-.66h.7v-1.5h.747v1.5h1.61v.66h-1.61v2.887c0 .546.28.819.864.819.256 0 .49-.068.746-.182v.637a1.98 1.98 0 01-.91.204zm3.78.023c-.514 0-.957-.136-1.33-.41-.374-.272-.56-.659-.56-1.136 0-.523.186-.91.583-1.205.397-.273.91-.432 1.587-.432.513 0 1.05.068 1.54.204V38.7c0-.432-.14-.773-.397-1-.257-.228-.63-.341-1.12-.341a3.61 3.61 0 00-1.54.364l-.233-.592c.63-.273 1.236-.432 1.843-.432.724 0 1.26.182 1.633.546.35.341.537.819.537 1.455v3.024h-.723v-.727c-.444.568-1.05.841-1.82.841zm.14-.591c.466 0 .863-.114 1.19-.364.326-.25.49-.568.49-.955v-.455a5.46 5.46 0 00-1.47-.204c-.467 0-.817.09-1.097.273a.88.88 0 00-.397.75c0 .296.117.546.374.728.256.136.56.227.91.227zm4.106.478v-6.981h.747v6.98h-.747zm6.954.113c-.513 0-.956-.136-1.33-.41-.373-.272-.56-.659-.56-1.136 0-.523.187-.91.584-1.205.397-.273.91-.432 1.587-.432.513 0 1.05.068 1.54.204V38.7c0-.432-.14-.773-.397-1-.256-.228-.63-.341-1.12-.341a3.61 3.61 0 00-1.54.364l-.233-.592c.63-.273 1.237-.432 1.843-.432.724 0 1.26.182 1.634.546.35.341.536.819.536 1.455v3.024h-.723v-.727c-.443.568-1.05.841-1.82.841zm.14-.591c.468 0 .864-.114 1.19-.364.328-.25.49-.568.49-.955v-.455a5.46 5.46 0 00-1.47-.204c-.466 0-.816.09-1.096.273a.88.88 0 00-.397.75c0 .296.117.546.374.728.257.136.56.227.91.227zm6.278 2.024c-.864 0-1.634-.227-2.31-.682l.35-.569a3.251 3.251 0 001.96.637c.56 0 1.026-.159 1.353-.455.327-.295.49-.727.49-1.296v-.59c-.537.704-1.19 1.045-1.983 1.045-.63 0-1.19-.205-1.68-.637-.467-.432-.7-1-.7-1.682 0-.705.233-1.25.723-1.683a2.36 2.36 0 011.657-.637c.816 0 1.47.342 1.983 1v-.886h.747v4.093c0 .75-.21 1.319-.654 1.75-.443.387-1.096.592-1.936.592zm0-2.57c.49 0 .933-.159 1.306-.477.374-.318.56-.727.56-1.205 0-.477-.186-.887-.56-1.205a1.966 1.966 0 00-1.306-.478c-.49 0-.91.16-1.26.455a1.622 1.622 0 00-.514 1.228c0 .477.163.887.514 1.205.35.319.77.478 1.26.478zm4.712-1.137c.047.5.257.91.583 1.205.327.296.747.455 1.19.455.607 0 1.144-.227 1.61-.705l.467.41c-.56.614-1.26.932-2.1.932-.723 0-1.307-.25-1.797-.728-.49-.477-.723-1.091-.723-1.864 0-.728.233-1.342.7-1.842a2.28 2.28 0 011.727-.75c.723 0 1.306.25 1.726.75.42.5.63 1.114.63 1.864v.25h-4.013v.023zm0-.59h3.267c-.047-.478-.21-.865-.49-1.183-.28-.319-.654-.478-1.144-.478-.42 0-.793.16-1.12.478-.28.295-.443.682-.513 1.182zm5.367 2.75V36.79h.746v.864c.397-.636.98-.955 1.727-.955.607 0 1.073.182 1.423.546.35.364.514.841.514 1.432v3.047h-.747v-2.887c0-.455-.117-.819-.373-1.092-.257-.273-.584-.386-1.027-.386-.443 0-.793.136-1.097.432a1.56 1.56 0 00-.443 1.114v2.82h-.723zm8.333.114c-.724 0-1.354-.25-1.844-.75a2.527 2.527 0 01-.747-1.82c0-.704.257-1.318.747-1.818s1.12-.75 1.844-.75c.793 0 1.47.295 2.03.886l-.49.5c-.467-.477-.98-.727-1.564-.727-.513 0-.933.182-1.283.568-.35.364-.514.841-.514 1.364 0 .546.187 1 .537 1.365.35.364.793.568 1.33.568s1.05-.25 1.54-.75l.49.455c-.606.59-1.283.91-2.076.91zm4.103 1.455c-.373 0-.723-.09-1.073-.25l.257-.59c.233.113.513.181.793.181.233 0 .42-.068.583-.205.164-.136.304-.386.467-.727l-2.31-4.934h.84l1.843 4.115 1.634-4.115h.793l-2.123 5.116c-.21.5-.444.864-.724 1.068-.28.228-.606.341-.98.341z" fill="#fff"/><path d="M159 8v48" stroke="#fff" stroke-opacity=".5" stroke-linecap="round"/><path d="M169.84 29v-8.64h3.336c.084 0 .178.004.282.012.108.004.216.016.324.036.452.068.834.226 1.146.474.316.244.554.552.714.924.164.372.246.784.246 1.236 0 .448-.082.858-.246 1.23a2.388 2.388 0 01-.72.93c-.312.244-.692.4-1.14.468a4.457 4.457 0 01-.606.048h-2.454V29h-.882zm.882-4.122h2.43c.072 0 .156-.004.252-.012s.19-.022.282-.042c.296-.064.538-.186.726-.366a1.66 1.66 0 00.426-.642c.096-.248.144-.506.144-.774s-.048-.526-.144-.774a1.651 1.651 0 00-.426-.648 1.474 1.474 0 00-.726-.366 1.648 1.648 0 00-.282-.036 3.083 3.083 0 00-.252-.012h-2.43v3.672zm8.214 4.302c-.488 0-.898-.088-1.23-.264a1.79 1.79 0 01-.738-.702 1.915 1.915 0 01-.246-.954c0-.352.07-.652.21-.9.144-.252.338-.458.582-.618.248-.16.534-.282.858-.366.328-.08.69-.15 1.086-.21.4-.064.79-.118 1.17-.162.384-.048.72-.094 1.008-.138l-.312.192c.012-.64-.112-1.114-.372-1.422-.26-.308-.712-.462-1.356-.462-.444 0-.82.1-1.128.3-.304.2-.518.516-.642.948l-.858-.252c.148-.58.446-1.03.894-1.35.448-.32 1.03-.48 1.746-.48.592 0 1.094.112 1.506.336.416.22.71.54.882.96.08.188.132.398.156.63.024.232.036.468.036.708V29h-.786v-1.626l.228.096c-.22.556-.562.98-1.026 1.272-.464.292-1.02.438-1.668.438zm.102-.762c.412 0 .772-.074 1.08-.222.308-.148.556-.35.744-.606.188-.26.31-.552.366-.876.048-.208.074-.436.078-.684.004-.252.006-.44.006-.564l.336.174c-.3.04-.626.08-.978.12-.348.04-.692.086-1.032.138-.336.052-.64.114-.912.186a2.473 2.473 0 00-.534.222 1.233 1.233 0 00-.426.372.998.998 0 00-.162.582c0 .188.046.37.138.546.096.176.248.322.456.438.212.116.492.174.84.174zm7.046.762c-.652 0-1.222-.142-1.71-.426a3.104 3.104 0 01-1.146-1.194l.708-.45c.236.4.53.704.882.912.352.208.756.312 1.212.312.476 0 .858-.11 1.146-.33.288-.22.432-.522.432-.906 0-.264-.062-.474-.186-.63-.12-.156-.304-.268-.552-.336a3.483 3.483 0 00-.918-.102h-.768v-.756h.756c.448 0 .808-.08 1.08-.24.276-.164.414-.42.414-.768 0-.368-.138-.64-.414-.816-.272-.18-.598-.27-.978-.27-.384 0-.748.08-1.092.24a2.7 2.7 0 00-.858.606l-.564-.594a3.231 3.231 0 011.134-.81 3.614 3.614 0 011.446-.282c.416 0 .792.074 1.128.222.34.144.608.356.804.636.2.28.3.616.3 1.008 0 .368-.09.686-.27.954-.176.268-.426.49-.75.666l-.048-.33c.28.052.512.164.696.336.184.172.32.378.408.618.088.24.132.484.132.732 0 .412-.108.768-.324 1.068a2.087 2.087 0 01-.87.69c-.364.16-.774.24-1.23.24zm6.658 0c-.596 0-1.1-.15-1.512-.45a2.822 2.822 0 01-.936-1.23 4.587 4.587 0 01-.318-1.746c0-.656.106-1.24.318-1.752.216-.516.532-.922.948-1.218.416-.296.928-.444 1.536-.444.592 0 1.1.15 1.524.45.424.3.748.708.972 1.224.228.516.342 1.096.342 1.74 0 .648-.114 1.23-.342 1.746a2.919 2.919 0 01-.984 1.23c-.428.3-.944.45-1.548.45zm-2.916 2.7v-9.36h.792v4.878h.096v4.482h-.888zm2.826-3.522c.452 0 .828-.114 1.128-.342.3-.228.524-.538.672-.93.152-.396.228-.84.228-1.332 0-.488-.074-.928-.222-1.32a2.023 2.023 0 00-.678-.93c-.3-.228-.682-.342-1.146-.342-.452 0-.828.11-1.128.33-.296.22-.518.526-.666.918-.148.388-.222.836-.222 1.344 0 .5.074.948.222 1.344.148.392.372.7.672.924.3.224.68.336 1.14.336zm6.136.822c-.488 0-.898-.088-1.23-.264a1.79 1.79 0 01-.738-.702 1.915 1.915 0 01-.246-.954c0-.352.07-.652.21-.9.144-.252.338-.458.582-.618.248-.16.534-.282.858-.366.328-.08.69-.15 1.086-.21.4-.064.79-.118 1.17-.162.384-.048.72-.094 1.008-.138l-.312.192c.012-.64-.112-1.114-.372-1.422-.26-.308-.712-.462-1.356-.462-.444 0-.82.1-1.128.3-.304.2-.518.516-.642.948l-.858-.252c.148-.58.446-1.03.894-1.35.448-.32 1.03-.48 1.746-.48.592 0 1.094.112 1.506.336.416.22.71.54.882.96.08.188.132.398.156.63.024.232.036.468.036.708V29h-.786v-1.626l.228.096c-.22.556-.562.98-1.026 1.272-.464.292-1.02.438-1.668.438zm.102-.762c.412 0 .772-.074 1.08-.222.308-.148.556-.35.744-.606.188-.26.31-.552.366-.876.048-.208.074-.436.078-.684.004-.252.006-.44.006-.564l.336.174c-.3.04-.626.08-.978.12-.348.04-.692.086-1.032.138-.336.052-.64.114-.912.186a2.473 2.473 0 00-.534.222 1.233 1.233 0 00-.426.372.998.998 0 00-.162.582c0 .188.046.37.138.546.096.176.248.322.456.438.212.116.492.174.84.174zm7.31.768c-.604-.004-1.122-.136-1.554-.396-.432-.26-.768-.648-1.008-1.164-.236-.516-.364-1.16-.384-1.932a12.331 12.331 0 01.156-2.262c.06-.364.132-.66.216-.888.104-.296.252-.572.444-.828.196-.26.422-.472.678-.636.248-.168.528-.298.84-.39.316-.096.644-.17.984-.222.344-.052.684-.098 1.02-.138.34-.04.654-.09.942-.15l.096.798c-.22.044-.48.084-.78.12-.3.036-.614.08-.942.132a7.54 7.54 0 00-.942.198 2.83 2.83 0 00-.768.33c-.324.196-.574.492-.75.888a4.23 4.23 0 00-.318 1.362c.248-.388.576-.68.984-.876a3.074 3.074 0 011.338-.294c.584 0 1.086.134 1.506.402.424.268.75.64.978 1.116.228.476.342 1.022.342 1.638 0 .644-.126 1.206-.378 1.686-.248.48-.602.852-1.062 1.116-.46.26-1.006.39-1.638.39zm.066-.846c.68 0 1.196-.212 1.548-.636.356-.424.534-.988.534-1.692 0-.72-.184-1.288-.552-1.704-.364-.416-.878-.624-1.542-.624s-1.174.208-1.53.624c-.356.416-.534.984-.534 1.704s.178 1.288.534 1.704c.356.416.87.624 1.542.624zm7.038.84c-.644 0-1.194-.146-1.65-.438a2.85 2.85 0 01-1.05-1.212c-.244-.516-.366-1.108-.366-1.776 0-.68.124-1.276.372-1.788s.6-.91 1.056-1.194c.46-.288 1.006-.432 1.638-.432.648 0 1.2.146 1.656.438.46.288.81.69 1.05 1.206.244.512.366 1.102.366 1.77 0 .68-.122 1.278-.366 1.794a2.804 2.804 0 01-1.056 1.2c-.46.288-1.01.432-1.65.432zm0-.846c.72 0 1.256-.238 1.608-.714.352-.48.528-1.102.528-1.866 0-.784-.178-1.408-.534-1.872-.352-.464-.886-.696-1.602-.696-.484 0-.884.11-1.2.33a1.957 1.957 0 00-.702.906c-.152.384-.228.828-.228 1.332 0 .78.18 1.406.54 1.878.36.468.89.702 1.59.702zm6.001.666v-5.664h-2.298v-.816h5.478v.816h-2.298V29h-.882zm4.318 0l.006-6.48h.888v3.12l2.892-3.12h1.176l-3.036 3.24 3.432 3.24h-1.284l-3.18-3.12V29h-.894zm7.813.18c-.488 0-.898-.088-1.23-.264a1.79 1.79 0 01-.738-.702 1.915 1.915 0 01-.246-.954c0-.352.07-.652.21-.9.144-.252.338-.458.582-.618.248-.16.534-.282.858-.366.328-.08.69-.15 1.086-.21.4-.064.79-.118 1.17-.162.384-.048.72-.094 1.008-.138l-.312.192c.012-.64-.112-1.114-.372-1.422-.26-.308-.712-.462-1.356-.462-.444 0-.82.1-1.128.3-.304.2-.518.516-.642.948l-.858-.252c.148-.58.446-1.03.894-1.35.448-.32 1.03-.48 1.746-.48.592 0 1.094.112 1.506.336.416.22.71.54.882.96.08.188.132.398.156.63.024.232.036.468.036.708V29h-.786v-1.626l.228.096c-.22.556-.562.98-1.026 1.272-.464.292-1.02.438-1.668.438zm.102-.762c.412 0 .772-.074 1.08-.222.308-.148.556-.35.744-.606.188-.26.31-.552.366-.876.048-.208.074-.436.078-.684.004-.252.006-.44.006-.564l.336.174c-.3.04-.626.08-.978.12-.348.04-.692.086-1.032.138-.336.052-.64.114-.912.186a2.473 2.473 0 00-.534.222 1.233 1.233 0 00-.426.372.998.998 0 00-.162.582c0 .188.046.37.138.546.096.176.248.322.456.438.212.116.492.174.84.174zm12.263-5.898V29h-.858v-5.046L239.391 29h-.744v-6.48h.858v5.004l3.558-5.004h.738zM169.834 45v-6.48h5.154V45h-.882v-5.634h-3.39V45h-.882zm9.748.18c-.596 0-1.1-.15-1.512-.45a2.822 2.822 0 01-.936-1.23 4.587 4.587 0 01-.318-1.746c0-.656.106-1.24.318-1.752.216-.516.532-.922.948-1.218.416-.296.928-.444 1.536-.444.592 0 1.1.15 1.524.45.424.3.748.708.972 1.224.228.516.342 1.096.342 1.74 0 .648-.114 1.23-.342 1.746a2.919 2.919 0 01-.984 1.23c-.428.3-.944.45-1.548.45zm-2.916 2.7v-9.36h.792v4.878h.096v4.482h-.888zm2.826-3.522c.452 0 .828-.114 1.128-.342.3-.228.524-.538.672-.93.152-.396.228-.84.228-1.332 0-.488-.074-.928-.222-1.32a2.023 2.023 0 00-.678-.93c-.3-.228-.682-.342-1.146-.342-.452 0-.828.11-1.128.33-.296.22-.518.526-.666.918-.148.388-.222.836-.222 1.344 0 .5.074.948.222 1.344.148.392.372.7.672.924.3.224.68.336 1.14.336zm6.988.822c-.644 0-1.194-.146-1.65-.438a2.85 2.85 0 01-1.05-1.212c-.244-.516-.366-1.108-.366-1.776 0-.68.124-1.276.372-1.788s.6-.91 1.056-1.194c.46-.288 1.006-.432 1.638-.432.648 0 1.2.146 1.656.438.46.288.81.69 1.05 1.206.244.512.366 1.102.366 1.77 0 .68-.122 1.278-.366 1.794a2.804 2.804 0 01-1.056 1.2c-.46.288-1.01.432-1.65.432zm0-.846c.72 0 1.256-.238 1.608-.714.352-.48.528-1.102.528-1.866 0-.784-.178-1.408-.534-1.872-.352-.464-.886-.696-1.602-.696-.484 0-.884.11-1.2.33a1.957 1.957 0 00-.702.906c-.152.384-.228.828-.228 1.332 0 .78.18 1.406.54 1.878.36.468.89.702 1.59.702zm3.915 2.106v-2.196c.368 0 .632-.118.792-.354.16-.24.29-.622.39-1.146.068-.34.124-.706.168-1.098.044-.392.082-.84.114-1.344a83.32 83.32 0 00.09-1.782h4.284v5.724h.624v2.196h-.852V45h-4.764v1.44h-.846zm1.494-2.196h3.468v-4.968h-2.592c-.012.304-.03.626-.054.966-.02.34-.046.68-.078 1.02-.028.34-.062.66-.102.96a7.48 7.48 0 01-.132.78c-.06.288-.126.534-.198.738a1.2 1.2 0 01-.312.504zm6.164.756v-6.48h2.67c.136 0 .3.008.492.024.196.016.378.046.546.09.364.096.656.292.876.588.224.296.336.652.336 1.068 0 .232-.036.44-.108.624-.068.18-.166.336-.294.468a1.202 1.202 0 01-.408.3c.128.024.266.08.414.168.232.136.408.32.528.552.12.228.18.506.18.834 0 .444-.106.806-.318 1.086-.212.28-.496.472-.852.576a2.59 2.59 0 01-.522.084 8.04 8.04 0 01-.522.018h-3.018zm.888-.75h2.088c.084 0 .19-.006.318-.018.128-.016.242-.036.342-.06.236-.06.408-.18.516-.36.112-.184.168-.384.168-.6 0-.284-.084-.516-.252-.696a1.053 1.053 0 00-.66-.336 1.667 1.667 0 00-.288-.036c-.1-.004-.19-.006-.27-.006h-1.962v2.112zm0-2.868h1.812c.104 0 .22-.006.348-.018a1.49 1.49 0 00.342-.078.79.79 0 00.456-.372c.1-.176.15-.368.15-.576 0-.228-.054-.428-.162-.6a.824.824 0 00-.474-.36 1.594 1.594 0 00-.468-.09 8.808 8.808 0 00-.312-.012h-1.692v2.106zm10.688-2.862V45h-.858v-5.046L205.219 45h-.744v-6.48h.858v5.004l3.558-5.004h.738zm.964 6.48l2.736-3.24-2.622-3.24h.996l2.556 3.198V38.52h.816v3.198l2.556-3.198h.99l-2.622 3.24 2.736 3.24h-1.026l-2.634-3.198V45h-.816v-3.198L211.619 45h-1.026zm11.606.18c-.632 0-1.18-.14-1.644-.42a2.85 2.85 0 01-1.074-1.182c-.256-.508-.384-1.104-.384-1.788 0-.708.126-1.32.378-1.836a2.81 2.81 0 011.062-1.194c.46-.28 1.002-.42 1.626-.42.64 0 1.186.148 1.638.444.452.292.794.712 1.026 1.26.232.548.338 1.202.318 1.962h-.9v-.312c-.016-.84-.198-1.474-.546-1.902-.344-.428-.848-.642-1.512-.642-.696 0-1.23.226-1.602.678-.368.452-.552 1.096-.552 1.932 0 .816.184 1.45.552 1.902.372.448.898.672 1.578.672.464 0 .868-.106 1.212-.318.348-.216.622-.526.822-.93l.822.318a2.94 2.94 0 01-1.134 1.314 3.13 3.13 0 01-1.686.462zm-2.478-3.174v-.738h4.95v.738h-4.95zm6.75 2.994v-6.48h.882v2.814h3.654V38.52h.882V45h-.882v-2.82h-3.654V45h-.882zm12.244-6.48V45h-.858v-5.046L234.305 45h-.744v-6.48h.858v5.004l3.558-5.004h.738zm4.426 6.66c-.632 0-1.18-.14-1.644-.42a2.85 2.85 0 01-1.074-1.182c-.256-.508-.384-1.104-.384-1.788 0-.708.126-1.32.378-1.836a2.81 2.81 0 011.062-1.194c.46-.28 1.002-.42 1.626-.42.64 0 1.186.148 1.638.444.452.292.794.712 1.026 1.26.232.548.338 1.202.318 1.962h-.9v-.312c-.016-.84-.198-1.474-.546-1.902-.344-.428-.848-.642-1.512-.642-.696 0-1.23.226-1.602.678-.368.452-.552 1.096-.552 1.932 0 .816.184 1.45.552 1.902.372.448.898.672 1.578.672.464 0 .868-.106 1.212-.318.348-.216.622-.526.822-.93l.822.318a2.94 2.94 0 01-1.134 1.314 3.13 3.13 0 01-1.686.462zm-2.478-3.174v-.738h4.95v.738h-4.95zm6.401 4.248l.054-.438c.16.012.276-.02.348-.096a.526.526 0 00.132-.306 2.33 2.33 0 00.012-.414h-.546v-1.266h1.026v1.506c0 .368-.094.644-.282.828-.184.184-.432.246-.744.186zm8.398-1.074c-.652 0-1.204-.146-1.656-.438a2.791 2.791 0 01-1.032-1.206c-.232-.516-.352-1.108-.36-1.776.008-.68.132-1.276.372-1.788.24-.516.586-.916 1.038-1.2.452-.288 1-.432 1.644-.432.656 0 1.226.16 1.71.48.488.32.822.758 1.002 1.314l-.864.276a1.825 1.825 0 00-.726-.9 2.004 2.004 0 00-1.128-.324c-.476 0-.87.11-1.182.33a1.92 1.92 0 00-.696.906c-.152.388-.23.834-.234 1.338.008.776.188 1.4.54 1.872.352.468.876.702 1.572.702.44 0 .814-.1 1.122-.3.312-.204.548-.5.708-.888l.888.264c-.24.576-.592 1.016-1.056 1.32-.464.3-1.018.45-1.662.45zm5.758-.18v-.774c.24.044.422.034.546-.03a.61.61 0 00.282-.336c.06-.16.11-.358.15-.594.064-.392.122-.824.174-1.296.052-.472.098-.992.138-1.56.044-.572.088-1.202.132-1.89h4.404V45h-.876v-5.634h-2.712a64.899 64.899 0 01-.21 2.478c-.036.384-.076.738-.12 1.062-.044.324-.09.604-.138.84-.072.356-.168.64-.288.852a.844.844 0 01-.522.42c-.232.068-.552.062-.96-.018zm12.603.18c-.572 0-1.07-.122-1.494-.366a2.748 2.748 0 01-1.014-1.038c-.248-.448-.398-.974-.45-1.578h-1.266V45h-.882v-6.48h.882v2.802h1.26c.052-.612.204-1.14.456-1.584a2.69 2.69 0 011.02-1.032c.428-.244.926-.366 1.494-.366.644 0 1.194.146 1.65.438.46.292.81.694 1.05 1.206.244.512.366 1.1.366 1.764 0 .68-.124 1.278-.372 1.794a2.797 2.797 0 01-1.056 1.206c-.456.288-1.004.432-1.644.432zm-.018-.846c.728 0 1.268-.236 1.62-.708.356-.476.534-1.1.534-1.872 0-.788-.18-1.412-.54-1.872-.356-.464-.892-.696-1.608-.696-.684 0-1.208.228-1.572.684-.364.452-.546 1.078-.546 1.878 0 .784.178 1.412.534 1.884.36.468.886.702 1.578.702zm7.008.852c-.604-.004-1.122-.136-1.554-.396-.432-.26-.768-.648-1.008-1.164-.236-.516-.364-1.16-.384-1.932a12.331 12.331 0 01.156-2.262c.06-.364.132-.66.216-.888.104-.296.252-.572.444-.828.196-.26.422-.472.678-.636.248-.168.528-.298.84-.39.316-.096.644-.17.984-.222.344-.052.684-.098 1.02-.138.34-.04.654-.09.942-.15l.096.798c-.22.044-.48.084-.78.12-.3.036-.614.08-.942.132a7.54 7.54 0 00-.942.198 2.83 2.83 0 00-.768.33c-.324.196-.574.492-.75.888a4.23 4.23 0 00-.318 1.362c.248-.388.576-.68.984-.876a3.074 3.074 0 011.338-.294c.584 0 1.086.134 1.506.402.424.268.75.64.978 1.116.228.476.342 1.022.342 1.638 0 .644-.126 1.206-.378 1.686-.248.48-.602.852-1.062 1.116-.46.26-1.006.39-1.638.39zm.066-.846c.68 0 1.196-.212 1.548-.636.356-.424.534-.988.534-1.692 0-.72-.184-1.288-.552-1.704-.364-.416-.878-.624-1.542-.624s-1.174.208-1.53.624c-.356.416-.534.984-.534 1.704s.178 1.288.534 1.704c.356.416.87.624 1.542.624zm7.038.84c-.644 0-1.194-.146-1.65-.438a2.85 2.85 0 01-1.05-1.212c-.244-.516-.366-1.108-.366-1.776 0-.68.124-1.276.372-1.788s.6-.91 1.056-1.194c.46-.288 1.006-.432 1.638-.432.648 0 1.2.146 1.656.438.46.288.81.69 1.05 1.206.244.512.366 1.102.366 1.77 0 .68-.122 1.278-.366 1.794a2.804 2.804 0 01-1.056 1.2c-.46.288-1.01.432-1.65.432zm0-.846c.72 0 1.256-.238 1.608-.714.352-.48.528-1.102.528-1.866 0-.784-.178-1.408-.534-1.872-.352-.464-.886-.696-1.602-.696-.484 0-.884.11-1.2.33a1.957 1.957 0 00-.702.906c-.152.384-.228.828-.228 1.332 0 .78.18 1.406.54 1.878.36.468.89.702 1.59.702zm4.39.666v-6.48h2.67c.136 0 .3.008.492.024.196.016.378.046.546.09.364.096.656.292.876.588.224.296.336.652.336 1.068 0 .232-.036.44-.108.624-.068.18-.166.336-.294.468a1.202 1.202 0 01-.408.3c.128.024.266.08.414.168.232.136.408.32.528.552.12.228.18.506.18.834 0 .444-.106.806-.318 1.086-.212.28-.496.472-.852.576a2.59 2.59 0 01-.522.084 8.04 8.04 0 01-.522.018h-3.018zm.888-.75h2.088c.084 0 .19-.006.318-.018.128-.016.242-.036.342-.06.236-.06.408-.18.516-.36.112-.184.168-.384.168-.6 0-.284-.084-.516-.252-.696a1.053 1.053 0 00-.66-.336 1.667 1.667 0 00-.288-.036c-.1-.004-.19-.006-.27-.006h-1.962v2.112zm0-2.868h1.812c.104 0 .22-.006.348-.018a1.49 1.49 0 00.342-.078.79.79 0 00.456-.372c.1-.176.15-.368.15-.576 0-.228-.054-.428-.162-.6a.824.824 0 00-.474-.36 1.594 1.594 0 00-.468-.09 8.808 8.808 0 00-.312-.012h-1.692v2.106zM298.741 45l-.012-6.48h.888v2.442h1.518c.188 0 .372.004.552.012.184.008.346.024.486.048.32.06.604.166.852.318.252.152.448.362.588.63.144.268.216.604.216 1.008 0 .556-.144.994-.432 1.314-.284.32-.644.528-1.08.624-.164.036-.342.06-.534.072-.192.008-.382.012-.57.012h-2.472zm.876-.756h1.56c.136 0 .288-.004.456-.012a2 2 0 00.444-.066c.212-.06.404-.18.576-.36.176-.184.264-.46.264-.828 0-.364-.084-.638-.252-.822a1.213 1.213 0 00-.672-.372 2.44 2.44 0 00-.402-.054 7.473 7.473 0 00-.414-.012h-1.56v2.526zm10.452.936c-.572 0-1.07-.122-1.494-.366a2.748 2.748 0 01-1.014-1.038c-.248-.448-.398-.974-.45-1.578h-1.266V45h-.882v-6.48h.882v2.802h1.26c.052-.612.204-1.14.456-1.584a2.69 2.69 0 011.02-1.032c.428-.244.926-.366 1.494-.366.644 0 1.194.146 1.65.438.46.292.81.694 1.05 1.206.244.512.366 1.1.366 1.764 0 .68-.124 1.278-.372 1.794a2.797 2.797 0 01-1.056 1.206c-.456.288-1.004.432-1.644.432zm-.018-.846c.728 0 1.268-.236 1.62-.708.356-.476.534-1.1.534-1.872 0-.788-.18-1.412-.54-1.872-.356-.464-.892-.696-1.608-.696-.684 0-1.208.228-1.572.684-.364.452-.546 1.078-.546 1.878 0 .784.178 1.412.534 1.884.36.468.886.702 1.578.702z" fill="#F5F5F5"/><rect x=".5" y=".5" width="332" height="63" rx="9.5" stroke="#fff" stroke-opacity=".2"/><defs><linearGradient id="paint0_linear_601_14081" x1="15.518" y1="29.837" x2="28.825" y2="16.284" gradientUnits="userSpaceOnUse"><stop stop-color="#CE2000"/><stop offset=".613" stop-color="#A61A00"/><stop offset="1" stop-color="#DD1500"/></linearGradient><linearGradient id="paint1_linear_601_14081" x1="15.503" y1="37.755" x2="34.944" y2="17.954" gradientUnits="userSpaceOnUse"><stop stop-color="#CE2000"/><stop offset=".613" stop-color="#A61A00"/><stop offset="1" stop-color="#DD1500"/></linearGradient><linearGradient id="paint2_linear_601_14081" x1="20.381" y1="42.035" x2="40.401" y2="21.644" gradientUnits="userSpaceOnUse"><stop stop-color="#CE2000"/><stop offset=".613" stop-color="#A61A00"/><stop offset="1" stop-color="#DD1500"/></linearGradient><linearGradient id="paint3_linear_601_14081" x1="25.632" y1="45.055" x2="44.838" y2="25.494" gradientUnits="userSpaceOnUse"><stop stop-color="#CE2000"/><stop offset=".613" stop-color="#A61A00"/><stop offset="1" stop-color="#DD1500"/></linearGradient><linearGradient id="paint4_linear_601_14081" x1="32.644" y1="47.36" x2="45.951" y2="33.806" gradientUnits="userSpaceOnUse"><stop stop-color="#CE2000"/><stop offset=".613" stop-color="#A61A00"/><stop offset="1" stop-color="#DD1500"/></linearGradient></defs></svg>