<svg width="333" height="64" viewBox="0 0 333 64" fill="none" xmlns="http://www.w3.org/2000/svg">
<path d="M28.4508 19.8629C22.2857 21.9332 18.4701 25.6597 16 30.313C17.2049 23.6289 21.2213 19.5868 27.6476 17.7926C27.8082 17.7531 27.9488 17.7137 28.1094 17.694C30.4791 17.2799 31.2021 17.97 29.8967 19.0742C29.475 19.4291 28.973 19.6854 28.4508 19.8629Z" fill="url(#paint0_linear_601_14081)"/>
<path d="M18.3301 40.5475C16.3018 37.6687 15.86 34.5534 17.6875 31.0832C18.8924 28.9537 20.3986 27.1594 22.2461 25.7398C23.5916 24.6948 25.1178 23.9258 26.7445 23.354C32.1064 21.4612 34.3355 19.5091 32.5883 17.4783C34.6166 17.6163 36.183 18.2078 36.0224 20.357C35.1388 23.8864 32.026 26.1144 27.6883 27.6721C26.4432 28.1256 25.2383 28.6777 24.1137 29.4072C19.8162 32.1479 17.7678 35.8153 18.3301 40.5475Z" fill="url(#paint1_linear_601_14081)"/>
<path d="M32.5468 34.0997C26.3816 36.8207 22.4656 38.8713 23.4496 44.9442C18.7103 41.4148 20.3369 34.2969 26.1808 31.2604C36.0209 26.7846 39.9169 22.5454 37.6878 19.0554C42.1861 22.8017 42.2062 26.686 37.748 30.728C36.2218 32.1477 34.4546 33.2716 32.5468 34.0997Z" fill="url(#paint2_linear_601_14081)"/>
<path d="M38.2705 38.8714C31.2618 44.1161 27.5668 43.1697 28.7717 46.5217C21.5622 44.9443 26.2213 40.0938 33.1696 36.5644C35.0172 35.618 36.8045 34.6716 38.4512 33.4294C43.4918 29.6634 43.1905 24.8524 41.9053 22.644C46.966 27.5931 44.3955 34.0801 38.2705 38.8714Z" fill="url(#paint3_linear_601_14081)"/>
<path d="M33.2706 44.0175C39.4357 41.9472 43.2513 38.2207 45.7214 33.5674C44.5165 40.2318 40.5001 44.2936 34.0738 46.0878C33.9132 46.1273 33.7726 46.1667 33.6119 46.1864C31.2423 46.6005 30.5193 45.9104 31.8247 44.8062C32.2464 44.471 32.7484 44.195 33.2706 44.0175Z" fill="url(#paint4_linear_601_14081)"/>
<path d="M60.8591 24.9109C62.3497 25.6452 62.5463 27.0179 62.3988 27.8319C62.1204 29.5398 60.941 30.5773 58.5168 30.5773H54.0614V19.9309H58.4513C60.5315 19.9309 62.0549 21.144 62.0057 23.1711C61.973 23.6659 61.6617 24.5119 60.8591 24.9109ZM58.4513 24.0969C59.7944 24.0969 59.8436 22.1975 58.4513 22.1975H56.846V24.0969H58.4513ZM58.4513 28.215C60.122 28.215 60.0893 26.0282 58.4513 26.0282H56.846V28.215H58.4513Z" fill="white"/>
<path d="M66.4278 27.0179C66.4278 28.7258 69.54 28.7258 69.5564 27.0179V19.9309H72.3574V27.0179C72.341 32.0139 63.6268 32.0139 63.6432 27.0179V19.9309H66.4278V27.0179Z" fill="white"/>
<path d="M75.2096 27.2096C76.3071 28.5025 78.7149 28.5663 78.7968 27.4171C78.8296 26.8106 77.8304 26.4754 76.9295 26.3477C75.1768 26.0763 73.5716 24.9909 73.5716 22.9638C73.5716 20.8728 75.5208 19.7715 77.5192 19.7715C78.846 19.7715 80.1236 20.1386 81.2538 21.4634L79.452 22.8202C78.3054 21.639 76.3562 21.6709 76.3071 22.9159C76.3398 23.4267 76.9131 23.73 77.7649 23.9055C79.7141 24.2567 81.647 24.9111 81.5323 27.5288C81.434 29.5879 79.2227 30.7211 77.208 30.7211C75.8975 30.7211 74.5052 30.0667 73.4897 28.7898L75.2096 27.2096Z" fill="white"/>
<path d="M85.4466 30.5773H82.6784V19.9309H85.4466V30.5773Z" fill="white"/>
<path d="M87.1823 19.9309H89.8031L92.4402 24.464L93.3739 26.6029L93.4558 26.5869C93.4394 26.5869 93.161 24.7513 93.1446 24.7513V19.9309H95.8964V30.5773H93.0954L90.6221 26.3794L89.672 24.2405L89.5901 24.2565L89.9505 26.3156V30.5773H87.1823V19.9309Z" fill="white"/>
<path d="M100.401 24.1128H104.824V26.4432H100.401V28.0394H105.217V30.5773H97.6165V19.9309H105.217V22.4528H100.401V24.1128Z" fill="white"/>
<path d="M107.902 27.2096C109 28.5025 111.408 28.5663 111.49 27.4171C111.522 26.8106 110.523 26.4754 109.622 26.3477C107.87 26.0763 106.264 24.9909 106.264 22.9638C106.264 20.8728 108.214 19.7715 110.212 19.7715C111.539 19.7715 112.816 20.1386 113.947 21.4634L112.145 22.8202C110.998 21.639 109.049 21.6709 109 22.9159C109.033 23.4267 109.606 23.73 110.458 23.9055C112.407 24.2567 114.34 24.9111 114.225 27.5288C114.127 29.5879 111.915 30.7211 109.901 30.7211C108.59 30.7211 107.198 30.0667 106.182 28.7898L107.902 27.2096Z" fill="white"/>
<path d="M116.617 27.2096C117.714 28.5025 120.122 28.5663 120.204 27.4171C120.237 26.8106 119.237 26.4754 118.337 26.3477C116.584 26.0763 114.979 24.9909 114.979 22.9638C114.979 20.8728 116.928 19.7715 118.926 19.7715C120.253 19.7715 121.531 20.1386 122.661 21.4634L120.859 22.8202C119.712 21.639 117.763 21.6709 117.714 22.9159C117.747 23.4267 118.32 23.73 119.172 23.9055C121.121 24.2567 123.054 24.9111 122.939 27.5288C122.841 29.5879 120.63 30.7211 118.615 30.7211C117.305 30.7211 115.912 30.0667 114.897 28.7898L116.617 27.2096Z" fill="white"/>
<path d="M128.755 27.4967H123.939V24.9429H128.755V27.4967Z" fill="white"/>
<path d="M133.063 27.0179C133.063 28.7258 136.175 28.7258 136.191 27.0179V19.9309H138.992V27.0179C138.976 32.0139 130.262 32.0139 130.278 27.0179V19.9309H133.079V27.0179H133.063Z" fill="white"/>
<path d="M140.63 19.9309H145.003C147.673 19.9309 149 21.8144 149 23.6978C149 25.5973 147.657 27.4648 145.02 27.4648H143.398V30.5773H140.63V19.9309ZM144.987 25.0705C146.658 25.0865 146.658 22.4209 144.987 22.4369H143.382V25.0705H144.987Z" fill="white"/>
<path d="M54.0614 41.7234V35.0383H56.4415C57.5149 35.0383 58.4016 35.3567 59.0783 35.9933C59.755 36.63 60.105 37.4259 60.105 38.3809C60.105 39.3359 59.755 40.1317 59.0783 40.7684C58.4016 41.4051 57.5149 41.7234 56.4648 41.7234H54.0614ZM54.8314 41.0412H56.4415C57.3049 41.0412 57.9816 40.7911 58.5183 40.2909C59.0316 39.7906 59.2883 39.154 59.2883 38.4036C59.2883 37.6532 59.0316 37.0166 58.4949 36.5163C57.9816 36.0161 57.2816 35.766 56.4415 35.766H54.8314V41.0412Z" fill="white"/>
<path d="M61.6208 35.6975V34.9016H62.4842V35.7202H61.6208V35.6975ZM61.6675 41.7231V36.7889H62.4142V41.7231H61.6675Z" fill="white"/>
<path d="M66.4287 43.2701C65.5653 43.2701 64.7953 43.0427 64.1186 42.5879L64.4686 42.0195C65.0753 42.4515 65.7053 42.6561 66.4287 42.6561C66.9887 42.6561 67.4554 42.497 67.7821 42.2014C68.1088 41.9058 68.2721 41.4737 68.2721 40.9053V40.3141C67.7354 41.019 67.0821 41.3601 66.2887 41.3601C65.6587 41.3601 65.0986 41.1554 64.6086 40.7234C64.1419 40.2913 63.9086 39.7229 63.9086 39.0407C63.9086 38.3359 64.1419 37.7901 64.6319 37.3581C65.0986 36.9261 65.6587 36.7214 66.2887 36.7214C67.1054 36.7214 67.7587 37.0625 68.2721 37.7219V36.8351H69.0188V40.928C69.0188 41.6784 68.8088 42.2468 68.3654 42.6789C67.9221 43.0654 67.2687 43.2701 66.4287 43.2701ZM66.4287 40.7006C66.9187 40.7006 67.3621 40.5415 67.7354 40.2231C68.1088 39.9048 68.2954 39.4955 68.2954 39.018C68.2954 38.5405 68.1088 38.1312 67.7354 37.8129C67.3621 37.4945 66.9187 37.3354 66.4287 37.3354C65.9387 37.3354 65.5186 37.4945 65.1686 37.7901C64.8419 38.1085 64.6553 38.495 64.6553 39.018C64.6553 39.4955 64.8186 39.9048 65.1686 40.2231C65.5186 40.5415 65.9387 40.7006 66.4287 40.7006Z" fill="white"/>
<path d="M70.7205 35.6975V34.9016H71.5838V35.7202H70.7205V35.6975ZM70.7671 41.7231V36.7889H71.5138V41.7231H70.7671Z" fill="white"/>
<path d="M74.9702 41.8142C74.5268 41.8142 74.1768 41.7005 73.9201 41.4732C73.6635 41.2458 73.5235 40.9047 73.5235 40.4272V37.4485H72.8234V36.7891H73.5235V35.2883H74.2702V36.7891H75.8802V37.4485H74.2702V40.3362C74.2702 40.882 74.5502 41.1548 75.1335 41.1548C75.3902 41.1548 75.6236 41.0866 75.8802 40.9729V41.6096C75.6236 41.746 75.2969 41.8142 74.9702 41.8142Z" fill="white"/>
<path d="M78.7498 41.8371C78.2364 41.8371 77.7931 41.7007 77.4197 41.4278C77.0464 41.155 76.8597 40.7684 76.8597 40.2909C76.8597 39.7679 77.0464 39.3814 77.443 39.0858C77.8397 38.8129 78.3531 38.6537 79.0298 38.6537C79.5431 38.6537 80.0798 38.722 80.5698 38.8584V38.6992C80.5698 38.2672 80.4298 37.9261 80.1732 37.6987C79.9165 37.4713 79.5431 37.3577 79.0531 37.3577C78.5631 37.3577 78.0497 37.4713 77.513 37.7215L77.2797 37.1303C77.9097 36.8574 78.5164 36.6982 79.1231 36.6982C79.8465 36.6982 80.3832 36.8801 80.7565 37.244C81.1065 37.585 81.2932 38.0625 81.2932 38.6992V41.7234H80.5698V40.9958C80.1265 41.5643 79.5198 41.8371 78.7498 41.8371ZM78.8898 41.2459C79.3565 41.2459 79.7531 41.1322 80.0798 40.8821C80.4065 40.632 80.5698 40.3136 80.5698 39.9271V39.4723C80.0798 39.3359 79.5898 39.2677 79.0998 39.2677C78.6331 39.2677 78.2831 39.3586 78.0031 39.5405C77.7464 39.7224 77.6064 39.9726 77.6064 40.2909C77.6064 40.5865 77.7231 40.8366 77.9797 41.0185C78.2364 41.155 78.5398 41.2459 78.8898 41.2459Z" fill="white"/>
<path d="M82.9964 41.7236V34.7429H83.7431V41.7236H82.9964Z" fill="white"/>
<path d="M89.9508 41.8371C89.4375 41.8371 88.9941 41.7007 88.6208 41.4278C88.2474 41.155 88.0607 40.7684 88.0607 40.2909C88.0607 39.7679 88.2474 39.3814 88.6441 39.0858C89.0408 38.8129 89.5541 38.6537 90.2308 38.6537C90.7442 38.6537 91.2809 38.722 91.7709 38.8584V38.6992C91.7709 38.2672 91.6309 37.9261 91.3742 37.6987C91.1175 37.4713 90.7442 37.3577 90.2542 37.3577C89.7641 37.3577 89.2508 37.4713 88.7141 37.7215L88.4807 37.1303C89.1108 36.8574 89.7175 36.6982 90.3242 36.6982C91.0475 36.6982 91.5842 36.8801 91.9576 37.244C92.3076 37.585 92.4943 38.0625 92.4943 38.6992V41.7234H91.7709V40.9958C91.3276 41.5643 90.7209 41.8371 89.9508 41.8371ZM90.0908 41.2459C90.5575 41.2459 90.9542 41.1322 91.2809 40.8821C91.6076 40.632 91.7709 40.3136 91.7709 39.9271V39.4723C91.2809 39.3359 90.7909 39.2677 90.3008 39.2677C89.8342 39.2677 89.4841 39.3586 89.2041 39.5405C88.9474 39.7224 88.8074 39.9726 88.8074 40.2909C88.8074 40.5865 88.9241 40.8366 89.1808 41.0185C89.4375 41.155 89.7408 41.2459 90.0908 41.2459Z" fill="white"/>
<path d="M96.3676 43.2701C95.5042 43.2701 94.7342 43.0427 94.0575 42.5879L94.4075 42.0195C95.0142 42.4515 95.6442 42.6561 96.3676 42.6561C96.9276 42.6561 97.3943 42.497 97.721 42.2014C98.0477 41.9058 98.211 41.4737 98.211 40.9053V40.3141C97.6743 41.019 97.021 41.3601 96.2276 41.3601C95.5976 41.3601 95.0375 41.1554 94.5475 40.7234C94.0808 40.2913 93.8475 39.7229 93.8475 39.0407C93.8475 38.3359 94.0808 37.7901 94.5708 37.3581C95.0375 36.9261 95.5976 36.7214 96.2276 36.7214C97.0443 36.7214 97.6977 37.0625 98.211 37.7219V36.8351H98.9577V40.928C98.9577 41.6784 98.7477 42.2468 98.3044 42.6789C97.861 43.0654 97.2076 43.2701 96.3676 43.2701ZM96.3676 40.7006C96.8576 40.7006 97.301 40.5415 97.6743 40.2231C98.0477 39.9048 98.2344 39.4955 98.2344 39.018C98.2344 38.5405 98.0477 38.1312 97.6743 37.8129C97.301 37.4945 96.8576 37.3354 96.3676 37.3354C95.8776 37.3354 95.4576 37.4945 95.1075 37.7901C94.7809 38.1085 94.5942 38.495 94.5942 39.018C94.5942 39.4955 94.7575 39.9048 95.1075 40.2231C95.4576 40.5415 95.8776 40.7006 96.3676 40.7006Z" fill="white"/>
<path d="M101.08 39.5633C101.127 40.0635 101.337 40.4728 101.663 40.7684C101.99 41.064 102.41 41.2232 102.853 41.2232C103.46 41.2232 103.997 40.9958 104.463 40.5183L104.93 40.9276C104.37 41.5415 103.67 41.8599 102.83 41.8599C102.107 41.8599 101.523 41.6097 101.033 41.1322C100.543 40.6547 100.31 40.0408 100.31 39.2677C100.31 38.5401 100.543 37.9261 101.01 37.4259C101.477 36.9257 102.06 36.6755 102.737 36.6755C103.46 36.6755 104.043 36.9257 104.463 37.4259C104.883 37.9261 105.093 38.5401 105.093 39.2904C105.093 39.3814 105.093 39.4723 105.093 39.5406H101.08V39.5633ZM101.08 38.9721H104.347C104.3 38.4946 104.137 38.108 103.857 37.7897C103.577 37.4714 103.203 37.3122 102.713 37.3122C102.293 37.3122 101.92 37.4714 101.593 37.7897C101.313 38.0853 101.15 38.4719 101.08 38.9721Z" fill="white"/>
<path d="M106.447 41.7234V36.7892H107.193V37.6533C107.59 37.0166 108.173 36.6982 108.92 36.6982C109.527 36.6982 109.993 36.8801 110.343 37.244C110.693 37.6078 110.857 38.0853 110.857 38.6765V41.7234H110.11V38.8356C110.11 38.3809 109.993 38.0171 109.737 37.7442C109.48 37.4713 109.153 37.3577 108.71 37.3577C108.267 37.3577 107.917 37.4941 107.613 37.7897C107.333 38.0853 107.17 38.4491 107.17 38.9039V41.7234H106.447Z" fill="white"/>
<path d="M114.78 41.8371C114.056 41.8371 113.426 41.587 112.936 41.0867C112.446 40.5865 112.189 39.9726 112.189 39.2677C112.189 38.5628 112.446 37.9489 112.936 37.4486C113.426 36.9484 114.056 36.6982 114.78 36.6982C115.573 36.6982 116.25 36.9938 116.81 37.585L116.32 38.0853C115.853 37.6078 115.34 37.3577 114.756 37.3577C114.243 37.3577 113.823 37.5396 113.473 37.9261C113.123 38.2899 112.959 38.7674 112.959 39.2904C112.959 39.8361 113.146 40.2909 113.496 40.6547C113.846 41.0185 114.289 41.2232 114.826 41.2232C115.363 41.2232 115.876 40.9731 116.366 40.4728L116.856 40.9276C116.25 41.5188 115.573 41.8371 114.78 41.8371Z" fill="white"/>
<path d="M118.883 43.2925C118.51 43.2925 118.16 43.2016 117.81 43.0424L118.067 42.4512C118.3 42.5649 118.58 42.6331 118.86 42.6331C119.093 42.6331 119.28 42.5649 119.443 42.4285C119.607 42.292 119.747 42.0419 119.91 41.7008L117.6 36.7666H118.44L120.283 40.8822L121.917 36.7666H122.71L120.587 41.8827C120.377 42.383 120.143 42.7468 119.863 42.9514C119.583 43.1788 119.257 43.2925 118.883 43.2925Z" fill="white"/>
<path d="M159 8L159 56" stroke="white" stroke-opacity="0.5" stroke-linecap="round"/>
<path d="M169.84 29V20.36H173.176C173.26 20.36 173.354 20.364 173.458 20.372C173.566 20.376 173.674 20.388 173.782 20.408C174.234 20.476 174.616 20.634 174.928 20.882C175.244 21.126 175.482 21.434 175.642 21.806C175.806 22.178 175.888 22.59 175.888 23.042C175.888 23.49 175.806 23.9 175.642 24.272C175.478 24.644 175.238 24.954 174.922 25.202C174.61 25.446 174.23 25.602 173.782 25.67C173.674 25.686 173.566 25.698 173.458 25.706C173.354 25.714 173.26 25.718 173.176 25.718H170.722V29H169.84ZM170.722 24.878H173.152C173.224 24.878 173.308 24.874 173.404 24.866C173.5 24.858 173.594 24.844 173.686 24.824C173.982 24.76 174.224 24.638 174.412 24.458C174.604 24.278 174.746 24.064 174.838 23.816C174.934 23.568 174.982 23.31 174.982 23.042C174.982 22.774 174.934 22.516 174.838 22.268C174.746 22.016 174.604 21.8 174.412 21.62C174.224 21.44 173.982 21.318 173.686 21.254C173.594 21.234 173.5 21.222 173.404 21.218C173.308 21.21 173.224 21.206 173.152 21.206H170.722V24.878ZM178.936 29.18C178.448 29.18 178.038 29.092 177.706 28.916C177.378 28.74 177.132 28.506 176.968 28.214C176.804 27.922 176.722 27.604 176.722 27.26C176.722 26.908 176.792 26.608 176.932 26.36C177.076 26.108 177.27 25.902 177.514 25.742C177.762 25.582 178.048 25.46 178.372 25.376C178.7 25.296 179.062 25.226 179.458 25.166C179.858 25.102 180.248 25.048 180.628 25.004C181.012 24.956 181.348 24.91 181.636 24.866L181.324 25.058C181.336 24.418 181.212 23.944 180.952 23.636C180.692 23.328 180.24 23.174 179.596 23.174C179.152 23.174 178.776 23.274 178.468 23.474C178.164 23.674 177.95 23.99 177.826 24.422L176.968 24.17C177.116 23.59 177.414 23.14 177.862 22.82C178.31 22.5 178.892 22.34 179.608 22.34C180.2 22.34 180.702 22.452 181.114 22.676C181.53 22.896 181.824 23.216 181.996 23.636C182.076 23.824 182.128 24.034 182.152 24.266C182.176 24.498 182.188 24.734 182.188 24.974V29H181.402V27.374L181.63 27.47C181.41 28.026 181.068 28.45 180.604 28.742C180.14 29.034 179.584 29.18 178.936 29.18ZM179.038 28.418C179.45 28.418 179.81 28.344 180.118 28.196C180.426 28.048 180.674 27.846 180.862 27.59C181.05 27.33 181.172 27.038 181.228 26.714C181.276 26.506 181.302 26.278 181.306 26.03C181.31 25.778 181.312 25.59 181.312 25.466L181.648 25.64C181.348 25.68 181.022 25.72 180.67 25.76C180.322 25.8 179.978 25.846 179.638 25.898C179.302 25.95 178.998 26.012 178.726 26.084C178.542 26.136 178.364 26.21 178.192 26.306C178.02 26.398 177.878 26.522 177.766 26.678C177.658 26.834 177.604 27.028 177.604 27.26C177.604 27.448 177.65 27.63 177.742 27.806C177.838 27.982 177.99 28.128 178.198 28.244C178.41 28.36 178.69 28.418 179.038 28.418ZM186.084 29.18C185.432 29.18 184.862 29.038 184.374 28.754C183.89 28.466 183.508 28.068 183.228 27.56L183.936 27.11C184.172 27.51 184.466 27.814 184.818 28.022C185.17 28.23 185.574 28.334 186.03 28.334C186.506 28.334 186.888 28.224 187.176 28.004C187.464 27.784 187.608 27.482 187.608 27.098C187.608 26.834 187.546 26.624 187.422 26.468C187.302 26.312 187.118 26.2 186.87 26.132C186.626 26.064 186.32 26.03 185.952 26.03H185.184V25.274H185.94C186.388 25.274 186.748 25.194 187.02 25.034C187.296 24.87 187.434 24.614 187.434 24.266C187.434 23.898 187.296 23.626 187.02 23.45C186.748 23.27 186.422 23.18 186.042 23.18C185.658 23.18 185.294 23.26 184.95 23.42C184.61 23.576 184.324 23.778 184.092 24.026L183.528 23.432C183.852 23.076 184.23 22.806 184.662 22.622C185.098 22.434 185.58 22.34 186.108 22.34C186.524 22.34 186.9 22.414 187.236 22.562C187.576 22.706 187.844 22.918 188.04 23.198C188.24 23.478 188.34 23.814 188.34 24.206C188.34 24.574 188.25 24.892 188.07 25.16C187.894 25.428 187.644 25.65 187.32 25.826L187.272 25.496C187.552 25.548 187.784 25.66 187.968 25.832C188.152 26.004 188.288 26.21 188.376 26.45C188.464 26.69 188.508 26.934 188.508 27.182C188.508 27.594 188.4 27.95 188.184 28.25C187.972 28.546 187.682 28.776 187.314 28.94C186.95 29.1 186.54 29.18 186.084 29.18ZM192.742 29.18C192.146 29.18 191.642 29.03 191.23 28.73C190.818 28.426 190.506 28.016 190.294 27.5C190.082 26.98 189.976 26.398 189.976 25.754C189.976 25.098 190.082 24.514 190.294 24.002C190.51 23.486 190.826 23.08 191.242 22.784C191.658 22.488 192.17 22.34 192.778 22.34C193.37 22.34 193.878 22.49 194.302 22.79C194.726 23.09 195.05 23.498 195.274 24.014C195.502 24.53 195.616 25.11 195.616 25.754C195.616 26.402 195.502 26.984 195.274 27.5C195.046 28.016 194.718 28.426 194.29 28.73C193.862 29.03 193.346 29.18 192.742 29.18ZM189.826 31.88V22.52H190.618V27.398H190.714V31.88H189.826ZM192.652 28.358C193.104 28.358 193.48 28.244 193.78 28.016C194.08 27.788 194.304 27.478 194.452 27.086C194.604 26.69 194.68 26.246 194.68 25.754C194.68 25.266 194.606 24.826 194.458 24.434C194.31 24.042 194.084 23.732 193.78 23.504C193.48 23.276 193.098 23.162 192.634 23.162C192.182 23.162 191.806 23.272 191.506 23.492C191.21 23.712 190.988 24.018 190.84 24.41C190.692 24.798 190.618 25.246 190.618 25.754C190.618 26.254 190.692 26.702 190.84 27.098C190.988 27.49 191.212 27.798 191.512 28.022C191.812 28.246 192.192 28.358 192.652 28.358ZM198.788 29.18C198.3 29.18 197.89 29.092 197.558 28.916C197.23 28.74 196.984 28.506 196.82 28.214C196.656 27.922 196.574 27.604 196.574 27.26C196.574 26.908 196.644 26.608 196.784 26.36C196.928 26.108 197.122 25.902 197.366 25.742C197.614 25.582 197.9 25.46 198.224 25.376C198.552 25.296 198.914 25.226 199.31 25.166C199.71 25.102 200.1 25.048 200.48 25.004C200.864 24.956 201.2 24.91 201.488 24.866L201.176 25.058C201.188 24.418 201.064 23.944 200.804 23.636C200.544 23.328 200.092 23.174 199.448 23.174C199.004 23.174 198.628 23.274 198.32 23.474C198.016 23.674 197.802 23.99 197.678 24.422L196.82 24.17C196.968 23.59 197.266 23.14 197.714 22.82C198.162 22.5 198.744 22.34 199.46 22.34C200.052 22.34 200.554 22.452 200.966 22.676C201.382 22.896 201.676 23.216 201.848 23.636C201.928 23.824 201.98 24.034 202.004 24.266C202.028 24.498 202.04 24.734 202.04 24.974V29H201.254V27.374L201.482 27.47C201.262 28.026 200.92 28.45 200.456 28.742C199.992 29.034 199.436 29.18 198.788 29.18ZM198.89 28.418C199.302 28.418 199.662 28.344 199.97 28.196C200.278 28.048 200.526 27.846 200.714 27.59C200.902 27.33 201.024 27.038 201.08 26.714C201.128 26.506 201.154 26.278 201.158 26.03C201.162 25.778 201.164 25.59 201.164 25.466L201.5 25.64C201.2 25.68 200.874 25.72 200.522 25.76C200.174 25.8 199.83 25.846 199.49 25.898C199.154 25.95 198.85 26.012 198.578 26.084C198.394 26.136 198.216 26.21 198.044 26.306C197.872 26.398 197.73 26.522 197.618 26.678C197.51 26.834 197.456 27.028 197.456 27.26C197.456 27.448 197.502 27.63 197.594 27.806C197.69 27.982 197.842 28.128 198.05 28.244C198.262 28.36 198.542 28.418 198.89 28.418ZM206.2 29.186C205.596 29.182 205.078 29.05 204.646 28.79C204.214 28.53 203.878 28.142 203.638 27.626C203.402 27.11 203.274 26.466 203.254 25.694C203.242 25.354 203.25 24.984 203.278 24.584C203.306 24.18 203.35 23.796 203.41 23.432C203.47 23.068 203.542 22.772 203.626 22.544C203.73 22.248 203.878 21.972 204.07 21.716C204.266 21.456 204.492 21.244 204.748 21.08C204.996 20.912 205.276 20.782 205.588 20.69C205.904 20.594 206.232 20.52 206.572 20.468C206.916 20.416 207.256 20.37 207.592 20.33C207.932 20.29 208.246 20.24 208.534 20.18L208.63 20.978C208.41 21.022 208.15 21.062 207.85 21.098C207.55 21.134 207.236 21.178 206.908 21.23C206.58 21.278 206.266 21.344 205.966 21.428C205.666 21.512 205.41 21.622 205.198 21.758C204.874 21.954 204.624 22.25 204.448 22.646C204.276 23.042 204.17 23.496 204.13 24.008C204.378 23.62 204.706 23.328 205.114 23.132C205.526 22.936 205.972 22.838 206.452 22.838C207.036 22.838 207.538 22.972 207.958 23.24C208.382 23.508 208.708 23.88 208.936 24.356C209.164 24.832 209.278 25.378 209.278 25.994C209.278 26.638 209.152 27.2 208.9 27.68C208.652 28.16 208.298 28.532 207.838 28.796C207.378 29.056 206.832 29.186 206.2 29.186ZM206.266 28.34C206.946 28.34 207.462 28.128 207.814 27.704C208.17 27.28 208.348 26.716 208.348 26.012C208.348 25.292 208.164 24.724 207.796 24.308C207.432 23.892 206.918 23.684 206.254 23.684C205.59 23.684 205.08 23.892 204.724 24.308C204.368 24.724 204.19 25.292 204.19 26.012C204.19 26.732 204.368 27.3 204.724 27.716C205.08 28.132 205.594 28.34 206.266 28.34ZM213.304 29.18C212.66 29.18 212.11 29.034 211.654 28.742C211.198 28.45 210.848 28.046 210.604 27.53C210.36 27.014 210.238 26.422 210.238 25.754C210.238 25.074 210.362 24.478 210.61 23.966C210.858 23.454 211.21 23.056 211.666 22.772C212.126 22.484 212.672 22.34 213.304 22.34C213.952 22.34 214.504 22.486 214.96 22.778C215.42 23.066 215.77 23.468 216.01 23.984C216.254 24.496 216.376 25.086 216.376 25.754C216.376 26.434 216.254 27.032 216.01 27.548C215.766 28.06 215.414 28.46 214.954 28.748C214.494 29.036 213.944 29.18 213.304 29.18ZM213.304 28.334C214.024 28.334 214.56 28.096 214.912 27.62C215.264 27.14 215.44 26.518 215.44 25.754C215.44 24.97 215.262 24.346 214.906 23.882C214.554 23.418 214.02 23.186 213.304 23.186C212.82 23.186 212.42 23.296 212.104 23.516C211.792 23.732 211.558 24.034 211.402 24.422C211.25 24.806 211.174 25.25 211.174 25.754C211.174 26.534 211.354 27.16 211.714 27.632C212.074 28.1 212.604 28.334 213.304 28.334ZM219.305 29V23.336H217.007V22.52H222.485V23.336H220.187V29H219.305ZM223.623 29L223.629 22.52H224.517V25.64L227.409 22.52H228.585L225.549 25.76L228.981 29H227.697L224.517 25.88V29H223.623ZM231.436 29.18C230.948 29.18 230.538 29.092 230.206 28.916C229.878 28.74 229.632 28.506 229.468 28.214C229.304 27.922 229.222 27.604 229.222 27.26C229.222 26.908 229.292 26.608 229.432 26.36C229.576 26.108 229.77 25.902 230.014 25.742C230.262 25.582 230.548 25.46 230.872 25.376C231.2 25.296 231.562 25.226 231.958 25.166C232.358 25.102 232.748 25.048 233.128 25.004C233.512 24.956 233.848 24.91 234.136 24.866L233.824 25.058C233.836 24.418 233.712 23.944 233.452 23.636C233.192 23.328 232.74 23.174 232.096 23.174C231.652 23.174 231.276 23.274 230.968 23.474C230.664 23.674 230.45 23.99 230.326 24.422L229.468 24.17C229.616 23.59 229.914 23.14 230.362 22.82C230.81 22.5 231.392 22.34 232.108 22.34C232.7 22.34 233.202 22.452 233.614 22.676C234.03 22.896 234.324 23.216 234.496 23.636C234.576 23.824 234.628 24.034 234.652 24.266C234.676 24.498 234.688 24.734 234.688 24.974V29H233.902V27.374L234.13 27.47C233.91 28.026 233.568 28.45 233.104 28.742C232.64 29.034 232.084 29.18 231.436 29.18ZM231.538 28.418C231.95 28.418 232.31 28.344 232.618 28.196C232.926 28.048 233.174 27.846 233.362 27.59C233.55 27.33 233.672 27.038 233.728 26.714C233.776 26.506 233.802 26.278 233.806 26.03C233.81 25.778 233.812 25.59 233.812 25.466L234.148 25.64C233.848 25.68 233.522 25.72 233.17 25.76C232.822 25.8 232.478 25.846 232.138 25.898C231.802 25.95 231.498 26.012 231.226 26.084C231.042 26.136 230.864 26.21 230.692 26.306C230.52 26.398 230.378 26.522 230.266 26.678C230.158 26.834 230.104 27.028 230.104 27.26C230.104 27.448 230.15 27.63 230.242 27.806C230.338 27.982 230.49 28.128 230.698 28.244C230.91 28.36 231.19 28.418 231.538 28.418ZM243.801 22.52V29H242.943V23.954L239.391 29H238.647V22.52H239.505V27.524L243.063 22.52H243.801ZM169.834 45V38.52H174.988V45H174.106V39.366H170.716V45H169.834ZM179.582 45.18C178.986 45.18 178.482 45.03 178.07 44.73C177.658 44.426 177.346 44.016 177.134 43.5C176.922 42.98 176.816 42.398 176.816 41.754C176.816 41.098 176.922 40.514 177.134 40.002C177.35 39.486 177.666 39.08 178.082 38.784C178.498 38.488 179.01 38.34 179.618 38.34C180.21 38.34 180.718 38.49 181.142 38.79C181.566 39.09 181.89 39.498 182.114 40.014C182.342 40.53 182.456 41.11 182.456 41.754C182.456 42.402 182.342 42.984 182.114 43.5C181.886 44.016 181.558 44.426 181.13 44.73C180.702 45.03 180.186 45.18 179.582 45.18ZM176.666 47.88V38.52H177.458V43.398H177.554V47.88H176.666ZM179.492 44.358C179.944 44.358 180.32 44.244 180.62 44.016C180.92 43.788 181.144 43.478 181.292 43.086C181.444 42.69 181.52 42.246 181.52 41.754C181.52 41.266 181.446 40.826 181.298 40.434C181.15 40.042 180.924 39.732 180.62 39.504C180.32 39.276 179.938 39.162 179.474 39.162C179.022 39.162 178.646 39.272 178.346 39.492C178.05 39.712 177.828 40.018 177.68 40.41C177.532 40.798 177.458 41.246 177.458 41.754C177.458 42.254 177.532 42.702 177.68 43.098C177.828 43.49 178.052 43.798 178.352 44.022C178.652 44.246 179.032 44.358 179.492 44.358ZM186.48 45.18C185.836 45.18 185.286 45.034 184.83 44.742C184.374 44.45 184.024 44.046 183.78 43.53C183.536 43.014 183.414 42.422 183.414 41.754C183.414 41.074 183.538 40.478 183.786 39.966C184.034 39.454 184.386 39.056 184.842 38.772C185.302 38.484 185.848 38.34 186.48 38.34C187.128 38.34 187.68 38.486 188.136 38.778C188.596 39.066 188.946 39.468 189.186 39.984C189.43 40.496 189.552 41.086 189.552 41.754C189.552 42.434 189.43 43.032 189.186 43.548C188.942 44.06 188.59 44.46 188.13 44.748C187.67 45.036 187.12 45.18 186.48 45.18ZM186.48 44.334C187.2 44.334 187.736 44.096 188.088 43.62C188.44 43.14 188.616 42.518 188.616 41.754C188.616 40.97 188.438 40.346 188.082 39.882C187.73 39.418 187.196 39.186 186.48 39.186C185.996 39.186 185.596 39.296 185.28 39.516C184.968 39.732 184.734 40.034 184.578 40.422C184.426 40.806 184.35 41.25 184.35 41.754C184.35 42.534 184.53 43.16 184.89 43.632C185.25 44.1 185.78 44.334 186.48 44.334ZM190.395 46.44V44.244C190.763 44.244 191.027 44.126 191.187 43.89C191.347 43.65 191.477 43.268 191.577 42.744C191.645 42.404 191.701 42.038 191.745 41.646C191.789 41.254 191.827 40.806 191.859 40.302C191.891 39.794 191.921 39.2 191.949 38.52H196.233V44.244H196.857V46.44H196.005V45H191.241V46.44H190.395ZM191.889 44.244H195.357V39.276H192.765C192.753 39.58 192.735 39.902 192.711 40.242C192.691 40.582 192.665 40.922 192.633 41.262C192.605 41.602 192.571 41.922 192.531 42.222C192.495 42.518 192.451 42.778 192.399 43.002C192.339 43.29 192.273 43.536 192.201 43.74C192.133 43.944 192.029 44.112 191.889 44.244ZM198.053 45V38.52H200.723C200.859 38.52 201.023 38.528 201.215 38.544C201.411 38.56 201.593 38.59 201.761 38.634C202.125 38.73 202.417 38.926 202.637 39.222C202.861 39.518 202.973 39.874 202.973 40.29C202.973 40.522 202.937 40.73 202.865 40.914C202.797 41.094 202.699 41.25 202.571 41.382C202.511 41.45 202.445 41.51 202.373 41.562C202.301 41.61 202.231 41.65 202.163 41.682C202.291 41.706 202.429 41.762 202.577 41.85C202.809 41.986 202.985 42.17 203.105 42.402C203.225 42.63 203.285 42.908 203.285 43.236C203.285 43.68 203.179 44.042 202.967 44.322C202.755 44.602 202.471 44.794 202.115 44.898C201.955 44.942 201.781 44.97 201.593 44.982C201.409 44.994 201.235 45 201.071 45H198.053ZM198.941 44.25H201.029C201.113 44.25 201.219 44.244 201.347 44.232C201.475 44.216 201.589 44.196 201.689 44.172C201.925 44.112 202.097 43.992 202.205 43.812C202.317 43.628 202.373 43.428 202.373 43.212C202.373 42.928 202.289 42.696 202.121 42.516C201.957 42.332 201.737 42.22 201.461 42.18C201.369 42.16 201.273 42.148 201.173 42.144C201.073 42.14 200.983 42.138 200.903 42.138H198.941V44.25ZM198.941 41.382H200.753C200.857 41.382 200.973 41.376 201.101 41.364C201.233 41.348 201.347 41.322 201.443 41.286C201.651 41.214 201.803 41.09 201.899 40.914C201.999 40.738 202.049 40.546 202.049 40.338C202.049 40.11 201.995 39.91 201.887 39.738C201.783 39.566 201.625 39.446 201.413 39.378C201.269 39.326 201.113 39.296 200.945 39.288C200.781 39.28 200.677 39.276 200.633 39.276H198.941V41.382ZM209.629 38.52V45H208.771V39.954L205.219 45H204.475V38.52H205.333V43.524L208.891 38.52H209.629ZM210.593 45L213.329 41.76L210.707 38.52H211.703L214.259 41.718V38.52H215.075V41.718L217.631 38.52H218.621L215.999 41.76L218.735 45H217.709L215.075 41.802V45H214.259V41.802L211.619 45H210.593ZM222.199 45.18C221.567 45.18 221.019 45.04 220.555 44.76C220.095 44.48 219.737 44.086 219.481 43.578C219.225 43.07 219.097 42.474 219.097 41.79C219.097 41.082 219.223 40.47 219.475 39.954C219.727 39.438 220.081 39.04 220.537 38.76C220.997 38.48 221.539 38.34 222.163 38.34C222.803 38.34 223.349 38.488 223.801 38.784C224.253 39.076 224.595 39.496 224.827 40.044C225.059 40.592 225.165 41.246 225.145 42.006H224.245V41.694C224.229 40.854 224.047 40.22 223.699 39.792C223.355 39.364 222.851 39.15 222.187 39.15C221.491 39.15 220.957 39.376 220.585 39.828C220.217 40.28 220.033 40.924 220.033 41.76C220.033 42.576 220.217 43.21 220.585 43.662C220.957 44.11 221.483 44.334 222.163 44.334C222.627 44.334 223.031 44.228 223.375 44.016C223.723 43.8 223.997 43.49 224.197 43.086L225.019 43.404C224.763 43.968 224.385 44.406 223.885 44.718C223.389 45.026 222.827 45.18 222.199 45.18ZM219.721 42.006V41.268H224.671V42.006H219.721ZM226.471 45V38.52H227.353V41.334H231.007V38.52H231.889V45H231.007V42.18H227.353V45H226.471ZM238.715 38.52V45H237.857V39.954L234.305 45H233.561V38.52H234.419V43.524L237.977 38.52H238.715ZM243.141 45.18C242.509 45.18 241.961 45.04 241.497 44.76C241.037 44.48 240.679 44.086 240.423 43.578C240.167 43.07 240.039 42.474 240.039 41.79C240.039 41.082 240.165 40.47 240.417 39.954C240.669 39.438 241.023 39.04 241.479 38.76C241.939 38.48 242.481 38.34 243.105 38.34C243.745 38.34 244.291 38.488 244.743 38.784C245.195 39.076 245.537 39.496 245.769 40.044C246.001 40.592 246.107 41.246 246.087 42.006H245.187V41.694C245.171 40.854 244.989 40.22 244.641 39.792C244.297 39.364 243.793 39.15 243.129 39.15C242.433 39.15 241.899 39.376 241.527 39.828C241.159 40.28 240.975 40.924 240.975 41.76C240.975 42.576 241.159 43.21 241.527 43.662C241.899 44.11 242.425 44.334 243.105 44.334C243.569 44.334 243.973 44.228 244.317 44.016C244.665 43.8 244.939 43.49 245.139 43.086L245.961 43.404C245.705 43.968 245.327 44.406 244.827 44.718C244.331 45.026 243.769 45.18 243.141 45.18ZM240.663 42.006V41.268H245.613V42.006H240.663ZM247.064 46.254L247.118 45.816C247.278 45.828 247.394 45.796 247.466 45.72C247.538 45.644 247.582 45.542 247.598 45.414C247.614 45.286 247.618 45.148 247.61 45H247.064V43.734H248.09V45.24C248.09 45.608 247.996 45.884 247.808 46.068C247.624 46.252 247.376 46.314 247.064 46.254ZM255.462 45.18C254.81 45.18 254.258 45.034 253.806 44.742C253.354 44.45 253.01 44.048 252.774 43.536C252.542 43.02 252.422 42.428 252.414 41.76C252.422 41.08 252.546 40.484 252.786 39.972C253.026 39.456 253.372 39.056 253.824 38.772C254.276 38.484 254.824 38.34 255.468 38.34C256.124 38.34 256.694 38.5 257.178 38.82C257.666 39.14 258 39.578 258.18 40.134L257.316 40.41C257.164 40.022 256.922 39.722 256.59 39.51C256.262 39.294 255.886 39.186 255.462 39.186C254.986 39.186 254.592 39.296 254.28 39.516C253.968 39.732 253.736 40.034 253.584 40.422C253.432 40.81 253.354 41.256 253.35 41.76C253.358 42.536 253.538 43.16 253.89 43.632C254.242 44.1 254.766 44.334 255.462 44.334C255.902 44.334 256.276 44.234 256.584 44.034C256.896 43.83 257.132 43.534 257.292 43.146L258.18 43.41C257.94 43.986 257.588 44.426 257.124 44.73C256.66 45.03 256.106 45.18 255.462 45.18ZM261.22 45V44.226C261.46 44.27 261.642 44.26 261.766 44.196C261.894 44.128 261.988 44.016 262.048 43.86C262.108 43.7 262.158 43.502 262.198 43.266C262.262 42.874 262.32 42.442 262.372 41.97C262.424 41.498 262.47 40.978 262.51 40.41C262.554 39.838 262.598 39.208 262.642 38.52H267.046V45H266.17V39.366H263.458C263.43 39.79 263.398 40.212 263.362 40.632C263.326 41.052 263.288 41.456 263.248 41.844C263.212 42.228 263.172 42.582 263.128 42.906C263.084 43.23 263.038 43.51 262.99 43.746C262.918 44.102 262.822 44.386 262.702 44.598C262.586 44.81 262.412 44.95 262.18 45.018C261.948 45.086 261.628 45.08 261.22 45ZM273.823 45.18C273.251 45.18 272.753 45.058 272.329 44.814C271.905 44.566 271.567 44.22 271.315 43.776C271.067 43.328 270.917 42.802 270.865 42.198H269.599V45H268.717V38.52H269.599V41.322H270.859C270.911 40.71 271.063 40.182 271.315 39.738C271.571 39.29 271.911 38.946 272.335 38.706C272.763 38.462 273.261 38.34 273.829 38.34C274.473 38.34 275.023 38.486 275.479 38.778C275.939 39.07 276.289 39.472 276.529 39.984C276.773 40.496 276.895 41.084 276.895 41.748C276.895 42.428 276.771 43.026 276.523 43.542C276.279 44.058 275.927 44.46 275.467 44.748C275.011 45.036 274.463 45.18 273.823 45.18ZM273.805 44.334C274.533 44.334 275.073 44.098 275.425 43.626C275.781 43.15 275.959 42.526 275.959 41.754C275.959 40.966 275.779 40.342 275.419 39.882C275.063 39.418 274.527 39.186 273.811 39.186C273.127 39.186 272.603 39.414 272.239 39.87C271.875 40.322 271.693 40.948 271.693 41.748C271.693 42.532 271.871 43.16 272.227 43.632C272.587 44.1 273.113 44.334 273.805 44.334ZM280.813 45.186C280.209 45.182 279.691 45.05 279.259 44.79C278.827 44.53 278.491 44.142 278.251 43.626C278.015 43.11 277.887 42.466 277.867 41.694C277.855 41.354 277.863 40.984 277.891 40.584C277.919 40.18 277.963 39.796 278.023 39.432C278.083 39.068 278.155 38.772 278.239 38.544C278.343 38.248 278.491 37.972 278.683 37.716C278.879 37.456 279.105 37.244 279.361 37.08C279.609 36.912 279.889 36.782 280.201 36.69C280.517 36.594 280.845 36.52 281.185 36.468C281.529 36.416 281.869 36.37 282.205 36.33C282.545 36.29 282.859 36.24 283.147 36.18L283.243 36.978C283.023 37.022 282.763 37.062 282.463 37.098C282.163 37.134 281.849 37.178 281.521 37.23C281.193 37.278 280.879 37.344 280.579 37.428C280.279 37.512 280.023 37.622 279.811 37.758C279.487 37.954 279.237 38.25 279.061 38.646C278.889 39.042 278.783 39.496 278.743 40.008C278.991 39.62 279.319 39.328 279.727 39.132C280.139 38.936 280.585 38.838 281.065 38.838C281.649 38.838 282.151 38.972 282.571 39.24C282.995 39.508 283.321 39.88 283.549 40.356C283.777 40.832 283.891 41.378 283.891 41.994C283.891 42.638 283.765 43.2 283.513 43.68C283.265 44.16 282.911 44.532 282.451 44.796C281.991 45.056 281.445 45.186 280.813 45.186ZM280.879 44.34C281.559 44.34 282.075 44.128 282.427 43.704C282.783 43.28 282.961 42.716 282.961 42.012C282.961 41.292 282.777 40.724 282.409 40.308C282.045 39.892 281.531 39.684 280.867 39.684C280.203 39.684 279.693 39.892 279.337 40.308C278.981 40.724 278.803 41.292 278.803 42.012C278.803 42.732 278.981 43.3 279.337 43.716C279.693 44.132 280.207 44.34 280.879 44.34ZM287.917 45.18C287.273 45.18 286.723 45.034 286.267 44.742C285.811 44.45 285.461 44.046 285.217 43.53C284.973 43.014 284.851 42.422 284.851 41.754C284.851 41.074 284.975 40.478 285.223 39.966C285.471 39.454 285.823 39.056 286.279 38.772C286.739 38.484 287.285 38.34 287.917 38.34C288.565 38.34 289.117 38.486 289.573 38.778C290.033 39.066 290.383 39.468 290.623 39.984C290.867 40.496 290.989 41.086 290.989 41.754C290.989 42.434 290.867 43.032 290.623 43.548C290.379 44.06 290.027 44.46 289.567 44.748C289.107 45.036 288.557 45.18 287.917 45.18ZM287.917 44.334C288.637 44.334 289.173 44.096 289.525 43.62C289.877 43.14 290.053 42.518 290.053 41.754C290.053 40.97 289.875 40.346 289.519 39.882C289.167 39.418 288.633 39.186 287.917 39.186C287.433 39.186 287.033 39.296 286.717 39.516C286.405 39.732 286.171 40.034 286.015 40.422C285.863 40.806 285.787 41.25 285.787 41.754C285.787 42.534 285.967 43.16 286.327 43.632C286.687 44.1 287.217 44.334 287.917 44.334ZM292.307 45V38.52H294.977C295.113 38.52 295.277 38.528 295.469 38.544C295.665 38.56 295.847 38.59 296.015 38.634C296.379 38.73 296.671 38.926 296.891 39.222C297.115 39.518 297.227 39.874 297.227 40.29C297.227 40.522 297.191 40.73 297.119 40.914C297.051 41.094 296.953 41.25 296.825 41.382C296.765 41.45 296.699 41.51 296.627 41.562C296.555 41.61 296.485 41.65 296.417 41.682C296.545 41.706 296.683 41.762 296.831 41.85C297.063 41.986 297.239 42.17 297.359 42.402C297.479 42.63 297.539 42.908 297.539 43.236C297.539 43.68 297.433 44.042 297.221 44.322C297.009 44.602 296.725 44.794 296.369 44.898C296.209 44.942 296.035 44.97 295.847 44.982C295.663 44.994 295.489 45 295.325 45H292.307ZM293.195 44.25H295.283C295.367 44.25 295.473 44.244 295.601 44.232C295.729 44.216 295.843 44.196 295.943 44.172C296.179 44.112 296.351 43.992 296.459 43.812C296.571 43.628 296.627 43.428 296.627 43.212C296.627 42.928 296.543 42.696 296.375 42.516C296.211 42.332 295.991 42.22 295.715 42.18C295.623 42.16 295.527 42.148 295.427 42.144C295.327 42.14 295.237 42.138 295.157 42.138H293.195V44.25ZM293.195 41.382H295.007C295.111 41.382 295.227 41.376 295.355 41.364C295.487 41.348 295.601 41.322 295.697 41.286C295.905 41.214 296.057 41.09 296.153 40.914C296.253 40.738 296.303 40.546 296.303 40.338C296.303 40.11 296.249 39.91 296.141 39.738C296.037 39.566 295.879 39.446 295.667 39.378C295.523 39.326 295.367 39.296 295.199 39.288C295.035 39.28 294.931 39.276 294.887 39.276H293.195V41.382ZM298.741 45L298.729 38.52H299.617V40.962H301.135C301.323 40.962 301.507 40.966 301.687 40.974C301.871 40.982 302.033 40.998 302.173 41.022C302.493 41.082 302.777 41.188 303.025 41.34C303.277 41.492 303.473 41.702 303.613 41.97C303.757 42.238 303.829 42.574 303.829 42.978C303.829 43.534 303.685 43.972 303.397 44.292C303.113 44.612 302.753 44.82 302.317 44.916C302.153 44.952 301.975 44.976 301.783 44.988C301.591 44.996 301.401 45 301.213 45H298.741ZM299.617 44.244H301.177C301.313 44.244 301.465 44.24 301.633 44.232C301.801 44.224 301.949 44.202 302.077 44.166C302.289 44.106 302.481 43.986 302.653 43.806C302.829 43.622 302.917 43.346 302.917 42.978C302.917 42.614 302.833 42.34 302.665 42.156C302.497 41.968 302.273 41.844 301.993 41.784C301.869 41.756 301.735 41.738 301.591 41.73C301.447 41.722 301.309 41.718 301.177 41.718H299.617V44.244ZM310.069 45.18C309.497 45.18 308.999 45.058 308.575 44.814C308.151 44.566 307.813 44.22 307.561 43.776C307.313 43.328 307.163 42.802 307.111 42.198H305.845V45H304.963V38.52H305.845V41.322H307.105C307.157 40.71 307.309 40.182 307.561 39.738C307.817 39.29 308.157 38.946 308.581 38.706C309.009 38.462 309.507 38.34 310.075 38.34C310.719 38.34 311.269 38.486 311.725 38.778C312.185 39.07 312.535 39.472 312.775 39.984C313.019 40.496 313.141 41.084 313.141 41.748C313.141 42.428 313.017 43.026 312.769 43.542C312.525 44.058 312.173 44.46 311.713 44.748C311.257 45.036 310.709 45.18 310.069 45.18ZM310.051 44.334C310.779 44.334 311.319 44.098 311.671 43.626C312.027 43.15 312.205 42.526 312.205 41.754C312.205 40.966 312.025 40.342 311.665 39.882C311.309 39.418 310.773 39.186 310.057 39.186C309.373 39.186 308.849 39.414 308.485 39.87C308.121 40.322 307.939 40.948 307.939 41.748C307.939 42.532 308.117 43.16 308.473 43.632C308.833 44.1 309.359 44.334 310.051 44.334Z" fill="#F5F5F5"/>
<rect x="0.5" y="0.5" width="332" height="63" rx="9.5" stroke="white" stroke-opacity="0.2"/>
<defs>
<linearGradient id="paint0_linear_601_14081" x1="15.5177" y1="29.8372" x2="28.8249" y2="16.2838" gradientUnits="userSpaceOnUse">
<stop stop-color="#CE2000"/>
<stop offset="0.6128" stop-color="#A61A00"/>
<stop offset="1" stop-color="#DD1500"/>
</linearGradient>
<linearGradient id="paint1_linear_601_14081" x1="15.5027" y1="37.7545" x2="34.9436" y2="17.954" gradientUnits="userSpaceOnUse">
<stop stop-color="#CE2000"/>
<stop offset="0.6128" stop-color="#A61A00"/>
<stop offset="1" stop-color="#DD1500"/>
</linearGradient>
<linearGradient id="paint2_linear_601_14081" x1="20.381" y1="42.0346" x2="40.4011" y2="21.6442" gradientUnits="userSpaceOnUse">
<stop stop-color="#CE2000"/>
<stop offset="0.6128" stop-color="#A61A00"/>
<stop offset="1" stop-color="#DD1500"/>
</linearGradient>
<linearGradient id="paint3_linear_601_14081" x1="25.6321" y1="45.0551" x2="44.8384" y2="25.4936" gradientUnits="userSpaceOnUse">
<stop stop-color="#CE2000"/>
<stop offset="0.6128" stop-color="#A61A00"/>
<stop offset="1" stop-color="#DD1500"/>
</linearGradient>
<linearGradient id="paint4_linear_601_14081" x1="32.6437" y1="47.3598" x2="45.9509" y2="33.8064" gradientUnits="userSpaceOnUse">
<stop stop-color="#CE2000"/>
<stop offset="0.6128" stop-color="#A61A00"/>
<stop offset="1" stop-color="#DD1500"/>
</linearGradient>
</defs>
</svg>
