<svg width="433" height="355" fill="none" xmlns="http://www.w3.org/2000/svg"><path d="M266.65 12.01l34.76 21.65a79.854 79.854 0 0122.284 20.707l-34.769-21.65A79.679 79.679 0 00266.65 12.01z" fill="#A9AFB6"/><path d="M266.65 12.01l34.76 21.65a79.854 79.854 0 0122.284 20.707l-34.769-21.65A79.679 79.679 0 00266.65 12.01z" fill="url(#paint0_radial_669_17304)"/><path d="M266.65 12.01l34.76 21.65c2.045 1.265 4.037 2.599 5.958 4.088l-34.769-21.65a76.44 76.44 0 00-5.949-4.087z" fill="#A9AFB6"/><path d="M266.65 12.01l34.76 21.65c2.045 1.265 4.037 2.599 5.958 4.088l-34.769-21.65a76.44 76.44 0 00-5.949-4.087z" fill="url(#paint1_radial_669_17304)"/><path d="M272.599 16.099l34.769 21.65a81.82 81.82 0 015.785 4.831l-34.76-21.65a70.175 70.175 0 00-5.794-4.831z" fill="#A9AFB6"/><path d="M272.599 16.099l34.769 21.65a81.82 81.82 0 015.785 4.831l-34.76-21.65a70.175 70.175 0 00-5.794-4.831z" fill="url(#paint2_radial_669_17304)"/><path d="M278.393 20.93l34.76 21.607a78.247 78.247 0 015.7 5.794l-34.805-21.607a80.013 80.013 0 00-5.691-5.794" fill="#A9AFB6"/><path d="M278.393 20.93l34.76 21.607a78.247 78.247 0 015.7 5.794l-34.805-21.607a80.013 80.013 0 00-5.691-5.794" fill="url(#paint3_radial_669_17304)"/><path d="M284.048 26.723l34.769 21.65a79.945 79.945 0 014.841 5.993l-34.734-21.65a70.292 70.292 0 00-4.876-5.993z" fill="#A9AFB6"/><path d="M284.048 26.723l34.769 21.65a79.945 79.945 0 014.841 5.993l-34.734-21.65a70.292 70.292 0 00-4.876-5.993z" fill="url(#paint4_radial_669_17304)"/><path d="M104.873 332.896l34.769 21.607a70.11 70.11 0 01-19.337-2.692l-34.76-21.607a69.88 69.88 0 0019.328 2.692z" fill="#A9AFB6"/><path d="M104.873 332.896l34.769 21.607a70.11 70.11 0 01-19.337-2.692l-34.76-21.607a69.88 69.88 0 0019.328 2.692z" fill="url(#paint5_radial_669_17304)"/><path d="M104.873 332.896l34.769 21.607a70.11 70.11 0 01-19.337-2.692l-34.76-21.607a69.88 69.88 0 0019.328 2.692z" fill="#A9AFB6"/><path d="M104.873 332.896l34.769 21.607a70.11 70.11 0 01-19.337-2.692l-34.76-21.607a69.88 69.88 0 0019.328 2.692z" fill="url(#paint6_radial_669_17304)"/><path d="M288.924 32.716l34.77 21.607 42.745 58.359-34.762-21.606-42.753-58.36z" fill="#A9AFB6"/><path d="M288.924 32.716l34.77 21.607 42.745 58.359-34.762-21.606-42.753-58.36z" fill="url(#paint7_radial_669_17304)"/><path d="M335.514 92.93l34.77 21.606c3.74 2.329 4.512 4.78 5.299 5.274l-34.761-21.607c-.796-.493-1.559-2.944-5.308-5.274z" fill="#A9AFB6"/><path d="M335.514 92.93l34.77 21.606c3.74 2.329 4.512 4.78 5.299 5.274l-34.761-21.607c-.796-.493-1.559-2.944-5.308-5.274z" fill="url(#paint8_radial_669_17304)"/><path d="M335.514 92.93l34.77 21.606c.451.285.866.563 1.22.866l-34.77-21.607c-.362-.277-.769-.554-1.22-.866z" fill="#A9AFB6"/><path d="M335.514 92.93l34.77 21.606c.451.285.866.563 1.22.866l-34.77-21.607c-.362-.277-.769-.554-1.22-.866z" fill="url(#paint9_radial_669_17304)"/><path d="M336.734 93.769l34.779 21.607c.389.294.736.588 1.048.866l-34.77-21.65c-.312-.286-.659-.58-1.048-.866" fill="#A9AFB6"/><path d="M336.734 93.769l34.779 21.607c.389.294.736.588 1.048.866l-34.77-21.65c-.312-.286-.659-.58-1.048-.866" fill="url(#paint10_radial_669_17304)"/><path d="M337.783 94.644l34.769 21.65c.365.338.677.658.953.97l-34.761-21.65a14.014 14.014 0 00-.961-.97z" fill="#A9AFB6"/><path d="M337.783 94.644l34.769 21.65c.365.338.677.658.953.97l-34.761-21.65a14.014 14.014 0 00-.961-.97z" fill="url(#paint11_radial_669_17304)"/><path d="M338.744 95.614l34.76 21.65c.867 1.013 1.387 1.87 1.785 2.321l-34.761-21.607c-.407-.45-.867-1.307-1.784-2.32" fill="#A9AFB6"/><path d="M338.744 95.614l34.76 21.65c.867 1.013 1.387 1.87 1.785 2.321l-34.761-21.607c-.407-.45-.867-1.307-1.784-2.32" fill="url(#paint12_radial_669_17304)"/><path d="M340.528 97.936l34.761 21.572.13.138-34.761-21.606-.13-.14" fill="#A9AFB6"/><path d="M340.528 97.936l34.761 21.572.13.138-34.761-21.606-.13-.14" fill="url(#paint13_radial_669_17304)"/><path d="M340.658 98.072l34.761 21.607.095.078-34.77-21.607-.086-.078z" fill="#A9AFB6"/><path d="M340.658 98.072l34.761 21.607.095.078-34.77-21.607-.086-.078z" fill="url(#paint14_radial_669_17304)"/><path d="M340.745 98.151l34.769 21.607.06.044-34.761-21.65h-.068z" fill="#A9AFB6"/><path d="M340.745 98.151l34.769 21.607.06.044-34.761-21.65h-.068z" fill="url(#paint15_radial_669_17304)"/><path d="M340.813 98.194l34.761 21.607.008.008-34.76-21.606-.009-.009z" fill="#A9AFB6"/><path d="M340.813 98.194l34.761 21.607.008.008-34.76-21.606-.009-.009z" fill="url(#paint16_radial_669_17304)"/><path d="M236.478 332.896l34.761 21.607H139.642l-34.769-21.607h131.605z" fill="#A9AFB6"/><path d="M236.478 332.896l34.761 21.607H139.642l-34.769-21.607h131.605z" fill="url(#paint17_radial_669_17304)"/><path d="M357.537 103.251l34.761 21.65c10.574 6.574 17.137 18.956 16.107 33.124a41.306 41.306 0 01-5.195 17.181l-34.763-21.598a41.479 41.479 0 005.197-17.188c1.022-14.212-5.542-26.596-16.107-33.169z" fill="#A9AFB6"/><path d="M357.537 103.251l34.761 21.65c10.574 6.574 17.137 18.956 16.107 33.124a41.306 41.306 0 01-5.195 17.181l-34.763-21.598a41.479 41.479 0 005.197-17.188c1.022-14.212-5.542-26.596-16.107-33.169z" fill="url(#paint18_radial_669_17304)"/><path d="M357.537 103.251l34.761 21.65a26.015 26.015 0 012.502 1.733l-34.76-21.607a39.173 39.173 0 00-2.503-1.732" fill="#A9AFB6"/><path d="M357.537 103.251l34.761 21.65a26.015 26.015 0 012.502 1.733l-34.76-21.607a39.173 39.173 0 00-2.503-1.732" fill="url(#paint19_radial_669_17304)"/><path d="M360.039 104.975l34.761 21.606a29.705 29.705 0 012.443 2.036l-34.772-21.65a33.67 33.67 0 00-2.432-2.035" fill="#A9AFB6"/><path d="M360.039 104.975l34.761 21.606a29.705 29.705 0 012.443 2.036l-34.772-21.65a33.67 33.67 0 00-2.432-2.035" fill="url(#paint20_radial_669_17304)"/><path d="M362.471 107.011l34.772 21.651c.864.769 1.627 1.585 2.39 2.434l-34.77-21.651a33.499 33.499 0 00-2.392-2.434z" fill="#A9AFB6"/><path d="M362.471 107.011l34.772 21.651c.864.769 1.627 1.585 2.39 2.434l-34.77-21.651a33.499 33.499 0 00-2.392-2.434z" fill="url(#paint21_radial_669_17304)"/><path d="M364.863 109.444l34.77 21.651c.86.971 1.662 1.992 2.407 3.055l-34.76-21.649a36.123 36.123 0 00-2.417-3.057z" fill="#A9AFB6"/><path d="M364.863 109.444l34.77 21.651c.86.971 1.662 1.992 2.407 3.055l-34.76-21.649a36.123 36.123 0 00-2.417-3.057z" fill="url(#paint22_radial_669_17304)"/><path d="M367.279 112.501l34.761 21.65a34.804 34.804 0 012.538 4.218l-34.796-21.65a34.855 34.855 0 00-2.529-4.217" fill="#A9AFB6"/><path d="M367.279 112.501l34.761 21.65a34.804 34.804 0 012.538 4.218l-34.796-21.65a34.855 34.855 0 00-2.529-4.217" fill="url(#paint23_radial_669_17304)"/><path d="M369.782 116.719l34.769 21.605a37.236 37.236 0 013.836 19.503l-34.77-21.599a37.255 37.255 0 00-3.835-19.509z" fill="#A9AFB6"/><path d="M369.782 116.719l34.769 21.605a37.236 37.236 0 013.836 19.503l-34.77-21.599a37.255 37.255 0 00-3.835-19.509z" fill="url(#paint24_radial_669_17304)"/><path d="M373.644 136.228l34.769 21.598v.157a41.838 41.838 0 01-.683 5.032l-34.772-21.652c.334-1.66.564-3.34.686-5.031a.89.89 0 000-.146" fill="#A9AFB6"/><path d="M373.644 136.228l34.769 21.598v.157a41.838 41.838 0 01-.683 5.032l-34.772-21.652c.334-1.66.564-3.34.686-5.031a.89.89 0 000-.146" fill="url(#paint25_radial_669_17304)"/><path d="M372.95 141.408l34.771 21.649a40.041 40.041 0 01-1.006 3.977l-34.769-21.651a39.924 39.924 0 001.004-3.975z" fill="#A9AFB6"/><path d="M372.95 141.408l34.771 21.649a40.041 40.041 0 01-1.006 3.977l-34.769-21.651a39.924 39.924 0 001.004-3.975z" fill="url(#paint26_radial_669_17304)"/><path d="M371.946 145.383l34.77 21.651a42.254 42.254 0 01-1.212 3.42l-34.769-21.649a34.227 34.227 0 001.211-3.464" fill="#A9AFB6"/><path d="M371.946 145.383l34.77 21.651a42.254 42.254 0 01-1.212 3.42l-34.769-21.649a34.227 34.227 0 001.211-3.464" fill="url(#paint27_radial_669_17304)"/><path d="M370.735 148.804l34.769 21.605c-.424 1.057-.866 2.087-1.404 3.102l-34.769-21.651a40.025 40.025 0 001.404-3.1" fill="#A9AFB6"/><path d="M370.735 148.804l34.769 21.605c-.424 1.057-.866 2.087-1.404 3.102l-34.769-21.651a40.025 40.025 0 001.404-3.1" fill="url(#paint28_radial_669_17304)"/><path d="M369.331 151.904l34.769 21.649c-.285.564-.57 1.11-.867 1.656l-34.76-21.599c.303-.546.599-1.1.866-1.662" fill="#A9AFB6"/><path d="M369.331 151.904l34.769 21.649c-.285.564-.57 1.11-.867 1.656l-34.76-21.599c.303-.546.599-1.1.866-1.662" fill="url(#paint29_radial_669_17304)"/><path d="M309.82 283.309l34.769 21.651c-12.99 29.002-41.671 49.586-73.35 49.586l-34.761-21.605c31.679-.044 60.316-20.628 73.342-49.632z" fill="#A9AFB6"/><path d="M309.82 283.309l34.769 21.651c-12.99 29.002-41.671 49.586-73.35 49.586l-34.761-21.605c31.679-.044 60.316-20.628 73.342-49.632z" fill="url(#paint30_radial_669_17304)"/><path d="M309.819 283.308l34.77 21.651a90.59 90.59 0 01-1.594 3.343l-34.761-21.658a87.456 87.456 0 001.585-3.345" fill="#A9AFB6"/><path d="M309.819 283.308l34.77 21.651a90.59 90.59 0 01-1.594 3.343l-34.761-21.658a87.456 87.456 0 001.585-3.345" fill="url(#paint31_radial_669_17304)"/><path d="M308.235 286.645l34.76 21.649a87.017 87.017 0 01-3.263 5.913l-34.763-21.649a92.173 92.173 0 003.266-5.913z" fill="#A9AFB6"/><path d="M308.235 286.645l34.76 21.649a87.017 87.017 0 01-3.263 5.913l-34.763-21.649a92.173 92.173 0 003.266-5.913z" fill="url(#paint32_radial_669_17304)"/><path d="M304.969 292.567l34.763 21.652a80.426 80.426 0 01-3.725 5.655l-34.76-21.607a92.921 92.921 0 003.722-5.655" fill="#A9AFB6"/><path d="M304.969 292.567l34.763 21.652a80.426 80.426 0 01-3.725 5.655l-34.76-21.607a92.921 92.921 0 003.722-5.655" fill="url(#paint33_radial_669_17304)"/><path d="M301.247 298.222l34.76 21.607a85.096 85.096 0 01-4.277 5.492l-34.77-21.652c1.499-1.731 2.927-3.601 4.287-5.489" fill="#A9AFB6"/><path d="M301.247 298.222l34.76 21.607a85.096 85.096 0 01-4.277 5.492l-34.77-21.652c1.499-1.731 2.927-3.601 4.287-5.489" fill="url(#paint34_radial_669_17304)"/><path d="M296.96 303.713l34.77 21.649a84.523 84.523 0 01-5.041 5.474L291.92 309.16a90.786 90.786 0 005.04-5.482" fill="#A9AFB6"/><path d="M296.96 303.713l34.77 21.649a84.523 84.523 0 01-5.041 5.474L291.92 309.16a90.786 90.786 0 005.04-5.482" fill="url(#paint35_radial_669_17304)"/><path d="M291.92 309.16l34.769 21.649a86.494 86.494 0 01-6.174 5.578l-34.737-21.625a75.518 75.518 0 006.177-5.569" fill="#A9AFB6"/><path d="M291.92 309.16l34.769 21.649a86.494 86.494 0 01-6.174 5.578l-34.737-21.625a75.518 75.518 0 006.177-5.569" fill="url(#paint36_radial_669_17304)"/><path d="M285.779 314.763l34.771 21.607a83.785 83.785 0 01-8.263 5.966l-34.769-21.607a82.786 82.786 0 008.261-5.966z" fill="#A9AFB6"/><path d="M285.779 314.763l34.771 21.607a83.785 83.785 0 01-8.263 5.966l-34.769-21.607a82.786 82.786 0 008.261-5.966z" fill="url(#paint37_radial_669_17304)"/><path d="M277.484 320.729l34.769 21.607a76.671 76.671 0 01-41.014 12.167l-34.761-21.607a76.662 76.662 0 0041.006-12.167z" fill="#A9AFB6"/><path d="M277.484 320.729l34.769 21.607a76.671 76.671 0 01-41.014 12.167l-34.761-21.607a76.662 76.662 0 0041.006-12.167z" fill="url(#paint38_radial_669_17304)"/><path d="M382 158.313l34.77 21.599c10.573 6.572 17.139 18.965 16.116 33.131-1.437 19.675-17.016 35.921-35.575 37.913l-34.769-21.649c18.567-1.992 34.146-18.238 35.574-37.913 1.03-14.124-5.542-26.508-16.116-33.081z" fill="#A9AFB6"/><path d="M382 158.313l34.77 21.599c10.573 6.572 17.139 18.965 16.116 33.131-1.437 19.675-17.016 35.921-35.575 37.913l-34.769-21.649c18.567-1.992 34.146-18.238 35.574-37.913 1.03-14.124-5.542-26.508-16.116-33.081z" fill="url(#paint39_radial_669_17304)"/><path d="M382 158.312l34.77 21.599c.867.535 1.733 1.116 2.502 1.731l-34.769-21.65a36.172 36.172 0 00-2.503-1.733" fill="#A9AFB6"/><path d="M382 158.312l34.77 21.599c.867.535 1.733 1.116 2.502 1.731l-34.769-21.65a36.172 36.172 0 00-2.503-1.733" fill="url(#paint40_radial_669_17304)"/><path d="M384.502 160.026l34.77 21.652a27.534 27.534 0 012.425 2.033l-34.761-21.649a34.424 34.424 0 00-2.434-2.036z" fill="#A9AFB6"/><path d="M384.502 160.026l34.77 21.652a27.534 27.534 0 012.425 2.033l-34.761-21.649a34.424 34.424 0 00-2.434-2.036z" fill="url(#paint41_radial_669_17304)"/><path d="M386.937 162.062l34.76 21.649a32.268 32.268 0 012.408 2.443l-34.761-21.616a34.22 34.22 0 00-2.407-2.441" fill="#A9AFB6"/><path d="M386.937 162.062l34.76 21.649a32.268 32.268 0 012.408 2.443l-34.761-21.616a34.22 34.22 0 00-2.407-2.441" fill="url(#paint42_radial_669_17304)"/><path d="M389.344 164.539l34.761 21.607c.86.975 1.667 1.994 2.416 3.057l-34.769-21.607a34.085 34.085 0 00-2.408-3.057z" fill="#A9AFB6"/><path d="M389.344 164.539l34.761 21.607c.86.975 1.667 1.994 2.416 3.057l-34.769-21.607a34.085 34.085 0 00-2.408-3.057z" fill="url(#paint43_radial_669_17304)"/><path d="M391.751 167.562l34.77 21.605a33.571 33.571 0 012.597 4.28l-34.769-21.607a33.65 33.65 0 00-2.598-4.278z" fill="#A9AFB6"/><path d="M391.751 167.562l34.77 21.605a33.571 33.571 0 012.597 4.28l-34.769-21.607a33.65 33.65 0 00-2.598-4.278z" fill="url(#paint44_radial_669_17304)"/><path d="M394.316 171.837l34.77 21.608a37.298 37.298 0 013.809 19.442l-34.77-21.651a37.126 37.126 0 00-3.809-19.441" fill="#A9AFB6"/><path d="M394.316 171.837l34.77 21.608a37.298 37.298 0 013.809 19.442l-34.77-21.651a37.126 37.126 0 00-3.809-19.441" fill="url(#paint45_radial_669_17304)"/><path d="M398.125 191.28l34.769 21.649v.104a41.248 41.248 0 01-.683 4.999l-34.76-21.607c.327-1.652.552-3.319.674-4.997v-.157" fill="#A9AFB6"/><path d="M398.125 191.28l34.769 21.649v.104a41.248 41.248 0 01-.683 4.999l-34.76-21.607c.327-1.652.552-3.319.674-4.997v-.157" fill="url(#paint46_radial_669_17304)"/><path d="M397.442 196.434l34.76 21.607a41.238 41.238 0 01-1.003 3.992l-34.763-21.607a40.963 40.963 0 001.006-3.992z" fill="#A9AFB6"/><path d="M397.442 196.434l34.76 21.607a41.238 41.238 0 01-1.003 3.992l-34.763-21.607a40.963 40.963 0 001.006-3.992z" fill="url(#paint47_radial_669_17304)"/><path d="M396.436 200.426l34.763 21.607a40.527 40.527 0 01-1.205 3.403l-34.77-21.608a36.873 36.873 0 001.212-3.402z" fill="#A9AFB6"/><path d="M396.436 200.426l34.763 21.607a40.527 40.527 0 01-1.205 3.403l-34.77-21.608a36.873 36.873 0 001.212-3.402z" fill="url(#paint48_radial_669_17304)"/><path d="M395.225 203.829l34.769 21.607c-.424 1.056-.866 2.087-1.404 3.099l-34.76-21.563c.502-1.012.97-2.042 1.395-3.099" fill="#A9AFB6"/><path d="M395.225 203.829l34.769 21.607c-.424 1.056-.866 2.087-1.404 3.099l-34.76-21.563c.502-1.012.97-2.042 1.395-3.099" fill="url(#paint49_radial_669_17304)"/><path d="M393.83 206.972l34.76 21.607a40.626 40.626 0 01-1.592 2.894l-34.769-21.652a39.557 39.557 0 001.601-2.891" fill="#A9AFB6"/><path d="M393.83 206.972l34.76 21.607a40.626 40.626 0 01-1.592 2.894l-34.769-21.652a39.557 39.557 0 001.601-2.891" fill="url(#paint50_radial_669_17304)"/><path d="M392.229 209.821l34.769 21.652a42.008 42.008 0 01-1.819 2.761l-34.769-21.649c.641-.867 1.246-1.82 1.819-2.764z" fill="#A9AFB6"/><path d="M392.229 209.821l34.769 21.652a42.008 42.008 0 01-1.819 2.761l-34.769-21.649c.641-.867 1.246-1.82 1.819-2.764z" fill="url(#paint51_radial_669_17304)"/><path d="M390.41 212.585l34.769 21.649a49.65 49.65 0 01-2.104 2.702l-34.761-21.65a33.184 33.184 0 002.096-2.701z" fill="#A9AFB6"/><path d="M390.41 212.585l34.769 21.649a49.65 49.65 0 01-2.104 2.702l-34.761-21.65a33.184 33.184 0 002.096-2.701z" fill="url(#paint52_radial_669_17304)"/><path d="M388.314 215.287l34.76 21.649a42.382 42.382 0 01-2.467 2.677l-34.769-21.607a41.595 41.595 0 002.476-2.677" fill="#A9AFB6"/><path d="M388.314 215.287l34.76 21.649a42.382 42.382 0 01-2.467 2.677l-34.769-21.607a41.595 41.595 0 002.476-2.677" fill="url(#paint53_radial_669_17304)"/><path d="M385.838 217.961l34.769 21.608a42.304 42.304 0 01-2.997 2.71l-34.77-21.607a39.866 39.866 0 002.998-2.711z" fill="#A9AFB6"/><path d="M385.838 217.961l34.769 21.608a42.304 42.304 0 01-2.997 2.71l-34.77-21.607a39.866 39.866 0 002.998-2.711z" fill="url(#paint54_radial_669_17304)"/><path d="M382.841 220.672l34.769 21.607a40.473 40.473 0 01-4.07 2.936l-34.769-21.649a41.304 41.304 0 004.07-2.936" fill="#A9AFB6"/><path d="M382.841 220.672l34.769 21.607a40.473 40.473 0 01-4.07 2.936l-34.769-21.649a41.304 41.304 0 004.07-2.936" fill="url(#paint55_radial_669_17304)"/><path d="M378.771 223.607l34.769 21.651a37.987 37.987 0 01-16.229 5.741l-34.769-21.649a37.941 37.941 0 0016.229-5.743z" fill="#A9AFB6"/><path d="M378.771 223.607l34.769 21.651a37.987 37.987 0 01-16.229 5.741l-34.769-21.649a37.941 37.941 0 0016.229-5.743z" fill="url(#paint56_radial_669_17304)"/><path d="M362.542 229.351L397.311 251a37.49 37.49 0 013.022 17.986c-1.523 21.025-19.2 38.103-39.385 38.103a73.566 73.566 0 01-16.359-2.147l-34.77-21.651a73.583 73.583 0 0016.359 2.149c20.195 0 37.862-17.095 39.394-38.103a37.525 37.525 0 00-3.03-17.986z" fill="#A9AFB6"/><path d="M362.542 229.351L397.311 251a37.49 37.49 0 013.022 17.986c-1.523 21.025-19.2 38.103-39.385 38.103a73.566 73.566 0 01-16.359-2.147l-34.77-21.651a73.583 73.583 0 0016.359 2.149c20.195 0 37.862-17.095 39.394-38.103a37.525 37.525 0 00-3.03-17.986z" fill="url(#paint57_radial_669_17304)"/><path d="M362.542 229.351L397.311 251a37.446 37.446 0 013.031 17.846l-34.76-21.607a37.495 37.495 0 00-3.04-17.846" fill="#A9AFB6"/><path d="M362.542 229.351L397.311 251a37.446 37.446 0 013.031 17.846l-34.76-21.607a37.495 37.495 0 00-3.04-17.846" fill="url(#paint58_radial_669_17304)"/><path d="M365.582 247.198l34.761 21.607v.137a39.166 39.166 0 01-.677 4.989l-34.76-21.607c.322-1.644.548-3.307.676-4.98v-.146z" fill="#A9AFB6"/><path d="M365.582 247.198l34.761 21.607v.137a39.166 39.166 0 01-.677 4.989l-34.76-21.607c.322-1.644.548-3.307.676-4.98v-.146z" fill="url(#paint59_radial_669_17304)"/><path d="M364.896 252.324l34.763 21.605a40.527 40.527 0 01-1.006 4.01l-34.769-21.607a38.277 38.277 0 001.012-4.008z" fill="#A9AFB6"/><path d="M364.896 252.324l34.763 21.605a40.527 40.527 0 01-1.006 4.01l-34.769-21.607a38.277 38.277 0 001.012-4.008z" fill="url(#paint60_radial_669_17304)"/><path d="M363.884 256.332l34.769 21.651a41.405 41.405 0 01-1.211 3.411l-34.763-21.649a35.954 35.954 0 001.205-3.413z" fill="#A9AFB6"/><path d="M363.884 256.332l34.769 21.651a41.405 41.405 0 01-1.211 3.411l-34.763-21.649a35.954 35.954 0 001.205-3.413z" fill="url(#paint61_radial_669_17304)"/><path d="M362.679 259.745l34.763 21.607c-.425 1.048-.867 2.078-1.395 3.091l-34.77-21.607a42.313 42.313 0 001.402-3.091z" fill="#A9AFB6"/><path d="M362.679 259.745l34.763 21.607c-.425 1.048-.867 2.078-1.395 3.091l-34.77-21.607a42.313 42.313 0 001.402-3.091z" fill="url(#paint62_radial_669_17304)"/><path d="M361.277 262.835l34.77 21.608a39.955 39.955 0 01-1.603 2.893l-34.76-21.607a43.83 43.83 0 001.593-2.894z" fill="#A9AFB6"/><path d="M361.277 262.835l34.77 21.608a39.955 39.955 0 01-1.603 2.893l-34.76-21.607a43.83 43.83 0 001.593-2.894z" fill="url(#paint63_radial_669_17304)"/><path d="M359.683 265.729l34.761 21.608c-.57.952-1.176 1.87-1.817 2.77l-34.77-21.608a34.439 34.439 0 001.826-2.77z" fill="#A9AFB6"/><path d="M359.683 265.729l34.761 21.608c-.57.952-1.176 1.87-1.817 2.77l-34.77-21.608a34.439 34.439 0 001.826-2.77z" fill="url(#paint64_radial_669_17304)"/><path d="M357.857 268.5l34.77 21.607a43.057 43.057 0 01-2.105 2.694l-34.76-21.607c.727-.866 1.428-1.733 2.095-2.694z" fill="#A9AFB6"/><path d="M357.857 268.5l34.77 21.607a43.057 43.057 0 01-2.105 2.694l-34.76-21.607c.727-.866 1.428-1.733 2.095-2.694z" fill="url(#paint65_radial_669_17304)"/><path d="M355.762 271.195l34.803 21.605a41.999 41.999 0 01-2.459 2.677l-34.778-21.607c.86-.86 1.682-1.753 2.467-2.675" fill="#A9AFB6"/><path d="M355.762 271.195l34.803 21.605a41.999 41.999 0 01-2.459 2.677l-34.778-21.607c.86-.86 1.682-1.753 2.467-2.675" fill="url(#paint66_radial_669_17304)"/><path d="M353.328 273.87l34.769 21.607a44.791 44.791 0 01-3.013 2.719l-34.769-21.607a45.313 45.313 0 003.013-2.719z" fill="#A9AFB6"/><path d="M353.328 273.87l34.769 21.607a44.791 44.791 0 01-3.013 2.719l-34.769-21.607a45.313 45.313 0 003.013-2.719z" fill="url(#paint67_radial_669_17304)"/><path d="M350.279 276.588l34.77 21.607a40.62 40.62 0 01-4.043 2.919l-34.772-21.608a39.516 39.516 0 004.045-2.918z" fill="#A9AFB6"/><path d="M350.279 276.588l34.77 21.607a40.62 40.62 0 01-4.043 2.919l-34.772-21.608a39.516 39.516 0 004.045-2.918z" fill="url(#paint68_radial_669_17304)"/><path d="M346.234 279.506l34.805 21.607a37.455 37.455 0 01-20.056 5.949 73.55 73.55 0 01-16.359-2.146l-34.769-21.652a73.479 73.479 0 0016.359 2.149 37.476 37.476 0 0020.055-5.949" fill="#A9AFB6"/><path d="M346.234 279.506l34.805 21.607a37.455 37.455 0 01-20.056 5.949 73.55 73.55 0 01-16.359-2.146l-34.769-21.652a73.479 73.479 0 0016.359 2.149 37.476 37.476 0 0020.055-5.949" fill="url(#paint69_radial_669_17304)"/><path d="M223.946 0c26.068 0 49.753 11.925 64.952 32.717l42.778 58.36c7.656 2.866 8.237 7.032 9.354 7.205 19.571.684 34.101 17.51 32.605 38.104a41.53 41.53 0 01-5.197 17.19c18.056 2.182 31.082 18.342 29.66 37.869-1.428 19.677-17.007 35.923-35.574 37.913a37.576 37.576 0 013.031 17.997c-1.534 21.017-19.2 38.103-39.394 38.103a73.492 73.492 0 01-16.359-2.147c-12.99 29.002-41.663 49.586-73.342 49.586H104.828a69.842 69.842 0 01-19.328-2.693l-62.248-45.387C6.93 269.957-1.49 247.987.217 224.536L10.877 77.94C14.003 34.96 50.134 0 91.414 0h132.532z" fill="#228DFD"/><g filter="url(#filter0_d_669_17304)" fill-rule="evenodd" clip-rule="evenodd" fill="#E5EDF6"><path d="M46.075 80.021c1.43-24.659 22.613-44.649 47.313-44.649h140.081c17.301 0 33.269 7.646 43.615 20.883l24.553 33.728c7.103 7.998 11.116 18.784 10.428 30.653l-8.055 138.84c-1.431 24.66-22.613 44.651-47.315 44.651H117.601c-11.46 0-21.662-4.302-29.165-11.376L51.829 263.17c-9.875-8.48-15.151-21.156-14.376-34.537l8.622-148.612zm30.673 192.892c-1.094-4.24-1.554-8.755-1.282-13.437l8.053-138.84c1.43-24.66 22.616-44.65 47.315-44.65H269.93c4.501 0 8.809.664 12.835 1.9L270.171 61.77c-8.823-11.29-22.443-17.812-37.199-17.812H92.89c-19.95 0-37.06 16.146-38.215 36.063l-8.622 148.612c-.626 10.808 3.637 21.046 11.613 27.896l19.082 16.384zm53.589-188.34c-19.951 0-37.06 16.146-38.216 36.063l-8.053 138.84c-1.157 19.918 14.08 36.063 34.031 36.063h139.095c19.949 0 37.06-16.145 38.216-36.063l8.054-138.84c1.156-19.917-14.082-36.063-34.032-36.063H130.337z"/><path d="M146.665 128.289l44.284 49.901 3.995-68.86c-18.028.965-34.81 7.937-48.279 18.959zm56.878-18.959c9.387.505 18.234 2.659 26.283 6.176 2.129.931 4.715-.082 5.774-2.263 1.059-2.18.19-4.703-1.939-5.634-10.286-4.495-21.744-6.98-33.914-6.98-23.495 0-45.378 9.26-62 24.326-17.681 16.025-29.435 38.638-30.888 63.685-1.408 24.266 7.119 46.249 22.043 62.168 14.957 15.959 36.361 25.841 60.634 25.841 12.17 0 23.915-2.485 34.723-6.979 2.238-.931 3.4-3.453 2.594-5.635-.807-2.18-3.274-3.192-5.512-2.262-8.458 3.518-17.555 5.671-26.999 6.175l3.953-68.151 22.275 25.1c1.532 1.724 4.249 1.802 6.07.175 1.822-1.627 2.058-4.344.526-6.068l-23.134-26.071h17.11c2.377 0 4.413-1.923 4.55-4.293.139-2.372-1.676-4.293-4.05-4.293H204.37l27.757-26.597c1.764-1.689 1.901-4.408.305-6.07-1.596-1.663-4.322-1.641-6.086.048l-26.749 25.631 3.946-68.029zm-18.959 75.017l-44.472-50.114c-13.188 13.242-22.139 30.755-24.288 50.114h68.76zm-69.26 8.586c-.091 18.658 6.334 35.601 17.23 48.659l50.788-48.659h-68.018zm74.456 5.392l-51.52 49.362c12.358 11.774 28.871 19.259 47.481 20.261l4.039-69.623z"/><path d="M313.651 130.439c-26.031-12.011-45.412-5.009-59.008.093-11.902 4.47-28.126 5.308-34.69 5.209-2.372-.036-4.153-1.986-3.981-4.358.172-2.37 2.237-4.262 4.609-4.226 6.226.092 21.125-.768 31.443-4.639 14.177-5.321 36.42-13.378 65.612.093 21.826 10.072 36.176 12.362 40.04 12.362 2.377 0 4.189 1.924 4.052 4.294-.137 2.372-2.173 4.293-4.549 4.293-5.585 0-21.179-2.806-43.528-13.121zm-6.555 111.9c-25.945-12.508-45.281-5.224-58.886.099-11.94 4.671-28.193 5.549-34.765 5.445-2.372-.038-4.154-1.99-3.979-4.362.177-2.369 2.242-4.262 4.614-4.224 6.214.099 21.092-.798 31.391-4.828 14.195-5.556 36.52-13.985 65.732.099 21.8 10.51 36.12 12.888 39.949 12.888 2.375 0 4.19 1.921 4.052 4.293-.139 2.37-2.175 4.294-4.549 4.294-5.622 0-21.234-2.941-43.559-13.704zm33.389-56.67c-25.944-12.508-45.281-5.224-58.885.099-11.94 4.671-28.193 5.549-34.763 5.445-2.374-.038-4.156-1.99-3.979-4.359.174-2.372 2.239-4.263 4.611-4.227 6.214.099 21.092-.798 31.392-4.828 14.195-5.556 36.522-13.985 65.732.099 21.799 10.51 36.12 12.888 39.949 12.888 2.374 0 4.189 1.921 4.052 4.294-.139 2.369-2.175 4.293-4.549 4.293-5.622 0-21.232-2.941-43.56-13.704z"/></g><defs><radialGradient id="paint0_radial_669_17304" cx="0" cy="0" r="1" gradientUnits="userSpaceOnUse" gradientTransform="rotate(126.894 210.963 148.668) scale(565.527 612.462)"><stop stop-color="#4297E7"/><stop offset="1" stop-color="#0069CC"/></radialGradient><radialGradient id="paint1_radial_669_17304" cx="0" cy="0" r="1" gradientUnits="userSpaceOnUse" gradientTransform="rotate(126.894 210.963 148.668) scale(565.527 612.462)"><stop stop-color="#4297E7"/><stop offset="1" stop-color="#0069CC"/></radialGradient><radialGradient id="paint2_radial_669_17304" cx="0" cy="0" r="1" gradientUnits="userSpaceOnUse" gradientTransform="rotate(126.894 210.963 148.668) scale(565.527 612.462)"><stop stop-color="#4297E7"/><stop offset="1" stop-color="#0069CC"/></radialGradient><radialGradient id="paint3_radial_669_17304" cx="0" cy="0" r="1" gradientUnits="userSpaceOnUse" gradientTransform="rotate(126.894 210.963 148.668) scale(565.528 612.463)"><stop stop-color="#4297E7"/><stop offset="1" stop-color="#0069CC"/></radialGradient><radialGradient id="paint4_radial_669_17304" cx="0" cy="0" r="1" gradientUnits="userSpaceOnUse" gradientTransform="rotate(126.894 210.964 148.667) scale(565.527 612.462)"><stop stop-color="#4297E7"/><stop offset="1" stop-color="#0069CC"/></radialGradient><radialGradient id="paint5_radial_669_17304" cx="0" cy="0" r="1" gradientUnits="userSpaceOnUse" gradientTransform="rotate(126.894 210.964 148.667) scale(565.528 612.462)"><stop stop-color="#4297E7"/><stop offset="1" stop-color="#0069CC"/></radialGradient><radialGradient id="paint6_radial_669_17304" cx="0" cy="0" r="1" gradientUnits="userSpaceOnUse" gradientTransform="rotate(126.894 210.964 148.667) scale(565.528 612.462)"><stop stop-color="#4297E7"/><stop offset="1" stop-color="#0069CC"/></radialGradient><radialGradient id="paint7_radial_669_17304" cx="0" cy="0" r="1" gradientUnits="userSpaceOnUse" gradientTransform="rotate(126.894 210.964 148.667) scale(565.528 612.462)"><stop stop-color="#4297E7"/><stop offset="1" stop-color="#0069CC"/></radialGradient><radialGradient id="paint8_radial_669_17304" cx="0" cy="0" r="1" gradientUnits="userSpaceOnUse" gradientTransform="rotate(126.894 210.963 148.667) scale(565.527 612.462)"><stop stop-color="#4297E7"/><stop offset="1" stop-color="#0069CC"/></radialGradient><radialGradient id="paint9_radial_669_17304" cx="0" cy="0" r="1" gradientUnits="userSpaceOnUse" gradientTransform="rotate(126.894 210.963 148.667) scale(565.527 612.462)"><stop stop-color="#4297E7"/><stop offset="1" stop-color="#0069CC"/></radialGradient><radialGradient id="paint10_radial_669_17304" cx="0" cy="0" r="1" gradientUnits="userSpaceOnUse" gradientTransform="rotate(126.894 210.964 148.667) scale(565.527 612.462)"><stop stop-color="#4297E7"/><stop offset="1" stop-color="#0069CC"/></radialGradient><radialGradient id="paint11_radial_669_17304" cx="0" cy="0" r="1" gradientUnits="userSpaceOnUse" gradientTransform="rotate(126.894 210.963 148.668) scale(565.527 612.462)"><stop stop-color="#4297E7"/><stop offset="1" stop-color="#0069CC"/></radialGradient><radialGradient id="paint12_radial_669_17304" cx="0" cy="0" r="1" gradientUnits="userSpaceOnUse" gradientTransform="rotate(126.894 210.963 148.668) scale(565.527 612.462)"><stop stop-color="#4297E7"/><stop offset="1" stop-color="#0069CC"/></radialGradient><radialGradient id="paint13_radial_669_17304" cx="0" cy="0" r="1" gradientUnits="userSpaceOnUse" gradientTransform="rotate(126.894 210.963 148.668) scale(565.527 612.462)"><stop stop-color="#4297E7"/><stop offset="1" stop-color="#0069CC"/></radialGradient><radialGradient id="paint14_radial_669_17304" cx="0" cy="0" r="1" gradientUnits="userSpaceOnUse" gradientTransform="rotate(126.894 210.963 148.667) scale(565.528 612.462)"><stop stop-color="#4297E7"/><stop offset="1" stop-color="#0069CC"/></radialGradient><radialGradient id="paint15_radial_669_17304" cx="0" cy="0" r="1" gradientUnits="userSpaceOnUse" gradientTransform="rotate(126.894 210.963 148.668) scale(565.527 612.462)"><stop stop-color="#4297E7"/><stop offset="1" stop-color="#0069CC"/></radialGradient><radialGradient id="paint16_radial_669_17304" cx="0" cy="0" r="1" gradientUnits="userSpaceOnUse" gradientTransform="rotate(126.894 210.963 148.667) scale(565.527 612.462)"><stop stop-color="#4297E7"/><stop offset="1" stop-color="#0069CC"/></radialGradient><radialGradient id="paint17_radial_669_17304" cx="0" cy="0" r="1" gradientUnits="userSpaceOnUse" gradientTransform="rotate(126.894 210.963 148.667) scale(565.527 612.462)"><stop stop-color="#4297E7"/><stop offset="1" stop-color="#0069CC"/></radialGradient><radialGradient id="paint18_radial_669_17304" cx="0" cy="0" r="1" gradientUnits="userSpaceOnUse" gradientTransform="rotate(126.894 210.964 148.667) scale(565.527 612.462)"><stop stop-color="#4297E7"/><stop offset="1" stop-color="#0069CC"/></radialGradient><radialGradient id="paint19_radial_669_17304" cx="0" cy="0" r="1" gradientUnits="userSpaceOnUse" gradientTransform="rotate(126.894 210.964 148.667) scale(565.527 612.462)"><stop stop-color="#4297E7"/><stop offset="1" stop-color="#0069CC"/></radialGradient><radialGradient id="paint20_radial_669_17304" cx="0" cy="0" r="1" gradientUnits="userSpaceOnUse" gradientTransform="rotate(126.894 210.963 148.668) scale(565.528 612.462)"><stop stop-color="#4297E7"/><stop offset="1" stop-color="#0069CC"/></radialGradient><radialGradient id="paint21_radial_669_17304" cx="0" cy="0" r="1" gradientUnits="userSpaceOnUse" gradientTransform="rotate(126.894 210.963 148.668) scale(565.527 612.462)"><stop stop-color="#4297E7"/><stop offset="1" stop-color="#0069CC"/></radialGradient><radialGradient id="paint22_radial_669_17304" cx="0" cy="0" r="1" gradientUnits="userSpaceOnUse" gradientTransform="rotate(126.894 210.963 148.668) scale(565.528 612.463)"><stop stop-color="#4297E7"/><stop offset="1" stop-color="#0069CC"/></radialGradient><radialGradient id="paint23_radial_669_17304" cx="0" cy="0" r="1" gradientUnits="userSpaceOnUse" gradientTransform="rotate(126.894 210.963 148.668) scale(565.527 612.462)"><stop stop-color="#4297E7"/><stop offset="1" stop-color="#0069CC"/></radialGradient><radialGradient id="paint24_radial_669_17304" cx="0" cy="0" r="1" gradientUnits="userSpaceOnUse" gradientTransform="rotate(126.894 210.963 148.667) scale(565.527 612.462)"><stop stop-color="#4297E7"/><stop offset="1" stop-color="#0069CC"/></radialGradient><radialGradient id="paint25_radial_669_17304" cx="0" cy="0" r="1" gradientUnits="userSpaceOnUse" gradientTransform="rotate(126.894 210.964 148.667) scale(565.528 612.463)"><stop stop-color="#4297E7"/><stop offset="1" stop-color="#0069CC"/></radialGradient><radialGradient id="paint26_radial_669_17304" cx="0" cy="0" r="1" gradientUnits="userSpaceOnUse" gradientTransform="rotate(126.894 210.963 148.668) scale(565.527 612.462)"><stop stop-color="#4297E7"/><stop offset="1" stop-color="#0069CC"/></radialGradient><radialGradient id="paint27_radial_669_17304" cx="0" cy="0" r="1" gradientUnits="userSpaceOnUse" gradientTransform="rotate(126.894 210.963 148.668) scale(565.527 612.462)"><stop stop-color="#4297E7"/><stop offset="1" stop-color="#0069CC"/></radialGradient><radialGradient id="paint28_radial_669_17304" cx="0" cy="0" r="1" gradientUnits="userSpaceOnUse" gradientTransform="rotate(126.894 210.964 148.667) scale(565.527 612.462)"><stop stop-color="#4297E7"/><stop offset="1" stop-color="#0069CC"/></radialGradient><radialGradient id="paint29_radial_669_17304" cx="0" cy="0" r="1" gradientUnits="userSpaceOnUse" gradientTransform="rotate(126.894 210.963 148.667) scale(565.527 612.462)"><stop stop-color="#4297E7"/><stop offset="1" stop-color="#0069CC"/></radialGradient><radialGradient id="paint30_radial_669_17304" cx="0" cy="0" r="1" gradientUnits="userSpaceOnUse" gradientTransform="rotate(126.894 210.963 148.668) scale(565.527 612.462)"><stop stop-color="#4297E7"/><stop offset="1" stop-color="#0069CC"/></radialGradient><radialGradient id="paint31_radial_669_17304" cx="0" cy="0" r="1" gradientUnits="userSpaceOnUse" gradientTransform="rotate(126.894 210.964 148.667) scale(565.527 612.462)"><stop stop-color="#4297E7"/><stop offset="1" stop-color="#0069CC"/></radialGradient><radialGradient id="paint32_radial_669_17304" cx="0" cy="0" r="1" gradientUnits="userSpaceOnUse" gradientTransform="rotate(126.894 210.963 148.667) scale(565.527 612.462)"><stop stop-color="#4297E7"/><stop offset="1" stop-color="#0069CC"/></radialGradient><radialGradient id="paint33_radial_669_17304" cx="0" cy="0" r="1" gradientUnits="userSpaceOnUse" gradientTransform="rotate(126.894 210.963 148.668) scale(565.527 612.462)"><stop stop-color="#4297E7"/><stop offset="1" stop-color="#0069CC"/></radialGradient><radialGradient id="paint34_radial_669_17304" cx="0" cy="0" r="1" gradientUnits="userSpaceOnUse" gradientTransform="rotate(126.894 210.963 148.668) scale(565.527 612.462)"><stop stop-color="#4297E7"/><stop offset="1" stop-color="#0069CC"/></radialGradient><radialGradient id="paint35_radial_669_17304" cx="0" cy="0" r="1" gradientUnits="userSpaceOnUse" gradientTransform="rotate(126.894 210.963 148.668) scale(565.527 612.462)"><stop stop-color="#4297E7"/><stop offset="1" stop-color="#0069CC"/></radialGradient><radialGradient id="paint36_radial_669_17304" cx="0" cy="0" r="1" gradientUnits="userSpaceOnUse" gradientTransform="rotate(126.894 210.963 148.667) scale(565.527 612.462)"><stop stop-color="#4297E7"/><stop offset="1" stop-color="#0069CC"/></radialGradient><radialGradient id="paint37_radial_669_17304" cx="0" cy="0" r="1" gradientUnits="userSpaceOnUse" gradientTransform="rotate(126.894 210.963 148.668) scale(565.527 612.462)"><stop stop-color="#4297E7"/><stop offset="1" stop-color="#0069CC"/></radialGradient><radialGradient id="paint38_radial_669_17304" cx="0" cy="0" r="1" gradientUnits="userSpaceOnUse" gradientTransform="rotate(126.894 210.964 148.667) scale(565.527 612.462)"><stop stop-color="#4297E7"/><stop offset="1" stop-color="#0069CC"/></radialGradient><radialGradient id="paint39_radial_669_17304" cx="0" cy="0" r="1" gradientUnits="userSpaceOnUse" gradientTransform="rotate(126.894 210.963 148.668) scale(565.527 612.462)"><stop stop-color="#4297E7"/><stop offset="1" stop-color="#0069CC"/></radialGradient><radialGradient id="paint40_radial_669_17304" cx="0" cy="0" r="1" gradientUnits="userSpaceOnUse" gradientTransform="rotate(126.894 210.964 148.667) scale(565.527 612.462)"><stop stop-color="#4297E7"/><stop offset="1" stop-color="#0069CC"/></radialGradient><radialGradient id="paint41_radial_669_17304" cx="0" cy="0" r="1" gradientUnits="userSpaceOnUse" gradientTransform="rotate(126.894 210.963 148.667) scale(565.527 612.462)"><stop stop-color="#4297E7"/><stop offset="1" stop-color="#0069CC"/></radialGradient><radialGradient id="paint42_radial_669_17304" cx="0" cy="0" r="1" gradientUnits="userSpaceOnUse" gradientTransform="rotate(126.894 210.964 148.667) scale(565.527 612.462)"><stop stop-color="#4297E7"/><stop offset="1" stop-color="#0069CC"/></radialGradient><radialGradient id="paint43_radial_669_17304" cx="0" cy="0" r="1" gradientUnits="userSpaceOnUse" gradientTransform="rotate(126.894 210.963 148.668) scale(565.527 612.462)"><stop stop-color="#4297E7"/><stop offset="1" stop-color="#0069CC"/></radialGradient><radialGradient id="paint44_radial_669_17304" cx="0" cy="0" r="1" gradientUnits="userSpaceOnUse" gradientTransform="rotate(126.894 210.964 148.667) scale(565.528 612.462)"><stop stop-color="#4297E7"/><stop offset="1" stop-color="#0069CC"/></radialGradient><radialGradient id="paint45_radial_669_17304" cx="0" cy="0" r="1" gradientUnits="userSpaceOnUse" gradientTransform="rotate(126.894 210.964 148.667) scale(565.527 612.462)"><stop stop-color="#4297E7"/><stop offset="1" stop-color="#0069CC"/></radialGradient><radialGradient id="paint46_radial_669_17304" cx="0" cy="0" r="1" gradientUnits="userSpaceOnUse" gradientTransform="rotate(126.894 210.964 148.667) scale(565.527 612.462)"><stop stop-color="#4297E7"/><stop offset="1" stop-color="#0069CC"/></radialGradient><radialGradient id="paint47_radial_669_17304" cx="0" cy="0" r="1" gradientUnits="userSpaceOnUse" gradientTransform="rotate(126.894 210.964 148.667) scale(565.527 612.462)"><stop stop-color="#4297E7"/><stop offset="1" stop-color="#0069CC"/></radialGradient><radialGradient id="paint48_radial_669_17304" cx="0" cy="0" r="1" gradientUnits="userSpaceOnUse" gradientTransform="rotate(126.894 210.963 148.667) scale(565.527 612.462)"><stop stop-color="#4297E7"/><stop offset="1" stop-color="#0069CC"/></radialGradient><radialGradient id="paint49_radial_669_17304" cx="0" cy="0" r="1" gradientUnits="userSpaceOnUse" gradientTransform="rotate(126.894 210.963 148.668) scale(565.527 612.462)"><stop stop-color="#4297E7"/><stop offset="1" stop-color="#0069CC"/></radialGradient><radialGradient id="paint50_radial_669_17304" cx="0" cy="0" r="1" gradientUnits="userSpaceOnUse" gradientTransform="rotate(126.894 210.964 148.667) scale(565.527 612.462)"><stop stop-color="#4297E7"/><stop offset="1" stop-color="#0069CC"/></radialGradient><radialGradient id="paint51_radial_669_17304" cx="0" cy="0" r="1" gradientUnits="userSpaceOnUse" gradientTransform="rotate(126.894 210.964 148.667) scale(565.527 612.462)"><stop stop-color="#4297E7"/><stop offset="1" stop-color="#0069CC"/></radialGradient><radialGradient id="paint52_radial_669_17304" cx="0" cy="0" r="1" gradientUnits="userSpaceOnUse" gradientTransform="rotate(126.894 210.963 148.668) scale(565.527 612.462)"><stop stop-color="#4297E7"/><stop offset="1" stop-color="#0069CC"/></radialGradient><radialGradient id="paint53_radial_669_17304" cx="0" cy="0" r="1" gradientUnits="userSpaceOnUse" gradientTransform="rotate(126.894 210.963 148.667) scale(565.527 612.462)"><stop stop-color="#4297E7"/><stop offset="1" stop-color="#0069CC"/></radialGradient><radialGradient id="paint54_radial_669_17304" cx="0" cy="0" r="1" gradientUnits="userSpaceOnUse" gradientTransform="rotate(126.894 210.963 148.668) scale(565.528 612.462)"><stop stop-color="#4297E7"/><stop offset="1" stop-color="#0069CC"/></radialGradient><radialGradient id="paint55_radial_669_17304" cx="0" cy="0" r="1" gradientUnits="userSpaceOnUse" gradientTransform="rotate(126.894 210.963 148.668) scale(565.527 612.462)"><stop stop-color="#4297E7"/><stop offset="1" stop-color="#0069CC"/></radialGradient><radialGradient id="paint56_radial_669_17304" cx="0" cy="0" r="1" gradientUnits="userSpaceOnUse" gradientTransform="rotate(126.894 210.964 148.667) scale(565.527 612.462)"><stop stop-color="#4297E7"/><stop offset="1" stop-color="#0069CC"/></radialGradient><radialGradient id="paint57_radial_669_17304" cx="0" cy="0" r="1" gradientUnits="userSpaceOnUse" gradientTransform="rotate(126.894 210.963 148.667) scale(565.527 612.462)"><stop stop-color="#4297E7"/><stop offset="1" stop-color="#0069CC"/></radialGradient><radialGradient id="paint58_radial_669_17304" cx="0" cy="0" r="1" gradientUnits="userSpaceOnUse" gradientTransform="rotate(126.894 210.963 148.667) scale(565.527 612.462)"><stop stop-color="#4297E7"/><stop offset="1" stop-color="#0069CC"/></radialGradient><radialGradient id="paint59_radial_669_17304" cx="0" cy="0" r="1" gradientUnits="userSpaceOnUse" gradientTransform="rotate(126.894 210.963 148.668) scale(565.527 612.462)"><stop stop-color="#4297E7"/><stop offset="1" stop-color="#0069CC"/></radialGradient><radialGradient id="paint60_radial_669_17304" cx="0" cy="0" r="1" gradientUnits="userSpaceOnUse" gradientTransform="rotate(126.894 210.963 148.668) scale(565.527 612.462)"><stop stop-color="#4297E7"/><stop offset="1" stop-color="#0069CC"/></radialGradient><radialGradient id="paint61_radial_669_17304" cx="0" cy="0" r="1" gradientUnits="userSpaceOnUse" gradientTransform="rotate(126.894 210.963 148.668) scale(565.528 612.463)"><stop stop-color="#4297E7"/><stop offset="1" stop-color="#0069CC"/></radialGradient><radialGradient id="paint62_radial_669_17304" cx="0" cy="0" r="1" gradientUnits="userSpaceOnUse" gradientTransform="rotate(126.894 210.963 148.668) scale(565.527 612.462)"><stop stop-color="#4297E7"/><stop offset="1" stop-color="#0069CC"/></radialGradient><radialGradient id="paint63_radial_669_17304" cx="0" cy="0" r="1" gradientUnits="userSpaceOnUse" gradientTransform="rotate(126.894 210.964 148.667) scale(565.527 612.462)"><stop stop-color="#4297E7"/><stop offset="1" stop-color="#0069CC"/></radialGradient><radialGradient id="paint64_radial_669_17304" cx="0" cy="0" r="1" gradientUnits="userSpaceOnUse" gradientTransform="rotate(126.894 210.963 148.668) scale(565.527 612.462)"><stop stop-color="#4297E7"/><stop offset="1" stop-color="#0069CC"/></radialGradient><radialGradient id="paint65_radial_669_17304" cx="0" cy="0" r="1" gradientUnits="userSpaceOnUse" gradientTransform="rotate(126.894 210.963 148.667) scale(565.528 612.462)"><stop stop-color="#4297E7"/><stop offset="1" stop-color="#0069CC"/></radialGradient><radialGradient id="paint66_radial_669_17304" cx="0" cy="0" r="1" gradientUnits="userSpaceOnUse" gradientTransform="rotate(126.894 210.963 148.668) scale(565.527 612.462)"><stop stop-color="#4297E7"/><stop offset="1" stop-color="#0069CC"/></radialGradient><radialGradient id="paint67_radial_669_17304" cx="0" cy="0" r="1" gradientUnits="userSpaceOnUse" gradientTransform="rotate(126.894 210.963 148.668) scale(565.527 612.462)"><stop stop-color="#4297E7"/><stop offset="1" stop-color="#0069CC"/></radialGradient><radialGradient id="paint68_radial_669_17304" cx="0" cy="0" r="1" gradientUnits="userSpaceOnUse" gradientTransform="rotate(126.894 210.963 148.668) scale(565.527 612.462)"><stop stop-color="#4297E7"/><stop offset="1" stop-color="#0069CC"/></radialGradient><radialGradient id="paint69_radial_669_17304" cx="0" cy="0" r="1" gradientUnits="userSpaceOnUse" gradientTransform="rotate(126.894 210.963 148.668) scale(565.527 612.462)"><stop stop-color="#4297E7"/><stop offset="1" stop-color="#0069CC"/></radialGradient><filter id="filter0_d_669_17304" x="35.822" y="35.372" width="354.335" height="273.035" filterUnits="userSpaceOnUse" color-interpolation-filters="sRGB"><feFlood flood-opacity="0" result="BackgroundImageFix"/><feColorMatrix in="SourceAlpha" values="0 0 0 0 0 0 0 0 0 0 0 0 0 0 0 0 0 0 127 0" result="hardAlpha"/><feOffset dy="2.723"/><feGaussianBlur stdDeviation=".778"/><feComposite in2="hardAlpha" operator="out"/><feColorMatrix values="0 0 0 0 0.065625 0 0 0 0 0.419165 0 0 0 0 0.75 0 0 0 1 0"/><feBlend in2="BackgroundImageFix" result="effect1_dropShadow_669_17304"/><feBlend in="SourceGraphic" in2="effect1_dropShadow_669_17304" result="shape"/></filter></defs></svg>