<svg width="358" height="358" viewBox="0 0 358 358" fill="none" xmlns="http://www.w3.org/2000/svg">
<path d="M267.191 4.49414L298.466 23.9681C300.034 24.9483 301.509 26.0693 302.875 27.3175L271.6 7.8436C270.236 6.59363 268.759 5.47248 267.191 4.49414Z" fill="#8E9399"/>
<path d="M267.191 4.49414L298.466 23.9681C300.034 24.9483 301.509 26.0693 302.875 27.3175L271.6 7.8436C270.236 6.59363 268.759 5.47248 267.191 4.49414Z" fill="url(#paint0_radial_669_17522)"/>
<path d="M267.191 4.49387L298.467 23.9678C299.245 24.4429 299.976 24.9569 300.692 25.5255L269.396 6.02816C268.671 5.48297 267.923 4.96874 267.159 4.47021" fill="#8E9399"/>
<path d="M267.191 4.49387L298.467 23.9678C299.245 24.4429 299.976 24.9569 300.692 25.5255L269.396 6.02816C268.671 5.48297 267.923 4.96874 267.159 4.47021" fill="url(#paint1_radial_669_17522)"/>
<path d="M269.395 6.02867L300.685 25.4635C301.464 26.0321 302.165 26.6399 302.866 27.2784L271.591 7.8047C270.89 7.16595 270.165 6.55838 269.417 5.98975" fill="#8E9399"/>
<path d="M269.395 6.02867L300.685 25.4635C301.464 26.0321 302.165 26.6399 302.866 27.2784L271.591 7.8047C270.89 7.16595 270.165 6.55838 269.417 5.98975" fill="url(#paint2_radial_669_17522)"/>
<path d="M83.1085 351.145L51.8398 331.67C58.8682 336.023 66.9806 338.307 75.2478 338.26L106.523 357.696C98.2578 357.754 90.1434 355.483 83.1085 351.145Z" fill="#8E9399"/>
<path d="M83.1085 351.145L51.8398 331.67C58.8682 336.023 66.9806 338.307 75.2478 338.26L106.523 357.696C98.2578 357.754 90.1434 355.483 83.1085 351.145Z" fill="url(#paint3_radial_669_17522)"/>
<path d="M75.2478 338.299L106.523 357.734C98.2535 357.782 90.1391 355.498 83.1085 351.145L51.8398 331.67C58.8682 336.023 66.9806 338.307 75.2478 338.26" fill="#8E9399"/>
<path d="M75.2478 338.299L106.523 357.734C98.2535 357.782 90.1391 355.498 83.1085 351.145L51.8398 331.67C58.8682 336.023 66.9806 338.307 75.2478 338.26" fill="url(#paint4_radial_669_17522)"/>
<path d="M271.568 7.84326L302.843 27.2783L349.48 77.0068L318.205 57.5718L271.568 7.84326Z" fill="#8E9399"/>
<path d="M271.568 7.84326L302.843 27.2783L349.48 77.0068L318.205 57.5718L271.568 7.84326Z" fill="url(#paint5_radial_669_17522)"/>
<path d="M318.205 57.5723L349.48 77.0462C352.519 80.3195 354.825 84.2051 356.24 88.4422C357.644 92.6622 358.212 97.1148 357.915 101.552L326.64 82.1171C326.943 77.6798 326.373 73.2262 324.965 69.0072C323.56 64.7538 321.255 60.8538 318.205 57.5723Z" fill="#8E9399"/>
<path d="M318.205 57.5723L349.48 77.0462C352.519 80.3195 354.825 84.2051 356.24 88.4422C357.644 92.6622 358.212 97.1148 357.915 101.552L326.64 82.1171C326.943 77.6798 326.373 73.2262 324.965 69.0072C323.56 64.7538 321.255 60.8538 318.205 57.5723Z" fill="url(#paint6_radial_669_17522)"/>
<path d="M318.205 57.5723L349.48 77.0462L350.001 77.6226L318.726 58.1486L318.205 57.5723Z" fill="#8E9399"/>
<path d="M318.205 57.5723L349.48 77.0462L350.001 77.6226L318.726 58.1486L318.205 57.5723Z" fill="url(#paint7_radial_669_17522)"/>
<path d="M318.726 58.1479L350.001 77.5827C350.773 78.4497 351.494 79.3598 352.16 80.3091L320.885 60.8741C320.221 59.9231 319.5 59.013 318.726 58.1479Z" fill="#8E9399"/>
<path d="M318.726 58.1479L350.001 77.5827C350.773 78.4497 351.494 79.3598 352.16 80.3091L320.885 60.8741C320.221 59.9231 319.5 59.013 318.726 58.1479Z" fill="url(#paint8_radial_669_17522)"/>
<path d="M320.885 60.874L352.16 80.309C353.008 81.5246 353.769 82.8004 354.434 84.126L323.159 64.6521C322.492 63.34 321.733 62.0773 320.885 60.874Z" fill="#8E9399"/>
<path d="M320.885 60.874L352.16 80.309C353.008 81.5246 353.769 82.8004 354.434 84.126L323.159 64.6521C322.492 63.34 321.733 62.0773 320.885 60.874Z" fill="url(#paint9_radial_669_17522)"/>
<path d="M323.158 64.6523L354.433 84.1263C355.14 85.5193 355.747 86.9613 356.248 88.4416C357.652 92.6614 358.22 97.1142 357.923 101.551L326.648 82.1165C326.949 77.679 326.382 73.2254 324.973 69.0066C324.472 67.5142 323.865 66.0595 323.158 64.6523Z" fill="#8E9399"/>
<path d="M323.158 64.6523L354.433 84.1263C355.14 85.5193 355.747 86.9613 356.248 88.4416C357.652 92.6614 358.22 97.1142 357.923 101.551L326.648 82.1165C326.949 77.679 326.382 73.2254 324.973 69.0066C324.472 67.5142 323.865 66.0595 323.158 64.6523Z" fill="url(#paint10_radial_669_17522)"/>
<path d="M259.704 338.298L290.979 357.734H106.522L75.2471 338.298H259.704Z" fill="#8E9399"/>
<path d="M259.704 338.298L290.979 357.734H106.522L75.2471 338.298H259.704Z" fill="url(#paint11_radial_669_17522)"/>
<path d="M326.64 82.0776L357.915 101.513L342.945 307.445L311.669 288.009L326.64 82.0776Z" fill="#8E9399"/>
<path d="M326.64 82.0776L357.915 101.513L342.945 307.445L311.669 288.009L326.64 82.0776Z" fill="url(#paint12_radial_669_17522)"/>
<path d="M311.669 288.01L342.944 307.445C340.926 335.176 317.611 357.735 290.979 357.735L259.704 338.299C286.336 338.299 309.651 315.741 311.669 288.01Z" fill="#8E9399"/>
<path d="M311.669 288.01L342.944 307.445C340.926 335.176 317.611 357.735 290.979 357.735L259.704 338.299C286.336 338.299 309.651 315.741 311.669 288.01Z" fill="url(#paint13_radial_669_17522)"/>
<path d="M311.67 288.01L342.945 307.445C342.783 309.656 342.487 311.854 342.056 314.029L310.812 294.593C311.242 292.419 311.538 290.221 311.7 288.01" fill="#8E9399"/>
<path d="M311.67 288.01L342.945 307.445C342.783 309.656 342.487 311.854 342.056 314.029L310.812 294.593C311.242 292.419 311.538 290.221 311.7 288.01" fill="url(#paint14_radial_669_17522)"/>
<path d="M310.811 294.593L342.086 314.029C341.729 315.82 341.307 317.588 340.754 319.317L309.449 299.897C309.978 298.168 310.421 296.4 310.78 294.608" fill="#8E9399"/>
<path d="M310.811 294.593L342.086 314.029C341.729 315.82 341.307 317.588 340.754 319.317L309.449 299.897C309.978 298.168 310.421 296.4 310.78 294.608" fill="url(#paint15_radial_669_17522)"/>
<path d="M309.45 299.897L340.725 319.333C340.256 320.892 339.718 322.354 339.165 323.827L307.852 304.377C308.452 302.912 308.981 301.409 309.45 299.882" fill="#8E9399"/>
<path d="M309.45 299.897L340.725 319.333C340.256 320.892 339.718 322.354 339.165 323.827L307.852 304.377C308.452 302.912 308.981 301.409 309.45 299.882" fill="url(#paint16_radial_669_17522)"/>
<path d="M307.852 304.376L339.127 323.812C338.565 325.197 337.95 326.559 337.281 327.894L306.013 308.467C306.677 307.131 307.29 305.77 307.852 304.385" fill="#8E9399"/>
<path d="M307.852 304.376L339.127 323.812C338.565 325.197 337.95 326.559 337.281 327.894L306.013 308.467C306.677 307.131 307.29 305.77 307.852 304.385" fill="url(#paint17_radial_669_17522)"/>
<path d="M306.013 308.467L337.297 327.894C336.643 329.193 335.942 330.47 335.194 331.709L303.918 312.275C304.697 311.037 305.375 309.759 306.03 308.458" fill="#8E9399"/>
<path d="M306.013 308.467L337.297 327.894C336.643 329.193 335.942 330.47 335.194 331.709L303.918 312.275C304.697 311.037 305.375 309.759 306.03 308.458" fill="url(#paint18_radial_669_17522)"/>
<path d="M303.903 312.275L335.178 331.708C334.415 332.967 333.613 334.184 332.772 335.362L301.464 315.927C302.312 314.744 303.114 313.527 303.871 312.275" fill="#8E9399"/>
<path d="M303.903 312.275L335.178 331.708C334.415 332.967 333.613 334.184 332.772 335.362L301.464 315.927C302.312 314.744 303.114 313.527 303.871 312.275" fill="url(#paint19_radial_669_17522)"/>
<path d="M301.464 315.927L332.739 335.363C331.859 336.587 330.932 337.778 329.966 338.922L298.691 319.448C299.664 318.304 300.584 317.112 301.464 315.889" fill="#8E9399"/>
<path d="M301.464 315.927L332.739 335.363C331.859 336.587 330.932 337.778 329.966 338.922L298.691 319.448C299.664 318.304 300.584 317.112 301.464 315.889" fill="url(#paint20_radial_669_17522)"/>
<path d="M298.723 319.489L329.998 338.961C328.959 340.187 327.878 341.361 326.751 342.482L295.476 323.048C296.607 321.925 297.691 320.753 298.723 319.527" fill="#8E9399"/>
<path d="M298.723 319.489L329.998 338.961C328.959 340.187 327.878 341.361 326.751 342.482L295.476 323.048C296.607 321.925 297.691 320.753 298.723 319.527" fill="url(#paint21_radial_669_17522)"/>
<path d="M295.475 323.009L326.75 342.443C325.479 343.705 324.147 344.905 322.769 346.043L291.494 326.607C292.881 325.47 294.208 324.27 295.475 323.009Z" fill="#8E9399"/>
<path d="M295.475 323.009L326.75 342.443C325.479 343.705 324.147 344.905 322.769 346.043L291.494 326.607C292.881 325.47 294.208 324.27 295.475 323.009Z" fill="url(#paint22_radial_669_17522)"/>
<path d="M291.494 326.607L322.769 346.043C321.07 347.432 319.29 348.719 317.433 349.891L286.167 330.455C288.019 329.281 289.797 327.997 291.494 326.607Z" fill="#8E9399"/>
<path d="M291.494 326.607L322.769 346.043C321.07 347.432 319.29 348.719 317.433 349.891L286.167 330.455C288.019 329.281 289.797 327.997 291.494 326.607Z" fill="url(#paint23_radial_669_17522)"/>
<path d="M286.166 330.456L317.432 349.891C309.529 354.971 300.343 357.692 290.949 357.735L259.704 338.299C269.098 338.254 278.284 335.533 286.19 330.456" fill="#8E9399"/>
<path d="M286.166 330.456L317.432 349.891C309.529 354.971 300.343 357.692 290.949 357.735L259.704 338.299C269.098 338.254 278.284 335.533 286.19 330.456" fill="url(#paint24_radial_669_17522)"/>
<path d="M249.274 0H254.143L255.7 0.327117C258.248 0.696388 260.737 1.3902 263.109 2.39134C266.223 3.71013 269.086 5.55476 271.576 7.84394L318.211 57.5725C321.257 60.8426 323.562 64.7291 324.973 68.9687C326.382 73.1875 326.949 77.6411 326.648 82.0786L311.669 288.01C309.652 315.743 286.336 338.301 259.704 338.301H75.2474C48.607 338.301 28.5735 315.711 30.5908 288.01L33.705 245.386C34.262 237.936 37.0364 230.821 41.6754 224.963C35.2148 218.722 29.6811 211.586 25.2464 203.774C16.435 188.087 11.9143 170.355 12.1359 152.363C10.6713 151.19 9.31415 149.888 8.08612 148.469C2.06423 141.521 -0.770349 132.345 0.18025 122.647C1.75454 106.641 6.8366 91.18 15.0651 77.3623C23.2936 63.5449 34.4663 51.7108 47.7897 42.7023C48.25 42.3829 48.7167 42.087 49.192 41.7753C54.8009 18.0794 75.9958 0 99.8404 0H249.274Z" fill="#228DFD"/>
<g filter="url(#filter0_d_669_17522)">
<path fill-rule="evenodd" clip-rule="evenodd" d="M78.5425 57.3656C79.1726 46.683 88.3561 37.8765 99.0557 37.6958L254.601 35.0698L303.312 83.2983L291.384 285.655C290.756 296.337 281.57 305.144 270.871 305.325L83.0976 308.495C72.398 308.676 64.2341 300.161 64.8642 289.479L67.316 247.861C67.4364 245.807 69.2043 244.112 71.2603 244.078C73.3185 244.044 74.8885 245.68 74.7681 247.734L72.3142 289.352C71.927 295.926 76.951 301.165 83.5364 301.056L271.31 297.886C277.895 297.774 283.547 292.354 283.934 285.78L295.546 88.7373L265.552 89.2438C254.853 89.4243 246.689 80.9108 247.319 70.228L248.947 42.5974L98.6169 45.1354C92.0337 45.2466 86.3817 50.6659 85.9946 57.2398L85.2505 69.8522C85.1301 71.9066 83.3643 73.6002 81.3061 73.6349C79.2479 73.6697 77.6779 72.0324 77.8005 69.9781L78.5425 57.3656ZM256.104 47.4353L290.401 81.3921L265.991 81.8042C259.406 81.9154 254.382 76.6761 254.769 70.1022L256.104 47.4353Z" fill="#E5EDF6"/>
<path fill-rule="evenodd" clip-rule="evenodd" d="M200.876 116.244C200.998 114.189 202.764 112.496 204.822 112.461L273.373 111.304C275.431 111.269 277.001 112.906 276.88 114.961C276.76 117.015 274.992 118.709 272.936 118.743L204.383 119.901C202.325 119.935 200.755 118.298 200.876 116.244Z" fill="#E5EDF6"/>
<path fill-rule="evenodd" clip-rule="evenodd" d="M199.342 142.282C199.463 140.228 201.228 138.534 203.287 138.5L271.839 137.342C273.897 137.308 275.467 138.945 275.345 140.999C275.224 143.054 273.459 144.747 271.401 144.782L202.848 145.939C200.79 145.974 199.22 144.337 199.342 142.282Z" fill="#E5EDF6"/>
<path fill-rule="evenodd" clip-rule="evenodd" d="M197.851 167.576C197.971 165.522 199.737 163.827 201.795 163.793L232.346 163.277C234.404 163.242 235.974 164.879 235.851 166.935C235.731 168.989 233.965 170.682 231.907 170.718L201.357 171.232C199.298 171.269 197.728 169.63 197.851 167.576Z" fill="#E5EDF6"/>
<path fill-rule="evenodd" clip-rule="evenodd" d="M51.3631 154.07C51.3352 165.774 54.458 177.061 60.4347 186.743C67.0416 197.449 76.8444 205.714 88.5999 210.493C100.356 215.274 113.539 216.354 126.48 213.596C139.422 210.839 151.542 204.372 161.308 195.008C171.072 185.644 178.044 173.807 181.341 160.991C184.638 148.177 184.114 134.961 179.832 123.015C177.386 116.194 173.78 109.962 169.194 104.558L118.744 152.932L51.3631 154.07ZM164.237 99.3859C162.071 97.388 159.751 95.5459 157.284 93.8768C147.86 87.4985 136.715 83.9065 125.019 83.4417L121.675 140.196L164.237 99.3859ZM113.913 145.582L49.4598 146.67C46.5994 146.719 44.0594 149.088 43.9498 152.046C43.4271 165.987 46.9048 179.497 53.9956 190.982C61.3487 202.897 72.2591 212.095 85.3438 217.414C98.4285 222.735 113.1 223.937 127.503 220.868C141.909 217.801 155.398 210.601 166.265 200.178C177.135 189.758 184.894 176.583 188.563 162.32C192.234 148.057 191.65 133.348 186.881 120.052C183.703 111.18 178.756 103.204 172.373 96.5466C169.19 93.2258 165.648 90.2331 161.787 87.6213C150.61 80.0561 137.259 76.0126 123.308 75.9502C120.348 75.9369 117.875 78.3754 117.707 81.2304L113.913 145.582Z" fill="#E5EDF6"/>
<path fill-rule="evenodd" clip-rule="evenodd" d="M97.1204 70.5497C86.7585 71.3859 76.5622 74.9577 67.5766 80.9383C57.5115 87.6362 49.412 97.0561 44.3106 108.012C41.4481 114.155 39.6028 120.626 38.8135 127.156L93.8385 126.227L97.1204 70.5497ZM99.7099 62.9737C102.689 62.852 104.878 65.2203 104.71 68.0728L101.159 128.333C100.99 131.209 98.5162 133.58 95.6365 133.629L36.0263 134.635C33.168 134.683 30.8969 132.396 31.1399 129.429C31.8152 121.212 33.9831 113.033 37.579 105.31C43.3149 92.9954 52.4251 82.3924 63.7656 74.8457C74.6502 67.602 87.1198 63.4884 99.7099 62.9737Z" fill="#E5EDF6"/>
<path fill-rule="evenodd" clip-rule="evenodd" d="M118.01 265.542C114.1 265.609 110.745 268.826 110.515 272.729C110.285 276.633 113.268 279.743 117.177 279.676C121.087 279.612 124.442 276.394 124.673 272.491C124.903 268.587 121.92 265.475 118.01 265.542ZM103.063 272.854C103.536 264.843 110.424 258.238 118.449 258.103C126.473 257.967 132.596 264.353 132.123 272.364C131.652 280.377 124.763 286.982 116.739 287.117C108.715 287.253 102.592 280.868 103.063 272.854Z" fill="#E5EDF6"/>
<path fill-rule="evenodd" clip-rule="evenodd" d="M161.361 224.677C158.109 224.73 154.855 227.692 154.61 231.851C154.365 236.008 157.274 238.867 160.526 238.811C163.778 238.757 167.032 235.795 167.277 231.636C167.522 227.479 164.612 224.621 161.361 224.677ZM147.158 231.976C147.616 224.218 153.939 217.369 161.797 217.237C169.658 217.104 175.185 223.754 174.729 231.511C174.271 239.269 167.948 246.119 160.087 246.25C152.229 246.383 146.702 239.733 147.158 231.976Z" fill="#E5EDF6"/>
<path fill-rule="evenodd" clip-rule="evenodd" d="M256.87 212.659C253.132 212.721 249.874 215.829 249.65 219.657C249.564 221.1 249.921 222.421 250.599 223.507C251.728 225.32 253.728 226.466 256.059 226.425C259.795 226.363 263.053 223.255 263.279 219.427C263.505 215.599 260.608 212.597 256.87 212.659ZM242.198 219.784C242.663 211.9 249.403 205.353 257.309 205.22C265.215 205.086 271.196 211.418 270.731 219.302C270.267 227.185 263.526 233.731 255.621 233.865C252.311 233.921 249.336 232.841 247.035 230.994L210.635 266.579L205.62 261.462L242.884 225.03C242.336 223.41 242.089 221.638 242.198 219.784ZM170.789 236.185L195.232 261.608L189.659 266.964L165.217 241.54L170.789 236.185ZM122.556 262.888L149.018 236.607L154.083 241.676L127.621 267.957L122.556 262.888Z" fill="#E5EDF6"/>
<path fill-rule="evenodd" clip-rule="evenodd" d="M201.093 264.14C197.512 264.2 194.208 267.293 193.97 271.321C193.733 275.347 196.677 278.334 200.26 278.274C203.841 278.214 207.145 275.121 207.383 271.093C207.62 267.067 204.674 264.08 201.093 264.14ZM186.52 271.446C186.984 263.559 193.591 256.834 201.531 256.701C209.472 256.565 215.298 263.08 214.833 270.968C214.369 278.857 207.762 285.58 199.822 285.713C191.879 285.849 186.053 279.334 186.52 271.446Z" fill="#E5EDF6"/>
</g>
<defs>
<filter id="filter0_d_669_17522" x="29.736" y="35.0698" width="274.962" height="277.239" filterUnits="userSpaceOnUse" color-interpolation-filters="sRGB">
<feFlood flood-opacity="0" result="BackgroundImageFix"/>
<feColorMatrix in="SourceAlpha" type="matrix" values="0 0 0 0 0 0 0 0 0 0 0 0 0 0 0 0 0 0 127 0" result="hardAlpha"/>
<feOffset dy="2.42561"/>
<feGaussianBlur stdDeviation="0.693031"/>
<feComposite in2="hardAlpha" operator="out"/>
<feColorMatrix type="matrix" values="0 0 0 0 0.065625 0 0 0 0 0.419165 0 0 0 0 0.75 0 0 0 1 0"/>
<feBlend mode="normal" in2="BackgroundImageFix" result="effect1_dropShadow_669_17522"/>
<feBlend mode="normal" in="SourceGraphic" in2="effect1_dropShadow_669_17522" result="shape"/>
</filter>
<radialGradient id="paint0_radial_669_17522" cx="0" cy="0" r="1" gradientUnits="userSpaceOnUse" gradientTransform="translate(378.712 63.4517) rotate(122.674) scale(554.134 568.015)">
<stop stop-color="#4297E7"/>
<stop offset="1" stop-color="#0069CC"/>
</radialGradient>
<radialGradient id="paint1_radial_669_17522" cx="0" cy="0" r="1" gradientUnits="userSpaceOnUse" gradientTransform="translate(378.712 63.4514) rotate(122.674) scale(554.134 568.014)">
<stop stop-color="#4297E7"/>
<stop offset="1" stop-color="#0069CC"/>
</radialGradient>
<radialGradient id="paint2_radial_669_17522" cx="0" cy="0" r="1" gradientUnits="userSpaceOnUse" gradientTransform="translate(378.712 63.4519) rotate(122.674) scale(554.134 568.015)">
<stop stop-color="#4297E7"/>
<stop offset="1" stop-color="#0069CC"/>
</radialGradient>
<radialGradient id="paint3_radial_669_17522" cx="0" cy="0" r="1" gradientUnits="userSpaceOnUse" gradientTransform="translate(378.712 63.4516) rotate(122.674) scale(554.134 568.015)">
<stop stop-color="#4297E7"/>
<stop offset="1" stop-color="#0069CC"/>
</radialGradient>
<radialGradient id="paint4_radial_669_17522" cx="0" cy="0" r="1" gradientUnits="userSpaceOnUse" gradientTransform="translate(378.712 63.4515) rotate(122.674) scale(554.134 568.015)">
<stop stop-color="#4297E7"/>
<stop offset="1" stop-color="#0069CC"/>
</radialGradient>
<radialGradient id="paint5_radial_669_17522" cx="0" cy="0" r="1" gradientUnits="userSpaceOnUse" gradientTransform="translate(378.712 63.4513) rotate(122.674) scale(554.134 568.015)">
<stop stop-color="#4297E7"/>
<stop offset="1" stop-color="#0069CC"/>
</radialGradient>
<radialGradient id="paint6_radial_669_17522" cx="0" cy="0" r="1" gradientUnits="userSpaceOnUse" gradientTransform="translate(378.712 63.4518) rotate(122.674) scale(554.134 568.015)">
<stop stop-color="#4297E7"/>
<stop offset="1" stop-color="#0069CC"/>
</radialGradient>
<radialGradient id="paint7_radial_669_17522" cx="0" cy="0" r="1" gradientUnits="userSpaceOnUse" gradientTransform="translate(378.712 63.4518) rotate(122.674) scale(554.134 568.015)">
<stop stop-color="#4297E7"/>
<stop offset="1" stop-color="#0069CC"/>
</radialGradient>
<radialGradient id="paint8_radial_669_17522" cx="0" cy="0" r="1" gradientUnits="userSpaceOnUse" gradientTransform="translate(378.713 63.4511) rotate(122.674) scale(554.134 568.014)">
<stop stop-color="#4297E7"/>
<stop offset="1" stop-color="#0069CC"/>
</radialGradient>
<radialGradient id="paint9_radial_669_17522" cx="0" cy="0" r="1" gradientUnits="userSpaceOnUse" gradientTransform="translate(378.713 63.4509) rotate(122.674) scale(554.134 568.015)">
<stop stop-color="#4297E7"/>
<stop offset="1" stop-color="#0069CC"/>
</radialGradient>
<radialGradient id="paint10_radial_669_17522" cx="0" cy="0" r="1" gradientUnits="userSpaceOnUse" gradientTransform="translate(378.712 63.4512) rotate(122.674) scale(554.134 568.015)">
<stop stop-color="#4297E7"/>
<stop offset="1" stop-color="#0069CC"/>
</radialGradient>
<radialGradient id="paint11_radial_669_17522" cx="0" cy="0" r="1" gradientUnits="userSpaceOnUse" gradientTransform="translate(378.712 63.4511) rotate(122.674) scale(554.134 568.015)">
<stop stop-color="#4297E7"/>
<stop offset="1" stop-color="#0069CC"/>
</radialGradient>
<radialGradient id="paint12_radial_669_17522" cx="0" cy="0" r="1" gradientUnits="userSpaceOnUse" gradientTransform="translate(378.712 63.4513) rotate(122.674) scale(554.134 568.015)">
<stop stop-color="#4297E7"/>
<stop offset="1" stop-color="#0069CC"/>
</radialGradient>
<radialGradient id="paint13_radial_669_17522" cx="0" cy="0" r="1" gradientUnits="userSpaceOnUse" gradientTransform="translate(378.712 63.4519) rotate(122.674) scale(554.134 568.015)">
<stop stop-color="#4297E7"/>
<stop offset="1" stop-color="#0069CC"/>
</radialGradient>
<radialGradient id="paint14_radial_669_17522" cx="0" cy="0" r="1" gradientUnits="userSpaceOnUse" gradientTransform="translate(378.713 63.4519) rotate(122.674) scale(554.134 568.015)">
<stop stop-color="#4297E7"/>
<stop offset="1" stop-color="#0069CC"/>
</radialGradient>
<radialGradient id="paint15_radial_669_17522" cx="0" cy="0" r="1" gradientUnits="userSpaceOnUse" gradientTransform="translate(378.712 63.4521) rotate(122.674) scale(554.134 568.014)">
<stop stop-color="#4297E7"/>
<stop offset="1" stop-color="#0069CC"/>
</radialGradient>
<radialGradient id="paint16_radial_669_17522" cx="0" cy="0" r="1" gradientUnits="userSpaceOnUse" gradientTransform="translate(378.712 63.4521) rotate(122.674) scale(554.134 568.015)">
<stop stop-color="#4297E7"/>
<stop offset="1" stop-color="#0069CC"/>
</radialGradient>
<radialGradient id="paint17_radial_669_17522" cx="0" cy="0" r="1" gradientUnits="userSpaceOnUse" gradientTransform="translate(378.712 63.4519) rotate(122.674) scale(554.134 568.015)">
<stop stop-color="#4297E7"/>
<stop offset="1" stop-color="#0069CC"/>
</radialGradient>
<radialGradient id="paint18_radial_669_17522" cx="0" cy="0" r="1" gradientUnits="userSpaceOnUse" gradientTransform="translate(378.713 63.4513) rotate(122.674) scale(554.135 568.015)">
<stop stop-color="#4297E7"/>
<stop offset="1" stop-color="#0069CC"/>
</radialGradient>
<radialGradient id="paint19_radial_669_17522" cx="0" cy="0" r="1" gradientUnits="userSpaceOnUse" gradientTransform="translate(378.712 63.4508) rotate(122.674) scale(554.134 568.015)">
<stop stop-color="#4297E7"/>
<stop offset="1" stop-color="#0069CC"/>
</radialGradient>
<radialGradient id="paint20_radial_669_17522" cx="0" cy="0" r="1" gradientUnits="userSpaceOnUse" gradientTransform="translate(378.712 63.4517) rotate(122.674) scale(554.134 568.014)">
<stop stop-color="#4297E7"/>
<stop offset="1" stop-color="#0069CC"/>
</radialGradient>
<radialGradient id="paint21_radial_669_17522" cx="0" cy="0" r="1" gradientUnits="userSpaceOnUse" gradientTransform="translate(378.713 63.4515) rotate(122.674) scale(554.134 568.015)">
<stop stop-color="#4297E7"/>
<stop offset="1" stop-color="#0069CC"/>
</radialGradient>
<radialGradient id="paint22_radial_669_17522" cx="0" cy="0" r="1" gradientUnits="userSpaceOnUse" gradientTransform="translate(378.712 63.4514) rotate(122.674) scale(554.134 568.014)">
<stop stop-color="#4297E7"/>
<stop offset="1" stop-color="#0069CC"/>
</radialGradient>
<radialGradient id="paint23_radial_669_17522" cx="0" cy="0" r="1" gradientUnits="userSpaceOnUse" gradientTransform="translate(378.713 63.4512) rotate(122.674) scale(554.134 568.015)">
<stop stop-color="#4297E7"/>
<stop offset="1" stop-color="#0069CC"/>
</radialGradient>
<radialGradient id="paint24_radial_669_17522" cx="0" cy="0" r="1" gradientUnits="userSpaceOnUse" gradientTransform="translate(378.712 63.4518) rotate(122.674) scale(554.134 568.014)">
<stop stop-color="#4297E7"/>
<stop offset="1" stop-color="#0069CC"/>
</radialGradient>
</defs>
</svg>
