<svg width="374" height="445" viewBox="0 0 374 445" fill="none" xmlns="http://www.w3.org/2000/svg">
<path d="M199.711 5.84961L235.066 27.87C237.318 29.243 239.424 30.8459 241.346 32.6528C247.61 38.527 254.453 43.7505 261.773 48.2432L226.372 26.2669C219.05 21.7771 212.202 16.5534 205.937 10.6764C204.033 8.85884 201.946 7.24139 199.711 5.84961Z" fill="#777B80"/>
<path d="M199.711 5.84961L235.066 27.87C237.318 29.243 239.424 30.8459 241.346 32.6528C247.61 38.527 254.453 43.7505 261.773 48.2432L226.372 26.2669C219.05 21.7771 212.202 16.5534 205.937 10.6764C204.033 8.85884 201.946 7.24139 199.711 5.84961Z" fill="url(#paint0_radial_669_17456)"/>
<path d="M199.711 5.84961L235.066 27.87C236.061 28.4865 237.022 29.147 237.963 29.8517L202.591 7.83136C201.657 7.12684 200.689 6.4661 199.702 5.84961" fill="#777B80"/>
<path d="M199.711 5.84961L235.066 27.87C236.061 28.4865 237.022 29.147 237.963 29.8517L202.591 7.83136C201.657 7.12684 200.689 6.4661 199.702 5.84961" fill="url(#paint1_radial_669_17456)"/>
<path d="M202.591 7.83105L237.956 29.8514C238.923 30.5912 239.857 31.3665 240.757 32.1943L205.409 10.1739C204.529 9.34613 203.568 8.57084 202.601 7.83105" fill="#777B80"/>
<path d="M202.591 7.83105L237.956 29.8514C238.923 30.5912 239.857 31.3665 240.757 32.1943L205.409 10.1739C204.529 9.34613 203.568 8.57084 202.601 7.83105" fill="url(#paint2_radial_669_17456)"/>
<path d="M205.41 10.1743L240.765 32.1947L241.302 32.6969L242.72 34.0269L207.355 12.0065L205.937 10.6765L205.41 10.1743Z" fill="#777B80"/>
<path d="M205.41 10.1743L240.765 32.1947L241.302 32.6969L242.72 34.0269L207.355 12.0065L205.937 10.6765L205.41 10.1743Z" fill="url(#paint3_radial_669_17456)"/>
<path d="M207.355 12.0061L242.72 33.9822C245.292 36.3428 248.128 38.7035 251.195 41.0288L215.803 19.0437C212.737 16.7271 209.901 14.3665 207.321 11.9971" fill="#777B80"/>
<path d="M207.355 12.0061L242.72 33.9822C245.292 36.3428 248.128 38.7035 251.195 41.0288L215.803 19.0437C212.737 16.7271 209.901 14.3665 207.321 11.9971" fill="url(#paint4_radial_669_17456)"/>
<path d="M215.804 19.0444L251.159 41.0648C254.427 43.54 257.951 45.9622 261.73 48.2875L226.373 26.2672C222.63 23.9418 219.106 21.5194 215.804 19.0444Z" fill="#777B80"/>
<path d="M215.804 19.0444L251.159 41.0648C254.427 43.54 257.951 45.9622 261.73 48.2875L226.373 26.2672C222.63 23.9418 219.106 21.5194 215.804 19.0444Z" fill="url(#paint5_radial_669_17456)"/>
<path d="M319.879 53.8369L355.244 75.8133C358.332 77.7366 361.131 80.0883 363.558 82.7982C371.056 91.1306 374.701 102.238 373.848 114.058L338.483 92.0377C339.363 80.2172 335.691 69.1367 328.203 60.7778C325.767 58.0857 322.965 55.7494 319.879 53.8369Z" fill="#777B80"/>
<path d="M319.879 53.8369L355.244 75.8133C358.332 77.7366 361.131 80.0883 363.558 82.7982C371.056 91.1306 374.701 102.238 373.848 114.058L338.483 92.0377C339.363 80.2172 335.691 69.1367 328.203 60.7778C325.767 58.0857 322.965 55.7494 319.879 53.8369Z" fill="url(#paint6_radial_669_17456)"/>
<path d="M319.879 53.8358L355.244 75.8121C356.221 76.4286 357.182 77.0801 358.106 77.7849L322.751 55.7645C321.817 55.06 320.866 54.408 319.879 53.7915" fill="#777B80"/>
<path d="M319.879 53.8358L355.244 75.8121C356.221 76.4286 357.182 77.0801 358.106 77.7849L322.751 55.7645C321.817 55.06 320.866 54.408 319.879 53.7915" fill="url(#paint7_radial_669_17456)"/>
<path d="M322.751 55.8085L358.106 77.8289C359.077 78.5599 360.011 79.344 360.918 80.1718L325.553 58.1339C324.673 57.3061 323.719 56.522 322.751 55.791" fill="#777B80"/>
<path d="M322.751 55.8085L358.106 77.8289C359.077 78.5599 360.011 79.344 360.918 80.1718L325.553 58.1339C324.673 57.3061 323.719 56.522 322.751 55.791" fill="url(#paint8_radial_669_17456)"/>
<path d="M325.553 58.1348L360.918 80.1551C361.835 81.0007 362.715 81.882 363.559 82.7981L363.71 82.9562L328.345 60.9358L328.204 60.7778C327.358 59.8322 326.477 58.9509 325.56 58.1348" fill="#777B80"/>
<path d="M325.553 58.1348L360.918 80.1551C361.835 81.0007 362.715 81.882 363.559 82.7981L363.71 82.9562L328.345 60.9358L328.204 60.7778C327.358 59.8322 326.477 58.9509 325.56 58.1348" fill="url(#paint9_radial_669_17456)"/>
<path d="M328.344 60.9888L363.709 83.0091C364.718 84.1473 365.662 85.3413 366.537 86.5852L331.19 64.5649C330.316 63.3188 329.373 62.1247 328.361 60.9888" fill="#777B80"/>
<path d="M328.344 60.9888L363.709 83.0091C364.718 84.1473 365.662 85.3413 366.537 86.5852L331.19 64.5649C330.316 63.3188 329.373 62.1247 328.361 60.9888" fill="url(#paint10_radial_669_17456)"/>
<path d="M331.189 64.5645L366.554 86.5848C367.643 88.1412 368.623 89.7718 369.487 91.4644L334.122 69.4443C333.266 67.7478 332.286 66.117 331.189 64.5645Z" fill="#777B80"/>
<path d="M331.189 64.5645L366.554 86.5848C367.643 88.1412 368.623 89.7718 369.487 91.4644L334.122 69.4443C333.266 67.7478 332.286 66.117 331.189 64.5645Z" fill="url(#paint11_radial_669_17456)"/>
<path d="M334.105 69.4434L369.47 91.4637C372.945 98.4199 374.468 106.189 373.874 113.942L338.51 91.9216C339.105 84.1683 337.583 76.3981 334.105 69.4434Z" fill="#777B80"/>
<path d="M334.105 69.4434L369.47 91.4637C372.945 98.4199 374.468 106.189 373.874 113.942L338.51 91.9216C339.105 84.1683 337.583 76.3981 334.105 69.4434Z" fill="url(#paint12_radial_669_17456)"/>
<path d="M338.49 91.9219L373.854 113.942C373.852 113.998 373.852 114.054 373.854 114.11L338.49 92.0892C338.49 92.0364 338.49 91.9749 338.49 91.9219Z" fill="#777B80"/>
<path d="M338.49 91.9219L373.854 113.942C373.852 113.998 373.852 114.054 373.854 114.11L338.49 92.0892C338.49 92.0364 338.49 91.9749 338.49 91.9219Z" fill="url(#paint13_radial_669_17456)"/>
<path d="M338.484 92.0889L373.848 114.065L366.307 217.683L330.952 195.709L338.484 92.0889Z" fill="#777B80"/>
<path d="M338.484 92.0889L373.848 114.065L366.307 217.683L330.952 195.709L338.484 92.0889Z" fill="url(#paint14_radial_669_17456)"/>
<path d="M139.306 425.918L103.941 403.941C114.382 410.522 125.432 416.083 136.935 420.553C141.312 422.19 145.95 423.021 150.624 423.012C156.137 423 161.597 421.903 166.689 419.787C220.103 398.102 264.904 359.459 294.196 309.809C315.397 274.075 329.121 231.417 330.952 195.709L366.307 217.684C364.476 253.438 350.762 296.076 329.561 331.784C300.269 381.436 255.466 420.079 202.054 441.764C196.962 443.878 191.502 444.972 185.989 444.986C181.317 444.999 176.684 444.164 172.309 442.53C160.802 438.06 149.749 432.499 139.306 425.918Z" fill="#777B80"/>
<path d="M139.306 425.918L103.941 403.941C114.382 410.522 125.432 416.083 136.935 420.553C141.312 422.19 145.95 423.021 150.624 423.012C156.137 423 161.597 421.903 166.689 419.787C220.103 398.102 264.904 359.459 294.196 309.809C315.397 274.075 329.121 231.417 330.952 195.709L366.307 217.684C364.476 253.438 350.762 296.076 329.561 331.784C300.269 381.436 255.466 420.079 202.054 441.764C196.962 443.878 191.502 444.972 185.989 444.986C181.317 444.999 176.684 444.164 172.309 442.53C160.802 438.06 149.749 432.499 139.306 425.918Z" fill="url(#paint15_radial_669_17456)"/>
<path d="M330.951 195.71L366.306 217.684C366.255 218.689 366.192 219.703 366.131 220.724L330.767 198.703C330.837 197.682 330.898 196.668 330.951 195.664" fill="#777B80"/>
<path d="M330.951 195.71L366.306 217.684C366.255 218.689 366.192 219.703 366.131 220.724L330.767 198.703C330.837 197.682 330.898 196.668 330.951 195.664" fill="url(#paint16_radial_669_17456)"/>
<path d="M330.767 198.748L366.132 220.768C365.507 229.441 364.33 238.064 362.608 246.585L327.226 224.608C328.948 216.087 330.125 207.463 330.75 198.791" fill="#777B80"/>
<path d="M330.767 198.748L366.132 220.768C365.507 229.441 364.33 238.064 362.608 246.585L327.226 224.608C328.948 216.087 330.125 207.463 330.75 198.791" fill="url(#paint17_radial_669_17456)"/>
<path d="M327.226 224.608L362.581 246.585C360.971 254.627 358.892 262.808 356.416 271.018L321.052 249.041C323.571 240.834 325.651 232.65 327.26 224.608" fill="#777B80"/>
<path d="M327.226 224.608L362.581 246.585C360.971 254.627 358.892 262.808 356.416 271.018L321.052 249.041C323.571 240.834 325.651 232.65 327.26 224.608" fill="url(#paint18_radial_669_17456)"/>
<path d="M321.017 248.998L356.382 270.975C354.021 278.681 351.28 286.415 348.189 294.051L312.824 272.084C315.915 264.438 318.656 256.704 321.017 248.998Z" fill="#777B80"/>
<path d="M321.017 248.998L356.382 270.975C354.021 278.681 351.28 286.415 348.189 294.051L312.824 272.084C315.915 264.438 318.656 256.704 321.017 248.998Z" fill="url(#paint19_radial_669_17456)"/>
<path d="M312.824 272.083L348.188 294.05C345.309 301.168 342.128 308.206 338.684 315.084L303.32 293.065C306.773 286.185 309.952 279.148 312.824 272.039" fill="#777B80"/>
<path d="M312.824 272.083L348.188 294.05C345.309 301.168 342.128 308.206 338.684 315.084L303.32 293.065C306.773 286.185 309.952 279.148 312.824 272.039" fill="url(#paint20_radial_669_17456)"/>
<path d="M303.321 293.109L338.685 315.127C335.823 320.818 332.776 326.402 329.561 331.864L328.496 333.624L293.131 311.65C293.491 311.059 293.843 310.46 294.196 309.887C297.418 304.461 300.468 298.877 303.321 293.153" fill="#777B80"/>
<path d="M303.321 293.109L338.685 315.127C335.823 320.818 332.776 326.402 329.561 331.864L328.496 333.624L293.131 311.65C293.491 311.059 293.843 310.46 294.196 309.887C297.418 304.461 300.468 298.877 303.321 293.153" fill="url(#paint21_radial_669_17456)"/>
<path d="M293.131 311.589L328.496 333.564C324.843 339.607 320.979 345.478 316.903 351.181L281.548 329.204C285.616 323.52 289.478 317.647 293.131 311.589Z" fill="#777B80"/>
<path d="M293.131 311.589L328.496 333.564C324.843 339.607 320.979 345.478 316.903 351.181L281.548 329.204C285.616 323.52 289.478 317.647 293.131 311.589Z" fill="url(#paint22_radial_669_17456)"/>
<path d="M281.547 329.186L316.902 351.163C312.756 356.964 308.393 362.576 303.814 367.995L268.449 345.974C273.019 340.56 277.384 334.95 281.547 329.143" fill="#777B80"/>
<path d="M281.547 329.186L316.902 351.163C312.756 356.964 308.393 362.576 303.814 367.995L268.449 345.974C273.019 340.56 277.384 334.95 281.547 329.143" fill="url(#paint23_radial_669_17456)"/>
<path d="M268.45 346.019L303.814 368.039C298.953 373.788 293.863 379.311 288.549 384.608L253.185 362.587C258.469 357.303 263.559 351.78 268.45 346.019Z" fill="#777B80"/>
<path d="M268.45 346.019L303.814 368.039C298.953 373.788 293.863 379.311 288.549 384.608L253.185 362.587C258.469 357.303 263.559 351.78 268.45 346.019Z" fill="url(#paint24_radial_669_17456)"/>
<path d="M253.184 362.587L288.549 384.608C282.572 390.561 276.319 396.215 269.787 401.563L234.422 379.545C240.954 374.194 247.207 368.543 253.184 362.587Z" fill="#777B80"/>
<path d="M253.184 362.587L288.549 384.608C282.572 390.561 276.319 396.215 269.787 401.563L234.422 379.545C240.954 374.194 247.207 368.543 253.184 362.587Z" fill="url(#paint25_radial_669_17456)"/>
<path d="M234.422 379.544L269.787 401.562C261.572 408.274 252.956 414.481 243.989 420.149L208.625 398.172C217.591 392.491 226.205 386.271 234.415 379.544" fill="#777B80"/>
<path d="M234.422 379.544L269.787 401.562C261.572 408.274 252.956 414.481 243.989 420.149L208.625 398.172C217.591 392.491 226.205 386.271 234.415 379.544" fill="url(#paint26_radial_669_17456)"/>
<path d="M208.635 398.172L243.99 420.149C230.673 428.576 216.638 435.811 202.044 441.764C196.952 443.877 191.495 444.972 185.979 444.986C181.31 444.999 176.675 444.164 172.3 442.53C160.792 438.06 149.741 432.499 139.296 425.918L103.941 403.941C114.382 410.522 125.432 416.083 136.935 420.553C141.312 422.19 145.95 423.021 150.624 423.012C156.137 423 161.597 421.903 166.689 419.787C181.278 413.834 195.313 406.601 208.625 398.172" fill="#777B80"/>
<path d="M208.635 398.172L243.99 420.149C230.673 428.576 216.638 435.811 202.044 441.764C196.952 443.877 191.495 444.972 185.979 444.986C181.31 444.999 176.675 444.164 172.3 442.53C160.792 438.06 149.741 432.499 139.296 425.918L103.941 403.941C114.382 410.522 125.432 416.083 136.935 420.553C141.312 422.19 145.95 423.021 150.624 423.012C156.137 423 161.597 421.903 166.689 419.787C181.278 413.834 195.313 406.601 208.625 398.172" fill="url(#paint27_radial_669_17456)"/>
<path d="M178.968 0.000702369C188.999 -0.0596087 198.666 3.76626 205.937 10.676C225.439 29.2878 261.377 48.0667 297.72 48.0667H299.279C304.738 48.0134 310.144 49.1251 315.139 51.3274C320.137 53.5297 324.604 56.7722 328.247 60.8383C335.735 69.171 339.381 80.2779 338.527 92.0984L330.995 195.717C329.164 231.471 315.441 274.109 294.24 309.817C264.938 359.471 220.123 398.112 166.699 419.787C161.601 421.905 156.142 423 150.624 423.012C145.95 423.022 141.312 422.19 136.935 420.553C124.605 415.92 81.6017 397.319 46.2735 352.387C30.5853 332.467 18.5693 309.911 10.7848 285.78C1.76488 257.866 -1.59844 227.725 0.699701 196.176L8.30184 91.6052C9.96525 68.7568 28.5595 49.4847 50.5804 47.7318C83.0025 45.0896 127.212 33.2426 147.62 13.2392C156.19 4.82754 167.613 0.000702369 178.968 0.000702369Z" fill="#228DFD"/>
<g filter="url(#filter0_d_669_17456)">
<path fill-rule="evenodd" clip-rule="evenodd" d="M177.125 52.1561C176.673 51.7486 175.86 51.7505 175.318 52.2666C158.249 68.5379 134.251 79.5089 110.931 86.7144C87.5412 93.9425 64.3774 97.5203 48.553 98.7406C48.0155 98.7822 47.6362 99.2068 47.6094 99.6594L41.3521 202.536C34.7325 311.382 115.557 367.883 158.472 383.216C158.565 383.25 158.72 383.267 158.947 383.179C264.338 341.538 293.715 245.39 295.206 202.514L295.208 202.458L301.436 100.011C301.463 99.5672 301.096 99.0702 300.456 99.0772C243.752 99.6998 197.205 70.2699 177.125 52.1561ZM169.637 46.3157C173.429 42.7009 179.311 42.3524 183.042 45.7179C202.249 63.0442 246.95 91.194 300.882 90.6018C306.052 90.5451 310.255 94.6538 309.929 100.007L303.705 202.343C302.115 247.501 271.437 347.659 161.656 391.032C159.601 391.844 157.3 391.976 155.175 391.217C110.486 375.249 25.9363 316.421 32.8599 202.54L39.1172 99.6638C39.4188 94.6991 43.5165 90.6682 48.4144 90.2903C63.694 89.1118 86.2036 85.6363 108.871 78.6315C131.614 71.604 154.061 61.1624 169.637 46.3157Z" fill="#E5EDF6"/>
<path fill-rule="evenodd" clip-rule="evenodd" d="M134.107 131.635C143.176 127.479 153.083 124.867 162.847 124.057L162.857 124.056L163.331 124.019C163.334 124.018 163.336 124.018 163.338 124.018C165.34 123.855 167.305 124.299 168.973 125.292C170.646 126.286 171.945 127.784 172.694 129.584L172.696 129.585L177.482 141.078C182.983 141.818 188.295 143.273 193.346 145.393L204.262 138.171L204.272 138.165C205.987 137.042 207.971 136.443 209.965 136.447C211.955 136.451 213.861 137.057 215.43 138.185C215.432 138.186 215.435 138.188 215.437 138.189L215.814 138.457L215.819 138.462C223.594 144.054 230.201 151.068 235.32 159.164L235.33 159.182L235.576 159.578C236.607 161.211 237.098 163.147 236.984 165.132C236.869 167.128 236.15 169.079 234.919 170.726L227.091 181.194C227.991 183.776 228.732 186.448 229.292 189.145C229.853 191.847 230.238 194.603 230.449 197.37L241.592 202.839L241.599 202.844C245.155 204.607 247.13 208.413 246.595 212.436L246.529 212.939L246.524 212.966C245.549 219.722 243.761 226.341 241.181 232.74C240.286 234.955 237.801 236.137 235.629 235.381C233.457 234.624 232.419 232.217 233.314 230.001C235.624 224.274 237.224 218.348 238.102 212.29L238.161 211.835L238.163 211.833C238.236 211.285 237.966 210.738 237.448 210.48L237.443 210.478L222.183 202.988L222.088 200.617C221.964 197.494 221.585 194.374 220.955 191.344C220.325 188.309 219.433 185.31 218.321 182.47L217.468 180.296L228.207 165.938C228.375 165.711 228.475 165.443 228.492 165.168C228.506 164.892 228.438 164.623 228.292 164.396L228.28 164.374L228.029 163.971C223.448 156.726 217.533 150.448 210.576 145.443C210.573 145.441 210.571 145.44 210.568 145.438L210.191 145.17L210.187 145.165C209.968 145.008 209.703 144.923 209.425 144.923C209.153 144.922 208.878 145.004 208.642 145.157C208.64 145.158 208.64 145.16 208.638 145.161L193.669 155.063L191.544 154.075C185.933 151.469 179.968 149.834 173.759 149.24L171.378 149.013L164.807 133.235C164.703 132.985 164.523 132.778 164.292 132.641C164.061 132.504 163.791 132.443 163.516 132.465L163.506 132.466L163.037 132.503C163.032 132.503 163.03 132.504 163.027 132.504C154.287 133.23 145.391 135.576 137.273 139.295C137.269 139.296 137.266 139.298 137.264 139.299L136.828 139.501L136.819 139.505C136.563 139.622 136.344 139.812 136.191 140.051C136.038 140.289 135.96 140.565 135.965 140.841L136.284 158.322L134.263 159.718C128.976 163.367 124.268 167.815 120.323 172.888L118.806 174.839L101.371 173.442C101.101 173.421 100.824 173.483 100.578 173.62C100.335 173.757 100.133 173.963 99.9997 174.211L99.9948 174.224L99.7565 174.661C95.5031 182.633 92.6748 191.215 91.4078 199.999L91.3445 200.481L91.3421 200.507C91.2619 201.059 91.5294 201.599 92.0328 201.852C92.0352 201.852 92.0376 201.855 92.0376 201.855L107.463 209.41L107.553 211.789C107.67 214.86 108.057 217.939 108.677 220.933C109.307 223.961 110.172 226.91 111.267 229.683L112.128 231.859L101.306 246.351C101.135 246.577 101.036 246.847 101.019 247.122C101.004 247.399 101.072 247.667 101.218 247.895L101.23 247.917L101.478 248.316C106.084 255.563 111.95 261.825 118.937 266.849C118.937 266.849 118.939 266.852 118.942 266.852L119.319 267.122L119.324 267.124C119.542 267.282 119.807 267.367 120.085 267.367C120.359 267.367 120.632 267.287 120.868 267.134C120.87 267.132 120.87 267.132 120.873 267.129L135.941 257.166L138.069 258.158C143.643 260.755 149.574 262.399 155.722 262.988L158.1 263.216L164.703 279.055C164.807 279.306 164.987 279.512 165.218 279.649C165.449 279.787 165.719 279.848 165.994 279.826L166.004 279.824L166.471 279.787C166.473 279.787 166.478 279.787 166.48 279.787C172.585 279.274 178.638 278.017 184.503 276.052C186.767 275.293 189.109 276.472 189.734 278.686C190.359 280.899 189.029 283.311 186.765 284.07C180.223 286.261 173.472 287.664 166.665 288.233H166.656L166.179 288.272C166.177 288.272 166.174 288.272 166.169 288.272C164.17 288.435 162.205 287.99 160.537 286.998C158.864 286.003 157.565 284.507 156.816 282.705L151.996 271.147C146.541 270.407 141.267 268.948 136.257 266.837L125.248 274.121L125.238 274.126C123.523 275.249 121.539 275.848 119.545 275.843C117.556 275.838 115.651 275.232 114.08 274.106C114.078 274.104 114.076 274.104 114.073 274.101L113.696 273.834L113.691 273.829C105.875 268.209 99.3236 261.207 94.1947 253.134L94.1826 253.112L93.9345 252.713C92.9034 251.079 92.4121 249.143 92.5264 247.158C92.6407 245.162 93.3606 243.211 94.5911 241.563L102.5 230.972C101.614 228.428 100.895 225.797 100.343 223.131C99.793 220.483 99.4014 217.769 99.1899 215.028L87.8912 209.493L87.884 209.491C84.3237 207.725 82.3441 203.892 82.918 199.834L82.9812 199.352L82.9861 199.328C84.3966 189.52 87.5532 179.936 92.3051 171.036L92.31 171.026L92.5459 170.591C93.5065 168.793 94.9754 167.294 96.758 166.294C98.5478 165.291 100.569 164.837 102.551 164.992L102.558 164.993L115.287 166.012C118.942 161.631 123.11 157.693 127.692 154.292L127.458 141.513C127.422 139.524 127.996 137.533 129.102 135.806C130.209 134.081 131.794 132.7 133.652 131.846C133.655 131.845 133.657 131.844 133.66 131.842L134.1 131.639L134.107 131.635Z" fill="#E5EDF6"/>
<path fill-rule="evenodd" clip-rule="evenodd" d="M164.413 181.181L177.465 195.902C179.199 197.857 179.019 200.914 177.054 202.876L168.739 211.186L161.1 217.884C159.019 219.71 155.967 219.693 154.128 217.845L139.454 203.081C138.433 207.125 138.326 211.32 139.182 215.345C140.473 221.412 143.868 226.716 148.793 230.354C153.715 233.993 159.86 235.741 166.181 235.299C167.35 235.216 168.513 235.06 169.661 234.834C171.331 234.503 173.056 234.999 174.213 236.245L219.685 285.182C222.849 288.586 228.352 288.62 231.973 285.259L238.758 278.956C242.377 275.595 242.747 270.114 239.585 266.711L193.637 217.261C192.528 216.067 192.139 214.399 192.513 212.808C192.606 212.405 192.693 212.001 192.769 211.595C193.943 205.357 192.929 199.036 189.899 193.713C186.869 188.39 182.007 184.389 176.147 182.396C172.399 181.123 168.391 180.72 164.413 181.181ZM156.596 174.382C164.106 171.913 172.088 171.896 179.325 174.356C187.012 176.969 193.386 182.214 197.362 189.197C201.312 196.138 202.652 204.367 201.156 212.504L245.991 260.753C252.246 267.487 251.513 278.338 244.352 284.99L237.567 291.293C230.407 297.939 219.536 297.874 213.282 291.142L168.975 243.46C168.075 243.591 167.168 243.689 166.261 243.752C157.973 244.333 149.914 242.042 143.459 237.271C137.003 232.499 132.547 225.542 130.855 217.582C129.255 210.06 130.215 202.086 133.566 194.873C135.162 191.442 139.515 190.732 141.874 193.105L158.175 209.506L163.114 205.175L168.885 199.409L154.036 182.663C151.742 180.077 152.878 175.605 156.596 174.382Z" fill="#E5EDF6"/>
</g>
<defs>
<filter id="filter0_d_669_17456" x="31.0628" y="43.3872" width="280.28" height="352.173" filterUnits="userSpaceOnUse" color-interpolation-filters="sRGB">
<feFlood flood-opacity="0" result="BackgroundImageFix"/>
<feColorMatrix in="SourceAlpha" type="matrix" values="0 0 0 0 0 0 0 0 0 0 0 0 0 0 0 0 0 0 127 0" result="hardAlpha"/>
<feOffset dy="2.44421"/>
<feGaussianBlur stdDeviation="0.698345"/>
<feComposite in2="hardAlpha" operator="out"/>
<feColorMatrix type="matrix" values="0 0 0 0 0.065625 0 0 0 0 0.419165 0 0 0 0 0.75 0 0 0 1 0"/>
<feBlend mode="normal" in2="BackgroundImageFix" result="effect1_dropShadow_669_17456"/>
<feBlend mode="normal" in="SourceGraphic" in2="effect1_dropShadow_669_17456" result="shape"/>
</filter>
<radialGradient id="paint0_radial_669_17456" cx="0" cy="0" r="1" gradientUnits="userSpaceOnUse" gradientTransform="translate(392.269 79.1682) rotate(114.47) scale(637.055 541.761)">
<stop stop-color="#4297E7"/>
<stop offset="1" stop-color="#0069CC"/>
</radialGradient>
<radialGradient id="paint1_radial_669_17456" cx="0" cy="0" r="1" gradientUnits="userSpaceOnUse" gradientTransform="translate(392.269 79.1682) rotate(114.47) scale(637.055 541.762)">
<stop stop-color="#4297E7"/>
<stop offset="1" stop-color="#0069CC"/>
</radialGradient>
<radialGradient id="paint2_radial_669_17456" cx="0" cy="0" r="1" gradientUnits="userSpaceOnUse" gradientTransform="translate(392.269 79.1679) rotate(114.47) scale(637.055 541.761)">
<stop stop-color="#4297E7"/>
<stop offset="1" stop-color="#0069CC"/>
</radialGradient>
<radialGradient id="paint3_radial_669_17456" cx="0" cy="0" r="1" gradientUnits="userSpaceOnUse" gradientTransform="translate(392.27 79.1683) rotate(114.47) scale(637.056 541.762)">
<stop stop-color="#4297E7"/>
<stop offset="1" stop-color="#0069CC"/>
</radialGradient>
<radialGradient id="paint4_radial_669_17456" cx="0" cy="0" r="1" gradientUnits="userSpaceOnUse" gradientTransform="translate(392.269 79.1678) rotate(114.47) scale(637.056 541.762)">
<stop stop-color="#4297E7"/>
<stop offset="1" stop-color="#0069CC"/>
</radialGradient>
<radialGradient id="paint5_radial_669_17456" cx="0" cy="0" r="1" gradientUnits="userSpaceOnUse" gradientTransform="translate(392.27 79.1685) rotate(114.47) scale(637.056 541.762)">
<stop stop-color="#4297E7"/>
<stop offset="1" stop-color="#0069CC"/>
</radialGradient>
<radialGradient id="paint6_radial_669_17456" cx="0" cy="0" r="1" gradientUnits="userSpaceOnUse" gradientTransform="translate(392.269 79.1688) rotate(114.47) scale(637.056 541.762)">
<stop stop-color="#4297E7"/>
<stop offset="1" stop-color="#0069CC"/>
</radialGradient>
<radialGradient id="paint7_radial_669_17456" cx="0" cy="0" r="1" gradientUnits="userSpaceOnUse" gradientTransform="translate(392.269 79.1677) rotate(114.47) scale(637.055 541.761)">
<stop stop-color="#4297E7"/>
<stop offset="1" stop-color="#0069CC"/>
</radialGradient>
<radialGradient id="paint8_radial_669_17456" cx="0" cy="0" r="1" gradientUnits="userSpaceOnUse" gradientTransform="translate(392.27 79.1679) rotate(114.47) scale(637.056 541.761)">
<stop stop-color="#4297E7"/>
<stop offset="1" stop-color="#0069CC"/>
</radialGradient>
<radialGradient id="paint9_radial_669_17456" cx="0" cy="0" r="1" gradientUnits="userSpaceOnUse" gradientTransform="translate(392.27 79.1688) rotate(114.47) scale(637.055 541.762)">
<stop stop-color="#4297E7"/>
<stop offset="1" stop-color="#0069CC"/>
</radialGradient>
<radialGradient id="paint10_radial_669_17456" cx="0" cy="0" r="1" gradientUnits="userSpaceOnUse" gradientTransform="translate(392.269 79.1687) rotate(114.47) scale(637.055 541.761)">
<stop stop-color="#4297E7"/>
<stop offset="1" stop-color="#0069CC"/>
</radialGradient>
<radialGradient id="paint11_radial_669_17456" cx="0" cy="0" r="1" gradientUnits="userSpaceOnUse" gradientTransform="translate(392.269 79.1683) rotate(114.47) scale(637.056 541.762)">
<stop stop-color="#4297E7"/>
<stop offset="1" stop-color="#0069CC"/>
</radialGradient>
<radialGradient id="paint12_radial_669_17456" cx="0" cy="0" r="1" gradientUnits="userSpaceOnUse" gradientTransform="translate(392.269 79.1675) rotate(114.47) scale(637.055 541.761)">
<stop stop-color="#4297E7"/>
<stop offset="1" stop-color="#0069CC"/>
</radialGradient>
<radialGradient id="paint13_radial_669_17456" cx="0" cy="0" r="1" gradientUnits="userSpaceOnUse" gradientTransform="translate(392.269 79.1675) rotate(114.47) scale(637.056 541.761)">
<stop stop-color="#4297E7"/>
<stop offset="1" stop-color="#0069CC"/>
</radialGradient>
<radialGradient id="paint14_radial_669_17456" cx="0" cy="0" r="1" gradientUnits="userSpaceOnUse" gradientTransform="translate(392.27 79.1672) rotate(114.47) scale(637.056 541.762)">
<stop stop-color="#4297E7"/>
<stop offset="1" stop-color="#0069CC"/>
</radialGradient>
<radialGradient id="paint15_radial_669_17456" cx="0" cy="0" r="1" gradientUnits="userSpaceOnUse" gradientTransform="translate(392.27 79.168) rotate(114.47) scale(637.055 541.761)">
<stop stop-color="#4297E7"/>
<stop offset="1" stop-color="#0069CC"/>
</radialGradient>
<radialGradient id="paint16_radial_669_17456" cx="0" cy="0" r="1" gradientUnits="userSpaceOnUse" gradientTransform="translate(392.269 79.1683) rotate(114.47) scale(637.055 541.761)">
<stop stop-color="#4297E7"/>
<stop offset="1" stop-color="#0069CC"/>
</radialGradient>
<radialGradient id="paint17_radial_669_17456" cx="0" cy="0" r="1" gradientUnits="userSpaceOnUse" gradientTransform="translate(392.27 79.1686) rotate(114.47) scale(637.056 541.762)">
<stop stop-color="#4297E7"/>
<stop offset="1" stop-color="#0069CC"/>
</radialGradient>
<radialGradient id="paint18_radial_669_17456" cx="0" cy="0" r="1" gradientUnits="userSpaceOnUse" gradientTransform="translate(392.27 79.1682) rotate(114.47) scale(637.055 541.762)">
<stop stop-color="#4297E7"/>
<stop offset="1" stop-color="#0069CC"/>
</radialGradient>
<radialGradient id="paint19_radial_669_17456" cx="0" cy="0" r="1" gradientUnits="userSpaceOnUse" gradientTransform="translate(392.27 79.1683) rotate(114.47) scale(637.056 541.762)">
<stop stop-color="#4297E7"/>
<stop offset="1" stop-color="#0069CC"/>
</radialGradient>
<radialGradient id="paint20_radial_669_17456" cx="0" cy="0" r="1" gradientUnits="userSpaceOnUse" gradientTransform="translate(392.269 79.1676) rotate(114.47) scale(637.055 541.762)">
<stop stop-color="#4297E7"/>
<stop offset="1" stop-color="#0069CC"/>
</radialGradient>
<radialGradient id="paint21_radial_669_17456" cx="0" cy="0" r="1" gradientUnits="userSpaceOnUse" gradientTransform="translate(392.27 79.1674) rotate(114.47) scale(637.056 541.761)">
<stop stop-color="#4297E7"/>
<stop offset="1" stop-color="#0069CC"/>
</radialGradient>
<radialGradient id="paint22_radial_669_17456" cx="0" cy="0" r="1" gradientUnits="userSpaceOnUse" gradientTransform="translate(392.27 79.1679) rotate(114.47) scale(637.055 541.761)">
<stop stop-color="#4297E7"/>
<stop offset="1" stop-color="#0069CC"/>
</radialGradient>
<radialGradient id="paint23_radial_669_17456" cx="0" cy="0" r="1" gradientUnits="userSpaceOnUse" gradientTransform="translate(392.269 79.1675) rotate(114.47) scale(637.056 541.761)">
<stop stop-color="#4297E7"/>
<stop offset="1" stop-color="#0069CC"/>
</radialGradient>
<radialGradient id="paint24_radial_669_17456" cx="0" cy="0" r="1" gradientUnits="userSpaceOnUse" gradientTransform="translate(392.27 79.1687) rotate(114.47) scale(637.055 541.761)">
<stop stop-color="#4297E7"/>
<stop offset="1" stop-color="#0069CC"/>
</radialGradient>
<radialGradient id="paint25_radial_669_17456" cx="0" cy="0" r="1" gradientUnits="userSpaceOnUse" gradientTransform="translate(392.27 79.1683) rotate(114.47) scale(637.056 541.761)">
<stop stop-color="#4297E7"/>
<stop offset="1" stop-color="#0069CC"/>
</radialGradient>
<radialGradient id="paint26_radial_669_17456" cx="0" cy="0" r="1" gradientUnits="userSpaceOnUse" gradientTransform="translate(392.269 79.1678) rotate(114.47) scale(637.056 541.761)">
<stop stop-color="#4297E7"/>
<stop offset="1" stop-color="#0069CC"/>
</radialGradient>
<radialGradient id="paint27_radial_669_17456" cx="0" cy="0" r="1" gradientUnits="userSpaceOnUse" gradientTransform="translate(392.27 79.168) rotate(114.47) scale(637.055 541.761)">
<stop stop-color="#4297E7"/>
<stop offset="1" stop-color="#0069CC"/>
</radialGradient>
</defs>
</svg>
