<svg width="433" height="355" viewBox="0 0 433 355" fill="none" xmlns="http://www.w3.org/2000/svg">
<path d="M266.65 12.0107L301.41 33.6607C310.096 39.0707 317.661 46.1004 323.694 54.3665L288.925 32.7168C282.898 24.4486 275.336 17.4187 266.65 12.0107Z" fill="#A9AFB6"/>
<path d="M266.65 12.0107L301.41 33.6607C310.096 39.0707 317.661 46.1004 323.694 54.3665L288.925 32.7168C282.898 24.4486 275.336 17.4187 266.65 12.0107Z" fill="url(#paint0_radial_669_17304)"/>
<path d="M266.65 12.0107L301.41 33.6607C303.455 34.925 305.447 36.2587 307.368 37.7483L272.599 16.0983C270.678 14.6434 268.695 13.275 266.65 12.0107Z" fill="#A9AFB6"/>
<path d="M266.65 12.0107L301.41 33.6607C303.455 34.925 305.447 36.2587 307.368 37.7483L272.599 16.0983C270.678 14.6434 268.695 13.275 266.65 12.0107Z" fill="url(#paint1_radial_669_17304)"/>
<path d="M272.599 16.0986L307.368 37.7486C309.367 39.2669 311.294 40.8774 313.153 42.5805L278.393 20.9305C276.527 19.1987 274.597 17.5882 272.599 16.0986Z" fill="#A9AFB6"/>
<path d="M272.599 16.0986L307.368 37.7486C309.367 39.2669 311.294 40.8774 313.153 42.5805L278.393 20.9305C276.527 19.1987 274.597 17.5882 272.599 16.0986Z" fill="url(#paint2_radial_669_17304)"/>
<path d="M278.393 20.9302L313.153 42.5371C315.152 44.3684 317.055 46.3021 318.853 48.3306L284.048 26.7239C282.25 24.6976 280.351 22.7639 278.357 20.9304" fill="#A9AFB6"/>
<path d="M278.393 20.9302L313.153 42.5371C315.152 44.3684 317.055 46.3021 318.853 48.3306L284.048 26.7239C282.25 24.6976 280.351 22.7639 278.357 20.9304" fill="url(#paint3_radial_669_17304)"/>
<path d="M284.048 26.7231L318.817 48.3729C320.515 50.2781 322.129 52.2756 323.658 54.3656L288.924 32.7161C287.406 30.6261 285.781 28.6285 284.048 26.7231Z" fill="#A9AFB6"/>
<path d="M284.048 26.7231L318.817 48.3729C320.515 50.2781 322.129 52.2756 323.658 54.3656L288.924 32.7161C287.406 30.6261 285.781 28.6285 284.048 26.7231Z" fill="url(#paint4_radial_669_17304)"/>
<path d="M104.873 332.896L139.642 354.503C133.103 354.512 126.595 353.606 120.305 351.811L85.5447 330.204C91.8296 332.001 98.3356 332.907 104.873 332.896Z" fill="#A9AFB6"/>
<path d="M104.873 332.896L139.642 354.503C133.103 354.512 126.595 353.606 120.305 351.811L85.5447 330.204C91.8296 332.001 98.3356 332.907 104.873 332.896Z" fill="url(#paint5_radial_669_17304)"/>
<path d="M104.873 332.896L139.642 354.503C133.103 354.512 126.595 353.606 120.305 351.811L85.5447 330.204C91.8296 332.001 98.3356 332.907 104.873 332.896Z" fill="#A9AFB6"/>
<path d="M104.873 332.896L139.642 354.503C133.103 354.512 126.595 353.606 120.305 351.811L85.5447 330.204C91.8296 332.001 98.3356 332.907 104.873 332.896Z" fill="url(#paint6_radial_669_17304)"/>
<path d="M288.924 32.7163L323.694 54.3228L366.439 112.682L331.677 91.0756L288.924 32.7163Z" fill="#A9AFB6"/>
<path d="M288.924 32.7163L323.694 54.3228L366.439 112.682L331.677 91.0756L288.924 32.7163Z" fill="url(#paint7_radial_669_17304)"/>
<path d="M335.514 92.9292L370.284 114.536C374.024 116.865 374.796 119.316 375.583 119.81L340.822 98.2032C340.026 97.7095 339.263 95.2588 335.514 92.9292Z" fill="#A9AFB6"/>
<path d="M335.514 92.9292L370.284 114.536C374.024 116.865 374.796 119.316 375.583 119.81L340.822 98.2032C340.026 97.7095 339.263 95.2588 335.514 92.9292Z" fill="url(#paint8_radial_669_17304)"/>
<path d="M335.514 92.9292L370.284 114.536C370.735 114.821 371.15 115.099 371.504 115.402L336.734 93.7951C336.372 93.5181 335.965 93.2409 335.514 92.9292Z" fill="#A9AFB6"/>
<path d="M335.514 92.9292L370.284 114.536C370.735 114.821 371.15 115.099 371.504 115.402L336.734 93.7951C336.372 93.5181 335.965 93.2409 335.514 92.9292Z" fill="url(#paint9_radial_669_17304)"/>
<path d="M336.734 93.7689L371.513 115.376C371.902 115.67 372.249 115.964 372.561 116.242L337.791 94.5915C337.479 94.3059 337.132 94.0114 336.743 93.7256" fill="#A9AFB6"/>
<path d="M336.734 93.7689L371.513 115.376C371.902 115.67 372.249 115.964 372.561 116.242L337.791 94.5915C337.479 94.3059 337.132 94.0114 336.743 93.7256" fill="url(#paint10_radial_669_17304)"/>
<path d="M337.783 94.644L372.552 116.294C372.917 116.632 373.229 116.952 373.505 117.264L338.744 95.6139C338.468 95.3022 338.147 94.9816 337.783 94.644Z" fill="#A9AFB6"/>
<path d="M337.783 94.644L372.552 116.294C372.917 116.632 373.229 116.952 373.505 117.264L338.744 95.6139C338.468 95.3022 338.147 94.9816 337.783 94.644Z" fill="url(#paint11_radial_669_17304)"/>
<path d="M338.744 95.6138L373.504 117.264C374.371 118.277 374.891 119.134 375.289 119.585L340.528 97.9783C340.121 97.528 339.661 96.6705 338.744 95.6573" fill="#A9AFB6"/>
<path d="M338.744 95.6138L373.504 117.264C374.371 118.277 374.891 119.134 375.289 119.585L340.528 97.9783C340.121 97.528 339.661 96.6705 338.744 95.6573" fill="url(#paint12_radial_669_17304)"/>
<path d="M340.528 97.9356L375.289 119.508L375.419 119.646L340.658 98.0395L340.528 97.9009" fill="#A9AFB6"/>
<path d="M340.528 97.9356L375.289 119.508L375.419 119.646L340.658 98.0395L340.528 97.9009" fill="url(#paint13_radial_669_17304)"/>
<path d="M340.658 98.0723L375.419 119.679L375.514 119.757L340.744 98.1501L340.658 98.0723Z" fill="#A9AFB6"/>
<path d="M340.658 98.0723L375.419 119.679L375.514 119.757L340.744 98.1501L340.658 98.0723Z" fill="url(#paint14_radial_669_17304)"/>
<path d="M340.745 98.1514L375.514 119.758L375.574 119.802L340.813 98.1518L340.745 98.1514Z" fill="#A9AFB6"/>
<path d="M340.745 98.1514L375.514 119.758L375.574 119.802L340.813 98.1518L340.745 98.1514Z" fill="url(#paint15_radial_669_17304)"/>
<path d="M340.813 98.1943L375.574 119.801L375.582 119.809L340.822 98.203L340.813 98.1943Z" fill="#A9AFB6"/>
<path d="M340.813 98.1943L375.574 119.801L375.582 119.809L340.822 98.203L340.813 98.1943Z" fill="url(#paint16_radial_669_17304)"/>
<path d="M236.478 332.896L271.239 354.503H139.642L104.873 332.896H236.478Z" fill="#A9AFB6"/>
<path d="M236.478 332.896L271.239 354.503H139.642L104.873 332.896H236.478Z" fill="url(#paint17_radial_669_17304)"/>
<path d="M357.537 103.251L392.298 124.901C402.872 131.475 409.435 143.857 408.405 158.025C407.954 164.065 406.179 169.93 403.21 175.206L368.447 153.608C371.414 148.327 373.187 142.46 373.644 136.42C374.666 122.208 368.102 109.824 357.537 103.251Z" fill="#A9AFB6"/>
<path d="M357.537 103.251L392.298 124.901C402.872 131.475 409.435 143.857 408.405 158.025C407.954 164.065 406.179 169.93 403.21 175.206L368.447 153.608C371.414 148.327 373.187 142.46 373.644 136.42C374.666 122.208 368.102 109.824 357.537 103.251Z" fill="url(#paint18_radial_669_17304)"/>
<path d="M357.537 103.251L392.298 124.901C393.165 125.438 394.029 126.019 394.8 126.634L360.04 105.027C359.233 104.42 358.393 103.84 357.537 103.295" fill="#A9AFB6"/>
<path d="M357.537 103.251L392.298 124.901C393.165 125.438 394.029 126.019 394.8 126.634L360.04 105.027C359.233 104.42 358.393 103.84 357.537 103.295" fill="url(#paint19_radial_669_17304)"/>
<path d="M360.039 104.975L394.8 126.581C395.666 127.222 396.462 127.899 397.243 128.617L362.471 106.967C361.693 106.248 360.879 105.573 360.039 104.932" fill="#A9AFB6"/>
<path d="M360.039 104.975L394.8 126.581C395.666 127.222 396.462 127.899 397.243 128.617L362.471 106.967C361.693 106.248 360.879 105.573 360.039 104.932" fill="url(#paint20_radial_669_17304)"/>
<path d="M362.471 107.011L397.243 128.662C398.107 129.431 398.87 130.247 399.633 131.096L364.863 109.445C364.107 108.593 363.309 107.781 362.471 107.011Z" fill="#A9AFB6"/>
<path d="M362.471 107.011L397.243 128.662C398.107 129.431 398.87 130.247 399.633 131.096L364.863 109.445C364.107 108.593 363.309 107.781 362.471 107.011Z" fill="url(#paint21_radial_669_17304)"/>
<path d="M364.863 109.444L399.633 131.095C400.493 132.066 401.295 133.087 402.04 134.15L367.28 112.501C366.53 111.439 365.723 110.419 364.863 109.444Z" fill="#A9AFB6"/>
<path d="M364.863 109.444L399.633 131.095C400.493 132.066 401.295 133.087 402.04 134.15L367.28 112.501C366.53 111.439 365.723 110.419 364.863 109.444Z" fill="url(#paint22_radial_669_17304)"/>
<path d="M367.279 112.501L402.04 134.151C402.984 135.495 403.833 136.905 404.578 138.369L369.782 116.719C369.039 115.255 368.194 113.846 367.253 112.502" fill="#A9AFB6"/>
<path d="M367.279 112.501L402.04 134.151C402.984 135.495 403.833 136.905 404.578 138.369L369.782 116.719C369.039 115.255 368.194 113.846 367.253 112.502" fill="url(#paint23_radial_669_17304)"/>
<path d="M369.782 116.719L404.551 138.324C407.573 144.359 408.9 151.1 408.387 157.827L373.617 136.228C374.13 129.499 372.804 122.755 369.782 116.719Z" fill="#A9AFB6"/>
<path d="M369.782 116.719L404.551 138.324C407.573 144.359 408.9 151.1 408.387 157.827L373.617 136.228C374.13 129.499 372.804 122.755 369.782 116.719Z" fill="url(#paint24_radial_669_17304)"/>
<path d="M373.644 136.228L408.413 157.826C408.413 157.879 408.413 157.93 408.413 157.983C408.287 159.672 408.06 161.352 407.73 163.015L372.958 141.363C373.292 139.703 373.522 138.023 373.644 136.332C373.648 136.283 373.648 136.235 373.644 136.186" fill="#A9AFB6"/>
<path d="M373.644 136.228L408.413 157.826C408.413 157.879 408.413 157.93 408.413 157.983C408.287 159.672 408.06 161.352 407.73 163.015L372.958 141.363C373.292 139.703 373.522 138.023 373.644 136.332C373.648 136.283 373.648 136.235 373.644 136.186" fill="url(#paint25_radial_669_17304)"/>
<path d="M372.95 141.408L407.721 163.057C407.454 164.399 407.118 165.726 406.715 167.034L371.946 145.383C372.348 144.076 372.684 142.75 372.95 141.408Z" fill="#A9AFB6"/>
<path d="M372.95 141.408L407.721 163.057C407.454 164.399 407.118 165.726 406.715 167.034L371.946 145.383C372.348 144.076 372.684 142.75 372.95 141.408Z" fill="url(#paint26_radial_669_17304)"/>
<path d="M371.946 145.383L406.716 167.034C406.362 168.193 405.953 169.338 405.504 170.454L370.735 148.805C371.192 147.686 371.599 146.543 371.946 145.341" fill="#A9AFB6"/>
<path d="M371.946 145.383L406.716 167.034C406.362 168.193 405.953 169.338 405.504 170.454L370.735 148.805C371.192 147.686 371.599 146.543 371.946 145.341" fill="url(#paint27_radial_669_17304)"/>
<path d="M370.735 148.804L405.504 170.409C405.08 171.466 404.638 172.496 404.1 173.511L369.331 151.86C369.842 150.847 370.31 149.817 370.735 148.76" fill="#A9AFB6"/>
<path d="M370.735 148.804L405.504 170.409C405.08 171.466 404.638 172.496 404.1 173.511L369.331 151.86C369.842 150.847 370.31 149.817 370.735 148.76" fill="url(#paint28_radial_669_17304)"/>
<path d="M369.331 151.904L404.1 173.553C403.815 174.117 403.53 174.663 403.233 175.209L368.473 153.61C368.776 153.064 369.072 152.51 369.339 151.948" fill="#A9AFB6"/>
<path d="M369.331 151.904L404.1 173.553C403.815 174.117 403.53 174.663 403.233 175.209L368.473 153.61C368.776 153.064 369.072 152.51 369.339 151.948" fill="url(#paint29_radial_669_17304)"/>
<path d="M309.82 283.309L344.589 304.96C331.599 333.962 302.918 354.546 271.239 354.546L236.478 332.941C268.157 332.897 296.794 312.313 309.82 283.309Z" fill="#A9AFB6"/>
<path d="M309.82 283.309L344.589 304.96C331.599 333.962 302.918 354.546 271.239 354.546L236.478 332.941C268.157 332.897 296.794 312.313 309.82 283.309Z" fill="url(#paint30_radial_669_17304)"/>
<path d="M309.819 283.308L344.589 304.959C344.078 306.085 343.55 307.201 342.995 308.302L308.234 286.644C308.78 285.543 309.318 284.427 309.819 283.299" fill="#A9AFB6"/>
<path d="M309.819 283.308L344.589 304.959C344.078 306.085 343.55 307.201 342.995 308.302L308.234 286.644C308.78 285.543 309.318 284.427 309.819 283.299" fill="url(#paint31_radial_669_17304)"/>
<path d="M308.235 286.645L342.995 308.294C341.981 310.314 340.891 312.286 339.732 314.207L304.969 292.558C306.126 290.635 307.213 288.665 308.235 286.645Z" fill="#A9AFB6"/>
<path d="M308.235 286.645L342.995 308.294C341.981 310.314 340.891 312.286 339.732 314.207L304.969 292.558C306.126 290.635 307.213 288.665 308.235 286.645Z" fill="url(#paint32_radial_669_17304)"/>
<path d="M304.969 292.567L339.732 314.219C338.576 316.146 337.336 318.03 336.007 319.874L301.247 298.267C302.553 296.429 303.8 294.541 304.969 292.612" fill="#A9AFB6"/>
<path d="M304.969 292.567L339.732 314.219C338.576 316.146 337.336 318.03 336.007 319.874L301.247 298.267C302.553 296.429 303.8 294.541 304.969 292.612" fill="url(#paint33_radial_669_17304)"/>
<path d="M301.247 298.222L336.007 319.829C334.657 321.717 333.228 323.552 331.73 325.321L296.96 303.669C298.459 301.938 299.887 300.068 301.247 298.18" fill="#A9AFB6"/>
<path d="M301.247 298.222L336.007 319.829C334.657 321.717 333.228 323.552 331.73 325.321L296.96 303.669C298.459 301.938 299.887 300.068 301.247 298.18" fill="url(#paint34_radial_669_17304)"/>
<path d="M296.96 303.713L331.73 325.362C330.127 327.268 328.438 329.094 326.689 330.836L291.92 309.16C293.651 307.427 295.331 305.601 296.96 303.678" fill="#A9AFB6"/>
<path d="M296.96 303.713L331.73 325.362C330.127 327.268 328.438 329.094 326.689 330.836L291.92 309.16C293.651 307.427 295.331 305.601 296.96 303.678" fill="url(#paint35_radial_669_17304)"/>
<path d="M291.92 309.16L326.689 330.809C324.715 332.772 322.657 334.632 320.515 336.387L285.778 314.762C287.927 313.031 289.985 311.174 291.955 309.193" fill="#A9AFB6"/>
<path d="M291.92 309.16L326.689 330.809C324.715 332.772 322.657 334.632 320.515 336.387L285.778 314.762C287.927 313.031 289.985 311.174 291.955 309.193" fill="url(#paint36_radial_669_17304)"/>
<path d="M285.779 314.763L320.55 336.37C317.92 338.523 315.161 340.517 312.287 342.336L277.518 320.729C280.391 318.912 283.15 316.92 285.779 314.763Z" fill="#A9AFB6"/>
<path d="M285.779 314.763L320.55 336.37C317.92 338.523 315.161 340.517 312.287 342.336L277.518 320.729C280.391 318.912 283.15 316.92 285.779 314.763Z" fill="url(#paint37_radial_669_17304)"/>
<path d="M277.484 320.729L312.253 342.336C300.013 350.201 285.787 354.421 271.239 354.503L236.478 332.896C251.024 332.812 265.246 328.594 277.484 320.729Z" fill="#A9AFB6"/>
<path d="M277.484 320.729L312.253 342.336C300.013 350.201 285.787 354.421 271.239 354.503L236.478 332.896C251.024 332.812 265.246 328.594 277.484 320.729Z" fill="url(#paint38_radial_669_17304)"/>
<path d="M382 158.313L416.77 179.912C427.343 186.484 433.909 198.877 432.886 213.043C431.449 232.718 415.87 248.964 397.311 250.956L362.542 229.307C381.109 227.315 396.688 211.069 398.116 191.394C399.146 177.27 392.574 164.886 382 158.313Z" fill="#A9AFB6"/>
<path d="M382 158.313L416.77 179.912C427.343 186.484 433.909 198.877 432.886 213.043C431.449 232.718 415.87 248.964 397.311 250.956L362.542 229.307C381.109 227.315 396.688 211.069 398.116 191.394C399.146 177.27 392.574 164.886 382 158.313Z" fill="url(#paint39_radial_669_17304)"/>
<path d="M382 158.312L416.77 179.911C417.637 180.446 418.503 181.027 419.272 181.642L384.503 159.992C383.698 159.385 382.867 158.805 382 158.259" fill="#A9AFB6"/>
<path d="M382 158.312L416.77 179.911C417.637 180.446 418.503 181.027 419.272 181.642L384.503 159.992C383.698 159.385 382.867 158.805 382 158.259" fill="url(#paint40_radial_669_17304)"/>
<path d="M384.502 160.026L419.272 181.678C420.138 182.319 420.928 182.993 421.697 183.711L386.936 162.062C386.156 161.344 385.342 160.667 384.502 160.026Z" fill="#A9AFB6"/>
<path d="M384.502 160.026L419.272 181.678C420.138 182.319 420.928 182.993 421.697 183.711L386.936 162.062C386.156 161.344 385.342 160.667 384.502 160.026Z" fill="url(#paint41_radial_669_17304)"/>
<path d="M386.937 162.062L421.697 183.711C422.544 184.483 423.346 185.298 424.105 186.154L389.344 164.538C388.583 163.685 387.779 162.869 386.937 162.097" fill="#A9AFB6"/>
<path d="M386.937 162.062L421.697 183.711C422.544 184.483 423.346 185.298 424.105 186.154L389.344 164.538C388.583 163.685 387.779 162.869 386.937 162.097" fill="url(#paint42_radial_669_17304)"/>
<path d="M389.344 164.539L424.105 186.146C424.965 187.121 425.772 188.14 426.521 189.203L391.752 167.596C391.009 166.533 390.204 165.511 389.344 164.539Z" fill="#A9AFB6"/>
<path d="M389.344 164.539L424.105 186.146C424.965 187.121 425.772 188.14 426.521 189.203L391.752 167.596C391.009 166.533 390.204 165.511 389.344 164.539Z" fill="url(#paint43_radial_669_17304)"/>
<path d="M391.751 167.562L426.521 189.167C427.491 190.526 428.36 191.957 429.118 193.447L394.349 171.84C393.591 170.352 392.722 168.922 391.751 167.562Z" fill="#A9AFB6"/>
<path d="M391.751 167.562L426.521 189.167C427.491 190.526 428.36 191.957 429.118 193.447L394.349 171.84C393.591 170.352 392.722 168.922 391.751 167.562Z" fill="url(#paint44_radial_669_17304)"/>
<path d="M394.316 171.837L429.086 193.445C432.085 199.464 433.401 206.18 432.895 212.887L398.125 191.236C398.64 184.531 397.323 177.811 394.316 171.795" fill="#A9AFB6"/>
<path d="M394.316 171.837L429.086 193.445C432.085 199.464 433.401 206.18 432.895 212.887L398.125 191.236C398.64 184.531 397.323 177.811 394.316 171.795" fill="url(#paint45_radial_669_17304)"/>
<path d="M398.125 191.28L432.894 212.929V213.033C432.768 214.713 432.541 216.38 432.211 218.032L397.451 196.425C397.778 194.773 398.003 193.106 398.125 191.428V191.271" fill="#A9AFB6"/>
<path d="M398.125 191.28L432.894 212.929V213.033C432.768 214.713 432.541 216.38 432.211 218.032L397.451 196.425C397.778 194.773 398.003 193.106 398.125 191.428V191.271" fill="url(#paint46_radial_669_17304)"/>
<path d="M397.442 196.434L432.202 218.041C431.935 219.387 431.599 220.72 431.199 222.033L396.436 200.426C396.838 199.113 397.174 197.78 397.442 196.434Z" fill="#A9AFB6"/>
<path d="M397.442 196.434L432.202 218.041C431.935 219.387 431.599 220.72 431.199 222.033L396.436 200.426C396.838 199.113 397.174 197.78 397.442 196.434Z" fill="url(#paint47_radial_669_17304)"/>
<path d="M396.436 200.426L431.199 222.033C430.843 223.194 430.445 224.328 429.994 225.436L395.224 203.828C395.675 202.721 396.091 201.587 396.436 200.426Z" fill="#A9AFB6"/>
<path d="M396.436 200.426L431.199 222.033C430.843 223.194 430.445 224.328 429.994 225.436L395.224 203.828C395.675 202.721 396.091 201.587 396.436 200.426Z" fill="url(#paint48_radial_669_17304)"/>
<path d="M395.225 203.829L429.994 225.436C429.57 226.492 429.128 227.523 428.59 228.535L393.83 206.972C394.332 205.96 394.8 204.93 395.225 203.873" fill="#A9AFB6"/>
<path d="M395.225 203.829L429.994 225.436C429.57 226.492 429.128 227.523 428.59 228.535L393.83 206.972C394.332 205.96 394.8 204.93 395.225 203.873" fill="url(#paint49_radial_669_17304)"/>
<path d="M393.83 206.972L428.59 228.579C428.097 229.567 427.569 230.529 426.998 231.473L392.229 209.821C392.799 208.886 393.337 207.916 393.83 206.93" fill="#A9AFB6"/>
<path d="M393.83 206.972L428.59 228.579C428.097 229.567 427.569 230.529 426.998 231.473L392.229 209.821C392.799 208.886 393.337 207.916 393.83 206.93" fill="url(#paint50_radial_669_17304)"/>
<path d="M392.229 209.821L426.998 231.473C426.426 232.417 425.82 233.343 425.179 234.234L390.41 212.585C391.051 211.718 391.656 210.765 392.229 209.821Z" fill="#A9AFB6"/>
<path d="M392.229 209.821L426.998 231.473C426.426 232.417 425.82 233.343 425.179 234.234L390.41 212.585C391.051 211.718 391.656 210.765 392.229 209.821Z" fill="url(#paint51_radial_669_17304)"/>
<path d="M390.41 212.585L425.179 234.234C424.509 235.158 423.809 236.058 423.075 236.936L388.314 215.286C389.05 214.42 389.742 213.555 390.41 212.585Z" fill="#A9AFB6"/>
<path d="M390.41 212.585L425.179 234.234C424.509 235.158 423.809 236.058 423.075 236.936L388.314 215.286C389.05 214.42 389.742 213.555 390.41 212.585Z" fill="url(#paint52_radial_669_17304)"/>
<path d="M388.314 215.287L423.074 236.936C422.287 237.864 421.463 238.764 420.607 239.613L385.838 218.006C386.702 217.139 387.524 216.273 388.314 215.329" fill="#A9AFB6"/>
<path d="M388.314 215.287L423.074 236.936C422.287 237.864 421.463 238.764 420.607 239.613L385.838 218.006C386.702 217.139 387.524 216.273 388.314 215.329" fill="url(#paint53_radial_669_17304)"/>
<path d="M385.838 217.961L420.607 239.569C419.646 240.521 418.649 241.43 417.61 242.279L382.84 220.672C383.884 219.821 384.885 218.914 385.838 217.961Z" fill="#A9AFB6"/>
<path d="M385.838 217.961L420.607 239.569C419.646 240.521 418.649 241.43 417.61 242.279L382.84 220.672C383.884 219.821 384.885 218.914 385.838 217.961Z" fill="url(#paint54_radial_669_17304)"/>
<path d="M382.841 220.672L417.61 242.279C416.315 243.34 414.957 244.322 413.54 245.215L378.771 223.566C380.186 222.67 381.545 221.691 382.841 220.63" fill="#A9AFB6"/>
<path d="M382.841 220.672L417.61 242.279C416.315 243.34 414.957 244.322 413.54 245.215L378.771 223.566C380.186 222.67 381.545 221.691 382.841 220.63" fill="url(#paint55_radial_669_17304)"/>
<path d="M378.771 223.607L413.54 245.258C408.641 248.389 403.088 250.352 397.311 250.999L362.542 229.35C368.321 228.705 373.872 226.739 378.771 223.607Z" fill="#A9AFB6"/>
<path d="M378.771 223.607L413.54 245.258C408.641 248.389 403.088 250.352 397.311 250.999L362.542 229.35C368.321 228.705 373.872 226.739 378.771 223.607Z" fill="url(#paint56_radial_669_17304)"/>
<path d="M362.542 229.351L397.311 251C399.783 256.655 400.822 262.833 400.333 268.986C398.81 290.011 381.133 307.089 360.948 307.089C355.432 306.989 349.945 306.269 344.589 304.942L309.819 283.291C315.176 284.62 320.663 285.338 326.178 285.44C346.373 285.44 364.04 268.345 365.572 247.337C366.057 241.182 365.015 235.005 362.542 229.351Z" fill="#A9AFB6"/>
<path d="M362.542 229.351L397.311 251C399.783 256.655 400.822 262.833 400.333 268.986C398.81 290.011 381.133 307.089 360.948 307.089C355.432 306.989 349.945 306.269 344.589 304.942L309.819 283.291C315.176 284.62 320.663 285.338 326.178 285.44C346.373 285.44 364.04 268.345 365.572 247.337C366.057 241.182 365.015 235.005 362.542 229.351Z" fill="url(#paint57_radial_669_17304)"/>
<path d="M362.542 229.351L397.311 251C399.765 256.613 400.807 262.738 400.342 268.846L365.582 247.239C366.041 241.131 364.998 235.003 362.542 229.393" fill="#A9AFB6"/>
<path d="M362.542 229.351L397.311 251C399.765 256.613 400.807 262.738 400.342 268.846L365.582 247.239C366.041 241.131 364.998 235.003 362.542 229.393" fill="url(#paint58_radial_669_17304)"/>
<path d="M365.582 247.198L400.343 268.805V268.942C400.225 270.618 399.998 272.284 399.666 273.931L364.906 252.324C365.228 250.68 365.454 249.017 365.582 247.344V247.198Z" fill="#A9AFB6"/>
<path d="M365.582 247.198L400.343 268.805V268.942C400.225 270.618 399.998 272.284 399.666 273.931L364.906 252.324C365.228 250.68 365.454 249.017 365.582 247.344V247.198Z" fill="url(#paint59_radial_669_17304)"/>
<path d="M364.896 252.324L399.659 273.929C399.392 275.282 399.056 276.622 398.653 277.939L363.884 256.332C364.293 255.017 364.631 253.677 364.896 252.324Z" fill="#A9AFB6"/>
<path d="M364.896 252.324L399.659 273.929C399.392 275.282 399.056 276.622 398.653 277.939L363.884 256.332C364.293 255.017 364.631 253.677 364.896 252.324Z" fill="url(#paint60_radial_669_17304)"/>
<path d="M363.884 256.332L398.653 277.983C398.3 279.144 397.891 280.278 397.442 281.394L362.679 259.745C363.13 258.629 363.546 257.493 363.884 256.332Z" fill="#A9AFB6"/>
<path d="M363.884 256.332L398.653 277.983C398.3 279.144 397.891 280.278 397.442 281.394L362.679 259.745C363.13 258.629 363.546 257.493 363.884 256.332Z" fill="url(#paint61_radial_669_17304)"/>
<path d="M362.679 259.745L397.442 281.352C397.017 282.4 396.575 283.43 396.047 284.443L361.277 262.836C361.786 261.825 362.252 260.795 362.679 259.745Z" fill="#A9AFB6"/>
<path d="M362.679 259.745L397.442 281.352C397.017 282.4 396.575 283.43 396.047 284.443L361.277 262.836C361.786 261.825 362.252 260.795 362.679 259.745Z" fill="url(#paint62_radial_669_17304)"/>
<path d="M361.277 262.835L396.047 284.443C395.554 285.431 395.017 286.392 394.444 287.336L359.684 265.729C360.247 264.785 360.784 263.824 361.277 262.835Z" fill="#A9AFB6"/>
<path d="M361.277 262.835L396.047 284.443C395.554 285.431 395.017 286.392 394.444 287.336L359.684 265.729C360.247 264.785 360.784 263.824 361.277 262.835Z" fill="url(#paint63_radial_669_17304)"/>
<path d="M359.683 265.729L394.444 287.337C393.874 288.289 393.268 289.207 392.627 290.107L357.857 268.499C358.496 267.635 359.113 266.682 359.683 265.729Z" fill="#A9AFB6"/>
<path d="M359.683 265.729L394.444 287.337C393.874 288.289 393.268 289.207 392.627 290.107L357.857 268.499C358.496 267.635 359.113 266.682 359.683 265.729Z" fill="url(#paint64_radial_669_17304)"/>
<path d="M357.857 268.5L392.627 290.107C391.959 291.033 391.258 291.935 390.522 292.801L355.762 271.194C356.489 270.328 357.19 269.461 357.857 268.5Z" fill="#A9AFB6"/>
<path d="M357.857 268.5L392.627 290.107C391.959 291.033 391.258 291.935 390.522 292.801L355.762 271.194C356.489 270.328 357.19 269.461 357.857 268.5Z" fill="url(#paint65_radial_669_17304)"/>
<path d="M355.762 271.195L390.565 292.8C389.787 293.726 388.964 294.619 388.106 295.477L353.328 273.87C354.188 273.01 355.01 272.117 355.795 271.195" fill="#A9AFB6"/>
<path d="M355.762 271.195L390.565 292.8C389.787 293.726 388.964 294.619 388.106 295.477L353.328 273.87C354.188 273.01 355.01 272.117 355.795 271.195" fill="url(#paint66_radial_669_17304)"/>
<path d="M353.328 273.87L388.097 295.477C387.133 296.43 386.128 297.336 385.084 298.196L350.315 276.589C351.358 275.729 352.364 274.822 353.328 273.87Z" fill="#A9AFB6"/>
<path d="M353.328 273.87L388.097 295.477C387.133 296.43 386.128 297.336 385.084 298.196L350.315 276.589C351.358 275.729 352.364 274.822 353.328 273.87Z" fill="url(#paint67_radial_669_17304)"/>
<path d="M350.279 276.588L385.049 298.195C383.762 299.25 382.412 300.225 381.006 301.114L346.234 279.506C347.642 278.62 348.993 277.645 350.279 276.588Z" fill="#A9AFB6"/>
<path d="M350.279 276.588L385.049 298.195C383.762 299.25 382.412 300.225 381.006 301.114L346.234 279.506C347.642 278.62 348.993 277.645 350.279 276.588Z" fill="url(#paint68_radial_669_17304)"/>
<path d="M346.234 279.506L381.039 301.113C375.054 304.96 368.097 307.025 360.983 307.062C355.466 306.963 349.979 306.242 344.624 304.916L309.855 283.264C315.209 284.593 320.696 285.312 326.214 285.413C333.328 285.373 340.285 283.311 346.269 279.464" fill="#A9AFB6"/>
<path d="M346.234 279.506L381.039 301.113C375.054 304.96 368.097 307.025 360.983 307.062C355.466 306.963 349.979 306.242 344.624 304.916L309.855 283.264C315.209 284.593 320.696 285.312 326.214 285.413C333.328 285.373 340.285 283.311 346.269 279.464" fill="url(#paint69_radial_669_17304)"/>
<path d="M223.946 0C250.014 0 273.699 11.9246 288.898 32.7173L331.676 91.0768C339.332 93.9431 339.913 98.1085 341.03 98.2818C360.601 98.966 375.131 115.792 373.635 136.386C373.177 142.425 371.404 148.293 368.438 153.576C386.494 155.758 399.52 171.918 398.098 191.445C396.67 211.122 381.091 227.368 362.524 229.358C364.998 235.017 366.039 241.198 365.555 247.355C364.021 268.372 346.355 285.458 326.161 285.458C320.645 285.359 315.156 284.638 309.802 283.311C296.812 312.313 268.139 332.897 236.46 332.897H104.828C98.2913 332.908 91.7853 332.002 85.5004 330.204L23.2523 284.817C6.9287 269.957 -1.48954 247.987 0.217099 224.536L10.877 77.9397C14.0029 34.9602 50.1341 0 91.4139 0H223.946Z" fill="#228DFD"/>
<g filter="url(#filter0_d_669_17304)">
<path fill-rule="evenodd" clip-rule="evenodd" d="M46.075 80.0212C47.5054 55.3621 68.688 35.3721 93.3878 35.3721H233.469C250.77 35.3721 266.738 43.0181 277.084 56.255L301.637 89.9834C308.74 97.9805 312.753 108.767 312.065 120.636L304.01 259.476C302.579 284.136 281.397 304.127 256.695 304.127H117.601C106.141 304.127 95.939 299.825 88.4359 292.751L51.8294 263.17C41.9543 254.69 36.6775 242.014 37.4534 228.633L46.075 80.0212ZM76.7481 272.913C75.6538 268.673 75.194 264.158 75.4659 259.476L83.5194 120.636C84.9497 95.9765 106.135 75.9865 130.834 75.9865H269.93C274.431 75.9865 278.739 76.6504 282.765 77.8853L270.171 61.7701C261.348 50.48 247.728 43.9583 232.972 43.9583H92.8904C72.9391 43.9583 55.8307 60.1042 54.6746 80.0212L46.0529 228.633C45.4273 239.441 49.6895 249.679 57.6656 256.529L76.7481 272.913ZM130.337 84.5728C110.386 84.5728 93.2773 100.719 92.1211 120.636L84.0676 259.476C82.9114 279.394 98.1474 295.539 118.099 295.539H257.194C277.143 295.539 294.254 279.394 295.41 259.476L303.464 120.636C304.62 100.719 289.382 84.5728 269.432 84.5728H130.337Z" fill="#E5EDF6"/>
<path fill-rule="evenodd" clip-rule="evenodd" d="M146.665 128.289L190.949 178.19L194.944 109.33C176.916 110.295 160.134 117.267 146.665 128.289ZM203.543 109.33C212.93 109.835 221.777 111.989 229.826 115.506C231.955 116.437 234.541 115.424 235.6 113.243C236.659 111.063 235.79 108.54 233.661 107.609C223.375 103.114 211.917 100.629 199.747 100.629C176.252 100.629 154.369 109.889 137.747 124.955C120.066 140.98 108.312 163.593 106.859 188.64C105.451 212.906 113.978 234.889 128.902 250.808C143.859 266.767 165.263 276.649 189.536 276.649C201.706 276.649 213.451 274.164 224.259 269.67C226.497 268.739 227.659 266.217 226.853 264.035C226.046 261.855 223.579 260.843 221.341 261.773C212.883 265.291 203.786 267.444 194.342 267.948L198.295 199.797L220.57 224.897C222.102 226.621 224.819 226.699 226.64 225.072C228.462 223.445 228.698 220.728 227.166 219.004L204.032 192.933H221.142C223.519 192.933 225.555 191.01 225.692 188.64C225.831 186.268 224.016 184.347 221.642 184.347H204.37L232.127 157.75C233.891 156.061 234.028 153.342 232.432 151.68C230.836 150.017 228.11 150.039 226.346 151.728L199.597 177.359L203.543 109.33ZM184.584 184.347L140.112 134.233C126.924 147.475 117.973 164.988 115.824 184.347H184.584ZM115.324 192.933C115.233 211.591 121.658 228.534 132.554 241.592L183.342 192.933H115.324ZM189.78 198.325L138.26 247.687C150.618 259.461 167.131 266.946 185.741 267.948L189.78 198.325Z" fill="#E5EDF6"/>
<path fill-rule="evenodd" clip-rule="evenodd" d="M313.651 130.439C287.62 118.428 268.239 125.43 254.643 130.532C242.741 135.002 226.517 135.84 219.953 135.741C217.581 135.705 215.8 133.755 215.972 131.383C216.144 129.013 218.209 127.121 220.581 127.157C226.807 127.249 241.706 126.389 252.024 122.518C266.201 117.197 288.444 109.14 317.636 122.611C339.462 132.683 353.812 134.973 357.676 134.973C360.053 134.973 361.865 136.897 361.728 139.267C361.591 141.639 359.555 143.56 357.179 143.56C351.594 143.56 336 140.754 313.651 130.439Z" fill="#E5EDF6"/>
<path fill-rule="evenodd" clip-rule="evenodd" d="M307.096 242.339C281.151 229.831 261.815 237.115 248.21 242.438C236.27 247.109 220.017 247.987 213.445 247.883C211.073 247.845 209.291 245.893 209.466 243.521C209.643 241.152 211.708 239.259 214.08 239.297C220.294 239.396 235.172 238.499 245.471 234.469C259.666 228.913 281.991 220.484 311.203 234.568C333.003 245.078 347.323 247.456 351.152 247.456C353.527 247.456 355.342 249.377 355.204 251.749C355.065 254.119 353.029 256.043 350.655 256.043C345.033 256.043 329.421 253.102 307.096 242.339Z" fill="#E5EDF6"/>
<path fill-rule="evenodd" clip-rule="evenodd" d="M340.485 185.669C314.541 173.161 295.204 180.445 281.6 185.768C269.66 190.439 253.407 191.317 246.837 191.213C244.463 191.175 242.681 189.223 242.858 186.854C243.032 184.482 245.097 182.591 247.469 182.627C253.683 182.726 268.561 181.829 278.861 177.799C293.056 172.243 315.383 163.814 344.593 177.898C366.392 188.408 380.713 190.786 384.542 190.786C386.916 190.786 388.731 192.707 388.594 195.08C388.455 197.449 386.419 199.373 384.045 199.373C378.423 199.373 362.813 196.432 340.485 185.669Z" fill="#E5EDF6"/>
</g>
<defs>
<filter id="filter0_d_669_17304" x="35.8222" y="35.3721" width="354.335" height="273.035" filterUnits="userSpaceOnUse" color-interpolation-filters="sRGB">
<feFlood flood-opacity="0" result="BackgroundImageFix"/>
<feColorMatrix in="SourceAlpha" type="matrix" values="0 0 0 0 0 0 0 0 0 0 0 0 0 0 0 0 0 0 127 0" result="hardAlpha"/>
<feOffset dy="2.72342"/>
<feGaussianBlur stdDeviation="0.77812"/>
<feComposite in2="hardAlpha" operator="out"/>
<feColorMatrix type="matrix" values="0 0 0 0 0.065625 0 0 0 0 0.419165 0 0 0 0 0.75 0 0 0 1 0"/>
<feBlend mode="normal" in2="BackgroundImageFix" result="effect1_dropShadow_669_17304"/>
<feBlend mode="normal" in="SourceGraphic" in2="effect1_dropShadow_669_17304" result="shape"/>
</filter>
<radialGradient id="paint0_radial_669_17304" cx="0" cy="0" r="1" gradientUnits="userSpaceOnUse" gradientTransform="translate(456.509 69.2006) rotate(126.894) scale(565.527 612.462)">
<stop stop-color="#4297E7"/>
<stop offset="1" stop-color="#0069CC"/>
</radialGradient>
<radialGradient id="paint1_radial_669_17304" cx="0" cy="0" r="1" gradientUnits="userSpaceOnUse" gradientTransform="translate(456.509 69.2006) rotate(126.894) scale(565.527 612.462)">
<stop stop-color="#4297E7"/>
<stop offset="1" stop-color="#0069CC"/>
</radialGradient>
<radialGradient id="paint2_radial_669_17304" cx="0" cy="0" r="1" gradientUnits="userSpaceOnUse" gradientTransform="translate(456.509 69.201) rotate(126.894) scale(565.527 612.462)">
<stop stop-color="#4297E7"/>
<stop offset="1" stop-color="#0069CC"/>
</radialGradient>
<radialGradient id="paint3_radial_669_17304" cx="0" cy="0" r="1" gradientUnits="userSpaceOnUse" gradientTransform="translate(456.509 69.2006) rotate(126.894) scale(565.528 612.463)">
<stop stop-color="#4297E7"/>
<stop offset="1" stop-color="#0069CC"/>
</radialGradient>
<radialGradient id="paint4_radial_669_17304" cx="0" cy="0" r="1" gradientUnits="userSpaceOnUse" gradientTransform="translate(456.509 69.1999) rotate(126.894) scale(565.527 612.462)">
<stop stop-color="#4297E7"/>
<stop offset="1" stop-color="#0069CC"/>
</radialGradient>
<radialGradient id="paint5_radial_669_17304" cx="0" cy="0" r="1" gradientUnits="userSpaceOnUse" gradientTransform="translate(456.509 69.2003) rotate(126.894) scale(565.528 612.462)">
<stop stop-color="#4297E7"/>
<stop offset="1" stop-color="#0069CC"/>
</radialGradient>
<radialGradient id="paint6_radial_669_17304" cx="0" cy="0" r="1" gradientUnits="userSpaceOnUse" gradientTransform="translate(456.509 69.2003) rotate(126.894) scale(565.528 612.462)">
<stop stop-color="#4297E7"/>
<stop offset="1" stop-color="#0069CC"/>
</radialGradient>
<radialGradient id="paint7_radial_669_17304" cx="0" cy="0" r="1" gradientUnits="userSpaceOnUse" gradientTransform="translate(456.509 69.2001) rotate(126.894) scale(565.528 612.462)">
<stop stop-color="#4297E7"/>
<stop offset="1" stop-color="#0069CC"/>
</radialGradient>
<radialGradient id="paint8_radial_669_17304" cx="0" cy="0" r="1" gradientUnits="userSpaceOnUse" gradientTransform="translate(456.509 69.2005) rotate(126.894) scale(565.527 612.462)">
<stop stop-color="#4297E7"/>
<stop offset="1" stop-color="#0069CC"/>
</radialGradient>
<radialGradient id="paint9_radial_669_17304" cx="0" cy="0" r="1" gradientUnits="userSpaceOnUse" gradientTransform="translate(456.509 69.2005) rotate(126.894) scale(565.527 612.462)">
<stop stop-color="#4297E7"/>
<stop offset="1" stop-color="#0069CC"/>
</radialGradient>
<radialGradient id="paint10_radial_669_17304" cx="0" cy="0" r="1" gradientUnits="userSpaceOnUse" gradientTransform="translate(456.509 69.2002) rotate(126.894) scale(565.527 612.462)">
<stop stop-color="#4297E7"/>
<stop offset="1" stop-color="#0069CC"/>
</radialGradient>
<radialGradient id="paint11_radial_669_17304" cx="0" cy="0" r="1" gradientUnits="userSpaceOnUse" gradientTransform="translate(456.509 69.2008) rotate(126.894) scale(565.527 612.462)">
<stop stop-color="#4297E7"/>
<stop offset="1" stop-color="#0069CC"/>
</radialGradient>
<radialGradient id="paint12_radial_669_17304" cx="0" cy="0" r="1" gradientUnits="userSpaceOnUse" gradientTransform="translate(456.509 69.2007) rotate(126.894) scale(565.527 612.462)">
<stop stop-color="#4297E7"/>
<stop offset="1" stop-color="#0069CC"/>
</radialGradient>
<radialGradient id="paint13_radial_669_17304" cx="0" cy="0" r="1" gradientUnits="userSpaceOnUse" gradientTransform="translate(456.509 69.201) rotate(126.894) scale(565.527 612.462)">
<stop stop-color="#4297E7"/>
<stop offset="1" stop-color="#0069CC"/>
</radialGradient>
<radialGradient id="paint14_radial_669_17304" cx="0" cy="0" r="1" gradientUnits="userSpaceOnUse" gradientTransform="translate(456.508 69.1998) rotate(126.894) scale(565.528 612.462)">
<stop stop-color="#4297E7"/>
<stop offset="1" stop-color="#0069CC"/>
</radialGradient>
<radialGradient id="paint15_radial_669_17304" cx="0" cy="0" r="1" gradientUnits="userSpaceOnUse" gradientTransform="translate(456.509 69.2011) rotate(126.894) scale(565.527 612.462)">
<stop stop-color="#4297E7"/>
<stop offset="1" stop-color="#0069CC"/>
</radialGradient>
<radialGradient id="paint16_radial_669_17304" cx="0" cy="0" r="1" gradientUnits="userSpaceOnUse" gradientTransform="translate(456.508 69.2002) rotate(126.894) scale(565.527 612.462)">
<stop stop-color="#4297E7"/>
<stop offset="1" stop-color="#0069CC"/>
</radialGradient>
<radialGradient id="paint17_radial_669_17304" cx="0" cy="0" r="1" gradientUnits="userSpaceOnUse" gradientTransform="translate(456.508 69.2002) rotate(126.894) scale(565.527 612.462)">
<stop stop-color="#4297E7"/>
<stop offset="1" stop-color="#0069CC"/>
</radialGradient>
<radialGradient id="paint18_radial_669_17304" cx="0" cy="0" r="1" gradientUnits="userSpaceOnUse" gradientTransform="translate(456.509 69.2) rotate(126.894) scale(565.527 612.462)">
<stop stop-color="#4297E7"/>
<stop offset="1" stop-color="#0069CC"/>
</radialGradient>
<radialGradient id="paint19_radial_669_17304" cx="0" cy="0" r="1" gradientUnits="userSpaceOnUse" gradientTransform="translate(456.509 69.2) rotate(126.894) scale(565.527 612.462)">
<stop stop-color="#4297E7"/>
<stop offset="1" stop-color="#0069CC"/>
</radialGradient>
<radialGradient id="paint20_radial_669_17304" cx="0" cy="0" r="1" gradientUnits="userSpaceOnUse" gradientTransform="translate(456.509 69.2006) rotate(126.894) scale(565.528 612.462)">
<stop stop-color="#4297E7"/>
<stop offset="1" stop-color="#0069CC"/>
</radialGradient>
<radialGradient id="paint21_radial_669_17304" cx="0" cy="0" r="1" gradientUnits="userSpaceOnUse" gradientTransform="translate(456.509 69.201) rotate(126.894) scale(565.527 612.462)">
<stop stop-color="#4297E7"/>
<stop offset="1" stop-color="#0069CC"/>
</radialGradient>
<radialGradient id="paint22_radial_669_17304" cx="0" cy="0" r="1" gradientUnits="userSpaceOnUse" gradientTransform="translate(456.509 69.2006) rotate(126.894) scale(565.528 612.463)">
<stop stop-color="#4297E7"/>
<stop offset="1" stop-color="#0069CC"/>
</radialGradient>
<radialGradient id="paint23_radial_669_17304" cx="0" cy="0" r="1" gradientUnits="userSpaceOnUse" gradientTransform="translate(456.509 69.201) rotate(126.894) scale(565.527 612.462)">
<stop stop-color="#4297E7"/>
<stop offset="1" stop-color="#0069CC"/>
</radialGradient>
<radialGradient id="paint24_radial_669_17304" cx="0" cy="0" r="1" gradientUnits="userSpaceOnUse" gradientTransform="translate(456.509 69.2005) rotate(126.894) scale(565.527 612.462)">
<stop stop-color="#4297E7"/>
<stop offset="1" stop-color="#0069CC"/>
</radialGradient>
<radialGradient id="paint25_radial_669_17304" cx="0" cy="0" r="1" gradientUnits="userSpaceOnUse" gradientTransform="translate(456.509 69.2003) rotate(126.894) scale(565.528 612.463)">
<stop stop-color="#4297E7"/>
<stop offset="1" stop-color="#0069CC"/>
</radialGradient>
<radialGradient id="paint26_radial_669_17304" cx="0" cy="0" r="1" gradientUnits="userSpaceOnUse" gradientTransform="translate(456.509 69.2008) rotate(126.894) scale(565.527 612.462)">
<stop stop-color="#4297E7"/>
<stop offset="1" stop-color="#0069CC"/>
</radialGradient>
<radialGradient id="paint27_radial_669_17304" cx="0" cy="0" r="1" gradientUnits="userSpaceOnUse" gradientTransform="translate(456.509 69.2006) rotate(126.894) scale(565.527 612.462)">
<stop stop-color="#4297E7"/>
<stop offset="1" stop-color="#0069CC"/>
</radialGradient>
<radialGradient id="paint28_radial_669_17304" cx="0" cy="0" r="1" gradientUnits="userSpaceOnUse" gradientTransform="translate(456.509 69.2002) rotate(126.894) scale(565.527 612.462)">
<stop stop-color="#4297E7"/>
<stop offset="1" stop-color="#0069CC"/>
</radialGradient>
<radialGradient id="paint29_radial_669_17304" cx="0" cy="0" r="1" gradientUnits="userSpaceOnUse" gradientTransform="translate(456.508 69.2001) rotate(126.894) scale(565.527 612.462)">
<stop stop-color="#4297E7"/>
<stop offset="1" stop-color="#0069CC"/>
</radialGradient>
<radialGradient id="paint30_radial_669_17304" cx="0" cy="0" r="1" gradientUnits="userSpaceOnUse" gradientTransform="translate(456.509 69.2009) rotate(126.894) scale(565.527 612.462)">
<stop stop-color="#4297E7"/>
<stop offset="1" stop-color="#0069CC"/>
</radialGradient>
<radialGradient id="paint31_radial_669_17304" cx="0" cy="0" r="1" gradientUnits="userSpaceOnUse" gradientTransform="translate(456.509 69.2) rotate(126.894) scale(565.527 612.462)">
<stop stop-color="#4297E7"/>
<stop offset="1" stop-color="#0069CC"/>
</radialGradient>
<radialGradient id="paint32_radial_669_17304" cx="0" cy="0" r="1" gradientUnits="userSpaceOnUse" gradientTransform="translate(456.509 69.2004) rotate(126.894) scale(565.527 612.462)">
<stop stop-color="#4297E7"/>
<stop offset="1" stop-color="#0069CC"/>
</radialGradient>
<radialGradient id="paint33_radial_669_17304" cx="0" cy="0" r="1" gradientUnits="userSpaceOnUse" gradientTransform="translate(456.509 69.2011) rotate(126.894) scale(565.527 612.462)">
<stop stop-color="#4297E7"/>
<stop offset="1" stop-color="#0069CC"/>
</radialGradient>
<radialGradient id="paint34_radial_669_17304" cx="0" cy="0" r="1" gradientUnits="userSpaceOnUse" gradientTransform="translate(456.509 69.201) rotate(126.894) scale(565.527 612.462)">
<stop stop-color="#4297E7"/>
<stop offset="1" stop-color="#0069CC"/>
</radialGradient>
<radialGradient id="paint35_radial_669_17304" cx="0" cy="0" r="1" gradientUnits="userSpaceOnUse" gradientTransform="translate(456.509 69.2006) rotate(126.894) scale(565.527 612.462)">
<stop stop-color="#4297E7"/>
<stop offset="1" stop-color="#0069CC"/>
</radialGradient>
<radialGradient id="paint36_radial_669_17304" cx="0" cy="0" r="1" gradientUnits="userSpaceOnUse" gradientTransform="translate(456.508 69.2005) rotate(126.894) scale(565.527 612.462)">
<stop stop-color="#4297E7"/>
<stop offset="1" stop-color="#0069CC"/>
</radialGradient>
<radialGradient id="paint37_radial_669_17304" cx="0" cy="0" r="1" gradientUnits="userSpaceOnUse" gradientTransform="translate(456.509 69.2009) rotate(126.894) scale(565.527 612.462)">
<stop stop-color="#4297E7"/>
<stop offset="1" stop-color="#0069CC"/>
</radialGradient>
<radialGradient id="paint38_radial_669_17304" cx="0" cy="0" r="1" gradientUnits="userSpaceOnUse" gradientTransform="translate(456.509 69.2003) rotate(126.894) scale(565.527 612.462)">
<stop stop-color="#4297E7"/>
<stop offset="1" stop-color="#0069CC"/>
</radialGradient>
<radialGradient id="paint39_radial_669_17304" cx="0" cy="0" r="1" gradientUnits="userSpaceOnUse" gradientTransform="translate(456.509 69.2011) rotate(126.894) scale(565.527 612.462)">
<stop stop-color="#4297E7"/>
<stop offset="1" stop-color="#0069CC"/>
</radialGradient>
<radialGradient id="paint40_radial_669_17304" cx="0" cy="0" r="1" gradientUnits="userSpaceOnUse" gradientTransform="translate(456.509 69.2) rotate(126.894) scale(565.527 612.462)">
<stop stop-color="#4297E7"/>
<stop offset="1" stop-color="#0069CC"/>
</radialGradient>
<radialGradient id="paint41_radial_669_17304" cx="0" cy="0" r="1" gradientUnits="userSpaceOnUse" gradientTransform="translate(456.508 69.2007) rotate(126.894) scale(565.527 612.462)">
<stop stop-color="#4297E7"/>
<stop offset="1" stop-color="#0069CC"/>
</radialGradient>
<radialGradient id="paint42_radial_669_17304" cx="0" cy="0" r="1" gradientUnits="userSpaceOnUse" gradientTransform="translate(456.509 69.2003) rotate(126.894) scale(565.527 612.462)">
<stop stop-color="#4297E7"/>
<stop offset="1" stop-color="#0069CC"/>
</radialGradient>
<radialGradient id="paint43_radial_669_17304" cx="0" cy="0" r="1" gradientUnits="userSpaceOnUse" gradientTransform="translate(456.509 69.201) rotate(126.894) scale(565.527 612.462)">
<stop stop-color="#4297E7"/>
<stop offset="1" stop-color="#0069CC"/>
</radialGradient>
<radialGradient id="paint44_radial_669_17304" cx="0" cy="0" r="1" gradientUnits="userSpaceOnUse" gradientTransform="translate(456.509 69.2002) rotate(126.894) scale(565.528 612.462)">
<stop stop-color="#4297E7"/>
<stop offset="1" stop-color="#0069CC"/>
</radialGradient>
<radialGradient id="paint45_radial_669_17304" cx="0" cy="0" r="1" gradientUnits="userSpaceOnUse" gradientTransform="translate(456.509 69.2001) rotate(126.894) scale(565.527 612.462)">
<stop stop-color="#4297E7"/>
<stop offset="1" stop-color="#0069CC"/>
</radialGradient>
<radialGradient id="paint46_radial_669_17304" cx="0" cy="0" r="1" gradientUnits="userSpaceOnUse" gradientTransform="translate(456.509 69.2002) rotate(126.894) scale(565.527 612.462)">
<stop stop-color="#4297E7"/>
<stop offset="1" stop-color="#0069CC"/>
</radialGradient>
<radialGradient id="paint47_radial_669_17304" cx="0" cy="0" r="1" gradientUnits="userSpaceOnUse" gradientTransform="translate(456.509 69.2003) rotate(126.894) scale(565.527 612.462)">
<stop stop-color="#4297E7"/>
<stop offset="1" stop-color="#0069CC"/>
</radialGradient>
<radialGradient id="paint48_radial_669_17304" cx="0" cy="0" r="1" gradientUnits="userSpaceOnUse" gradientTransform="translate(456.509 69.2005) rotate(126.894) scale(565.527 612.462)">
<stop stop-color="#4297E7"/>
<stop offset="1" stop-color="#0069CC"/>
</radialGradient>
<radialGradient id="paint49_radial_669_17304" cx="0" cy="0" r="1" gradientUnits="userSpaceOnUse" gradientTransform="translate(456.509 69.2008) rotate(126.894) scale(565.527 612.462)">
<stop stop-color="#4297E7"/>
<stop offset="1" stop-color="#0069CC"/>
</radialGradient>
<radialGradient id="paint50_radial_669_17304" cx="0" cy="0" r="1" gradientUnits="userSpaceOnUse" gradientTransform="translate(456.509 69.2001) rotate(126.894) scale(565.527 612.462)">
<stop stop-color="#4297E7"/>
<stop offset="1" stop-color="#0069CC"/>
</radialGradient>
<radialGradient id="paint51_radial_669_17304" cx="0" cy="0" r="1" gradientUnits="userSpaceOnUse" gradientTransform="translate(456.509 69.2003) rotate(126.894) scale(565.527 612.462)">
<stop stop-color="#4297E7"/>
<stop offset="1" stop-color="#0069CC"/>
</radialGradient>
<radialGradient id="paint52_radial_669_17304" cx="0" cy="0" r="1" gradientUnits="userSpaceOnUse" gradientTransform="translate(456.509 69.2006) rotate(126.894) scale(565.527 612.462)">
<stop stop-color="#4297E7"/>
<stop offset="1" stop-color="#0069CC"/>
</radialGradient>
<radialGradient id="paint53_radial_669_17304" cx="0" cy="0" r="1" gradientUnits="userSpaceOnUse" gradientTransform="translate(456.508 69.2008) rotate(126.894) scale(565.527 612.462)">
<stop stop-color="#4297E7"/>
<stop offset="1" stop-color="#0069CC"/>
</radialGradient>
<radialGradient id="paint54_radial_669_17304" cx="0" cy="0" r="1" gradientUnits="userSpaceOnUse" gradientTransform="translate(456.509 69.2007) rotate(126.894) scale(565.528 612.462)">
<stop stop-color="#4297E7"/>
<stop offset="1" stop-color="#0069CC"/>
</radialGradient>
<radialGradient id="paint55_radial_669_17304" cx="0" cy="0" r="1" gradientUnits="userSpaceOnUse" gradientTransform="translate(456.509 69.2008) rotate(126.894) scale(565.527 612.462)">
<stop stop-color="#4297E7"/>
<stop offset="1" stop-color="#0069CC"/>
</radialGradient>
<radialGradient id="paint56_radial_669_17304" cx="0" cy="0" r="1" gradientUnits="userSpaceOnUse" gradientTransform="translate(456.509 69.2003) rotate(126.894) scale(565.527 612.462)">
<stop stop-color="#4297E7"/>
<stop offset="1" stop-color="#0069CC"/>
</radialGradient>
<radialGradient id="paint57_radial_669_17304" cx="0" cy="0" r="1" gradientUnits="userSpaceOnUse" gradientTransform="translate(456.508 69.2005) rotate(126.894) scale(565.527 612.462)">
<stop stop-color="#4297E7"/>
<stop offset="1" stop-color="#0069CC"/>
</radialGradient>
<radialGradient id="paint58_radial_669_17304" cx="0" cy="0" r="1" gradientUnits="userSpaceOnUse" gradientTransform="translate(456.509 69.2005) rotate(126.894) scale(565.527 612.462)">
<stop stop-color="#4297E7"/>
<stop offset="1" stop-color="#0069CC"/>
</radialGradient>
<radialGradient id="paint59_radial_669_17304" cx="0" cy="0" r="1" gradientUnits="userSpaceOnUse" gradientTransform="translate(456.509 69.2009) rotate(126.894) scale(565.527 612.462)">
<stop stop-color="#4297E7"/>
<stop offset="1" stop-color="#0069CC"/>
</radialGradient>
<radialGradient id="paint60_radial_669_17304" cx="0" cy="0" r="1" gradientUnits="userSpaceOnUse" gradientTransform="translate(456.509 69.2007) rotate(126.894) scale(565.527 612.462)">
<stop stop-color="#4297E7"/>
<stop offset="1" stop-color="#0069CC"/>
</radialGradient>
<radialGradient id="paint61_radial_669_17304" cx="0" cy="0" r="1" gradientUnits="userSpaceOnUse" gradientTransform="translate(456.509 69.2006) rotate(126.894) scale(565.528 612.463)">
<stop stop-color="#4297E7"/>
<stop offset="1" stop-color="#0069CC"/>
</radialGradient>
<radialGradient id="paint62_radial_669_17304" cx="0" cy="0" r="1" gradientUnits="userSpaceOnUse" gradientTransform="translate(456.509 69.2006) rotate(126.894) scale(565.527 612.462)">
<stop stop-color="#4297E7"/>
<stop offset="1" stop-color="#0069CC"/>
</radialGradient>
<radialGradient id="paint63_radial_669_17304" cx="0" cy="0" r="1" gradientUnits="userSpaceOnUse" gradientTransform="translate(456.509 69.2002) rotate(126.894) scale(565.527 612.462)">
<stop stop-color="#4297E7"/>
<stop offset="1" stop-color="#0069CC"/>
</radialGradient>
<radialGradient id="paint64_radial_669_17304" cx="0" cy="0" r="1" gradientUnits="userSpaceOnUse" gradientTransform="translate(456.509 69.2007) rotate(126.894) scale(565.527 612.462)">
<stop stop-color="#4297E7"/>
<stop offset="1" stop-color="#0069CC"/>
</radialGradient>
<radialGradient id="paint65_radial_669_17304" cx="0" cy="0" r="1" gradientUnits="userSpaceOnUse" gradientTransform="translate(456.509 69.2004) rotate(126.894) scale(565.528 612.462)">
<stop stop-color="#4297E7"/>
<stop offset="1" stop-color="#0069CC"/>
</radialGradient>
<radialGradient id="paint66_radial_669_17304" cx="0" cy="0" r="1" gradientUnits="userSpaceOnUse" gradientTransform="translate(456.509 69.2013) rotate(126.894) scale(565.527 612.462)">
<stop stop-color="#4297E7"/>
<stop offset="1" stop-color="#0069CC"/>
</radialGradient>
<radialGradient id="paint67_radial_669_17304" cx="0" cy="0" r="1" gradientUnits="userSpaceOnUse" gradientTransform="translate(456.509 69.2011) rotate(126.894) scale(565.527 612.462)">
<stop stop-color="#4297E7"/>
<stop offset="1" stop-color="#0069CC"/>
</radialGradient>
<radialGradient id="paint68_radial_669_17304" cx="0" cy="0" r="1" gradientUnits="userSpaceOnUse" gradientTransform="translate(456.509 69.2008) rotate(126.894) scale(565.527 612.462)">
<stop stop-color="#4297E7"/>
<stop offset="1" stop-color="#0069CC"/>
</radialGradient>
<radialGradient id="paint69_radial_669_17304" cx="0" cy="0" r="1" gradientUnits="userSpaceOnUse" gradientTransform="translate(456.509 69.2006) rotate(126.894) scale(565.527 612.462)">
<stop stop-color="#4297E7"/>
<stop offset="1" stop-color="#0069CC"/>
</radialGradient>
</defs>
</svg>
