<svg width="358" height="358" fill="none" xmlns="http://www.w3.org/2000/svg"><path d="M267.191 4.494l31.275 19.474a30.514 30.514 0 014.409 3.35L271.6 7.843a30.147 30.147 0 00-4.409-3.35z" fill="#8E9399"/><path d="M267.191 4.494l31.275 19.474a30.514 30.514 0 014.409 3.35L271.6 7.843a30.147 30.147 0 00-4.409-3.35z" fill="url(#paint0_radial_669_17522)"/><path d="M267.191 4.494l31.276 19.474a21.87 21.87 0 012.225 1.558L269.396 6.027a40.903 40.903 0 00-2.237-1.558" fill="#8E9399"/><path d="M267.191 4.494l31.276 19.474a21.87 21.87 0 012.225 1.558L269.396 6.027a40.903 40.903 0 00-2.237-1.558" fill="url(#paint1_radial_669_17522)"/><path d="M269.395 6.029l31.29 19.434c.779.57 1.48 1.177 2.181 1.815L271.591 7.805a31.862 31.862 0 00-2.174-1.815" fill="#8E9399"/><path d="M269.395 6.029l31.29 19.434c.779.57 1.48 1.177 2.181 1.815L271.591 7.805a31.862 31.862 0 00-2.174-1.815" fill="url(#paint2_radial_669_17522)"/><path d="M83.109 351.145l-31.27-19.475a43.98 43.98 0 0023.409 6.59l31.275 19.436a44.022 44.022 0 01-23.414-6.551z" fill="#8E9399"/><path d="M83.109 351.145l-31.27-19.475a43.98 43.98 0 0023.409 6.59l31.275 19.436a44.022 44.022 0 01-23.414-6.551z" fill="url(#paint3_radial_669_17522)"/><path d="M75.248 338.299l31.275 19.435a43.993 43.993 0 01-23.414-6.589l-31.27-19.475a43.98 43.98 0 0023.409 6.59" fill="#8E9399"/><path d="M75.248 338.299l31.275 19.435a43.993 43.993 0 01-23.414-6.589l-31.27-19.475a43.98 43.98 0 0023.409 6.59" fill="url(#paint4_radial_669_17522)"/><path d="M271.568 7.843l31.275 19.435 46.637 49.729-31.275-19.435-46.637-49.729z" fill="#8E9399"/><path d="M271.568 7.843l31.275 19.435 46.637 49.729-31.275-19.435-46.637-49.729z" fill="url(#paint5_radial_669_17522)"/><path d="M318.205 57.572l31.275 19.474a31.343 31.343 0 016.76 11.396 34.275 34.275 0 011.675 13.11L326.64 82.117a34.08 34.08 0 00-1.675-13.11 31.142 31.142 0 00-6.76-11.435z" fill="#8E9399"/><path d="M318.205 57.572l31.275 19.474a31.343 31.343 0 016.76 11.396 34.275 34.275 0 011.675 13.11L326.64 82.117a34.08 34.08 0 00-1.675-13.11 31.142 31.142 0 00-6.76-11.435z" fill="url(#paint6_radial_669_17522)"/><path d="M318.205 57.572l31.275 19.474.521.577-31.275-19.474-.521-.577z" fill="#8E9399"/><path d="M318.205 57.572l31.275 19.474.521.577-31.275-19.474-.521-.577z" fill="url(#paint7_radial_669_17522)"/><path d="M318.726 58.148l31.275 19.435a30.068 30.068 0 012.159 2.726l-31.275-19.435a28.91 28.91 0 00-2.159-2.726z" fill="#8E9399"/><path d="M318.726 58.148l31.275 19.435a30.068 30.068 0 012.159 2.726l-31.275-19.435a28.91 28.91 0 00-2.159-2.726z" fill="url(#paint8_radial_669_17522)"/><path d="M320.885 60.874l31.275 19.435a30.859 30.859 0 012.274 3.817l-31.275-19.474a30.732 30.732 0 00-2.274-3.778z" fill="#8E9399"/><path d="M320.885 60.874l31.275 19.435a30.859 30.859 0 012.274 3.817l-31.275-19.474a30.732 30.732 0 00-2.274-3.778z" fill="url(#paint9_radial_669_17522)"/><path d="M323.158 64.652l31.275 19.474a32.694 32.694 0 011.815 4.316 34.274 34.274 0 011.675 13.109l-31.275-19.434a34.098 34.098 0 00-1.675-13.11 33.318 33.318 0 00-1.815-4.355z" fill="#8E9399"/><path d="M323.158 64.652l31.275 19.474a32.694 32.694 0 011.815 4.316 34.274 34.274 0 011.675 13.109l-31.275-19.434a34.098 34.098 0 00-1.675-13.11 33.318 33.318 0 00-1.815-4.355z" fill="url(#paint10_radial_669_17522)"/><path d="M259.704 338.298l31.275 19.436H106.522l-31.275-19.436h184.457z" fill="#8E9399"/><path d="M259.704 338.298l31.275 19.436H106.522l-31.275-19.436h184.457z" fill="url(#paint11_radial_669_17522)"/><path d="M326.64 82.078l31.275 19.435-14.97 205.932-31.276-19.436L326.64 82.078z" fill="#8E9399"/><path d="M326.64 82.078l31.275 19.435-14.97 205.932-31.276-19.436L326.64 82.078z" fill="url(#paint12_radial_669_17522)"/><path d="M311.669 288.01l31.275 19.435c-2.018 27.731-25.333 50.29-51.965 50.29l-31.275-19.436c26.632 0 49.947-22.558 51.965-50.289z" fill="#8E9399"/><path d="M311.669 288.01l31.275 19.435c-2.018 27.731-25.333 50.29-51.965 50.29l-31.275-19.436c26.632 0 49.947-22.558 51.965-50.289z" fill="url(#paint13_radial_669_17522)"/><path d="M311.67 288.01l31.275 19.435a54.263 54.263 0 01-.889 6.584l-31.244-19.436c.43-2.174.726-4.372.888-6.583" fill="#8E9399"/><path d="M311.67 288.01l31.275 19.435a54.263 54.263 0 01-.889 6.584l-31.244-19.436c.43-2.174.726-4.372.888-6.583" fill="url(#paint14_radial_669_17522)"/><path d="M310.811 294.593l31.275 19.436c-.357 1.791-.779 3.559-1.332 5.288l-31.305-19.42a55.045 55.045 0 001.331-5.289" fill="#8E9399"/><path d="M310.811 294.593l31.275 19.436c-.357 1.791-.779 3.559-1.332 5.288l-31.305-19.42a55.045 55.045 0 001.331-5.289" fill="url(#paint15_radial_669_17522)"/><path d="M309.45 299.897l31.275 19.436c-.469 1.559-1.007 3.021-1.56 4.494l-31.313-19.45a52.636 52.636 0 001.598-4.495" fill="#8E9399"/><path d="M309.45 299.897l31.275 19.436c-.469 1.559-1.007 3.021-1.56 4.494l-31.313-19.45a52.636 52.636 0 001.598-4.495" fill="url(#paint16_radial_669_17522)"/><path d="M307.852 304.376l31.275 19.436a56.672 56.672 0 01-1.846 4.082l-31.268-19.427a59.085 59.085 0 001.839-4.082" fill="#8E9399"/><path d="M307.852 304.376l31.275 19.436a56.672 56.672 0 01-1.846 4.082l-31.268-19.427a59.085 59.085 0 001.839-4.082" fill="url(#paint17_radial_669_17522)"/><path d="M306.013 308.467l31.284 19.427a56.862 56.862 0 01-2.103 3.815l-31.276-19.434c.779-1.238 1.457-2.516 2.112-3.817" fill="#8E9399"/><path d="M306.013 308.467l31.284 19.427a56.862 56.862 0 01-2.103 3.815l-31.276-19.434c.779-1.238 1.457-2.516 2.112-3.817" fill="url(#paint18_radial_669_17522)"/><path d="M303.903 312.275l31.275 19.433a58.184 58.184 0 01-2.406 3.654l-31.308-19.435c.848-1.183 1.65-2.4 2.407-3.652" fill="#8E9399"/><path d="M303.903 312.275l31.275 19.433a58.184 58.184 0 01-2.406 3.654l-31.308-19.435c.848-1.183 1.65-2.4 2.407-3.652" fill="url(#paint19_radial_669_17522)"/><path d="M301.464 315.927l31.275 19.436a58.012 58.012 0 01-2.773 3.559l-31.275-19.474a55.679 55.679 0 002.773-3.559" fill="#8E9399"/><path d="M301.464 315.927l31.275 19.436a58.012 58.012 0 01-2.773 3.559l-31.275-19.474a55.679 55.679 0 002.773-3.559" fill="url(#paint20_radial_669_17522)"/><path d="M298.723 319.489l31.275 19.472a56.304 56.304 0 01-3.247 3.521l-31.275-19.434a53.65 53.65 0 003.247-3.521" fill="#8E9399"/><path d="M298.723 319.489l31.275 19.472a56.304 56.304 0 01-3.247 3.521l-31.275-19.434a53.65 53.65 0 003.247-3.521" fill="url(#paint21_radial_669_17522)"/><path d="M295.475 323.009l31.275 19.434a58.678 58.678 0 01-3.981 3.6l-31.275-19.436a55.687 55.687 0 003.981-3.598z" fill="#8E9399"/><path d="M295.475 323.009l31.275 19.434a58.678 58.678 0 01-3.981 3.6l-31.275-19.436a55.687 55.687 0 003.981-3.598z" fill="url(#paint22_radial_669_17522)"/><path d="M291.494 326.607l31.275 19.436a53.796 53.796 0 01-5.336 3.848l-31.266-19.436a54.194 54.194 0 005.327-3.848z" fill="#8E9399"/><path d="M291.494 326.607l31.275 19.436a53.796 53.796 0 01-5.336 3.848l-31.266-19.436a54.194 54.194 0 005.327-3.848z" fill="url(#paint23_radial_669_17522)"/><path d="M286.166 330.456l31.266 19.435a49.394 49.394 0 01-26.483 7.844l-31.245-19.436a49.454 49.454 0 0026.486-7.843" fill="#8E9399"/><path d="M286.166 330.456l31.266 19.435a49.394 49.394 0 01-26.483 7.844l-31.245-19.436a49.454 49.454 0 0026.486-7.843" fill="url(#paint24_radial_669_17522)"/><path d="M249.274 0h4.869l1.557.327a30.185 30.185 0 017.409 2.064 29.52 29.52 0 018.467 5.453l46.635 49.729a31.15 31.15 0 016.762 11.396 34.098 34.098 0 011.675 13.11L311.669 288.01c-2.017 27.733-25.333 50.291-51.965 50.291H75.247c-26.64 0-46.674-22.59-44.656-50.291l3.114-42.624a37.387 37.387 0 017.97-20.423 93.952 93.952 0 01-16.429-21.189 102.4 102.4 0 01-13.11-51.411 30.892 30.892 0 01-4.05-3.894C2.064 141.521-.77 132.345.18 122.647a109.442 109.442 0 0147.61-79.945c.46-.32.927-.615 1.402-.927C54.801 18.08 75.996 0 99.84 0h149.434z" fill="#228DFD"/><g filter="url(#filter0_d_669_17522)" fill-rule="evenodd" clip-rule="evenodd" fill="#E5EDF6"><path d="M78.543 57.366c.63-10.683 9.813-19.49 20.513-19.67L254.6 35.07l48.711 48.228-11.928 202.357c-.628 10.682-9.814 19.489-20.513 19.67l-187.773 3.17c-10.7.181-18.864-8.334-18.234-19.016l2.452-41.618c.12-2.054 1.888-3.749 3.944-3.783 2.058-.034 3.628 1.602 3.508 3.656l-2.454 41.618c-.387 6.574 4.637 11.813 11.222 11.704l187.774-3.17c6.585-.112 12.237-5.532 12.624-12.106l11.612-197.043-29.994.507c-10.699.18-18.863-8.333-18.233-19.016l1.628-27.63-150.33 2.537c-6.583.112-12.235 5.53-12.622 12.105l-.745 12.612c-.12 2.055-1.886 3.748-3.944 3.783-2.058.035-3.628-1.603-3.505-3.657l.742-12.612zm177.561-9.93l34.297 33.956-24.41.412c-6.585.111-11.609-5.128-11.222-11.702l1.335-22.667z"/><path d="M200.876 116.244c.122-2.055 1.888-3.748 3.946-3.783l68.551-1.157c2.058-.035 3.628 1.602 3.507 3.657-.12 2.054-1.888 3.748-3.944 3.782l-68.553 1.158c-2.058.034-3.628-1.603-3.507-3.657zm-1.534 26.038c.121-2.054 1.886-3.748 3.945-3.782l68.552-1.158c2.058-.034 3.628 1.603 3.506 3.657-.121 2.055-1.886 3.748-3.944 3.783l-68.553 1.157c-2.058.035-3.628-1.602-3.506-3.657zm-1.491 25.294c.12-2.054 1.886-3.749 3.944-3.783l30.551-.516c2.058-.035 3.628 1.602 3.505 3.658-.12 2.054-1.886 3.747-3.944 3.783l-30.55.514c-2.059.037-3.629-1.602-3.506-3.656zM51.363 154.07c-.028 11.704 3.095 22.991 9.072 32.673 6.607 10.706 16.41 18.971 28.165 23.75 11.756 4.781 24.939 5.861 37.88 3.103 12.942-2.757 25.062-9.224 34.828-18.588 9.764-9.364 16.736-21.201 20.033-34.017 3.297-12.814 2.773-26.03-1.509-37.976-2.446-6.821-6.052-13.053-10.638-18.457l-50.45 48.374-67.38 1.138zm112.874-54.684a59.078 59.078 0 00-6.953-5.51c-9.424-6.377-20.569-9.97-32.265-10.434l-3.344 56.754 42.562-40.81zm-50.324 46.196L49.46 146.67c-2.86.049-5.4 2.418-5.51 5.376-.523 13.941 2.955 27.451 10.046 38.936 7.353 11.915 18.263 21.113 31.348 26.432 13.085 5.321 27.756 6.523 42.159 3.454 14.406-3.067 27.895-10.267 38.762-20.69 10.87-10.42 18.629-23.595 22.298-37.858 3.671-14.263 3.087-28.972-1.682-42.268-3.178-8.872-8.125-16.848-14.508-23.505a65.456 65.456 0 00-10.586-8.926c-11.177-7.565-24.528-11.608-38.479-11.67-2.96-.014-5.433 2.424-5.601 5.28l-3.794 64.351z"/><path d="M97.12 70.55c-10.362.836-20.558 4.408-29.543 10.388a66.177 66.177 0 00-23.266 27.074c-2.863 6.143-4.708 12.614-5.498 19.144l55.025-.929L97.12 70.55zm2.59-7.576c2.979-.122 5.168 2.246 5 5.099l-3.551 60.26c-.169 2.876-2.643 5.247-5.523 5.296l-59.61 1.006c-2.858.048-5.13-2.239-4.886-5.206.675-8.217 2.843-16.396 6.439-24.119 5.736-12.315 14.846-22.918 26.187-30.464C74.65 67.602 87.12 63.488 99.71 62.974zm18.3 202.568c-3.91.067-7.265 3.284-7.495 7.187-.23 3.904 2.753 7.014 6.662 6.947 3.91-.064 7.265-3.282 7.496-7.185.23-3.904-2.753-7.016-6.663-6.949zm-14.947 7.312c.473-8.011 7.361-14.616 15.386-14.751 8.024-.136 14.147 6.25 13.674 14.261-.471 8.013-7.36 14.618-15.384 14.753-8.024.136-14.147-6.249-13.676-14.263zm58.298-48.177c-3.252.053-6.506 3.015-6.751 7.174-.245 4.157 2.664 7.016 5.916 6.96 3.252-.054 6.506-3.016 6.751-7.175.245-4.157-2.665-7.015-5.916-6.959zm-14.203 7.299c.458-7.758 6.781-14.607 14.639-14.739 7.861-.133 13.388 6.517 12.932 14.274-.458 7.758-6.781 14.608-14.642 14.739-7.858.133-13.385-6.517-12.929-14.274z"/><path d="M256.87 212.659c-3.738.062-6.996 3.17-7.22 6.998-.086 1.443.271 2.764.949 3.85 1.129 1.813 3.129 2.959 5.46 2.918 3.736-.062 6.994-3.17 7.22-6.998.226-3.828-2.671-6.83-6.409-6.768zm-14.672 7.125c.465-7.884 7.205-14.431 15.111-14.564 7.906-.134 13.887 6.198 13.422 14.082-.464 7.883-7.205 14.429-15.11 14.563-3.31.056-6.285-1.024-8.586-2.871l-36.4 35.585-5.015-5.117 37.264-36.432a13.807 13.807 0 01-.686-5.246zm-71.409 16.401l24.443 25.423-5.573 5.356-24.442-25.424 5.572-5.355zm-48.233 26.703l26.462-26.281 5.065 5.069-26.462 26.281-5.065-5.069z"/><path d="M201.093 264.14c-3.581.06-6.885 3.153-7.123 7.181-.237 4.026 2.707 7.013 6.29 6.953 3.581-.06 6.885-3.153 7.123-7.181.237-4.026-2.709-7.013-6.29-6.953zm-14.573 7.306c.464-7.887 7.071-14.612 15.011-14.745 7.941-.136 13.767 6.379 13.302 14.267-.464 7.889-7.071 14.612-15.011 14.745-7.943.136-13.769-6.379-13.302-14.267z"/></g><defs><radialGradient id="paint0_radial_669_17522" cx="0" cy="0" r="1" gradientUnits="userSpaceOnUse" gradientTransform="rotate(122.674 172.013 135.236) scale(554.134 568.015)"><stop stop-color="#4297E7"/><stop offset="1" stop-color="#0069CC"/></radialGradient><radialGradient id="paint1_radial_669_17522" cx="0" cy="0" r="1" gradientUnits="userSpaceOnUse" gradientTransform="matrix(-299.1539 466.44554 -478.1291 -306.64713 378.712 63.451)"><stop stop-color="#4297E7"/><stop offset="1" stop-color="#0069CC"/></radialGradient><radialGradient id="paint2_radial_669_17522" cx="0" cy="0" r="1" gradientUnits="userSpaceOnUse" gradientTransform="rotate(122.674 172.013 135.236) scale(554.134 568.015)"><stop stop-color="#4297E7"/><stop offset="1" stop-color="#0069CC"/></radialGradient><radialGradient id="paint3_radial_669_17522" cx="0" cy="0" r="1" gradientUnits="userSpaceOnUse" gradientTransform="rotate(122.674 172.013 135.236) scale(554.134 568.015)"><stop stop-color="#4297E7"/><stop offset="1" stop-color="#0069CC"/></radialGradient><radialGradient id="paint4_radial_669_17522" cx="0" cy="0" r="1" gradientUnits="userSpaceOnUse" gradientTransform="rotate(122.674 172.013 135.236) scale(554.134 568.015)"><stop stop-color="#4297E7"/><stop offset="1" stop-color="#0069CC"/></radialGradient><radialGradient id="paint5_radial_669_17522" cx="0" cy="0" r="1" gradientUnits="userSpaceOnUse" gradientTransform="rotate(122.674 172.013 135.236) scale(554.134 568.015)"><stop stop-color="#4297E7"/><stop offset="1" stop-color="#0069CC"/></radialGradient><radialGradient id="paint6_radial_669_17522" cx="0" cy="0" r="1" gradientUnits="userSpaceOnUse" gradientTransform="rotate(122.674 172.013 135.236) scale(554.134 568.015)"><stop stop-color="#4297E7"/><stop offset="1" stop-color="#0069CC"/></radialGradient><radialGradient id="paint7_radial_669_17522" cx="0" cy="0" r="1" gradientUnits="userSpaceOnUse" gradientTransform="rotate(122.674 172.013 135.236) scale(554.134 568.015)"><stop stop-color="#4297E7"/><stop offset="1" stop-color="#0069CC"/></radialGradient><radialGradient id="paint8_radial_669_17522" cx="0" cy="0" r="1" gradientUnits="userSpaceOnUse" gradientTransform="matrix(-299.1539 466.44554 -478.1291 -306.64713 378.713 63.451)"><stop stop-color="#4297E7"/><stop offset="1" stop-color="#0069CC"/></radialGradient><radialGradient id="paint9_radial_669_17522" cx="0" cy="0" r="1" gradientUnits="userSpaceOnUse" gradientTransform="rotate(122.674 172.014 135.236) scale(554.134 568.015)"><stop stop-color="#4297E7"/><stop offset="1" stop-color="#0069CC"/></radialGradient><radialGradient id="paint10_radial_669_17522" cx="0" cy="0" r="1" gradientUnits="userSpaceOnUse" gradientTransform="rotate(122.674 172.013 135.236) scale(554.134 568.015)"><stop stop-color="#4297E7"/><stop offset="1" stop-color="#0069CC"/></radialGradient><radialGradient id="paint11_radial_669_17522" cx="0" cy="0" r="1" gradientUnits="userSpaceOnUse" gradientTransform="rotate(122.674 172.013 135.236) scale(554.134 568.015)"><stop stop-color="#4297E7"/><stop offset="1" stop-color="#0069CC"/></radialGradient><radialGradient id="paint12_radial_669_17522" cx="0" cy="0" r="1" gradientUnits="userSpaceOnUse" gradientTransform="rotate(122.674 172.013 135.236) scale(554.134 568.015)"><stop stop-color="#4297E7"/><stop offset="1" stop-color="#0069CC"/></radialGradient><radialGradient id="paint13_radial_669_17522" cx="0" cy="0" r="1" gradientUnits="userSpaceOnUse" gradientTransform="rotate(122.674 172.013 135.236) scale(554.134 568.015)"><stop stop-color="#4297E7"/><stop offset="1" stop-color="#0069CC"/></radialGradient><radialGradient id="paint14_radial_669_17522" cx="0" cy="0" r="1" gradientUnits="userSpaceOnUse" gradientTransform="rotate(122.674 172.014 135.237) scale(554.134 568.015)"><stop stop-color="#4297E7"/><stop offset="1" stop-color="#0069CC"/></radialGradient><radialGradient id="paint15_radial_669_17522" cx="0" cy="0" r="1" gradientUnits="userSpaceOnUse" gradientTransform="matrix(-299.1539 466.44554 -478.1291 -306.64713 378.712 63.452)"><stop stop-color="#4297E7"/><stop offset="1" stop-color="#0069CC"/></radialGradient><radialGradient id="paint16_radial_669_17522" cx="0" cy="0" r="1" gradientUnits="userSpaceOnUse" gradientTransform="rotate(122.674 172.013 135.237) scale(554.134 568.015)"><stop stop-color="#4297E7"/><stop offset="1" stop-color="#0069CC"/></radialGradient><radialGradient id="paint17_radial_669_17522" cx="0" cy="0" r="1" gradientUnits="userSpaceOnUse" gradientTransform="rotate(122.674 172.013 135.236) scale(554.134 568.015)"><stop stop-color="#4297E7"/><stop offset="1" stop-color="#0069CC"/></radialGradient><radialGradient id="paint18_radial_669_17522" cx="0" cy="0" r="1" gradientUnits="userSpaceOnUse" gradientTransform="matrix(-299.15443 466.44638 -478.12995 -306.64767 378.713 63.451)"><stop stop-color="#4297E7"/><stop offset="1" stop-color="#0069CC"/></radialGradient><radialGradient id="paint19_radial_669_17522" cx="0" cy="0" r="1" gradientUnits="userSpaceOnUse" gradientTransform="rotate(122.674 172.013 135.236) scale(554.134 568.015)"><stop stop-color="#4297E7"/><stop offset="1" stop-color="#0069CC"/></radialGradient><radialGradient id="paint20_radial_669_17522" cx="0" cy="0" r="1" gradientUnits="userSpaceOnUse" gradientTransform="matrix(-299.1539 466.44554 -478.1291 -306.64713 378.712 63.452)"><stop stop-color="#4297E7"/><stop offset="1" stop-color="#0069CC"/></radialGradient><radialGradient id="paint21_radial_669_17522" cx="0" cy="0" r="1" gradientUnits="userSpaceOnUse" gradientTransform="rotate(122.674 172.014 135.237) scale(554.134 568.015)"><stop stop-color="#4297E7"/><stop offset="1" stop-color="#0069CC"/></radialGradient><radialGradient id="paint22_radial_669_17522" cx="0" cy="0" r="1" gradientUnits="userSpaceOnUse" gradientTransform="matrix(-299.1539 466.44554 -478.1291 -306.64713 378.712 63.451)"><stop stop-color="#4297E7"/><stop offset="1" stop-color="#0069CC"/></radialGradient><radialGradient id="paint23_radial_669_17522" cx="0" cy="0" r="1" gradientUnits="userSpaceOnUse" gradientTransform="rotate(122.674 172.014 135.236) scale(554.134 568.015)"><stop stop-color="#4297E7"/><stop offset="1" stop-color="#0069CC"/></radialGradient><radialGradient id="paint24_radial_669_17522" cx="0" cy="0" r="1" gradientUnits="userSpaceOnUse" gradientTransform="matrix(-299.1539 466.44554 -478.1291 -306.64713 378.712 63.452)"><stop stop-color="#4297E7"/><stop offset="1" stop-color="#0069CC"/></radialGradient><filter id="filter0_d_669_17522" x="29.736" y="35.07" width="274.962" height="277.239" filterUnits="userSpaceOnUse" color-interpolation-filters="sRGB"><feFlood flood-opacity="0" result="BackgroundImageFix"/><feColorMatrix in="SourceAlpha" values="0 0 0 0 0 0 0 0 0 0 0 0 0 0 0 0 0 0 127 0" result="hardAlpha"/><feOffset dy="2.426"/><feGaussianBlur stdDeviation=".693"/><feComposite in2="hardAlpha" operator="out"/><feColorMatrix values="0 0 0 0 0.065625 0 0 0 0 0.419165 0 0 0 0 0.75 0 0 0 1 0"/><feBlend in2="BackgroundImageFix" result="effect1_dropShadow_669_17522"/><feBlend in="SourceGraphic" in2="effect1_dropShadow_669_17522" result="shape"/></filter></defs></svg>