<svg width="403" height="390" fill="none" xmlns="http://www.w3.org/2000/svg"><path d="M69.01 147.002l-32.478-20.187a42.238 42.238 0 007.962 3.852l32.485 20.186a42.414 42.414 0 01-7.969-3.851z" fill="#999EA4"/><path d="M69.01 147.002l-32.478-20.187a42.238 42.238 0 007.962 3.852l32.485 20.186a42.414 42.414 0 01-7.969-3.851z" fill="url(#paint0_radial_669_17589)"/><path d="M44.494 130.667l32.485 20.186a42.425 42.425 0 01-7.984-3.851l-32.463-20.187a42.238 42.238 0 007.962 3.852z" fill="#999EA4"/><path d="M44.494 130.667l32.485 20.186a42.425 42.425 0 01-7.984-3.851l-32.463-20.187a42.238 42.238 0 007.962 3.852z" fill="url(#paint1_radial_669_17589)"/><path d="M59.745 237.693l32.485 20.228c-.542.072-1.076.161-1.62.259l-32.484-20.228c.543-.08 1.077-.185 1.62-.259z" fill="#999EA4"/><path d="M59.745 237.693l32.485 20.228c-.542.072-1.076.161-1.62.259l-32.484-20.228c.543-.08 1.077-.185 1.62-.259z" fill="url(#paint2_radial_669_17589)"/><path d="M59.745 237.693l32.485 20.228c-.542.072-1.076.161-1.62.259l-32.484-20.228a41.277 41.277 0 011.62-.259z" fill="#999EA4"/><path d="M59.745 237.693l32.485 20.228c-.542.072-1.076.161-1.62.259l-32.484-20.228a41.277 41.277 0 011.62-.259z" fill="url(#paint3_radial_669_17589)"/><path d="M225.383 5.922l32.476 20.227a33.566 33.566 0 0110.097 9.677L235.44 15.599a36.005 36.005 0 00-2.824-3.593 33.582 33.582 0 00-7.233-6.084z" fill="#999EA4"/><path d="M225.383 5.922l32.476 20.227a33.566 33.566 0 0110.097 9.677L235.44 15.599a36.005 36.005 0 00-2.824-3.593 33.582 33.582 0 00-7.233-6.084z" fill="url(#paint4_radial_669_17589)"/><path d="M225.383 5.922l32.476 20.227c.866.534 1.7 1.108 2.508 1.723L227.882 7.645a32.304 32.304 0 00-2.499-1.723z" fill="#999EA4"/><path d="M225.383 5.922l32.476 20.227c.866.534 1.7 1.108 2.508 1.723L227.882 7.645a32.304 32.304 0 00-2.499-1.723z" fill="url(#paint5_radial_669_17589)"/><path d="M227.884 7.646l32.485 20.227c.808.639 1.657 1.318 2.426 2.038L230.328 9.708a55.27 55.27 0 00-2.429-2.039" fill="#999EA4"/><path d="M227.884 7.646l32.485 20.227c.808.639 1.657 1.318 2.426 2.038L230.328 9.708a55.27 55.27 0 00-2.429-2.039" fill="url(#paint6_radial_669_17589)"/><path d="M230.326 9.708l32.485 20.228a30.689 30.689 0 012.296 2.322l.139.154-32.485-20.276-.138-.154c-.729-.809-1.497-1.618-2.297-2.322" fill="#999EA4"/><path d="M230.326 9.708l32.485 20.228a30.689 30.689 0 012.296 2.322l.139.154-32.485-20.276-.138-.154c-.729-.809-1.497-1.618-2.297-2.322" fill="url(#paint7_radial_669_17589)"/><path d="M232.761 12.136l32.485 20.227c.869.981 1.68 2.013 2.426 3.09l-32.467-20.202a34.746 34.746 0 00-2.429-3.091" fill="#999EA4"/><path d="M232.761 12.136l32.485 20.227c.869.981 1.68 2.013 2.426 3.09l-32.467-20.202a34.746 34.746 0 00-2.429-3.091" fill="url(#paint8_radial_669_17589)"/><path d="M235.204 15.251l32.476 20.187.244.348-32.485-20.187-.244-.348" fill="#999EA4"/><path d="M235.204 15.251l32.476 20.187.244.348-32.485-20.187-.244-.348" fill="url(#paint9_radial_669_17589)"/><path d="M248.531 20.356l32.485 20.227a33.939 33.939 0 019.184 8.423l-32.485-20.227a33.786 33.786 0 00-9.184-8.423z" fill="#999EA4"/><path d="M248.531 20.356l32.485 20.227a33.939 33.939 0 019.184 8.423l-32.485-20.227a33.786 33.786 0 00-9.184-8.423z" fill="url(#paint10_radial_669_17589)"/><path d="M248.531 20.356l32.485 20.227a33.257 33.257 0 012.524 1.732l-32.485-20.228a33.829 33.829 0 00-2.524-1.731z" fill="#999EA4"/><path d="M248.531 20.356l32.485 20.227a33.257 33.257 0 012.524 1.732l-32.485-20.228a33.829 33.829 0 00-2.524-1.731z" fill="url(#paint11_radial_669_17589)"/><path d="M251.056 22.087l32.485 20.227a30.37 30.37 0 012.428 2.055l-32.454-20.227a58.728 58.728 0 00-2.428-2.055" fill="#999EA4"/><path d="M251.056 22.087l32.485 20.227a30.37 30.37 0 012.428 2.055l-32.454-20.227a58.728 58.728 0 00-2.428-2.055" fill="url(#paint12_radial_669_17589)"/><path d="M253.514 24.142l32.485 20.227a32.232 32.232 0 012.428 2.476l-32.478-20.227a33.838 33.838 0 00-2.426-2.476" fill="#999EA4"/><path d="M253.514 24.142l32.485 20.227a32.232 32.232 0 012.428 2.476l-32.478-20.227a33.838 33.838 0 00-2.426-2.476" fill="url(#paint13_radial_669_17589)"/><path d="M255.948 26.618l32.478 20.227a32.203 32.203 0 011.772 2.16l-32.485-20.227a30.534 30.534 0 00-1.765-2.16z" fill="#999EA4"/><path d="M255.948 26.618l32.478 20.227a32.203 32.203 0 011.772 2.16l-32.485-20.227a30.534 30.534 0 00-1.765-2.16z" fill="url(#paint14_radial_669_17589)"/><path d="M257.713 28.778l32.485 20.227a74.988 74.988 0 015.024 7.533l-32.485-20.227a72.372 72.372 0 00-5.024-7.533z" fill="#999EA4"/><path d="M257.713 28.778l32.485 20.227a74.988 74.988 0 015.024 7.533l-32.485-20.227a72.372 72.372 0 00-5.024-7.533z" fill="url(#paint15_radial_669_17589)"/><path d="M257.713 28.778l32.485 20.227c.565.753 1.099 1.49 1.617 2.218L259.33 30.995a65.603 65.603 0 00-1.617-2.217z" fill="#999EA4"/><path d="M257.713 28.778l32.485 20.227c.565.753 1.099 1.49 1.617 2.218L259.33 30.995a65.603 65.603 0 00-1.617-2.217z" fill="url(#paint16_radial_669_17589)"/><path d="M259.332 30.995l32.485 20.186a72.378 72.378 0 013.407 5.316L262.739 36.31a70.188 70.188 0 00-3.407-5.315z" fill="#999EA4"/><path d="M259.332 30.995l32.485 20.186a72.378 72.378 0 013.407 5.316L262.739 36.31a70.188 70.188 0 00-3.407-5.315z" fill="url(#paint17_radial_669_17589)"/><path d="M60.675 381.022L28.16 360.853a58.061 58.061 0 0030.825 8.674l32.485 20.185a58.041 58.041 0 01-30.794-8.69z" fill="#999EA4"/><path d="M60.675 381.022L28.16 360.853a58.061 58.061 0 0030.825 8.674l32.485 20.185a58.041 58.041 0 01-30.794-8.69z" fill="url(#paint18_radial_669_17589)"/><path d="M58.984 369.509l32.485 20.187a58.058 58.058 0 01-30.794-8.674L28.16 360.853a58.061 58.061 0 0030.825 8.674" fill="#999EA4"/><path d="M58.984 369.509l32.485 20.187a58.058 58.058 0 01-30.794-8.674L28.16 360.853a58.061 58.061 0 0030.825 8.674" fill="url(#paint19_radial_669_17589)"/><path d="M335.248 130.667l32.476 20.187a48.85 48.85 0 011.262 15.292l-32.485-20.187a49.12 49.12 0 00-1.253-15.292z" fill="#999EA4"/><path d="M335.248 130.667l32.476 20.187a48.85 48.85 0 011.262 15.292l-32.485-20.187a49.12 49.12 0 00-1.253-15.292z" fill="url(#paint20_radial_669_17589)"/><path d="M335.248 130.667l32.476 20.187a48.96 48.96 0 011.271 15.113l-32.478-20.186a49.024 49.024 0 00-1.269-15.114z" fill="#999EA4"/><path d="M335.248 130.667l32.476 20.187a48.96 48.96 0 011.271 15.113l-32.478-20.186a49.024 49.024 0 00-1.269-15.114z" fill="url(#paint21_radial_669_17589)"/><path d="M336.519 145.781l32.478 20.187v.177l-32.494-20.186v-.178" fill="#999EA4"/><path d="M336.519 145.781l32.478 20.187v.177l-32.494-20.186v-.178" fill="url(#paint22_radial_669_17589)"/><path d="M336.502 145.958l32.484 20.187-.129 1.78-32.485-20.187.13-1.78z" fill="#999EA4"/><path d="M336.502 145.958l32.484 20.187-.129 1.78-32.485-20.187.13-1.78z" fill="url(#paint23_radial_669_17589)"/><path d="M336.372 147.739l32.485 20.187 1.852 3.05-32.476-20.187-1.861-3.05z" fill="#999EA4"/><path d="M336.372 147.739l32.485 20.187 1.852 3.05-32.476-20.187-1.861-3.05z" fill="url(#paint24_radial_669_17589)"/><path d="M349.9 42.654l32.485 20.227c13.43 8.35 21.764 24.079 20.462 42.073-1.555 21.344-16.182 39.508-35.123 45.94l-32.476-20.227c18.916-6.433 33.559-24.597 35.114-45.94 1.309-17.986-7.032-33.755-20.462-42.073z" fill="#999EA4"/><path d="M349.9 42.654l32.485 20.227c13.43 8.35 21.764 24.079 20.462 42.073-1.555 21.344-16.182 39.508-35.123 45.94l-32.476-20.227c18.916-6.433 33.559-24.597 35.114-45.94 1.309-17.986-7.032-33.755-20.462-42.073z" fill="url(#paint25_radial_669_17589)"/><path d="M349.901 42.654l32.485 20.227c1.093.68 2.16 1.408 3.179 2.185l-32.476-20.227c-1.027-.81-2.089-1.505-3.188-2.185z" fill="#999EA4"/><path d="M349.901 42.654l32.485 20.227c1.093.68 2.16 1.408 3.179 2.185l-32.476-20.227c-1.027-.81-2.089-1.505-3.188-2.185z" fill="url(#paint26_radial_669_17589)"/><path d="M353.089 44.839l32.476 20.227a40.822 40.822 0 013.091 2.58L356.178 47.42a47.616 47.616 0 00-3.089-2.581z" fill="#999EA4"/><path d="M353.089 44.839l32.476 20.227a40.822 40.822 0 013.091 2.58L356.178 47.42a47.616 47.616 0 00-3.089-2.581z" fill="url(#paint27_radial_669_17589)"/><path d="M356.178 47.42l32.478 20.227a36.27 36.27 0 013.025 3.083l-32.452-20.227a46.472 46.472 0 00-3.027-3.083" fill="#999EA4"/><path d="M356.178 47.42l32.478 20.227a36.27 36.27 0 013.025 3.083l-32.452-20.227a46.472 46.472 0 00-3.027-3.083" fill="url(#paint28_radial_669_17589)"/><path d="M359.23 50.502l32.476 20.228a44.31 44.31 0 013.099 3.916l-32.507-20.228a43.256 43.256 0 00-3.068-3.916z" fill="#999EA4"/><path d="M359.23 50.502l32.476 20.228a44.31 44.31 0 013.099 3.916l-32.507-20.228a43.256 43.256 0 00-3.068-3.916z" fill="url(#paint29_radial_669_17589)"/><path d="M362.297 54.417l32.485 20.187a43.828 43.828 0 013.234 5.397l-32.484-20.187a44.214 44.214 0 00-3.235-5.397z" fill="#999EA4"/><path d="M362.297 54.417l32.485 20.187a43.828 43.828 0 013.234 5.397l-32.484-20.187a44.214 44.214 0 00-3.235-5.397z" fill="url(#paint30_radial_669_17589)"/><path d="M365.532 59.816l32.478 20.186a47.265 47.265 0 014.855 24.718l-32.476-20.227a47.338 47.338 0 00-4.857-24.718" fill="#999EA4"/><path d="M365.532 59.816l32.478 20.186a47.265 47.265 0 014.855 24.718l-32.476-20.227a47.338 47.338 0 00-4.857-24.718" fill="url(#paint31_radial_669_17589)"/><path d="M370.378 84.533l32.476 20.227v.194a51.861 51.861 0 01-.873 6.4l-32.476-20.227c.42-2.113.71-4.251.864-6.4v-.194" fill="#999EA4"/><path d="M370.378 84.533l32.476 20.227v.194a51.861 51.861 0 01-.873 6.4l-32.476-20.227c.42-2.113.71-4.251.864-6.4v-.194" fill="url(#paint32_radial_669_17589)"/><path d="M369.497 91.126l32.476 20.227a50.35 50.35 0 01-1.262 5.017l-32.482-20.228c.507-1.65.931-3.324 1.268-5.016z" fill="#999EA4"/><path d="M369.497 91.126l32.476 20.227a50.35 50.35 0 01-1.262 5.017l-32.482-20.228c.507-1.65.931-3.324 1.268-5.016z" fill="url(#paint33_radial_669_17589)"/><path d="M368.227 96.143l32.482 20.227a50.327 50.327 0 01-1.543 4.345l-32.478-20.179a54.19 54.19 0 001.536-4.353" fill="#999EA4"/><path d="M368.227 96.143l32.482 20.227a50.327 50.327 0 01-1.543 4.345l-32.478-20.179a54.19 54.19 0 001.536-4.353" fill="url(#paint34_radial_669_17589)"/><path d="M366.689 100.496l32.478 20.178a51.491 51.491 0 01-1.774 3.933l-32.5-20.187a57.141 57.141 0 001.771-3.924" fill="#999EA4"/><path d="M366.689 100.496l32.478 20.178a51.491 51.491 0 01-1.774 3.933l-32.5-20.187a57.141 57.141 0 001.771-3.924" fill="url(#paint35_radial_669_17589)"/><path d="M364.893 104.42l32.5 20.178a52.06 52.06 0 01-2.03 3.674l-32.476-20.228a54.378 54.378 0 002.03-3.673" fill="#999EA4"/><path d="M364.893 104.42l32.5 20.178a52.06 52.06 0 01-2.03 3.674l-32.476-20.228a54.378 54.378 0 002.03-3.673" fill="url(#paint36_radial_669_17589)"/><path d="M362.886 108.093l32.476 20.227a55.995 55.995 0 01-2.315 3.519l-32.476-20.227c.809-1.14 1.62-2.314 2.315-3.519z" fill="#999EA4"/><path d="M362.886 108.093l32.476 20.227a55.995 55.995 0 01-2.315 3.519l-32.476-20.227c.809-1.14 1.62-2.314 2.315-3.519z" fill="url(#paint37_radial_669_17589)"/><path d="M360.573 111.653l32.476 20.227a54.465 54.465 0 01-2.661 3.414l-32.485-20.227a47.257 47.257 0 002.67-3.414z" fill="#999EA4"/><path d="M360.573 111.653l32.476 20.227a54.465 54.465 0 01-2.661 3.414l-32.485-20.227a47.257 47.257 0 002.67-3.414z" fill="url(#paint38_radial_669_17589)"/><path d="M357.903 115.027l32.485 20.227a53.987 53.987 0 01-3.132 3.398l-32.485-20.187a57.102 57.102 0 003.132-3.397" fill="#999EA4"/><path d="M357.903 115.027l32.485 20.227a53.987 53.987 0 01-3.132 3.398l-32.485-20.187a57.102 57.102 0 003.132-3.397" fill="url(#paint39_radial_669_17589)"/><path d="M354.771 118.426l32.485 20.186a52.998 52.998 0 01-3.811 3.447l-32.485-20.227a50.986 50.986 0 003.811-3.447" fill="#999EA4"/><path d="M354.771 118.426l32.485 20.186a52.998 52.998 0 01-3.811 3.447l-32.485-20.227a50.986 50.986 0 003.811-3.447" fill="url(#paint40_radial_669_17589)"/><path d="M350.96 121.872l32.485 20.227a53.084 53.084 0 01-5.129 3.714l-32.485-20.187a52.172 52.172 0 005.129-3.714" fill="#999EA4"/><path d="M350.96 121.872l32.485 20.227a53.084 53.084 0 01-5.129 3.714l-32.485-20.187a52.172 52.172 0 005.129-3.714" fill="url(#paint41_radial_669_17589)"/><path d="M345.83 125.585l32.485 20.187a49.614 49.614 0 01-10.591 5.081l-32.476-20.186a49.597 49.597 0 0010.582-5.082z" fill="#999EA4"/><path d="M345.83 125.585l32.485 20.187a49.614 49.614 0 01-10.591 5.081l-32.476-20.186a49.597 49.597 0 0010.582-5.082z" fill="url(#paint42_radial_669_17589)"/><path d="M336.916 258.099l-32.485-20.188a1.687 1.687 0 01-.552-.599l32.485 20.188c.129.241.319.449.552.599z" fill="#999EA4"/><path d="M336.916 258.099l-32.485-20.188a1.687 1.687 0 01-.552-.599l32.485 20.188c.129.241.319.449.552.599z" fill="url(#paint43_radial_669_17589)"/><path d="M303.879 237.322l32.485 20.185.098.164-32.478-20.228-.105-.163" fill="#999EA4"/><path d="M303.879 237.322l32.485 20.185.098.164-32.478-20.228-.105-.163" fill="url(#paint44_radial_669_17589)"/><path d="M303.983 237.482l32.479 20.228c.04.058.087.116.136.17l-32.485-20.188a1.68 1.68 0 01-.13-.169" fill="#999EA4"/><path d="M303.983 237.482l32.479 20.228c.04.058.087.116.136.17l-32.485-20.188a1.68 1.68 0 01-.13-.169" fill="url(#paint45_radial_669_17589)"/><path d="M304.114 237.653l32.461 20.187.113.112-32.475-20.185-.114-.114" fill="#999EA4"/><path d="M304.114 237.653l32.461 20.187.113.112-32.475-20.185-.114-.114" fill="url(#paint46_radial_669_17589)"/><path d="M304.212 237.766l32.485 20.185.096.083-32.46-20.163-.105-.089" fill="#999EA4"/><path d="M304.212 237.766l32.485 20.185.096.083-32.46-20.163-.105-.089" fill="url(#paint47_radial_669_17589)"/><path d="M304.332 237.871l32.476 20.179.107.071-32.485-20.185-.098-.065z" fill="#999EA4"/><path d="M304.332 237.871l32.476 20.179.107.071-32.485-20.185-.098-.065z" fill="url(#paint48_radial_669_17589)"/><path d="M305.804 238.292l32.485 20.187-1.925-.972-32.485-20.185 1.925.97z" fill="#999EA4"/><path d="M305.804 238.292l32.485 20.187-1.925-.972-32.485-20.185 1.925.97z" fill="url(#paint49_radial_669_17589)"/><path d="M336.623 191.469l32.478 20.187-30.811 46.822-32.485-20.187 30.818-46.822z" fill="#999EA4"/><path d="M336.623 191.469l32.478 20.187-30.811 46.822-32.485-20.187 30.818-46.822z" fill="url(#paint50_radial_669_17589)"/><path d="M338.234 150.79l32.476 20.186c7.347 12.072 6.717 28.042-1.618 40.681l-32.476-20.227c8.326-12.622 8.956-28.569 1.618-40.64z" fill="#999EA4"/><path d="M338.234 150.79l32.476 20.186c7.347 12.072 6.717 28.042-1.618 40.681l-32.476-20.227c8.326-12.622 8.956-28.569 1.618-40.64z" fill="url(#paint51_radial_669_17589)"/><path d="M338.232 150.79l32.476 20.186c.463.753.892 1.514 1.28 2.298l-32.478-20.186a24.733 24.733 0 00-1.278-2.298z" fill="#999EA4"/><path d="M338.232 150.79l32.476 20.186c.463.753.892 1.514 1.28 2.298l-32.478-20.186a24.733 24.733 0 00-1.278-2.298z" fill="url(#paint52_radial_669_17589)"/><path d="M339.511 153.088l32.478 20.186a36.284 36.284 0 013.728 18.933l-32.476-20.187a36.393 36.393 0 00-3.73-18.932z" fill="#999EA4"/><path d="M339.511 153.088l32.478 20.186a36.284 36.284 0 013.728 18.933l-32.476-20.187a36.393 36.393 0 00-3.73-18.932z" fill="url(#paint53_radial_669_17589)"/><path d="M343.242 172.02l32.476 20.187a37.743 37.743 0 01-.67 5.032l-32.476-20.178c.331-1.664.554-3.349.67-5.041z" fill="#999EA4"/><path d="M343.242 172.02l32.476 20.187a37.743 37.743 0 01-.67 5.032l-32.476-20.178c.331-1.664.554-3.349.67-5.041z" fill="url(#paint54_radial_669_17589)"/><path d="M342.571 177.061l32.475 20.179a40.391 40.391 0 01-.971 3.866l-32.485-20.187c.393-1.269.719-2.556.981-3.858z" fill="#999EA4"/><path d="M342.571 177.061l32.475 20.179a40.391 40.391 0 01-.971 3.866l-32.485-20.187c.393-1.269.719-2.556.981-3.858z" fill="url(#paint55_radial_669_17589)"/><path d="M341.592 180.919l32.485 20.188a41.684 41.684 0 01-1.182 3.333l-32.485-20.228c.447-1.099.811-2.207 1.182-3.333" fill="#999EA4"/><path d="M341.592 180.919l32.485 20.188a41.684 41.684 0 01-1.182 3.333l-32.485-20.228c.447-1.099.811-2.207 1.182-3.333" fill="url(#paint56_radial_669_17589)"/><path d="M340.409 184.254l32.485 20.225a42.806 42.806 0 01-1.367 3.027l-32.485-20.227a39.21 39.21 0 001.367-3.025z" fill="#999EA4"/><path d="M340.409 184.254l32.485 20.225a42.806 42.806 0 01-1.367 3.027l-32.485-20.227a39.21 39.21 0 001.367-3.025z" fill="url(#paint57_radial_669_17589)"/><path d="M339.041 187.278l32.485 20.228a41.701 41.701 0 01-1.562 2.824l-32.476-20.228a40.856 40.856 0 001.553-2.824z" fill="#999EA4"/><path d="M339.041 187.278l32.485 20.228a41.701 41.701 0 01-1.562 2.824l-32.476-20.228a40.856 40.856 0 001.553-2.824z" fill="url(#paint58_radial_669_17589)"/><path d="M337.49 190.136l32.476 20.226a33.7 33.7 0 01-.865 1.369l-32.478-20.228c.299-.453.583-.907.867-1.367z" fill="#999EA4"/><path d="M337.49 190.136l32.476 20.226a33.7 33.7 0 01-.865 1.369l-32.478-20.228c.299-.453.583-.907.867-1.367z" fill="url(#paint59_radial_669_17589)"/><path d="M283.984 369.509l32.485 20.187h-225l-32.485-20.187h225z" fill="#999EA4"/><path d="M283.984 369.509l32.485 20.187h-225l-32.485-20.187h225z" fill="url(#paint60_radial_669_17589)"/><path d="M324.441 245.832l32.485 20.225c18.512 11.498 29.806 32.939 28.017 57.447-2.654 36.505-33.35 66.223-68.433 66.223l-32.525-20.219c35.083 0 65.788-29.717 68.442-66.223 1.78-24.515-9.514-45.949-27.986-57.453z" fill="#999EA4"/><path d="M324.441 245.832l32.485 20.225c18.512 11.498 29.806 32.939 28.017 57.447-2.654 36.505-33.35 66.223-68.433 66.223l-32.525-20.219c35.083 0 65.788-29.717 68.442-66.223 1.78-24.515-9.514-45.949-27.986-57.453z" fill="url(#paint61_radial_669_17589)"/><path d="M324.439 245.832l32.485 20.225a56.952 56.952 0 014.392 3.018l-32.485-20.185a54.25 54.25 0 00-4.392-3.018" fill="#999EA4"/><path d="M324.439 245.832l32.485 20.225a56.952 56.952 0 014.392 3.018l-32.485-20.185a54.25 54.25 0 00-4.392-3.018" fill="url(#paint62_radial_669_17589)"/><path d="M328.791 248.85l32.485 20.185a57.77 57.77 0 014.273 3.57l-32.478-20.172a62.823 62.823 0 00-4.28-3.567" fill="#999EA4"/><path d="M328.791 248.85l32.485 20.185a57.77 57.77 0 014.273 3.57l-32.478-20.172a62.823 62.823 0 00-4.28-3.567" fill="url(#paint63_radial_669_17589)"/><path d="M333.071 252.434l32.478 20.187a57.902 57.902 0 014.176 4.247l-32.485-20.186a58.84 58.84 0 00-4.169-4.248z" fill="#999EA4"/><path d="M333.071 252.434l32.478 20.187a57.902 57.902 0 014.176 4.247l-32.485-20.186a58.84 58.84 0 00-4.169-4.248z" fill="url(#paint64_radial_669_17589)"/><path d="M337.24 256.665l32.507 20.187a59.426 59.426 0 014.193 5.301l-32.484-20.228a56.957 56.957 0 00-4.193-5.3" fill="#999EA4"/><path d="M337.24 256.665l32.507 20.187a59.426 59.426 0 014.193 5.301l-32.484-20.228a56.957 56.957 0 00-4.193-5.3" fill="url(#paint65_radial_669_17589)"/><path d="M341.431 261.966l32.485 20.225a60.57 60.57 0 014.416 7.381l-32.476-20.228a59.573 59.573 0 00-4.425-7.378z" fill="#999EA4"/><path d="M341.431 261.966l32.485 20.225a60.57 60.57 0 014.416 7.381l-32.476-20.228a59.573 59.573 0 00-4.425-7.378z" fill="url(#paint66_radial_669_17589)"/><path d="M345.854 269.345l32.476 20.227a64.482 64.482 0 016.595 33.674l-32.485-20.228a64.425 64.425 0 00-6.586-33.673z" fill="#999EA4"/><path d="M345.854 269.345l32.476 20.227a64.482 64.482 0 016.595 33.674l-32.485-20.228a64.425 64.425 0 00-6.586-33.673z" fill="url(#paint67_radial_669_17589)"/><path d="M352.44 303.017l32.485 20.228v.268a69.693 69.693 0 01-1.173 8.656l-32.476-20.187c.568-2.858.959-5.75 1.173-8.657v-.268" fill="#999EA4"/><path d="M352.44 303.017l32.485 20.228v.268a69.693 69.693 0 01-1.173 8.656l-32.476-20.187c.568-2.858.959-5.75 1.173-8.657v-.268" fill="url(#paint68_radial_669_17589)"/><path d="M351.253 311.942l32.476 20.187a71.398 71.398 0 01-1.747 6.968l-32.461-20.188a71.71 71.71 0 001.756-6.967" fill="#999EA4"/><path d="M351.253 311.942l32.476 20.187a71.398 71.398 0 01-1.747 6.968l-32.461-20.188a71.71 71.71 0 001.756-6.967" fill="url(#paint69_radial_669_17589)"/><path d="M349.521 318.91l32.485 20.185a69.969 69.969 0 01-2.104 5.924l-32.476-20.187c.808-1.935 1.479-3.907 2.095-5.922z" fill="#999EA4"/><path d="M349.521 318.91l32.485 20.185a69.969 69.969 0 01-2.104 5.924l-32.476-20.187c.808-1.935 1.479-3.907 2.095-5.922z" fill="url(#paint70_radial_669_17589)"/><path d="M347.402 324.832l32.476 20.187a68.956 68.956 0 01-2.428 5.372l-32.476-20.187a79.039 79.039 0 002.428-5.372z" fill="#999EA4"/><path d="M347.402 324.832l32.476 20.187a68.956 68.956 0 01-2.428 5.372l-32.476-20.187a79.039 79.039 0 002.428-5.372z" fill="url(#paint71_radial_669_17589)"/><path d="M344.973 330.204l32.476 20.187a71.004 71.004 0 01-2.775 5.024l-32.485-20.187a67.715 67.715 0 002.784-5.024z" fill="#999EA4"/><path d="M344.973 330.204l32.476 20.187a71.004 71.004 0 01-2.775 5.024l-32.485-20.187a67.715 67.715 0 002.784-5.024z" fill="url(#paint72_radial_669_17589)"/><path d="M342.191 335.228l32.484 20.187a76.325 76.325 0 01-3.172 4.854l-32.476-20.227a71.91 71.91 0 003.164-4.814z" fill="#999EA4"/><path d="M342.191 335.228l32.484 20.187a76.325 76.325 0 01-3.172 4.854l-32.476-20.227a71.91 71.91 0 003.164-4.814z" fill="url(#paint73_radial_669_17589)"/><path d="M339.001 340.042l32.475 20.228a71.119 71.119 0 01-3.647 4.684l-32.476-20.187a77.078 77.078 0 003.648-4.685" fill="#999EA4"/><path d="M339.001 340.042l32.475 20.228a71.119 71.119 0 01-3.647 4.684l-32.476-20.187a77.078 77.078 0 003.648-4.685" fill="url(#paint74_radial_669_17589)"/><path d="M335.377 344.726l32.478 20.172a76.211 76.211 0 01-4.274 4.644l-32.482-20.187a75.73 75.73 0 004.278-4.645" fill="#999EA4"/><path d="M335.377 344.726l32.478 20.172a76.211 76.211 0 01-4.274 4.644l-32.482-20.187a75.73 75.73 0 004.278-4.645" fill="url(#paint75_radial_669_17589)"/><path d="M331.097 349.371l32.485 20.187a76.521 76.521 0 01-5.243 4.734l-32.485-20.188a74.032 74.032 0 005.243-4.733z" fill="#999EA4"/><path d="M331.097 349.371l32.485 20.187a76.521 76.521 0 01-5.243 4.734l-32.485-20.188a74.032 74.032 0 005.243-4.733z" fill="url(#paint76_radial_669_17589)"/><path d="M325.855 354.104l32.485 20.187a71.899 71.899 0 01-7.023 5.065l-32.485-20.188a71.39 71.39 0 007.023-5.064z" fill="#999EA4"/><path d="M325.855 354.104l32.485 20.187a71.899 71.899 0 01-7.023 5.065l-32.485-20.188a71.39 71.39 0 007.023-5.064z" fill="url(#paint77_radial_669_17589)"/><path d="M318.834 359.168l32.485 20.188a65.132 65.132 0 01-34.849 10.34l-32.485-20.187a65.09 65.09 0 0034.849-10.341z" fill="#999EA4"/><path d="M318.834 359.168l32.485 20.188a65.132 65.132 0 01-34.849 10.34l-32.485-20.187a65.09 65.09 0 0034.849-10.341z" fill="url(#paint78_radial_669_17589)"/><path d="M305.158 238.171c29.442 6.092 49.605 32.963 47.266 65.115-2.654 36.531-33.358 66.223-68.441 66.223h-225c-35.08 0-61.418-29.692-58.804-66.223 2.29-31.497 25.446-57.937 54.283-64.606a54.613 54.613 0 013.663-.734l1.62-.26c-.543.072-1.077.161-1.62.26l-3.114-6.079L34.29 191.47c-6.471-12.646-4.79-28.617 4.314-40.689l2.29-3.042.129-1.78a52.371 52.371 0 013.47-15.291c-17.961-6.433-29.937-24.597-28.431-45.94 1.94-26.7 24.393-48.416 50.05-48.416h64.621a91.14 91.14 0 015.81-7.185 41.316 41.316 0 0119.87-12.549 37.007 37.007 0 014.589-.987A41.536 41.536 0 01164.359 12a40.16 40.16 0 0120.389-10.632A80.593 80.593 0 01199.312 0c4.701 0 9.392.433 14.014 1.295a33.983 33.983 0 0119.231 10.712 35.892 35.892 0 012.882 3.592 33.91 33.91 0 0122.265 13.18 72.053 72.053 0 015.024 7.533h64.623c25.656 0 44.943 21.724 43.002 48.416-1.553 21.343-16.182 39.507-35.114 45.94 1.217 5 1.639 10.16 1.253 15.291l-.13 1.78 1.861 3.051c7.339 12.071 6.709 28.043-1.617 40.68l-30.778 46.822-1.926-.97a1.62 1.62 0 001.256.849z" fill="#228DFD"/><g filter="url(#filter0_d_669_17589)"><path d="M245.916 100.537l-6.61-5.85c.452-2.008.746-4.056.869-6.093a37.056 37.056 0 00-.132-6.086l7.325-5.948a3.685 3.685 0 001.184-1.713 3.357 3.357 0 00.034-2.01l-.081-.273a42.778 42.778 0 00-7.599-14.473l-.179-.22a3.142 3.142 0 00-1.649-1.064 3.476 3.476 0 00-2.03.087l-8.837 3.112a34.192 34.192 0 00-10.245-5.994l-1.13-8.948a3.138 3.138 0 00-.84-1.774 3.163 3.163 0 00-1.745-.92l-.286-.05c-5.479-.953-11.319-.912-16.919.12l-.29.054a3.706 3.706 0 00-1.859.944 3.68 3.68 0 00-1.057 1.787l-2.227 9.015a41.16 41.16 0 00-10.906 6.121l-8.528-3.01a3.419 3.419 0 00-2.024-.061 3.736 3.736 0 00-1.778 1.09l-.206.223a51.322 51.322 0 00-9.36 14.592l-.114.276c-.558 1.322-.254 2.797.766 3.707l6.693 5.913a37.696 37.696 0 00-.856 6.02 36.225 36.225 0 00.128 6.012l-7.394 6.012a3.683 3.683 0 00-1.184 1.712 3.342 3.342 0 00-.032 2.01l.079.274c1.608 5.295 4.155 10.182 7.602 14.472l.178.22c.416.519.99.89 1.647 1.064a3.48 3.48 0 002.032-.087l8.902-3.133a33.863 33.863 0 0010.171 5.973l1.139 8.991c.085.674.378 1.292.84 1.774a3.16 3.16 0 001.745.919l.284.051c4.861.841 9.871.912 14.848.215a48.847 48.847 0 002.073-.335l.291-.054a3.716 3.716 0 001.856-.945 3.671 3.671 0 001.057-1.787l2.216-8.972a40.91 40.91 0 0010.979-6.143l8.469 2.989a3.407 3.407 0 002.021.062 3.724 3.724 0 001.778-1.091l.206-.223a53.416 53.416 0 001.526-1.752 51.166 51.166 0 007.836-12.84l.112-.275c.538-1.312.232-2.776-.789-3.687z" stroke="#E5EDF6" stroke-width="3.567"/><g filter="url(#filter1_d_669_17589)" fill-rule="evenodd" clip-rule="evenodd" fill="#E5EDF6"><path d="M203.461 82.09c-3.538.026-6.581 2.91-6.795 6.442-.215 3.533 2.481 6.377 6.02 6.352 3.541-.025 6.583-2.91 6.795-6.442.215-3.532-2.479-6.376-6.02-6.351zM188.7 88.589c.48-7.924 7.304-14.394 15.244-14.45 7.939-.056 13.986 6.323 13.505 14.248-.48 7.925-7.304 14.394-15.243 14.45-7.94.056-13.987-6.323-13.506-14.248zM86.07 305.301c-3.538.024-6.58 2.908-6.795 6.44-.215 3.534 2.482 6.378 6.02 6.353 3.54-.027 6.583-2.911 6.796-6.443.214-3.531-2.48-6.375-6.02-6.35zm-14.761 6.496c.48-7.924 7.305-14.393 15.244-14.449 7.94-.056 13.986 6.322 13.506 14.248-.48 7.923-7.305 14.395-15.244 14.451-7.94.055-13.986-6.325-13.506-14.25zm65.644-6.856c-3.538.027-6.581 2.911-6.795 6.443-.215 3.531 2.482 6.375 6.02 6.351 3.538-.025 6.581-2.909 6.795-6.441.215-3.534-2.481-6.377-6.02-6.353zm-14.761 6.499c.478-7.924 7.305-14.396 15.244-14.451 7.939-.056 13.984 6.324 13.506 14.247-.481 7.926-7.307 14.395-15.246 14.451-7.94.056-13.984-6.322-13.504-14.247zm65.642-6.857c-3.54.024-6.583 2.908-6.795 6.442-.215 3.532 2.482 6.376 6.02 6.351 3.539-.024 6.581-2.908 6.796-6.442.214-3.532-2.482-6.376-6.021-6.351zm-14.763 6.498c.48-7.926 7.304-14.395 15.244-14.451 7.939-.056 13.986 6.324 13.506 14.248-.481 7.926-7.305 14.395-15.244 14.451-7.939.056-13.987-6.324-13.506-14.248zm65.645-6.855c-3.539.025-6.581 2.909-6.796 6.441-.212 3.534 2.482 6.377 6.023 6.351 3.538-.025 6.581-2.909 6.795-6.441.213-3.534-2.481-6.375-6.022-6.351zm-14.762 6.496c.481-7.923 7.305-14.392 15.244-14.448 7.94-.056 13.987 6.322 13.506 14.247-.48 7.924-7.304 14.393-15.244 14.449-7.939.056-13.986-6.322-13.506-14.248zm65.647-6.856c-3.539.025-6.581 2.909-6.796 6.443-.214 3.532 2.482 6.375 6.021 6.351 3.54-.025 6.583-2.909 6.795-6.443.214-3.531-2.482-6.375-6.02-6.351zm-14.762 6.499c.481-7.926 7.305-14.395 15.244-14.451 7.939-.056 13.986 6.324 13.506 14.248-.48 7.925-7.305 14.395-15.244 14.45-7.939.056-13.986-6.321-13.506-14.247zM99.493 244.068l-2.187 36.084-7.966.055 2.339-38.628c.18-2.986 2.752-5.423 5.745-5.446l37.983-.266c2.991-.022 5.269 2.382 5.088 5.368l-2.341 38.631-7.966.055 2.187-36.083-12.458.087-.625 10.332-7.969.055.626-10.331-12.456.087zm77.04-.544l-2.185 36.084-7.968.058 2.341-38.63c.181-2.987 2.752-5.424 5.743-5.446l37.983-.266c2.991-.022 5.269 2.381 5.088 5.368l-2.338 38.63-7.969.056 2.187-36.084-12.458.087-.625 10.332-7.966.056.625-10.332-12.458.087zm71.665-.502l-2.185 36.084-7.968.056 2.341-38.631c.181-2.986 2.752-5.423 5.743-5.443l37.983-.269c2.993-.022 5.272 2.382 5.091 5.368l-2.341 38.631-7.966.056 2.184-36.084-12.456.087-.627 10.332-7.966.056.625-10.332-12.458.089zM48.8 92.076c.565-9.307 8.58-16.906 17.904-16.971l73.816-.52-.482 7.953-73.814.52c-4.926.034-9.159 4.047-9.456 8.962-.3 4.916 3.451 8.872 8.377 8.837l73.816-.519-.483 7.952-39.374.278-1.948 32.149-7.966.056 1.946-32.149-26.474.186c-9.324.066-16.425-7.426-15.862-16.734z"/><path d="M101.689 153.199c.299-4.916-3.452-8.872-8.377-8.838-4.924.035-9.157 4.048-9.456 8.963l-.715 11.804-7.966.056.715-11.804c.563-9.307 8.58-16.906 17.904-16.971 9.324-.066 16.426 7.426 15.863 16.734l-.715 11.803-7.968.056.715-11.803z"/><path d="M83.337 167.314L73.72 179.86l10.267 18.588c1.032 1.867.288 4.318-1.658 5.475-1.948 1.155-4.365.579-5.395-1.287L65.88 182.623c-1.014-1.834-.791-4.17.565-5.94l11.498-15c1.101-1.438 2.8-2.3 4.557-2.313l21.291-.15c1.673-.011 3.205.75 4.153 2.063l9.726 13.495c1.24 1.72 1.264 4.086.062 5.993l-13.591 21.575c-1.206 1.914-3.679 2.596-5.524 1.521-1.843-1.076-2.361-3.5-1.155-5.415l12.655-20.091-8.058-11.179-18.722.132zM356.33 89.911c.563-9.307-6.539-16.8-15.863-16.734l-73.816.52-.482 7.953 73.816-.52c4.925-.035 8.674 3.922 8.377 8.837-.298 4.916-4.531 8.928-9.456 8.963l-73.814.52-.483 7.953 39.374-.278-1.947 32.15 7.968-.056 1.945-32.15 26.476-.186c9.324-.066 17.34-7.664 17.905-16.972z"/><path d="M295.986 151.83c.298-4.915 4.531-8.928 9.456-8.962 4.924-.035 8.675 3.922 8.377 8.837l-.714 11.803 7.966-.056.714-11.803c.566-9.308-6.536-16.8-15.86-16.734-9.326.066-17.342 7.664-17.905 16.972l-.714 11.803 7.966-.056.714-11.804zm-100.464 1.495c-7.51 1.839-13.41 8.534-13.892 16.472l-.715 11.802 7.968-.056.715-11.803c.297-4.915 4.53-8.928 9.456-8.962 4.923-.035 8.674 3.922 8.377 8.837l-.715 11.803 7.966-.056.715-11.803c.483-7.938-4.613-14.555-11.907-16.29l1.044-17.241-7.966.056-1.046 17.241z"/><path d="M312.647 165.699l8.105 12.423-12.53 18.749c-1.26 1.883-.813 4.324.996 5.455 1.81 1.128 4.296.518 5.556-1.365l13.488-20.186c1.238-1.851 1.298-4.186.156-5.937l-9.69-14.851c-.927-1.424-2.524-2.263-4.28-2.25l-21.291.15c-1.673.011-3.302.795-4.408 2.122l-11.37 13.645c-1.447 1.738-1.758 4.106-.786 5.998l10.984 21.403c.976 1.898 3.368 2.544 5.345 1.443 1.977-1.102 2.788-3.537 1.814-5.435l-10.231-19.931 9.418-11.301 18.724-.132zM206.259 183.61l8.102 12.421-12.529 18.748c-1.258 1.884-.811 4.327.998 5.456 1.81 1.13 4.296.52 5.556-1.363l13.488-20.185c1.237-1.852 1.298-4.187.154-5.938l-9.688-14.851c-.93-1.425-2.525-2.263-4.283-2.251l-21.288.149c-1.676.014-3.302.796-4.408 2.125l-11.37 13.644c-1.448 1.738-1.758 4.106-.789 5.998l10.987 21.401c.976 1.901 3.368 2.546 5.345 1.445 1.977-1.104 2.788-3.536 1.814-5.435l-10.231-19.931 9.418-11.301 18.724-.132zM35.497 311.691c1.162-19.184 17.684-34.846 36.904-34.98l235.78-1.662c19.218-.134 33.856 15.309 32.695 34.493-1.162 19.185-17.686 34.846-36.904 34.983l-235.78 1.659c-19.22.134-33.856-15.308-32.695-34.493zm36.421-27.027c-14.82.103-27.559 12.179-28.455 26.971-.896 14.793 10.392 26.7 25.212 26.597l235.778-1.662c14.819-.103 27.559-12.179 28.455-26.972.895-14.793-10.39-26.699-25.21-26.596l-235.78 1.662z"/></g></g><defs><radialGradient id="paint0_radial_669_17589" cx="0" cy="0" r="1" gradientUnits="userSpaceOnUse" gradientTransform="rotate(125.857 196.29 144.468) scale(625.273 669.6)"><stop stop-color="#4297E7"/><stop offset="1" stop-color="#0069CC"/></radialGradient><radialGradient id="paint1_radial_669_17589" cx="0" cy="0" r="1" gradientUnits="userSpaceOnUse" gradientTransform="rotate(125.857 196.29 144.468) scale(625.273 669.6)"><stop stop-color="#4297E7"/><stop offset="1" stop-color="#0069CC"/></radialGradient><radialGradient id="paint2_radial_669_17589" cx="0" cy="0" r="1" gradientUnits="userSpaceOnUse" gradientTransform="rotate(125.857 196.29 144.468) scale(625.273 669.599)"><stop stop-color="#4297E7"/><stop offset="1" stop-color="#0069CC"/></radialGradient><radialGradient id="paint3_radial_669_17589" cx="0" cy="0" r="1" gradientUnits="userSpaceOnUse" gradientTransform="rotate(125.857 196.29 144.468) scale(625.273 669.599)"><stop stop-color="#4297E7"/><stop offset="1" stop-color="#0069CC"/></radialGradient><radialGradient id="paint4_radial_669_17589" cx="0" cy="0" r="1" gradientUnits="userSpaceOnUse" gradientTransform="rotate(125.857 196.29 144.468) scale(625.273 669.599)"><stop stop-color="#4297E7"/><stop offset="1" stop-color="#0069CC"/></radialGradient><radialGradient id="paint5_radial_669_17589" cx="0" cy="0" r="1" gradientUnits="userSpaceOnUse" gradientTransform="rotate(125.857 196.29 144.468) scale(625.272 669.599)"><stop stop-color="#4297E7"/><stop offset="1" stop-color="#0069CC"/></radialGradient><radialGradient id="paint6_radial_669_17589" cx="0" cy="0" r="1" gradientUnits="userSpaceOnUse" gradientTransform="rotate(125.857 196.29 144.468) scale(625.273 669.599)"><stop stop-color="#4297E7"/><stop offset="1" stop-color="#0069CC"/></radialGradient><radialGradient id="paint7_radial_669_17589" cx="0" cy="0" r="1" gradientUnits="userSpaceOnUse" gradientTransform="rotate(125.857 196.29 144.468) scale(625.273 669.6)"><stop stop-color="#4297E7"/><stop offset="1" stop-color="#0069CC"/></radialGradient><radialGradient id="paint8_radial_669_17589" cx="0" cy="0" r="1" gradientUnits="userSpaceOnUse" gradientTransform="rotate(125.857 196.29 144.468) scale(625.273 669.6)"><stop stop-color="#4297E7"/><stop offset="1" stop-color="#0069CC"/></radialGradient><radialGradient id="paint9_radial_669_17589" cx="0" cy="0" r="1" gradientUnits="userSpaceOnUse" gradientTransform="rotate(125.857 196.29 144.468) scale(625.273 669.599)"><stop stop-color="#4297E7"/><stop offset="1" stop-color="#0069CC"/></radialGradient><radialGradient id="paint10_radial_669_17589" cx="0" cy="0" r="1" gradientUnits="userSpaceOnUse" gradientTransform="rotate(125.857 196.29 144.468) scale(625.273 669.599)"><stop stop-color="#4297E7"/><stop offset="1" stop-color="#0069CC"/></radialGradient><radialGradient id="paint11_radial_669_17589" cx="0" cy="0" r="1" gradientUnits="userSpaceOnUse" gradientTransform="rotate(125.857 196.29 144.468) scale(625.273 669.599)"><stop stop-color="#4297E7"/><stop offset="1" stop-color="#0069CC"/></radialGradient><radialGradient id="paint12_radial_669_17589" cx="0" cy="0" r="1" gradientUnits="userSpaceOnUse" gradientTransform="rotate(125.857 196.291 144.468) scale(625.273 669.6)"><stop stop-color="#4297E7"/><stop offset="1" stop-color="#0069CC"/></radialGradient><radialGradient id="paint13_radial_669_17589" cx="0" cy="0" r="1" gradientUnits="userSpaceOnUse" gradientTransform="rotate(125.857 196.29 144.468) scale(625.273 669.599)"><stop stop-color="#4297E7"/><stop offset="1" stop-color="#0069CC"/></radialGradient><radialGradient id="paint14_radial_669_17589" cx="0" cy="0" r="1" gradientUnits="userSpaceOnUse" gradientTransform="rotate(125.857 196.29 144.468) scale(625.273 669.599)"><stop stop-color="#4297E7"/><stop offset="1" stop-color="#0069CC"/></radialGradient><radialGradient id="paint15_radial_669_17589" cx="0" cy="0" r="1" gradientUnits="userSpaceOnUse" gradientTransform="rotate(125.857 196.29 144.468) scale(625.273 669.599)"><stop stop-color="#4297E7"/><stop offset="1" stop-color="#0069CC"/></radialGradient><radialGradient id="paint16_radial_669_17589" cx="0" cy="0" r="1" gradientUnits="userSpaceOnUse" gradientTransform="rotate(125.857 196.29 144.468) scale(625.273 669.599)"><stop stop-color="#4297E7"/><stop offset="1" stop-color="#0069CC"/></radialGradient><radialGradient id="paint17_radial_669_17589" cx="0" cy="0" r="1" gradientUnits="userSpaceOnUse" gradientTransform="rotate(125.857 196.291 144.468) scale(625.273 669.599)"><stop stop-color="#4297E7"/><stop offset="1" stop-color="#0069CC"/></radialGradient><radialGradient id="paint18_radial_669_17589" cx="0" cy="0" r="1" gradientUnits="userSpaceOnUse" gradientTransform="rotate(125.857 196.29 144.468) scale(625.273 669.6)"><stop stop-color="#4297E7"/><stop offset="1" stop-color="#0069CC"/></radialGradient><radialGradient id="paint19_radial_669_17589" cx="0" cy="0" r="1" gradientUnits="userSpaceOnUse" gradientTransform="rotate(125.857 196.29 144.468) scale(625.273 669.599)"><stop stop-color="#4297E7"/><stop offset="1" stop-color="#0069CC"/></radialGradient><radialGradient id="paint20_radial_669_17589" cx="0" cy="0" r="1" gradientUnits="userSpaceOnUse" gradientTransform="rotate(125.857 196.29 144.468) scale(625.273 669.6)"><stop stop-color="#4297E7"/><stop offset="1" stop-color="#0069CC"/></radialGradient><radialGradient id="paint21_radial_669_17589" cx="0" cy="0" r="1" gradientUnits="userSpaceOnUse" gradientTransform="rotate(125.857 196.29 144.468) scale(625.273 669.6)"><stop stop-color="#4297E7"/><stop offset="1" stop-color="#0069CC"/></radialGradient><radialGradient id="paint22_radial_669_17589" cx="0" cy="0" r="1" gradientUnits="userSpaceOnUse" gradientTransform="rotate(125.857 196.29 144.468) scale(625.273 669.6)"><stop stop-color="#4297E7"/><stop offset="1" stop-color="#0069CC"/></radialGradient><radialGradient id="paint23_radial_669_17589" cx="0" cy="0" r="1" gradientUnits="userSpaceOnUse" gradientTransform="rotate(125.857 196.29 144.468) scale(625.273 669.599)"><stop stop-color="#4297E7"/><stop offset="1" stop-color="#0069CC"/></radialGradient><radialGradient id="paint24_radial_669_17589" cx="0" cy="0" r="1" gradientUnits="userSpaceOnUse" gradientTransform="rotate(125.857 196.29 144.468) scale(625.273 669.599)"><stop stop-color="#4297E7"/><stop offset="1" stop-color="#0069CC"/></radialGradient><radialGradient id="paint25_radial_669_17589" cx="0" cy="0" r="1" gradientUnits="userSpaceOnUse" gradientTransform="rotate(125.857 196.29 144.468) scale(625.273 669.6)"><stop stop-color="#4297E7"/><stop offset="1" stop-color="#0069CC"/></radialGradient><radialGradient id="paint26_radial_669_17589" cx="0" cy="0" r="1" gradientUnits="userSpaceOnUse" gradientTransform="rotate(125.857 196.29 144.468) scale(625.273 669.599)"><stop stop-color="#4297E7"/><stop offset="1" stop-color="#0069CC"/></radialGradient><radialGradient id="paint27_radial_669_17589" cx="0" cy="0" r="1" gradientUnits="userSpaceOnUse" gradientTransform="rotate(125.857 196.29 144.468) scale(625.273 669.599)"><stop stop-color="#4297E7"/><stop offset="1" stop-color="#0069CC"/></radialGradient><radialGradient id="paint28_radial_669_17589" cx="0" cy="0" r="1" gradientUnits="userSpaceOnUse" gradientTransform="rotate(125.857 196.29 144.468) scale(625.273 669.6)"><stop stop-color="#4297E7"/><stop offset="1" stop-color="#0069CC"/></radialGradient><radialGradient id="paint29_radial_669_17589" cx="0" cy="0" r="1" gradientUnits="userSpaceOnUse" gradientTransform="rotate(125.857 196.291 144.468) scale(625.273 669.599)"><stop stop-color="#4297E7"/><stop offset="1" stop-color="#0069CC"/></radialGradient><radialGradient id="paint30_radial_669_17589" cx="0" cy="0" r="1" gradientUnits="userSpaceOnUse" gradientTransform="rotate(125.857 196.29 144.467) scale(625.273 669.6)"><stop stop-color="#4297E7"/><stop offset="1" stop-color="#0069CC"/></radialGradient><radialGradient id="paint31_radial_669_17589" cx="0" cy="0" r="1" gradientUnits="userSpaceOnUse" gradientTransform="rotate(125.857 196.29 144.468) scale(625.273 669.6)"><stop stop-color="#4297E7"/><stop offset="1" stop-color="#0069CC"/></radialGradient><radialGradient id="paint32_radial_669_17589" cx="0" cy="0" r="1" gradientUnits="userSpaceOnUse" gradientTransform="rotate(125.857 196.29 144.468) scale(625.273 669.599)"><stop stop-color="#4297E7"/><stop offset="1" stop-color="#0069CC"/></radialGradient><radialGradient id="paint33_radial_669_17589" cx="0" cy="0" r="1" gradientUnits="userSpaceOnUse" gradientTransform="rotate(125.857 196.291 144.468) scale(625.273 669.6)"><stop stop-color="#4297E7"/><stop offset="1" stop-color="#0069CC"/></radialGradient><radialGradient id="paint34_radial_669_17589" cx="0" cy="0" r="1" gradientUnits="userSpaceOnUse" gradientTransform="rotate(125.857 196.29 144.467) scale(625.273 669.6)"><stop stop-color="#4297E7"/><stop offset="1" stop-color="#0069CC"/></radialGradient><radialGradient id="paint35_radial_669_17589" cx="0" cy="0" r="1" gradientUnits="userSpaceOnUse" gradientTransform="rotate(125.857 196.29 144.468) scale(625.272 669.599)"><stop stop-color="#4297E7"/><stop offset="1" stop-color="#0069CC"/></radialGradient><radialGradient id="paint36_radial_669_17589" cx="0" cy="0" r="1" gradientUnits="userSpaceOnUse" gradientTransform="rotate(125.857 196.29 144.468) scale(625.273 669.599)"><stop stop-color="#4297E7"/><stop offset="1" stop-color="#0069CC"/></radialGradient><radialGradient id="paint37_radial_669_17589" cx="0" cy="0" r="1" gradientUnits="userSpaceOnUse" gradientTransform="rotate(125.857 196.29 144.467) scale(625.273 669.599)"><stop stop-color="#4297E7"/><stop offset="1" stop-color="#0069CC"/></radialGradient><radialGradient id="paint38_radial_669_17589" cx="0" cy="0" r="1" gradientUnits="userSpaceOnUse" gradientTransform="rotate(125.857 196.29 144.468) scale(625.273 669.599)"><stop stop-color="#4297E7"/><stop offset="1" stop-color="#0069CC"/></radialGradient><radialGradient id="paint39_radial_669_17589" cx="0" cy="0" r="1" gradientUnits="userSpaceOnUse" gradientTransform="rotate(125.857 196.291 144.468) scale(625.273 669.599)"><stop stop-color="#4297E7"/><stop offset="1" stop-color="#0069CC"/></radialGradient><radialGradient id="paint40_radial_669_17589" cx="0" cy="0" r="1" gradientUnits="userSpaceOnUse" gradientTransform="rotate(125.857 196.29 144.468) scale(625.273 669.599)"><stop stop-color="#4297E7"/><stop offset="1" stop-color="#0069CC"/></radialGradient><radialGradient id="paint41_radial_669_17589" cx="0" cy="0" r="1" gradientUnits="userSpaceOnUse" gradientTransform="rotate(125.857 196.29 144.468) scale(625.273 669.6)"><stop stop-color="#4297E7"/><stop offset="1" stop-color="#0069CC"/></radialGradient><radialGradient id="paint42_radial_669_17589" cx="0" cy="0" r="1" gradientUnits="userSpaceOnUse" gradientTransform="rotate(125.857 196.29 144.468) scale(625.273 669.6)"><stop stop-color="#4297E7"/><stop offset="1" stop-color="#0069CC"/></radialGradient><radialGradient id="paint43_radial_669_17589" cx="0" cy="0" r="1" gradientUnits="userSpaceOnUse" gradientTransform="rotate(125.857 196.29 144.468) scale(625.273 669.6)"><stop stop-color="#4297E7"/><stop offset="1" stop-color="#0069CC"/></radialGradient><radialGradient id="paint44_radial_669_17589" cx="0" cy="0" r="1" gradientUnits="userSpaceOnUse" gradientTransform="rotate(125.857 196.29 144.468) scale(625.273 669.6)"><stop stop-color="#4297E7"/><stop offset="1" stop-color="#0069CC"/></radialGradient><radialGradient id="paint45_radial_669_17589" cx="0" cy="0" r="1" gradientUnits="userSpaceOnUse" gradientTransform="rotate(125.857 196.29 144.468) scale(625.273 669.599)"><stop stop-color="#4297E7"/><stop offset="1" stop-color="#0069CC"/></radialGradient><radialGradient id="paint46_radial_669_17589" cx="0" cy="0" r="1" gradientUnits="userSpaceOnUse" gradientTransform="rotate(125.857 196.29 144.468) scale(625.272 669.599)"><stop stop-color="#4297E7"/><stop offset="1" stop-color="#0069CC"/></radialGradient><radialGradient id="paint47_radial_669_17589" cx="0" cy="0" r="1" gradientUnits="userSpaceOnUse" gradientTransform="rotate(125.857 196.29 144.468) scale(625.273 669.599)"><stop stop-color="#4297E7"/><stop offset="1" stop-color="#0069CC"/></radialGradient><radialGradient id="paint48_radial_669_17589" cx="0" cy="0" r="1" gradientUnits="userSpaceOnUse" gradientTransform="rotate(125.857 196.29 144.468) scale(625.273 669.599)"><stop stop-color="#4297E7"/><stop offset="1" stop-color="#0069CC"/></radialGradient><radialGradient id="paint49_radial_669_17589" cx="0" cy="0" r="1" gradientUnits="userSpaceOnUse" gradientTransform="rotate(125.857 196.29 144.468) scale(625.273 669.6)"><stop stop-color="#4297E7"/><stop offset="1" stop-color="#0069CC"/></radialGradient><radialGradient id="paint50_radial_669_17589" cx="0" cy="0" r="1" gradientUnits="userSpaceOnUse" gradientTransform="rotate(125.857 196.29 144.468) scale(625.273 669.6)"><stop stop-color="#4297E7"/><stop offset="1" stop-color="#0069CC"/></radialGradient><radialGradient id="paint51_radial_669_17589" cx="0" cy="0" r="1" gradientUnits="userSpaceOnUse" gradientTransform="rotate(125.857 196.29 144.468) scale(625.273 669.6)"><stop stop-color="#4297E7"/><stop offset="1" stop-color="#0069CC"/></radialGradient><radialGradient id="paint52_radial_669_17589" cx="0" cy="0" r="1" gradientUnits="userSpaceOnUse" gradientTransform="rotate(125.857 196.29 144.468) scale(625.273 669.6)"><stop stop-color="#4297E7"/><stop offset="1" stop-color="#0069CC"/></radialGradient><radialGradient id="paint53_radial_669_17589" cx="0" cy="0" r="1" gradientUnits="userSpaceOnUse" gradientTransform="rotate(125.857 196.29 144.468) scale(625.273 669.599)"><stop stop-color="#4297E7"/><stop offset="1" stop-color="#0069CC"/></radialGradient><radialGradient id="paint54_radial_669_17589" cx="0" cy="0" r="1" gradientUnits="userSpaceOnUse" gradientTransform="rotate(125.857 196.29 144.468) scale(625.273 669.599)"><stop stop-color="#4297E7"/><stop offset="1" stop-color="#0069CC"/></radialGradient><radialGradient id="paint55_radial_669_17589" cx="0" cy="0" r="1" gradientUnits="userSpaceOnUse" gradientTransform="rotate(125.857 196.29 144.468) scale(625.273 669.599)"><stop stop-color="#4297E7"/><stop offset="1" stop-color="#0069CC"/></radialGradient><radialGradient id="paint56_radial_669_17589" cx="0" cy="0" r="1" gradientUnits="userSpaceOnUse" gradientTransform="rotate(125.857 196.29 144.468) scale(625.273 669.6)"><stop stop-color="#4297E7"/><stop offset="1" stop-color="#0069CC"/></radialGradient><radialGradient id="paint57_radial_669_17589" cx="0" cy="0" r="1" gradientUnits="userSpaceOnUse" gradientTransform="rotate(125.857 196.29 144.468) scale(625.273 669.6)"><stop stop-color="#4297E7"/><stop offset="1" stop-color="#0069CC"/></radialGradient><radialGradient id="paint58_radial_669_17589" cx="0" cy="0" r="1" gradientUnits="userSpaceOnUse" gradientTransform="rotate(125.857 196.29 144.467) scale(625.273 669.599)"><stop stop-color="#4297E7"/><stop offset="1" stop-color="#0069CC"/></radialGradient><radialGradient id="paint59_radial_669_17589" cx="0" cy="0" r="1" gradientUnits="userSpaceOnUse" gradientTransform="rotate(125.857 196.29 144.468) scale(625.273 669.599)"><stop stop-color="#4297E7"/><stop offset="1" stop-color="#0069CC"/></radialGradient><radialGradient id="paint60_radial_669_17589" cx="0" cy="0" r="1" gradientUnits="userSpaceOnUse" gradientTransform="rotate(125.857 196.29 144.468) scale(625.273 669.6)"><stop stop-color="#4297E7"/><stop offset="1" stop-color="#0069CC"/></radialGradient><radialGradient id="paint61_radial_669_17589" cx="0" cy="0" r="1" gradientUnits="userSpaceOnUse" gradientTransform="rotate(125.857 196.291 144.468) scale(625.273 669.599)"><stop stop-color="#4297E7"/><stop offset="1" stop-color="#0069CC"/></radialGradient><radialGradient id="paint62_radial_669_17589" cx="0" cy="0" r="1" gradientUnits="userSpaceOnUse" gradientTransform="rotate(125.857 196.29 144.468) scale(625.273 669.599)"><stop stop-color="#4297E7"/><stop offset="1" stop-color="#0069CC"/></radialGradient><radialGradient id="paint63_radial_669_17589" cx="0" cy="0" r="1" gradientUnits="userSpaceOnUse" gradientTransform="rotate(125.857 196.29 144.468) scale(625.273 669.6)"><stop stop-color="#4297E7"/><stop offset="1" stop-color="#0069CC"/></radialGradient><radialGradient id="paint64_radial_669_17589" cx="0" cy="0" r="1" gradientUnits="userSpaceOnUse" gradientTransform="rotate(125.857 196.29 144.468) scale(625.273 669.599)"><stop stop-color="#4297E7"/><stop offset="1" stop-color="#0069CC"/></radialGradient><radialGradient id="paint65_radial_669_17589" cx="0" cy="0" r="1" gradientUnits="userSpaceOnUse" gradientTransform="rotate(125.857 196.291 144.468) scale(625.272 669.599)"><stop stop-color="#4297E7"/><stop offset="1" stop-color="#0069CC"/></radialGradient><radialGradient id="paint66_radial_669_17589" cx="0" cy="0" r="1" gradientUnits="userSpaceOnUse" gradientTransform="rotate(125.857 196.29 144.468) scale(625.273 669.6)"><stop stop-color="#4297E7"/><stop offset="1" stop-color="#0069CC"/></radialGradient><radialGradient id="paint67_radial_669_17589" cx="0" cy="0" r="1" gradientUnits="userSpaceOnUse" gradientTransform="rotate(125.857 196.29 144.468) scale(625.273 669.599)"><stop stop-color="#4297E7"/><stop offset="1" stop-color="#0069CC"/></radialGradient><radialGradient id="paint68_radial_669_17589" cx="0" cy="0" r="1" gradientUnits="userSpaceOnUse" gradientTransform="rotate(125.857 196.29 144.467) scale(625.273 669.599)"><stop stop-color="#4297E7"/><stop offset="1" stop-color="#0069CC"/></radialGradient><radialGradient id="paint69_radial_669_17589" cx="0" cy="0" r="1" gradientUnits="userSpaceOnUse" gradientTransform="rotate(125.857 196.29 144.468) scale(625.273 669.6)"><stop stop-color="#4297E7"/><stop offset="1" stop-color="#0069CC"/></radialGradient><radialGradient id="paint70_radial_669_17589" cx="0" cy="0" r="1" gradientUnits="userSpaceOnUse" gradientTransform="rotate(125.857 196.29 144.468) scale(625.272 669.599)"><stop stop-color="#4297E7"/><stop offset="1" stop-color="#0069CC"/></radialGradient><radialGradient id="paint71_radial_669_17589" cx="0" cy="0" r="1" gradientUnits="userSpaceOnUse" gradientTransform="rotate(125.857 196.29 144.468) scale(625.273 669.599)"><stop stop-color="#4297E7"/><stop offset="1" stop-color="#0069CC"/></radialGradient><radialGradient id="paint72_radial_669_17589" cx="0" cy="0" r="1" gradientUnits="userSpaceOnUse" gradientTransform="rotate(125.857 196.29 144.468) scale(625.273 669.599)"><stop stop-color="#4297E7"/><stop offset="1" stop-color="#0069CC"/></radialGradient><radialGradient id="paint73_radial_669_17589" cx="0" cy="0" r="1" gradientUnits="userSpaceOnUse" gradientTransform="rotate(125.857 196.291 144.468) scale(625.273 669.6)"><stop stop-color="#4297E7"/><stop offset="1" stop-color="#0069CC"/></radialGradient><radialGradient id="paint74_radial_669_17589" cx="0" cy="0" r="1" gradientUnits="userSpaceOnUse" gradientTransform="rotate(125.857 196.29 144.468) scale(625.273 669.6)"><stop stop-color="#4297E7"/><stop offset="1" stop-color="#0069CC"/></radialGradient><radialGradient id="paint75_radial_669_17589" cx="0" cy="0" r="1" gradientUnits="userSpaceOnUse" gradientTransform="rotate(125.857 196.29 144.468) scale(625.273 669.6)"><stop stop-color="#4297E7"/><stop offset="1" stop-color="#0069CC"/></radialGradient><radialGradient id="paint76_radial_669_17589" cx="0" cy="0" r="1" gradientUnits="userSpaceOnUse" gradientTransform="rotate(125.857 196.29 144.468) scale(625.273 669.6)"><stop stop-color="#4297E7"/><stop offset="1" stop-color="#0069CC"/></radialGradient><radialGradient id="paint77_radial_669_17589" cx="0" cy="0" r="1" gradientUnits="userSpaceOnUse" gradientTransform="rotate(125.857 196.29 144.468) scale(625.273 669.6)"><stop stop-color="#4297E7"/><stop offset="1" stop-color="#0069CC"/></radialGradient><radialGradient id="paint78_radial_669_17589" cx="0" cy="0" r="1" gradientUnits="userSpaceOnUse" gradientTransform="rotate(125.857 196.29 144.468) scale(625.273 669.599)"><stop stop-color="#4297E7"/><stop offset="1" stop-color="#0069CC"/></radialGradient><filter id="filter0_d_669_17589" x="34.006" y="39.851" width="323.782" height="310.258" filterUnits="userSpaceOnUse" color-interpolation-filters="sRGB"><feFlood flood-opacity="0" result="BackgroundImageFix"/><feColorMatrix in="SourceAlpha" values="0 0 0 0 0 0 0 0 0 0 0 0 0 0 0 0 0 0 127 0" result="hardAlpha"/><feOffset dy="2.497"/><feGaussianBlur stdDeviation=".713"/><feComposite in2="hardAlpha" operator="out"/><feColorMatrix values="0 0 0 0 0.065625 0 0 0 0 0.419165 0 0 0 0 0.75 0 0 0 1 0"/><feBlend in2="BackgroundImageFix" result="effect1_dropShadow_669_17589"/><feBlend in="SourceGraphic" in2="effect1_dropShadow_669_17589" result="shape"/></filter><filter id="filter1_d_669_17589" x="34.006" y="73.177" width="323.782" height="275.862" filterUnits="userSpaceOnUse" color-interpolation-filters="sRGB"><feFlood flood-opacity="0" result="BackgroundImageFix"/><feColorMatrix in="SourceAlpha" values="0 0 0 0 0 0 0 0 0 0 0 0 0 0 0 0 0 0 127 0" result="hardAlpha"/><feOffset dy="1.427"/><feGaussianBlur stdDeviation=".713"/><feComposite in2="hardAlpha" operator="out"/><feColorMatrix values="0 0 0 0 0 0 0 0 0 0 0 0 0 0 0 0 0 0 0.25 0"/><feBlend in2="BackgroundImageFix" result="effect1_dropShadow_669_17589"/><feBlend in="SourceGraphic" in2="effect1_dropShadow_669_17589" result="shape"/></filter></defs></svg>