<svg viewBox="0 0 183 67" xmlns="http://www.w3.org/2000/svg" xmlns:xlink="http://www.w3.org/1999/xlink"><style>:root&gt;svg{display:none}:root&gt;svg:target{display:block}</style><svg fill="none" viewBox="0 0 23 24" id="cart" xmlns="http://www.w3.org/2000/svg"><g clip-path="url(#aa)"><path d="M6.9 19.2c-1.265 0-2.3 1.08-2.3 2.4 0 1.32 1.035 2.4 2.3 2.4s2.3-1.08 2.3-2.4c0-1.32-1.035-2.4-2.3-2.4zM0 0v2.4h2.3l4.14 9.12-1.61 2.88c-.115.36-.23.84-.23 1.2 0 1.32 1.035 2.4 2.3 2.4h13.8v-2.4H7.36c-.115 0-.23-.12-.23-.24v-.12l1.035-2.04h8.51c.92 0 1.61-.48 1.955-1.2l4.14-7.8c.23-.24.23-.36.23-.6 0-.72-.46-1.2-1.15-1.2H4.83L3.795 0H0zm18.4 19.2c-1.265 0-2.3 1.08-2.3 2.4 0 1.32 1.035 2.4 2.3 2.4s2.3-1.08 2.3-2.4c0-1.32-1.035-2.4-2.3-2.4z" fill="#fff"/></g><defs><clipPath id="aa"><path fill="#fff" d="M0 0h23v24H0z"/></clipPath></defs></svg><svg fill="none" viewBox="0 0 38 41" id="finger" xmlns="http://www.w3.org/2000/svg"><path fill-rule="evenodd" clip-rule="evenodd" d="M4.021.146C3.654.381.129 4.015.069 4.22c-.133.454.008.649 1.767 2.45 1.978 2.025 2.201 2.213 2.638 2.213.527 0 .947-.567.815-1.101-.033-.132-.486-.66-1.13-1.319L3.084 5.365l4.344-.023c4.757-.025 4.558-.004 4.826-.507.27-.51-.04-1.098-.653-1.242-.167-.04-2.154-.072-4.415-.074l-4.112-.001 1.038-1.061c.571-.584 1.078-1.14 1.126-1.236C5.44.82 5.234.288 4.81.108c-.356-.15-.504-.143-.788.038zm26.4.004c-.308.19-.42.39-.42.748 0 .356.246.687 1.298 1.739l.84.84-4.292.04c-3.93.037-4.31.052-4.497.182-.387.266-.505.844-.253 1.234.274.423.308.426 4.9.426h4.25l-1.123 1.148c-1.093 1.116-1.123 1.156-1.123 1.49 0 .281.047.389.268.614.222.224.329.272.607.272.334 0 .353-.016 2.27-1.942 1.064-1.068 1.982-2.054 2.04-2.191.21-.493.095-.653-1.922-2.69C31.134-.092 30.98-.195 30.421.15zM16.714 5.488c-1.124.304-2.056 1.242-2.46 2.474-.082.253-.113 1.963-.146 8.183l-.043 7.862-1.424-1.083c-2.074-1.58-2.485-1.817-3.503-2.024-1.761-.359-3.917.607-4.587 2.055-.176.381-.213.574-.213 1.103 0 1.223-.418.733 7.1 8.337 4.074 4.12 6.863 6.878 7.182 7.105a8.063 8.063 0 003.283 1.373c.954.169 5.658.17 6.793.001 1.23-.182 2.146-.478 3.117-1.008a9.942 9.942 0 004.872-6.183c.325-1.226.369-2.256.338-7.824-.027-4.786-.04-5.193-.175-5.554-.242-.646-.5-1.05-.943-1.473-.768-.736-1.566-1.026-2.644-.961-.625.038-1.104.185-1.684.519-.025.014-.132-.163-.237-.393-.106-.231-.388-.622-.628-.87-1.037-1.072-2.602-1.364-3.975-.74-.251.113-.47.192-.485.175a5.19 5.19 0 01-.206-.388c-.272-.546-.964-1.232-1.525-1.51-.971-.484-2.158-.521-2.983-.095-.17.088-.329.16-.352.16-.024 0-.043-1.454-.043-3.231 0-2.992-.011-3.264-.154-3.684-.616-1.814-2.461-2.818-4.275-2.326zm1.71 1.817c.337.177.665.53.83.897.138.303.146.7.147 7.23.002 7.434-.006 7.281.407 7.574.364.259 1.043.104 1.237-.283.065-.13.1-.972.117-2.75.025-2.83.033-2.883.54-3.396a1.607 1.607 0 011.22-.508c.7 0 1.242.325 1.57.942.162.305.172.45.21 2.99l.04 2.669.258.233c.378.342.811.328 1.173-.038l.269-.273v-1.55c0-.853.039-1.693.086-1.87.28-1.053 1.44-1.616 2.41-1.17.451.208.876.74.979 1.224.046.217.084 1.064.084 1.88v1.486l.268.273c.214.216.333.272.576.272.643 0 .895-.398.897-1.418.002-.51.042-.792.147-1.025.5-1.101 1.829-1.418 2.744-.655.61.51.584.212.586 6.484.002 5.984-.004 6.087-.41 7.304-.631 1.89-2.16 3.63-3.978 4.528-1.495.739-2.37.876-5.59.877-2.382 0-3.113-.067-4.019-.37-1.31-.44-1.144-.289-8.332-7.547-4.046-4.086-6.676-6.801-6.746-6.964-.151-.353-.033-.721.336-1.05a2.798 2.798 0 013.146-.366c.193.104 1.4.986 2.683 1.96 2.42 1.84 2.646 1.968 3.053 1.748.105-.057.265-.205.356-.329.165-.226.166-.246.205-9.129l.04-8.903.255-.372c.363-.53.935-.814 1.531-.764.243.02.547.092.674.16z" fill="#66B8B1"/></svg><svg fill="none" viewBox="0 0 183 60" id="footer-logo" xmlns="http://www.w3.org/2000/svg"><path fill-rule="evenodd" clip-rule="evenodd" d="M29.924 59.685c16.2 0 29.568-13.203 29.597-29.433a29.743 29.743 0 00-4.868-16.562A29.624 29.624 0 0041.418 2.646 29.532 29.532 0 0024.292.856 29.58 29.58 0 009.068 8.922 29.71 29.71 0 00.897 24.121a29.76 29.76 0 001.645 17.186A29.668 29.668 0 0013.447 54.67a29.55 29.55 0 0016.477 5.017zm0-56.486a.463.463 0 01-.046-.046l-.042-.046a.394.394 0 01-.042-.042l-1.4-1.258 3.056.03c-.071.13-.619.444-.79.612-.264.255-.469.486-.736.75zm-10.43.575c1.276-.348 2.727-1.116 4.475-1.355-.485.68-1.12 1.032-1.313 2.407-1.748-.633-.364-.507-3.161-1.052zm17.689 1.052c-.193-1.472-1.016-1.916-1.317-2.394 1.614.268 2.99.906 4.399 1.308a4.786 4.786 0 01-.916.201c-.97.252-1.46.642-2.166.902v-.017zM17.5 5.836c1.255-.2 1.84-.574 3.195-.05 1.651.633 3.487 2.373 4.888 2.487a2.432 2.432 0 002.392-1.3c1.087-1.996-.774-3.27-1.957-2.461-.631.419-.134.775.058 1.215.59 1.334-1.254 1.124-1.747.19-.552-1.024.309-2.26.836-2.596 1.923-1.258 3.88.679 4.148 2.436.418 2.646-2.927 5.128-6.486 3.316-2.509-1.278-4.6-3.086-7.915-2.897a16.757 16.757 0 013.14-1.74 3.115 3.115 0 00-.552 1.4zm27.431.336c-2.279-.088-3.951.667-5.624 1.597-.794.453-1.543.893-2.35 1.334-3.145 1.715-6.916-.508-6.431-3.417.288-1.678 2.266-3.673 4.14-2.357.493.344 1.384 1.556.836 2.575-.548 1.018-2.325 1.132-1.744-.18.213-.475.665-.84.021-1.259-1.117-.72-2.998.42-1.915 2.491a2.441 2.441 0 002.392 1.304c.903-.076 1.886-.776 2.509-1.17a14.52 14.52 0 012.362-1.32c1.313-.487 1.924-.185 3.187.054a2.822 2.822 0 00-.54-1.4 16.488 16.488 0 013.157 1.748zm-26.005 5.987c.134-1.727-.9-3.258-2.371-3.43-1.543-.18-3.073 1.556-2.237 3.061a.722.722 0 00.694.44.718.718 0 00.28-.07c.33-.168.38-.546.485-.915.481-1.63 2.877.365.64 2.097a2.062 2.062 0 01-2.208 0c-3.559-2.021-.974-6.013 2.517-5.556 1.472.193 3.743 1.757 5.98 2.617.418.163 1.878.59 2.09.733a5.826 5.826 0 00-.881 1.464 4.127 4.127 0 00-.21 2.033 3.653 3.653 0 001.832 2.755c-.088.058-2.128.947-2.145.952a3.536 3.536 0 00-.707-3.246c-.74-.876-1.254-1.086-2.471-1.727.983-.323 2.045-.93 2.183-2.097-1.36-.897-3.228.776-3.471.89zm16.095-1.006c.276-.172 1.702-.574 2.162-.755.715-.285 1.35-.57 1.999-.876 1.254-.587 2.467-1.543 3.993-1.727a3.913 3.913 0 013.889 1.924c1.317 2.16-2.09 5.086-3.726 3.568-1.53-1.404-.694-2.486-.058-2.612 1.062-.21.564 1.258 1.325 1.518a.735.735 0 00.92-.42c.837-1.5-.72-3.282-2.316-3.043-1.443.213-2.41 1.677-2.296 3.417l-.176-.11c-.928-.624-2.157-1.446-3.3-.733a2.653 2.653 0 001.41 1.799c.138.067.268.109.418.163l.356.168c-1.836.503-3.88 2.662-3.174 4.91-.08 0-2.007-.839-2.15-.952a3.654 3.654 0 001.832-2.818c.197-1.61-.389-2.415-1.108-3.438v.017zm-26.206.26a18.838 18.838 0 012.546-2.558c-.376 1.02-.51 1.132-.234 2.319-1.179-.272-1.313-.163-2.312.222v.017zm39.897-.239c.271-1.312.125-1.216-.23-2.314a18.008 18.008 0 012.534 2.532c-1.004-.352-1.08-.516-2.304-.235v.017zm-18.278 1.958c1.325.897 2.212.24 2.981-.759-.418-.277-1.15-.184-2.09-.914a2.348 2.348 0 01-.95-1.92l3.237 1.84c.49.44.824 1.03.949 1.678.167.905-.088 1.442-.351 2.117a10.545 10.545 0 00-.962-.553c-1.468-.525-2.2 1.031-1.4 2.15-.486.042-1.343-.096-1.924-.096-.644 0-1.364.122-1.936.1.397-.729.522-1.676-.218-2.096-.97-.553-1.785.332-2.137.474-.255-.696-.54-1.145-.355-2.122.297-1.614 1.585-2.016 2.509-2.553a15.925 15.925 0 011.672-.943c-.138 2.457-2.66 2.545-3.035 2.826.836 1.073 1.538 1.597 2.956.771-.042.327-.686 1.992.527 2.67.987-.64.744-1.475.527-2.67zm-19.328 11.74c-.154-.239-.594-1.736-.757-2.168a27.95 27.95 0 00-.87-2.004c-.58-1.22-1.55-2.49-1.722-4.008a3.913 3.913 0 011.92-3.891c2.274-1.313 5.042 2.13 3.554 3.731-1.364 1.472-2.463.776-2.601.06-.214-1.083 1.212-.567 1.505-1.33a.757.757 0 00-.389-.922c-1.518-.914-3.29.775-3.048 2.314.226 1.442 1.672 2.44 3.412 2.31-.18.42-.548.579-.903 1.53a2.522 2.522 0 000 1.925c.627.046 1.091-.457 1.405-.763.447-.42.493-.742.727-1.396.703 1.258.761 1.677 1.731 2.465a3.434 3.434 0 003.22.755c0 .063-.865 2.017-.949 2.147a3.506 3.506 0 00-1.133-1.229c-1.94-1.224-3.663-.595-5.102.49v-.016zm36.619-5.912c1.714.134 3.232-.872 3.42-2.377.188-1.505-1.672-3.132-3.04-2.243a.75.75 0 00-.38.985c.167.319.547.373.92.482 1.05.319.526 1.342-.172 1.543-1.116.315-3.044-1.19-1.957-3.124 1.97-3.496 6.022-1.031 5.55 2.545-.176 1.359-1.163 2.873-1.732 3.988l-1.254 3.086c-.085.349-.195.69-.33 1.023a6.933 6.933 0 00-1.46-.88 3.892 3.892 0 00-4.78 1.626c-.096-.146-.907-1.987-.957-2.138 2.99.54 3.91-1.35 4.955-3.224.276 1.014 1.058 2.096 2.09 2.184.845-1.417-.673-3.04-.873-3.46v-.016zM4.42 18.096a17.113 17.113 0 011.74-3.148c-.28 5.09 4.097 7.35 3.44 11.178-.304 1.778-1.88 3.668-3.997 3.237-1.752-.36-3.583-2.365-2.224-4.235.363-.503 1.697-1.308 2.622-.671.924.637.915 2.373-.398 1.631-.464-.26-.777-.528-1.133.05a1.483 1.483 0 00-.071 1.4c.636 1.397 2.718.902 3.52-.419.892-1.454-.133-2.876-.835-4.02a14.182 14.182 0 01-1.322-2.37c-.535-1.404-.125-1.916.05-3.199-.752.126-.794.256-1.392.566zm10.216 1.879c-.649-1.593.18-2.424.347-3.883.418.147 1.254 1.422.886 2.541-.053.15-.128.29-.221.42l-.255.356c.146.1-.18-.067.17.105l.528.134c.87.08 1.196-.264 1.672-.78.419.365.945.88 1.886.838.063-1.144-.568-1.375-.807-1.958.816-.419.837-1.257.607-2.302-.623.223-.837.76-1.89.541-.548-.113-1.376-.578-1.514-.956 1.463-.117 2.203-1.01 3.872-.343.513.213.974.537 1.35.947a2.044 2.044 0 01.452 1.828c-.451 0-1.568-.15-1.723.977a1.352 1.352 0 001.205 1.451c-.16.268-.582.54-.991 1.027l-.38.344c-.118-.683-.67-1.371-1.519-1.195-1.079.218-.903 1.317-.899 1.72-1.376.196-2.266-.575-2.776-1.812zm23.471-2.516c-.351-2.176 2.049-3.38 3.91-2.876.28.075 1.593.42 1.764.486a2.83 2.83 0 01-1.547.931c-.865.147-1.204-.184-1.752-.562a1.702 1.702 0 00-.192 1.396 1.452 1.452 0 00.69.927c-.184.42-.862.839-.807 1.95a2.349 2.349 0 001.844-.805l.485.419a1.736 1.736 0 001.92.075l-.097-.113a.527.527 0 00-.038-.05 1.871 1.871 0 01-.38-1.627c.132-.6.46-1.139.932-1.53.214 1.287.933 2.545.368 3.895-.418.968-1.325 2.188-2.789 1.794.03-.419.15-.696-.113-1.12a1.176 1.176 0 00-.836-.582c-.87-.13-1.163.537-1.413.981-.142.26 0 .084-.163.23-.306-.561-.803-.838-1.255-1.324.594-.29 1.33-.6 1.209-1.497a1.258 1.258 0 00-.573-.838c-.385-.269-.707-.168-1.154-.156l-.013-.004zm17.295.633a2.76 2.76 0 00-1.413-.532c.673 2.935.046 3.446-1.213 5.51-.418.683-1.075 1.584-1.192 2.515a2.425 2.425 0 001.255 2.444c2.178 1.216 3.308-.939 2.463-1.979-.498-.608-.799 0-1.234.13-1.38.478-.962-1.404-.083-1.807 1.05-.482 2.174.357 2.538.872 1.325 1.879-.749 3.912-2.426 4.151-1.338.193-1.973-.34-2.659-.943-1.493-1.317-1.618-3.774-.652-5.572 1.296-2.45 3.132-4.83 2.885-7.938a17.016 17.016 0 011.744 3.153l-.013-.004zM2.43 24.034c.218-1.74 1.117-3.489 1.334-4.483.548 2.822.44 1.464 1.054 3.174-1.313.155-1.706.805-2.388 1.308zm52.576-1.317c.167-.478.485-.956.686-1.493a8.91 8.91 0 00.372-1.677c.347 1.258 1.108 2.713 1.35 4.482-.706-.499-1.062-1.132-2.408-1.312zM9.513 29.56c.28-.578.594-1.138.941-1.677.535-.956.966-2.244 2.55-2.516a2.92 2.92 0 012.092.394c-.201.297-.38.608-.536.93-.389 1.137.485 2.286 2.175 1.397.042 1.572-.222 1.258.025 3.866-.837-.357-1.748-.558-2.154.277-.476.977.356 1.715.515 2.096-.699.247-1.175.524-2.12.352a3.087 3.087 0 01-1.627-.905L9.52 30.44c2.367.168 2.51 2.516 2.81 3.044.912-.612 1.673-1.635.762-2.964 1.145.189 2.09.457 2.667-.516-.46-.864-1.522-.797-2.621-.532.213-.524.539-1.17.2-1.87a2.152 2.152 0 00-1.053-1.103c-.34 1.64-.996 2.935-2.773 3.06zm35.51 4.264a1.613 1.613 0 00.18-1.677c-.418-.755-1.33-.554-2.132-.227a20.85 20.85 0 000-3.857c.836.314 1.706.604 2.149-.285.443-.89-.368-1.753-.481-2.046 1.255-.868 3.02-.315 3.722.52l1.86 3.3c-2.404-.152-2.546-2.609-2.81-3.049-1.388.927-1.334 1.677-.81 2.965-.649-.16-2.133-.525-2.631.528.694 1.174 2.225.587 2.676.524a1.826 1.826 0 00-.297 1.774c.21.504.585.922 1.062 1.186.222-.356.23-1.258.874-2.038a2.349 2.349 0 011.932-1.01l-1.86 3.304a3.134 3.134 0 01-1.623.914c-.903.172-1.443-.084-2.12-.348l.31-.478zm-43.2-5.35c.117.067.477.654.61.792l.753.738c-.271.273-.493.474-.752.738-.138.143-.473.709-.636.793l.025-3.061zm54.825 1.53a.67.67 0 01.134-.134l.092-.08c.06-.046.117-.098.167-.155.31-.332.602-.68.874-1.044 0 0 .046 0 .055-.054.008-.055.033-.038.054-.055l-.105 2.935a.262.262 0 01-.045-.05l-.214-.302a8.917 8.917 0 00-1.012-1.06zM5.817 42.444c-.214-1.32-.57-1.849-.03-3.249.628-1.64 2.384-3.468 2.467-4.922.143-2.42-3.098-3.556-3.88-1.745a1.488 1.488 0 00.159 1.434c.468.554.77 0 1.23-.142 1.346-.487 1.02 1.329.066 1.803-.953.473-2.158-.365-2.509-.839-1.355-1.9.732-3.908 2.417-4.176 2.09-.327 3.634 1.59 3.889 3.413.523 3.719-3.717 5.87-3.47 11.031a17.456 17.456 0 01-1.736-3.157c.41.303.89.493 1.397.55zm47.862 2.625c.126-5.45-4.056-7.316-3.462-11.12.552-3.517 4.42-4.481 6.201-1.878 1.64 2.394-1.091 4.273-2.463 3.535-1.003-.537-1.124-2.348.184-1.753.49.227.811.65 1.23 0a1.5 1.5 0 000-1.5c-1.008-1.678-4.128-.286-3.764 2.142.197 1.35 1.97 3.266 2.51 4.872.468 1.388.079 1.849-.105 3.06.506-.049.99-.231 1.405-.528a20.533 20.533 0 01-1.736 3.17zM3.726 40.377c-.38-1.383-1.067-2.821-1.3-4.41.19.145.371.305.539.477.648.583 1.145.617 1.831.839-.104.453-.656 1.241-.882 2.247-.024.29-.088.575-.188.847zm51.279-3.102a3.34 3.34 0 001.392-.49c.189-.107.363-.237.519-.387a3.73 3.73 0 01.502-.419 19.145 19.145 0 01-.59 2.315c-.217.733-.548 1.45-.71 2.096a.255.255 0 01-.03-.071l-.071-.218c-.577-2.44-.351-1.049-1.012-2.826zM11.098 35.12c.439.367.933.662 1.463.876a3.875 3.875 0 004.772-1.614c.037.05.94 2.062.966 2.142-1.493-.28-2.28 0-3.233.738a5.572 5.572 0 00-1.672 2.457.186.186 0 01-.038-.054.613.613 0 01-.038-.055l-.125-.293c-.301-.839-1.083-1.678-1.928-1.766-.56.797-.121 2 .356 2.768l.506.7a3.18 3.18 0 00-2.346.616c-2.51 1.828-.13 5.191 1.957 4.013a.725.725 0 00.446-.694.732.732 0 00-.066-.283c-.175-.36-.564-.382-.974-.512-1.443-.46.272-2.838 2.133-.662 1.426 1.677-1.476 5.052-3.651 3.66a3.92 3.92 0 01-1.87-3.861c.168-1.518 1.172-2.818 1.753-4.063.305-.646.606-1.317.865-2.009.151-.406.582-1.87.732-2.104h-.008zm34.21 1.094c1.714.226 2.43-.461 3.433-1.107.26.717.46 1.438.744 2.18.866 2.235 2.409 4.482 2.584 6.017.398 3.497-3.592 6.004-5.582 2.402a1.904 1.904 0 01.109-2.255c1.923-2.122 3.52.28 2.032.725-.393.117-.799.155-.94.545a.744.744 0 00.417.927c1.468.838 3.274-.742 3.036-2.306-.263-1.698-1.915-2.411-3.429-2.327.502-.75 1.643-2.176.862-3.464-1.058.067-1.773 1.183-2.091 2.176-.569-1.144-.92-1.828-1.719-2.465-.928-.742-1.76-1.027-3.232-.746.037-.11.903-2.059.957-2.143a3.607 3.607 0 002.827 1.84h-.008zM39.95 38.73c.197.482.167.549.514.867.699.646 2.15.537 1.924-1.358 1.48-.377 2.388.81 2.797 1.79.636 1.53-.188 2.457-.355 3.862-.355-.088-.836-.952-.95-1.488-.246-1.166.419-1.418.549-1.912-.519-.118-.837-.281-1.447-.093a2.865 2.865 0 00-.916.65s-.03.03-.046.038a2.435 2.435 0 00-1.852-.805 2.555 2.555 0 00.81 1.866c-.514.75-1.011.6-.593 2.419.418-.138.778-.792 1.903-.553.518.109 1.388.6 1.492.951-1.455.139-2.295 1.028-3.913.332-.929-.42-2.133-1.338-1.723-2.78.886.075 1.56-.05 1.672-.952.113-.901-.593-1.233-1.208-1.497l1.342-1.337zm-24.897 5.186c-.092-.21-.418-1.539-.502-1.836a3.447 3.447 0 011.045-3.41 2.22 2.22 0 011.84-.448c0 .495-.104.839.163 1.208.188.272.475.458.799.52a1.344 1.344 0 001.438-1.212c.323.18.39.373.703.683.194.221.421.41.673.562-.167.185-.284.176-.506.302a1.256 1.256 0 00-.69 1.359 1.222 1.222 0 00.623.792c.418.222.665.11 1.063.084.397 1.476-.812 2.386-1.782 2.797-1.355.566-2.613-.156-3.889-.374a2.67 2.67 0 011.53-.918c.967-.205 1.36.26 1.82.541a1.723 1.723 0 00-.117-1.962l-.419-.445a2.642 2.642 0 00.837-1.853c-1.08-.046-1.376.495-1.961.839-.285-.617-1.598-1.178-2.309-.533.377.566.732.918.544 1.82a2.844 2.844 0 01-.903 1.484zm5.18 2.709c.51-.285.879-.42 1.347-.726 1.355-.905 2.367-2.465 1.853-4.234.735.276 1.454.593 2.153.951a3.607 3.607 0 00-1.848 2.822c-.222 1.677.49 2.474 1.1 3.434-.418.218-2.723.839-4.157 1.627-.635.34-1.254.642-1.873.994-2.242 1.258-4.7.985-6-1.191-1.301-2.176 2.09-5.074 3.72-3.568.377.348 1.067 1.031.804 1.878-.222.717-1.213 1.212-1.53.168-.114-.377-.164-.805-.54-.952a.73.73 0 00-.924.42c-.891 1.4.727 3.295 2.304 3.04 1.493-.24 2.425-1.732 2.304-3.418l.184.109.054.038c1.426.977 1.627 1.081 3.258.746-.226-1.145-1.117-1.803-2.23-2.138h.022zm14.055-4.009a19.01 19.01 0 012.154-.947 3.519 3.519 0 00.723 3.233c.757.876 1.255 1.077 2.467 1.718-1.1.332-1.986.97-2.212 2.126 1.744.541 2.38-.184 3.504-.889a3.145 3.145 0 00.615 2.336c1.936 2.68 5.302-.134 3.935-2.055a.685.685 0 00-1.02-.218c-.276.214-.289.583-.419.981-.455 1.355-2.843-.465-.602-2.247 1.673-1.325 5.018 1.505 3.58 3.774a3.917 3.917 0 01-3.885 1.807c-1.35-.18-2.873-1.166-3.985-1.744-.602-.315-1.33-.596-2.003-.864-.548-.218-1.74-.537-2.09-.734.353-.452.651-.947.886-1.472a4.203 4.203 0 00-.418-3.694 3.177 3.177 0 00-1.23-1.11zm-8.622 2.248c.35.134 1.129 1.002 2.09.46.816-.456.544-1.303.226-2.133 1.28.15 2.572.15 3.852 0-.837 1.975.334 2.968 2.132 1.79l.239-.147c.2.747.564 1.153.326 2.206a3.075 3.075 0 01-.937 1.593c-.222.18-3.027 1.761-3.253 1.816a2.522 2.522 0 011.02-1.933c.816-.663 1.673-.638 2.037-.877-.795-1.148-1.937-1.614-2.961-.771.075-.558.314-.839.18-1.572a1.536 1.536 0 00-.699-1.107c-1.066.52-.673 2.017-.539 2.629-.556-.227-1.079-.533-1.815-.218a2.51 2.51 0 00-1.129 1.04c.44.276 2.864.385 3.04 2.821l-3.29-1.866a3.089 3.089 0 01-.52-3.731zm-14.31 6.289a17.817 17.817 0 01-2.538-2.55c1.104.361.983.5 2.3.236-.276 1.253-.109 1.287.238 2.314zm37.355-2.314c1.346.264 1.195.117 2.304-.24a16.805 16.805 0 01-2.534 2.546c.313-1.09.522-.927.23-2.298v-.008zm-33.817 4.985c3.312.184 5.344-1.568 7.97-2.935 3.345-1.732 6.904.591 6.431 3.417-.28 1.677-2.258 3.652-4.135 2.365-.519-.356-1.376-1.577-.837-2.6.464-.884 2.346-1.186 1.757.202-.176.419-.74.771 0 1.236a1.519 1.519 0 001.5 0c1.674-.993.281-4.15-2.132-3.773-.861.13-1.81.813-2.475 1.22-.752.51-1.553.944-2.392 1.291-1.28.453-1.894.105-3.044-.104.035.497.206.976.493 1.383a16.473 16.473 0 01-3.136-1.702zm19.235 1.2c-.062-.39-.924-1.393-.15-1.678.635-.235 1.346.394 1.53.75.665 1.258-.64 2.697-1.543 2.935-2.509.642-4.6-3.245-2.735-5.203 2.091-2.193 4.32-1.774 6.741-.36a26.445 26.445 0 003.12 1.63 7.656 7.656 0 003.847.734c-1 .665-2.051 1.247-3.145 1.74a3.01 3.01 0 00.535-1.404c-2.02.348-2.508.578-4.273-.487-.795-.482-2.538-1.627-3.312-1.849a2.501 2.501 0 00-2.747.973c-.2.284-.337.607-.406.948-.439 2.05 2.062 2.57 2.538 1.27zm-14.635 1.194a9.98 9.98 0 001.727-.394c.506-.201.982-.52 1.434-.667.085.717.392 1.389.878 1.92.162.15.31.317.44.495-1.987-.369-3.856-1.228-4.475-1.354h-.004zm16.366 1.354c.348-.532 1.146-.99 1.318-2.415 1.129.378 1.032.797 3.123 1.04-.849.482-3.332 1.166-4.436 1.375h-.005zM17.918 32.017c-.058-1.048-.15-1.807-.117-2.935.26-1.879.485-3.036 1.255-4.57a12.778 12.778 0 012.508-3.397c7.586-7.035 19.951-2.172 20.49 8.294a12.183 12.183 0 01-2.19 7.647 12.128 12.128 0 01-6.438 4.652 12.096 12.096 0 01-7.929-.336c-2.53-1-4.651-2.824-6.023-5.18-1.271-2.079-1.242-3.488-1.556-4.175zm12.006 24.788c.386.444.824.84 1.304 1.178l.205.197-2.927-.109.05-.05a6.147 6.147 0 001.154-.998l.076-.092a.56.56 0 01.138-.126z" fill="#C76F6B"/><path d="M59.47 31.79C60.457 15.427 48.026 1.358 31.705.369 15.385-.622 1.353 11.842.367 28.208-.62 44.571 11.81 58.64 28.132 59.63c16.32.99 30.351-11.474 31.338-27.84z" stroke="#C76F6B" stroke-width="1.5" stroke-miterlimit="2.61"/><path d="M40.228 32.719c1.497-5.709-1.904-11.553-7.597-13.055-5.693-1.502-11.522 1.908-13.02 7.616-1.498 5.709 1.903 11.554 7.596 13.056 5.694 1.501 11.523-1.909 13.02-7.617z" fill="#FEFEFE"/><path d="M40.228 32.719c1.497-5.709-1.904-11.553-7.597-13.055-5.693-1.502-11.522 1.908-13.02 7.616-1.498 5.709 1.903 11.554 7.596 13.056 5.694 1.501 11.523-1.909 13.02-7.617z" stroke="#C76F6B" stroke-width=".5" stroke-miterlimit="2.61"/><path fill-rule="evenodd" clip-rule="evenodd" d="M29.92 20.499c1.873 0 3.706.557 5.264 1.601a9.495 9.495 0 013.49 4.264 9.525 9.525 0 01-2.054 10.354 9.452 9.452 0 01-10.326 2.06 9.48 9.48 0 01-4.253-3.5 9.52 9.52 0 011.178-11.996 9.463 9.463 0 016.7-2.783z" fill="#FEFEFE"/><path d="M29.92 20.499c1.873 0 3.706.557 5.264 1.601a9.495 9.495 0 013.49 4.264 9.525 9.525 0 01-2.054 10.354 9.452 9.452 0 01-10.326 2.06 9.48 9.48 0 01-4.253-3.5 9.52 9.52 0 011.178-11.996 9.463 9.463 0 016.7-2.783z" stroke="#C76F6B" stroke-miterlimit="2.61"/><path d="M35.44 34.415a6.129 6.129 0 01-1.724.298h-.213a2.397 2.397 0 01-.293-.034l-.543-.063a18.46 18.46 0 01-3.258-.972c-.418-.164-.903-.378-1.472-.625-.568-.247-1.05-.495-1.53-.734v.989c.006.122.02.242.042.361.008.133.06.26.146.361.065.111.17.194.293.23.063 0 .146 0 .25.034.106.017.212.029.318.034L28 34.26v.365h-3.592v-.365h.991v-7.79a.84.84 0 00-.171-.528 1.502 1.502 0 00-.837-.147v-.344h2v.474l.79-.26c.23-.067.48-.134.794-.201a7.67 7.67 0 01.836-.13 7.74 7.74 0 01.878-.05h.653c.209 0 .418.033.631.066a4.694 4.694 0 012.73 1.233 3.175 3.175 0 011.071 2.369v.1a3.252 3.252 0 01-1.472 2.7 5.12 5.12 0 01-1.597.806 7.004 7.004 0 01-1.89.264h-.146a3.226 3.226 0 01-.44-.034l-.418-.05.063-.13 2.09.839 1.531.608a5.279 5.279 0 001.556.28c.177 0 .353-.017.527-.05.209-.033.418-.096.757-.18l.104.31zm-1.515-5.396a2.853 2.853 0 00-1.409-2.436 5.359 5.359 0 00-1.426-.675 5.95 5.95 0 00-1.672-.214 6.149 6.149 0 00-1.64.248c-.251.076-.497.17-.735.28-.217.12-.426.251-.628.394v5.216l.347-.26a5.698 5.698 0 002.204.894c.258.034.518.05.778.05a4.713 4.713 0 002.902-.922 3.102 3.102 0 001.28-2.575z" fill="#C76F6B"/><path d="M35.44 34.415a6.129 6.129 0 01-1.724.298h-.213a2.397 2.397 0 01-.293-.034l-.543-.063a18.46 18.46 0 01-3.258-.972c-.418-.164-.903-.378-1.472-.625-.568-.247-1.05-.495-1.53-.734v.989c.006.122.02.242.042.361.008.133.06.26.146.361.065.111.17.194.293.23.063 0 .146 0 .25.034.106.017.212.029.318.034L28 34.26v.365h-3.592v-.365h.991v-7.79a.84.84 0 00-.171-.528 1.502 1.502 0 00-.837-.147v-.344h2v.474l.79-.26c.23-.067.48-.134.794-.201a7.67 7.67 0 01.836-.13 7.74 7.74 0 01.878-.05h.653c.209 0 .418.033.631.066a4.694 4.694 0 012.73 1.233 3.175 3.175 0 011.071 2.369v.1a3.252 3.252 0 01-1.472 2.7 5.12 5.12 0 01-1.597.806 7.004 7.004 0 01-1.89.264h-.146a3.226 3.226 0 01-.44-.034l-.418-.05.063-.13 2.09.839 1.531.608a5.279 5.279 0 001.556.28c.177 0 .353-.017.527-.05.209-.033.418-.096.757-.18l.104.31zm-1.515-5.396a2.853 2.853 0 00-1.409-2.436 5.359 5.359 0 00-1.426-.675 5.95 5.95 0 00-1.672-.214 6.149 6.149 0 00-1.64.248c-.251.076-.497.17-.735.28-.217.12-.426.251-.628.394v5.216l.347-.26a5.698 5.698 0 002.204.894c.258.034.518.05.778.05a4.713 4.713 0 002.902-.922 3.102 3.102 0 001.28-2.575z" stroke="#C76F6B" stroke-width=".22" stroke-miterlimit="2.61"/><path d="M86.802 38.314c-1 .32-2.038.5-3.086.532h-.376a4.457 4.457 0 01-.527-.058l-.979-.122a32.885 32.885 0 01-5.833-1.736c-.753-.297-1.623-.679-2.639-1.123a50.7 50.7 0 01-2.747-1.325l-.038 1.258v.503c.017.22.048.438.092.654.017.238.109.464.264.645a.95.95 0 00.526.42c.113.029.264.029.452.058.187.03.376.05.565.06l.978-.06v.646h-6.398v-.646h1.77V24.075a1.498 1.498 0 00-.302-.944c-.226-.176-.715-.264-1.468-.264v-.62h3.576v.838c.418-.146.865-.293 1.392-.473.418-.118.866-.235 1.43-.353.498-.11 1.002-.188 1.51-.234a14.131 14.131 0 011.543-.088 14.909 14.909 0 012.295.146 8.42 8.42 0 014.876 2.235 5.656 5.656 0 011.92 4.247v.177c0 1.916-.866 3.538-2.635 4.834a9.248 9.248 0 01-2.86 1.447 12.57 12.57 0 01-3.387.47h-.264a5.99 5.99 0 01-.79-.06l-.753-.088.113-.234 3.764 1.471 2.747 1.09c.897.31 1.837.48 2.785.504.316-.002.63-.032.94-.089.377-.058.791-.176 1.356-.327l.188.554zm-2.71-9.669c0-1.77-.836-3.216-2.509-4.365a9.355 9.355 0 00-2.55-1.22 10.596 10.596 0 00-3.011-.386 11.04 11.04 0 00-2.928.445c-.45.134-.89.301-1.317.499-.388.216-.765.453-1.129.709v9.358l.64-.47c.814.544 1.7.968 2.635 1.258.434.131.875.239 1.32.323.463.06.928.09 1.393.088a8.477 8.477 0 005.194-1.648 5.543 5.543 0 002.262-4.59z" fill="#fff"/><path d="M86.802 38.314c-1 .32-2.038.5-3.086.532h-.376a4.457 4.457 0 01-.527-.058l-.979-.122a32.885 32.885 0 01-5.833-1.736c-.753-.297-1.623-.679-2.639-1.123a50.7 50.7 0 01-2.747-1.325l-.038 1.258v.503c.017.22.048.438.092.654.017.238.109.464.264.645a.95.95 0 00.526.42c.113.029.264.029.452.058.187.03.376.05.565.06l.978-.06v.646h-6.398v-.646h1.77V24.075a1.498 1.498 0 00-.302-.944c-.226-.176-.715-.264-1.468-.264v-.62h3.576v.838c.418-.146.865-.293 1.392-.473.418-.118.866-.235 1.43-.353.498-.11 1.002-.188 1.51-.234a14.131 14.131 0 011.543-.088 14.909 14.909 0 012.295.146 8.42 8.42 0 014.876 2.235 5.656 5.656 0 011.92 4.247v.177c0 1.916-.866 3.538-2.635 4.834a9.248 9.248 0 01-2.86 1.447 12.57 12.57 0 01-3.387.47h-.264a5.99 5.99 0 01-.79-.06l-.753-.088.113-.234 3.764 1.471 2.747 1.09c.897.31 1.837.48 2.785.504.316-.002.63-.032.94-.089.377-.058.791-.176 1.356-.327l.188.554zm-2.71-9.669c0-1.77-.836-3.216-2.509-4.365a9.355 9.355 0 00-2.55-1.22 10.596 10.596 0 00-3.011-.386 11.04 11.04 0 00-2.928.445c-.45.134-.89.301-1.317.499-.388.216-.765.453-1.129.709v9.358l.64-.47c.814.544 1.7.968 2.635 1.258.434.131.875.239 1.32.323.463.06.928.09 1.393.088a8.477 8.477 0 005.194-1.648 5.543 5.543 0 002.262-4.59z" stroke="#fff" stroke-width=".22" stroke-miterlimit="2.61"/><path d="M104.235 22.868h-1.731v10.641c.006.66-.032 1.32-.113 1.975-.077.474-.204.94-.376 1.388-.49 1.06-1.581 1.736-3.237 2.033l-1.284.088a6.601 6.601 0 01-3.086-.679 4.016 4.016 0 01-.94-.738 3.404 3.404 0 01-.603-.973 7.295 7.295 0 01-.338-2.385v-9.85a2.42 2.42 0 00-.189-1.148c-.225-.235-.752-.352-1.58-.352v-.62h5.344v.62h-1.769v11.174c-.007.541.03 1.083.113 1.618.05.404.178.794.376 1.149.527.897 1.468 1.346 2.823 1.346a5.29 5.29 0 001.999-.323c.512-.21.95-.571 1.254-1.036a3.42 3.42 0 00.418-1.258 9.541 9.541 0 00.151-1.916v-9.014c0-.797-.075-1.258-.264-1.476-.188-.218-.79-.264-1.806-.264v-.62h4.855l-.017.62z" fill="#fff"/><path d="M104.235 22.868h-1.731v10.641c.006.66-.032 1.32-.113 1.975-.077.474-.204.94-.376 1.388-.49 1.06-1.581 1.736-3.237 2.033l-1.284.088a6.601 6.601 0 01-3.086-.679 4.016 4.016 0 01-.94-.738 3.404 3.404 0 01-.603-.973 7.295 7.295 0 01-.338-2.385v-9.85a2.42 2.42 0 00-.189-1.148c-.225-.235-.752-.352-1.58-.352v-.62h5.344v.62h-1.769v11.174c-.007.541.03 1.083.113 1.618.05.404.178.794.376 1.149.527.897 1.468 1.346 2.823 1.346a5.29 5.29 0 001.999-.323c.512-.21.95-.571 1.254-1.036a3.42 3.42 0 00.418-1.258 9.541 9.541 0 00.151-1.916v-9.014c0-.797-.075-1.258-.264-1.476-.188-.218-.79-.264-1.806-.264v-.62h4.855l-.017.62z" stroke="#fff" stroke-width=".22" stroke-miterlimit="2.61"/><path d="M123.93 33.333a4.772 4.772 0 01-2.145 4.037c-1.467 1.09-3.5 1.623-6.101 1.623a9.867 9.867 0 01-5.269-1.33c-1.543-.942-2.295-2.18-2.295-3.685a3.866 3.866 0 011.618-3.153 6.749 6.749 0 014.366-1.383 5.01 5.01 0 012.902.838c.836.558 1.254 1.208 1.254 2.004a1.516 1.516 0 01-.489 1.208 2.363 2.363 0 01-1.673.528 3.498 3.498 0 01-.564-.088 19.872 19.872 0 01-.715-.176l.15-.47h.418c.347.023.692-.072.979-.268a.844.844 0 00.38-.734 1.786 1.786 0 00-.915-1.459 3.529 3.529 0 00-2.141-.637c-1.394 0-2.486.355-3.275 1.065a3.002 3.002 0 00-1.053 2.327c0 1.258.639 2.298 1.957 3.182a8.718 8.718 0 004.967 1.33 7.624 7.624 0 004.295-1.195c1.317-.839 1.957-1.887 1.957-3.158a3.08 3.08 0 00-.339-1.5 4.253 4.253 0 00-1.054-1.183A10.338 10.338 0 00119 29.848c-.79-.352-1.618-.708-2.446-1.09a18.295 18.295 0 01-2.187-1.12 4.18 4.18 0 01-1.254-1.211 2.444 2.444 0 01-.452-1.384 2.621 2.621 0 011.254-2.21 5.569 5.569 0 013.316-.884c.565 0 .979 0 1.255.03.396.038.787.117 1.167.234V21.01h.752v6.364h-.752v-1.798a3.435 3.435 0 00-.602-2.185 1.982 1.982 0 00-1.673-.767 4.5 4.5 0 00-2.091.42 1.972 1.972 0 00-1.254 1.915c0 .42.376.885 1.091 1.413a16.614 16.614 0 003.241 1.678c1.091.473 1.881.838 2.371 1.09a7.44 7.44 0 011.618.943c.54.41.971.947 1.254 1.564.221.534.331 1.108.322 1.686z" fill="#fff"/><path d="M123.93 33.333a4.772 4.772 0 01-2.145 4.037c-1.467 1.09-3.5 1.623-6.101 1.623a9.867 9.867 0 01-5.269-1.33c-1.543-.942-2.295-2.18-2.295-3.685a3.866 3.866 0 011.618-3.153 6.749 6.749 0 014.366-1.383 5.01 5.01 0 012.902.838c.836.558 1.254 1.208 1.254 2.004a1.516 1.516 0 01-.489 1.208 2.363 2.363 0 01-1.673.528 3.498 3.498 0 01-.564-.088 19.872 19.872 0 01-.715-.176l.15-.47h.418c.347.023.692-.072.979-.268a.843.843 0 00.38-.734 1.786 1.786 0 00-.915-1.459 3.529 3.529 0 00-2.141-.637c-1.394 0-2.486.355-3.275 1.065a3.002 3.002 0 00-1.053 2.327c0 1.258.639 2.298 1.957 3.182a8.718 8.718 0 004.967 1.33 7.624 7.624 0 004.295-1.195c1.317-.839 1.957-1.887 1.957-3.158a3.08 3.08 0 00-.339-1.5 4.253 4.253 0 00-1.054-1.183A10.338 10.338 0 00119 29.848c-.79-.352-1.618-.708-2.446-1.09a18.295 18.295 0 01-2.187-1.12 4.18 4.18 0 01-1.254-1.211 2.444 2.444 0 01-.452-1.384 2.621 2.621 0 011.254-2.21 5.569 5.569 0 013.316-.884c.565 0 .979 0 1.255.03.396.038.787.117 1.167.234V21.01h.752v6.364h-.752v-1.798a3.435 3.435 0 00-.602-2.185 1.982 1.982 0 00-1.673-.767 4.5 4.5 0 00-2.091.42 1.972 1.972 0 00-1.254 1.915c0 .42.376.885 1.091 1.413a16.614 16.614 0 003.241 1.678c1.091.473 1.881.838 2.371 1.09a7.44 7.44 0 011.618.943c.54.41.971.947 1.254 1.564.221.534.331 1.108.322 1.686z" stroke="#fff" stroke-width=".22" stroke-miterlimit="2.61"/><path d="M142.07 38.667h-4.855v-.646h1.769l-3.763-9.849h-2.664l-2.509 7.845-.113.528v.206a.841.841 0 01-.037.268.813.813 0 00.564.839c.188.029.489.088.866.117.376.03.865.059 1.43.059v.645h-5.595v-.658h1.167l5.795-16.922 6.026 15.329.418.914c.226.42.753.68 1.505.68l-.004.645zm-7.037-11.111l-1.255-3.128-.978 3.128h2.233z" fill="#fff"/><path d="M142.07 38.667h-4.855v-.646h1.769l-3.763-9.849h-2.664l-2.509 7.845-.113.528v.206a.841.841 0 01-.037.268.813.813 0 00.564.839c.188.029.489.088.866.117.376.03.865.059 1.43.059v.645h-5.595v-.658h1.167l5.795-16.922 6.026 15.329.418.914c.226.42.753.68 1.505.68l-.004.645zm-7.037-11.111l-1.255-3.128-.978 3.128h2.233z" stroke="#fff" stroke-width=".22" stroke-miterlimit="2.61"/><path d="M165.906 38.314c-1 .32-2.038.5-3.087.532h-.376a4.469 4.469 0 01-.527-.058l-.978-.122a32.886 32.886 0 01-5.834-1.736c-.752-.297-1.618-.679-2.638-1.123-1.021-.445-1.882-.885-2.748-1.325l-.037 1.258v.503c.011.218.037.435.075.65.017.237.109.464.264.645a.95.95 0 00.526.42c.113.029.264.029.452.058.187.03.375.05.565.059l.978-.059v.646h-6.398v-.642h1.769V24.075c.01-.34-.097-.673-.301-.944-.226-.176-.715-.264-1.468-.264v-.62h3.559v.838c.418-.146.865-.293 1.392-.473.418-.118.866-.235 1.43-.353a12.33 12.33 0 011.51-.234 14.119 14.119 0 011.543-.088 14.927 14.927 0 012.296.146 8.419 8.419 0 014.909 2.235 5.662 5.662 0 011.919 4.247v.177c0 1.916-.865 3.538-2.634 4.834a9.255 9.255 0 01-2.86 1.447c-1.103.31-2.242.468-3.388.47h-.263a5.991 5.991 0 01-.79-.06l-.753-.088.113-.234 3.763 1.471 2.748 1.09a9.27 9.27 0 002.785.504 5.42 5.42 0 00.94-.089c.377-.058.791-.176 1.355-.327l.189.554zm-2.71-9.669c0-1.77-.837-3.216-2.509-4.365a9.353 9.353 0 00-2.572-1.22 10.597 10.597 0 00-3.011-.386 11.08 11.08 0 00-2.927.445 9.83 9.83 0 00-1.317.499c-.388.216-.765.453-1.129.709v9.358l.64-.47a10.14 10.14 0 002.638 1.258c.425.132.856.24 1.293.327.461.06.926.09 1.392.088a8.478 8.478 0 005.194-1.648 5.544 5.544 0 002.308-4.595z" fill="#fff"/><path d="M165.906 38.314c-1 .32-2.038.5-3.087.532h-.376a4.469 4.469 0 01-.527-.058l-.978-.122a32.886 32.886 0 01-5.834-1.736c-.752-.297-1.618-.679-2.638-1.123-1.021-.445-1.882-.885-2.748-1.325l-.037 1.258v.503c.011.218.037.435.075.65.017.237.109.464.264.645a.95.95 0 00.526.42c.113.029.264.029.452.058.187.03.375.05.565.059l.978-.059v.646h-6.398v-.642h1.769V24.075c.01-.34-.097-.673-.301-.944-.226-.176-.715-.264-1.468-.264v-.62h3.559v.838c.418-.146.865-.293 1.392-.473.418-.118.866-.235 1.43-.353a12.33 12.33 0 011.51-.234 14.119 14.119 0 011.543-.088 14.927 14.927 0 012.296.146 8.419 8.419 0 014.909 2.235 5.662 5.662 0 011.919 4.247v.177c0 1.916-.865 3.538-2.634 4.834a9.255 9.255 0 01-2.86 1.447c-1.103.31-2.242.468-3.388.47h-.263a5.991 5.991 0 01-.79-.06l-.753-.088.113-.234 3.763 1.471 2.748 1.09a9.27 9.27 0 002.785.504 5.42 5.42 0 00.94-.089c.377-.058.791-.176 1.355-.327l.189.554zm-2.71-9.669c0-1.77-.837-3.216-2.509-4.365a9.353 9.353 0 00-2.572-1.22 10.597 10.597 0 00-3.011-.386 11.08 11.08 0 00-2.927.445 9.83 9.83 0 00-1.317.499c-.388.216-.765.453-1.129.709v9.358l.64-.47a10.14 10.14 0 002.638 1.258c.425.132.856.24 1.293.327.461.06.926.09 1.392.088a8.478 8.478 0 005.194-1.648 5.544 5.544 0 002.308-4.595z" stroke="#fff" stroke-width=".22" stroke-miterlimit="2.61"/><path d="M181.871 27.731h-.753v-2.516c0-.972-.263-1.651-.752-1.945-.49-.293-1.694-.47-3.538-.47l-.038 12.969-.037.562c0 .767.15 1.258.451 1.442.301.185 1.129.24 2.509.24v.645h-7.368v-.638h2.597V22.81h-1.355a8.21 8.21 0 00-.941.03 4.223 4.223 0 00-.64.058 1.747 1.747 0 00-.489.147 2.003 2.003 0 00-.418.322c-.19.297-.34.617-.447.952-.038.176-.038.386-.076.65a5.528 5.528 0 00-.075.68l.113 2.096h-.715v-6.709h.711v1.187h10.504V21.04h.753l.004 6.692z" fill="#fff"/><path d="M181.871 27.731h-.753v-2.516c0-.972-.263-1.651-.752-1.945-.49-.293-1.694-.47-3.538-.47l-.038 12.969-.037.562c0 .767.15 1.258.451 1.442.301.185 1.129.24 2.509.24v.645h-7.368v-.638h2.597V22.81h-1.355a8.21 8.21 0 00-.941.03 4.223 4.223 0 00-.64.058 1.747 1.747 0 00-.489.147 2.003 2.003 0 00-.418.322c-.19.297-.34.617-.447.952-.038.176-.038.386-.076.65a5.528 5.528 0 00-.075.68l.113 2.096h-.715v-6.709h.711v1.187h10.504V21.04h.753l.004 6.692z" stroke="#fff" stroke-width=".22" stroke-miterlimit="2.61"/><path d="M69.62 51.241c-.428.209-.9.31-1.376.294a2.204 2.204 0 01-1.702-.692 2.52 2.52 0 01-.64-1.803 2.666 2.666 0 01.72-1.933 2.41 2.41 0 011.823-.742c.401-.012.801.057 1.175.205v.62a2.423 2.423 0 00-1.184-.297 1.803 1.803 0 00-1.388.579 2.155 2.155 0 00-.535 1.534c-.028.531.15 1.053.497 1.455a1.695 1.695 0 001.313.545 2.51 2.51 0 001.297-.335v.57zm2.835.293a2.151 2.151 0 01-1.694-.709 2.58 2.58 0 01-.64-1.82c-.037-.7.195-1.387.649-1.92a2.282 2.282 0 011.773-.72 2.111 2.111 0 011.672.7c.441.5.67 1.152.636 1.819a2.743 2.743 0 01-.648 1.933 2.22 2.22 0 01-1.748.717zm.046-4.642a1.597 1.597 0 00-1.255.57c-.343.42-.519.952-.493 1.493a2.226 2.226 0 00.477 1.485 1.564 1.564 0 001.254.566 1.669 1.669 0 001.296-.537c.337-.426.505-.962.473-1.505a2.298 2.298 0 00-.456-1.53 1.576 1.576 0 00-1.296-.542zm2.998 4.348v-.637c.385.28.85.427 1.326.42.3.012.597-.081.836-.265a.859.859 0 00.322-.7c0-.646-.418-.964-1.296-.964h-.523v-.457h.477c.305.02.608-.066.857-.243a.8.8 0 00.305-.68.773.773 0 00-.25-.6.99.99 0 00-.7-.226 2.187 2.187 0 00-1.216.39v-.591a2.565 2.565 0 011.254-.306 1.72 1.72 0 011.121.335 1.11 1.11 0 01.418.893 1.163 1.163 0 01-.949 1.229c.318.018.617.155.836.386.202.221.31.513.302.813a1.354 1.354 0 01-.486 1.094 2.029 2.029 0 01-1.334.42 2.441 2.441 0 01-1.3-.31zm8.209 1.548h-.531v-1.342H79.6v1.342h-.54v-1.87h.39c.354-.682.635-1.4.836-2.143a9.641 9.641 0 00.389-2.327h2.35v4.47h.669l.013 1.87zm-1.255-1.87v-3.959h-1.254a11.639 11.639 0 01-1.113 3.942l2.367.017zm6.005.528h-.644l-.527-1.396h-2.116l-.498 1.396h-.648l1.907-4.998h.627l1.899 4.998zM87.09 49.52l-.782-2.142a2.868 2.868 0 01-.076-.336 2.291 2.291 0 01-.075.336l-.778 2.13 1.71.012zm6.117 1.925h-.585v-3.61c-.005-.23.008-.46.037-.688a1.86 1.86 0 01-.159.315l-2.596 3.983h-.711v-4.998h.585v3.522a5.32 5.32 0 01-.029.734c.058-.116.122-.228.192-.336l2.51-3.92h.748l.008 4.998zm-.736-6.516a1.1 1.1 0 01-.418.772c-.237.19-.533.29-.836.285a1.277 1.277 0 01-.862-.285 1.053 1.053 0 01-.363-.772h.56a.676.676 0 00.785.643.673.673 0 00.34-.165.793.793 0 00.23-.478h.564zm7.398 6.29c-.428.208-.9.309-1.376.293a2.202 2.202 0 01-1.702-.692 2.52 2.52 0 01-.615-1.765 2.665 2.665 0 01.72-1.933 2.414 2.414 0 011.822-.742c.402-.012.802.058 1.176.205v.62c-.363-.198-.77-.3-1.184-.297a1.801 1.801 0 00-1.388.579 2.154 2.154 0 00-.535 1.534 2.06 2.06 0 00.497 1.455 1.693 1.693 0 001.313.545 2.51 2.51 0 001.297-.335l-.025.532zm1.016.205v-4.977h1.417c.368-.02.731.092 1.025.314a1.01 1.01 0 01.38.839c.01.264-.072.523-.23.734a1.184 1.184 0 01-.631.448c.307.022.596.156.811.378.202.231.308.531.297.838a1.287 1.287 0 01-.456 1.036 1.72 1.72 0 01-1.158.42l-1.455-.03zm.585-4.47v1.615h.598c.271.013.538-.067.757-.227a.847.847 0 00.267-.658c0-.486-.313-.73-.953-.73h-.669zm0 2.143v1.799h.79c.287.016.57-.07.799-.244a.845.845 0 00.284-.67c0-.592-.418-.885-1.204-.885h-.669zm5.507 2.415a2.16 2.16 0 01-1.698-.709 2.58 2.58 0 01-.639-1.82c-.038-.7.194-1.387.648-1.92a2.283 2.283 0 011.773-.72 2.127 2.127 0 011.672.7c.439.5.665 1.153.632 1.82a2.741 2.741 0 01-.644 1.953 2.223 2.223 0 01-1.74.717l-.004-.021zm.042-4.642a1.603 1.603 0 00-1.275.57 2.52 2.52 0 000 2.978 1.543 1.543 0 001.254.566 1.67 1.67 0 001.296-.537c.334-.428.501-.963.469-1.505a2.297 2.297 0 00-.456-1.53 1.569 1.569 0 00-1.284-.52l-.004-.022zm7.335 4.554h-.582v-3.61a4.94 4.94 0 01.034-.688h-.021c-.041.11-.092.216-.155.315l-2.572 3.983h-.719v-4.977h.581v3.522c.008.245 0 .49-.025.734a3.34 3.34 0 01.193-.336l2.509-3.92h.748l.009 4.977zm-.732-6.516a1.12 1.12 0 01-.418.772 1.435 1.435 0 01-1.715 0 1.058 1.058 0 01-.364-.772h.565a.627.627 0 00.184.482.618.618 0 00.485.172.636.636 0 00.456-.176.8.8 0 00.226-.478h.581zm9.086 6.516h-.581V48.07c0-.264 0-.587.046-.973a3.175 3.175 0 01-.15.486l-1.702 3.84h-.31l-1.672-3.79a2.807 2.807 0 01-.151-.515c.021.201.029.528.029.981v3.354h-.589v-5.006h.769l1.531 3.484c.091.194.168.394.23.6.1-.268.184-.478.242-.612l1.56-3.472h.732l.016 4.977zm5.328 0h-.581v-3.61c-.005-.23.006-.46.033-.688h-.021c-.04.11-.092.216-.155.315l-2.571 3.983h-.715v-4.977h.585v3.522c.007.245-.003.49-.029.734.057-.116.122-.228.192-.336l2.509-3.92h.744l.009 4.977zm1.902-1.891v1.89h-.581v-4.976h1.368c.451-.032.898.105 1.254.386a1.383 1.383 0 01.443 1.107 1.514 1.514 0 01-.493 1.165 1.858 1.858 0 01-1.317.449l-.674-.021zm0-2.579v2.05h.615c.33.023.657-.075.92-.276a.973.973 0 00.318-.78c0-.663-.389-.994-1.167-.994h-.686zm5.357 4.47v-4.977h1.443c.369-.019.733.092 1.028.314a1.014 1.014 0 01.377.839c.009.264-.072.523-.23.734a1.168 1.168 0 01-.632.448c.308.022.597.156.812.378.204.23.31.53.297.838a1.302 1.302 0 01-.456 1.036 1.713 1.713 0 01-1.159.42l-1.48-.03zm.606-4.465v1.614h.598c.271.013.538-.067.757-.227a.835.835 0 00.268-.658c0-.486-.314-.73-.953-.73h-.67zm0 2.142V50.9h.791c.286.017.57-.07.798-.243a.833.833 0 00.285-.671c0-.591-.397-.885-1.204-.885h-.67zm7.281 2.327h-.59v-4.436h-2.605v4.453h-.581v-4.998h3.763l.013 4.981zm3.939 0h-2.643v-4.981h2.509v.511h-1.945v1.678h1.803v.528h-1.803v1.748h2.058l.021.516zm4.315 0h-.585v-2.247c-.453.256-.961.4-1.481.419a1.421 1.421 0 01-1.012-.34 1.253 1.253 0 01-.355-.951V46.43h.585v1.85c0 .536.285.809.837.809a3.299 3.299 0 001.409-.386V46.43h.585l.017 4.998zm5.215 0h-.678l-.527-1.396h-2.116l-.497 1.396h-.623l1.907-4.998h.602l1.932 4.998zm-1.368-1.924l-.798-2.126a2.581 2.581 0 01-.08-.336 1.92 1.92 0 01-.075.336l-.778 2.13 1.731-.004zm4.526-2.527h-1.439v4.47h-.585v-4.47h-1.439v-.529h3.463v.529zm3.859 4.469h-.585V46.96h-1.38c-.163 1.258-.284 2.151-.376 2.67a6.68 6.68 0 01-.285 1.15c-.069.218-.204.41-.384.549a.945.945 0 01-.586.18 1.363 1.363 0 01-.477-.071v-.55c.121.066.256.1.394.101a.526.526 0 00.418-.26 4.03 4.03 0 00.384-1.341 45.92 45.92 0 00.419-2.935h2.454l.004 4.993zm3.96 0h-2.642V46.45h2.529v.511h-1.923v1.677h1.802v.529h-1.802v1.748h2.057l-.021.532zm4.709 0h-.586V49.17h-2.575v2.276h-.586V46.45h.586v2.188h2.575v-2.193h.586v5.002zm5.327 0h-.581v-3.61c-.005-.23.006-.46.033-.687h-.02a1.53 1.53 0 01-.159.314l-2.564 3.983h-.719V46.45h.581v3.522c.008.244 0 .49-.025.733a3.34 3.34 0 01.193-.335l2.509-3.92h.748l.004 4.997zm5.336 0h-.585v-3.61c-.005-.23.008-.46.037-.687h-.021c-.04.11-.093.216-.159.314l-2.567 3.983h-.732V46.45h.581v3.522c.01.245 0 .49-.029.733a3.58 3.58 0 01.192-.335l2.509-3.92h.749l.025 4.997zm-.732-6.515a1.115 1.115 0 01-.418.771 1.432 1.432 0 01-1.714 0 1.059 1.059 0 01-.364-.771h.564a.612.612 0 00.185.481.605.605 0 00.484.173.64.64 0 00.456-.176.795.795 0 00.226-.478h.581z" fill="#fff"/></svg><svg fill="none" viewBox="0 0 21 19" id="footer-tg" xmlns="http://www.w3.org/2000/svg"><path fill-rule="evenodd" clip-rule="evenodd" d="M17.73 16.948v-.001l.017-.045 2.986-15.577v-.05c0-.389-.139-.727-.44-.93-.264-.179-.567-.191-.78-.175a2.557 2.557 0 00-.584.125 3.106 3.106 0 00-.239.09l-.013.005L2.029 7.147l-.004.002a1.591 1.591 0 00-.149.063 2.24 2.24 0 00-.34.197c-.214.151-.621.51-.552 1.08.057.47.37.77.582.925a2.044 2.044 0 00.433.24l.01.005.008.002 2.912 1.015c-.01.189.009.382.057.572l1.459 5.727c.173.679.767 1.152 1.445 1.151.609 0 1.148-.381 1.377-.95l2.278-2.52 3.912 3.104.056.025c.355.16.687.212.99.169.304-.043.545-.175.726-.325a1.78 1.78 0 00.489-.653l.008-.018.002-.007.001-.003zm-11.3-6.094a.314.314 0 01.129-.34l9.879-6.491s.581-.365.56 0c0 0 .104.064-.207.365-.296.285-7.042 7.024-7.724 7.706a.289.289 0 00-.077.14l-1.1 4.347-1.46-5.727z" fill="#fff"/></svg><svg fill="none" viewBox="0 0 24 15" id="footer-vk" xmlns="http://www.w3.org/2000/svg"><path d="M22.178 14.295h-2.476c-.937 0-1.219-.759-2.899-2.439-1.466-1.413-2.085-1.59-2.457-1.59-.512 0-.653.141-.653.849v2.226c0 .602-.195.955-1.768.955a9.66 9.66 0 01-7.548-4.525A19.728 19.728 0 01.471 1.57c0-.372.14-.708.848-.708h2.474c.637 0 .866.283 1.115.937 1.202 3.536 3.252 6.61 4.083 6.61.319 0 .458-.14.458-.936V3.832c-.105-1.662-.987-1.803-.987-2.403a.61.61 0 01.634-.567h3.89c.53 0 .707.265.707.901v4.914c0 .531.23.708.389.708.319 0 .565-.177 1.148-.76a20.36 20.36 0 003.041-5.057A1.065 1.065 0 0119.35.862h2.476c.741 0 .9.372.741.901a30.892 30.892 0 01-3.322 5.71c-.267.407-.374.62 0 1.096.246.372 1.113 1.096 1.697 1.785a11.007 11.007 0 012.085 2.899c.212.689-.142 1.042-.848 1.042z" fill="#fff"/></svg><svg fill="none" viewBox="0 0 22 21" id="footer-wa" xmlns="http://www.w3.org/2000/svg"><path fill-rule="evenodd" clip-rule="evenodd" d="M10.201.273c-1.561.152-2.739.49-4.016 1.15a10.282 10.282 0 00-4.498 4.582c-.374.757-.55 1.221-.745 1.963-.247.936-.318 1.505-.32 2.54A12.8 12.8 0 00.671 11.8c.22 1.655.74 3.081 1.609 4.416l.29.445-.644 1.897c-.354 1.044-.638 1.903-.631 1.91.007.007.892-.269 1.967-.612 1.075-.344 1.97-.625 1.987-.625.018 0 .184.095.369.21.185.115.573.322.863.46a10.339 10.339 0 008.28.296 10.42 10.42 0 006.196-6.988c.255-.967.32-1.498.32-2.62 0-1.123-.065-1.653-.32-2.62-.975-3.706-3.95-6.586-7.702-7.46-.63-.147-1.287-.221-2.083-.236a16.835 16.835 0 00-.97 0zM7.735 5.066c.067.034.16.133.208.218.12.216 1.104 2.58 1.133 2.724.036.183-.143.494-.545.945-.42.471-.51.622-.472.792.068.308 1.003 1.547 1.58 2.092.894.845 2.245 1.648 2.847 1.691.31.022.423-.065.897-.695.215-.285.444-.572.509-.638.156-.155.388-.188.647-.092.333.124 2.37 1.114 2.513 1.222l.137.103-.023.428c-.058 1.099-.444 1.67-1.464 2.165-.97.472-1.73.459-3.217-.054-1.995-.689-3.054-1.347-4.489-2.788a15.168 15.168 0 01-1.811-2.166c-.962-1.375-1.33-2.437-1.221-3.515.088-.864.39-1.501 1.001-2.111.295-.295.682-.417 1.264-.397.247.008.428.035.506.076z" fill="#fff"/></svg><svg fill="none" viewBox="0 0 23 20" id="heart" xmlns="http://www.w3.org/2000/svg"><path fill-rule="evenodd" clip-rule="evenodd" d="M5.464.027C3.397.346 1.711 1.615.726 3.594A7.096 7.096 0 00.12 5.377c-.103.495-.12.68-.12 1.407-.002.705.013.912.1 1.312.29 1.356.96 2.738 2.002 4.13 1.037 1.388 2.75 3.103 4.51 4.516 1.26 1.013 3.134 2.337 4.214 2.979.614.365.72.368 1.28.034 2.482-1.484 5.544-3.925 7.303-5.822 2.04-2.201 3.115-4.045 3.508-6.015.119-.595.107-1.816-.025-2.48-.416-2.106-1.656-3.851-3.377-4.754-.544-.285-.812-.389-1.38-.534-.61-.157-1.688-.198-2.318-.088-.727.127-1.607.463-2.18.831-.699.45-1.454 1.182-1.88 1.823-.13.197-.248.358-.262.358-.013 0-.134-.168-.27-.373-.322-.49-1.172-1.342-1.665-1.67A6.192 6.192 0 007.19.065C6.839.003 5.772-.02 5.465.027z" fill="#fff"/></svg><svg fill="none" viewBox="0 0 67 67" id="hero-dot" xmlns="http://www.w3.org/2000/svg"><g filter="url(#ha)"><circle cx="33.5" cy="29.5" r="13.5" fill="#66B8B1"/><circle cx="33.5" cy="29.5" r="12" stroke="#FCFAF9" stroke-width="3"/></g><defs><filter id="ha" x="0" y="0" width="67" height="67" filterUnits="userSpaceOnUse" color-interpolation-filters="sRGB"><feFlood flood-opacity="0" result="BackgroundImageFix"/><feColorMatrix in="SourceAlpha" values="0 0 0 0 0 0 0 0 0 0 0 0 0 0 0 0 0 0 127 0" result="hardAlpha"/><feOffset dy="4"/><feGaussianBlur stdDeviation="10"/><feComposite in2="hardAlpha" operator="out"/><feColorMatrix values="0 0 0 0 0 0 0 0 0 0 0 0 0 0 0 0 0 0 0.25 0"/><feBlend in2="BackgroundImageFix" result="effect1_dropShadow_173_11662"/><feBlend in="SourceGraphic" in2="effect1_dropShadow_173_11662" result="shape"/></filter></defs></svg><svg fill="none" viewBox="0 0 183 60" id="logo" xmlns="http://www.w3.org/2000/svg"><g clip-path="url(#ia)"><path fill-rule="evenodd" clip-rule="evenodd" d="M29.924 59.685c16.2 0 29.568-13.203 29.597-29.433a29.743 29.743 0 00-4.867-16.562A29.624 29.624 0 0041.418 2.646 29.532 29.532 0 0024.292.856 29.58 29.58 0 009.068 8.922 29.71 29.71 0 00.897 24.121a29.76 29.76 0 001.645 17.186A29.668 29.668 0 0013.447 54.67a29.55 29.55 0 0016.477 5.017zm0-56.486a.473.473 0 01-.046-.046l-.042-.046a.384.384 0 01-.042-.042l-1.4-1.258 3.056.03c-.071.13-.619.444-.79.612-.264.255-.469.486-.736.75zm-10.43.575c1.276-.348 2.727-1.116 4.475-1.355-.485.68-1.12 1.032-1.313 2.407-1.748-.633-.364-.507-3.161-1.052zm17.689 1.052c-.192-1.472-1.016-1.916-1.317-2.394 1.614.268 2.99.906 4.399 1.308a4.785 4.785 0 01-.916.201c-.97.252-1.46.642-2.166.902v-.017zM17.5 5.836c1.255-.2 1.84-.574 3.195-.05 1.652.633 3.487 2.373 4.888 2.487a2.432 2.432 0 002.392-1.3c1.087-1.996-.774-3.27-1.957-2.461-.631.419-.134.775.059 1.215.59 1.334-1.255 1.124-1.748.19-.552-1.024.31-2.26.836-2.596 1.924-1.258 3.88.679 4.148 2.436.418 2.646-2.927 5.128-6.485 3.316-2.51-1.278-4.6-3.086-7.916-2.897a16.76 16.76 0 013.14-1.74 3.116 3.116 0 00-.552 1.4zm27.431.336c-2.278-.088-3.951.667-5.624 1.597-.794.453-1.543.893-2.35 1.334-3.144 1.715-6.916-.508-6.431-3.417.288-1.678 2.266-3.673 4.14-2.357.493.344 1.384 1.556.836 2.575-.548 1.018-2.325 1.132-1.744-.18.213-.475.665-.84.021-1.259-1.116-.72-2.998.42-1.915 2.491a2.441 2.441 0 002.392 1.304c.903-.076 1.886-.776 2.509-1.17a14.52 14.52 0 012.362-1.32c1.313-.487 1.924-.185 3.187.054a2.822 2.822 0 00-.54-1.4 16.488 16.488 0 013.157 1.748zm-26.005 5.987c.134-1.727-.899-3.258-2.37-3.43-1.544-.18-3.074 1.556-2.238 3.061a.721.721 0 00.974.37c.33-.168.38-.546.485-.915.481-1.63 2.877.365.64 2.097a2.062 2.062 0 01-2.208 0c-3.558-2.021-.974-6.013 2.518-5.556 1.471.193 3.742 1.757 5.98 2.617.417.163 1.877.59 2.09.733a5.826 5.826 0 00-.882 1.464 4.127 4.127 0 00-.21 2.033 3.654 3.654 0 001.832 2.755c-.088.058-2.128.947-2.145.952a3.534 3.534 0 00-.707-3.246c-.74-.876-1.254-1.086-2.471-1.727.983-.323 2.045-.93 2.183-2.097-1.36-.897-3.228.776-3.471.89zm16.095-1.006c.276-.172 1.702-.574 2.162-.755.715-.285 1.35-.57 1.999-.876 1.254-.587 2.467-1.543 3.993-1.727a3.913 3.913 0 013.89 1.924c1.316 2.16-2.092 5.086-3.727 3.568-1.53-1.404-.694-2.486-.058-2.612 1.062-.21.564 1.258 1.325 1.518a.735.735 0 00.92-.42c.837-1.5-.719-3.282-2.316-3.043-1.443.213-2.409 1.677-2.296 3.417l-.176-.11c-.928-.624-2.157-1.446-3.299-.733a2.654 2.654 0 001.41 1.799c.137.067.267.109.417.163l.356.168c-1.836.503-3.88 2.662-3.174 4.91-.08 0-2.007-.839-2.15-.952a3.655 3.655 0 001.832-2.818c.197-1.61-.389-2.415-1.108-3.438v.017zm-26.206.26a18.844 18.844 0 012.546-2.558c-.376 1.02-.51 1.132-.234 2.319-1.179-.272-1.313-.163-2.312.222v.017zm39.897-.239c.271-1.312.125-1.216-.23-2.314a18.009 18.009 0 012.534 2.532c-1.004-.352-1.08-.516-2.304-.235v.017zm-18.278 1.958c1.325.897 2.212.24 2.981-.759-.418-.277-1.15-.184-2.09-.914a2.347 2.347 0 01-.95-1.92l3.237 1.84c.49.44.824 1.03.95 1.678.166.905-.089 1.442-.352 2.117a10.59 10.59 0 00-.962-.553c-1.468-.525-2.2 1.031-1.4 2.15-.486.042-1.343-.096-1.924-.096-.644 0-1.363.122-1.936.1.397-.729.522-1.676-.218-2.096-.97-.553-1.785.332-2.137.474-.255-.696-.54-1.145-.355-2.122.297-1.614 1.585-2.016 2.509-2.553a15.925 15.925 0 011.672-.943c-.137 2.457-2.659 2.545-3.035 2.826.836 1.073 1.538 1.597 2.956.771-.042.327-.686 1.992.527 2.67.987-.64.744-1.475.527-2.67zm-19.328 11.74c-.154-.239-.593-1.736-.756-2.168-.268-.7-.573-1.38-.87-2.004-.581-1.22-1.552-2.49-1.723-4.008a3.913 3.913 0 011.92-3.891c2.274-1.313 5.042 2.13 3.554 3.731-1.364 1.472-2.463.776-2.601.06-.214-1.083 1.212-.567 1.505-1.33a.756.756 0 00-.389-.922c-1.518-.914-3.29.775-3.048 2.314.226 1.442 1.672 2.44 3.412 2.31-.18.42-.548.579-.903 1.53a2.522 2.522 0 000 1.925c.627.046 1.091-.457 1.405-.763.447-.42.493-.742.727-1.396.703 1.258.761 1.677 1.732 2.465a3.435 3.435 0 003.22.755c0 .063-.866 2.017-.95 2.147a3.506 3.506 0 00-1.133-1.229c-1.94-1.224-3.663-.595-5.102.49v-.016zm36.619-5.912c1.714.134 3.232-.872 3.42-2.377.189-1.505-1.672-3.132-3.04-2.243a.75.75 0 00-.38.985c.167.319.548.373.92.482 1.05.319.527 1.342-.172 1.543-1.116.315-3.044-1.19-1.957-3.124 1.97-3.496 6.022-1.031 5.55 2.545-.176 1.359-1.163 2.873-1.732 3.988l-1.254 3.086c-.085.349-.195.69-.33 1.023a6.933 6.933 0 00-1.46-.88 3.892 3.892 0 00-4.78 1.626c-.096-.146-.907-1.987-.957-2.138 2.99.54 3.91-1.35 4.955-3.224.276 1.014 1.058 2.096 2.09 2.184.846-1.417-.672-3.04-.873-3.46v-.016zM4.42 18.096a17.113 17.113 0 011.74-3.148c-.28 5.09 4.098 7.35 3.441 11.178-.305 1.778-1.882 3.668-3.998 3.237-1.752-.36-3.583-2.365-2.224-4.235.364-.503 1.698-1.308 2.622-.671.924.637.915 2.373-.398 1.631-.464-.26-.777-.528-1.133.05a1.483 1.483 0 00-.07 1.4c.635 1.397 2.717.902 3.52-.419.89-1.454-.134-2.876-.836-4.02a14.182 14.182 0 01-1.322-2.37c-.535-1.404-.125-1.916.05-3.199-.752.126-.794.256-1.392.566zm10.216 1.879c-.648-1.593.18-2.424.347-3.883.418.147 1.254 1.422.886 2.541a1.68 1.68 0 01-.221.42l-.255.356c.146.1-.18-.067.171.105l.527.134c.87.08 1.196-.264 1.673-.78.418.365.945.88 1.886.838.062-1.144-.57-1.375-.808-1.958.816-.419.837-1.257.607-2.302-.623.223-.837.76-1.89.541-.548-.113-1.376-.578-1.514-.956 1.463-.117 2.204-1.01 3.872-.343a3.83 3.83 0 011.35.947 2.044 2.044 0 01.452 1.828c-.451 0-1.568-.15-1.723.977a1.353 1.353 0 001.205 1.451c-.16.268-.581.54-.991 1.027l-.38.344c-.118-.683-.67-1.371-1.519-1.195-1.078.218-.903 1.317-.899 1.72-1.375.196-2.266-.575-2.776-1.812zm23.471-2.516c-.351-2.176 2.05-3.38 3.91-2.876.28.075 1.593.42 1.765.486a2.836 2.836 0 01-1.548.931c-.865.147-1.204-.184-1.752-.562a1.7 1.7 0 00-.192 1.396 1.452 1.452 0 00.69.927c-.184.42-.861.839-.807 1.95a2.349 2.349 0 001.844-.805l.485.419a1.736 1.736 0 001.92.075l-.097-.113a.527.527 0 00-.038-.05 1.871 1.871 0 01-.38-1.627c.132-.6.46-1.139.933-1.53.213 1.287.932 2.545.367 3.895-.418.968-1.325 2.188-2.789 1.794.03-.419.15-.696-.112-1.12a1.178 1.178 0 00-.837-.582c-.87-.13-1.162.537-1.413.981-.142.26 0 .084-.163.23-.306-.561-.803-.838-1.255-1.324.594-.29 1.33-.6 1.209-1.497a1.262 1.262 0 00-.573-.838c-.385-.269-.707-.168-1.154-.156l-.013-.004zm17.295.633a2.76 2.76 0 00-1.413-.532c.673 2.935.046 3.446-1.213 5.51-.418.683-1.075 1.584-1.192 2.515a2.424 2.424 0 001.255 2.444c2.179 1.216 3.308-.939 2.463-1.979-.498-.608-.799 0-1.234.13-1.38.478-.961-1.404-.083-1.807 1.05-.482 2.174.357 2.538.872 1.325 1.879-.749 3.912-2.425 4.151-1.338.193-1.974-.34-2.66-.943-1.493-1.317-1.618-3.774-.652-5.572 1.296-2.45 3.132-4.83 2.885-7.938a17.01 17.01 0 011.744 3.153l-.013-.004zM2.43 24.034c.217-1.74 1.116-3.489 1.334-4.483.547 2.822.439 1.464 1.053 3.174-1.313.155-1.706.805-2.387 1.308zm52.575-1.317c.167-.478.485-.956.686-1.493a8.903 8.903 0 00.372-1.677c.347 1.258 1.108 2.713 1.35 4.482-.706-.499-1.061-1.132-2.408-1.312zM9.513 29.56c.28-.578.594-1.138.941-1.677.535-.956.966-2.244 2.55-2.516a2.92 2.92 0 012.092.394c-.201.297-.38.608-.536.93-.389 1.137.486 2.286 2.175 1.397.042 1.572-.222 1.258.025 3.866-.836-.357-1.748-.558-2.154.277-.476.977.356 1.715.515 2.096-.699.247-1.175.524-2.12.352a3.087 3.087 0 01-1.627-.905L9.522 30.44c2.366.168 2.509 2.516 2.81 3.044.911-.612 1.672-1.635.76-2.964 1.146.189 2.091.457 2.669-.516-.46-.864-1.522-.797-2.622-.532.213-.524.54-1.17.2-1.87a2.152 2.152 0 00-1.053-1.103c-.34 1.64-.996 2.935-2.773 3.06zm35.51 4.264a1.613 1.613 0 00.18-1.677c-.418-.755-1.33-.554-2.132-.227a20.85 20.85 0 000-3.857c.836.314 1.706.604 2.149-.285.443-.89-.368-1.753-.48-2.046 1.254-.868 3.018-.315 3.72.52l1.862 3.3c-2.405-.152-2.547-2.609-2.81-3.049-1.389.927-1.334 1.677-.812 2.965-.648-.16-2.132-.525-2.63.528.694 1.174 2.225.587 2.676.524a1.827 1.827 0 00-.297 1.774c.21.504.585.922 1.063 1.186.221-.356.23-1.258.873-2.038a2.348 2.348 0 011.932-1.01l-1.86 3.304a3.134 3.134 0 01-1.623.914c-.903.172-1.443-.084-2.12-.348l.31-.478zm-43.2-5.35c.117.067.477.654.61.792l.753.738c-.271.273-.493.474-.752.738-.138.143-.473.709-.636.793l.025-3.061zm54.825 1.53a.67.67 0 01.134-.134l.092-.08c.06-.046.117-.098.167-.155.31-.332.602-.68.874-1.044 0 0 .046 0 .055-.054.008-.055.033-.038.054-.055l-.104 2.935a.265.265 0 01-.046-.05l-.214-.302a8.909 8.909 0 00-1.012-1.06zM5.817 42.444c-.214-1.32-.569-1.849-.03-3.249.628-1.64 2.384-3.468 2.468-4.922.142-2.42-3.099-3.556-3.881-1.745a1.488 1.488 0 00.159 1.434c.468.554.77 0 1.23-.142 1.346-.487 1.02 1.329.066 1.803-.953.473-2.157-.365-2.509-.839-1.355-1.9.732-3.908 2.417-4.176 2.091-.327 3.634 1.59 3.89 3.413.522 3.719-3.718 5.87-3.472 11.031a17.457 17.457 0 01-1.735-3.157c.41.303.891.493 1.397.55zm47.862 2.625c.126-5.45-4.056-7.316-3.462-11.12.552-3.517 4.42-4.481 6.201-1.878 1.64 2.394-1.091 4.273-2.463 3.535-1.003-.537-1.124-2.348.184-1.753.49.227.812.65 1.23 0a1.5 1.5 0 000-1.5c-1.008-1.678-4.127-.286-3.764 2.142.197 1.35 1.97 3.266 2.51 4.872.468 1.388.079 1.849-.105 3.06.506-.049.99-.231 1.405-.528a20.533 20.533 0 01-1.736 3.17zM3.726 40.377c-.38-1.383-1.066-2.821-1.3-4.41.19.145.371.305.539.477.648.583 1.146.617 1.831.839-.104.453-.656 1.241-.882 2.247-.024.29-.087.575-.188.847zm51.279-3.102a3.34 3.34 0 001.392-.49c.189-.107.363-.237.519-.387.155-.154.323-.294.502-.419a19.127 19.127 0 01-.59 2.315c-.217.733-.548 1.45-.71 2.096a.255.255 0 01-.03-.071l-.071-.218c-.577-2.44-.351-1.049-1.012-2.826zM11.098 35.12c.44.367.933.662 1.464.876a3.875 3.875 0 004.77-1.614c.038.05.942 2.062.967 2.142-1.493-.28-2.28 0-3.233.738a5.572 5.572 0 00-1.672 2.457.185.185 0 01-.038-.054.635.635 0 01-.037-.055l-.126-.293c-.301-.839-1.083-1.678-1.928-1.766-.56.797-.12 2 .356 2.768l.506.7a3.18 3.18 0 00-2.346.616c-2.51 1.828-.13 5.191 1.957 4.013a.727.727 0 00.38-.977c-.175-.36-.564-.382-.974-.512-1.443-.46.272-2.838 2.133-.662 1.426 1.677-1.476 5.052-3.65 3.66a3.92 3.92 0 01-1.87-3.861c.167-1.518 1.17-2.818 1.752-4.063.305-.646.606-1.317.866-2.009.15-.406.58-1.87.731-2.104h-.008zm34.21 1.094c1.714.226 2.43-.461 3.433-1.107.26.717.46 1.438.744 2.18.866 2.235 2.409 4.482 2.584 6.017.398 3.497-3.592 6.004-5.582 2.402a1.904 1.904 0 01.109-2.255c1.923-2.122 3.52.28 2.032.725-.393.117-.799.155-.94.545a.744.744 0 00.417.927c1.468.838 3.275-.742 3.036-2.306-.263-1.698-1.915-2.411-3.429-2.327.502-.75 1.644-2.176.862-3.464-1.058.067-1.773 1.183-2.091 2.176-.569-1.144-.92-1.828-1.719-2.465-.928-.742-1.76-1.027-3.232-.746.038-.11.903-2.059.957-2.143a3.607 3.607 0 002.827 1.84h-.008zM39.95 38.73c.197.482.167.549.514.867.699.646 2.15.537 1.924-1.358 1.48-.377 2.388.81 2.798 1.79.635 1.53-.189 2.457-.356 3.862-.355-.088-.836-.952-.95-1.488-.246-1.166.42-1.418.549-1.912-.519-.118-.837-.281-1.447-.093a2.866 2.866 0 00-.916.65s-.03.03-.046.038a2.434 2.434 0 00-1.852-.805 2.555 2.555 0 00.81 1.866c-.514.75-1.011.6-.593 2.419.418-.138.778-.792 1.903-.553.518.109 1.388.6 1.493.951-1.456.139-2.296 1.028-3.914.332-.929-.42-2.133-1.338-1.723-2.78.886.075 1.56-.05 1.672-.952.113-.901-.593-1.233-1.208-1.497l1.342-1.337zm-24.897 5.186c-.092-.21-.418-1.539-.502-1.836a3.447 3.447 0 011.046-3.41 2.221 2.221 0 011.84-.448c0 .495-.105.839.163 1.208.187.272.474.458.798.52a1.344 1.344 0 001.439-1.212c.322.18.389.373.702.683a2.9 2.9 0 00.673.562c-.167.185-.284.176-.506.302a1.256 1.256 0 00-.69 1.359 1.222 1.222 0 00.623.792c.419.222.665.11 1.063.084.397 1.476-.812 2.386-1.782 2.797-1.355.566-2.613-.156-3.889-.374a2.67 2.67 0 011.53-.918c.967-.205 1.36.26 1.82.541a1.722 1.722 0 00-.117-1.962l-.418-.445a2.642 2.642 0 00.836-1.853c-1.079-.046-1.376.495-1.961.839-.285-.617-1.598-1.178-2.309-.533.377.566.732.918.544 1.82a2.844 2.844 0 01-.903 1.484zm5.18 2.709c.511-.285.879-.42 1.347-.726 1.355-.905 2.367-2.465 1.853-4.234a20.57 20.57 0 012.153.951 3.607 3.607 0 00-1.848 2.822c-.222 1.677.49 2.474 1.1 3.434-.418.218-2.722.839-4.157 1.627-.635.34-1.254.642-1.873.994-2.241 1.258-4.7.985-6-1.191-1.301-2.176 2.09-5.074 3.721-3.568.376.348 1.066 1.031.803 1.878-.222.717-1.213 1.212-1.53.168-.114-.377-.164-.805-.54-.952a.73.73 0 00-.924.42c-.89 1.4.727 3.295 2.304 3.04 1.493-.24 2.425-1.732 2.304-3.418l.184.109.054.038c1.426.977 1.627 1.081 3.258.746-.226-1.145-1.117-1.803-2.229-2.138h.02zm14.055-4.009a19.01 19.01 0 012.154-.947 3.519 3.519 0 00.723 3.233c.757.876 1.255 1.077 2.467 1.718-1.1.332-1.986.97-2.212 2.126 1.744.541 2.38-.184 3.505-.889a3.143 3.143 0 00.614 2.336c1.936 2.68 5.303-.134 3.935-2.055a.685.685 0 00-1.02-.218c-.276.214-.289.583-.418.981-.456 1.355-2.844-.465-.602-2.247 1.672-1.325 5.017 1.505 3.579 3.774a3.918 3.918 0 01-3.885 1.807c-1.35-.18-2.872-1.166-3.985-1.744-.602-.315-1.33-.596-2.003-.864-.548-.218-1.74-.537-2.09-.734.354-.452.651-.947.886-1.472a4.205 4.205 0 00-.418-3.694 3.177 3.177 0 00-1.23-1.11zm-8.622 2.248c.351.134 1.129 1.002 2.09.46.816-.456.544-1.303.226-2.133 1.28.15 2.572.15 3.852 0-.837 1.975.334 2.968 2.132 1.79l.239-.147c.2.747.564 1.153.326 2.206a3.074 3.074 0 01-.937 1.593c-.221.18-3.027 1.761-3.253 1.816a2.52 2.52 0 011.02-1.933c.816-.663 1.673-.638 2.037-.877-.795-1.148-1.937-1.614-2.961-.771.075-.558.314-.839.18-1.572a1.537 1.537 0 00-.698-1.107c-1.067.52-.674 2.017-.54 2.629-.556-.227-1.079-.533-1.815-.218a2.51 2.51 0 00-1.129 1.04c.44.276 2.865.385 3.04 2.821l-3.29-1.866a3.089 3.089 0 01-.52-3.731zm-14.31 6.289a17.817 17.817 0 01-2.538-2.55c1.104.361.983.5 2.3.236-.276 1.253-.109 1.287.238 2.314zm37.355-2.314c1.346.264 1.196.117 2.304-.24a16.805 16.805 0 01-2.534 2.546c.313-1.09.522-.927.23-2.298v-.008zm-33.817 4.985c3.312.184 5.344-1.568 7.97-2.935 3.345-1.732 6.904.591 6.432 3.417-.28 1.677-2.259 3.652-4.136 2.365-.519-.356-1.376-1.577-.837-2.6.465-.884 2.346-1.186 1.757.202-.176.419-.74.771 0 1.236a1.519 1.519 0 001.501 0c1.673-.993.28-4.15-2.133-3.773-.861.13-1.81.813-2.475 1.22-.752.51-1.553.944-2.392 1.291-1.28.453-1.894.105-3.044-.104.035.497.206.976.493 1.383a16.472 16.472 0 01-3.136-1.702zm19.235 1.2c-.062-.39-.924-1.393-.15-1.678.636-.235 1.346.394 1.53.75.665 1.258-.64 2.697-1.543 2.935-2.509.642-4.6-3.245-2.734-5.203 2.09-2.193 4.32-1.774 6.74-.36a26.445 26.445 0 003.12 1.63 7.656 7.656 0 003.847.734c-1 .665-2.05 1.247-3.145 1.74a3.01 3.01 0 00.535-1.404c-2.02.348-2.508.578-4.273-.487-.795-.482-2.538-1.627-3.312-1.849a2.501 2.501 0 00-2.747.973c-.2.284-.337.607-.406.948-.439 2.05 2.062 2.57 2.538 1.27zm-14.635 1.194a9.983 9.983 0 001.727-.394c.506-.201.982-.52 1.434-.667.085.717.392 1.389.878 1.92.162.15.31.317.44.495-1.987-.369-3.856-1.228-4.475-1.354h-.004zm16.367 1.354c.347-.532 1.145-.99 1.317-2.415 1.129.378 1.033.797 3.123 1.04-.848.482-3.332 1.166-4.436 1.375h-.004zM17.918 32.017c-.058-1.048-.15-1.807-.117-2.935.26-1.879.485-3.036 1.255-4.57a12.778 12.778 0 012.509-3.397c7.585-7.035 19.95-2.172 20.49 8.294a12.183 12.183 0 01-2.191 7.647 12.128 12.128 0 01-6.438 4.652 12.096 12.096 0 01-7.928-.336c-2.53-1-4.652-2.824-6.024-5.18-1.271-2.079-1.242-3.488-1.556-4.175zm12.006 24.788c.386.444.824.84 1.304 1.178l.205.197-2.927-.109.05-.05a6.14 6.14 0 001.154-.998l.076-.092a.562.562 0 01.138-.126z" fill="#C76F6B"/><path d="M59.47 31.79C60.458 15.427 48.027 1.358 31.707.369 15.384-.622 1.354 11.842.366 28.208-.62 44.571 11.812 58.64 28.133 59.63c16.321.99 30.352-11.474 31.339-27.84z" stroke="#C76F6B" stroke-width="1.5" stroke-miterlimit="2.61"/><path d="M40.229 32.719c1.498-5.709-1.903-11.553-7.596-13.055-5.694-1.502-11.523 1.908-13.02 7.616-1.498 5.709 1.902 11.554 7.596 13.056 5.693 1.501 11.522-1.909 13.02-7.617z" fill="#FEFEFE"/><path d="M40.229 32.719c1.498-5.709-1.903-11.553-7.596-13.055-5.694-1.502-11.523 1.908-13.02 7.616-1.498 5.709 1.902 11.554 7.596 13.056 5.693 1.501 11.522-1.909 13.02-7.617z" stroke="#C76F6B" stroke-width=".5" stroke-miterlimit="2.61"/><path fill-rule="evenodd" clip-rule="evenodd" d="M29.919 20.499c1.874 0 3.706.557 5.264 1.601a9.496 9.496 0 013.49 4.264 9.525 9.525 0 01-2.054 10.354 9.452 9.452 0 01-10.326 2.06 9.48 9.48 0 01-4.253-3.5 9.52 9.52 0 011.179-11.996 9.463 9.463 0 016.7-2.783z" fill="#FEFEFE"/><path d="M29.919 20.499c1.874 0 3.706.557 5.264 1.601a9.496 9.496 0 013.49 4.264 9.525 9.525 0 01-2.054 10.354 9.452 9.452 0 01-10.326 2.06 9.48 9.48 0 01-4.253-3.5 9.52 9.52 0 011.179-11.996 9.463 9.463 0 016.7-2.783z" stroke="#C76F6B" stroke-miterlimit="2.61"/><path d="M35.438 34.415a6.128 6.128 0 01-1.722.298h-.214a2.399 2.399 0 01-.292-.034l-.544-.063a18.456 18.456 0 01-3.257-.972c-.419-.164-.904-.378-1.472-.625-.57-.247-1.05-.495-1.53-.734v.989c.006.122.02.242.041.361.009.133.06.26.146.361.065.111.17.194.293.23.063 0 .146 0 .25.034.106.017.212.029.319.034l.543-.034v.365h-3.592v-.365h.991v-7.79a.84.84 0 00-.171-.528 1.502 1.502 0 00-.836-.147v-.344h1.998v.474l.79-.26c.23-.067.482-.134.795-.201.276-.06.556-.103.837-.13.291-.034.584-.05.878-.05h.652c.21 0 .418.033.631.066a4.694 4.694 0 012.731 1.233 3.174 3.174 0 011.07 2.369v.1a3.253 3.253 0 01-1.471 2.7 5.12 5.12 0 01-1.598.806 7.004 7.004 0 01-1.89.264h-.146a3.226 3.226 0 01-.44-.034l-.417-.05.062-.13 2.091.839 1.53.608a5.278 5.278 0 001.556.28c.177 0 .353-.017.527-.05.21-.033.418-.096.757-.18l.104.31zm-1.513-5.396a2.853 2.853 0 00-1.41-2.436 5.362 5.362 0 00-1.425-.675 5.951 5.951 0 00-1.673-.214 6.15 6.15 0 00-1.64.248 5.66 5.66 0 00-.735.28c-.217.12-.426.251-.628.394v5.216l.348-.26a5.699 5.699 0 002.203.894c.258.034.518.05.778.05a4.712 4.712 0 002.902-.922 3.1 3.1 0 001.28-2.575z" fill="#C76F6B"/><path d="M35.438 34.415a6.128 6.128 0 01-1.722.298h-.214a2.399 2.399 0 01-.292-.034l-.544-.063a18.456 18.456 0 01-3.257-.972c-.419-.164-.904-.378-1.472-.625-.57-.247-1.05-.495-1.53-.734v.989c.006.122.02.242.041.361.009.133.06.26.146.361.065.111.17.194.293.23.063 0 .146 0 .25.034.106.017.212.029.319.034l.543-.034v.365h-3.592v-.365h.991v-7.79a.84.84 0 00-.171-.528 1.502 1.502 0 00-.836-.147v-.344h1.998v.474l.79-.26c.23-.067.482-.134.795-.201.276-.06.556-.103.837-.13.291-.034.584-.05.878-.05h.652c.21 0 .418.033.631.066a4.694 4.694 0 012.731 1.233 3.174 3.174 0 011.07 2.369v.1a3.253 3.253 0 01-1.471 2.7 5.12 5.12 0 01-1.598.806 7.004 7.004 0 01-1.89.264h-.146a3.226 3.226 0 01-.44-.034l-.417-.05.062-.13 2.091.839 1.53.608a5.278 5.278 0 001.556.28c.177 0 .353-.017.527-.05.21-.033.418-.096.757-.18l.104.31zm-1.513-5.396a2.853 2.853 0 00-1.41-2.436 5.362 5.362 0 00-1.425-.675 5.951 5.951 0 00-1.673-.214 6.15 6.15 0 00-1.64.248 5.66 5.66 0 00-.735.28c-.217.12-.426.251-.628.394v5.216l.348-.26a5.699 5.699 0 002.203.894c.258.034.518.05.778.05a4.712 4.712 0 002.902-.922 3.1 3.1 0 001.28-2.575z" stroke="#C76F6B" stroke-width=".22" stroke-miterlimit="2.61"/><path d="M86.802 38.314c-.999.32-2.038.5-3.086.532h-.376a4.458 4.458 0 01-.527-.058l-.978-.122A32.885 32.885 0 0176 36.93c-.753-.297-1.622-.679-2.639-1.123-1.016-.445-1.881-.885-2.747-1.325l-.037 1.258v.503c.016.22.047.438.092.654.016.238.108.464.263.645a.95.95 0 00.527.42c.113.029.263.029.452.058.186.03.375.05.564.06l.978-.06v.646h-6.397v-.646h1.769V24.075c.01-.34-.097-.673-.302-.944-.225-.176-.715-.264-1.467-.264v-.62h3.575v.838c.418-.146.865-.293 1.392-.473a20.71 20.71 0 011.43-.353c.498-.11 1.003-.188 1.51-.234a14.129 14.129 0 011.543-.088 14.909 14.909 0 012.296.146 8.42 8.42 0 014.876 2.235 5.656 5.656 0 011.919 4.247v.177c0 1.916-.866 3.538-2.635 4.834a9.248 9.248 0 01-2.86 1.447 12.57 12.57 0 01-3.387.47h-.263a5.99 5.99 0 01-.79-.06l-.753-.088.113-.234 3.763 1.471 2.747 1.09c.898.31 1.837.48 2.785.504.316-.002.63-.032.941-.089.377-.058.79-.176 1.355-.327l.188.554zm-2.71-9.669c0-1.77-.836-3.216-2.508-4.365a9.356 9.356 0 00-2.551-1.22 10.596 10.596 0 00-3.011-.386 11.03 11.03 0 00-2.927.445c-.45.134-.89.301-1.317.499-.389.216-.766.453-1.13.709v9.358l.64-.47a10.17 10.17 0 002.635 1.258c.434.131.875.239 1.321.323.462.06.927.09 1.393.088a8.477 8.477 0 005.193-1.648 5.544 5.544 0 002.263-4.59z" fill="#334C61"/><path d="M86.802 38.314c-.999.32-2.038.5-3.086.532h-.376a4.458 4.458 0 01-.527-.058l-.978-.122A32.885 32.885 0 0176 36.93c-.753-.297-1.622-.679-2.639-1.123-1.016-.445-1.881-.885-2.747-1.325l-.037 1.258v.503c.016.22.047.438.092.654.016.238.108.464.263.645a.95.95 0 00.527.42c.113.029.263.029.452.058.186.03.375.05.564.06l.978-.06v.646h-6.397v-.646h1.769V24.075c.01-.34-.097-.673-.302-.944-.225-.176-.715-.264-1.467-.264v-.62h3.575v.838c.418-.146.865-.293 1.392-.473a20.71 20.71 0 011.43-.353c.498-.11 1.003-.188 1.51-.234a14.129 14.129 0 011.543-.088 14.909 14.909 0 012.296.146 8.42 8.42 0 014.876 2.235 5.656 5.656 0 011.919 4.247v.177c0 1.916-.866 3.538-2.635 4.834a9.248 9.248 0 01-2.86 1.447 12.57 12.57 0 01-3.387.47h-.263a5.99 5.99 0 01-.79-.06l-.753-.088.113-.234 3.763 1.471 2.747 1.09c.898.31 1.837.48 2.785.504.316-.002.63-.032.941-.089.377-.058.79-.176 1.355-.327l.188.554zm-2.71-9.669c0-1.77-.836-3.216-2.508-4.365a9.356 9.356 0 00-2.551-1.22 10.596 10.596 0 00-3.011-.386 11.03 11.03 0 00-2.927.445c-.45.134-.89.301-1.317.499-.389.216-.766.453-1.13.709v9.358l.64-.47a10.17 10.17 0 002.635 1.258c.434.131.875.239 1.321.323.462.06.927.09 1.393.088a8.477 8.477 0 005.193-1.648 5.544 5.544 0 002.263-4.59z" stroke="#51667A" stroke-width=".22" stroke-miterlimit="2.61"/><path d="M104.235 22.868h-1.731v10.641c.006.66-.032 1.32-.113 1.975a6.95 6.95 0 01-.376 1.388c-.49 1.06-1.581 1.736-3.237 2.033l-1.284.088a6.6 6.6 0 01-3.086-.679 4.016 4.016 0 01-.94-.738 3.404 3.404 0 01-.603-.973 7.297 7.297 0 01-.338-2.385v-9.85a2.42 2.42 0 00-.189-1.148c-.225-.235-.752-.352-1.58-.352v-.62h5.344v.62h-1.769v11.174c-.007.541.03 1.083.113 1.618.05.404.178.794.376 1.149.527.897 1.468 1.346 2.823 1.346a5.29 5.29 0 001.999-.323 2.74 2.74 0 001.254-1.036 3.42 3.42 0 00.418-1.258 9.469 9.469 0 00.151-1.916v-9.014c0-.797-.075-1.258-.264-1.476-.188-.218-.79-.264-1.806-.264v-.62h4.855l-.017.62z" fill="#334C61"/><path d="M104.235 22.868h-1.731v10.641c.006.66-.032 1.32-.113 1.975a6.95 6.95 0 01-.376 1.388c-.49 1.06-1.581 1.736-3.237 2.033l-1.284.088a6.6 6.6 0 01-3.086-.679 4.016 4.016 0 01-.94-.738 3.404 3.404 0 01-.603-.973 7.297 7.297 0 01-.338-2.385v-9.85a2.42 2.42 0 00-.189-1.148c-.225-.235-.752-.352-1.58-.352v-.62h5.344v.62h-1.769v11.174c-.007.541.03 1.083.113 1.618.05.404.178.794.376 1.149.527.897 1.468 1.346 2.823 1.346a5.29 5.29 0 001.999-.323 2.74 2.74 0 001.254-1.036 3.42 3.42 0 00.418-1.258 9.469 9.469 0 00.151-1.916v-9.014c0-.797-.075-1.258-.264-1.476-.188-.218-.79-.264-1.806-.264v-.62h4.855l-.017.62z" stroke="#51667A" stroke-width=".22" stroke-miterlimit="2.61"/><path d="M123.93 33.333a4.785 4.785 0 01-2.145 4.037c-1.468 1.09-3.5 1.623-6.101 1.623a9.865 9.865 0 01-5.269-1.33c-1.543-.942-2.296-2.18-2.296-3.685a3.866 3.866 0 011.618-3.153 6.753 6.753 0 014.366-1.383 5.008 5.008 0 012.902.838c.836.558 1.255 1.208 1.255 2.004a1.531 1.531 0 01-.49 1.208 2.36 2.36 0 01-1.672.528 3.51 3.51 0 01-.565-.088 20.41 20.41 0 01-.715-.176l.151-.47h.418a1.56 1.56 0 00.978-.268.836.836 0 00.381-.734 1.797 1.797 0 00-.916-1.459 3.525 3.525 0 00-2.141-.637c-1.394 0-2.485.355-3.274 1.065a2.99 2.99 0 00-1.054 2.327c0 1.258.64 2.298 1.957 3.182a8.721 8.721 0 004.968 1.33 7.623 7.623 0 004.294-1.195c1.318-.839 1.957-1.887 1.957-3.158a3.079 3.079 0 00-.338-1.5 4.269 4.269 0 00-1.054-1.183A10.39 10.39 0 00119 29.848c-.791-.352-1.619-.708-2.447-1.09a18.37 18.37 0 01-2.187-1.12 4.192 4.192 0 01-1.254-1.211 2.451 2.451 0 01-.452-1.384 2.622 2.622 0 011.255-2.209 5.565 5.565 0 013.316-.885c.564 0 .978 0 1.254.03.396.038.787.117 1.167.234V21.01h.753v6.364h-.753v-1.798a3.435 3.435 0 00-.602-2.185 1.982 1.982 0 00-1.673-.767 4.5 4.5 0 00-2.091.42 1.976 1.976 0 00-1.254 1.916c0 .419.376.884 1.091 1.412a16.643 16.643 0 003.241 1.678c1.092.473 1.882.838 2.371 1.09a7.416 7.416 0 011.618.943c.541.41.971.947 1.255 1.564.221.534.33 1.108.322 1.686z" fill="#334C61"/><path d="M123.93 33.333a4.785 4.785 0 01-2.145 4.037c-1.468 1.09-3.5 1.623-6.101 1.623a9.865 9.865 0 01-5.269-1.33c-1.543-.942-2.296-2.18-2.296-3.685a3.866 3.866 0 011.618-3.153 6.753 6.753 0 014.366-1.383 5.008 5.008 0 012.902.838c.836.558 1.255 1.208 1.255 2.004a1.531 1.531 0 01-.49 1.208 2.36 2.36 0 01-1.672.528 3.51 3.51 0 01-.565-.088 20.41 20.41 0 01-.715-.176l.151-.47h.418a1.56 1.56 0 00.978-.268.835.835 0 00.381-.734 1.797 1.797 0 00-.916-1.459 3.525 3.525 0 00-2.141-.637c-1.394 0-2.485.355-3.274 1.065a2.99 2.99 0 00-1.054 2.327c0 1.258.64 2.298 1.957 3.182a8.721 8.721 0 004.968 1.33 7.623 7.623 0 004.294-1.195c1.318-.839 1.957-1.887 1.957-3.158a3.079 3.079 0 00-.338-1.5 4.269 4.269 0 00-1.054-1.183A10.39 10.39 0 00119 29.848c-.791-.352-1.619-.708-2.447-1.09a18.37 18.37 0 01-2.187-1.12 4.192 4.192 0 01-1.254-1.211 2.451 2.451 0 01-.452-1.384 2.622 2.622 0 011.255-2.209 5.565 5.565 0 013.316-.885c.564 0 .978 0 1.254.03.396.038.787.117 1.167.234V21.01h.753v6.364h-.753v-1.798a3.435 3.435 0 00-.602-2.185 1.982 1.982 0 00-1.673-.767 4.5 4.5 0 00-2.091.42 1.976 1.976 0 00-1.254 1.916c0 .419.376.884 1.091 1.412a16.643 16.643 0 003.241 1.678c1.092.473 1.882.838 2.371 1.09a7.416 7.416 0 011.618.943c.541.41.971.947 1.255 1.564.221.534.33 1.108.322 1.686z" stroke="#51667A" stroke-width=".22" stroke-miterlimit="2.61"/><path d="M142.072 38.667h-4.855v-.646h1.768l-3.763-9.849h-2.664l-2.509 7.845-.113.528v.206a.814.814 0 01-.037.268.816.816 0 00.564.839c.189.029.49.088.866.117.376.03.866.059 1.43.059v.645h-5.595v-.658h1.167l5.795-16.922 6.026 15.329.418.914c.226.42.753.68 1.506.68l-.004.645zm-7.038-11.111l-1.255-3.128-.978 3.128h2.233z" fill="#334C61"/><path d="M142.072 38.667h-4.855v-.646h1.768l-3.763-9.849h-2.664l-2.509 7.845-.113.528v.206a.814.814 0 01-.037.268.816.816 0 00.564.839c.189.029.49.088.866.117.376.03.866.059 1.43.059v.645h-5.595v-.658h1.167l5.795-16.922 6.026 15.329.418.914c.226.42.753.68 1.506.68l-.004.645zm-7.038-11.111l-1.255-3.128-.978 3.128h2.233z" stroke="#51667A" stroke-width=".22" stroke-miterlimit="2.61"/><path d="M165.905 38.314c-.999.32-2.038.5-3.086.532h-.376a4.445 4.445 0 01-.527-.058l-.979-.122a32.876 32.876 0 01-5.833-1.736c-.753-.297-1.619-.679-2.639-1.123-1.02-.445-1.882-.885-2.747-1.325l-.038 1.258v.503c.012.218.037.435.075.65.017.237.109.464.264.645a.95.95 0 00.527.42c.113.029.263.029.451.058.187.03.376.05.565.059l.978-.059v.646h-6.397v-.642h1.768V24.075a1.49 1.49 0 00-.301-.944c-.225-.176-.715-.264-1.467-.264v-.62h3.558v.838c.418-.146.866-.293 1.393-.473.418-.118.865-.235 1.43-.353a12.42 12.42 0 011.509-.234 14.147 14.147 0 011.543-.088 14.914 14.914 0 012.296.146 8.419 8.419 0 014.909 2.235 5.652 5.652 0 011.92 4.247v.177c0 1.916-.866 3.538-2.635 4.834a9.244 9.244 0 01-2.86 1.447c-1.103.31-2.242.468-3.387.47h-.264a5.991 5.991 0 01-.79-.06l-.753-.088.113-.234 3.764 1.471 2.747 1.09c.897.31 1.837.48 2.785.504a5.43 5.43 0 00.941-.089c.376-.058.79-.176 1.355-.327l.188.554zm-2.71-9.669c0-1.77-.836-3.216-2.509-4.365a9.347 9.347 0 00-2.571-1.22 10.597 10.597 0 00-3.011-.386c-.991.017-1.976.166-2.927.445a9.792 9.792 0 00-1.318.499c-.388.216-.765.453-1.129.709v9.358l.64-.47c.815.545 1.703.969 2.639 1.258.425.132.856.24 1.292.327.462.06.927.09 1.392.088a8.478 8.478 0 005.194-1.648 5.547 5.547 0 002.308-4.595z" fill="#334C61"/><path d="M165.905 38.314c-.999.32-2.038.5-3.086.532h-.376a4.445 4.445 0 01-.527-.058l-.979-.122a32.876 32.876 0 01-5.833-1.736c-.753-.297-1.619-.679-2.639-1.123-1.02-.445-1.882-.885-2.747-1.325l-.038 1.258v.503c.012.218.037.435.075.65.017.237.109.464.264.645a.95.95 0 00.527.42c.113.029.263.029.451.058.187.03.376.05.565.059l.978-.059v.646h-6.397v-.642h1.768V24.075a1.49 1.49 0 00-.301-.944c-.225-.176-.715-.264-1.467-.264v-.62h3.558v.838c.418-.146.866-.293 1.393-.473.418-.118.865-.235 1.43-.353a12.42 12.42 0 011.509-.234 14.147 14.147 0 011.543-.088 14.914 14.914 0 012.296.146 8.419 8.419 0 014.909 2.235 5.652 5.652 0 011.92 4.247v.177c0 1.916-.866 3.538-2.635 4.834a9.244 9.244 0 01-2.86 1.447c-1.103.31-2.242.468-3.387.47h-.264a5.991 5.991 0 01-.79-.06l-.753-.088.113-.234 3.764 1.471 2.747 1.09c.897.31 1.837.48 2.785.504a5.43 5.43 0 00.941-.089c.376-.058.79-.176 1.355-.327l.188.554zm-2.71-9.669c0-1.77-.836-3.216-2.509-4.365a9.347 9.347 0 00-2.571-1.22 10.597 10.597 0 00-3.011-.386c-.991.017-1.976.166-2.927.445a9.792 9.792 0 00-1.318.499c-.388.216-.765.453-1.129.709v9.358l.64-.47c.815.545 1.703.969 2.639 1.258.425.132.856.24 1.292.327.462.06.927.09 1.392.088a8.478 8.478 0 005.194-1.648 5.547 5.547 0 002.308-4.595z" stroke="#51667A" stroke-width=".22" stroke-miterlimit="2.61"/><path d="M181.87 27.731h-.752v-2.516c0-.972-.264-1.651-.753-1.945-.489-.293-1.694-.47-3.538-.47l-.037 12.969-.038.562c0 .767.151 1.258.452 1.442.301.185 1.129.24 2.509.24v.645h-7.368v-.638h2.596V22.81h-1.354a8.21 8.21 0 00-.941.03 4.2 4.2 0 00-.64.058 1.747 1.747 0 00-.489.147 1.977 1.977 0 00-.418.322 4.04 4.04 0 00-.448.952c-.037.176-.037.386-.075.65a5.34 5.34 0 00-.075.68l.113 2.096h-.716v-6.709h.711v1.187h10.505V21.04h.752l.004 6.692z" fill="#334C61"/><path d="M181.87 27.731h-.752v-2.516c0-.972-.264-1.651-.753-1.945-.489-.293-1.694-.47-3.538-.47l-.037 12.969-.038.562c0 .767.151 1.258.452 1.442.301.185 1.129.24 2.509.24v.645h-7.368v-.638h2.596V22.81h-1.354a8.21 8.21 0 00-.941.03 4.2 4.2 0 00-.64.058 1.747 1.747 0 00-.489.147 1.977 1.977 0 00-.418.322 4.04 4.04 0 00-.448.952c-.037.176-.037.386-.075.65a5.34 5.34 0 00-.075.68l.113 2.096h-.716v-6.709h.711v1.187h10.505V21.04h.752l.004 6.692z" stroke="#51667A" stroke-width=".22" stroke-miterlimit="2.61"/><path d="M69.62 51.241c-.427.209-.9.31-1.375.294a2.204 2.204 0 01-1.702-.692 2.52 2.52 0 01-.64-1.803 2.666 2.666 0 01.72-1.933 2.41 2.41 0 011.823-.742c.401-.012.801.057 1.175.205v.62a2.423 2.423 0 00-1.184-.297 1.803 1.803 0 00-1.388.579 2.155 2.155 0 00-.535 1.534c-.028.531.15 1.053.497 1.455a1.695 1.695 0 001.314.545c.454.008.902-.108 1.296-.335v.57zm2.834.293a2.152 2.152 0 01-1.693-.709 2.58 2.58 0 01-.64-1.82c-.037-.7.195-1.387.648-1.92a2.283 2.283 0 011.773-.72 2.11 2.11 0 011.673.7c.441.5.67 1.152.635 1.819a2.743 2.743 0 01-.648 1.933 2.22 2.22 0 01-1.748.717zm.046-4.642a1.598 1.598 0 00-1.254.57 2.19 2.19 0 00-.493 1.493 2.226 2.226 0 00.476 1.485 1.564 1.564 0 001.255.566 1.67 1.67 0 001.296-.537 2.21 2.21 0 00.472-1.505 2.298 2.298 0 00-.455-1.53 1.575 1.575 0 00-1.297-.542zm3 4.348v-.637c.385.28.85.427 1.325.42a1.29 1.29 0 00.837-.265.859.859 0 00.322-.7c0-.646-.419-.964-1.297-.964h-.523v-.457h.477c.305.02.608-.066.858-.243a.802.802 0 00.305-.68.773.773 0 00-.251-.6.99.99 0 00-.699-.226 2.187 2.187 0 00-1.216.39v-.591a2.565 2.565 0 011.254-.306 1.72 1.72 0 011.12.335 1.11 1.11 0 01.419.893 1.164 1.164 0 01-.95 1.229c.318.018.617.155.837.386.202.221.31.513.301.813a1.351 1.351 0 01-.485 1.094 2.029 2.029 0 01-1.334.42 2.44 2.44 0 01-1.3-.31zm8.208 1.548h-.53v-1.342H79.6v1.342h-.54v-1.87h.39a10.8 10.8 0 00.836-2.143 9.631 9.631 0 00.388-2.327h2.35v4.47h.67l.012 1.87zm-1.254-1.87v-3.959h-1.255a11.639 11.639 0 01-1.112 3.942l2.367.017zm6.004.528h-.643l-.527-1.396H85.17l-.498 1.396h-.648l1.907-4.998h.627l1.898 4.998zM87.09 49.52l-.782-2.142a2.847 2.847 0 01-.075-.336 2.304 2.304 0 01-.075.336l-.778 2.13 1.71.012zm6.118 1.925h-.586v-3.61c-.004-.23.009-.46.038-.688-.044.11-.097.215-.159.315l-2.597 3.983h-.71v-4.998h.585v3.522a5.32 5.32 0 01-.03.734c.058-.116.122-.228.193-.336l2.509-3.92h.748l.009 4.998zm-.736-6.516a1.1 1.1 0 01-.418.772c-.237.19-.533.29-.837.285a1.277 1.277 0 01-.861-.285 1.053 1.053 0 01-.364-.772h.56a.675.675 0 00.786.643.672.672 0 00.34-.165.793.793 0 00.23-.478h.564zm7.397 6.29c-.428.208-.9.309-1.376.293a2.203 2.203 0 01-1.702-.692 2.52 2.52 0 01-.614-1.765 2.665 2.665 0 01.719-1.933 2.412 2.412 0 011.823-.742c.402-.012.802.058 1.175.205v.62a2.43 2.43 0 00-1.183-.297 1.8 1.8 0 00-1.388.579 2.154 2.154 0 00-.536 1.534c-.028.532.15 1.053.498 1.455a1.693 1.693 0 001.313.545c.454.008.902-.108 1.296-.335l-.025.532zm1.016.205v-4.977h1.418c.368-.02.731.092 1.024.314a1.01 1.01 0 01.381.839c.009.264-.072.523-.23.734a1.186 1.186 0 01-.632.448c.308.022.597.156.812.378.202.231.308.531.297.838a1.302 1.302 0 01-.456 1.036 1.722 1.722 0 01-1.159.42l-1.455-.03zm.586-4.47v1.615h.598c.27.013.537-.067.757-.227a.845.845 0 00.267-.658c0-.486-.313-.73-.953-.73h-.669zm0 2.143v1.799h.79c.287.016.57-.07.799-.244a.842.842 0 00.284-.67c0-.592-.418-.885-1.204-.885h-.669zm5.507 2.415a2.164 2.164 0 01-1.698-.709 2.586 2.586 0 01-.64-1.82c-.037-.7.195-1.387.648-1.92a2.287 2.287 0 011.773-.72 2.132 2.132 0 011.673.7c.438.5.665 1.153.632 1.82a2.75 2.75 0 01-.644 1.953 2.218 2.218 0 01-1.74.717l-.004-.021zm.042-4.642a1.603 1.603 0 00-1.276.57 2.52 2.52 0 000 2.978 1.555 1.555 0 001.255.566 1.67 1.67 0 001.296-.537c.334-.428.5-.963.468-1.505a2.296 2.296 0 00-.455-1.53 1.564 1.564 0 00-1.284-.52l-.004-.022zm7.334 4.554h-.581v-3.61c-.005-.23.006-.46.033-.688h-.02c-.041.11-.093.216-.155.315l-2.572 3.983h-.719v-4.977h.581v3.522c.008.245 0 .49-.025.734.058-.116.122-.228.192-.336l2.509-3.92h.749l.008 4.977zm-.732-6.516a1.115 1.115 0 01-.418.772 1.43 1.43 0 01-1.714 0 1.06 1.06 0 01-.364-.772h.565a.611.611 0 00.407.621c.084.03.173.041.262.033a.63.63 0 00.455-.176.79.79 0 00.226-.478h.581zm9.087 6.516h-.581V48.07c0-.264 0-.587.046-.973a3.179 3.179 0 01-.151.486l-1.702 3.84h-.309l-1.673-3.79a2.884 2.884 0 01-.15-.515c.021.201.029.528.029.981v3.354h-.59v-5.006h.77l1.53 3.484c.092.194.169.394.23.6.101-.268.184-.478.243-.612l1.56-3.472h.731l.017 4.977zm5.327 0h-.581v-3.61a4.79 4.79 0 01.034-.688h-.021c-.041.11-.093.216-.155.315l-2.572 3.983h-.715v-4.977h.586v3.522c.007.245-.003.49-.03.734a3.34 3.34 0 01.193-.336l2.509-3.92h.744l.008 4.977zm1.903-1.891v1.89h-.581v-4.976h1.367c.452-.032.899.105 1.255.386a1.38 1.38 0 01.443 1.107 1.514 1.514 0 01-.493 1.165 1.86 1.86 0 01-1.318.449l-.673-.021zm0-2.579v2.05h.615c.33.023.657-.075.92-.276a.985.985 0 00.318-.78c0-.663-.389-.994-1.167-.994h-.686zm5.357 4.47v-4.977h1.442a1.58 1.58 0 011.029.314 1.014 1.014 0 01.376.839c.01.264-.071.523-.23.734a1.165 1.165 0 01-.631.448c.307.022.596.156.811.378.204.23.311.53.297.838a1.287 1.287 0 01-.456 1.036 1.71 1.71 0 01-1.158.42l-1.48-.03zm.606-4.465v1.614h.598c.271.013.538-.067.757-.227a.847.847 0 00.268-.658c0-.486-.314-.73-.954-.73h-.669zm0 2.142V50.9h.79c.287.017.57-.07.799-.243a.833.833 0 00.284-.671c0-.591-.397-.885-1.204-.885h-.669zm7.28 2.327h-.589v-4.436h-2.605v4.453h-.582v-4.998h3.764l.012 4.981zm3.939 0h-2.642v-4.981h2.509v.511h-1.945v1.678h1.802v.528h-1.802v1.748h2.057l.021.516zm4.316 0h-.586v-2.247c-.453.256-.96.4-1.48.419a1.421 1.421 0 01-1.012-.34 1.256 1.256 0 01-.355-.951V46.43h.585v1.85c0 .536.284.809.836.809a3.303 3.303 0 001.41-.386V46.43h.585l.017 4.998zm5.214 0h-.677l-.527-1.396h-2.116l-.498 1.396h-.623l1.907-4.998h.602l1.932 4.998zm-1.367-1.924l-.799-2.126a2.751 2.751 0 01-.079-.336c-.015.114-.04.227-.076.336l-.777 2.13 1.731-.004zm4.524-2.527h-1.438v4.47h-.586v-4.47h-1.438v-.529h3.462v.529zm3.861 4.469h-.586V46.96h-1.38c-.163 1.258-.284 2.151-.376 2.67a6.77 6.77 0 01-.284 1.15 1.13 1.13 0 01-.385.549.945.945 0 01-.586.18 1.357 1.357 0 01-.476-.071v-.55c.121.066.256.1.393.101a.534.534 0 00.418-.26 4.05 4.05 0 00.385-1.341 46.04 46.04 0 00.418-2.935h2.454l.005 4.993zm3.96 0h-2.643V46.45h2.53v.511h-1.924v1.677h1.802v.529h-1.802v1.748h2.057l-.02.532zm4.708 0h-.585V49.17h-2.576v2.276h-.586V46.45h.586v2.188h2.576v-2.193h.585v5.002zm5.327 0h-.581v-3.61a4.77 4.77 0 01.034-.687h-.021a1.53 1.53 0 01-.159.314l-2.563 3.983h-.72V46.45h.582v3.522c.007.244-.001.49-.026.733a3.34 3.34 0 01.193-.335l2.509-3.92h.748l.004 4.997zm5.336 0h-.585v-3.61c-.004-.23.008-.46.037-.687h-.021a1.49 1.49 0 01-.158.314l-2.568 3.983h-.732V46.45h.582v3.522c.009.245-.001.49-.03.733a3.34 3.34 0 01.193-.335l2.509-3.92h.748l.025 4.997zm-.732-6.515a1.115 1.115 0 01-.418.771 1.43 1.43 0 01-1.714 0 1.059 1.059 0 01-.364-.771h.565a.611.611 0 00.407.62c.084.03.173.042.262.034a.636.636 0 00.455-.176.79.79 0 00.226-.478h.581z" fill="#334C61"/></g><defs><clipPath id="ia"><path fill="#fff" d="M0 0h183v60H0z"/></clipPath></defs></svg><svg fill="none" viewBox="0 0 15 13" id="mail" xmlns="http://www.w3.org/2000/svg"><path d="M2.444.333c-.648 0-1.27.253-1.728.703A2.378 2.378 0 000 2.733v.241l7.333 3.877 7.334-3.876v-.242c0-.637-.258-1.247-.716-1.697a2.468 2.468 0 00-1.729-.703H2.444zm12.223 4.004L7.623 8.061a.62.62 0 01-.58 0L0 4.337v5.596c0 .636.258 1.247.716 1.697.458.45 1.08.703 1.728.703h9.778c.649 0 1.27-.253 1.729-.703.458-.45.716-1.06.716-1.697V4.337z" fill="#66B8B1"/></svg><svg fill="none" viewBox="0 0 15 13" id="mail-blue" xmlns="http://www.w3.org/2000/svg"><path d="M2.444.333c-.648 0-1.27.253-1.728.703A2.378 2.378 0 000 2.733v.241l7.333 3.877 7.334-3.876v-.242c0-.637-.258-1.247-.716-1.697a2.468 2.468 0 00-1.729-.703H2.444zm12.223 4.004L7.623 8.061a.62.62 0 01-.58 0L0 4.337v5.596c0 .636.258 1.247.716 1.697.458.45 1.08.703 1.728.703h9.778c.649 0 1.27-.253 1.729-.703.458-.45.716-1.06.716-1.697V4.337z" fill="#66B8B1"/></svg><svg fill="none" viewBox="0 0 39 29" id="menu-btn" xmlns="http://www.w3.org/2000/svg"><path fill="#fff" d="M6 11h25v1H6zm0 6h25v1H6z"/></svg><svg fill="none" viewBox="0 0 11 11" id="phone" xmlns="http://www.w3.org/2000/svg"><path d="M10.132 7.243a6.289 6.289 0 01-1.973-.314c-.308-.106-.657-.024-.86.182l-1.248.943c-1.433-.765-2.35-1.682-3.104-3.104l.917-1.22a.876.876 0 00.215-.885A6.286 6.286 0 013.763.868.87.87 0 002.895 0H.868A.87.87 0 000 .868C0 6.455 4.545 11 10.132 11a.87.87 0 00.868-.868v-2.02a.87.87 0 00-.868-.87z" fill="#66B8B1"/></svg><svg fill="none" viewBox="0 0 15 15" id="plane" xmlns="http://www.w3.org/2000/svg"><g clip-path="url(#na)"><path d="M14.925.99L8.107 14.628c-.12.249-.323.373-.607.373a.898.898 0 01-.16-.021.671.671 0 01-.522-.66V8.181H.68a.671.671 0 01-.66-.522.69.69 0 01.043-.448.644.644 0 01.309-.32L14.009.076A.641.641 0 0114.318 0c.192 0 .351.067.48.202a.64.64 0 01.196.368.647.647 0 01-.069.42z" fill="#BDBDBD"/></g><defs><clipPath id="na"><path fill="#fff" d="M0 0h15v15H0z"/></clipPath></defs></svg><svg fill="none" viewBox="0 0 23 23" id="search" xmlns="http://www.w3.org/2000/svg"><path d="M22.719 21.364l-6.54-6.54a9.06 9.06 0 002.03-5.72C18.208 4.084 14.123 0 9.103 0 4.084 0 0 4.084 0 9.104s4.084 9.104 9.104 9.104a9.06 9.06 0 005.72-2.03l6.54 6.54a.956.956 0 001.355 0 .957.957 0 000-1.354zM9.104 16.29a7.195 7.195 0 01-7.187-7.187 7.195 7.195 0 017.187-7.187 7.195 7.195 0 017.188 7.187 7.195 7.195 0 01-7.188 7.188z" fill="#fff"/></svg><svg fill="none" viewBox="0 0 25 25" id="search-btn" xmlns="http://www.w3.org/2000/svg"><path d="M20.221 20.489l-4.742-4.742a6.568 6.568 0 001.472-4.146A6.608 6.608 0 0010.35 5c-3.64 0-6.6 2.961-6.6 6.6 0 3.64 2.961 6.6 6.6 6.6 1.57 0 3.012-.552 4.147-1.47l4.742 4.741a.693.693 0 00.982 0 .694.694 0 000-.982zm-9.87-3.678a5.216 5.216 0 01-5.211-5.21 5.216 5.216 0 015.21-5.211 5.216 5.216 0 015.211 5.21 5.216 5.216 0 01-5.21 5.211z" fill="#51667A"/></svg><svg fill="none" viewBox="0 0 30 30" id="setting" xmlns="http://www.w3.org/2000/svg"><path d="M17.348 10.938H5a.937.937 0 110-1.876h12.348a2.814 2.814 0 015.305 0H25a.937.937 0 110 1.876h-2.348a2.814 2.814 0 01-5.305 0zm7.652 10a.937.937 0 100-1.875H12.652a2.814 2.814 0 00-5.304 0H5a.937.937 0 100 1.875h2.348a2.814 2.814 0 005.304 0H25z" fill="#858585"/></svg><svg fill="none" viewBox="0 0 18 20" id="sort" xmlns="http://www.w3.org/2000/svg"><path d="M10.837 4.1a.937.937 0 001.326 0l.9-.9v12.738a.937.937 0 101.874 0V3.2l.9.9a.937.937 0 101.326-1.326l-2.5-2.5a.937.937 0 00-1.326 0l-2.5 2.5a.938.938 0 000 1.325zM4.938 16.174l.9-.9A.938.938 0 017.162 16.6l-2.5 2.5a.938.938 0 01-1.326 0l-2.5-2.5a.937.937 0 111.326-1.325l.9.9V3.436a.937.937 0 111.874 0v12.737z" fill="#858585"/></svg><svg fill="none" viewBox="0 0 16 13" id="tg" xmlns="http://www.w3.org/2000/svg"><path d="M1.38 5.562L14.978.396c.631-.224 1.182.152.978 1.092h.001l-2.315 10.747c-.172.762-.631.947-1.274.588l-3.526-2.56-1.7 1.614c-.189.185-.347.342-.712.342l.25-3.536 6.535-5.817c.285-.246-.063-.385-.438-.14L4.7 7.736l-3.48-1.07c-.757-.236-.773-.746.16-1.104z" fill="#66B8B1"/></svg><svg fill="none" viewBox="0 0 16 13" id="tg-blue" xmlns="http://www.w3.org/2000/svg"><path d="M1.382 5.562L14.98.396c.631-.224 1.183.152.978 1.092h.001l-2.315 10.747c-.172.762-.631.947-1.274.588l-3.526-2.56-1.7 1.614c-.189.185-.347.342-.712.342l.25-3.536 6.535-5.817c.285-.246-.063-.385-.438-.14l-8.076 5.01-3.48-1.07C.465 6.43.45 5.92 1.381 5.562z" fill="#66B8B1"/></svg><svg fill="none" viewBox="0 0 15 14" id="wa-blue" xmlns="http://www.w3.org/2000/svg"><path d="M7.671 0C3.81 0 .67 3.139.668 6.997c0 1.322.37 2.61 1.07 3.724l.167.265-.708 2.582 2.65-.695.255.152A6.988 6.988 0 007.665 14h.003c3.858 0 6.998-3.139 7-6.997 0-1.87-.727-3.628-2.048-4.95A6.954 6.954 0 007.67 0zm4.117 10.005c-.175.492-1.016.94-1.42 1a2.888 2.888 0 01-1.325-.083 12.148 12.148 0 01-1.2-.443c-2.111-.91-3.49-3.036-3.595-3.176-.105-.14-.86-1.14-.86-2.176 0-1.036.544-1.545.737-1.755a.774.774 0 01.561-.263c.14 0 .281.001.404.007.129.006.302-.05.473.361.176.421.596 1.457.649 1.562.053.105.088.228.018.369-.07.14-.304.443-.526.719-.094.116-.216.219-.093.43.123.21.545.899 1.17 1.457.805.716 1.483.938 1.693 1.044.21.105.333.087.456-.053.123-.14.526-.614.666-.825.14-.21.28-.175.474-.105.193.07 1.227.58 1.438.684.21.106.35.158.403.246.053.088.053.509-.123 1z" fill="#66B8B1"/></svg><svg fill="none" viewBox="0 0 15 14" id="whatsapp" xmlns="http://www.w3.org/2000/svg"><path d="M7.669 0C3.808 0 .668 3.139.666 6.997c0 1.322.37 2.61 1.07 3.724l.167.265-.708 2.582 2.65-.695.256.152A6.988 6.988 0 007.663 14h.003c3.858 0 6.998-3.139 7-6.997 0-1.87-.727-3.628-2.048-4.95A6.954 6.954 0 007.669 0zm4.117 10.005c-.175.492-1.016.94-1.42 1a2.888 2.888 0 01-1.325-.083 12.149 12.149 0 01-1.2-.443C5.73 9.57 4.35 7.443 4.246 7.303c-.105-.14-.86-1.14-.86-2.176 0-1.036.544-1.545.737-1.755a.774.774 0 01.562-.263c.14 0 .28.001.403.007.129.006.303-.05.473.361.176.421.596 1.457.65 1.562.052.105.087.228.017.369-.07.14-.304.443-.526.719-.094.116-.216.219-.093.43.123.21.545.899 1.17 1.457.805.716 1.483.938 1.693 1.044.21.105.333.087.456-.053.123-.14.526-.614.666-.825.14-.21.281-.175.474-.105.193.07 1.227.58 1.438.684.21.106.35.158.403.246.053.088.053.509-.123 1z" fill="#66B8B1"/></svg></svg>