<svg width="22" height="22" viewBox="0 0 22 22" fill="none" xmlns="http://www.w3.org/2000/svg">
<path opacity="0.5" d="M22 11C22 17.0751 17.0751 22 11 22C4.92487 22 0 17.0751 0 11C0 4.92487 4.92487 0 11 0C17.0751 0 22 4.92487 22 11Z" fill="#D24E4E" fill-opacity="0.2"/>
<path d="M7.66669 7.66669C7.98887 7.3445 8.51123 7.3445 8.83341 7.66669L11.0001 9.83333L13.1667 7.66671C13.4889 7.34453 14.0112 7.34453 14.3334 7.66671C14.6556 7.98889 14.6556 8.51125 14.3334 8.83343L12.1668 11.0001L14.3334 13.1667C14.6556 13.4888 14.6556 14.0112 14.3334 14.3334C14.0112 14.6556 13.4888 14.6556 13.1667 14.3334L11.0001 12.1668L8.83344 14.3334C8.51125 14.6556 7.98889 14.6556 7.66671 14.3334C7.34453 14.0112 7.34453 13.4889 7.66671 13.1667L9.83333 11.0001L7.66669 8.83341C7.3445 8.51123 7.3445 7.98887 7.66669 7.66669Z" fill="#D24E4E"/>
</svg>
