<svg width="22" height="22" viewBox="0 0 22 22" fill="none" xmlns="http://www.w3.org/2000/svg">
<path opacity="0.08" d="M22 11C22 17.0751 17.0751 22 11 22C4.92487 22 0 17.0751 0 11C0 4.92487 4.92487 0 11 0C17.0751 0 22 4.92487 22 11Z" fill="black" fill-opacity="0.9"/>
<path d="M10.9984 17.3252C11.4541 17.3252 11.8234 16.9559 11.8234 16.5002V9.90024C11.8234 9.44461 11.4541 9.07524 10.9984 9.07524C10.5428 9.07524 10.1734 9.44461 10.1734 9.90024V16.5002C10.1734 16.9559 10.5428 17.3252 10.9984 17.3252Z" fill="black" fill-opacity="0.2"/>
<path d="M10.9984 5.50024C11.606 5.50024 12.0984 5.99273 12.0984 6.60024C12.0984 7.20776 11.606 7.70024 10.9984 7.70024C10.3909 7.70024 9.89844 7.20776 9.89844 6.60024C9.89844 5.99273 10.3909 5.50024 10.9984 5.50024Z" fill="black" fill-opacity="0.2"/>
</svg>
