<svg width="434" height="429" viewBox="0 0 434 429" fill="none" xmlns="http://www.w3.org/2000/svg">
<path d="M178.177 4.59424L210.469 24.7064C211.162 25.1328 211.828 25.5913 212.488 26.0739L180.205 5.96203C179.537 5.47915 178.862 5.0207 178.177 4.59424Z" fill="url(#paint0_radial_669_17062)"/>
<path d="M178.177 4.59424L210.469 24.7064C211.162 25.1328 211.828 25.5913 212.488 26.0739L180.205 5.96203C179.552 5.47915 178.877 5.0207 178.193 4.59424" fill="url(#paint1_radial_669_17062)"/>
<path d="M180.188 5.96191L212.488 26.0336L222.978 33.7728L190.687 13.7009L180.188 5.96191Z" fill="url(#paint2_radial_669_17062)"/>
<path d="M47.1359 311.772L14.8425 291.659C19.7468 294.696 25.4064 296.29 31.1747 296.261C32.1964 296.264 33.2204 296.217 34.2399 296.115L66.54 316.187C65.5182 316.287 64.4921 316.336 63.4659 316.332C57.702 316.374 52.0425 314.793 47.1359 311.772Z" fill="url(#paint3_radial_669_17062)"/>
<path d="M34.2399 296.157L66.54 316.227C65.5182 316.327 64.4921 316.376 63.4659 316.372C57.6975 316.401 52.038 314.806 47.1359 311.772L14.8425 291.659C19.7468 294.696 25.4064 296.29 31.1747 296.261C32.1964 296.264 33.2204 296.217 34.2399 296.115" fill="url(#paint4_radial_669_17062)"/>
<path d="M236.865 12.4697L269.156 32.5819C271.597 34.0976 273.869 35.8665 275.937 37.8593L243.637 17.7472C241.572 15.7544 239.302 13.9854 236.865 12.4697Z" fill="url(#paint5_radial_669_17062)"/>
<path d="M236.865 12.4697L269.156 32.5819C270.202 33.2336 271.224 33.9334 272.206 34.6735L239.906 14.5614C238.924 13.8213 237.911 13.1241 236.865 12.4697Z" fill="url(#paint6_radial_669_17062)"/>
<path d="M239.906 14.5622L272.206 34.6341C273.234 35.4171 274.225 36.2431 275.173 37.1118L242.873 16.9997C241.925 16.131 240.934 15.3049 239.906 14.522" fill="url(#paint7_radial_669_17062)"/>
<path d="M242.873 17.04L275.173 37.1522L275.977 37.9003L243.677 17.7881L242.873 17.04Z" fill="url(#paint8_radial_669_17062)"/>
<path d="M130.889 390.118L98.598 370.063C105.419 374.301 112.542 378.033 119.908 381.229L152.208 401.301C144.84 398.096 137.715 394.36 130.889 390.118Z" fill="url(#paint9_radial_669_17062)"/>
<path d="M119.908 381.213L152.208 401.286C144.84 398.085 137.715 394.354 130.889 390.118L98.598 370.063C105.419 374.301 112.542 378.033 119.908 381.229" fill="url(#paint10_radial_669_17062)"/>
<path d="M148.219 390.544L180.51 410.616L151.477 403.86L119.184 383.787L148.219 390.544Z" fill="url(#paint11_radial_669_17062)"/>
<path d="M155.386 392.221L187.687 412.291L180.51 410.619L148.219 390.546L155.386 392.221Z" fill="url(#paint12_radial_669_17062)"/>
<path d="M303.533 39.8472L335.824 59.9593C347.376 67.1445 357.998 75.7291 367.449 85.5177C379.834 98.3698 390.129 113.083 397.963 129.121L365.663 109.009C357.836 92.9671 347.538 78.2537 335.149 65.4056C325.702 55.6172 315.083 47.0326 303.533 39.8472Z" fill="url(#paint13_radial_669_17062)"/>
<path d="M303.533 39.8472L335.824 59.9593C340.089 62.6034 344.225 65.4431 348.238 68.4788L315.938 48.3746C311.931 45.3336 307.795 42.4912 303.533 39.8472Z" fill="url(#paint14_radial_669_17062)"/>
<path d="M315.938 48.3744L348.239 68.4381C352.405 71.6024 356.428 74.9652 360.304 78.5264L328.004 58.4143C324.128 54.8531 320.105 51.4929 315.938 48.334" fill="url(#paint15_radial_669_17062)"/>
<path d="M328.021 58.4551L360.321 78.5672C362.76 80.8037 365.137 83.1206 367.449 85.5179C369.057 87.1913 370.643 88.9021 372.202 90.6506L339.902 70.5384C338.359 68.7955 336.773 67.0845 335.149 65.4058C332.837 63.0085 330.46 60.6916 328.021 58.4551Z" fill="url(#paint16_radial_669_17062)"/>
<path d="M339.902 70.5375L372.202 90.6097C376.469 95.4114 380.458 100.453 384.15 105.71L351.856 85.5979C348.163 80.3408 344.171 75.299 339.902 70.4976" fill="url(#paint17_radial_669_17062)"/>
<path d="M351.857 85.6382L384.15 105.75C388.87 112.469 393.103 119.515 396.819 126.836L364.528 106.724C360.812 99.4029 356.577 92.3565 351.857 85.6382Z" fill="url(#paint18_radial_669_17062)"/>
<path d="M364.528 106.724L396.82 126.836C397.206 127.592 397.584 128.356 397.963 129.12L365.663 109.008C365.292 108.244 364.906 107.48 364.528 106.724Z" fill="url(#paint19_radial_669_17062)"/>
<path d="M196.866 420.12L164.573 400.007C171.063 404.021 178.551 406.129 186.183 406.089C196.906 405.989 207.268 402.184 215.506 395.316L247.782 415.429C239.546 422.297 229.189 426.102 218.465 426.202C210.838 426.239 203.352 424.132 196.866 420.12Z" fill="url(#paint20_radial_669_17062)"/>
<path d="M215.506 395.355L247.782 415.428C246.245 416.694 244.632 417.865 242.955 418.935L210.646 398.865C212.321 397.79 213.934 396.617 215.473 395.355" fill="url(#paint21_radial_669_17062)"/>
<path d="M210.647 398.865L242.956 418.935C235.655 423.622 227.172 426.134 218.498 426.176C210.864 426.216 203.374 424.108 196.882 420.095L164.589 399.982C171.079 403.996 178.569 406.103 186.198 406.063C194.874 406.021 203.359 403.509 210.662 398.825" fill="url(#paint22_radial_669_17062)"/>
<path d="M394.23 162.483L426.53 182.556L416.908 196.714L384.608 176.643L394.23 162.483Z" fill="url(#paint23_radial_669_17062)"/>
<path d="M386.025 113.353L418.331 133.424C418.758 133.69 419.138 133.964 419.595 134.229C423.205 136.759 426.243 140.016 428.52 143.789C430.797 147.563 432.258 151.771 432.813 156.143C434.099 165.424 431.854 174.85 426.521 182.554L394.199 162.507C399.532 154.803 401.779 145.377 400.498 136.095C399.936 131.724 398.468 127.519 396.186 123.749C393.905 119.979 390.86 116.728 387.246 114.205C386.869 113.892 386.451 113.618 386.025 113.353Z" fill="url(#paint24_radial_669_17062)"/>
<path d="M386.025 113.353L418.331 133.424C418.758 133.69 419.138 133.964 419.595 134.229C420.053 134.494 420.335 134.752 420.69 135.033L388.397 114.97C388.035 114.696 387.666 114.431 387.295 114.165C386.924 113.9 386.491 113.602 386.04 113.361" fill="url(#paint25_radial_669_17062)"/>
<path d="M388.381 114.978L420.673 135.041C421.477 135.637 422.201 136.264 422.918 136.916L390.625 116.844C389.91 116.192 389.161 115.565 388.381 114.978Z" fill="url(#paint26_radial_669_17062)"/>
<path d="M390.625 116.844L422.918 136.916C423.68 137.615 424.404 138.353 425.09 139.128L392.797 119.064C392.113 118.29 391.389 117.551 390.625 116.852" fill="url(#paint27_radial_669_17062)"/>
<path d="M392.797 119.063L425.09 139.136C425.87 140.005 426.594 140.921 427.263 141.879L395.003 121.8C394.329 120.845 393.605 119.929 392.83 119.056" fill="url(#paint28_radial_669_17062)"/>
<path d="M395.003 121.799L427.294 141.871C428.149 143.092 428.917 144.372 429.595 145.7L397.295 125.588C396.622 124.272 395.855 123.006 395.003 121.799Z" fill="url(#paint29_radial_669_17062)"/>
<path d="M397.262 125.629L429.562 145.741C431.203 149.027 432.289 152.56 432.78 156.199C433.151 158.729 433.247 161.291 433.071 163.842L400.771 143.73C400.949 141.179 400.856 138.617 400.489 136.087C399.978 132.446 398.876 128.913 397.222 125.629" fill="url(#paint30_radial_669_17062)"/>
<path d="M400.811 143.714L433.111 163.826C432.998 165.401 432.789 166.967 432.482 168.516L400.182 148.444C400.498 146.897 400.707 145.33 400.811 143.754" fill="url(#paint31_radial_669_17062)"/>
<path d="M400.182 148.403L432.482 168.475C432.238 169.691 431.931 170.894 431.565 172.079L399.274 152.048C399.636 150.857 399.942 149.634 400.182 148.436" fill="url(#paint32_radial_669_17062)"/>
<path d="M399.274 152.048L431.565 172.112C431.243 173.174 430.874 174.212 430.463 175.242L398.163 155.178C398.581 154.14 398.967 153.102 399.274 152.048Z" fill="url(#paint33_radial_669_17062)"/>
<path d="M398.163 155.146L430.463 175.21C430.07 176.175 429.659 177.125 429.169 178.065L396.877 157.954C397.344 157.013 397.777 156.063 398.163 155.106" fill="url(#paint34_radial_669_17062)"/>
<path d="M396.877 157.994L429.168 178.107C428.711 179.016 428.22 179.917 427.689 180.793L395.389 160.681C395.92 159.804 396.417 158.903 396.877 157.994Z" fill="url(#paint35_radial_669_17062)"/>
<path d="M395.389 160.681L427.689 180.792C427.318 181.405 426.932 182.007 426.53 182.596L394.199 162.506C394.601 161.919 395.003 161.316 395.356 160.705" fill="url(#paint36_radial_669_17062)"/>
<path d="M260.129 423.964L227.829 403.925C232.742 406.963 238.409 408.56 244.186 408.534C255.722 408.534 266.759 402.501 273.703 392.379C278.345 385.682 280.704 377.668 280.426 369.523L312.726 389.596C313.004 397.741 310.643 405.757 305.994 412.452C299.06 422.571 288.023 428.606 276.486 428.606C270.706 428.622 265.038 427.014 260.129 423.964Z" fill="url(#paint37_radial_669_17062)"/>
<path d="M280.426 369.523L312.726 389.596C312.778 390.9 312.758 392.206 312.662 393.505L280.371 373.435C280.462 372.133 280.482 370.827 280.426 369.523Z" fill="url(#paint38_radial_669_17062)"/>
<path d="M280.371 373.435L312.662 393.505C312.558 395.096 312.347 396.675 312.036 398.237L279.736 378.164C280.047 376.602 280.258 375.023 280.371 373.435Z" fill="url(#paint39_radial_669_17062)"/>
<path d="M279.736 378.164L312.036 398.221C311.787 399.445 311.48 400.636 311.11 401.866L278.818 381.809C279.187 380.612 279.494 379.395 279.736 378.164Z" fill="url(#paint40_radial_669_17062)"/>
<path d="M278.818 381.81L311.11 401.882C310.79 402.928 310.419 403.975 310.001 405.012L277.708 384.939C278.128 383.902 278.512 382.856 278.818 381.81Z" fill="url(#paint41_radial_669_17062)"/>
<path d="M277.708 384.938L310.001 405.011C309.615 405.959 309.195 406.91 308.722 407.843L276.422 387.764C276.895 386.829 277.321 385.88 277.708 384.932" fill="url(#paint42_radial_669_17062)"/>
<path d="M276.422 387.764L308.722 407.874C308.271 408.776 307.78 409.66 307.249 410.537L274.958 390.467C275.48 389.589 275.971 388.703 276.422 387.804" fill="url(#paint43_radial_669_17062)"/>
<path d="M274.958 390.433L307.249 410.506C306.854 411.165 306.445 411.807 305.994 412.451C305.85 412.667 305.697 412.885 305.534 413.104L273.243 393.032L273.703 392.379C274.145 391.735 274.554 391.093 274.958 390.433Z" fill="url(#paint44_radial_669_17062)"/>
<path d="M273.243 393.032L305.534 413.105C304.923 413.967 304.279 414.795 303.604 415.59L271.304 395.478C271.979 394.674 272.623 393.87 273.243 392.992" fill="url(#paint45_radial_669_17062)"/>
<path d="M271.304 395.518L303.604 415.631C302.891 416.484 302.143 417.288 301.361 418.043L269.068 397.972C269.872 397.168 270.589 396.362 271.304 395.558" fill="url(#paint46_radial_669_17062)"/>
<path d="M269.068 397.957L301.361 418.028C300.492 418.896 299.575 419.718 298.633 420.498L266.333 400.385C267.282 399.603 268.195 398.779 269.068 397.915" fill="url(#paint47_radial_669_17062)"/>
<path d="M266.333 400.425L298.633 420.538C297.463 421.49 296.237 422.375 294.964 423.185L262.664 403.048C263.939 402.24 265.165 401.356 266.333 400.403" fill="url(#paint48_radial_669_17062)"/>
<path d="M262.664 403.048L294.964 423.16C289.44 426.701 283.023 428.596 276.462 428.622C270.689 428.629 265.029 427.016 260.129 423.965L227.829 403.925C232.743 406.964 238.409 408.561 244.186 408.534C250.747 408.507 257.164 406.615 262.688 403.072" fill="url(#paint49_radial_669_17062)"/>
<path d="M384.607 176.643L416.908 196.753C423.034 205.354 425.91 215.847 425.026 226.368C424.111 238.314 419.011 249.555 410.624 258.113L378.333 238C386.72 229.442 391.817 218.201 392.733 206.256C393.612 195.734 390.733 185.241 384.607 176.643Z" fill="url(#paint50_radial_669_17062)"/>
<path d="M384.608 176.643L416.908 196.753C417.028 196.922 417.15 197.1 417.279 197.269L384.979 177.196L384.608 176.683" fill="url(#paint51_radial_669_17062)"/>
<path d="M384.979 177.155L417.279 197.228C418.429 198.876 419.464 200.602 420.375 202.392L388.075 182.282C387.167 180.487 386.132 178.761 384.979 177.115" fill="url(#paint52_radial_669_17062)"/>
<path d="M388.075 182.323L420.375 202.433C424.049 209.785 425.661 217.995 425.041 226.191L392.741 206.127C393.37 197.929 391.757 189.715 388.075 182.363" fill="url(#paint53_radial_669_17062)"/>
<path d="M392.742 206.086L425.042 226.15C425.042 226.214 425.042 226.27 425.042 226.327C424.9 228.384 424.631 230.432 424.238 232.458L391.898 212.385C392.291 210.359 392.559 208.314 392.702 206.255C392.702 206.199 392.702 206.141 392.702 206.086" fill="url(#paint54_radial_669_17062)"/>
<path d="M391.897 212.385L424.197 232.498C423.864 234.139 423.456 235.747 422.974 237.324L390.674 217.212C391.162 215.626 391.571 214.013 391.897 212.385Z" fill="url(#paint55_radial_669_17062)"/>
<path d="M390.673 217.212L422.973 237.325C422.54 238.735 422.049 240.119 421.501 241.476L389.21 221.37C389.745 220.009 390.234 218.625 390.673 217.221" fill="url(#paint56_radial_669_17062)"/>
<path d="M389.21 221.371L421.501 241.443C420.966 242.72 420.397 243.975 419.795 245.208L387.504 225.135C388.115 223.903 388.684 222.648 389.21 221.371Z" fill="url(#paint57_radial_669_17062)"/>
<path d="M387.504 225.135L419.795 245.207C419.2 246.407 418.549 247.582 417.858 248.723L385.565 228.651C386.249 227.509 386.9 226.334 387.504 225.135Z" fill="url(#paint58_radial_669_17062)"/>
<path d="M385.565 228.651L417.858 248.724C417.165 249.877 416.428 250.998 415.646 252.087L383.346 231.974C384.128 230.901 384.867 229.782 385.565 228.611" fill="url(#paint59_radial_669_17062)"/>
<path d="M383.346 232.014L415.646 252.127C414.84 253.253 413.991 254.341 413.094 255.392L380.803 235.281C381.687 234.226 382.54 233.14 383.346 232.014Z" fill="url(#paint60_radial_669_17062)"/>
<path d="M380.803 235.281L413.094 255.392C412.305 256.331 411.484 257.237 410.624 258.113L378.333 238C379.186 237.131 380.01 236.225 380.803 235.281Z" fill="url(#paint61_radial_669_17062)"/>
<path d="M378.333 238L410.624 258.113C410.44 259.294 410.182 260.485 409.878 261.66C400.733 296.545 382.764 328.488 357.698 354.415C344.423 368.195 329.285 380.05 312.727 389.636L280.427 369.564C296.987 359.982 312.125 348.127 325.398 334.345C350.464 308.42 368.438 276.477 377.584 241.596C377.891 240.372 378.109 239.182 378.333 238Z" fill="url(#paint62_radial_669_17062)"/>
<path d="M378.333 238L410.624 258.113C410.553 258.57 410.473 259.021 410.384 259.47L378.084 239.359C378.18 238.908 378.262 238.458 378.333 238Z" fill="url(#paint63_radial_669_17062)"/>
<path d="M378.108 239.358L410.409 259.471C410.264 260.202 410.093 260.935 409.902 261.659C409.178 264.466 408.381 267.289 407.537 270.033L375.212 249.92C376.065 247.144 376.869 244.354 377.624 241.555C377.811 240.822 377.98 240.089 378.124 239.358" fill="url(#paint64_radial_669_17062)"/>
<path d="M375.212 249.921L407.512 269.994C405.742 275.769 403.723 281.46 401.455 287.066L369.161 266.993C371.425 261.394 373.442 255.703 375.212 249.921Z" fill="url(#paint65_radial_669_17062)"/>
<path d="M369.162 266.994L401.437 287.066C399.325 292.299 396.999 297.443 394.463 302.497L362.178 282.424C364.715 277.371 367.043 272.229 369.162 266.994Z" fill="url(#paint66_radial_669_17062)"/>
<path d="M362.178 282.423L394.478 302.487C392.017 307.378 389.37 312.176 386.54 316.88L354.24 296.856C357.07 292.159 359.717 287.361 362.178 282.463" fill="url(#paint67_radial_669_17062)"/>
<path d="M354.24 296.857L386.538 316.927C383.708 321.609 380.69 326.187 377.489 330.66L345.196 310.548C348.414 306.086 351.428 301.508 354.24 296.814" fill="url(#paint68_radial_669_17062)"/>
<path d="M345.195 310.532L377.489 330.642C374.206 335.229 370.739 339.682 367.087 344.005L334.794 323.934C338.463 319.601 341.93 315.132 345.195 310.532Z" fill="url(#paint69_radial_669_17062)"/>
<path d="M334.794 323.911L367.087 343.983C364.078 347.548 360.948 351.013 357.698 354.376C356.75 355.358 355.795 356.328 354.835 357.288L322.535 337.218C323.499 336.256 324.454 335.285 325.398 334.303C328.648 330.941 331.78 327.478 334.794 323.911Z" fill="url(#paint70_radial_669_17062)"/>
<path d="M322.535 337.217L354.835 357.287C350.044 362.049 345.064 366.554 339.896 370.794L307.595 350.683C312.76 346.452 317.74 341.948 322.535 337.174" fill="url(#paint71_radial_669_17062)"/>
<path d="M307.595 350.756L339.896 370.868C333.527 376.095 326.848 380.93 319.896 385.35L287.603 365.189C294.555 360.773 301.232 355.935 307.595 350.709" fill="url(#paint72_radial_669_17062)"/>
<path d="M287.603 365.189L319.897 385.262C317.531 386.759 315.141 388.202 312.727 389.597L280.427 369.525C282.845 368.136 285.238 366.69 287.603 365.189Z" fill="url(#paint73_radial_669_17062)"/>
<path d="M161.845 0.000652935C168.449 -0.0424375 174.888 2.04834 180.205 5.9618L190.663 13.6768C197.986 8.94725 206.506 6.40736 215.224 6.35605C225.826 6.2872 236.032 10.3835 243.646 17.7635C245.705 17.7775 247.76 17.9958 249.777 18.4152C282.328 25.0913 312.093 41.4743 335.149 65.4051C347.539 78.2532 357.836 92.9665 365.663 109.008C366.996 108.839 368.34 108.753 369.686 108.751C375.958 108.723 382.091 110.618 387.255 114.181C390.867 116.704 393.912 119.955 396.195 123.725C398.476 127.495 399.945 131.7 400.504 136.071C401.79 145.362 399.54 154.797 394.198 162.506L384.543 176.665C390.669 185.265 393.548 195.758 392.668 206.277C391.755 218.225 386.655 229.466 378.268 238.024C378.075 239.206 377.826 240.437 377.52 241.578C368.373 276.462 350.4 308.402 325.334 334.327C312.06 348.109 296.923 359.966 280.362 369.548C280.64 377.693 278.281 385.707 273.638 392.404C266.695 402.523 255.658 408.558 244.121 408.558C237.793 408.58 231.614 406.655 226.423 403.039L215.473 395.38C207.235 402.248 196.875 406.053 186.149 406.153C180.316 406.195 174.544 404.973 169.228 402.572C163.913 400.171 159.18 396.646 155.355 392.244L148.185 390.569L119.144 383.812L119.877 381.238C98.5956 372 79.507 358.367 63.8678 341.231C51.6714 327.868 41.6607 312.664 34.2065 296.179C33.1892 296.281 32.1652 296.328 31.1413 296.325C24.5422 296.363 18.1053 294.269 12.7923 290.355C-1.77851 279.551 -4.27953 257.748 7.2394 241.732L14.296 231.916C9.91145 224.113 7.95016 215.178 8.66537 206.255C9.56494 194.585 14.4604 183.586 22.5254 175.105C22.5254 175.105 26.7545 155.522 37.3205 132.893C47.8866 110.265 62.3863 89.6917 80.1423 72.1305C93.6314 58.7538 108.926 47.3295 125.58 38.1895C125.492 30.0331 128.03 22.065 132.821 15.4628C139.78 5.76878 150.624 0.000652935 161.845 0.000652935Z" fill="#228DFD"/>
<g filter="url(#filter0_d_669_17062)">
<path d="M273.871 224.596C274.014 225.367 273.84 226.186 273.385 226.877C272.932 227.568 272.234 228.072 271.448 228.279L249.581 234.018L253.994 255.057C254.074 255.437 254.076 255.834 254.003 256.228C253.928 256.621 253.777 257.003 253.559 257.349C253.341 257.696 253.059 258.002 252.73 258.249C252.402 258.498 252.033 258.682 251.644 258.791C251.395 258.866 251.14 258.909 250.885 258.913C250.218 258.926 249.583 258.718 249.081 258.32C248.579 257.922 248.237 257.36 248.108 256.718L243.297 233.974L208.347 213.906L205.891 255.608L222.085 272.415C222.349 272.691 222.551 273.017 222.683 273.379C222.811 273.741 222.867 274.132 222.842 274.528C222.82 274.923 222.718 275.316 222.545 275.685C222.372 276.054 222.132 276.391 221.834 276.676C221.539 276.962 221.192 277.191 220.817 277.351C220.441 277.511 220.046 277.597 219.648 277.604C219.253 277.613 218.864 277.544 218.509 277.402C218.151 277.258 217.832 277.042 217.567 276.769L202.55 261.183L185.654 277.464C185.056 278.042 184.27 278.375 183.47 278.393C182.668 278.41 181.92 278.11 181.389 277.557C180.856 277.004 180.583 276.245 180.629 275.447C180.678 274.648 181.04 273.875 181.64 273.297L199.86 255.741L202.317 214.039L164.908 235.68L157.427 258.664C157.223 259.313 156.812 259.89 156.261 260.312C155.712 260.732 155.051 260.968 154.384 260.985C154.129 260.99 153.878 260.961 153.638 260.896C153.26 260.801 152.912 260.634 152.612 260.399C152.312 260.166 152.065 259.87 151.888 259.533C151.71 259.195 151.603 258.82 151.574 258.429C151.546 258.038 151.597 257.638 151.721 257.254L158.627 236.019L137.379 231.222C136.999 231.135 136.646 230.973 136.339 230.744C136.035 230.518 135.782 230.227 135.595 229.894C135.411 229.558 135.296 229.185 135.26 228.794C135.222 228.403 135.264 228.003 135.382 227.617C135.5 227.228 135.691 226.862 135.946 226.537C136.2 226.213 136.51 225.938 136.864 225.724C137.215 225.511 137.601 225.367 137.996 225.3C138.392 225.231 138.792 225.24 139.171 225.327L162.2 230.547L199.609 208.888L164.659 188.807L140.957 195.041C140.706 195.108 140.451 195.144 140.198 195.148C139.46 195.17 138.761 194.921 138.234 194.448C137.708 193.975 137.39 193.311 137.341 192.583C137.29 191.854 137.512 191.112 137.965 190.495C138.416 189.877 139.067 189.428 139.793 189.235L161.661 183.496L157.285 162.456C157.198 161.713 157.398 160.942 157.845 160.296C158.293 159.65 158.955 159.177 159.702 158.972C160.446 158.766 161.219 158.842 161.867 159.185C162.514 159.528 162.987 160.113 163.193 160.824L167.982 183.54L202.932 203.606L205.389 161.904L189.194 145.097C188.661 144.544 188.39 143.785 188.437 142.986C188.483 142.187 188.845 141.414 189.445 140.837C190.045 140.26 190.831 139.926 191.631 139.908C192.43 139.891 193.179 140.191 193.712 140.744L208.729 156.329L225.626 140.049C225.921 139.763 226.268 139.534 226.643 139.375C227.016 139.215 227.414 139.129 227.809 139.12C228.207 139.112 228.593 139.181 228.951 139.324C229.308 139.468 229.628 139.683 229.89 139.956C230.155 140.23 230.357 140.557 230.488 140.919C230.617 141.281 230.672 141.671 230.65 142.067C230.625 142.462 230.525 142.856 230.352 143.225C230.179 143.593 229.937 143.93 229.639 144.216L211.419 161.773L208.963 203.475L246.371 181.832L253.852 158.85C254.143 158.129 254.687 157.521 255.376 157.149C256.064 156.777 256.848 156.666 257.573 156.84C258.294 157.014 258.903 157.459 259.276 158.087C259.649 158.715 259.758 159.479 259.583 160.228L252.677 181.461L273.925 186.261C274.713 186.339 275.415 186.73 275.873 187.347C276.33 187.963 276.508 188.758 276.366 189.553C276.224 190.348 275.775 191.081 275.115 191.587C274.458 192.096 273.645 192.338 272.856 192.26C272.603 192.267 272.35 192.243 272.108 192.185L249.079 186.967L211.67 208.626L246.62 228.707L270.322 222.47C270.715 222.364 271.119 222.333 271.51 222.384C271.901 222.433 272.274 222.559 272.603 222.757C272.934 222.955 273.216 223.219 273.434 223.534C273.652 223.85 273.8 224.212 273.871 224.596Z" fill="#E5EDF6"/>
<path fill-rule="evenodd" clip-rule="evenodd" d="M139.793 189.236L161.661 183.496L157.285 162.456C157.198 161.713 157.398 160.942 157.845 160.297C158.294 159.651 158.955 159.178 159.702 158.972C160.446 158.766 161.219 158.842 161.867 159.186C162.514 159.529 162.987 160.114 163.193 160.824L167.982 183.541L202.932 203.607L205.389 161.905L189.194 145.097C188.661 144.545 188.39 143.786 188.437 142.987C188.483 142.188 188.846 141.415 189.445 140.837C190.045 140.26 190.831 139.926 191.631 139.909C192.43 139.891 193.179 140.192 193.712 140.745L208.729 156.33L225.626 140.05C225.921 139.764 226.268 139.535 226.643 139.375C227.016 139.216 227.414 139.13 227.809 139.121C228.207 139.112 228.593 139.182 228.951 139.325C229.308 139.469 229.628 139.683 229.89 139.957C230.155 140.23 230.357 140.558 230.488 140.92C230.617 141.282 230.672 141.672 230.65 142.067C230.625 142.463 230.526 142.856 230.352 143.225C230.179 143.594 229.937 143.931 229.639 144.216L211.419 161.773L208.963 203.476L246.371 181.833L253.852 158.85C254.143 158.129 254.687 157.522 255.376 157.149C256.064 156.777 256.848 156.667 257.573 156.841C258.294 157.015 258.903 157.46 259.276 158.088C259.649 158.715 259.758 159.48 259.583 160.229L252.677 181.462L273.925 186.262C274.713 186.339 275.415 186.73 275.873 187.348C276.33 187.963 276.508 188.758 276.366 189.553C276.224 190.349 275.775 191.082 275.115 191.588C274.458 192.097 273.645 192.339 272.856 192.261C272.603 192.268 272.35 192.243 272.108 192.185L249.079 186.968L211.67 208.626L246.62 228.708L270.322 222.471C270.715 222.364 271.119 222.333 271.51 222.384C271.901 222.433 272.274 222.56 272.603 222.757C272.934 222.955 273.216 223.219 273.434 223.535C273.652 223.85 273.8 224.212 273.871 224.597C274.014 225.367 273.84 226.187 273.385 226.878C272.932 227.569 272.234 228.073 271.448 228.279L249.581 234.019L253.994 255.058C254.074 255.437 254.076 255.835 254.003 256.228C253.928 256.621 253.777 257.003 253.559 257.35C253.341 257.696 253.059 258.003 252.73 258.249C252.402 258.498 252.033 258.682 251.644 258.791C251.396 258.867 251.14 258.909 250.885 258.913C250.218 258.927 249.583 258.718 249.081 258.32C248.579 257.923 248.237 257.361 248.108 256.719L243.297 233.974L208.347 213.906L205.891 255.608L222.085 272.416C222.349 272.691 222.552 273.018 222.683 273.38C222.811 273.742 222.867 274.133 222.843 274.528C222.82 274.924 222.718 275.317 222.545 275.685C222.372 276.054 222.132 276.392 221.834 276.676C221.539 276.963 221.192 277.191 220.817 277.351C220.441 277.511 220.046 277.598 219.649 277.605C219.253 277.613 218.864 277.545 218.509 277.402C218.151 277.258 217.832 277.043 217.567 276.769L202.55 261.184L185.654 277.465C185.056 278.042 184.27 278.375 183.47 278.393C182.668 278.411 181.92 278.111 181.389 277.558C180.856 277.005 180.583 276.245 180.629 275.448C180.678 274.648 181.04 273.875 181.64 273.298L199.86 255.742L202.317 214.039L164.908 235.68L157.427 258.665C157.223 259.313 156.812 259.891 156.261 260.313C155.712 260.733 155.051 260.968 154.384 260.986C154.129 260.99 153.878 260.961 153.638 260.897C153.26 260.801 152.912 260.635 152.612 260.399C152.312 260.166 152.065 259.871 151.888 259.533C151.71 259.196 151.603 258.82 151.575 258.429C151.546 258.038 151.597 257.639 151.721 257.254L158.627 236.02L137.379 231.222C136.999 231.136 136.646 230.974 136.34 230.745C136.035 230.518 135.782 230.227 135.596 229.894C135.411 229.559 135.296 229.186 135.26 228.795C135.222 228.404 135.265 228.004 135.382 227.617C135.5 227.229 135.691 226.862 135.946 226.538C136.2 226.214 136.511 225.938 136.864 225.725C137.215 225.512 137.601 225.367 137.997 225.301C138.392 225.232 138.792 225.241 139.172 225.327L162.201 230.547L199.609 208.889L164.659 188.807L140.957 195.042C140.706 195.108 140.451 195.144 140.198 195.148C139.46 195.171 138.761 194.922 138.234 194.449C137.708 193.976 137.39 193.312 137.341 192.583C137.29 191.855 137.512 191.113 137.965 190.495C138.416 189.878 139.067 189.429 139.793 189.236ZM140.067 197.407C138.781 197.441 137.563 197.005 136.646 196.179C135.724 195.353 135.167 194.191 135.08 192.916C134.994 191.641 135.382 190.342 136.173 189.262C136.964 188.181 138.103 187.397 139.374 187.057L139.378 187.055L158.982 181.913L155.046 162.99L155.035 162.896C154.882 161.596 155.233 160.247 156.015 159.117C156.799 157.987 157.958 157.159 159.262 156.799C160.566 156.438 161.921 156.572 163.053 157.173C164.184 157.773 165.013 158.797 165.372 160.04L165.395 160.115L170.01 182.01L200.902 199.746L203.074 162.889L187.502 146.729C186.569 145.762 186.094 144.433 186.176 143.036C186.258 141.638 186.893 140.286 187.941 139.276C188.988 138.266 190.365 137.681 191.764 137.651C193.163 137.62 194.474 138.146 195.405 139.113L208.918 153.137L224.12 138.488C224.639 137.988 225.244 137.587 225.899 137.308C226.556 137.029 227.249 136.878 227.942 136.863C228.635 136.848 229.315 136.969 229.939 137.22C230.563 137.471 231.123 137.847 231.585 138.325C232.045 138.804 232.4 139.377 232.627 140.01C232.856 140.644 232.951 141.326 232.911 142.018C232.869 142.71 232.693 143.398 232.389 144.044C232.087 144.689 231.665 145.278 231.145 145.778L213.625 162.659L211.455 199.515L244.517 180.387L251.729 158.235L251.76 158.159C252.266 156.897 253.217 155.835 254.425 155.183C255.631 154.531 257.004 154.338 258.268 154.643C259.534 154.947 260.598 155.726 261.251 156.825C261.902 157.924 262.093 159.261 261.786 160.571L261.764 160.669L255.558 179.758L274.478 184.032C275.797 184.2 276.961 184.873 277.732 185.913C278.531 186.992 278.842 188.381 278.596 189.773C278.347 191.164 277.561 192.445 276.41 193.334C275.297 194.191 273.931 194.615 272.594 194.52C272.201 194.52 271.815 194.475 271.437 194.391C271.437 194.391 271.435 194.389 271.433 194.389L249.281 189.369L216.19 208.527L247.106 226.291L269.891 220.296C269.896 220.296 269.898 220.294 269.902 220.294C270.586 220.108 271.288 220.057 271.968 220.141C272.654 220.228 273.305 220.45 273.883 220.796C274.46 221.143 274.953 221.605 275.333 222.158C275.715 222.711 275.975 223.342 276.099 224.015M140.067 197.407C140.502 197.399 140.94 197.336 141.368 197.223C141.371 197.223 141.37 197.223 141.373 197.221L164.175 191.224L195.089 208.986L161.998 228.144L139.842 223.124C139.178 222.973 138.481 222.955 137.788 223.075C137.095 223.195 136.422 223.446 135.807 223.819C135.193 224.19 134.647 224.672 134.203 225.241C133.759 225.807 133.425 226.447 133.219 227.124C133.012 227.8 132.939 228.499 133.003 229.183C133.068 229.865 133.268 230.518 133.592 231.102C133.916 231.689 134.358 232.195 134.894 232.593C135.427 232.993 136.044 233.275 136.708 233.426L155.748 237.726L149.571 256.719C149.353 257.39 149.267 258.089 149.316 258.774C149.367 259.458 149.551 260.113 149.864 260.706C150.175 261.297 150.606 261.812 151.13 262.221C151.65 262.627 152.254 262.92 152.905 263.085C153.34 263.2 153.791 263.254 154.251 263.243H154.258C155.426 263.214 156.581 262.798 157.545 262.065C158.504 261.332 159.22 260.322 159.58 259.193C159.582 259.189 159.582 259.184 159.584 259.18L166.763 237.126L199.827 217.998L197.655 254.855L180.134 271.736C179.086 272.747 178.45 274.097 178.368 275.497C178.286 276.894 178.764 278.222 179.697 279.188C180.627 280.157 181.938 280.681 183.337 280.652C184.736 280.621 186.111 280.037 187.16 279.026L202.361 264.378L215.875 278.402C216.337 278.879 216.894 279.255 217.521 279.506C218.145 279.757 218.822 279.879 219.515 279.863C220.208 279.848 220.904 279.697 221.559 279.419C222.216 279.139 222.82 278.74 223.34 278.238C223.858 277.738 224.282 277.149 224.584 276.503C224.886 275.859 225.064 275.17 225.104 274.479C225.146 273.786 225.048 273.104 224.822 272.471C224.595 271.836 224.24 271.265 223.778 270.786L208.207 254.624L210.377 217.769L241.269 235.505L245.885 257.332C245.887 257.336 245.887 257.341 245.887 257.345C246.116 258.46 246.713 259.442 247.588 260.133C248.468 260.828 249.576 261.195 250.745 261.172H250.751C251.211 261.161 251.671 261.088 252.12 260.955C252.793 260.761 253.432 260.442 254.001 260.011C254.576 259.578 255.069 259.042 255.449 258.436C255.831 257.83 256.096 257.163 256.227 256.475C256.358 255.788 256.353 255.091 256.213 254.429C256.213 254.427 256.213 254.427 256.213 254.427L252.264 235.602L271.857 230.46H271.861C273.236 230.098 274.456 229.214 275.251 228.006C276.044 226.798 276.35 225.363 276.099 224.015" fill="#E5EDF6"/>
<path fill-rule="evenodd" clip-rule="evenodd" d="M187.851 61.2678C189.343 62.2784 189.632 64.3739 188.495 65.9484L169.959 91.6064C168.822 93.181 166.69 93.6381 165.197 92.6277C163.704 91.617 163.416 89.5214 164.553 87.947L177.904 69.4652C124.703 84.0549 81.2638 126.907 66.1977 180.093C65.678 181.925 63.7966 183.111 61.9931 182.74C60.1895 182.37 59.1478 180.582 59.6675 178.747C75.5199 122.785 121.36 77.7641 177.444 62.7129L159.411 50.5016C157.918 49.491 157.629 47.3953 158.767 45.821C159.904 44.2464 162.036 43.7893 163.529 44.7997L187.851 61.2678Z" fill="#E5EDF6"/>
<path fill-rule="evenodd" clip-rule="evenodd" d="M55.7449 238.947C56.8822 237.373 59.0123 236.915 60.5049 237.926L84.8266 254.396C86.3192 255.406 86.6079 257.501 85.4707 259.076C84.3335 260.65 82.2011 261.108 80.7085 260.097L63.1903 248.234C73.623 300.513 113.553 340.632 166.214 351.185C168.02 351.547 169.071 353.328 168.562 355.163C168.051 357 166.174 358.195 164.368 357.833C108.959 346.729 67.024 304.376 56.358 249.24L42.6134 268.264C41.4762 269.839 39.3439 270.297 37.8513 269.286C36.3587 268.276 36.0721 266.181 37.2094 264.606L55.7449 238.947Z" fill="#E5EDF6"/>
<path fill-rule="evenodd" clip-rule="evenodd" d="M350.748 231.093C352.565 231.411 353.658 233.163 353.191 235.007C338.801 291.762 293.651 337.96 237.751 354.321L256.105 366.082C257.624 367.055 257.962 369.141 256.86 370.738C255.758 372.335 253.632 372.841 252.113 371.868L227.365 356.007C225.846 355.034 225.508 352.948 226.61 351.351L244.57 325.313C245.672 323.716 247.795 323.209 249.315 324.182C250.834 325.157 251.171 327.241 250.07 328.838L237.134 347.593C290.157 331.761 332.934 287.791 346.61 233.854C347.077 232.011 348.929 230.773 350.748 231.093Z" fill="#E5EDF6"/>
<path fill-rule="evenodd" clip-rule="evenodd" d="M239.786 62.2939C240.252 60.4503 242.105 59.2143 243.922 59.533C299.613 69.299 342.314 110.394 354.491 164.612L367.713 145.244C368.806 143.641 370.93 143.124 372.453 144.089C373.979 145.054 374.328 147.135 373.233 148.738L355.404 174.858C354.309 176.461 352.187 176.979 350.662 176.012L325.818 160.288C324.294 159.323 323.945 157.241 325.04 155.638C326.133 154.036 328.257 153.519 329.78 154.483L347.676 165.81C335.811 114.408 295.153 75.4898 242.229 66.2091C240.412 65.8904 239.317 64.1374 239.786 62.2939Z" fill="#E5EDF6"/>
<path fill-rule="evenodd" clip-rule="evenodd" d="M213.736 71.027C217.898 70.9364 221.472 67.4934 221.717 63.3367C221.961 59.1802 218.785 55.884 214.622 55.9747C210.46 56.0653 206.886 59.5083 206.642 63.665C206.397 67.8216 209.574 71.1176 213.736 71.027ZM213.336 77.8006C221.246 77.6283 228.034 71.0865 228.5 63.189C228.964 55.2914 222.932 49.0289 215.022 49.2012C207.112 49.3734 200.322 55.9151 199.858 63.8127C199.392 71.7102 205.427 77.9728 213.336 77.8006Z" fill="#E5EDF6"/>
<path fill-rule="evenodd" clip-rule="evenodd" d="M196.438 364.546C200.6 364.455 204.174 361.013 204.418 356.857C204.665 352.699 201.488 349.403 197.326 349.494C193.164 349.585 189.59 353.027 189.345 357.183C189.099 361.341 192.275 364.637 196.438 364.546ZM196.04 371.321C203.947 371.148 210.737 364.606 211.204 356.708C211.668 348.812 205.633 342.548 197.724 342.721C189.814 342.892 183.026 349.434 182.56 357.332C182.096 365.231 188.13 371.492 196.04 371.321Z" fill="#E5EDF6"/>
<path fill-rule="evenodd" clip-rule="evenodd" d="M66.0889 213.297C66.3332 209.141 63.157 205.845 58.9945 205.936C54.8321 206.025 51.2583 209.468 51.0139 213.626C50.7674 217.782 53.9436 221.078 58.1061 220.987C62.2707 220.896 65.8424 217.453 66.0889 213.297ZM72.8723 213.151C73.3365 205.252 67.3017 198.988 59.3921 199.162C51.4848 199.335 44.6947 205.876 44.2305 213.772C43.7641 221.671 49.7989 227.932 57.7085 227.761C65.618 227.588 72.4059 221.047 72.8723 213.151Z" fill="#E5EDF6"/>
<path fill-rule="evenodd" clip-rule="evenodd" d="M360.048 206.897C360.292 202.741 357.116 199.445 352.954 199.536C348.791 199.625 345.217 203.07 344.973 207.226C344.726 211.381 347.903 214.677 352.067 214.586C356.23 214.498 359.801 211.053 360.048 206.897ZM366.831 206.75C367.296 198.852 361.263 192.588 353.353 192.761C345.444 192.935 338.654 199.476 338.19 207.372C337.723 215.271 343.758 221.532 351.668 221.361C359.577 221.188 366.365 214.646 366.831 206.75Z" fill="#E5EDF6"/>
</g>
<defs>
<filter id="filter0_d_669_17062" x="35.105" y="44.2627" width="340.175" height="331.974" filterUnits="userSpaceOnUse" color-interpolation-filters="sRGB">
<feFlood flood-opacity="0" result="BackgroundImageFix"/>
<feColorMatrix in="SourceAlpha" type="matrix" values="0 0 0 0 0 0 0 0 0 0 0 0 0 0 0 0 0 0 127 0" result="hardAlpha"/>
<feOffset dy="2.46497"/>
<feGaussianBlur stdDeviation="0.704276"/>
<feComposite in2="hardAlpha" operator="out"/>
<feColorMatrix type="matrix" values="0 0 0 0 0.065625 0 0 0 0 0.419165 0 0 0 0 0.75 0 0 0 1 0"/>
<feBlend mode="normal" in2="BackgroundImageFix" result="effect1_dropShadow_669_17062"/>
<feBlend mode="normal" in="SourceGraphic" in2="effect1_dropShadow_669_17062" result="shape"/>
</filter>
<radialGradient id="paint0_radial_669_17062" cx="0" cy="0" r="1" gradientUnits="userSpaceOnUse" gradientTransform="translate(461.468 75.39) rotate(126.132) scale(693.212 744.674)">
<stop stop-color="#4297E7"/>
<stop offset="1" stop-color="#0069CC"/>
</radialGradient>
<radialGradient id="paint1_radial_669_17062" cx="0" cy="0" r="1" gradientUnits="userSpaceOnUse" gradientTransform="translate(461.468 75.39) rotate(126.132) scale(693.212 744.674)">
<stop stop-color="#4297E7"/>
<stop offset="1" stop-color="#0069CC"/>
</radialGradient>
<radialGradient id="paint2_radial_669_17062" cx="0" cy="0" r="1" gradientUnits="userSpaceOnUse" gradientTransform="translate(461.469 75.3897) rotate(126.132) scale(693.212 744.675)">
<stop stop-color="#4297E7"/>
<stop offset="1" stop-color="#0069CC"/>
</radialGradient>
<radialGradient id="paint3_radial_669_17062" cx="0" cy="0" r="1" gradientUnits="userSpaceOnUse" gradientTransform="translate(461.468 75.3903) rotate(126.132) scale(693.212 744.674)">
<stop stop-color="#4297E7"/>
<stop offset="1" stop-color="#0069CC"/>
</radialGradient>
<radialGradient id="paint4_radial_669_17062" cx="0" cy="0" r="1" gradientUnits="userSpaceOnUse" gradientTransform="translate(461.468 75.3902) rotate(126.132) scale(693.213 744.674)">
<stop stop-color="#4297E7"/>
<stop offset="1" stop-color="#0069CC"/>
</radialGradient>
<radialGradient id="paint5_radial_669_17062" cx="0" cy="0" r="1" gradientUnits="userSpaceOnUse" gradientTransform="translate(461.469 75.3894) rotate(126.132) scale(693.212 744.674)">
<stop stop-color="#4297E7"/>
<stop offset="1" stop-color="#0069CC"/>
</radialGradient>
<radialGradient id="paint6_radial_669_17062" cx="0" cy="0" r="1" gradientUnits="userSpaceOnUse" gradientTransform="translate(461.469 75.3894) rotate(126.132) scale(693.212 744.675)">
<stop stop-color="#4297E7"/>
<stop offset="1" stop-color="#0069CC"/>
</radialGradient>
<radialGradient id="paint7_radial_669_17062" cx="0" cy="0" r="1" gradientUnits="userSpaceOnUse" gradientTransform="translate(461.468 75.3902) rotate(126.132) scale(693.212 744.674)">
<stop stop-color="#4297E7"/>
<stop offset="1" stop-color="#0069CC"/>
</radialGradient>
<radialGradient id="paint8_radial_669_17062" cx="0" cy="0" r="1" gradientUnits="userSpaceOnUse" gradientTransform="translate(461.468 75.3901) rotate(126.132) scale(693.212 744.674)">
<stop stop-color="#4297E7"/>
<stop offset="1" stop-color="#0069CC"/>
</radialGradient>
<radialGradient id="paint9_radial_669_17062" cx="0" cy="0" r="1" gradientUnits="userSpaceOnUse" gradientTransform="translate(461.469 75.3893) rotate(126.132) scale(693.213 744.675)">
<stop stop-color="#4297E7"/>
<stop offset="1" stop-color="#0069CC"/>
</radialGradient>
<radialGradient id="paint10_radial_669_17062" cx="0" cy="0" r="1" gradientUnits="userSpaceOnUse" gradientTransform="translate(461.469 75.3894) rotate(126.132) scale(693.213 744.675)">
<stop stop-color="#4297E7"/>
<stop offset="1" stop-color="#0069CC"/>
</radialGradient>
<radialGradient id="paint11_radial_669_17062" cx="0" cy="0" r="1" gradientUnits="userSpaceOnUse" gradientTransform="translate(461.468 75.3888) rotate(126.132) scale(693.213 744.674)">
<stop stop-color="#4297E7"/>
<stop offset="1" stop-color="#0069CC"/>
</radialGradient>
<radialGradient id="paint12_radial_669_17062" cx="0" cy="0" r="1" gradientUnits="userSpaceOnUse" gradientTransform="translate(461.469 75.3913) rotate(126.132) scale(693.212 744.675)">
<stop stop-color="#4297E7"/>
<stop offset="1" stop-color="#0069CC"/>
</radialGradient>
<radialGradient id="paint13_radial_669_17062" cx="0" cy="0" r="1" gradientUnits="userSpaceOnUse" gradientTransform="translate(461.468 75.3901) rotate(126.132) scale(693.212 744.674)">
<stop stop-color="#4297E7"/>
<stop offset="1" stop-color="#0069CC"/>
</radialGradient>
<radialGradient id="paint14_radial_669_17062" cx="0" cy="0" r="1" gradientUnits="userSpaceOnUse" gradientTransform="translate(461.468 75.3901) rotate(126.132) scale(693.212 744.674)">
<stop stop-color="#4297E7"/>
<stop offset="1" stop-color="#0069CC"/>
</radialGradient>
<radialGradient id="paint15_radial_669_17062" cx="0" cy="0" r="1" gradientUnits="userSpaceOnUse" gradientTransform="translate(461.469 75.3899) rotate(126.132) scale(693.212 744.674)">
<stop stop-color="#4297E7"/>
<stop offset="1" stop-color="#0069CC"/>
</radialGradient>
<radialGradient id="paint16_radial_669_17062" cx="0" cy="0" r="1" gradientUnits="userSpaceOnUse" gradientTransform="translate(461.468 75.3903) rotate(126.132) scale(693.212 744.674)">
<stop stop-color="#4297E7"/>
<stop offset="1" stop-color="#0069CC"/>
</radialGradient>
<radialGradient id="paint17_radial_669_17062" cx="0" cy="0" r="1" gradientUnits="userSpaceOnUse" gradientTransform="translate(461.468 75.3894) rotate(126.132) scale(693.212 744.674)">
<stop stop-color="#4297E7"/>
<stop offset="1" stop-color="#0069CC"/>
</radialGradient>
<radialGradient id="paint18_radial_669_17062" cx="0" cy="0" r="1" gradientUnits="userSpaceOnUse" gradientTransform="translate(461.469 75.39) rotate(126.132) scale(693.213 744.675)">
<stop stop-color="#4297E7"/>
<stop offset="1" stop-color="#0069CC"/>
</radialGradient>
<radialGradient id="paint19_radial_669_17062" cx="0" cy="0" r="1" gradientUnits="userSpaceOnUse" gradientTransform="translate(461.468 75.3898) rotate(126.132) scale(693.212 744.674)">
<stop stop-color="#4297E7"/>
<stop offset="1" stop-color="#0069CC"/>
</radialGradient>
<radialGradient id="paint20_radial_669_17062" cx="0" cy="0" r="1" gradientUnits="userSpaceOnUse" gradientTransform="translate(461.469 75.3906) rotate(126.132) scale(693.212 744.674)">
<stop stop-color="#4297E7"/>
<stop offset="1" stop-color="#0069CC"/>
</radialGradient>
<radialGradient id="paint21_radial_669_17062" cx="0" cy="0" r="1" gradientUnits="userSpaceOnUse" gradientTransform="translate(461.468 75.3898) rotate(126.132) scale(693.212 744.674)">
<stop stop-color="#4297E7"/>
<stop offset="1" stop-color="#0069CC"/>
</radialGradient>
<radialGradient id="paint22_radial_669_17062" cx="0" cy="0" r="1" gradientUnits="userSpaceOnUse" gradientTransform="translate(461.469 75.3896) rotate(126.132) scale(693.212 744.674)">
<stop stop-color="#4297E7"/>
<stop offset="1" stop-color="#0069CC"/>
</radialGradient>
<radialGradient id="paint23_radial_669_17062" cx="0" cy="0" r="1" gradientUnits="userSpaceOnUse" gradientTransform="translate(461.469 75.3904) rotate(126.132) scale(693.213 744.675)">
<stop stop-color="#4297E7"/>
<stop offset="1" stop-color="#0069CC"/>
</radialGradient>
<radialGradient id="paint24_radial_669_17062" cx="0" cy="0" r="1" gradientUnits="userSpaceOnUse" gradientTransform="translate(461.469 75.3902) rotate(126.132) scale(693.212 744.674)">
<stop stop-color="#4297E7"/>
<stop offset="1" stop-color="#0069CC"/>
</radialGradient>
<radialGradient id="paint25_radial_669_17062" cx="0" cy="0" r="1" gradientUnits="userSpaceOnUse" gradientTransform="translate(461.469 75.3902) rotate(126.132) scale(693.213 744.675)">
<stop stop-color="#4297E7"/>
<stop offset="1" stop-color="#0069CC"/>
</radialGradient>
<radialGradient id="paint26_radial_669_17062" cx="0" cy="0" r="1" gradientUnits="userSpaceOnUse" gradientTransform="translate(461.469 75.3903) rotate(126.132) scale(693.212 744.675)">
<stop stop-color="#4297E7"/>
<stop offset="1" stop-color="#0069CC"/>
</radialGradient>
<radialGradient id="paint27_radial_669_17062" cx="0" cy="0" r="1" gradientUnits="userSpaceOnUse" gradientTransform="translate(461.469 75.3905) rotate(126.132) scale(693.212 744.674)">
<stop stop-color="#4297E7"/>
<stop offset="1" stop-color="#0069CC"/>
</radialGradient>
<radialGradient id="paint28_radial_669_17062" cx="0" cy="0" r="1" gradientUnits="userSpaceOnUse" gradientTransform="translate(461.468 75.3897) rotate(126.132) scale(693.212 744.674)">
<stop stop-color="#4297E7"/>
<stop offset="1" stop-color="#0069CC"/>
</radialGradient>
<radialGradient id="paint29_radial_669_17062" cx="0" cy="0" r="1" gradientUnits="userSpaceOnUse" gradientTransform="translate(461.468 75.3895) rotate(126.132) scale(693.212 744.674)">
<stop stop-color="#4297E7"/>
<stop offset="1" stop-color="#0069CC"/>
</radialGradient>
<radialGradient id="paint30_radial_669_17062" cx="0" cy="0" r="1" gradientUnits="userSpaceOnUse" gradientTransform="translate(461.469 75.3898) rotate(126.132) scale(693.212 744.674)">
<stop stop-color="#4297E7"/>
<stop offset="1" stop-color="#0069CC"/>
</radialGradient>
<radialGradient id="paint31_radial_669_17062" cx="0" cy="0" r="1" gradientUnits="userSpaceOnUse" gradientTransform="translate(461.469 75.3899) rotate(126.132) scale(693.212 744.674)">
<stop stop-color="#4297E7"/>
<stop offset="1" stop-color="#0069CC"/>
</radialGradient>
<radialGradient id="paint32_radial_669_17062" cx="0" cy="0" r="1" gradientUnits="userSpaceOnUse" gradientTransform="translate(461.468 75.3898) rotate(126.132) scale(693.212 744.674)">
<stop stop-color="#4297E7"/>
<stop offset="1" stop-color="#0069CC"/>
</radialGradient>
<radialGradient id="paint33_radial_669_17062" cx="0" cy="0" r="1" gradientUnits="userSpaceOnUse" gradientTransform="translate(461.468 75.3902) rotate(126.132) scale(693.212 744.674)">
<stop stop-color="#4297E7"/>
<stop offset="1" stop-color="#0069CC"/>
</radialGradient>
<radialGradient id="paint34_radial_669_17062" cx="0" cy="0" r="1" gradientUnits="userSpaceOnUse" gradientTransform="translate(461.469 75.3906) rotate(126.132) scale(693.212 744.674)">
<stop stop-color="#4297E7"/>
<stop offset="1" stop-color="#0069CC"/>
</radialGradient>
<radialGradient id="paint35_radial_669_17062" cx="0" cy="0" r="1" gradientUnits="userSpaceOnUse" gradientTransform="translate(461.468 75.3907) rotate(126.132) scale(693.212 744.675)">
<stop stop-color="#4297E7"/>
<stop offset="1" stop-color="#0069CC"/>
</radialGradient>
<radialGradient id="paint36_radial_669_17062" cx="0" cy="0" r="1" gradientUnits="userSpaceOnUse" gradientTransform="translate(461.469 75.3902) rotate(126.132) scale(693.212 744.674)">
<stop stop-color="#4297E7"/>
<stop offset="1" stop-color="#0069CC"/>
</radialGradient>
<radialGradient id="paint37_radial_669_17062" cx="0" cy="0" r="1" gradientUnits="userSpaceOnUse" gradientTransform="translate(461.468 75.3897) rotate(126.132) scale(693.212 744.674)">
<stop stop-color="#4297E7"/>
<stop offset="1" stop-color="#0069CC"/>
</radialGradient>
<radialGradient id="paint38_radial_669_17062" cx="0" cy="0" r="1" gradientUnits="userSpaceOnUse" gradientTransform="translate(461.468 75.3898) rotate(126.132) scale(693.212 744.674)">
<stop stop-color="#4297E7"/>
<stop offset="1" stop-color="#0069CC"/>
</radialGradient>
<radialGradient id="paint39_radial_669_17062" cx="0" cy="0" r="1" gradientUnits="userSpaceOnUse" gradientTransform="translate(461.469 75.3898) rotate(126.132) scale(693.212 744.675)">
<stop stop-color="#4297E7"/>
<stop offset="1" stop-color="#0069CC"/>
</radialGradient>
<radialGradient id="paint40_radial_669_17062" cx="0" cy="0" r="1" gradientUnits="userSpaceOnUse" gradientTransform="translate(461.469 75.3899) rotate(126.132) scale(693.213 744.675)">
<stop stop-color="#4297E7"/>
<stop offset="1" stop-color="#0069CC"/>
</radialGradient>
<radialGradient id="paint41_radial_669_17062" cx="0" cy="0" r="1" gradientUnits="userSpaceOnUse" gradientTransform="translate(461.469 75.3906) rotate(126.132) scale(693.212 744.674)">
<stop stop-color="#4297E7"/>
<stop offset="1" stop-color="#0069CC"/>
</radialGradient>
<radialGradient id="paint42_radial_669_17062" cx="0" cy="0" r="1" gradientUnits="userSpaceOnUse" gradientTransform="translate(461.469 75.3897) rotate(126.132) scale(693.213 744.675)">
<stop stop-color="#4297E7"/>
<stop offset="1" stop-color="#0069CC"/>
</radialGradient>
<radialGradient id="paint43_radial_669_17062" cx="0" cy="0" r="1" gradientUnits="userSpaceOnUse" gradientTransform="translate(461.469 75.3901) rotate(126.132) scale(693.212 744.675)">
<stop stop-color="#4297E7"/>
<stop offset="1" stop-color="#0069CC"/>
</radialGradient>
<radialGradient id="paint44_radial_669_17062" cx="0" cy="0" r="1" gradientUnits="userSpaceOnUse" gradientTransform="translate(461.469 75.3893) rotate(126.132) scale(693.213 744.675)">
<stop stop-color="#4297E7"/>
<stop offset="1" stop-color="#0069CC"/>
</radialGradient>
<radialGradient id="paint45_radial_669_17062" cx="0" cy="0" r="1" gradientUnits="userSpaceOnUse" gradientTransform="translate(461.469 75.3898) rotate(126.132) scale(693.212 744.675)">
<stop stop-color="#4297E7"/>
<stop offset="1" stop-color="#0069CC"/>
</radialGradient>
<radialGradient id="paint46_radial_669_17062" cx="0" cy="0" r="1" gradientUnits="userSpaceOnUse" gradientTransform="translate(461.468 75.3899) rotate(126.132) scale(693.212 744.674)">
<stop stop-color="#4297E7"/>
<stop offset="1" stop-color="#0069CC"/>
</radialGradient>
<radialGradient id="paint47_radial_669_17062" cx="0" cy="0" r="1" gradientUnits="userSpaceOnUse" gradientTransform="translate(461.469 75.3902) rotate(126.132) scale(693.213 744.675)">
<stop stop-color="#4297E7"/>
<stop offset="1" stop-color="#0069CC"/>
</radialGradient>
<radialGradient id="paint48_radial_669_17062" cx="0" cy="0" r="1" gradientUnits="userSpaceOnUse" gradientTransform="translate(461.468 75.3909) rotate(126.132) scale(693.212 744.674)">
<stop stop-color="#4297E7"/>
<stop offset="1" stop-color="#0069CC"/>
</radialGradient>
<radialGradient id="paint49_radial_669_17062" cx="0" cy="0" r="1" gradientUnits="userSpaceOnUse" gradientTransform="translate(461.469 75.3904) rotate(126.132) scale(693.212 744.674)">
<stop stop-color="#4297E7"/>
<stop offset="1" stop-color="#0069CC"/>
</radialGradient>
<radialGradient id="paint50_radial_669_17062" cx="0" cy="0" r="1" gradientUnits="userSpaceOnUse" gradientTransform="translate(461.468 75.3902) rotate(126.132) scale(693.212 744.674)">
<stop stop-color="#4297E7"/>
<stop offset="1" stop-color="#0069CC"/>
</radialGradient>
<radialGradient id="paint51_radial_669_17062" cx="0" cy="0" r="1" gradientUnits="userSpaceOnUse" gradientTransform="translate(461.469 75.3902) rotate(126.132) scale(693.213 744.675)">
<stop stop-color="#4297E7"/>
<stop offset="1" stop-color="#0069CC"/>
</radialGradient>
<radialGradient id="paint52_radial_669_17062" cx="0" cy="0" r="1" gradientUnits="userSpaceOnUse" gradientTransform="translate(461.469 75.3892) rotate(126.132) scale(693.213 744.675)">
<stop stop-color="#4297E7"/>
<stop offset="1" stop-color="#0069CC"/>
</radialGradient>
<radialGradient id="paint53_radial_669_17062" cx="0" cy="0" r="1" gradientUnits="userSpaceOnUse" gradientTransform="translate(461.468 75.3904) rotate(126.132) scale(693.212 744.674)">
<stop stop-color="#4297E7"/>
<stop offset="1" stop-color="#0069CC"/>
</radialGradient>
<radialGradient id="paint54_radial_669_17062" cx="0" cy="0" r="1" gradientUnits="userSpaceOnUse" gradientTransform="translate(461.469 75.3894) rotate(126.132) scale(693.212 744.674)">
<stop stop-color="#4297E7"/>
<stop offset="1" stop-color="#0069CC"/>
</radialGradient>
<radialGradient id="paint55_radial_669_17062" cx="0" cy="0" r="1" gradientUnits="userSpaceOnUse" gradientTransform="translate(461.469 75.3896) rotate(126.132) scale(693.212 744.674)">
<stop stop-color="#4297E7"/>
<stop offset="1" stop-color="#0069CC"/>
</radialGradient>
<radialGradient id="paint56_radial_669_17062" cx="0" cy="0" r="1" gradientUnits="userSpaceOnUse" gradientTransform="translate(461.468 75.3902) rotate(126.132) scale(693.212 744.674)">
<stop stop-color="#4297E7"/>
<stop offset="1" stop-color="#0069CC"/>
</radialGradient>
<radialGradient id="paint57_radial_669_17062" cx="0" cy="0" r="1" gradientUnits="userSpaceOnUse" gradientTransform="translate(461.469 75.3903) rotate(126.132) scale(693.212 744.674)">
<stop stop-color="#4297E7"/>
<stop offset="1" stop-color="#0069CC"/>
</radialGradient>
<radialGradient id="paint58_radial_669_17062" cx="0" cy="0" r="1" gradientUnits="userSpaceOnUse" gradientTransform="translate(461.469 75.3897) rotate(126.132) scale(693.212 744.675)">
<stop stop-color="#4297E7"/>
<stop offset="1" stop-color="#0069CC"/>
</radialGradient>
<radialGradient id="paint59_radial_669_17062" cx="0" cy="0" r="1" gradientUnits="userSpaceOnUse" gradientTransform="translate(461.468 75.3901) rotate(126.132) scale(693.212 744.674)">
<stop stop-color="#4297E7"/>
<stop offset="1" stop-color="#0069CC"/>
</radialGradient>
<radialGradient id="paint60_radial_669_17062" cx="0" cy="0" r="1" gradientUnits="userSpaceOnUse" gradientTransform="translate(461.468 75.3902) rotate(126.132) scale(693.212 744.674)">
<stop stop-color="#4297E7"/>
<stop offset="1" stop-color="#0069CC"/>
</radialGradient>
<radialGradient id="paint61_radial_669_17062" cx="0" cy="0" r="1" gradientUnits="userSpaceOnUse" gradientTransform="translate(461.468 75.3899) rotate(126.132) scale(693.212 744.674)">
<stop stop-color="#4297E7"/>
<stop offset="1" stop-color="#0069CC"/>
</radialGradient>
<radialGradient id="paint62_radial_669_17062" cx="0" cy="0" r="1" gradientUnits="userSpaceOnUse" gradientTransform="translate(461.469 75.3899) rotate(126.132) scale(693.212 744.674)">
<stop stop-color="#4297E7"/>
<stop offset="1" stop-color="#0069CC"/>
</radialGradient>
<radialGradient id="paint63_radial_669_17062" cx="0" cy="0" r="1" gradientUnits="userSpaceOnUse" gradientTransform="translate(461.469 75.3899) rotate(126.132) scale(693.212 744.674)">
<stop stop-color="#4297E7"/>
<stop offset="1" stop-color="#0069CC"/>
</radialGradient>
<radialGradient id="paint64_radial_669_17062" cx="0" cy="0" r="1" gradientUnits="userSpaceOnUse" gradientTransform="translate(461.469 75.3888) rotate(126.132) scale(693.213 744.675)">
<stop stop-color="#4297E7"/>
<stop offset="1" stop-color="#0069CC"/>
</radialGradient>
<radialGradient id="paint65_radial_669_17062" cx="0" cy="0" r="1" gradientUnits="userSpaceOnUse" gradientTransform="translate(461.468 75.3902) rotate(126.132) scale(693.212 744.674)">
<stop stop-color="#4297E7"/>
<stop offset="1" stop-color="#0069CC"/>
</radialGradient>
<radialGradient id="paint66_radial_669_17062" cx="0" cy="0" r="1" gradientUnits="userSpaceOnUse" gradientTransform="translate(461.469 75.3909) rotate(126.132) scale(693.212 744.675)">
<stop stop-color="#4297E7"/>
<stop offset="1" stop-color="#0069CC"/>
</radialGradient>
<radialGradient id="paint67_radial_669_17062" cx="0" cy="0" r="1" gradientUnits="userSpaceOnUse" gradientTransform="translate(461.468 75.3901) rotate(126.132) scale(693.212 744.674)">
<stop stop-color="#4297E7"/>
<stop offset="1" stop-color="#0069CC"/>
</radialGradient>
<radialGradient id="paint68_radial_669_17062" cx="0" cy="0" r="1" gradientUnits="userSpaceOnUse" gradientTransform="translate(461.469 75.3903) rotate(126.132) scale(693.213 744.675)">
<stop stop-color="#4297E7"/>
<stop offset="1" stop-color="#0069CC"/>
</radialGradient>
<radialGradient id="paint69_radial_669_17062" cx="0" cy="0" r="1" gradientUnits="userSpaceOnUse" gradientTransform="translate(461.469 75.3898) rotate(126.132) scale(693.212 744.674)">
<stop stop-color="#4297E7"/>
<stop offset="1" stop-color="#0069CC"/>
</radialGradient>
<radialGradient id="paint70_radial_669_17062" cx="0" cy="0" r="1" gradientUnits="userSpaceOnUse" gradientTransform="translate(461.469 75.3907) rotate(126.132) scale(693.212 744.674)">
<stop stop-color="#4297E7"/>
<stop offset="1" stop-color="#0069CC"/>
</radialGradient>
<radialGradient id="paint71_radial_669_17062" cx="0" cy="0" r="1" gradientUnits="userSpaceOnUse" gradientTransform="translate(461.468 75.3895) rotate(126.132) scale(693.212 744.674)">
<stop stop-color="#4297E7"/>
<stop offset="1" stop-color="#0069CC"/>
</radialGradient>
<radialGradient id="paint72_radial_669_17062" cx="0" cy="0" r="1" gradientUnits="userSpaceOnUse" gradientTransform="translate(461.468 75.3908) rotate(126.132) scale(693.212 744.674)">
<stop stop-color="#4297E7"/>
<stop offset="1" stop-color="#0069CC"/>
</radialGradient>
<radialGradient id="paint73_radial_669_17062" cx="0" cy="0" r="1" gradientUnits="userSpaceOnUse" gradientTransform="translate(461.469 75.391) rotate(126.132) scale(693.212 744.675)">
<stop stop-color="#4297E7"/>
<stop offset="1" stop-color="#0069CC"/>
</radialGradient>
</defs>
</svg>
