<svg width="403" height="390" viewBox="0 0 403 390" fill="none" xmlns="http://www.w3.org/2000/svg">
<path d="M69.0104 147.002L36.5322 126.815C39.0453 128.375 41.7126 129.665 44.4937 130.667L76.9786 150.853C74.1952 149.851 71.5258 148.56 69.0104 147.002Z" fill="#999EA4"/>
<path d="M69.0104 147.002L36.5322 126.815C39.0453 128.375 41.7126 129.665 44.4937 130.667L76.9786 150.853C74.1952 149.851 71.5258 148.56 69.0104 147.002Z" fill="url(#paint0_radial_669_17589)"/>
<path d="M44.4937 130.667L76.9786 150.853C74.1908 149.852 71.5146 148.561 68.9948 147.002L36.5322 126.815C39.0453 128.375 41.7126 129.665 44.4937 130.667Z" fill="#999EA4"/>
<path d="M44.4937 130.667L76.9786 150.853C74.1908 149.852 71.5146 148.561 68.9948 147.002L36.5322 126.815C39.0453 128.375 41.7126 129.665 44.4937 130.667Z" fill="url(#paint1_radial_669_17589)"/>
<path d="M59.7455 237.693L92.2304 257.921C91.6876 257.993 91.1537 258.082 90.6109 258.18L58.126 237.952C58.6688 237.872 59.2027 237.767 59.7455 237.693Z" fill="#999EA4"/>
<path d="M59.7455 237.693L92.2304 257.921C91.6876 257.993 91.1537 258.082 90.6109 258.18L58.126 237.952C58.6688 237.872 59.2027 237.767 59.7455 237.693Z" fill="url(#paint2_radial_669_17589)"/>
<path d="M59.7455 237.693L92.2304 257.921C91.6876 257.993 91.1537 258.082 90.6109 258.18L58.126 237.952C58.6688 237.856 59.2027 237.767 59.7455 237.693Z" fill="#999EA4"/>
<path d="M59.7455 237.693L92.2304 257.921C91.6876 257.993 91.1537 258.082 90.6109 258.18L58.126 237.952C58.6688 237.856 59.2027 237.767 59.7455 237.693Z" fill="url(#paint3_radial_669_17589)"/>
<path d="M225.383 5.92188L257.859 26.1491C260.562 27.822 263.014 29.8707 265.141 32.2335C266.158 33.3672 267.098 34.5672 267.956 35.8258L235.44 15.5985C234.575 14.3418 233.632 13.142 232.616 12.0063C230.503 9.64662 228.068 7.59817 225.383 5.92188Z" fill="#999EA4"/>
<path d="M225.383 5.92188L257.859 26.1491C260.562 27.822 263.014 29.8707 265.141 32.2335C266.158 33.3672 267.098 34.5672 267.956 35.8258L235.44 15.5985C234.575 14.3418 233.632 13.142 232.616 12.0063C230.503 9.64662 228.068 7.59817 225.383 5.92188Z" fill="url(#paint4_radial_669_17589)"/>
<path d="M225.383 5.92188L257.859 26.1491C258.725 26.683 259.559 27.2575 260.367 27.8723L227.882 7.6453C227.074 7.03032 226.241 6.45577 225.383 5.92188Z" fill="#999EA4"/>
<path d="M225.383 5.92188L257.859 26.1491C258.725 26.683 259.559 27.2575 260.367 27.8723L227.882 7.6453C227.074 7.03032 226.241 6.45577 225.383 5.92188Z" fill="url(#paint5_radial_669_17589)"/>
<path d="M227.884 7.64551L260.369 27.8725C261.177 28.5118 262.026 29.1912 262.795 29.9111L230.328 9.70826C229.517 8.98828 228.708 8.30852 227.899 7.66941" fill="#999EA4"/>
<path d="M227.884 7.64551L260.369 27.8725C261.177 28.5118 262.026 29.1912 262.795 29.9111L230.328 9.70826C229.517 8.98828 228.708 8.30852 227.899 7.66941" fill="url(#paint6_radial_669_17589)"/>
<path d="M230.326 9.70818L262.811 29.9359C263.62 30.6641 264.373 31.4408 265.107 32.258L265.246 32.4116L232.761 12.136L232.623 11.9823C231.894 11.1732 231.126 10.364 230.326 9.66016" fill="#999EA4"/>
<path d="M230.326 9.70818L262.811 29.9359C263.62 30.6641 264.373 31.4408 265.107 32.258L265.246 32.4116L232.761 12.136L232.623 11.9823C231.894 11.1732 231.126 10.364 230.326 9.66016" fill="url(#paint7_radial_669_17589)"/>
<path d="M232.761 12.1357L265.246 32.3627C266.115 33.3443 266.926 34.3763 267.672 35.4535L235.205 15.2506C234.454 14.175 233.643 13.143 232.776 12.1599" fill="#999EA4"/>
<path d="M232.761 12.1357L265.246 32.3627C266.115 33.3443 266.926 34.3763 267.672 35.4535L235.205 15.2506C234.454 14.175 233.643 13.143 232.776 12.1599" fill="url(#paint8_radial_669_17589)"/>
<path d="M235.204 15.251L267.68 35.4378L267.924 35.7856L235.439 15.5988L235.195 15.251" fill="#999EA4"/>
<path d="M235.204 15.251L267.68 35.4378L267.924 35.7856L235.439 15.5988L235.195 15.251" fill="url(#paint9_radial_669_17589)"/>
<path d="M248.531 20.356L281.016 40.5832C284.57 42.799 287.684 45.6547 290.2 49.0057L257.715 28.7785C255.202 25.4257 252.088 22.5695 248.531 20.356Z" fill="#999EA4"/>
<path d="M248.531 20.356L281.016 40.5832C284.57 42.799 287.684 45.6547 290.2 49.0057L257.715 28.7785C255.202 25.4257 252.088 22.5695 248.531 20.356Z" fill="url(#paint10_radial_669_17589)"/>
<path d="M248.531 20.356L281.016 40.5832C281.881 41.1171 282.723 41.6997 283.54 42.3146L251.055 22.0874C250.247 21.4724 249.396 20.8981 248.531 20.356Z" fill="#999EA4"/>
<path d="M248.531 20.356L281.016 40.5832C281.881 41.1171 282.723 41.6997 283.54 42.3146L251.055 22.0874C250.247 21.4724 249.396 20.8981 248.531 20.356Z" fill="url(#paint11_radial_669_17589)"/>
<path d="M251.056 22.0869L283.541 42.3141C284.389 42.9613 285.207 43.6491 285.969 44.3691L253.515 24.1418C252.707 23.4219 251.898 22.7341 251.087 22.0869" fill="#999EA4"/>
<path d="M251.056 22.0869L283.541 42.3141C284.389 42.9613 285.207 43.6491 285.969 44.3691L253.515 24.1418C252.707 23.4219 251.898 22.7341 251.087 22.0869" fill="url(#paint12_radial_669_17589)"/>
<path d="M253.514 24.1423L285.999 44.3693C286.852 45.15 287.663 45.9766 288.427 46.8451L255.949 26.6179C255.182 25.7514 254.374 24.9251 253.523 24.1421" fill="#999EA4"/>
<path d="M253.514 24.1423L285.999 44.3693C286.852 45.15 287.663 45.9766 288.427 46.8451L255.949 26.6179C255.182 25.7514 254.374 24.9251 253.523 24.1421" fill="url(#paint13_radial_669_17589)"/>
<path d="M255.948 26.6177L288.426 46.8449C289.041 47.53 289.63 48.2502 290.198 49.0055L257.713 28.7783C257.155 28.0259 256.563 27.3055 255.948 26.6177Z" fill="#999EA4"/>
<path d="M255.948 26.6177L288.426 46.8449C289.041 47.53 289.63 48.2502 290.198 49.0055L257.713 28.7783C257.155 28.0259 256.563 27.3055 255.948 26.6177Z" fill="url(#paint14_radial_669_17589)"/>
<path d="M257.713 28.7783L290.198 49.0055C292.023 51.4125 293.7 53.9283 295.222 56.5384L262.737 36.3111C261.222 33.6975 259.542 31.1815 257.713 28.7783Z" fill="#999EA4"/>
<path d="M257.713 28.7783L290.198 49.0055C292.023 51.4125 293.7 53.9283 295.222 56.5384L262.737 36.3111C261.222 33.6975 259.542 31.1815 257.713 28.7783Z" fill="url(#paint15_radial_669_17589)"/>
<path d="M257.713 28.7783L290.198 49.0055C290.763 49.7579 291.297 50.4944 291.815 51.2226L259.33 30.9954C258.821 30.2672 258.287 29.5307 257.713 28.7783Z" fill="#999EA4"/>
<path d="M257.713 28.7783L290.198 49.0055C290.763 49.7579 291.297 50.4944 291.815 51.2226L259.33 30.9954C258.821 30.2672 258.287 29.5307 257.713 28.7783Z" fill="url(#paint16_radial_669_17589)"/>
<path d="M259.332 30.9946L291.817 51.1814C293.072 52.9694 294.187 54.7089 295.224 56.4971L262.739 36.3103C261.702 34.5224 260.594 32.7826 259.332 30.9946Z" fill="#999EA4"/>
<path d="M259.332 30.9946L291.817 51.1814C293.072 52.9694 294.187 54.7089 295.224 56.4971L262.739 36.3103C261.702 34.5224 260.594 32.7826 259.332 30.9946Z" fill="url(#paint17_radial_669_17589)"/>
<path d="M60.6753 381.022L28.1592 360.853C37.4186 366.576 48.0987 369.583 58.9843 369.527L91.4692 389.712C80.5947 389.757 69.9236 386.748 60.6753 381.022Z" fill="#999EA4"/>
<path d="M60.6753 381.022L28.1592 360.853C37.4186 366.576 48.0987 369.583 58.9843 369.527L91.4692 389.712C80.5947 389.757 69.9236 386.748 60.6753 381.022Z" fill="url(#paint18_radial_669_17589)"/>
<path d="M58.9843 369.509L91.4692 389.696C80.5947 389.745 69.9258 386.741 60.6753 381.022L28.1592 360.853C37.4186 366.576 48.0987 369.583 58.9843 369.527" fill="#999EA4"/>
<path d="M58.9843 369.509L91.4692 389.696C80.5947 389.745 69.9258 386.741 60.6753 381.022L28.1592 360.853C37.4186 366.576 48.0987 369.583 58.9843 369.527" fill="url(#paint19_radial_669_17589)"/>
<path d="M335.248 130.667L367.724 150.854C368.948 155.853 369.373 161.013 368.986 166.146L336.501 145.959C336.888 140.827 336.463 135.667 335.248 130.667Z" fill="#999EA4"/>
<path d="M335.248 130.667L367.724 150.854C368.948 155.853 369.373 161.013 368.986 166.146L336.501 145.959C336.888 140.827 336.463 135.667 335.248 130.667Z" fill="url(#paint20_radial_669_17589)"/>
<path d="M335.248 130.667L367.724 150.854C368.93 155.795 369.359 160.894 368.995 165.967L336.517 145.781C336.881 140.707 336.452 135.608 335.248 130.667Z" fill="#999EA4"/>
<path d="M335.248 130.667L367.724 150.854C368.93 155.795 369.359 160.894 368.995 165.967L336.517 145.781C336.881 140.707 336.452 135.608 335.248 130.667Z" fill="url(#paint21_radial_669_17589)"/>
<path d="M336.519 145.781L368.997 165.968C368.997 166.024 368.997 166.089 368.997 166.145L336.503 145.959C336.503 145.902 336.503 145.845 336.503 145.781" fill="#999EA4"/>
<path d="M336.519 145.781L368.997 165.968C368.997 166.024 368.997 166.089 368.997 166.145L336.503 145.959C336.503 145.902 336.503 145.845 336.503 145.781" fill="url(#paint22_radial_669_17589)"/>
<path d="M336.502 145.958L368.986 166.145L368.857 167.925L336.372 147.738L336.502 145.958Z" fill="#999EA4"/>
<path d="M336.502 145.958L368.986 166.145L368.857 167.925L336.372 147.738L336.502 145.958Z" fill="url(#paint23_radial_669_17589)"/>
<path d="M336.372 147.739L368.857 167.926L370.709 170.976L338.233 150.789L336.372 147.739Z" fill="#999EA4"/>
<path d="M336.372 147.739L368.857 167.926L370.709 170.976L338.233 150.789L336.372 147.739Z" fill="url(#paint24_radial_669_17589)"/>
<path d="M349.9 42.6543L382.385 62.8815C395.815 71.2313 404.149 86.9599 402.847 104.954C401.292 126.298 386.665 144.462 367.724 150.894L335.248 130.667C354.164 124.234 368.807 106.07 370.362 84.7267C371.671 66.7407 363.33 50.9717 349.9 42.6543Z" fill="#999EA4"/>
<path d="M349.9 42.6543L382.385 62.8815C395.815 71.2313 404.149 86.9599 402.847 104.954C401.292 126.298 386.665 144.462 367.724 150.894L335.248 130.667C354.164 124.234 368.807 106.07 370.362 84.7267C371.671 66.7407 363.33 50.9717 349.9 42.6543Z" fill="url(#paint25_radial_669_17589)"/>
<path d="M349.901 42.6543L382.386 62.8815C383.479 63.5611 384.546 64.2893 385.565 65.066L353.089 44.8388C352.062 44.0297 351 43.3338 349.901 42.6543Z" fill="#999EA4"/>
<path d="M349.901 42.6543L382.386 62.8815C383.479 63.5611 384.546 64.2893 385.565 65.066L353.089 44.8388C352.062 44.0297 351 43.3338 349.901 42.6543Z" fill="url(#paint26_radial_669_17589)"/>
<path d="M353.089 44.8389L385.565 65.0661C386.644 65.8806 387.674 66.7408 388.656 67.6469L356.178 47.4199C355.182 46.5136 354.152 45.6533 353.089 44.8389Z" fill="#999EA4"/>
<path d="M353.089 44.8389L385.565 65.0661C386.644 65.8806 387.674 66.7408 388.656 67.6469L356.178 47.4199C355.182 46.5136 354.152 45.6533 353.089 44.8389Z" fill="url(#paint27_radial_669_17589)"/>
<path d="M356.178 47.4202L388.656 67.6471C389.735 68.6236 390.742 69.6509 391.681 70.7297L359.229 50.5027C358.264 49.4237 357.254 48.3963 356.202 47.4199" fill="#999EA4"/>
<path d="M356.178 47.4202L388.656 67.6471C389.735 68.6236 390.742 69.6509 391.681 70.7297L359.229 50.5027C358.264 49.4237 357.254 48.3963 356.202 47.4199" fill="url(#paint28_radial_669_17589)"/>
<path d="M359.23 50.5024L391.706 70.7297C392.812 71.9755 393.846 73.283 394.805 74.6456L362.298 54.4184C361.35 53.0546 360.327 51.7469 359.23 50.5024Z" fill="#999EA4"/>
<path d="M359.23 50.5024L391.706 70.7297C392.812 71.9755 393.846 73.283 394.805 74.6456L362.298 54.4184C361.35 53.0546 360.327 51.7469 359.23 50.5024Z" fill="url(#paint29_radial_669_17589)"/>
<path d="M362.297 54.4175L394.782 74.6043C395.988 76.3237 397.069 78.1273 398.016 80.0009L365.532 59.8143C364.584 57.9405 363.501 56.1371 362.297 54.4175Z" fill="#999EA4"/>
<path d="M362.297 54.4175L394.782 74.6043C395.988 76.3237 397.069 78.1273 398.016 80.0009L365.532 59.8143C364.584 57.9405 363.501 56.1371 362.297 54.4175Z" fill="url(#paint30_radial_669_17589)"/>
<path d="M365.532 59.8156L398.01 80.0021C401.835 87.6504 403.512 96.193 402.865 104.72L370.389 84.4926C371.032 75.9662 369.354 67.4246 365.532 59.7749" fill="#999EA4"/>
<path d="M365.532 59.8156L398.01 80.0021C401.835 87.6504 403.512 96.193 402.865 104.72L370.389 84.4926C371.032 75.9662 369.354 67.4246 365.532 59.7749" fill="url(#paint31_radial_669_17589)"/>
<path d="M370.378 84.5327L402.854 104.76C402.854 104.824 402.854 104.889 402.854 104.954C402.696 107.103 402.405 109.241 401.981 111.354L369.505 91.1266C369.925 89.0136 370.215 86.876 370.369 84.7268C370.369 84.6621 370.369 84.5975 370.369 84.5327" fill="#999EA4"/>
<path d="M370.378 84.5327L402.854 104.76C402.854 104.824 402.854 104.889 402.854 104.954C402.696 107.103 402.405 109.241 401.981 111.354L369.505 91.1266C369.925 89.0136 370.215 86.876 370.369 84.7268C370.369 84.6621 370.369 84.5975 370.369 84.5327" fill="url(#paint32_radial_669_17589)"/>
<path d="M369.497 91.126L401.973 111.353C401.638 113.046 401.218 114.72 400.711 116.37L368.229 96.1424C368.736 94.4926 369.16 92.8184 369.497 91.126Z" fill="#999EA4"/>
<path d="M369.497 91.126L401.973 111.353C401.638 113.046 401.218 114.72 400.711 116.37L368.229 96.1424C368.736 94.4926 369.16 92.8184 369.497 91.126Z" fill="url(#paint33_radial_669_17589)"/>
<path d="M368.227 96.1426L400.709 116.37C400.258 117.853 399.742 119.301 399.166 120.715L366.688 100.536C367.259 99.1121 367.773 97.6609 368.224 96.183" fill="#999EA4"/>
<path d="M368.227 96.1426L400.709 116.37C400.258 117.853 399.742 119.301 399.166 120.715L366.688 100.536C367.259 99.1121 367.773 97.6609 368.224 96.183" fill="url(#paint34_radial_669_17589)"/>
<path d="M366.689 100.496L399.167 120.674C398.633 122.017 398.034 123.32 397.393 124.607L364.893 104.42C365.531 103.133 366.123 101.831 366.664 100.496" fill="#999EA4"/>
<path d="M366.689 100.496L399.167 120.674C398.633 122.017 398.034 123.32 397.393 124.607L364.893 104.42C365.531 103.133 366.123 101.831 366.664 100.496" fill="url(#paint35_radial_669_17589)"/>
<path d="M364.893 104.42L397.393 124.598C396.763 125.852 396.091 127.074 395.363 128.272L362.887 108.044C363.61 106.847 364.287 105.623 364.917 104.371" fill="#999EA4"/>
<path d="M364.893 104.42L397.393 124.598C396.763 125.852 396.091 127.074 395.363 128.272L362.887 108.044C363.61 106.847 364.287 105.623 364.917 104.371" fill="url(#paint36_radial_669_17589)"/>
<path d="M362.886 108.093L395.362 128.32C394.633 129.523 393.863 130.696 393.047 131.839L360.571 111.612C361.38 110.472 362.191 109.298 362.886 108.093Z" fill="#999EA4"/>
<path d="M362.886 108.093L395.362 128.32C394.633 129.523 393.863 130.696 393.047 131.839L360.571 111.612C361.38 110.472 362.191 109.298 362.886 108.093Z" fill="url(#paint37_radial_669_17589)"/>
<path d="M360.573 111.653L393.049 131.88C392.209 133.051 391.322 134.189 390.388 135.294L357.903 115.067C358.83 113.988 359.722 112.85 360.573 111.653Z" fill="#999EA4"/>
<path d="M360.573 111.653L393.049 131.88C392.209 133.051 391.322 134.189 390.388 135.294L357.903 115.067C358.83 113.988 359.722 112.85 360.573 111.653Z" fill="url(#paint38_radial_669_17589)"/>
<path d="M357.903 115.027L390.388 135.254C389.392 136.435 388.342 137.568 387.256 138.652L354.771 118.465C355.85 117.387 356.894 116.254 357.903 115.068" fill="#999EA4"/>
<path d="M357.903 115.027L390.388 135.254C389.392 136.435 388.342 137.568 387.256 138.652L354.771 118.465C355.85 117.387 356.894 116.254 357.903 115.068" fill="url(#paint39_radial_669_17589)"/>
<path d="M354.771 118.426L387.256 138.612C386.038 139.826 384.767 140.975 383.445 142.059L350.96 121.832C352.287 120.748 353.56 119.597 354.771 118.385" fill="#999EA4"/>
<path d="M354.771 118.426L387.256 138.612C386.038 139.826 384.767 140.975 383.445 142.059L350.96 121.832C352.287 120.748 353.56 119.597 354.771 118.385" fill="url(#paint40_radial_669_17589)"/>
<path d="M350.96 121.872L383.445 142.099C381.81 143.438 380.099 144.678 378.316 145.813L345.831 125.626C347.614 124.493 349.327 123.253 350.96 121.912" fill="#999EA4"/>
<path d="M350.96 121.872L383.445 142.099C381.81 143.438 380.099 144.678 378.316 145.813L345.831 125.626C347.614 124.493 349.327 123.253 350.96 121.912" fill="url(#paint41_radial_669_17589)"/>
<path d="M345.83 125.585L378.315 145.772C374.998 147.879 371.443 149.585 367.724 150.853L335.248 130.667C338.963 129.398 342.517 127.692 345.83 125.585Z" fill="#999EA4"/>
<path d="M345.83 125.585L378.315 145.772C374.998 147.879 371.443 149.585 367.724 150.853L335.248 130.667C338.963 129.398 342.517 127.692 345.83 125.585Z" fill="url(#paint42_radial_669_17589)"/>
<path d="M336.916 258.099L304.431 237.911C304.201 237.759 304.011 237.554 303.879 237.312L336.364 257.5C336.493 257.741 336.683 257.949 336.916 258.099Z" fill="#999EA4"/>
<path d="M336.916 258.099L304.431 237.911C304.201 237.759 304.011 237.554 303.879 237.312L336.364 257.5C336.493 257.741 336.683 257.949 336.916 258.099Z" fill="url(#paint43_radial_669_17589)"/>
<path d="M303.879 237.322L336.364 257.507L336.462 257.671L303.984 237.443L303.879 237.28" fill="#999EA4"/>
<path d="M303.879 237.322L336.364 257.507L336.462 257.671L303.984 237.443L303.879 237.28" fill="url(#paint44_radial_669_17589)"/>
<path d="M303.983 237.482L336.462 257.71C336.502 257.768 336.549 257.826 336.598 257.88L304.113 237.692C304.066 237.639 304.024 237.583 303.983 237.523" fill="#999EA4"/>
<path d="M303.983 237.482L336.462 257.71C336.502 257.768 336.549 257.826 336.598 257.88L304.113 237.692C304.066 237.639 304.024 237.583 303.983 237.523" fill="url(#paint45_radial_669_17589)"/>
<path d="M304.114 237.653L336.575 257.84L336.688 257.952L304.213 237.767L304.099 237.653" fill="#999EA4"/>
<path d="M304.114 237.653L336.575 257.84L336.688 257.952L304.213 237.767L304.099 237.653" fill="url(#paint46_radial_669_17589)"/>
<path d="M304.212 237.766L336.697 257.951L336.793 258.034L304.333 237.871L304.228 237.782" fill="#999EA4"/>
<path d="M304.212 237.766L336.697 257.951L336.793 258.034L304.333 237.871L304.228 237.782" fill="url(#paint47_radial_669_17589)"/>
<path d="M304.332 237.871L336.808 258.05L336.915 258.121L304.43 237.936L304.332 237.871Z" fill="#999EA4"/>
<path d="M304.332 237.871L336.808 258.05L336.915 258.121L304.43 237.936L304.332 237.871Z" fill="url(#paint48_radial_669_17589)"/>
<path d="M305.804 238.292L338.289 258.479L336.364 257.507L303.879 237.322L305.804 238.292Z" fill="#999EA4"/>
<path d="M305.804 238.292L338.289 258.479L336.364 257.507L303.879 237.322L305.804 238.292Z" fill="url(#paint49_radial_669_17589)"/>
<path d="M336.623 191.469L369.101 211.656L338.29 258.478L305.805 238.291L336.623 191.469Z" fill="#999EA4"/>
<path d="M336.623 191.469L369.101 211.656L338.29 258.478L305.805 238.291L336.623 191.469Z" fill="url(#paint50_radial_669_17589)"/>
<path d="M338.234 150.79L370.71 170.976C378.057 183.048 377.427 199.018 369.092 211.657L336.616 191.43C344.942 178.808 345.572 162.861 338.234 150.79Z" fill="#999EA4"/>
<path d="M338.234 150.79L370.71 170.976C378.057 183.048 377.427 199.018 369.092 211.657L336.616 191.43C344.942 178.808 345.572 162.861 338.234 150.79Z" fill="url(#paint51_radial_669_17589)"/>
<path d="M338.232 150.79L370.708 170.976C371.171 171.729 371.6 172.49 371.988 173.274L339.51 153.088C339.115 152.279 338.702 151.542 338.232 150.79Z" fill="#999EA4"/>
<path d="M338.232 150.79L370.708 170.976C371.171 171.729 371.6 172.49 371.988 173.274L339.51 153.088C339.115 152.279 338.702 151.542 338.232 150.79Z" fill="url(#paint52_radial_669_17589)"/>
<path d="M339.511 153.088L371.989 173.274C374.918 179.133 376.206 185.676 375.717 192.207L343.241 172.02C343.724 165.489 342.435 158.948 339.511 153.088Z" fill="#999EA4"/>
<path d="M339.511 153.088L371.989 173.274C374.918 179.133 376.206 185.676 375.717 192.207L343.241 172.02C343.724 165.489 342.435 158.948 339.511 153.088Z" fill="url(#paint53_radial_669_17589)"/>
<path d="M343.242 172.02L375.718 192.207C375.609 193.898 375.383 195.577 375.048 197.239L342.572 177.061C342.903 175.397 343.126 173.712 343.242 172.02Z" fill="#999EA4"/>
<path d="M343.242 172.02L375.718 192.207C375.609 193.898 375.383 195.577 375.048 197.239L342.572 177.061C342.903 175.397 343.126 173.712 343.242 172.02Z" fill="url(#paint54_radial_669_17589)"/>
<path d="M342.571 177.061L375.046 197.24C374.787 198.542 374.463 199.829 374.075 201.106L341.59 180.919C341.983 179.65 342.309 178.363 342.571 177.061Z" fill="#999EA4"/>
<path d="M342.571 177.061L375.046 197.24C374.787 198.542 374.463 199.829 374.075 201.106L341.59 180.919C341.983 179.65 342.309 178.363 342.571 177.061Z" fill="url(#paint55_radial_669_17589)"/>
<path d="M341.592 180.919L374.077 201.107C373.728 202.23 373.342 203.34 372.895 204.44L340.41 184.212C340.857 183.113 341.221 182.005 341.592 180.879" fill="#999EA4"/>
<path d="M341.592 180.919L374.077 201.107C373.728 202.23 373.342 203.34 372.895 204.44L340.41 184.212C340.857 183.113 341.221 182.005 341.592 180.879" fill="url(#paint56_radial_669_17589)"/>
<path d="M340.409 184.254L372.894 204.479C372.483 205.5 372.021 206.51 371.527 207.506L339.042 187.279C339.545 186.284 339.998 185.273 340.409 184.254Z" fill="#999EA4"/>
<path d="M340.409 184.254L372.894 204.479C372.483 205.5 372.021 206.51 371.527 207.506L339.042 187.279C339.545 186.284 339.998 185.273 340.409 184.254Z" fill="url(#paint57_radial_669_17589)"/>
<path d="M339.041 187.278L371.526 207.506C371.05 208.46 370.523 209.398 369.964 210.33L337.488 190.102C338.047 189.173 338.565 188.232 339.041 187.278Z" fill="#999EA4"/>
<path d="M339.041 187.278L371.526 207.506C371.05 208.46 370.523 209.398 369.964 210.33L337.488 190.102C338.047 189.173 338.565 188.232 339.041 187.278Z" fill="url(#paint58_radial_669_17589)"/>
<path d="M337.49 190.136L369.966 210.362C369.691 210.824 369.401 211.278 369.101 211.731L336.623 191.503C336.922 191.05 337.206 190.596 337.49 190.136Z" fill="#999EA4"/>
<path d="M337.49 190.136L369.966 210.362C369.691 210.824 369.401 211.278 369.101 211.731L336.623 191.503C336.922 191.05 337.206 190.596 337.49 190.136Z" fill="url(#paint59_radial_669_17589)"/>
<path d="M283.984 369.509L316.469 389.696H91.4693L58.9844 369.509H283.984Z" fill="#999EA4"/>
<path d="M283.984 369.509L316.469 389.696H91.4693L58.9844 369.509H283.984Z" fill="url(#paint60_radial_669_17589)"/>
<path d="M324.441 245.832L356.926 266.057C375.438 277.555 386.732 298.996 384.943 323.504C382.289 360.009 351.593 389.727 316.51 389.727L283.985 369.508C319.068 369.508 349.773 339.791 352.427 303.285C354.207 278.77 342.913 257.336 324.441 245.832Z" fill="#999EA4"/>
<path d="M324.441 245.832L356.926 266.057C375.438 277.555 386.732 298.996 384.943 323.504C382.289 360.009 351.593 389.727 316.51 389.727L283.985 369.508C319.068 369.508 349.773 339.791 352.427 303.285C354.207 278.77 342.913 257.336 324.441 245.832Z" fill="url(#paint61_radial_669_17589)"/>
<path d="M324.439 245.832L356.924 266.057C358.439 266.998 359.904 268.003 361.316 269.075L328.831 248.89C327.424 247.813 325.952 246.81 324.439 245.872" fill="#999EA4"/>
<path d="M324.439 245.832L356.924 266.057C358.439 266.998 359.904 268.003 361.316 269.075L328.831 248.89C327.424 247.813 325.952 246.81 324.439 245.872" fill="url(#paint62_radial_669_17589)"/>
<path d="M328.791 248.85L361.276 269.035C362.757 270.152 364.182 271.35 365.549 272.605L333.071 252.433C331.704 251.18 330.281 250.007 328.791 248.866" fill="#999EA4"/>
<path d="M328.791 248.85L361.276 269.035C362.757 270.152 364.182 271.35 365.549 272.605L333.071 252.433C331.704 251.18 330.281 250.007 328.791 248.866" fill="url(#paint63_radial_669_17589)"/>
<path d="M333.071 252.434L365.549 272.621C367.013 273.964 368.407 275.382 369.725 276.868L337.24 256.682C335.922 255.197 334.532 253.778 333.071 252.434Z" fill="#999EA4"/>
<path d="M333.071 252.434L365.549 272.621C367.013 273.964 368.407 275.382 369.725 276.868L337.24 256.682C335.922 255.197 334.532 253.778 333.071 252.434Z" fill="url(#paint64_radial_669_17589)"/>
<path d="M337.24 256.665L369.747 276.852C371.244 278.539 372.645 280.308 373.94 282.153L341.456 261.925C340.164 260.076 338.764 258.307 337.263 256.625" fill="#999EA4"/>
<path d="M337.24 256.665L369.747 276.852C371.244 278.539 372.645 280.308 373.94 282.153L341.456 261.925C340.164 260.076 338.764 258.307 337.263 256.625" fill="url(#paint65_radial_669_17589)"/>
<path d="M341.431 261.966L373.916 282.191C375.562 284.544 377.036 287.01 378.332 289.572L345.856 269.344C344.56 266.78 343.081 264.314 341.431 261.966Z" fill="#999EA4"/>
<path d="M341.431 261.966L373.916 282.191C375.562 284.544 377.036 287.01 378.332 289.572L345.856 269.344C344.56 266.78 343.081 264.314 341.431 261.966Z" fill="url(#paint66_radial_669_17589)"/>
<path d="M345.854 269.345L378.33 289.572C383.529 299.996 385.809 311.632 384.925 323.246L352.44 303.018C353.329 291.406 351.053 279.768 345.854 269.345Z" fill="#999EA4"/>
<path d="M345.854 269.345L378.33 289.572C383.529 299.996 385.809 311.632 384.925 323.246L352.44 303.018C353.329 291.406 351.053 279.768 345.854 269.345Z" fill="url(#paint67_radial_669_17589)"/>
<path d="M352.44 303.017L384.925 323.245V323.513C384.715 326.419 384.324 329.312 383.752 332.169L351.276 311.982C351.844 309.124 352.235 306.232 352.449 303.325C352.449 303.236 352.449 303.147 352.449 303.057" fill="#999EA4"/>
<path d="M352.44 303.017L384.925 323.245V323.513C384.715 326.419 384.324 329.312 383.752 332.169L351.276 311.982C351.844 309.124 352.235 306.232 352.449 303.325C352.449 303.236 352.449 303.147 352.449 303.057" fill="url(#paint68_radial_669_17589)"/>
<path d="M351.253 311.942L383.729 332.129C383.264 334.479 382.681 336.805 381.982 339.097L349.521 318.909C350.223 316.617 350.808 314.292 351.277 311.942" fill="#999EA4"/>
<path d="M351.253 311.942L383.729 332.129C383.264 334.479 382.681 336.805 381.982 339.097L349.521 318.909C350.223 316.617 350.808 314.292 351.277 311.942" fill="url(#paint69_radial_669_17589)"/>
<path d="M349.521 318.91L382.006 339.095C381.389 341.114 380.688 343.087 379.902 345.019L347.426 324.832C348.234 322.897 348.905 320.925 349.521 318.91Z" fill="#999EA4"/>
<path d="M349.521 318.91L382.006 339.095C381.389 341.114 380.688 343.087 379.902 345.019L347.426 324.832C348.234 322.897 348.905 320.925 349.521 318.91Z" fill="url(#paint70_radial_669_17589)"/>
<path d="M347.402 324.832L379.878 345.019C379.145 346.846 378.334 348.638 377.45 350.391L344.974 330.204C345.847 328.45 346.656 326.661 347.402 324.832Z" fill="#999EA4"/>
<path d="M347.402 324.832L379.878 345.019C379.145 346.846 378.334 348.638 377.45 350.391L344.974 330.204C345.847 328.45 346.656 326.661 347.402 324.832Z" fill="url(#paint71_radial_669_17589)"/>
<path d="M344.973 330.204L377.449 350.391C376.593 352.107 375.662 353.78 374.674 355.415L342.189 335.228C343.186 333.61 344.108 331.919 344.973 330.204Z" fill="#999EA4"/>
<path d="M344.973 330.204L377.449 350.391C376.593 352.107 375.662 353.78 374.674 355.415L342.189 335.228C343.186 333.61 344.108 331.919 344.973 330.204Z" fill="url(#paint72_radial_669_17589)"/>
<path d="M342.191 335.228L374.675 355.415C373.684 357.066 372.627 358.683 371.503 360.269L339.027 340.042C340.144 338.482 341.199 336.878 342.191 335.228Z" fill="#999EA4"/>
<path d="M342.191 335.228L374.675 355.415C373.684 357.066 372.627 358.683 371.503 360.269L339.027 340.042C340.144 338.482 341.199 336.878 342.191 335.228Z" fill="url(#paint73_radial_669_17589)"/>
<path d="M339.001 340.042L371.476 360.27C370.322 361.887 369.106 363.448 367.829 364.954L335.353 344.767C336.621 343.263 337.843 341.693 339.001 340.082" fill="#999EA4"/>
<path d="M339.001 340.042L371.476 360.27C370.322 361.887 369.106 363.448 367.829 364.954L335.353 344.767C336.621 343.263 337.843 341.693 339.001 340.082" fill="url(#paint74_radial_669_17589)"/>
<path d="M335.377 344.726L367.855 364.898C366.494 366.515 365.062 368.052 363.581 369.542L331.099 349.355C332.586 347.874 334.009 346.321 335.377 344.71" fill="#999EA4"/>
<path d="M335.377 344.726L367.855 364.898C366.494 366.515 365.062 368.052 363.581 369.542L331.099 349.355C332.586 347.874 334.009 346.321 335.377 344.71" fill="url(#paint75_radial_669_17589)"/>
<path d="M331.097 349.371L363.582 369.558C361.907 371.218 360.158 372.795 358.339 374.292L325.854 354.104C327.675 352.616 329.422 351.03 331.097 349.371Z" fill="#999EA4"/>
<path d="M331.097 349.371L363.582 369.558C361.907 371.218 360.158 372.795 358.339 374.292L325.854 354.104C327.675 352.616 329.422 351.03 331.097 349.371Z" fill="url(#paint76_radial_669_17589)"/>
<path d="M325.855 354.104L358.34 374.291C356.102 376.119 353.756 377.812 351.317 379.356L318.832 359.168C321.271 357.625 323.617 355.934 325.855 354.104Z" fill="#999EA4"/>
<path d="M325.855 354.104L358.34 374.291C356.102 376.119 353.756 377.812 351.317 379.356L318.832 359.168C321.271 357.625 323.617 355.934 325.855 354.104Z" fill="url(#paint77_radial_669_17589)"/>
<path d="M318.834 359.168L351.319 379.356C340.918 386.04 328.832 389.627 316.47 389.696L283.985 369.509C296.348 369.442 308.435 365.854 318.834 359.168Z" fill="#999EA4"/>
<path d="M318.834 359.168L351.319 379.356C340.918 386.04 328.832 389.627 316.47 389.696L283.985 369.509C296.348 369.442 308.435 365.854 318.834 359.168Z" fill="url(#paint78_radial_669_17589)"/>
<path d="M305.158 238.171C334.6 244.263 354.763 271.134 352.424 303.286C349.77 339.817 319.066 369.509 283.983 369.509H58.9832C23.9025 369.509 -2.43476 339.817 0.178868 303.286C2.46858 271.789 25.6249 245.349 54.4618 238.68C55.6748 238.397 56.8878 238.147 58.1254 237.946L59.7449 237.686C59.2021 237.758 58.6682 237.847 58.1254 237.946L55.0114 231.867L34.29 191.47C27.8185 178.824 29.5006 162.853 38.6036 150.781L40.8934 147.739L41.0229 145.959C41.4049 140.717 42.5754 135.562 44.4921 130.668C26.5318 124.235 14.556 106.071 16.0617 84.7277C18.0029 58.0276 40.4555 36.3117 66.1115 36.3117H130.733C132.547 33.8203 134.486 31.4222 136.543 29.1272C141.813 23.1085 148.715 18.7491 156.413 16.5782C157.921 16.1522 159.454 15.8225 161.002 15.5911C162.049 14.328 163.171 13.1284 164.359 11.9988C169.975 6.54322 177.061 2.84773 184.748 1.36735C189.551 0.470896 194.427 0.0134033 199.312 8.63608e-08C204.013 -0.0002233 208.704 0.432924 213.326 1.29453C220.746 2.63239 227.513 6.40092 232.557 12.0068C233.593 13.1407 234.556 14.3408 235.439 15.5991C244.309 16.876 252.315 21.6149 257.704 28.7791C259.535 31.1823 261.213 33.6981 262.728 36.3117H327.351C353.007 36.3117 372.294 58.0359 370.353 84.7277C368.8 106.071 354.171 124.235 335.239 130.668C336.456 135.668 336.878 140.828 336.492 145.959L336.362 147.739L338.223 150.79C345.562 162.861 344.932 178.833 336.606 191.47L305.828 238.292L303.902 237.322C304.027 237.555 304.206 237.753 304.425 237.903C304.644 238.051 304.894 238.142 305.158 238.171Z" fill="#228DFD"/>
<g filter="url(#filter0_d_669_17589)">
<path d="M245.916 100.537L239.306 94.6869C239.758 92.6793 240.052 90.6308 240.175 88.594C240.298 86.5572 240.253 84.5002 240.043 82.5081L247.368 76.5595C247.922 76.1094 248.336 75.5123 248.552 74.8475C248.769 74.1827 248.78 73.4814 248.586 72.8376L248.505 72.5638C246.91 67.2655 244.335 62.3621 240.906 58.0912L240.727 57.871C240.309 57.3523 239.735 56.9812 239.078 56.807C238.422 56.6327 237.713 56.6633 237.048 56.8945L228.211 60.0056C225.17 57.4318 221.737 55.4095 217.966 54.012L216.836 45.0638C216.749 44.3896 216.456 43.771 215.996 43.2898C215.533 42.8089 214.926 42.4883 214.251 42.3708L213.965 42.3199C208.486 41.3669 202.646 41.408 197.046 42.4392L196.756 42.4939C196.065 42.621 195.417 42.9505 194.897 43.4384C194.377 43.9265 194.008 44.5497 193.84 45.2255L191.613 54.2396C187.704 55.7028 184.022 57.7702 180.707 60.3611L172.179 57.3514C171.54 57.1273 170.834 57.1059 170.155 57.2897C169.476 57.4736 168.857 57.8538 168.377 58.3803L168.171 58.6032C164.228 62.9309 161.056 67.8733 158.811 73.1953L158.697 73.4705C158.139 74.7929 158.443 76.2678 159.463 77.1783L166.156 83.0915C165.705 85.0779 165.423 87.1054 165.3 89.1105C165.18 91.1368 165.216 93.162 165.428 95.1227L158.034 101.135C157.48 101.585 157.066 102.182 156.85 102.847C156.633 103.512 156.622 104.213 156.818 104.857L156.897 105.131C158.505 110.426 161.052 115.313 164.499 119.603L164.677 119.823C165.093 120.342 165.667 120.713 166.324 120.887C166.98 121.062 167.688 121.031 168.356 120.8L177.258 117.667C180.276 120.231 183.69 122.253 187.429 123.64L188.568 132.631C188.653 133.305 188.946 133.923 189.408 134.405C189.869 134.886 190.478 135.206 191.153 135.324L191.437 135.375C196.298 136.216 201.308 136.287 206.285 135.59C206.978 135.493 207.668 135.382 208.358 135.255L208.649 135.201C209.337 135.073 209.985 134.744 210.505 134.256C211.026 133.768 211.394 133.145 211.562 132.469L213.778 123.497C217.72 122.035 221.404 119.973 224.757 117.354L233.226 120.343C233.862 120.567 234.568 120.589 235.247 120.405C235.926 120.221 236.547 119.841 237.025 119.314L237.231 119.091C237.754 118.516 238.263 117.932 238.757 117.339C242.014 113.428 244.639 109.12 246.593 104.499L246.705 104.224C247.243 102.912 246.937 101.448 245.916 100.537Z" stroke="#E5EDF6" stroke-width="3.56657"/>
<g filter="url(#filter1_d_669_17589)">
<path fill-rule="evenodd" clip-rule="evenodd" d="M203.461 82.0909C199.923 82.1156 196.88 84.9998 196.666 88.5324C196.451 92.0651 199.147 94.9086 202.686 94.8835C206.227 94.8588 209.269 91.9748 209.481 88.4422C209.696 84.9095 207.002 82.0658 203.461 82.0909ZM188.7 88.5885C189.18 80.6636 196.004 74.1941 203.944 74.1381C211.883 74.0822 217.93 80.4612 217.449 88.3861C216.969 96.3108 210.145 102.78 202.206 102.836C194.266 102.892 188.219 96.5132 188.7 88.5885Z" fill="#E5EDF6"/>
<path fill-rule="evenodd" clip-rule="evenodd" d="M86.0704 305.301C82.5319 305.325 79.4894 308.209 79.275 311.741C79.0605 315.275 81.7568 318.119 85.2952 318.094C88.8359 318.067 91.8784 315.183 92.0907 311.651C92.3051 308.12 89.611 305.276 86.0704 305.301ZM71.309 311.797C71.7892 303.873 78.6137 297.404 86.5529 297.348C94.4921 297.292 100.539 303.67 100.059 311.596C99.5786 319.519 92.7541 325.991 84.8149 326.047C76.8758 326.102 70.8287 319.722 71.309 311.797Z" fill="#E5EDF6"/>
<path fill-rule="evenodd" clip-rule="evenodd" d="M136.953 304.941C133.415 304.968 130.372 307.852 130.158 311.384C129.943 314.915 132.64 317.759 136.178 317.735C139.716 317.71 142.759 314.826 142.973 311.294C143.188 307.76 140.492 304.917 136.953 304.941ZM122.192 311.44C122.67 303.516 129.497 297.044 137.436 296.989C145.375 296.933 151.42 303.313 150.942 311.236C150.461 319.162 143.635 325.631 135.696 325.687C127.756 325.743 121.712 319.365 122.192 311.44Z" fill="#E5EDF6"/>
<path fill-rule="evenodd" clip-rule="evenodd" d="M187.834 304.583C184.294 304.607 181.251 307.491 181.039 311.025C180.824 314.557 183.521 317.401 187.059 317.376C190.598 317.352 193.64 314.468 193.855 310.934C194.069 307.402 191.373 304.558 187.834 304.583ZM173.071 311.081C173.551 303.155 180.375 296.686 188.315 296.63C196.254 296.574 202.301 302.954 201.821 310.878C201.34 318.804 194.516 325.273 186.577 325.329C178.638 325.385 172.59 319.005 173.071 311.081Z" fill="#E5EDF6"/>
<path fill-rule="evenodd" clip-rule="evenodd" d="M238.716 304.226C235.177 304.251 232.135 307.135 231.92 310.667C231.708 314.201 234.402 317.044 237.943 317.018C241.481 316.993 244.524 314.109 244.738 310.577C244.951 307.043 242.257 304.202 238.716 304.226ZM223.954 310.722C224.435 302.799 231.259 296.33 239.198 296.274C247.138 296.218 253.185 302.596 252.704 310.521C252.224 318.445 245.4 324.914 237.46 324.97C229.521 325.026 223.474 318.648 223.954 310.722Z" fill="#E5EDF6"/>
<path fill-rule="evenodd" clip-rule="evenodd" d="M289.601 303.866C286.062 303.891 283.02 306.775 282.805 310.309C282.591 313.841 285.287 316.684 288.826 316.66C292.366 316.635 295.409 313.751 295.621 310.217C295.835 306.686 293.139 303.842 289.601 303.866ZM274.839 310.365C275.32 302.439 282.144 295.97 290.083 295.914C298.022 295.858 304.069 302.238 303.589 310.162C303.109 318.087 296.284 324.557 288.345 324.612C280.406 324.668 274.359 318.291 274.839 310.365Z" fill="#E5EDF6"/>
<path fill-rule="evenodd" clip-rule="evenodd" d="M99.4928 244.068L97.3058 280.152L89.3398 280.207L91.6787 241.579C91.8596 238.593 94.4308 236.156 97.4242 236.133L135.407 235.867C138.398 235.845 140.676 238.249 140.495 241.235L138.154 279.866L130.188 279.921L132.375 243.838L119.917 243.925L119.292 254.257L111.323 254.312L111.949 243.981L99.4928 244.068Z" fill="#E5EDF6"/>
<path fill-rule="evenodd" clip-rule="evenodd" d="M176.533 243.524L174.348 279.608L166.38 279.666L168.721 241.036C168.902 238.049 171.473 235.612 174.464 235.59L212.447 235.324C215.438 235.302 217.716 237.705 217.535 240.692L215.197 279.322L207.228 279.378L209.415 243.294L196.957 243.381L196.332 253.713L188.366 253.769L188.991 243.437L176.533 243.524Z" fill="#E5EDF6"/>
<path fill-rule="evenodd" clip-rule="evenodd" d="M248.198 243.022L246.013 279.106L238.045 279.162L240.386 240.531C240.567 237.545 243.138 235.108 246.129 235.088L284.112 234.819C287.105 234.797 289.384 237.201 289.203 240.187L286.862 278.818L278.896 278.874L281.08 242.79L268.624 242.877L267.997 253.209L260.031 253.265L260.656 242.933L248.198 243.022Z" fill="#E5EDF6"/>
<path fill-rule="evenodd" clip-rule="evenodd" d="M48.7998 92.0764C49.365 82.7687 57.3801 75.1702 66.7043 75.1046L140.52 74.585L140.038 82.5375L66.224 83.0574C61.2983 83.092 57.0651 87.1047 56.768 92.0203C56.4687 96.9357 60.2193 100.892 65.145 100.857L138.961 100.338L138.478 108.29L99.1043 108.568L97.1563 140.717L89.1904 140.773L91.1361 108.624L64.6625 108.81C55.3384 108.876 48.2369 101.384 48.7998 92.0764Z" fill="#E5EDF6"/>
<path fill-rule="evenodd" clip-rule="evenodd" d="M101.689 153.199C101.988 148.283 98.2373 144.327 93.3116 144.361C88.3881 144.396 84.155 148.409 83.8556 153.324L83.1408 165.128L75.1748 165.184L75.8897 153.38C76.4526 144.073 84.4699 136.474 93.7941 136.409C103.118 136.343 110.22 143.835 109.657 153.143L108.942 164.946L100.974 165.002L101.689 153.199Z" fill="#E5EDF6"/>
<path fill-rule="evenodd" clip-rule="evenodd" d="M83.3365 167.314L73.7197 179.86L83.9865 198.448C85.0186 200.315 84.2747 202.766 82.329 203.923C80.3811 205.078 77.964 204.502 76.9342 202.636L65.8788 182.623C64.8646 180.789 65.088 178.453 66.444 176.683L77.9417 161.683C79.043 160.245 80.7429 159.383 82.4988 159.37L103.79 159.22C105.463 159.209 106.995 159.97 107.943 161.283L117.669 174.778C118.909 176.498 118.933 178.864 117.731 180.771L104.14 202.346C102.934 204.26 100.461 204.942 98.6161 203.867C96.7732 202.791 96.2549 200.367 97.4612 198.452L110.116 178.361L102.058 167.182L83.3365 167.314Z" fill="#E5EDF6"/>
<path fill-rule="evenodd" clip-rule="evenodd" d="M356.33 89.9113C356.893 80.6037 349.791 73.1115 340.467 73.1772L266.651 73.697L266.169 81.6496L339.985 81.13C344.91 81.0954 348.659 85.052 348.362 89.9674C348.064 94.8828 343.831 98.8955 338.906 98.9303L265.092 99.4499L264.609 107.403L303.983 107.125L302.036 139.275L310.004 139.219L311.949 107.069L338.425 106.883C347.749 106.817 355.765 99.2187 356.33 89.9113Z" fill="#E5EDF6"/>
<path fill-rule="evenodd" clip-rule="evenodd" d="M295.986 151.83C296.284 146.915 300.517 142.902 305.442 142.868C310.366 142.833 314.117 146.79 313.819 151.705L313.105 163.508L321.071 163.452L321.785 151.649C322.351 142.341 315.249 134.849 305.925 134.915C296.599 134.981 288.583 142.579 288.02 151.887L287.306 163.69L295.272 163.634L295.986 151.83Z" fill="#E5EDF6"/>
<path fill-rule="evenodd" clip-rule="evenodd" d="M195.522 153.325C188.012 155.164 182.112 161.859 181.63 169.797L180.915 181.599L188.883 181.543L189.598 169.74C189.895 164.825 194.128 160.812 199.054 160.778C203.977 160.743 207.728 164.7 207.431 169.615L206.716 181.418L214.682 181.362L215.397 169.559C215.88 161.621 210.784 155.004 203.49 153.269L204.534 136.028L196.568 136.084L195.522 153.325Z" fill="#E5EDF6"/>
<path fill-rule="evenodd" clip-rule="evenodd" d="M312.647 165.699L320.752 178.122L308.222 196.871C306.962 198.754 307.409 201.195 309.218 202.326C311.028 203.454 313.514 202.844 314.774 200.961L328.262 180.775C329.5 178.924 329.56 176.589 328.418 174.838L318.728 159.987C317.801 158.563 316.204 157.724 314.448 157.737L293.157 157.887C291.484 157.898 289.855 158.682 288.749 160.009L277.379 173.654C275.932 175.392 275.621 177.76 276.593 179.652L287.577 201.055C288.553 202.953 290.945 203.599 292.922 202.498C294.899 201.396 295.71 198.961 294.736 197.063L284.505 177.132L293.923 165.831L312.647 165.699Z" fill="#E5EDF6"/>
<path fill-rule="evenodd" clip-rule="evenodd" d="M206.259 183.61L214.361 196.031L201.832 214.779C200.574 216.663 201.021 219.106 202.83 220.235C204.64 221.365 207.126 220.755 208.386 218.872L221.874 198.687C223.111 196.835 223.172 194.5 222.028 192.749L212.34 177.898C211.41 176.473 209.815 175.635 208.057 175.647L186.769 175.796C185.093 175.81 183.467 176.592 182.361 177.921L170.991 191.565C169.543 193.303 169.233 195.671 170.202 197.563L181.189 218.964C182.165 220.865 184.557 221.51 186.534 220.409C188.511 219.305 189.322 216.873 188.348 214.974L178.117 195.043L187.535 183.742L206.259 183.61Z" fill="#E5EDF6"/>
<path fill-rule="evenodd" clip-rule="evenodd" d="M35.4972 311.691C36.6589 292.507 53.1805 276.845 72.4007 276.711L308.181 275.049C327.399 274.915 342.037 290.358 340.876 309.542C339.714 328.727 323.19 344.388 303.972 344.525L68.1921 346.184C48.9719 346.318 34.3356 330.876 35.4972 311.691ZM71.9182 284.664C57.0987 284.767 44.359 296.843 43.4632 311.635C42.5674 326.428 53.8551 338.335 68.6746 338.232L304.453 336.57C319.272 336.467 332.012 324.391 332.908 309.598C333.803 294.805 322.518 282.899 307.698 283.002L71.9182 284.664Z" fill="#E5EDF6"/>
</g>
</g>
<defs>
<filter id="filter0_d_669_17589" x="34.006" y="39.8511" width="323.782" height="310.258" filterUnits="userSpaceOnUse" color-interpolation-filters="sRGB">
<feFlood flood-opacity="0" result="BackgroundImageFix"/>
<feColorMatrix in="SourceAlpha" type="matrix" values="0 0 0 0 0 0 0 0 0 0 0 0 0 0 0 0 0 0 127 0" result="hardAlpha"/>
<feOffset dy="2.4966"/>
<feGaussianBlur stdDeviation="0.713315"/>
<feComposite in2="hardAlpha" operator="out"/>
<feColorMatrix type="matrix" values="0 0 0 0 0.065625 0 0 0 0 0.419165 0 0 0 0 0.75 0 0 0 1 0"/>
<feBlend mode="normal" in2="BackgroundImageFix" result="effect1_dropShadow_669_17589"/>
<feBlend mode="normal" in="SourceGraphic" in2="effect1_dropShadow_669_17589" result="shape"/>
</filter>
<filter id="filter1_d_669_17589" x="34.006" y="73.1768" width="323.782" height="275.862" filterUnits="userSpaceOnUse" color-interpolation-filters="sRGB">
<feFlood flood-opacity="0" result="BackgroundImageFix"/>
<feColorMatrix in="SourceAlpha" type="matrix" values="0 0 0 0 0 0 0 0 0 0 0 0 0 0 0 0 0 0 127 0" result="hardAlpha"/>
<feOffset dy="1.42663"/>
<feGaussianBlur stdDeviation="0.713315"/>
<feComposite in2="hardAlpha" operator="out"/>
<feColorMatrix type="matrix" values="0 0 0 0 0 0 0 0 0 0 0 0 0 0 0 0 0 0 0.25 0"/>
<feBlend mode="normal" in2="BackgroundImageFix" result="effect1_dropShadow_669_17589"/>
<feBlend mode="normal" in="SourceGraphic" in2="effect1_dropShadow_669_17589" result="shape"/>
</filter>
<radialGradient id="paint0_radial_669_17589" cx="0" cy="0" r="1" gradientUnits="userSpaceOnUse" gradientTransform="translate(428.359 70.0022) rotate(125.857) scale(625.273 669.6)">
<stop stop-color="#4297E7"/>
<stop offset="1" stop-color="#0069CC"/>
</radialGradient>
<radialGradient id="paint1_radial_669_17589" cx="0" cy="0" r="1" gradientUnits="userSpaceOnUse" gradientTransform="translate(428.359 70.0022) rotate(125.857) scale(625.273 669.6)">
<stop stop-color="#4297E7"/>
<stop offset="1" stop-color="#0069CC"/>
</radialGradient>
<radialGradient id="paint2_radial_669_17589" cx="0" cy="0" r="1" gradientUnits="userSpaceOnUse" gradientTransform="translate(428.358 70.0029) rotate(125.857) scale(625.273 669.599)">
<stop stop-color="#4297E7"/>
<stop offset="1" stop-color="#0069CC"/>
</radialGradient>
<radialGradient id="paint3_radial_669_17589" cx="0" cy="0" r="1" gradientUnits="userSpaceOnUse" gradientTransform="translate(428.358 70.0029) rotate(125.857) scale(625.273 669.599)">
<stop stop-color="#4297E7"/>
<stop offset="1" stop-color="#0069CC"/>
</radialGradient>
<radialGradient id="paint4_radial_669_17589" cx="0" cy="0" r="1" gradientUnits="userSpaceOnUse" gradientTransform="translate(428.358 70.0024) rotate(125.857) scale(625.273 669.599)">
<stop stop-color="#4297E7"/>
<stop offset="1" stop-color="#0069CC"/>
</radialGradient>
<radialGradient id="paint5_radial_669_17589" cx="0" cy="0" r="1" gradientUnits="userSpaceOnUse" gradientTransform="translate(428.358 70.0024) rotate(125.857) scale(625.272 669.599)">
<stop stop-color="#4297E7"/>
<stop offset="1" stop-color="#0069CC"/>
</radialGradient>
<radialGradient id="paint6_radial_669_17589" cx="0" cy="0" r="1" gradientUnits="userSpaceOnUse" gradientTransform="translate(428.36 70.0025) rotate(125.857) scale(625.273 669.599)">
<stop stop-color="#4297E7"/>
<stop offset="1" stop-color="#0069CC"/>
</radialGradient>
<radialGradient id="paint7_radial_669_17589" cx="0" cy="0" r="1" gradientUnits="userSpaceOnUse" gradientTransform="translate(428.359 70.0025) rotate(125.857) scale(625.273 669.6)">
<stop stop-color="#4297E7"/>
<stop offset="1" stop-color="#0069CC"/>
</radialGradient>
<radialGradient id="paint8_radial_669_17589" cx="0" cy="0" r="1" gradientUnits="userSpaceOnUse" gradientTransform="translate(428.358 70.0023) rotate(125.857) scale(625.273 669.6)">
<stop stop-color="#4297E7"/>
<stop offset="1" stop-color="#0069CC"/>
</radialGradient>
<radialGradient id="paint9_radial_669_17589" cx="0" cy="0" r="1" gradientUnits="userSpaceOnUse" gradientTransform="translate(428.358 70.0026) rotate(125.857) scale(625.273 669.599)">
<stop stop-color="#4297E7"/>
<stop offset="1" stop-color="#0069CC"/>
</radialGradient>
<radialGradient id="paint10_radial_669_17589" cx="0" cy="0" r="1" gradientUnits="userSpaceOnUse" gradientTransform="translate(428.36 70.0025) rotate(125.857) scale(625.273 669.599)">
<stop stop-color="#4297E7"/>
<stop offset="1" stop-color="#0069CC"/>
</radialGradient>
<radialGradient id="paint11_radial_669_17589" cx="0" cy="0" r="1" gradientUnits="userSpaceOnUse" gradientTransform="translate(428.36 70.0025) rotate(125.857) scale(625.273 669.599)">
<stop stop-color="#4297E7"/>
<stop offset="1" stop-color="#0069CC"/>
</radialGradient>
<radialGradient id="paint12_radial_669_17589" cx="0" cy="0" r="1" gradientUnits="userSpaceOnUse" gradientTransform="translate(428.36 70.002) rotate(125.857) scale(625.273 669.6)">
<stop stop-color="#4297E7"/>
<stop offset="1" stop-color="#0069CC"/>
</radialGradient>
<radialGradient id="paint13_radial_669_17589" cx="0" cy="0" r="1" gradientUnits="userSpaceOnUse" gradientTransform="translate(428.358 70.0025) rotate(125.857) scale(625.273 669.599)">
<stop stop-color="#4297E7"/>
<stop offset="1" stop-color="#0069CC"/>
</radialGradient>
<radialGradient id="paint14_radial_669_17589" cx="0" cy="0" r="1" gradientUnits="userSpaceOnUse" gradientTransform="translate(428.358 70.0023) rotate(125.857) scale(625.273 669.599)">
<stop stop-color="#4297E7"/>
<stop offset="1" stop-color="#0069CC"/>
</radialGradient>
<radialGradient id="paint15_radial_669_17589" cx="0" cy="0" r="1" gradientUnits="userSpaceOnUse" gradientTransform="translate(428.358 70.0023) rotate(125.857) scale(625.273 669.599)">
<stop stop-color="#4297E7"/>
<stop offset="1" stop-color="#0069CC"/>
</radialGradient>
<radialGradient id="paint16_radial_669_17589" cx="0" cy="0" r="1" gradientUnits="userSpaceOnUse" gradientTransform="translate(428.358 70.0023) rotate(125.857) scale(625.273 669.599)">
<stop stop-color="#4297E7"/>
<stop offset="1" stop-color="#0069CC"/>
</radialGradient>
<radialGradient id="paint17_radial_669_17589" cx="0" cy="0" r="1" gradientUnits="userSpaceOnUse" gradientTransform="translate(428.36 70.0015) rotate(125.857) scale(625.273 669.599)">
<stop stop-color="#4297E7"/>
<stop offset="1" stop-color="#0069CC"/>
</radialGradient>
<radialGradient id="paint18_radial_669_17589" cx="0" cy="0" r="1" gradientUnits="userSpaceOnUse" gradientTransform="translate(428.359 70.0022) rotate(125.857) scale(625.273 669.6)">
<stop stop-color="#4297E7"/>
<stop offset="1" stop-color="#0069CC"/>
</radialGradient>
<radialGradient id="paint19_radial_669_17589" cx="0" cy="0" r="1" gradientUnits="userSpaceOnUse" gradientTransform="translate(428.359 70.0023) rotate(125.857) scale(625.273 669.599)">
<stop stop-color="#4297E7"/>
<stop offset="1" stop-color="#0069CC"/>
</radialGradient>
<radialGradient id="paint20_radial_669_17589" cx="0" cy="0" r="1" gradientUnits="userSpaceOnUse" gradientTransform="translate(428.358 70.0025) rotate(125.857) scale(625.273 669.6)">
<stop stop-color="#4297E7"/>
<stop offset="1" stop-color="#0069CC"/>
</radialGradient>
<radialGradient id="paint21_radial_669_17589" cx="0" cy="0" r="1" gradientUnits="userSpaceOnUse" gradientTransform="translate(428.358 70.0025) rotate(125.857) scale(625.273 669.6)">
<stop stop-color="#4297E7"/>
<stop offset="1" stop-color="#0069CC"/>
</radialGradient>
<radialGradient id="paint22_radial_669_17589" cx="0" cy="0" r="1" gradientUnits="userSpaceOnUse" gradientTransform="translate(428.36 70.0026) rotate(125.857) scale(625.273 669.6)">
<stop stop-color="#4297E7"/>
<stop offset="1" stop-color="#0069CC"/>
</radialGradient>
<radialGradient id="paint23_radial_669_17589" cx="0" cy="0" r="1" gradientUnits="userSpaceOnUse" gradientTransform="translate(428.358 70.0023) rotate(125.857) scale(625.273 669.599)">
<stop stop-color="#4297E7"/>
<stop offset="1" stop-color="#0069CC"/>
</radialGradient>
<radialGradient id="paint24_radial_669_17589" cx="0" cy="0" r="1" gradientUnits="userSpaceOnUse" gradientTransform="translate(428.358 70.0026) rotate(125.857) scale(625.273 669.599)">
<stop stop-color="#4297E7"/>
<stop offset="1" stop-color="#0069CC"/>
</radialGradient>
<radialGradient id="paint25_radial_669_17589" cx="0" cy="0" r="1" gradientUnits="userSpaceOnUse" gradientTransform="translate(428.358 70.0022) rotate(125.857) scale(625.273 669.6)">
<stop stop-color="#4297E7"/>
<stop offset="1" stop-color="#0069CC"/>
</radialGradient>
<radialGradient id="paint26_radial_669_17589" cx="0" cy="0" r="1" gradientUnits="userSpaceOnUse" gradientTransform="translate(428.359 70.0022) rotate(125.857) scale(625.273 669.599)">
<stop stop-color="#4297E7"/>
<stop offset="1" stop-color="#0069CC"/>
</radialGradient>
<radialGradient id="paint27_radial_669_17589" cx="0" cy="0" r="1" gradientUnits="userSpaceOnUse" gradientTransform="translate(428.359 70.0023) rotate(125.857) scale(625.273 669.599)">
<stop stop-color="#4297E7"/>
<stop offset="1" stop-color="#0069CC"/>
</radialGradient>
<radialGradient id="paint28_radial_669_17589" cx="0" cy="0" r="1" gradientUnits="userSpaceOnUse" gradientTransform="translate(428.358 70.0025) rotate(125.857) scale(625.273 669.6)">
<stop stop-color="#4297E7"/>
<stop offset="1" stop-color="#0069CC"/>
</radialGradient>
<radialGradient id="paint29_radial_669_17589" cx="0" cy="0" r="1" gradientUnits="userSpaceOnUse" gradientTransform="translate(428.36 70.0023) rotate(125.857) scale(625.273 669.599)">
<stop stop-color="#4297E7"/>
<stop offset="1" stop-color="#0069CC"/>
</radialGradient>
<radialGradient id="paint30_radial_669_17589" cx="0" cy="0" r="1" gradientUnits="userSpaceOnUse" gradientTransform="translate(428.359 70.0014) rotate(125.857) scale(625.273 669.6)">
<stop stop-color="#4297E7"/>
<stop offset="1" stop-color="#0069CC"/>
</radialGradient>
<radialGradient id="paint31_radial_669_17589" cx="0" cy="0" r="1" gradientUnits="userSpaceOnUse" gradientTransform="translate(428.36 70.0027) rotate(125.857) scale(625.273 669.6)">
<stop stop-color="#4297E7"/>
<stop offset="1" stop-color="#0069CC"/>
</radialGradient>
<radialGradient id="paint32_radial_669_17589" cx="0" cy="0" r="1" gradientUnits="userSpaceOnUse" gradientTransform="translate(428.358 70.0023) rotate(125.857) scale(625.273 669.599)">
<stop stop-color="#4297E7"/>
<stop offset="1" stop-color="#0069CC"/>
</radialGradient>
<radialGradient id="paint33_radial_669_17589" cx="0" cy="0" r="1" gradientUnits="userSpaceOnUse" gradientTransform="translate(428.36 70.0016) rotate(125.857) scale(625.273 669.6)">
<stop stop-color="#4297E7"/>
<stop offset="1" stop-color="#0069CC"/>
</radialGradient>
<radialGradient id="paint34_radial_669_17589" cx="0" cy="0" r="1" gradientUnits="userSpaceOnUse" gradientTransform="translate(428.358 70.0019) rotate(125.857) scale(625.273 669.6)">
<stop stop-color="#4297E7"/>
<stop offset="1" stop-color="#0069CC"/>
</radialGradient>
<radialGradient id="paint35_radial_669_17589" cx="0" cy="0" r="1" gradientUnits="userSpaceOnUse" gradientTransform="translate(428.359 70.002) rotate(125.857) scale(625.272 669.599)">
<stop stop-color="#4297E7"/>
<stop offset="1" stop-color="#0069CC"/>
</radialGradient>
<radialGradient id="paint36_radial_669_17589" cx="0" cy="0" r="1" gradientUnits="userSpaceOnUse" gradientTransform="translate(428.359 70.0022) rotate(125.857) scale(625.273 669.599)">
<stop stop-color="#4297E7"/>
<stop offset="1" stop-color="#0069CC"/>
</radialGradient>
<radialGradient id="paint37_radial_669_17589" cx="0" cy="0" r="1" gradientUnits="userSpaceOnUse" gradientTransform="translate(428.358 70.0018) rotate(125.857) scale(625.273 669.599)">
<stop stop-color="#4297E7"/>
<stop offset="1" stop-color="#0069CC"/>
</radialGradient>
<radialGradient id="paint38_radial_669_17589" cx="0" cy="0" r="1" gradientUnits="userSpaceOnUse" gradientTransform="translate(428.359 70.002) rotate(125.857) scale(625.273 669.599)">
<stop stop-color="#4297E7"/>
<stop offset="1" stop-color="#0069CC"/>
</radialGradient>
<radialGradient id="paint39_radial_669_17589" cx="0" cy="0" r="1" gradientUnits="userSpaceOnUse" gradientTransform="translate(428.36 70.0021) rotate(125.857) scale(625.273 669.599)">
<stop stop-color="#4297E7"/>
<stop offset="1" stop-color="#0069CC"/>
</radialGradient>
<radialGradient id="paint40_radial_669_17589" cx="0" cy="0" r="1" gradientUnits="userSpaceOnUse" gradientTransform="translate(428.359 70.0026) rotate(125.857) scale(625.273 669.599)">
<stop stop-color="#4297E7"/>
<stop offset="1" stop-color="#0069CC"/>
</radialGradient>
<radialGradient id="paint41_radial_669_17589" cx="0" cy="0" r="1" gradientUnits="userSpaceOnUse" gradientTransform="translate(428.359 70.0023) rotate(125.857) scale(625.273 669.6)">
<stop stop-color="#4297E7"/>
<stop offset="1" stop-color="#0069CC"/>
</radialGradient>
<radialGradient id="paint42_radial_669_17589" cx="0" cy="0" r="1" gradientUnits="userSpaceOnUse" gradientTransform="translate(428.358 70.0022) rotate(125.857) scale(625.273 669.6)">
<stop stop-color="#4297E7"/>
<stop offset="1" stop-color="#0069CC"/>
</radialGradient>
<radialGradient id="paint43_radial_669_17589" cx="0" cy="0" r="1" gradientUnits="userSpaceOnUse" gradientTransform="translate(428.359 70.0018) rotate(125.857) scale(625.273 669.6)">
<stop stop-color="#4297E7"/>
<stop offset="1" stop-color="#0069CC"/>
</radialGradient>
<radialGradient id="paint44_radial_669_17589" cx="0" cy="0" r="1" gradientUnits="userSpaceOnUse" gradientTransform="translate(428.359 70.0026) rotate(125.857) scale(625.273 669.6)">
<stop stop-color="#4297E7"/>
<stop offset="1" stop-color="#0069CC"/>
</radialGradient>
<radialGradient id="paint45_radial_669_17589" cx="0" cy="0" r="1" gradientUnits="userSpaceOnUse" gradientTransform="translate(428.358 70.0021) rotate(125.857) scale(625.273 669.599)">
<stop stop-color="#4297E7"/>
<stop offset="1" stop-color="#0069CC"/>
</radialGradient>
<radialGradient id="paint46_radial_669_17589" cx="0" cy="0" r="1" gradientUnits="userSpaceOnUse" gradientTransform="translate(428.36 70.0029) rotate(125.857) scale(625.272 669.599)">
<stop stop-color="#4297E7"/>
<stop offset="1" stop-color="#0069CC"/>
</radialGradient>
<radialGradient id="paint47_radial_669_17589" cx="0" cy="0" r="1" gradientUnits="userSpaceOnUse" gradientTransform="translate(428.359 70.002) rotate(125.857) scale(625.273 669.599)">
<stop stop-color="#4297E7"/>
<stop offset="1" stop-color="#0069CC"/>
</radialGradient>
<radialGradient id="paint48_radial_669_17589" cx="0" cy="0" r="1" gradientUnits="userSpaceOnUse" gradientTransform="translate(428.359 70.002) rotate(125.857) scale(625.273 669.599)">
<stop stop-color="#4297E7"/>
<stop offset="1" stop-color="#0069CC"/>
</radialGradient>
<radialGradient id="paint49_radial_669_17589" cx="0" cy="0" r="1" gradientUnits="userSpaceOnUse" gradientTransform="translate(428.359 70.0026) rotate(125.857) scale(625.273 669.6)">
<stop stop-color="#4297E7"/>
<stop offset="1" stop-color="#0069CC"/>
</radialGradient>
<radialGradient id="paint50_radial_669_17589" cx="0" cy="0" r="1" gradientUnits="userSpaceOnUse" gradientTransform="translate(428.359 70.0016) rotate(125.857) scale(625.273 669.6)">
<stop stop-color="#4297E7"/>
<stop offset="1" stop-color="#0069CC"/>
</radialGradient>
<radialGradient id="paint51_radial_669_17589" cx="0" cy="0" r="1" gradientUnits="userSpaceOnUse" gradientTransform="translate(428.359 70.0029) rotate(125.857) scale(625.273 669.6)">
<stop stop-color="#4297E7"/>
<stop offset="1" stop-color="#0069CC"/>
</radialGradient>
<radialGradient id="paint52_radial_669_17589" cx="0" cy="0" r="1" gradientUnits="userSpaceOnUse" gradientTransform="translate(428.358 70.0029) rotate(125.857) scale(625.273 669.6)">
<stop stop-color="#4297E7"/>
<stop offset="1" stop-color="#0069CC"/>
</radialGradient>
<radialGradient id="paint53_radial_669_17589" cx="0" cy="0" r="1" gradientUnits="userSpaceOnUse" gradientTransform="translate(428.358 70.003) rotate(125.857) scale(625.273 669.599)">
<stop stop-color="#4297E7"/>
<stop offset="1" stop-color="#0069CC"/>
</radialGradient>
<radialGradient id="paint54_radial_669_17589" cx="0" cy="0" r="1" gradientUnits="userSpaceOnUse" gradientTransform="translate(428.359 70.0022) rotate(125.857) scale(625.273 669.599)">
<stop stop-color="#4297E7"/>
<stop offset="1" stop-color="#0069CC"/>
</radialGradient>
<radialGradient id="paint55_radial_669_17589" cx="0" cy="0" r="1" gradientUnits="userSpaceOnUse" gradientTransform="translate(428.358 70.0023) rotate(125.857) scale(625.273 669.599)">
<stop stop-color="#4297E7"/>
<stop offset="1" stop-color="#0069CC"/>
</radialGradient>
<radialGradient id="paint56_radial_669_17589" cx="0" cy="0" r="1" gradientUnits="userSpaceOnUse" gradientTransform="translate(428.36 70.0024) rotate(125.857) scale(625.273 669.6)">
<stop stop-color="#4297E7"/>
<stop offset="1" stop-color="#0069CC"/>
</radialGradient>
<radialGradient id="paint57_radial_669_17589" cx="0" cy="0" r="1" gradientUnits="userSpaceOnUse" gradientTransform="translate(428.359 70.0021) rotate(125.857) scale(625.273 669.6)">
<stop stop-color="#4297E7"/>
<stop offset="1" stop-color="#0069CC"/>
</radialGradient>
<radialGradient id="paint58_radial_669_17589" cx="0" cy="0" r="1" gradientUnits="userSpaceOnUse" gradientTransform="translate(428.358 70.0019) rotate(125.857) scale(625.273 669.599)">
<stop stop-color="#4297E7"/>
<stop offset="1" stop-color="#0069CC"/>
</radialGradient>
<radialGradient id="paint59_radial_669_17589" cx="0" cy="0" r="1" gradientUnits="userSpaceOnUse" gradientTransform="translate(428.359 70.0026) rotate(125.857) scale(625.273 669.599)">
<stop stop-color="#4297E7"/>
<stop offset="1" stop-color="#0069CC"/>
</radialGradient>
<radialGradient id="paint60_radial_669_17589" cx="0" cy="0" r="1" gradientUnits="userSpaceOnUse" gradientTransform="translate(428.359 70.0023) rotate(125.857) scale(625.273 669.6)">
<stop stop-color="#4297E7"/>
<stop offset="1" stop-color="#0069CC"/>
</radialGradient>
<radialGradient id="paint61_radial_669_17589" cx="0" cy="0" r="1" gradientUnits="userSpaceOnUse" gradientTransform="translate(428.36 70.0014) rotate(125.857) scale(625.273 669.599)">
<stop stop-color="#4297E7"/>
<stop offset="1" stop-color="#0069CC"/>
</radialGradient>
<radialGradient id="paint62_radial_669_17589" cx="0" cy="0" r="1" gradientUnits="userSpaceOnUse" gradientTransform="translate(428.359 70.0015) rotate(125.857) scale(625.273 669.599)">
<stop stop-color="#4297E7"/>
<stop offset="1" stop-color="#0069CC"/>
</radialGradient>
<radialGradient id="paint63_radial_669_17589" cx="0" cy="0" r="1" gradientUnits="userSpaceOnUse" gradientTransform="translate(428.359 70.0015) rotate(125.857) scale(625.273 669.6)">
<stop stop-color="#4297E7"/>
<stop offset="1" stop-color="#0069CC"/>
</radialGradient>
<radialGradient id="paint64_radial_669_17589" cx="0" cy="0" r="1" gradientUnits="userSpaceOnUse" gradientTransform="translate(428.359 70.0019) rotate(125.857) scale(625.273 669.599)">
<stop stop-color="#4297E7"/>
<stop offset="1" stop-color="#0069CC"/>
</radialGradient>
<radialGradient id="paint65_radial_669_17589" cx="0" cy="0" r="1" gradientUnits="userSpaceOnUse" gradientTransform="translate(428.36 70.0022) rotate(125.857) scale(625.272 669.599)">
<stop stop-color="#4297E7"/>
<stop offset="1" stop-color="#0069CC"/>
</radialGradient>
<radialGradient id="paint66_radial_669_17589" cx="0" cy="0" r="1" gradientUnits="userSpaceOnUse" gradientTransform="translate(428.359 70.0023) rotate(125.857) scale(625.273 669.6)">
<stop stop-color="#4297E7"/>
<stop offset="1" stop-color="#0069CC"/>
</radialGradient>
<radialGradient id="paint67_radial_669_17589" cx="0" cy="0" r="1" gradientUnits="userSpaceOnUse" gradientTransform="translate(428.358 70.0027) rotate(125.857) scale(625.273 669.599)">
<stop stop-color="#4297E7"/>
<stop offset="1" stop-color="#0069CC"/>
</radialGradient>
<radialGradient id="paint68_radial_669_17589" cx="0" cy="0" r="1" gradientUnits="userSpaceOnUse" gradientTransform="translate(428.358 70.0017) rotate(125.857) scale(625.273 669.599)">
<stop stop-color="#4297E7"/>
<stop offset="1" stop-color="#0069CC"/>
</radialGradient>
<radialGradient id="paint69_radial_669_17589" cx="0" cy="0" r="1" gradientUnits="userSpaceOnUse" gradientTransform="translate(428.359 70.0024) rotate(125.857) scale(625.273 669.6)">
<stop stop-color="#4297E7"/>
<stop offset="1" stop-color="#0069CC"/>
</radialGradient>
<radialGradient id="paint70_radial_669_17589" cx="0" cy="0" r="1" gradientUnits="userSpaceOnUse" gradientTransform="translate(428.359 70.0028) rotate(125.857) scale(625.272 669.599)">
<stop stop-color="#4297E7"/>
<stop offset="1" stop-color="#0069CC"/>
</radialGradient>
<radialGradient id="paint71_radial_669_17589" cx="0" cy="0" r="1" gradientUnits="userSpaceOnUse" gradientTransform="translate(428.359 70.0024) rotate(125.857) scale(625.273 669.599)">
<stop stop-color="#4297E7"/>
<stop offset="1" stop-color="#0069CC"/>
</radialGradient>
<radialGradient id="paint72_radial_669_17589" cx="0" cy="0" r="1" gradientUnits="userSpaceOnUse" gradientTransform="translate(428.359 70.0022) rotate(125.857) scale(625.273 669.599)">
<stop stop-color="#4297E7"/>
<stop offset="1" stop-color="#0069CC"/>
</radialGradient>
<radialGradient id="paint73_radial_669_17589" cx="0" cy="0" r="1" gradientUnits="userSpaceOnUse" gradientTransform="translate(428.36 70.0019) rotate(125.857) scale(625.273 669.6)">
<stop stop-color="#4297E7"/>
<stop offset="1" stop-color="#0069CC"/>
</radialGradient>
<radialGradient id="paint74_radial_669_17589" cx="0" cy="0" r="1" gradientUnits="userSpaceOnUse" gradientTransform="translate(428.358 70.0023) rotate(125.857) scale(625.273 669.6)">
<stop stop-color="#4297E7"/>
<stop offset="1" stop-color="#0069CC"/>
</radialGradient>
<radialGradient id="paint75_radial_669_17589" cx="0" cy="0" r="1" gradientUnits="userSpaceOnUse" gradientTransform="translate(428.359 70.0019) rotate(125.857) scale(625.273 669.6)">
<stop stop-color="#4297E7"/>
<stop offset="1" stop-color="#0069CC"/>
</radialGradient>
<radialGradient id="paint76_radial_669_17589" cx="0" cy="0" r="1" gradientUnits="userSpaceOnUse" gradientTransform="translate(428.358 70.0023) rotate(125.857) scale(625.273 669.6)">
<stop stop-color="#4297E7"/>
<stop offset="1" stop-color="#0069CC"/>
</radialGradient>
<radialGradient id="paint77_radial_669_17589" cx="0" cy="0" r="1" gradientUnits="userSpaceOnUse" gradientTransform="translate(428.359 70.0024) rotate(125.857) scale(625.273 669.6)">
<stop stop-color="#4297E7"/>
<stop offset="1" stop-color="#0069CC"/>
</radialGradient>
<radialGradient id="paint78_radial_669_17589" cx="0" cy="0" r="1" gradientUnits="userSpaceOnUse" gradientTransform="translate(428.36 70.0026) rotate(125.857) scale(625.273 669.599)">
<stop stop-color="#4297E7"/>
<stop offset="1" stop-color="#0069CC"/>
</radialGradient>
</defs>
</svg>
