<?xml version="1.0" encoding="utf-8"?><svg viewBox="0 0 273 228" xmlns="http://www.w3.org/2000/svg" xmlns:xlink="http://www.w3.org/1999/xlink"><style>:root>svg{display:none}:root>svg:target{display:block}</style><svg fill="none" viewBox="0 0 20 20" id="css--arrow-up-right" xmlns="http://www.w3.org/2000/svg"><path d="m5.833 14.167 8.334-8.334m-8.334 0h8.334v8.334" stroke="#B3B3B3" stroke-width="1.5" stroke-linecap="round" stroke-linejoin="round"/></svg><svg fill="none" viewBox="0 0 177 143" id="css--bg" xmlns="http://www.w3.org/2000/svg"><path fill-rule="evenodd" clip-rule="evenodd" d="M303.879 111.837c3.693 38.99-8.869 81.731-46.867 103.21-37.512 21.204-85.677 6.777-129.89-3.295-47.226-10.76-109.393-15.094-124.18-54.587-14.533-38.819 37.798-67.705 66.454-99.6C90.49 34.088 108.541 6.338 143.08 1.185c35.305-5.266 68.404 11.565 96.612 30.976 31.019 21.346 61.021 46.24 64.187 79.676Z" fill="#228EFD" fill-opacity=".08"/></svg><svg fill="none" viewBox="0 0 22 22" id="css--check" xmlns="http://www.w3.org/2000/svg"><g clip-path="url(#ca)"><circle cx="11" cy="11" r="11" fill="#228EFD" fill-opacity=".08"/><path d="m15 8-5.5 6L7 11.273" stroke="#228EFD" stroke-width="2" stroke-linecap="round" stroke-linejoin="round"/></g><defs><clipPath id="ca"><path fill="#fff" d="M0 0h22v22H0z"/></clipPath></defs></svg><svg fill="none" viewBox="0 0 273 228" id="css--cloud-1" xmlns="http://www.w3.org/2000/svg"><path fill-rule="evenodd" clip-rule="evenodd" d="M246.029 17.324c46.941 29.406 86.851 77.87 84.878 133.182-1.947 54.604-51.853 89.446-94.054 124.114-45.079 37.031-93.233 94.099-148.46 75.105-54.283-18.67-50.775-94.257-67.153-149.262C9.186 159.977-9.845 118.842 8.304 80.735c18.551-38.953 60.718-57.04 102.421-68.164C156.584.34 205.774-7.894 246.029 17.324Z" fill="#228EFD" fill-opacity=".08"/></svg><svg fill="none" viewBox="0 0 22 22" id="css--cross" xmlns="http://www.w3.org/2000/svg"><path opacity=".5" d="M22 11c0 6.075-4.925 11-11 11S0 17.075 0 11 4.925 0 11 0s11 4.925 11 11Z" fill="#D24E4E" fill-opacity=".2"/><path d="M7.667 7.667a.825.825 0 0 1 1.166 0L11 9.833l2.167-2.166a.825.825 0 1 1 1.166 1.166L12.167 11l2.166 2.167a.825.825 0 1 1-1.166 1.166L11 12.167l-2.167 2.166a.825.825 0 1 1-1.166-1.166L9.833 11 7.667 8.833a.825.825 0 0 1 0-1.166Z" fill="#D24E4E"/></svg></svg>