<?xml version="1.0" encoding="utf-8"?><svg viewBox="0 0 273 228" xmlns="http://www.w3.org/2000/svg" xmlns:xlink="http://www.w3.org/1999/xlink"><style>:root>svg{display:none}:root>svg:target{display:block}</style><svg fill="none" viewBox="0 0 20 20" id="css--arrow-up-right" xmlns="http://www.w3.org/2000/svg"><path d="m5.833 14.167 8.334-8.334m-8.334 0h8.334v8.334" stroke="#B3B3B3" stroke-width="1.5" stroke-linecap="round" stroke-linejoin="round"/></svg><svg fill="none" viewBox="0 0 22 22" id="css--check" xmlns="http://www.w3.org/2000/svg"><g clip-path="url(#ba)"><circle cx="11" cy="11" r="11" fill="#228EFD" fill-opacity=".08"/><path d="m15 8-5.5 6L7 11.273" stroke="#228EFD" stroke-width="2" stroke-linecap="round" stroke-linejoin="round"/></g><defs><clipPath id="ba"><path fill="#fff" d="M0 0h22v22H0z"/></clipPath></defs></svg><svg fill="none" viewBox="0 0 273 228" id="css--cloud-1" xmlns="http://www.w3.org/2000/svg"><path fill-rule="evenodd" clip-rule="evenodd" d="M246.029 17.324c46.941 29.406 86.851 77.87 84.878 133.182-1.947 54.604-51.853 89.446-94.054 124.114-45.079 37.031-93.233 94.099-148.46 75.105-54.283-18.67-50.775-94.257-67.153-149.262C9.186 159.977-9.845 118.842 8.304 80.735c18.551-38.953 60.718-57.04 102.421-68.164C156.584.34 205.774-7.894 246.029 17.324Z" fill="#228EFD" fill-opacity=".08"/></svg></svg>