<svg width="90" height="112" fill="none" xmlns="http://www.w3.org/2000/svg"><path d="M68.167 22.88c-1.895 4.032-2.843 6.048-2.33 7.45a3.535 3.535 0 001.413 1.761c1.258.807 3.437.326 7.795-.636l2.415-.533c1.126-.249 1.689-.373 2.001-.546 1.298-.717 1.673-2.401.794-3.565-.211-.28-.672-.615-1.594-1.283-.526-.383-.79-.574-1.035-.779a9.42 9.42 0 01-2.337-2.913c-.146-.284-.275-.582-.534-1.178-.451-1.044-.677-1.566-.905-1.834-.946-1.11-2.675-1.114-3.66-.007-.238.266-.483.787-.972 1.829l-1.05 2.234zm-10.646 6.238c1.9-.863 3.855-.576 4.369.642.513 1.217-.61 2.903-2.51 3.765-1.899.863-3.855.576-4.368-.641-.513-1.217.61-2.903 2.51-3.766zm9.092 11.335c1.26-1.66 1.407-3.627.33-4.393-1.078-.767-2.973-.043-4.232 1.617-1.26 1.66-1.408 3.628-.33 4.394 1.078.767 2.972.042 4.232-1.618zm-5.596-20.388c1.516-.497 3.047-.039 3.418 1.023.371 1.061-.557 2.324-2.074 2.82-1.516.497-3.047.04-3.418-1.022s.557-2.325 2.074-2.821zm15.214 18.968c.818-1.367.705-2.957-.251-3.551-.957-.594-2.395.033-3.213 1.4-.818 1.368-.705 2.958.252 3.552.956.594 2.394-.033 3.212-1.4zM41.627 87.757c1.149 4.308 1.724 6.462 3.02 7.207.67.386 1.447.541 2.215.443 1.482-.19 2.838-1.957 5.55-5.494l1.503-1.96c.7-.913 1.05-1.37 1.178-1.703.53-1.383-.268-2.915-1.69-3.242-.343-.08-.91-.04-2.046.04-.65.045-.974.067-1.294.068a9.436 9.436 0 01-3.664-.732c-.295-.124-.586-.27-1.168-.561-1.018-.51-1.527-.765-1.874-.824-1.438-.244-2.763.864-2.803 2.345-.01.357.139.913.436 2.026l.636 2.387zm-4.12 11.619c.896-1.881 2.577-2.917 3.754-2.314 1.177.603 1.404 2.617.508 4.498-.896 1.881-2.576 2.917-3.753 2.314-1.177-.603-1.405-2.617-.509-4.498zm14.257 2.85c-.106-2.082-1.261-3.684-2.58-3.58-1.317.105-2.299 1.877-2.192 3.958.107 2.082 1.262 3.685 2.58 3.58 1.317-.105 2.3-1.877 2.192-3.958zM34.345 90.191c.84-1.354 2.305-1.986 3.272-1.41.968.575 1.073 2.139.233 3.493-.84 1.355-2.305 1.987-3.273 1.411-.968-.575-1.072-2.14-.232-3.494zm23.858 4.77c-.256-1.573-1.367-2.72-2.481-2.561-1.114.159-1.81 1.563-1.554 3.137.257 1.573 1.368 2.72 2.482 2.561 1.114-.159 1.81-1.563 1.553-3.137zM24.85 43.816c.411 4.438.617 6.656 1.77 7.607a3.541 3.541 0 002.11.806c1.494.06 3.128-1.456 6.395-4.49l1.81-1.68c.845-.783 1.267-1.175 1.449-1.482.754-1.275.223-2.918-1.124-3.478-.325-.135-.892-.191-2.025-.302-.647-.064-.971-.096-1.287-.148a9.437 9.437 0 01-3.49-1.333c-.271-.171-.534-.364-1.058-.748-.92-.672-1.379-1.008-1.71-1.124-1.379-.48-2.87.39-3.159 1.843-.069.35-.016.924.09 2.07l.229 2.459zM18.84 54.58c1.198-1.704 3.03-2.445 4.089-1.654 1.06.79.947 2.814-.252 4.518-1.2 1.704-3.03 2.445-4.09 1.654-1.06-.79-.947-2.813.252-4.518zm13.583 5.187c.244-2.07-.627-3.842-1.944-3.958-1.318-.117-2.583 1.466-2.827 3.535-.243 2.07.627 3.841 1.945 3.958 1.317.117 2.582-1.466 2.826-3.535zM17.26 45c1.055-1.194 2.606-1.572 3.464-.844.858.728.699 2.287-.356 3.482-1.055 1.195-2.606 1.574-3.464.845-.859-.728-.7-2.287.356-3.482zm22.731 8.68c.011-1.593-.892-2.909-2.018-2.938-1.126-.029-2.047 1.24-2.058 2.833-.011 1.594.892 2.91 2.018 2.938 1.126.03 2.047-1.239 2.058-2.832z" fill="#041133"/></svg>