<svg width="298" height="71" fill="none" xmlns="http://www.w3.org/2000/svg"><path d="M30.448 20.442C22.798 23.011 18.065 27.634 15 33.408c1.495-8.293 6.478-13.308 14.451-15.534.2-.05.374-.098.573-.123 2.94-.513 3.837.343 2.218 1.713-.524.44-1.147.758-1.794.978z" fill="url(#paint0_linear_314_716)"/><path d="M17.89 46.105c-2.516-3.572-3.064-7.437-.797-11.742 1.495-2.642 3.364-4.868 5.656-6.63 1.67-1.296 3.563-2.25 5.581-2.96 6.653-2.348 9.419-4.77 7.25-7.29 2.517.172 4.46.905 4.261 3.572-1.096 4.379-4.958 7.143-10.34 9.076-1.544.562-3.04 1.247-4.434 2.152-5.332 3.4-7.874 7.95-7.176 13.822z" fill="url(#paint1_linear_314_716)"/><path d="M35.53 38.106c-7.65 3.375-12.508 5.92-11.287 13.454-5.88-4.379-3.862-13.21 3.388-16.977C39.84 29.03 44.673 23.77 41.908 19.44c5.58 4.648 5.606 9.468.075 14.482-1.894 1.762-4.087 3.156-6.454 4.184z" fill="url(#paint2_linear_314_716)"/><path d="M42.63 44.026c-8.695 6.507-13.28 5.332-11.785 9.491-8.944-1.957-3.164-7.975 5.457-12.354 2.292-1.174 4.51-2.348 6.553-3.89 6.254-4.672 5.88-10.64 4.285-13.38 6.279 6.14 3.09 14.188-4.51 20.133z" fill="url(#paint3_linear_314_716)"/><path d="M36.428 50.41c7.649-2.568 12.383-7.191 15.447-12.965-1.495 8.269-6.478 13.308-14.45 15.534-.2.05-.375.098-.574.123-2.94.513-3.837-.343-2.217-1.713a6.054 6.054 0 011.794-.978z" fill="url(#paint4_linear_314_716)"/><path d="M70.656 26.705c1.85.911 2.093 2.614 1.91 3.624-.345 2.119-1.808 3.406-4.816 3.406h-5.528V20.526h5.447c2.58 0 4.47 1.505 4.41 4.02-.04.614-.427 1.664-1.423 2.159zm-2.987-1.01c1.666 0 1.727-2.357 0-2.357h-1.992v2.357h1.992zm0 5.11c2.073 0 2.032-2.714 0-2.714h-1.992v2.713h1.992zm9.896-1.485c0 2.118 3.861 2.118 3.882 0v-8.794h3.475v8.793c-.02 6.198-10.832 6.198-10.812 0v-8.793h3.455v8.793zm10.895.236c1.362 1.605 4.35 1.684 4.451.258.04-.753-1.199-1.169-2.317-1.327-2.174-.337-4.166-1.683-4.166-4.198 0-2.594 2.419-3.96 4.898-3.96 1.646 0 3.231.455 4.633 2.098l-2.235 1.684c-1.423-1.466-3.841-1.426-3.902.118.04.634.752 1.01 1.809 1.228 2.418.436 4.816 1.248 4.674 4.496-.122 2.554-2.866 3.96-5.365 3.96-1.626 0-3.353-.812-4.614-2.396l2.134-1.96zm12.701 4.179h-3.434V20.526h3.434v13.21zm2.154-13.209h3.252l3.272 5.625 1.158 2.653.102-.02c-.021 0-.366-2.277-.387-2.277v-5.98h3.415v13.208h-3.476l-3.068-5.208-1.179-2.654-.102.02.448 2.555v5.287h-3.435V20.526zm16.4 5.189h5.488v2.891h-5.488v1.98h5.975v3.15h-9.429v-13.21h9.429v3.13h-5.975v2.059zm9.307 3.841c1.362 1.605 4.349 1.684 4.451.258.04-.753-1.199-1.169-2.317-1.327-2.174-.337-4.166-1.683-4.166-4.198 0-2.594 2.418-3.96 4.898-3.96 1.646 0 3.231.455 4.633 2.098l-2.235 1.684c-1.423-1.466-3.841-1.426-3.902.118.04.634.752 1.01 1.808 1.228 2.419.436 4.817 1.248 4.675 4.496-.122 2.554-2.866 3.96-5.366 3.96-1.625 0-3.353-.812-4.613-2.396l2.134-1.96zm10.812 0c1.361 1.605 4.349 1.684 4.45.258.041-.753-1.199-1.169-2.316-1.327-2.175-.337-4.166-1.683-4.166-4.198 0-2.594 2.418-3.96 4.897-3.96 1.646 0 3.232.455 4.634 2.098l-2.236 1.684c-1.422-1.466-3.841-1.426-3.902.118.041.634.752 1.01 1.809 1.228 2.419.436 4.817 1.248 4.674 4.496-.122 2.554-2.865 3.96-5.365 3.96-1.626 0-3.353-.812-4.613-2.396l2.134-1.96zm15.059.357h-5.975v-3.169h5.975v3.169zm5.345-.593c0 2.118 3.861 2.118 3.882 0v-8.794h3.475v8.793c-.021 6.198-10.832 6.198-10.812 0v-8.793h3.475v8.793h-.02zm9.388-8.794h5.427c3.312 0 4.958 2.337 4.958 4.674 0 2.357-1.666 4.674-4.938 4.674h-2.012v3.861h-3.435V20.526zm5.406 6.377c2.073.02 2.073-3.287 0-3.267h-1.991v3.267h1.991zM62.222 47.564V39.27h2.953c1.332 0 2.432.394 3.272 1.184.84.79 1.274 1.778 1.274 2.963 0 1.184-.435 2.172-1.274 2.962-.84.79-1.94 1.185-3.243 1.185h-2.982zm.956-.847h1.997c1.072 0 1.911-.31 2.577-.93.637-.621.955-1.411.955-2.342s-.318-1.721-.984-2.342c-.637-.62-1.505-.93-2.548-.93h-1.997v6.544zm8.423-6.629v-.987h1.072v1.015H71.6v-.028zm.058 7.476v-6.122h.927v6.122h-.927zm5.907 1.919c-1.07 0-2.026-.282-2.866-.846l.434-.705c.753.536 1.535.79 2.432.79.695 0 1.274-.198 1.68-.565.405-.366.608-.902.608-1.608v-.733c-.666.874-1.477 1.297-2.461 1.297a3.049 3.049 0 01-2.085-.79c-.579-.535-.868-1.24-.868-2.087 0-.875.29-1.552.897-2.088.58-.536 1.274-.79 2.056-.79 1.013 0 1.824.424 2.46 1.242v-1.1h.927v5.078c0 .93-.26 1.636-.81 2.172-.55.48-1.361.733-2.404.733zm0-3.188a2.44 2.44 0 001.622-.592c.463-.395.694-.903.694-1.495 0-.593-.231-1.1-.694-1.495a2.44 2.44 0 00-1.622-.593c-.608 0-1.129.198-1.563.564-.405.395-.637.875-.637 1.524 0 .592.203 1.1.637 1.495s.955.592 1.563.592zm5.325-6.207v-.987h1.071v1.015h-1.07v-.028zm.058 7.476v-6.122h.926v6.122h-.926zm5.215.113c-.55 0-.985-.141-1.303-.423-.319-.283-.492-.706-.492-1.298V42.26H85.5v-.818h.869V39.58h.926v1.862h1.998v.818h-1.998v3.583c0 .677.348 1.016 1.071 1.016.319 0 .608-.085.927-.226v.79c-.319.169-.724.254-1.13.254zm4.689.028c-.637 0-1.187-.17-1.65-.508-.464-.339-.695-.818-.695-1.41 0-.65.231-1.129.724-1.496.492-.338 1.129-.536 1.968-.536.637 0 1.303.085 1.911.254v-.197c0-.536-.174-.96-.492-1.242-.319-.282-.782-.423-1.39-.423-.608 0-1.245.141-1.91.452l-.29-.734c.782-.338 1.534-.536 2.287-.536.897 0 1.563.226 2.027.677.434.423.665 1.016.665 1.806v3.752h-.897v-.903c-.55.705-1.303 1.044-2.258 1.044zm.174-.734c.579 0 1.07-.14 1.476-.451.405-.31.608-.705.608-1.185v-.564a6.772 6.772 0 00-1.824-.254c-.579 0-1.013.113-1.36.338-.32.226-.493.537-.493.931 0 .367.145.678.463.903.319.17.695.282 1.13.282zm5.094.593v-8.66h.927v8.66h-.927zm8.629.141c-.637 0-1.187-.17-1.65-.508-.464-.339-.695-.818-.695-1.41 0-.65.231-1.129.724-1.496.492-.338 1.129-.536 1.968-.536a7.25 7.25 0 011.911.254v-.197c0-.536-.174-.96-.492-1.242-.319-.282-.782-.423-1.39-.423-.608 0-1.245.141-1.911.452l-.289-.734c.782-.338 1.534-.536 2.287-.536.897 0 1.563.226 2.027.677.434.423.665 1.016.665 1.806v3.752h-.897v-.903c-.55.705-1.303 1.044-2.258 1.044zm.173-.734c.58 0 1.072-.14 1.477-.451.405-.31.608-.705.608-1.185v-.564a6.773 6.773 0 00-1.824-.254c-.579 0-1.013.113-1.361.338-.318.226-.492.537-.492.931 0 .367.145.678.463.903.319.17.695.282 1.129.282zm7.788 2.512c-1.071 0-2.026-.282-2.866-.846l.434-.705c.753.536 1.535.79 2.432.79.695 0 1.274-.198 1.679-.565.406-.366.608-.902.608-1.608v-.733c-.665.874-1.476 1.297-2.46 1.297a3.05 3.05 0 01-2.085-.79c-.579-.535-.868-1.24-.868-2.087 0-.875.289-1.552.897-2.088.579-.536 1.274-.79 2.056-.79 1.013 0 1.823.424 2.46 1.242v-1.1h.927v5.078c0 .93-.261 1.636-.811 2.172-.55.48-1.36.733-2.403.733zm0-3.188c.608 0 1.158-.197 1.622-.592.463-.395.694-.903.694-1.495 0-.593-.231-1.1-.694-1.495a2.443 2.443 0 00-1.622-.593c-.608 0-1.129.198-1.563.564a2.014 2.014 0 00-.637 1.524c0 .592.203 1.1.637 1.495s.955.592 1.563.592zm5.847-1.411c.057.62.318 1.128.723 1.495a2.19 2.19 0 001.477.564c.753 0 1.418-.282 1.997-.874l.579.507c-.694.762-1.563 1.157-2.605 1.157-.898 0-1.621-.31-2.229-.903-.608-.592-.898-1.354-.898-2.313 0-.903.29-1.665.869-2.285a2.827 2.827 0 012.142-.931c.898 0 1.621.31 2.142.93.522.621.782 1.383.782 2.314v.31h-4.979v.029zm0-.734h4.053c-.058-.592-.261-1.072-.608-1.467-.348-.395-.811-.592-1.419-.592-.521 0-.984.197-1.39.592-.347.367-.55.846-.636 1.467zm6.658 3.414v-6.122h.926v1.072c.492-.79 1.216-1.185 2.143-1.185.752 0 1.331.226 1.766.677.434.452.637 1.044.637 1.777v3.78h-.927v-3.582c0-.564-.145-1.016-.463-1.354-.319-.339-.724-.48-1.274-.48s-.984.17-1.361.536a1.94 1.94 0 00-.55 1.383v3.498h-.897zm10.338.141c-.897 0-1.679-.31-2.287-.931a3.134 3.134 0 01-.926-2.257c0-.875.318-1.636.926-2.257.608-.62 1.39-.93 2.287-.93.985 0 1.824.366 2.519 1.1l-.608.62c-.579-.592-1.216-.903-1.94-.903-.637 0-1.158.226-1.592.706-.434.45-.637 1.043-.637 1.692 0 .677.232 1.241.666 1.693.434.451.984.705 1.65.705.666 0 1.303-.31 1.911-.93l.608.563c-.753.734-1.592 1.129-2.577 1.129zm5.092 1.805c-.463 0-.897-.112-1.332-.31l.319-.733c.289.14.637.226.984.226.29 0 .521-.085.724-.254.203-.17.376-.48.579-.903l-2.866-6.122h1.042l2.287 5.106 2.027-5.106h.984l-2.634 6.348c-.261.62-.551 1.072-.898 1.325a1.871 1.871 0 01-1.216.424z" fill="#000" fill-opacity=".9"/><path d="M190.011 11.5v48" stroke="#fff" stroke-opacity=".5" stroke-linecap="round"/><path d="M200.851 23v-8.64h3.336c.084 0 .178.004.282.012.108.004.216.016.324.036.452.068.834.226 1.146.474.316.244.554.552.714.924.164.372.246.784.246 1.236 0 .448-.082.858-.246 1.23a2.388 2.388 0 01-.72.93c-.312.244-.692.4-1.14.468a4.457 4.457 0 01-.606.048h-2.454V23h-.882zm.882-4.122h2.43c.072 0 .156-.004.252-.012s.19-.022.282-.042c.296-.064.538-.186.726-.366a1.66 1.66 0 00.426-.642c.096-.248.144-.506.144-.774s-.048-.526-.144-.774a1.651 1.651 0 00-.426-.648 1.474 1.474 0 00-.726-.366 1.648 1.648 0 00-.282-.036 3.083 3.083 0 00-.252-.012h-2.43v3.672zm8.215 4.302c-.488 0-.898-.088-1.23-.264a1.79 1.79 0 01-.738-.702 1.915 1.915 0 01-.246-.954c0-.352.07-.652.21-.9.144-.252.338-.458.582-.618.248-.16.534-.282.858-.366.328-.08.69-.15 1.086-.21.4-.064.79-.118 1.17-.162.384-.048.72-.094 1.008-.138l-.312.192c.012-.64-.112-1.114-.372-1.422-.26-.308-.712-.462-1.356-.462-.444 0-.82.1-1.128.3-.304.2-.518.516-.642.948l-.858-.252c.148-.58.446-1.03.894-1.35.448-.32 1.03-.48 1.746-.48.592 0 1.094.112 1.506.336.416.22.71.54.882.96.08.188.132.398.156.63.024.232.036.468.036.708V23h-.786v-1.626l.228.096c-.22.556-.562.98-1.026 1.272-.464.292-1.02.438-1.668.438zm.102-.762c.412 0 .772-.074 1.08-.222.308-.148.556-.35.744-.606.188-.26.31-.552.366-.876.048-.208.074-.436.078-.684.004-.252.006-.44.006-.564l.336.174c-.3.04-.626.08-.978.12-.348.04-.692.086-1.032.138-.336.052-.64.114-.912.186a2.473 2.473 0 00-.534.222 1.233 1.233 0 00-.426.372.998.998 0 00-.162.582c0 .188.046.37.138.546.096.176.248.322.456.438.212.116.492.174.84.174zm7.046.762c-.652 0-1.222-.142-1.71-.426a3.104 3.104 0 01-1.146-1.194l.708-.45c.236.4.53.704.882.912.352.208.756.312 1.212.312.476 0 .858-.11 1.146-.33.288-.22.432-.522.432-.906 0-.264-.062-.474-.186-.63-.12-.156-.304-.268-.552-.336a3.483 3.483 0 00-.918-.102h-.768v-.756h.756c.448 0 .808-.08 1.08-.24.276-.164.414-.42.414-.768 0-.368-.138-.64-.414-.816-.272-.18-.598-.27-.978-.27-.384 0-.748.08-1.092.24a2.7 2.7 0 00-.858.606l-.564-.594a3.231 3.231 0 011.134-.81 3.614 3.614 0 011.446-.282c.416 0 .792.074 1.128.222.34.144.608.356.804.636.2.28.3.616.3 1.008 0 .368-.09.686-.27.954-.176.268-.426.49-.75.666l-.048-.33c.28.052.512.164.696.336.184.172.32.378.408.618.088.24.132.484.132.732 0 .412-.108.768-.324 1.068a2.087 2.087 0 01-.87.69c-.364.16-.774.24-1.23.24zm6.658 0c-.596 0-1.1-.15-1.512-.45a2.822 2.822 0 01-.936-1.23 4.587 4.587 0 01-.318-1.746c0-.656.106-1.24.318-1.752.216-.516.532-.922.948-1.218.416-.296.928-.444 1.536-.444.592 0 1.1.15 1.524.45.424.3.748.708.972 1.224.228.516.342 1.096.342 1.74 0 .648-.114 1.23-.342 1.746a2.919 2.919 0 01-.984 1.23c-.428.3-.944.45-1.548.45zm-2.916 2.7v-9.36h.792v4.878h.096v4.482h-.888zm2.826-3.522c.452 0 .828-.114 1.128-.342.3-.228.524-.538.672-.93.152-.396.228-.84.228-1.332 0-.488-.074-.928-.222-1.32a2.023 2.023 0 00-.678-.93c-.3-.228-.682-.342-1.146-.342-.452 0-.828.11-1.128.33-.296.22-.518.526-.666.918-.148.388-.222.836-.222 1.344 0 .5.074.948.222 1.344.148.392.372.7.672.924.3.224.68.336 1.14.336zm6.135.822c-.488 0-.898-.088-1.23-.264a1.79 1.79 0 01-.738-.702 1.915 1.915 0 01-.246-.954c0-.352.07-.652.21-.9.144-.252.338-.458.582-.618.248-.16.534-.282.858-.366.328-.08.69-.15 1.086-.21.4-.064.79-.118 1.17-.162.384-.048.72-.094 1.008-.138l-.312.192c.012-.64-.112-1.114-.372-1.422-.26-.308-.712-.462-1.356-.462-.444 0-.82.1-1.128.3-.304.2-.518.516-.642.948l-.858-.252c.148-.58.446-1.03.894-1.35.448-.32 1.03-.48 1.746-.48.592 0 1.094.112 1.506.336.416.22.71.54.882.96.08.188.132.398.156.63.024.232.036.468.036.708V23h-.786v-1.626l.228.096c-.22.556-.562.98-1.026 1.272-.464.292-1.02.438-1.668.438zm.102-.762c.412 0 .772-.074 1.08-.222.308-.148.556-.35.744-.606.188-.26.31-.552.366-.876.048-.208.074-.436.078-.684.004-.252.006-.44.006-.564l.336.174c-.3.04-.626.08-.978.12-.348.04-.692.086-1.032.138-.336.052-.64.114-.912.186a2.473 2.473 0 00-.534.222 1.233 1.233 0 00-.426.372.998.998 0 00-.162.582c0 .188.046.37.138.546.096.176.248.322.456.438.212.116.492.174.84.174zm7.31.768c-.604-.004-1.122-.136-1.554-.396-.432-.26-.768-.648-1.008-1.164-.236-.516-.364-1.16-.384-1.932a12.331 12.331 0 01.156-2.262c.06-.364.132-.66.216-.888.104-.296.252-.572.444-.828.196-.26.422-.472.678-.636.248-.168.528-.298.84-.39.316-.096.644-.17.984-.222.344-.052.684-.098 1.02-.138.34-.04.654-.09.942-.15l.096.798c-.22.044-.48.084-.78.12-.3.036-.614.08-.942.132a7.54 7.54 0 00-.942.198 2.83 2.83 0 00-.768.33c-.324.196-.574.492-.75.888a4.23 4.23 0 00-.318 1.362c.248-.388.576-.68.984-.876a3.074 3.074 0 011.338-.294c.584 0 1.086.134 1.506.402.424.268.75.64.978 1.116.228.476.342 1.022.342 1.638 0 .644-.126 1.206-.378 1.686-.248.48-.602.852-1.062 1.116-.46.26-1.006.39-1.638.39zm.066-.846c.68 0 1.196-.212 1.548-.636.356-.424.534-.988.534-1.692 0-.72-.184-1.288-.552-1.704-.364-.416-.878-.624-1.542-.624s-1.174.208-1.53.624c-.356.416-.534.984-.534 1.704s.178 1.288.534 1.704c.356.416.87.624 1.542.624zm7.038.84c-.644 0-1.194-.146-1.65-.438a2.85 2.85 0 01-1.05-1.212c-.244-.516-.366-1.108-.366-1.776 0-.68.124-1.276.372-1.788s.6-.91 1.056-1.194c.46-.288 1.006-.432 1.638-.432.648 0 1.2.146 1.656.438.46.288.81.69 1.05 1.206.244.512.366 1.102.366 1.77 0 .68-.122 1.278-.366 1.794a2.804 2.804 0 01-1.056 1.2c-.46.288-1.01.432-1.65.432zm0-.846c.72 0 1.256-.238 1.608-.714.352-.48.528-1.102.528-1.866 0-.784-.178-1.408-.534-1.872-.352-.464-.886-.696-1.602-.696-.484 0-.884.11-1.2.33a1.957 1.957 0 00-.702.906c-.152.384-.228.828-.228 1.332 0 .78.18 1.406.54 1.878.36.468.89.702 1.59.702zm6.001.666v-5.664h-2.298v-.816h5.478v.816h-2.298V23h-.882zm4.318 0l.006-6.48h.888v3.12l2.892-3.12h1.176l-3.036 3.24 3.432 3.24h-1.284l-3.18-3.12V23h-.894zm7.814.18c-.488 0-.898-.088-1.23-.264a1.79 1.79 0 01-.738-.702 1.915 1.915 0 01-.246-.954c0-.352.07-.652.21-.9.144-.252.338-.458.582-.618.248-.16.534-.282.858-.366.328-.08.69-.15 1.086-.21.4-.064.79-.118 1.17-.162.384-.048.72-.094 1.008-.138l-.312.192c.012-.64-.112-1.114-.372-1.422-.26-.308-.712-.462-1.356-.462-.444 0-.82.1-1.128.3-.304.2-.518.516-.642.948l-.858-.252c.148-.58.446-1.03.894-1.35.448-.32 1.03-.48 1.746-.48.592 0 1.094.112 1.506.336.416.22.71.54.882.96.08.188.132.398.156.63.024.232.036.468.036.708V23h-.786v-1.626l.228.096c-.22.556-.562.98-1.026 1.272-.464.292-1.02.438-1.668.438zm.102-.762c.412 0 .772-.074 1.08-.222.308-.148.556-.35.744-.606.188-.26.31-.552.366-.876.048-.208.074-.436.078-.684.004-.252.006-.44.006-.564l.336.174c-.3.04-.626.08-.978.12-.348.04-.692.086-1.032.138-.336.052-.64.114-.912.186a2.473 2.473 0 00-.534.222 1.233 1.233 0 00-.426.372.998.998 0 00-.162.582c0 .188.046.37.138.546.096.176.248.322.456.438.212.116.492.174.84.174zm12.262-5.898V23h-.858v-5.046L270.402 23h-.744v-6.48h.858v5.004l3.558-5.004h.738zM200.845 40v-6.48h5.154V40h-.882v-5.634h-3.39V40h-.882zm9.748.18c-.596 0-1.1-.15-1.512-.45a2.822 2.822 0 01-.936-1.23 4.587 4.587 0 01-.318-1.746c0-.656.106-1.24.318-1.752.216-.516.532-.922.948-1.218.416-.296.928-.444 1.536-.444.592 0 1.1.15 1.524.45.424.3.748.708.972 1.224.228.516.342 1.096.342 1.74 0 .648-.114 1.23-.342 1.746a2.919 2.919 0 01-.984 1.23c-.428.3-.944.45-1.548.45zm-2.916 2.7v-9.36h.792v4.878h.096v4.482h-.888zm2.826-3.522c.452 0 .828-.114 1.128-.342.3-.228.524-.538.672-.93.152-.396.228-.84.228-1.332 0-.488-.074-.928-.222-1.32a2.023 2.023 0 00-.678-.93c-.3-.228-.682-.342-1.146-.342-.452 0-.828.11-1.128.33-.296.22-.518.526-.666.918-.148.388-.222.836-.222 1.344 0 .5.074.948.222 1.344.148.392.372.7.672.924.3.224.68.336 1.14.336zm6.988.822c-.644 0-1.194-.146-1.65-.438a2.85 2.85 0 01-1.05-1.212c-.244-.516-.366-1.108-.366-1.776 0-.68.124-1.276.372-1.788s.6-.91 1.056-1.194c.46-.288 1.006-.432 1.638-.432.648 0 1.2.146 1.656.438.46.288.81.69 1.05 1.206.244.512.366 1.102.366 1.77 0 .68-.122 1.278-.366 1.794a2.804 2.804 0 01-1.056 1.2c-.46.288-1.01.432-1.65.432zm0-.846c.72 0 1.256-.238 1.608-.714.352-.48.528-1.102.528-1.866 0-.784-.178-1.408-.534-1.872-.352-.464-.886-.696-1.602-.696-.484 0-.884.11-1.2.33a1.957 1.957 0 00-.702.906c-.152.384-.228.828-.228 1.332 0 .78.18 1.406.54 1.878.36.468.89.702 1.59.702zm3.916 2.106v-2.196c.368 0 .632-.118.792-.354.16-.24.29-.622.39-1.146.068-.34.124-.706.168-1.098.044-.392.082-.84.114-1.344a83.32 83.32 0 00.09-1.782h4.284v5.724h.624v2.196h-.852V40h-4.764v1.44h-.846zm1.494-2.196h3.468v-4.968h-2.592c-.012.304-.03.626-.054.966-.02.34-.046.68-.078 1.02-.028.34-.062.66-.102.96a7.48 7.48 0 01-.132.78c-.06.288-.126.534-.198.738a1.2 1.2 0 01-.312.504zm6.163.756v-6.48h2.67c.136 0 .3.008.492.024.196.016.378.046.546.09.364.096.656.292.876.588.224.296.336.652.336 1.068 0 .232-.036.44-.108.624-.068.18-.166.336-.294.468a1.202 1.202 0 01-.408.3c.128.024.266.08.414.168.232.136.408.32.528.552.12.228.18.506.18.834 0 .444-.106.806-.318 1.086-.212.28-.496.472-.852.576a2.59 2.59 0 01-.522.084 8.04 8.04 0 01-.522.018h-3.018zm.888-.75h2.088c.084 0 .19-.006.318-.018.128-.016.242-.036.342-.06.236-.06.408-.18.516-.36.112-.184.168-.384.168-.6 0-.284-.084-.516-.252-.696a1.053 1.053 0 00-.66-.336 1.667 1.667 0 00-.288-.036c-.1-.004-.19-.006-.27-.006h-1.962v2.112zm0-2.868h1.812c.104 0 .22-.006.348-.018a1.49 1.49 0 00.342-.078.79.79 0 00.456-.372c.1-.176.15-.368.15-.576 0-.228-.054-.428-.162-.6a.824.824 0 00-.474-.36 1.594 1.594 0 00-.468-.09 8.808 8.808 0 00-.312-.012h-1.692v2.106zm10.688-2.862V40h-.858v-5.046L236.23 40h-.744v-6.48h.858v5.004l3.558-5.004h.738zm.964 6.48l2.736-3.24-2.622-3.24h.996l2.556 3.198V33.52h.816v3.198l2.556-3.198h.99l-2.622 3.24 2.736 3.24h-1.026l-2.634-3.198V40h-.816v-3.198L242.63 40h-1.026zm11.607.18c-.632 0-1.18-.14-1.644-.42a2.85 2.85 0 01-1.074-1.182c-.256-.508-.384-1.104-.384-1.788 0-.708.126-1.32.378-1.836a2.81 2.81 0 011.062-1.194c.46-.28 1.002-.42 1.626-.42.64 0 1.186.148 1.638.444.452.292.794.712 1.026 1.26.232.548.338 1.202.318 1.962h-.9v-.312c-.016-.84-.198-1.474-.546-1.902-.344-.428-.848-.642-1.512-.642-.696 0-1.23.226-1.602.678-.368.452-.552 1.096-.552 1.932 0 .816.184 1.45.552 1.902.372.448.898.672 1.578.672.464 0 .868-.106 1.212-.318.348-.216.622-.526.822-.93l.822.318a2.94 2.94 0 01-1.134 1.314 3.13 3.13 0 01-1.686.462zm-2.478-3.174v-.738h4.95v.738h-4.95zM257.482 40v-6.48h.882v2.814h3.654V33.52h.882V40h-.882v-2.82h-3.654V40h-.882zm12.244-6.48V40h-.858v-5.046L265.316 40h-.744v-6.48h.858v5.004l3.558-5.004h.738zm4.426 6.66c-.632 0-1.18-.14-1.644-.42a2.85 2.85 0 01-1.074-1.182c-.256-.508-.384-1.104-.384-1.788 0-.708.126-1.32.378-1.836a2.81 2.81 0 011.062-1.194c.46-.28 1.002-.42 1.626-.42.64 0 1.186.148 1.638.444.452.292.794.712 1.026 1.26.232.548.338 1.202.318 1.962h-.9v-.312c-.016-.84-.198-1.474-.546-1.902-.344-.428-.848-.642-1.512-.642-.696 0-1.23.226-1.602.678-.368.452-.552 1.096-.552 1.932 0 .816.184 1.45.552 1.902.372.448.898.672 1.578.672.464 0 .868-.106 1.212-.318.348-.216.622-.526.822-.93l.822.318a2.94 2.94 0 01-1.134 1.314 3.13 3.13 0 01-1.686.462zm-2.478-3.174v-.738h4.95v.738h-4.95zm6.401 4.248l.054-.438c.16.012.276-.02.348-.096a.526.526 0 00.132-.306 2.33 2.33 0 00.012-.414h-.546v-1.266h1.026v1.506c0 .368-.094.644-.282.828-.184.184-.432.246-.744.186zM203.539 57.18c-.652 0-1.204-.146-1.656-.438a2.791 2.791 0 01-1.032-1.206c-.232-.516-.352-1.108-.36-1.776.008-.68.132-1.276.372-1.788.24-.516.586-.916 1.038-1.2.452-.288 1-.432 1.644-.432.656 0 1.226.16 1.71.48.488.32.822.758 1.002 1.314l-.864.276a1.825 1.825 0 00-.726-.9 2.004 2.004 0 00-1.128-.324c-.476 0-.87.11-1.182.33a1.92 1.92 0 00-.696.906c-.152.388-.23.834-.234 1.338.008.776.188 1.4.54 1.872.352.468.876.702 1.572.702.44 0 .814-.1 1.122-.3.312-.204.548-.5.708-.888l.888.264c-.24.576-.592 1.016-1.056 1.32-.464.3-1.018.45-1.662.45zm5.759-.18v-.774c.24.044.422.034.546-.03a.61.61 0 00.282-.336c.06-.16.11-.358.15-.594.064-.392.122-.824.174-1.296.052-.472.098-.992.138-1.56.044-.572.088-1.202.132-1.89h4.404V57h-.876v-5.634h-2.712a64.899 64.899 0 01-.21 2.478c-.036.384-.076.738-.12 1.062-.044.324-.09.604-.138.84-.072.356-.168.64-.288.852a.844.844 0 01-.522.42c-.232.068-.552.062-.96-.018zm12.603.18c-.572 0-1.07-.122-1.494-.366a2.748 2.748 0 01-1.014-1.038c-.248-.448-.398-.974-.45-1.578h-1.266V57h-.882v-6.48h.882v2.802h1.26c.052-.612.204-1.14.456-1.584a2.69 2.69 0 011.02-1.032c.428-.244.926-.366 1.494-.366.644 0 1.194.146 1.65.438.46.292.81.694 1.05 1.206.244.512.366 1.1.366 1.764 0 .68-.124 1.278-.372 1.794a2.797 2.797 0 01-1.056 1.206c-.456.288-1.004.432-1.644.432zm-.018-.846c.728 0 1.268-.236 1.62-.708.356-.476.534-1.1.534-1.872 0-.788-.18-1.412-.54-1.872-.356-.464-.892-.696-1.608-.696-.684 0-1.208.228-1.572.684-.364.452-.546 1.078-.546 1.878 0 .784.178 1.412.534 1.884.36.468.886.702 1.578.702zm7.008.852c-.604-.004-1.122-.136-1.554-.396-.432-.26-.768-.648-1.008-1.164-.236-.516-.364-1.16-.384-1.932a12.331 12.331 0 01.156-2.262c.06-.364.132-.66.216-.888.104-.296.252-.572.444-.828.196-.26.422-.472.678-.636.248-.168.528-.298.84-.39.316-.096.644-.17.984-.222.344-.052.684-.098 1.02-.138.34-.04.654-.09.942-.15l.096.798c-.22.044-.48.084-.78.12-.3.036-.614.08-.942.132a7.54 7.54 0 00-.942.198 2.83 2.83 0 00-.768.33c-.324.196-.574.492-.75.888a4.23 4.23 0 00-.318 1.362c.248-.388.576-.68.984-.876a3.074 3.074 0 011.338-.294c.584 0 1.086.134 1.506.402.424.268.75.64.978 1.116.228.476.342 1.022.342 1.638 0 .644-.126 1.206-.378 1.686-.248.48-.602.852-1.062 1.116-.46.26-1.006.39-1.638.39zm.066-.846c.68 0 1.196-.212 1.548-.636.356-.424.534-.988.534-1.692 0-.72-.184-1.288-.552-1.704-.364-.416-.878-.624-1.542-.624s-1.174.208-1.53.624c-.356.416-.534.984-.534 1.704s.178 1.288.534 1.704c.356.416.87.624 1.542.624zm7.038.84c-.644 0-1.194-.146-1.65-.438a2.85 2.85 0 01-1.05-1.212c-.244-.516-.366-1.108-.366-1.776 0-.68.124-1.276.372-1.788s.6-.91 1.056-1.194c.46-.288 1.006-.432 1.638-.432.648 0 1.2.146 1.656.438.46.288.81.69 1.05 1.206.244.512.366 1.102.366 1.77 0 .68-.122 1.278-.366 1.794a2.804 2.804 0 01-1.056 1.2c-.46.288-1.01.432-1.65.432zm0-.846c.72 0 1.256-.238 1.608-.714.352-.48.528-1.102.528-1.866 0-.784-.178-1.408-.534-1.872-.352-.464-.886-.696-1.602-.696-.484 0-.884.11-1.2.33a1.957 1.957 0 00-.702.906c-.152.384-.228.828-.228 1.332 0 .78.18 1.406.54 1.878.36.468.89.702 1.59.702zm4.389.666v-6.48h2.67c.136 0 .3.008.492.024.196.016.378.046.546.09.364.096.656.292.876.588.224.296.336.652.336 1.068 0 .232-.036.44-.108.624-.068.18-.166.336-.294.468a1.202 1.202 0 01-.408.3c.128.024.266.08.414.168.232.136.408.32.528.552.12.228.18.506.18.834 0 .444-.106.806-.318 1.086-.212.28-.496.472-.852.576a2.59 2.59 0 01-.522.084 8.04 8.04 0 01-.522.018h-3.018zm.888-.75h2.088c.084 0 .19-.006.318-.018.128-.016.242-.036.342-.06.236-.06.408-.18.516-.36.112-.184.168-.384.168-.6 0-.284-.084-.516-.252-.696a1.053 1.053 0 00-.66-.336 1.667 1.667 0 00-.288-.036c-.1-.004-.19-.006-.27-.006h-1.962v2.112zm0-2.868h1.812c.104 0 .22-.006.348-.018a1.49 1.49 0 00.342-.078.79.79 0 00.456-.372c.1-.176.15-.368.15-.576 0-.228-.054-.428-.162-.6a.824.824 0 00-.474-.36 1.594 1.594 0 00-.468-.09 8.808 8.808 0 00-.312-.012h-1.692v2.106zM246.818 57l-.012-6.48h.888v2.442h1.518c.188 0 .372.004.552.012.184.008.346.024.486.048.32.06.604.166.852.318.252.152.448.362.588.63.144.268.216.604.216 1.008 0 .556-.144.994-.432 1.314-.284.32-.644.528-1.08.624-.164.036-.342.06-.534.072-.192.008-.382.012-.57.012h-2.472zm.876-.756h1.56c.136 0 .288-.004.456-.012a2 2 0 00.444-.066c.212-.06.404-.18.576-.36.176-.184.264-.46.264-.828 0-.364-.084-.638-.252-.822a1.213 1.213 0 00-.672-.372 2.44 2.44 0 00-.402-.054 7.473 7.473 0 00-.414-.012h-1.56v2.526zm10.453.936c-.572 0-1.07-.122-1.494-.366a2.748 2.748 0 01-1.014-1.038c-.248-.448-.398-.974-.45-1.578h-1.266V57h-.882v-6.48h.882v2.802h1.26c.052-.612.204-1.14.456-1.584a2.69 2.69 0 011.02-1.032c.428-.244.926-.366 1.494-.366.644 0 1.194.146 1.65.438.46.292.81.694 1.05 1.206.244.512.366 1.1.366 1.764 0 .68-.124 1.278-.372 1.794a2.797 2.797 0 01-1.056 1.206c-.456.288-1.004.432-1.644.432zm-.018-.846c.728 0 1.268-.236 1.62-.708.356-.476.534-1.1.534-1.872 0-.788-.18-1.412-.54-1.872-.356-.464-.892-.696-1.608-.696-.684 0-1.208.228-1.572.684-.364.452-.546 1.078-.546 1.878 0 .784.178 1.412.534 1.884.36.468.886.702 1.578.702z" fill="#000" fill-opacity=".5"/><rect x=".5" y=".5" width="297" height="70" rx="9.5" stroke="#000" stroke-opacity=".2"/><defs><linearGradient id="paint0_linear_314_716" x1="14.402" y1="32.817" x2="30.912" y2="16.002" gradientUnits="userSpaceOnUse"><stop stop-color="#CE2000"/><stop offset=".613" stop-color="#A61A00"/><stop offset="1" stop-color="#DD1500"/></linearGradient><linearGradient id="paint1_linear_314_716" x1="14.383" y1="42.64" x2="38.503" y2="18.074" gradientUnits="userSpaceOnUse"><stop stop-color="#CE2000"/><stop offset=".613" stop-color="#A61A00"/><stop offset="1" stop-color="#DD1500"/></linearGradient><linearGradient id="paint2_linear_314_716" x1="20.436" y1="47.95" x2="45.274" y2="22.652" gradientUnits="userSpaceOnUse"><stop stop-color="#CE2000"/><stop offset=".613" stop-color="#A61A00"/><stop offset="1" stop-color="#DD1500"/></linearGradient><linearGradient id="paint3_linear_314_716" x1="26.95" y1="51.698" x2="50.779" y2="27.428" gradientUnits="userSpaceOnUse"><stop stop-color="#CE2000"/><stop offset=".613" stop-color="#A61A00"/><stop offset="1" stop-color="#DD1500"/></linearGradient><linearGradient id="paint4_linear_314_716" x1="35.65" y1="54.557" x2="52.16" y2="37.742" gradientUnits="userSpaceOnUse"><stop stop-color="#CE2000"/><stop offset=".613" stop-color="#A61A00"/><stop offset="1" stop-color="#DD1500"/></linearGradient></defs></svg>