<svg width="238" height="238" fill="none" xmlns="http://www.w3.org/2000/svg"><g fill="#041133" clip-path="url(#clip0_451_360)"><path d="M5.808 78.826l23.082 7.853a4.93 4.93 0 005.064-1.185c1.34-1.334 1.787-3.26 1.19-4.89-4.169-13.187-1.34-31.264 3.873-46.525 2.531-7.557 5.659-14.076 8.34-18.67 1.34-2.37 2.68-4 3.573-5.037l.447-.445c.149 0 .447.149.745.297 1.042.444 2.233 1.185 3.723 2.222 2.83 1.926 6.254 4.742 9.382 7.557 3.127 2.815 6.105 5.63 8.339 7.705l2.531 2.519.745.74.149.149c1.34 1.333 3.276 1.778 5.212 1.185h.15c.148 0 .297-.148.595-.148.595-.148 1.34-.445 2.382-.741 2.085-.593 4.915-1.482 8.191-2.37 6.552-1.779 14.147-3.409 19.508-3.409 5.361 0 12.956 1.63 19.509 3.408 3.276.89 6.105 1.778 8.19 2.37 1.043.297 1.787.593 2.383.742.298.148.447.148.595.148h.149c1.787.593 3.872.148 5.213-1.186l.148-.148.745-.74 2.532-2.52c2.233-2.074 5.212-4.889 8.339-7.704 3.276-2.815 6.552-5.482 9.531-7.557a30.16 30.16 0 013.723-2.222c.298-.149.595-.297.744-.297l.447.445c1.043 1.185 2.234 2.963 3.723 5.482 2.83 5.038 5.808 12.15 8.34 20.151 2.531 7.853 4.467 16.447 5.212 24.448.744 8.001.298 14.817-1.638 19.706-.745 1.778-.298 3.705 1.042 5.186 1.34 1.334 3.276 1.927 5.063 1.334l23.083-7.705c2.531-.889 4.02-3.556 3.127-6.223-.894-2.519-3.574-4-6.255-3.112l-14.743 4.89c.596-4.741.596-9.927 0-15.113-.893-8.742-2.978-17.929-5.659-26.374-2.68-8.446-5.956-16.15-9.084-21.781-1.638-2.815-3.276-5.334-4.914-7.26-.744-.89-1.787-1.778-2.829-2.52C178.702.742 177.213 0 175.426 0c-2.085 0-4.021.74-5.659 1.482-1.638.74-3.425 1.778-5.212 2.963-3.425 2.37-7.148 5.334-10.573 8.297a177.732 177.732 0 00-8.786 8.15l-1.49 1.482c-.148 0-.297-.149-.595-.149-2.234-.74-5.212-1.63-8.637-2.519-5.659-1.926-14.446-3.852-21.147-3.852-6.701 0-15.487 1.926-22.189 3.852-3.425.89-6.403 1.779-8.637 2.52-.149 0-.447.148-.596.148l-1.489-1.482c-2.234-2.223-5.36-5.186-8.637-8.15-3.276-2.963-7-5.926-10.424-8.297-1.638-1.185-3.425-2.222-5.064-2.963C54.802.74 52.866 0 50.781 0c-1.787 0-3.127.74-4.17 1.334-1.042.592-1.935 1.481-2.829 2.37-1.638 1.778-3.276 4-4.914 6.668-3.127 5.334-6.553 12.594-9.233 20.595-4.468 13.187-7.744 29.486-5.808 43.858L9.084 69.64c-2.531-.888-5.36.445-6.254 3.112-.894 2.519.446 5.334 2.978 6.075z"/><path d="M229.334 214.401c-4.169-2.075-8.935 0-12.509 2.963l-.149.148s-.149 0-.149.148c-2.382 1.927-5.063 3.408-7.892 4.297-2.83.889-5.659 1.334-8.489 1.334-3.872 0-7.446-.741-10.722-2.371a27.577 27.577 0 01-8.339-6.667c-2.234-2.816-4.021-6.075-5.361-9.631-1.192-3.705-1.936-7.409-1.936-11.41 0-3.556.446-6.963 1.489-10.52a27.431 27.431 0 014.914-9.482c2.234-2.816 4.915-5.186 8.042-6.816 3.276-1.778 7.148-2.667 11.467-2.667 2.68 0 5.361.444 8.19 1.185 2.829.741 5.361 2.075 7.893 4.149 3.723 2.815 8.488 4.741 12.211 1.778l.596-.593c2.68-2.37 3.723-6.223 1.489-9.186-2.085-2.815-4.617-4.89-8.488-7.26a39.033 39.033 0 00-8.042-3.557c7.446-4.445 12.211-11.26 12.211-18.965 0-13.484-14.445-24.3-32.315-24.3-5.659 0-11.02 1.037-15.636 2.963l.893-.889.149-.148 1.042-1.037c5.51-5.927 8.638-13.483 8.787-21.484v-2.371c0-.445 0-1.186-.149-2.075-.894-7.112-6.851-12.594-14.148-12.742-.744 0-1.638 0-2.084.148h-.149l-1.787.148c-1.787-8.593-8.787-15.113-16.977-15.113-9.233 0-16.828 8.001-17.424 18.225h-.148c-1.49.148-3.426.296-5.064.593-1.936.444-4.765 1.333-7.148 3.704-.447.444-.893.889-1.191 1.333-1.787 2.223-2.532 4.445-2.83 6.371h-13.253c-.298-1.926-1.043-4.148-2.83-6.37-.298-.445-.744-.89-1.191-1.334-2.383-2.371-5.212-3.26-7.148-3.705-1.49-.296-3.276-.444-4.617-.592-.446-9.631-8.041-17.78-17.274-17.78-8.19 0-15.19 6.519-16.977 15.113l-2.234-.148h-.149c-.446 0-1.19-.148-2.084-.148-7.297.148-13.254 5.482-14.148 12.742-.149.74-.149 1.63-.149 2.074v2.371c.15 8.001 3.277 15.706 8.787 21.485l1.042 1.037.149.148.893.889c-4.616-1.926-10.126-3.112-15.785-3.112-17.87 0-32.315 10.965-32.315 24.3 0 7.112 4.02 13.484 10.424 17.929-.744-.149-1.34-.297-2.085-.297-4.765 0-8.637 3.853-8.637 8.594v71.418c0 4.741 3.872 8.593 8.637 8.593 4.766 0 8.637-3.852 8.637-8.593v-28.745h8.638L51.377 234.7c1.489 1.926 3.723 3.111 6.254 3.111 6.404 0 9.978-7.112 6.255-12.298l-24.274-33.486 23.38-30.523c3.872-5.037.15-12.298-6.254-12.298-.894 0-1.787.148-2.68.445 6.7-4.445 10.87-10.965 10.87-18.225 0-6.223-3.127-11.854-8.041-16.15 4.318 1.481 9.084 1.778 13.7.592.447-.148.894-.296 1.34-.296h.15l21.593-6.371.297-.149c1.192-.296 2.83-.74 4.17-1.333 1.638-.741 3.872-1.778 5.659-4.001.298-.444.596-.74.894-1.185 1.638-2.371 2.084-4.741 2.233-6.52 0-.444 0-.74.149-1.185h12.658c0 .445 0 .89.149 1.186.149 1.778.745 4.148 2.234 6.519.298.445.596.889.894 1.185 1.787 2.223 4.02 3.26 5.658 4.001 1.341.593 2.83 1.037 4.17 1.333l.298.149 21.593 6.371h.149c.447.148.894.296 1.34.296 4.468 1.186 9.233.889 13.552-.592-4.914 4.296-8.042 9.927-8.042 16.002 0 9.779 7.595 18.076 18.466 22.077-4.616 2.371-8.637 5.482-11.913 9.335-3.723 4.297-6.702 9.038-8.786 14.224-1.936 5.186-2.979 10.372-2.979 15.854 0 5.63 1.043 11.113 3.127 16.595 2.234 5.482 5.213 10.372 8.936 14.669a47.54 47.54 0 0013.7 10.52c5.361 2.519 11.169 3.852 17.572 3.852 4.915 0 9.829-.741 14.743-2.371 4.915-1.629 9.382-3.852 13.403-6.964 1.936-1.481 3.425-3.259 4.765-5.037 2.085-3.408.298-7.853-3.425-9.631zM73.417 63.416c2.085 0 3.872 3.705 4.17 8.446l-8.34-.74c.447-4.446 2.085-7.706 4.17-7.706zm-22.785 88.902L26.36 184.915h-8.787V157.8c0-2.222-.893-4.297-2.382-5.927 5.063 2.519 11.169 4.001 17.572 4.001 7 0 13.552-1.778 18.913-4.593a3.461 3.461 0 00-1.043 1.037zm-1.042-11.409a37.5 37.5 0 01-3.574 2.222v-10.816c0-2.519-2.234-4.593-5.063-4.445-2.83.148-5.064 2.371-5.064 4.889v13.188c-1.042.148-2.085.148-3.127.148h-2.234v-13.78c0-2.519-2.233-4.593-5.063-4.445-2.83.148-5.063 2.371-5.063 4.889v10.817a22.25 22.25 0 01-4.468-2.667c-4.02-2.964-5.51-6.371-5.51-9.483 0-2.963 1.638-6.519 5.51-9.483 4.021-2.963 9.978-5.186 16.977-5.186 7 0 12.956 2.075 16.977 5.186 4.02 2.964 5.51 6.371 5.51 9.483-.15 3.112-1.787 6.519-5.808 9.483zm46.76-43.71c-.149.148-.149.296-.298.444-.893 1.038-2.382 1.482-5.212 2.371l-21.593 6.371c-.596.149-.745.297-1.042.297-1.192.296-2.383.444-3.425.444-3.426 0-6.85-1.333-9.382-3.852l-.745-.741-.893-.889c-3.872-4.149-5.957-9.483-6.106-15.113v-3.112c.298-2.222 2.234-4 4.467-4 .298 0 .596 0 1.192.148l3.425.296 14.296 1.334 4.765.444 13.403 1.185c3.574.297 5.51.445 6.552 1.63l.447.445c1.043 1.185 1.043 3.111 1.043 6.668-.15 2.963-.15 4.445-.894 5.63zm57.334-33.783c1.936 0 3.574 3.26 4.021 7.705l-8.191.741c.298-4.741 2.085-8.446 4.17-8.446zm4.467 43.118c-.298 0-.446-.149-1.042-.297l-21.593-6.371c-2.532-.74-4.021-1.185-4.915-1.926-.149-.148-.297-.297-.297-.445-.149-.148-.149-.296-.298-.444-.745-1.186-.745-2.667-.745-5.63 0-3.705 0-5.483 1.043-6.668l.446-.445c1.192-1.185 2.979-1.333 6.553-1.63l33.209-3.111 2.829-.296c.596 0 .893-.149 1.191-.149 2.383 0 4.319 1.778 4.468 4v2.816c0 1.334-.149 2.815-.447 4.149-.893 4.148-2.829 7.853-5.659 10.964-.149.297-.447.445-.893.889l-.745.741c-3.574 3.704-8.488 5.038-13.105 3.853zm18.466 34.375c-4.021-2.964-5.51-6.371-5.51-9.483 0-2.963 1.638-6.519 5.51-9.483 4.021-2.963 9.978-5.186 16.977-5.186 6.999 0 12.956 2.075 16.977 5.186 4.02 2.964 5.51 6.371 5.51 9.483 0 2.963-1.639 6.519-5.51 9.483a37.6 37.6 0 01-3.574 2.222v-10.816c0-2.519-2.234-4.593-5.064-4.445-2.829.148-5.063 2.371-5.063 4.889v13.188c-1.042.148-2.085.148-3.127.148h-2.234v-13.78c0-2.519-2.234-4.593-5.063-4.445-2.83.148-5.063 2.371-5.063 4.889v10.817a18.154 18.154 0 01-4.766-2.667z"/><path d="M196.126 93.939c-2.681 0-4.766 2.223-4.766 4.89s2.234 4.889 4.915 4.889h23.082c2.681 0 4.765-2.222 4.765-4.89 0-2.666-2.233-4.889-4.914-4.889h-23.082zm-91.586 36.153c-1.042 0-3.574-.444-6.85-5.334-1.49-2.222-4.468-2.815-6.85-1.333-2.234 1.482-2.83 4.445-1.34 6.816 4.467 6.667 9.68 9.779 15.189 9.631 3.127-.149 5.808-1.186 7.893-2.667 2.68 1.481 5.957 2.667 9.382 2.667 2.829 0 5.807-.593 8.488-2.371 2.681-1.778 4.914-4.593 6.403-8.149 1.043-2.519-.148-5.334-2.68-6.372a4.885 4.885 0 00-6.404 2.667c-.893 2.075-1.935 3.26-2.68 3.705-.894.592-1.787.74-2.978.74-1.787 0-3.426-.74-4.766-1.481v-6.668c3.425-1.333 5.659-4.149 5.659-7.408 0-4.594-4.765-8.298-10.722-8.298s-10.722 3.704-10.722 8.298c0 3.259 2.383 5.926 5.808 7.408v6.964c-.596.741-1.787 1.185-2.83 1.185zM7.595 93.939c-2.68 0-4.914 2.223-4.914 4.89s2.233 4.889 4.914 4.889h23.082c2.68 0 4.915-2.222 4.915-4.89 0-2.666-2.085-4.889-4.766-4.889H7.595zm131.793 55.267c-3.574 0-6.851 1.778-8.787 4.594l-40.356 59.712v-55.86c0-4.741-3.872-8.594-8.638-8.594-4.765 0-8.637 3.853-8.637 8.594v69.195c0 5.927 4.914 10.816 10.871 10.816 3.574 0 7-1.778 9.084-4.741l39.761-58.823v55.119c0 4.741 3.872 8.593 8.638 8.593 4.765 0 8.637-3.852 8.637-8.593v-69.492c0-5.926-4.766-10.52-10.573-10.52z"/></g><defs><clipPath id="clip0_451_360"><path fill="#fff" d="M0 0h238v238H0z"/></clipPath></defs></svg>