<svg width="1920" height="1083" fill="none" xmlns="http://www.w3.org/2000/svg"><g filter="url(#filter0_f_208_54)"><path d="M1606.45 333.457c4.85-10.826-6.63-38.415-15.91-53.535-.43-34.421-2.72-82.66-31.83-108.11-60.18-52.63-226.76-50.775-320.1-37.531-73.76 10.467-183.03 22.736-237.06 70.319-19.608 17.27-45.185 30.859-64.073 48.831-32.111 30.556-61.089 63.412-86.626 96.15-55.322 70.919-121.534 156.474-116.429 233.395 1.8 27.117 14.89 58.557 28.37 82.394 18.031 31.886 29.337 67.572 55.109 96.322 34.278 38.24 78.126 81.277 139.03 101.806 45.389 15.301 87.299 32.874 141.819 20.444 59.32-13.524 108.6-35.7 147.94-71.76 63.24-57.97 56-122.631 85.41-185.743 14.36-30.827 23.97-65.506 45.3-95.326 17.03-23.799 41.16-41.576 65.36-62.316 31.64-27.112 75.44-47.701 105.88-74.59 14.87-13.141 35.36-22.615 50.28-35.968 7.82-7.006 4.26-17.475 7.53-24.782z" fill="#EDEAE3"/></g><g filter="url(#filter1_f_208_54)"><ellipse cx="217.984" cy="209.098" rx="217.984" ry="209.098" transform="matrix(.99984 .01811 -.03674 .99933 1133.36 385)" fill="#B3A79B" fill-opacity=".7"/></g><path d="M0-108.793V1189.87M66.665-108.793V1189.87m66.669-1298.663V1189.87M200-108.793V1189.87m66.668-1298.663V1189.87m66.665-1298.663V1189.87m66.666-1298.663V1189.87m66.669-1298.663V1189.87m66.665-1298.663V1189.87m66.665-1298.663V1189.87m66.669-1298.663V1189.87m66.667-1298.663V1189.87M800-108.793V1189.87m66.667-1298.663V1189.87m66.666-1298.663V1189.87m66.666-1298.663V1189.87m66.671-1298.663V1189.87m66.66-1298.663V1189.87M1200-108.793V1189.87m66.67-1298.663V1189.87m66.66-1298.663V1189.87M1400-108.793V1189.87m66.67-1298.663V1189.87m66.66-1298.663V1189.87M1600-108.793V1189.87m66.67-1298.663V1189.87m66.66-1298.663V1189.87M1800-108.793V1189.87m66.67-1298.663V1189.87M1920 53.54H.002M1920 134.707H.002M1920 215.873H.002M1920 297.04H.002M1920 378.207H.002M1920 459.373H.002M1920 540.54H.002M1920 621.707H.002M1920 702.873H.002M1920 784.04L.002 784.039M1920 865.207L.002 865.206M1920 946.373H.002M1920 1027.54H.002" stroke="#ACACAC" stroke-opacity=".2" stroke-width="1.048"/><defs><filter id="filter0_f_208_54" x="468.144" y="-139.592" width="1405.46" height="1293.75" filterUnits="userSpaceOnUse" color-interpolation-filters="sRGB"><feFlood flood-opacity="0" result="BackgroundImageFix"/><feBlend in="SourceGraphic" in2="BackgroundImageFix" result="shape"/><feGaussianBlur stdDeviation="133" result="effect1_foregroundBlur_208_54"/></filter><filter id="filter1_f_208_54" x="859.543" y="122.91" width="968.172" height="949.989" filterUnits="userSpaceOnUse" color-interpolation-filters="sRGB"><feFlood flood-opacity="0" result="BackgroundImageFix"/><feBlend in="SourceGraphic" in2="BackgroundImageFix" result="shape"/><feGaussianBlur stdDeviation="133" result="effect1_foregroundBlur_208_54"/></filter></defs></svg>