<svg width="48" height="48" fill="none" xmlns="http://www.w3.org/2000/svg"><g clip-path="url(#clip0_187_232)" fill="#041133"><path d="M1.171 15.898l4.656 1.584c.36.119.75.03 1.02-.24a.946.946 0 00.241-.986c-.84-2.66-.27-6.305.781-9.383a20.758 20.758 0 011.682-3.765c.27-.478.54-.807.72-1.016l.09-.09c.03 0 .09.03.15.06.211.09.452.239.752.448.57.389 1.261.956 1.892 1.524.63.568 1.231 1.136 1.682 1.554l.51.508.15.15.03.03c.27.268.661.358 1.052.238h.03c.03 0 .06-.03.12-.03.12-.03.27-.09.48-.149.421-.12.992-.299 1.652-.478 1.322-.359 2.854-.687 3.935-.687s2.613.328 3.934.687c.661.18 1.232.359 1.652.478.21.06.36.12.48.15.06.03.09.03.12.03h.03c.361.119.782.03 1.052-.24l.03-.03.15-.149.51-.508c.451-.418 1.052-.986 1.683-1.554a25.01 25.01 0 011.922-1.524c.3-.209.57-.358.75-.448.06-.03.12-.06.15-.06l.091.09c.21.239.45.597.75 1.105.572 1.016 1.172 2.45 1.683 4.065.51 1.583.9 3.317 1.051 4.93.15 1.614.06 2.989-.33 3.975-.15.358-.06.747.21 1.045.27.27.66.389 1.021.27l4.655-1.554c.51-.18.811-.718.631-1.256a.998.998 0 00-1.261-.627l-2.974.986c.12-.956.12-2.002 0-3.048-.18-1.763-.6-3.616-1.141-5.32-.54-1.702-1.202-3.256-1.832-4.392-.33-.568-.66-1.076-.991-1.464-.15-.18-.36-.359-.571-.508-.21-.15-.51-.299-.87-.299-.421 0-.812.15-1.142.299a7.78 7.78 0 00-1.051.597 26.054 26.054 0 00-2.133 1.674 35.892 35.892 0 00-2.072 1.942c-.03 0-.06-.03-.12-.03a29.044 29.044 0 00-1.742-.508c-1.142-.388-2.914-.777-4.265-.777-1.352 0-3.124.389-4.475.777-.69.18-1.292.359-1.742.508-.03 0-.09.03-.12.03l-.3-.299a53.313 53.313 0 00-1.743-1.643A21.467 21.467 0 0012.374.896a5.973 5.973 0 00-1.021-.597c-.3-.15-.69-.299-1.111-.299-.36 0-.631.15-.841.269-.21.12-.39.299-.571.478-.33.359-.66.807-.991 1.345a22.788 22.788 0 00-1.862 4.154c-.901 2.66-1.562 5.946-1.172 8.845l-2.973-1.046a.986.986 0 00-1.261.627c-.18.508.09 1.076.6 1.226z"/><path d="M46.252 43.24c-.84-.418-1.802 0-2.523.598l-.03.03s-.03 0-.03.03a4.87 4.87 0 01-1.591.866c-.571.18-1.142.27-1.712.27-.781 0-1.502-.15-2.163-.479a5.561 5.561 0 01-1.682-1.344 7.2 7.2 0 01-1.08-1.943c-.241-.747-.391-1.494-.391-2.3 0-.718.09-1.405.3-2.122a5.52 5.52 0 01.991-1.913c.45-.568.991-1.046 1.622-1.375.66-.358 1.442-.538 2.313-.538.54 0 1.08.09 1.651.24.571.149 1.082.418 1.592.836.751.568 1.712.957 2.463.359l.12-.12c.54-.478.751-1.255.3-1.852-.42-.568-.93-.986-1.712-1.465a7.873 7.873 0 00-1.621-.717c1.501-.896 2.462-2.27 2.462-3.825 0-2.72-2.913-4.9-6.517-4.9-1.141 0-2.222.209-3.154.597l.18-.18.03-.03.211-.208c1.111-1.196 1.742-2.72 1.772-4.333v-.479c0-.09 0-.239-.03-.418a2.934 2.934 0 00-2.853-2.57c-.15 0-.33 0-.42.03h-.03l-.361.03c-.36-1.733-1.772-3.048-3.424-3.048-1.862 0-3.394 1.614-3.514 3.676h-.03c-.3.03-.69.06-1.021.12-.39.089-.961.268-1.442.746-.09.09-.18.18-.24.27-.36.447-.51.896-.57 1.284h-2.674a2.657 2.657 0 00-.57-1.285 1.88 1.88 0 00-.24-.269c-.481-.478-1.052-.657-1.442-.747-.3-.06-.661-.09-.931-.12-.09-1.942-1.622-3.585-3.484-3.585-1.652 0-3.064 1.314-3.424 3.048l-.45-.03h-.03c-.09 0-.241-.03-.421-.03a2.908 2.908 0 00-2.853 2.57c-.03.15-.03.329-.03.418v.478a6.46 6.46 0 001.772 4.333l.21.21.03.03.18.179a8.392 8.392 0 00-3.184-.628c-3.604 0-6.517 2.211-6.517 4.901 0 1.434.811 2.72 2.102 3.616-.15-.03-.27-.06-.42-.06-.961 0-1.742.777-1.742 1.733V46.23c0 .956.78 1.733 1.742 1.733.961 0 1.742-.777 1.742-1.733v-5.797h1.742l5.136 6.902c.3.389.75.628 1.261.628 1.292 0 2.012-1.434 1.262-2.48l-4.896-6.754 4.715-6.156c.781-1.016.03-2.48-1.261-2.48-.18 0-.36.03-.54.09 1.35-.897 2.192-2.212 2.192-3.676 0-1.255-.63-2.39-1.622-3.257a4.822 4.822 0 002.763.12.88.88 0 01.27-.06h.03l4.355-1.285.06-.03c.24-.06.571-.15.841-.27.33-.149.781-.358 1.142-.806.06-.09.12-.15.18-.24.33-.477.42-.955.45-1.314 0-.09 0-.15.03-.239h2.553c0 .09 0 .18.03.24.03.358.15.836.45 1.314.06.09.121.18.181.239.36.448.811.657 1.141.807.27.12.571.209.841.269l.06.03 4.355 1.285h.03c.09.03.18.06.27.06a4.734 4.734 0 002.734-.12c-.991.867-1.622 2.002-1.622 3.227 0 1.973 1.532 3.646 3.724 4.453a7.801 7.801 0 00-2.403 1.882 10.165 10.165 0 00-1.772 2.87c-.39 1.045-.6 2.09-.6 3.197 0 1.135.21 2.24.63 3.346a10.574 10.574 0 001.802 2.959 9.59 9.59 0 002.764 2.121 8.204 8.204 0 003.544.777c.99 0 1.982-.149 2.973-.478.991-.328 1.892-.777 2.703-1.404.39-.299.69-.657.961-1.016.42-.687.06-1.584-.69-1.943zM14.807 12.79c.42 0 .78.747.84 1.703l-1.681-.15c.09-.896.42-1.553.84-1.553zM10.21 30.72l-4.895 6.574H3.544v-5.469c0-.448-.18-.866-.48-1.195 1.02.508 2.252.807 3.543.807a8.263 8.263 0 003.815-.927.7.7 0 00-.21.21zM10 28.419a7.76 7.76 0 01-.72.448v-2.182c0-.508-.451-.926-1.022-.896-.57.03-1.02.478-1.02.986v2.66c-.211.03-.421.03-.632.03h-.45v-2.78c0-.508-.45-.926-1.021-.896-.57.03-1.021.478-1.021.986v2.181a4.473 4.473 0 01-.901-.537c-.811-.598-1.112-1.285-1.112-1.913 0-.598.33-1.315 1.112-1.912.81-.598 2.012-1.046 3.424-1.046 1.411 0 2.612.418 3.423 1.046.811.597 1.112 1.284 1.112 1.912-.03.628-.36 1.315-1.172 1.913zm9.431-8.816c-.03.03-.03.06-.06.09-.18.209-.48.299-1.051.478l-4.355 1.285c-.12.03-.15.06-.21.06a2.69 2.69 0 01-2.583-.687 147.364 147.364 0 01-.33-.33 4.609 4.609 0 01-1.232-3.047v-.628c.06-.448.45-.807.9-.807.061 0 .121 0 .241.03l.69.06 2.884.269.961.09 2.703.238c.721.06 1.112.09 1.322.33l.09.089c.21.239.21.627.21 1.345-.03.597-.03.896-.18 1.135zm11.563-6.813c.39 0 .72.657.811 1.554l-1.652.15c.06-.957.42-1.704.841-1.704zm.901 8.696c-.06 0-.09-.03-.21-.06l-4.355-1.285c-.51-.15-.811-.239-.991-.388-.03-.03-.06-.06-.06-.09-.03-.03-.03-.06-.06-.09-.15-.239-.15-.538-.15-1.135 0-.747 0-1.106.21-1.345l.09-.09c.24-.239.6-.269 1.321-.328l6.698-.628.57-.06c.12 0 .18-.03.24-.03.481 0 .872.359.902.807v.569c0 .268-.03.567-.09.836a4.743 4.743 0 01-1.142 2.211c-.03.06-.09.09-.18.18l-.15.149c-.72.747-1.712 1.016-2.643.777zm3.724 6.933c-.81-.598-1.111-1.285-1.111-1.913 0-.598.33-1.315 1.111-1.912.811-.598 2.013-1.046 3.424-1.046 1.412 0 2.613.418 3.424 1.046.81.597 1.111 1.284 1.111 1.912 0 .598-.33 1.315-1.111 1.913a7.76 7.76 0 01-.72.448v-2.182c0-.508-.451-.926-1.022-.896-.57.03-1.021.478-1.021.986v2.66c-.21.03-.42.03-.63.03h-.451v-2.78c0-.508-.45-.926-1.022-.896-.57.03-1.02.478-1.02.986v2.181a3.66 3.66 0 01-.962-.537z"/><path d="M39.555 18.946a.972.972 0 00-.961.986c0 .538.45.986.99.986h4.656c.54 0 .961-.448.961-.986a.997.997 0 00-.991-.986h-4.655zm-18.471 7.291c-.21 0-.721-.09-1.382-1.076-.3-.448-.9-.567-1.381-.269-.45.3-.571.897-.27 1.375.9 1.345 1.952 1.972 3.063 1.942a2.987 2.987 0 001.592-.537c.54.298 1.2.537 1.892.537.57 0 1.171-.12 1.712-.478.54-.358.99-.926 1.291-1.643a.976.976 0 00-.54-1.285.985.985 0 00-1.292.538c-.18.418-.39.657-.54.747-.18.12-.361.15-.601.15-.36 0-.691-.15-.961-.3v-1.344c.69-.27 1.141-.837 1.141-1.495 0-.926-.961-1.673-2.163-1.673-1.2 0-2.162.747-2.162 1.673 0 .658.48 1.196 1.171 1.495v1.404c-.12.15-.36.24-.57.24zM1.532 18.946a.997.997 0 00-.991.986c0 .538.45.986.99.986h4.656c.54 0 .991-.448.991-.986a.972.972 0 00-.96-.986H1.531zm26.58 11.146c-.721 0-1.382.359-1.772.926L18.2 43.061V31.795c0-.956-.78-1.733-1.741-1.733-.961 0-1.742.777-1.742 1.733v13.956a2.2 2.2 0 002.192 2.181c.72 0 1.412-.358 1.832-.956l8.02-11.864V46.23c0 .956.78 1.733 1.741 1.733.961 0 1.742-.777 1.742-1.733V32.214a2.116 2.116 0 00-2.132-2.122z"/></g><defs><clipPath id="clip0_187_232"><path fill="#fff" d="M0 0h48v48H0z"/></clipPath></defs></svg>