<svg width="182" height="30" fill="none" xmlns="http://www.w3.org/2000/svg"><path d="M33.876 24V8.494h-8.35V24h-2.385V6.108h13.121V24h-2.386zm3.832-17.892H50.83v2.386h-5.368V24h-2.385V8.494h-5.368V6.108zm25.79 0h2.386V24h-2.386V10.498L54.648 24h-2.386V6.108h2.386v13.526l8.85-13.526zm6.945 3.388V24h-2.386V6.108h2.386l6.56 6.56 6.56-6.56h2.386V24h-2.385V9.496l-6.56 6.56-6.561-6.56zm28.886-3.388h2.385V24h-2.385V10.498L90.479 24h-2.386V6.108h2.385v13.526l8.85-13.526zm12.741 2.6c.668 1.265.812 2.553.406 3.865-.334 1.097-.93 1.956-1.813 2.576.906.645 1.503 1.503 1.837 2.6.405 1.313.262 2.601-.406 3.865-.882 1.599-2.242 2.458-4.103 2.577-1.885.143-3.364-.525-4.485-1.98l1.956-1.408c.692.692 1.456 1.026 2.291 1.002.858-.024 1.598-.477 2.218-1.312.358-.668.406-1.36.191-2.075-.215-.692-.954-1.217-2.242-1.55h-.716v-3.412h.692c1.288-.334 2.027-.86 2.242-1.55.215-.717.167-1.408-.191-2.076-.62-.835-1.36-1.289-2.218-1.312-.835-.024-1.599.31-2.291 1.001l-1.956-1.407c1.122-1.455 2.601-2.1 4.485-1.98 1.861.12 3.221.978 4.103 2.576zm15.438 10.52h-8.779L116.654 24h-2.601l7.754-17.892h2.6L132.16 24h-2.6l-2.052-4.771zm-7.729-2.385h6.68l-3.34-7.73-3.34 7.73zm13.166-10.735h13.121v2.386h-5.367V24h-2.386V8.494h-5.368V6.108zm16.845 2.624c1.741-1.741 3.864-2.624 6.321-2.624 2.458 0 4.581.883 6.322 2.624 1.742 1.742 2.624 3.865 2.624 6.322s-.882 4.58-2.624 6.322c-1.741 1.741-3.864 2.624-6.322 2.624-2.457 0-4.58-.883-6.321-2.624-1.742-1.742-2.625-3.865-2.625-6.322s.883-4.58 2.625-6.322zm1.693 10.95c1.265 1.288 2.815 1.932 4.628 1.932 1.813 0 3.364-.644 4.652-1.932 1.265-1.264 1.909-2.815 1.909-4.628 0-1.813-.644-3.364-1.909-4.652-1.288-1.264-2.839-1.908-4.652-1.908-1.813 0-3.363.644-4.628 1.908-1.288 1.288-1.932 2.839-1.932 4.652 0 1.813.644 3.364 1.932 4.628zm26.97-2.886c-1.217 1.216-2.696 1.836-4.437 1.836h-4.771V24h-2.386V6.108h7.157c1.741 0 3.22.62 4.437 1.837s1.837 2.672 1.837 4.413c0 1.742-.62 3.22-1.837 4.438zm-1.694-7.181c-.739-.74-1.67-1.121-2.743-1.121h-4.771v7.753h4.771c1.073 0 2.004-.382 2.743-1.145.764-.764 1.145-1.67 1.145-2.744 0-1.073-.381-1.98-1.145-2.743z" fill="#fff"/><path fill-rule="evenodd" clip-rule="evenodd" d="M0 15.507c0-2.949 1.06-5.497 3.149-7.587 2.09-2.09 4.638-3.149 7.586-3.149 2.949 0 5.497 1.06 7.586 3.15 2.09 2.09 3.15 4.637 3.15 7.586 0 2.75-.922 5.15-2.74 7.156h-4.66a7.977 7.977 0 002.246-1.603c1.518-1.517 2.29-3.378 2.29-5.553 0-2.176-.772-4.037-2.29-5.583-1.545-1.517-3.406-2.29-5.582-2.29-2.175 0-4.036.773-5.553 2.29-1.546 1.546-2.32 3.407-2.32 5.583 0 2.175.774 4.036 2.32 5.553a7.755 7.755 0 002.223 1.603H2.74C.92 20.657 0 18.256 0 15.507z" fill="#fff"/></svg>