<svg width="608" height="400" fill="none" xmlns="http://www.w3.org/2000/svg"><path fill-rule="evenodd" clip-rule="evenodd" d="M180.525 160.414c-49.355 25.278-89.926 50.27-118.14 72.23-19.31 15.029-32.99 28.76-39.649 40.278-6.538 11.309-6.836 21.465 3.648 28.373 10.483 6.909 28.796 8.623 50.335 7.199 21.936-1.45 49.148-6.265 79.733-13.865 61.24-15.215 137.003-41.847 212.882-76.26 75.879-34.413 137.747-70.201 176.41-100.294 19.31-15.029 32.991-28.76 39.649-40.278 6.538-11.31 6.837-21.465-3.647-28.373-10.484-6.909-28.796-8.624-50.335-7.2-7.52.498-15.659 1.39-24.342 2.655l-1.825 3.194c35.084-5.426 60.981-4.825 72.859 3.003 34.203 22.538-60.762 96.452-212.109 165.092-151.347 68.64-301.765 106.013-335.968 83.475-28.98-19.097 34.775-75.079 146.988-133.485l3.511-5.744z" fill="url(#paint0_linear_206_1063)"/><path fill-rule="evenodd" clip-rule="evenodd" d="M411.311 227.379a795.279 795.279 0 014.82 3.184c20.253 13.483 37.495 26.298 50.391 37.652 6.446 5.675 12.008 11.162 16.363 16.333 4.383 5.205 7.754 10.347 9.313 14.969 1.559 4.623 1.03 7.901-.852 10.111-1.87 2.196-5.158 3.453-9.517 3.964-8.721 1.022-22.283-.887-39.478-5.302-34.441-8.844-84.192-27.94-141.1-55.139-56.908-27.2-110.425-57.461-150.995-84.469-20.253-13.484-37.495-26.298-50.39-37.653-6.447-5.675-12.009-11.161-16.364-16.333-4.383-5.204-7.754-10.346-9.313-14.969-1.56-4.622-1.03-7.9.852-10.11 1.87-2.196 5.158-3.453 9.517-3.964 8.72-1.022 22.283.886 39.478 5.301 21.589 5.544 49.193 15.116 80.805 28.187l-1.754 2.551c-79.814-32.674-132.725-42.284-125.29-20.24 9.268 27.47 108.739 93.691 222.175 147.909 113.437 54.218 197.884 75.901 188.617 48.431-4.875-14.451-34.714-39.626-78.417-68.136l1.139-2.277z" fill="url(#paint1_linear_206_1063)"/><defs><linearGradient id="paint0_linear_206_1063" x1="21.768" y1="83.149" x2="213.697" y2="526.729" gradientUnits="userSpaceOnUse"><stop stop-color="#1139A2"/><stop offset="1" stop-color="#092674"/></linearGradient><linearGradient id="paint1_linear_206_1063" x1="165.825" y1="9.079" x2="36.505" y2="270.926" gradientUnits="userSpaceOnUse"><stop stop-color="#1139A2"/><stop offset="1" stop-color="#092674"/></linearGradient></defs></svg>