<svg width="90" height="91" fill="none" xmlns="http://www.w3.org/2000/svg"><path d="M8.229 34.971c-.114.4-.295.742-.543 1.026a2.756 2.756 0 01-.861.66 3.175 3.175 0 01-1.046.283c-.37.033-.728 0-1.077-.1a2.839 2.839 0 01-.98-.496 3.104 3.104 0 01-.724-.814 2.746 2.746 0 01-.373-1.02 2.603 2.603 0 01.077-1.142 2.5 2.5 0 01.545-1.008 2.69 2.69 0 01.878-.656 3.17 3.17 0 011.045-.283 2.881 2.881 0 012.05.594c.29.227.53.498.723.813a2.687 2.687 0 01.286 2.143zm-3.22.793c.236.067.475.097.715.088.241-.009.468-.055.68-.138.209-.09.392-.218.55-.384a1.58 1.58 0 00.34-.634c.072-.256.086-.499.041-.728a1.6 1.6 0 00-.28-.62 2.033 2.033 0 00-.506-.47c-.2-.134-.41-.233-.63-.296a2.076 2.076 0 00-.71-.078c-.24.01-.465.059-.674.149a1.436 1.436 0 00-.55.383 1.453 1.453 0 00-.342.617 1.494 1.494 0 00-.036.738c.046.224.138.427.274.61s.302.341.496.474c.196.128.407.225.633.29zm5.403-6.92L5.43 26.128l1.959-3.593.835.455-1.435 2.632 1.2.654.738-1.354c.304-.557.663-.905 1.078-1.042.415-.138.843-.087 1.282.152.295.161.522.363.68.608.158.244.238.52.239.83-.004.308-.105.644-.304 1.01l-1.29 2.364zm-.31-1.417l.692-1.27c.102-.187.15-.354.146-.502a.74.74 0 00-.125-.388.878.878 0 00-.656-.366.557.557 0 00-.372.098c-.127.076-.247.22-.362.43l-.685 1.256 1.361.742zM14.53 22.1l-4.338-3.657 1.55-1.84c.17-.199.364-.348.587-.446a1.8 1.8 0 01.696-.156c.245-.01.482.023.711.098.23.075.434.188.613.34.245.206.429.458.553.758.124.3.17.607.14.924-.029.316-.159.61-.389.884l-.866 1.026 1.455 1.227-.711.843zm-1.482-2.692l.824-.978a.613.613 0 00.147-.347.776.776 0 00-.08-.401 1.188 1.188 0 00-.31-.388 1.05 1.05 0 00-.458-.24.728.728 0 00-.735.228l-.793.941 1.405 1.185zm4.211-8.165l.877-.694 5.156 3.158-.89.704-1.291-.783-1.555 1.23.47 1.431-.89.704-1.877-5.75zm3.214 1.9l-2.067-1.35.813 2.342 1.254-.991zm7.206-7.207l-1.62.818 2.122 4.202-.977.494-2.122-4.203-1.62.818-.436-.863 4.217-2.13.436.864zm8.251-3.648l1.458 5.484-1.058.281-.622-2.34-2.487.661.622 2.34-1.066.284-1.458-5.485 1.066-.283.59 2.217 2.486-.661-.589-2.217 1.058-.281zm6.357-.788l1.118-.051 2.342 5.574-1.134.051-.591-1.389-1.98.09-.455 1.437-1.134.052 1.834-5.765zm1.5 3.42l-.89-2.304-.707 2.376 1.597-.072zm4.984 2.31l1.74-2.024a1.607 1.607 0 01-.721-.734 1.817 1.817 0 01-.124-1.073 1.68 1.68 0 011.137-1.353 2.03 2.03 0 011.015-.068l2.185.358-.917 5.6-1.08-.177.345-2.114-.568-.093-.102-.017-.095-.015-1.592 1.91-1.223-.2zm2.755-2.676l.978.16.267-1.632-.962-.158a1.129 1.129 0 00-.473.02.762.762 0 00-.375.214.777.777 0 00-.19.422.904.904 0 00.035.476.714.714 0 00.27.327c.126.086.276.143.45.171zM61.862 7.82a2.897 2.897 0 011.551-1.358 2.572 2.572 0 011.084-.167c.383.016.77.127 1.161.334.462.245.806.557 1.033.936.232.383.344.78.337 1.192l-1.022.119a1.317 1.317 0 00-.096-.621 1.319 1.319 0 00-.315-.465 1.786 1.786 0 00-.421-.314 1.512 1.512 0 00-.722-.192c-.231.004-.45.054-.658.149a1.932 1.932 0 00-.56.39c-.16.169-.294.352-.398.55a2.239 2.239 0 00-.235.698c-.037.24-.034.474.009.701.05.225.139.432.267.621.137.187.313.338.53.453.155.082.327.14.514.173.188.033.38.029.576-.012.197-.04.38-.13.55-.27l.555.883a1.68 1.68 0 01-.824.377 2.69 2.69 0 01-.958-.001 3.036 3.036 0 01-.898-.304 2.48 2.48 0 01-.866-.739 2.913 2.913 0 01-.455-1c-.08-.362-.1-.729-.06-1.1a3.01 3.01 0 01.32-1.033zm10.218 8.541c-.205.246-.44.4-.708.462-.263.058-.539.04-.828-.056a2.411 2.411 0 01-.807-.454l-2.106-1.756 3.634-4.359 2.333 1.945c.205.171.335.373.39.606.063.233.061.468-.004.704a1.55 1.55 0 01-.974 1.093c-.263.1-.535.11-.814.029.188.282.273.578.256.89-.013.315-.137.614-.372.896zm-.72-.87a.815.815 0 00.177-.351.663.663 0 00-.01-.363.558.558 0 00-.19-.295l-1.302-1.085-.958 1.148 1.259 1.05a.686.686 0 00.338.156.75.75 0 00.376-.04.728.728 0 00.31-.22zm.149-3.862l-.916 1.1 1.13.94a.658.658 0 00.313.148c.115.02.23.008.343-.036a.732.732 0 00.32-.234.767.767 0 00.172-.345.594.594 0 00-.196-.6l-1.166-.973zm1.862 8.161l2.65-.319a1.607 1.607 0 01-.038-1.029 1.82 1.82 0 01.633-.875 1.68 1.68 0 011.752-.232c.296.126.561.337.796.634l1.37 1.739-4.454 3.515-.679-.86 1.682-1.327-.356-.452-.065-.081-.06-.075-2.463.335-.767-.973zm3.839-.116l.614.778 1.298-1.025-.604-.765a1.129 1.129 0 00-.362-.305.763.763 0 00-.421-.095.778.778 0 00-.426.183.906.906 0 00-.295.375.714.714 0 00-.021.424 1.1 1.1 0 00.217.43zm1.626 8.352a2.718 2.718 0 01-.311-1.24c0-.412.103-.789.307-1.13l.828.505c-.121.21-.189.438-.202.683-.01.243.051.493.18.75.154.305.335.497.542.578.21.085.425.072.643-.038a.757.757 0 00.321-.287.662.662 0 00.106-.411 1.252 1.252 0 00-.151-.532l-.306-.607.75-.378.309.614a.958.958 0 00.272.346c.113.08.23.123.351.128a.702.702 0 00.372-.08.674.674 0 00.288-.262.625.625 0 00.089-.375 1.11 1.11 0 00-.138-.486 1.49 1.49 0 00-.491-.585 1.218 1.218 0 00-.616-.227l.144-.958a2.48 2.48 0 011.045.386c.322.214.595.542.818.984.177.352.275.682.292.99a1.42 1.42 0 01-.169.819 1.416 1.416 0 01-.634.588c-.233.117-.481.17-.743.16a1.214 1.214 0 01-.73-.295 1.33 1.33 0 01-.126.887 1.43 1.43 0 01-.645.62c-.315.158-.623.21-.926.153a1.663 1.663 0 01-.82-.42 2.956 2.956 0 01-.65-.88zm2.26 5.121l5.476-1.488.287 1.057-1.959.532.306 1.127c.11.406.131.767.063 1.084-.067.322-.213.59-.436.806-.216.219-.502.376-.857.473-.35.095-.677.107-.984.035a1.53 1.53 0 01-.792-.447c-.224-.232-.388-.543-.494-.934l-.61-2.245zm1.15.822l.284 1.041a.991.991 0 00.261.476.77.77 0 00.404.205c.156.024.318.013.488-.033.149-.04.282-.11.399-.208a.718.718 0 00.246-.373c.053-.153.05-.34-.01-.56l-.282-1.034-1.79.486zm-1.21 21.578c.114-.4.295-.74.542-1.025.246-.279.534-.499.862-.66a3.17 3.17 0 011.045-.283 2.925 2.925 0 012.057.596c.294.233.535.505.724.814.193.315.317.655.374 1.02.06.372.034.753-.077 1.142a2.5 2.5 0 01-.546 1.008 2.685 2.685 0 01-.877.656 3.17 3.17 0 01-1.045.283 2.882 2.882 0 01-2.05-.594 3.026 3.026 0 01-.724-.813 2.687 2.687 0 01-.285-2.144zm3.219-.792a2.281 2.281 0 00-.715-.088c-.24.009-.467.055-.68.138-.208.09-.391.218-.55.383a1.585 1.585 0 00-.339.635 1.539 1.539 0 00-.041.728c.05.23.143.437.28.62.14.185.31.341.506.47.2.134.41.233.63.296.236.067.472.093.71.078.24-.01.465-.059.673-.149.213-.083.396-.211.55-.383.159-.165.273-.371.343-.617.075-.261.087-.507.036-.738a1.537 1.537 0 00-.274-.61 2.067 2.067 0 00-.497-.474 2.312 2.312 0 00-.632-.29zm-5.403 6.92l4.983 2.716-1.959 3.593-.835-.455 1.435-2.632-1.2-.654-.739 1.354c-.303.557-.663.904-1.078 1.042-.415.138-.842.087-1.282-.152a1.833 1.833 0 01-.68-.608 1.503 1.503 0 01-.238-.83c.004-.308.105-.644.304-1.01l1.29-2.364zm.311 1.416l-.692 1.27c-.102.188-.151.355-.147.503.01.15.051.28.126.387a.879.879 0 00.656.367.558.558 0 00.372-.097c.126-.077.247-.22.362-.431l.685-1.256-1.362-.743zm-4.429 5.327l4.339 3.658-1.551 1.84a1.62 1.62 0 01-.586.446 1.8 1.8 0 01-.696.156 2.02 2.02 0 01-.712-.098 1.816 1.816 0 01-.613-.34 1.953 1.953 0 01-.552-.758 1.91 1.91 0 01-.141-.924c.03-.316.16-.61.39-.884l.865-1.026-1.454-1.227.71-.843zm1.483 2.693l-.825.978a.612.612 0 00-.146.347.774.774 0 00.08.401c.068.142.172.271.31.388.151.127.304.207.458.239.15.036.29.032.418-.013a.685.685 0 00.317-.214l.793-.941-1.405-1.185zm-4.211 8.165l-.878.694-5.156-3.158.89-.704 1.292.783 1.555-1.23-.47-1.431.89-.704 1.877 5.75zm-3.215-1.9l2.067 1.35-.813-2.342-1.254.991zm-7.205 7.207l1.62-.818-2.123-4.202.978-.494 2.122 4.203 1.62-.818.435.863-4.216 2.13-.436-.864zm-8.252 3.648l-1.458-5.484 1.059-.281.622 2.34 2.487-.661-.622-2.34 1.066-.284 1.458 5.484-1.066.284-.59-2.217-2.487.661.59 2.217-1.059.281zm-6.356.789l-1.118.05-2.342-5.574 1.134-.051.591 1.389 1.98-.09.455-1.437 1.134-.052-1.834 5.764zm-1.5-3.42l.889 2.303.708-2.376-1.597.072zm-4.985-2.31l-1.74 2.023c.328.172.569.417.722.734.147.32.188.678.124 1.073a1.68 1.68 0 01-1.137 1.352c-.304.107-.642.13-1.016.069l-2.184-.358.917-5.6 1.08.177-.346 2.114.568.093a70.843 70.843 0 00.197.032l1.593-1.91 1.222.2zm-2.754 2.675l-.978-.16-.268 1.632.963.158c.163.027.32.02.473-.02a.762.762 0 00.375-.214.777.777 0 00.19-.422.906.906 0 00-.035-.476.714.714 0 00-.27-.327 1.113 1.113 0 00-.45-.171zm-10.336-3.266a2.895 2.895 0 01-1.552 1.358 2.571 2.571 0 01-1.083.167 2.716 2.716 0 01-1.162-.335c-.461-.244-.805-.556-1.032-.935a2.188 2.188 0 01-.337-1.192l1.022-.119c-.015.233.017.44.096.62.077.186.181.341.314.466.13.13.271.234.422.314.245.13.485.194.721.192.232-.004.451-.054.658-.15.207-.094.394-.225.56-.39.161-.168.294-.35.4-.548a2.24 2.24 0 00.234-.7c.036-.24.033-.473-.009-.7a1.762 1.762 0 00-.268-.622 1.53 1.53 0 00-.53-.452 1.734 1.734 0 00-.514-.173 1.52 1.52 0 00-.576.012c-.196.04-.38.13-.55.27l-.554-.883a1.68 1.68 0 01.824-.377 2.69 2.69 0 01.958 0 3.1 3.1 0 01.898.304c.357.19.646.436.865.74.217.307.37.641.456 1 .08.362.1.729.06 1.1a2.981 2.981 0 01-.321 1.033zm-10.218-8.542c.205-.245.44-.399.707-.461.264-.058.54-.04.828.055.285.092.554.243.808.455l2.105 1.756L18 80.32l-2.333-1.945a1.112 1.112 0 01-.39-.606 1.312 1.312 0 01.005-.704 1.548 1.548 0 01.973-1.092c.264-.1.535-.11.815-.029a1.43 1.43 0 01-.257-.89c.013-.315.138-.614.373-.897zm.72.871a.816.816 0 00-.178.351.664.664 0 00.01.363c.03.114.093.213.192.294l1.301 1.086.957-1.148-1.258-1.05a.685.685 0 00-.338-.156.757.757 0 00-.377.04.728.728 0 00-.309.22zm-.149 3.862l.916-1.1-1.13-.941a.658.658 0 00-.314-.147.63.63 0 00-.342.036.732.732 0 00-.32.234.767.767 0 00-.173.344.595.595 0 00.197.601l1.166.973zm-1.863-8.161l-2.65.319c.126.349.139.691.038 1.029a1.817 1.817 0 01-.632.875 1.68 1.68 0 01-1.752.232 2.033 2.033 0 01-.796-.635L8.73 70.811l4.455-3.515.678.86-1.681 1.327.356.451.064.082.06.075 2.464-.335.767.973zm-3.838.116l-.614-.778-1.299 1.025.604.765c.103.13.223.231.363.305a.763.763 0 00.421.095.778.778 0 00.426-.183.905.905 0 00.294-.375.714.714 0 00.022-.424 1.112 1.112 0 00-.217-.43zm-1.626-8.352c.208.414.312.828.311 1.24a2.171 2.171 0 01-.308 1.13l-.827-.505c.121-.21.188-.438.202-.683a1.535 1.535 0 00-.181-.75c-.153-.305-.334-.497-.542-.578a.748.748 0 00-.643.038.758.758 0 00-.32.287.662.662 0 00-.107.411c.003.16.054.337.152.532l.306.607-.75.378-.31-.614a.958.958 0 00-.272-.346.633.633 0 00-.35-.128.7.7 0 00-.372.08.674.674 0 00-.289.262.625.625 0 00-.088.375c0 .143.046.305.137.486.13.257.294.452.492.585.193.135.398.21.615.227l-.143.958a2.47 2.47 0 01-1.045-.386c-.323-.214-.595-.542-.818-.984-.178-.353-.275-.682-.293-.99a1.425 1.425 0 01.17-.819 1.41 1.41 0 01.634-.588 1.5 1.5 0 01.743-.16c.255.01.498.108.73.295a1.325 1.325 0 01.126-.887 1.43 1.43 0 01.645-.62c.314-.158.623-.21.925-.153.296.054.57.194.82.42.251.225.468.519.65.88zm-2.26-5.121L2.692 58.86l-.287-1.057 1.96-.532-.306-1.127c-.11-.406-.132-.767-.063-1.084.067-.322.212-.59.435-.806.217-.219.503-.377.857-.473.35-.095.678-.107.985-.035.305.066.569.215.792.447.223.232.388.543.494.934l.61 2.245zm-1.151-.822l-.283-1.042a.991.991 0 00-.262-.475.767.767 0 00-.403-.205 1.168 1.168 0 00-.488.033c-.15.04-.282.11-.4.208a.718.718 0 00-.246.373c-.052.152-.048.34.012.56l.28 1.034 1.79-.486z" fill="#092674"/><circle cx="4.628" cy="44.983" r="1.499" fill="#092674"/><circle cx="84.557" cy="44.983" r="1.499" fill="#092674"/></svg>