<svg width="374" height="445" fill="none" xmlns="http://www.w3.org/2000/svg"><path d="M199.711 5.85l35.355 22.02a38.205 38.205 0 016.28 4.783 126.907 126.907 0 0020.427 15.59l-35.401-21.976a126.598 126.598 0 01-20.435-15.59 38.46 38.46 0 00-6.226-4.827z" fill="#777B80"/><path d="M199.711 5.85l35.355 22.02a38.205 38.205 0 016.28 4.783 126.907 126.907 0 0020.427 15.59l-35.401-21.976a126.598 126.598 0 01-20.435-15.59 38.46 38.46 0 00-6.226-4.827z" fill="url(#paint0_radial_669_17456)"/><path d="M199.711 5.85l35.355 22.02a39.779 39.779 0 012.897 1.982l-35.372-22.02a39.905 39.905 0 00-2.889-1.982" fill="#777B80"/><path d="M199.711 5.85l35.355 22.02a39.779 39.779 0 012.897 1.982l-35.372-22.02a39.905 39.905 0 00-2.889-1.982" fill="url(#paint1_radial_669_17456)"/><path d="M202.591 7.831l35.365 22.02c.967.74 1.901 1.515 2.801 2.343l-35.348-22.02c-.88-.828-1.841-1.603-2.808-2.343" fill="#777B80"/><path d="M202.591 7.831l35.365 22.02c.967.74 1.901 1.515 2.801 2.343l-35.348-22.02c-.88-.828-1.841-1.603-2.808-2.343" fill="url(#paint2_radial_669_17456)"/><path d="M205.41 10.174l35.355 22.02.537.503 1.418 1.33-35.365-22.02-1.418-1.33-.527-.503z" fill="#777B80"/><path d="M205.41 10.174l35.355 22.02.537.503 1.418 1.33-35.365-22.02-1.418-1.33-.527-.503z" fill="url(#paint3_radial_669_17456)"/><path d="M207.355 12.006l35.365 21.976a117.84 117.84 0 008.475 7.047l-35.392-21.985a115.424 115.424 0 01-8.482-7.047" fill="#777B80"/><path d="M207.355 12.006l35.365 21.976a117.84 117.84 0 008.475 7.047l-35.392-21.985a115.424 115.424 0 01-8.482-7.047" fill="url(#paint4_radial_669_17456)"/><path d="M215.804 19.044l35.355 22.02a132.626 132.626 0 0010.571 7.224l-35.357-22.02a146.737 146.737 0 01-10.569-7.224z" fill="#777B80"/><path d="M215.804 19.044l35.355 22.02a132.626 132.626 0 0010.571 7.224l-35.357-22.02a146.737 146.737 0 01-10.569-7.224z" fill="url(#paint5_radial_669_17456)"/><path d="M319.879 53.837l35.365 21.976a38.446 38.446 0 018.314 6.985c7.498 8.333 11.143 19.44 10.29 31.26l-35.365-22.02c.88-11.82-2.792-22.901-10.28-31.26a38.766 38.766 0 00-8.324-6.941z" fill="#777B80"/><path d="M319.879 53.837l35.365 21.976a38.446 38.446 0 018.314 6.985c7.498 8.333 11.143 19.44 10.29 31.26l-35.365-22.02c.88-11.82-2.792-22.901-10.28-31.26a38.766 38.766 0 00-8.324-6.941z" fill="url(#paint6_radial_669_17456)"/><path d="M319.879 53.836l35.365 21.976a39.206 39.206 0 012.862 1.973l-35.355-22.02a39.486 39.486 0 00-2.872-1.974" fill="#777B80"/><path d="M319.879 53.836l35.365 21.976a39.206 39.206 0 012.862 1.973l-35.355-22.02a39.486 39.486 0 00-2.872-1.974" fill="url(#paint7_radial_669_17456)"/><path d="M322.751 55.809l35.355 22.02a38.738 38.738 0 012.812 2.343l-35.365-22.038a34.045 34.045 0 00-2.802-2.343" fill="#777B80"/><path d="M322.751 55.809l35.355 22.02a38.738 38.738 0 012.812 2.343l-35.365-22.038a34.045 34.045 0 00-2.802-2.343" fill="url(#paint8_radial_669_17456)"/><path d="M325.553 58.135l35.365 22.02a45.88 45.88 0 012.641 2.643l.151.158-35.365-22.02-.141-.158a32.883 32.883 0 00-2.644-2.643" fill="#777B80"/><path d="M325.553 58.135l35.365 22.02a45.88 45.88 0 012.641 2.643l.151.158-35.365-22.02-.141-.158a32.883 32.883 0 00-2.644-2.643" fill="url(#paint9_radial_669_17456)"/><path d="M328.344 60.989l35.365 22.02a40.629 40.629 0 012.828 3.576l-35.347-22.02a39.278 39.278 0 00-2.829-3.576" fill="#777B80"/><path d="M328.344 60.989l35.365 22.02a40.629 40.629 0 012.828 3.576l-35.347-22.02a39.278 39.278 0 00-2.829-3.576" fill="url(#paint10_radial_669_17456)"/><path d="M331.189 64.564l35.365 22.02a41.129 41.129 0 012.933 4.88l-35.365-22.02a38.54 38.54 0 00-2.933-4.88z" fill="#777B80"/><path d="M331.189 64.564l35.365 22.02a41.129 41.129 0 012.933 4.88l-35.365-22.02a38.54 38.54 0 00-2.933-4.88z" fill="url(#paint11_radial_669_17456)"/><path d="M334.105 69.443l35.365 22.02a42.957 42.957 0 014.404 22.479l-35.364-22.02a42.915 42.915 0 00-4.405-22.479z" fill="#777B80"/><path d="M334.105 69.443l35.365 22.02a42.957 42.957 0 014.404 22.479l-35.364-22.02a42.915 42.915 0 00-4.405-22.479z" fill="url(#paint12_radial_669_17456)"/><path d="M338.49 91.922l35.364 22.02a2.353 2.353 0 000 .168L338.49 92.09v-.168z" fill="#777B80"/><path d="M338.49 91.922l35.364 22.02a2.353 2.353 0 000 .168L338.49 92.09v-.168z" fill="url(#paint13_radial_669_17456)"/><path d="M338.484 92.089l35.364 21.976-7.541 103.618-35.355-21.974 7.532-103.62z" fill="#777B80"/><path d="M338.484 92.089l35.364 21.976-7.541 103.618-35.355-21.974 7.532-103.62z" fill="url(#paint14_radial_669_17456)"/><path d="M139.306 425.918l-35.365-21.977a192.926 192.926 0 0032.994 16.612 38.864 38.864 0 0013.689 2.459 42.111 42.111 0 0016.065-3.225 262.835 262.835 0 00127.507-109.978c21.201-35.734 34.925-78.392 36.756-114.1l35.355 21.975c-1.831 35.754-15.545 78.392-36.746 114.1a262.837 262.837 0 01-127.507 109.98 42.184 42.184 0 01-16.065 3.222 38.79 38.79 0 01-13.68-2.456 192.937 192.937 0 01-33.003-16.612z" fill="#777B80"/><path d="M139.306 425.918l-35.365-21.977a192.926 192.926 0 0032.994 16.612 38.864 38.864 0 0013.689 2.459 42.111 42.111 0 0016.065-3.225 262.835 262.835 0 00127.507-109.978c21.201-35.734 34.925-78.392 36.756-114.1l35.355 21.975c-1.831 35.754-15.545 78.392-36.746 114.1a262.837 262.837 0 01-127.507 109.98 42.184 42.184 0 01-16.065 3.222 38.79 38.79 0 01-13.68-2.456 192.937 192.937 0 01-33.003-16.612z" fill="url(#paint15_radial_669_17456)"/><path d="M330.951 195.71l35.355 21.974c-.051 1.005-.114 2.019-.175 3.04l-35.364-22.021c.07-1.021.131-2.035.184-3.039" fill="#777B80"/><path d="M330.951 195.71l35.355 21.974c-.051 1.005-.114 2.019-.175 3.04l-35.364-22.021c.07-1.021.131-2.035.184-3.039" fill="url(#paint16_radial_669_17456)"/><path d="M330.767 198.748l35.365 22.02a204.557 204.557 0 01-3.524 25.817l-35.382-21.977a204.582 204.582 0 003.524-25.817" fill="#777B80"/><path d="M330.767 198.748l35.365 22.02a204.557 204.557 0 01-3.524 25.817l-35.382-21.977a204.582 204.582 0 003.524-25.817" fill="url(#paint17_radial_669_17456)"/><path d="M327.226 224.608l35.355 21.977c-1.61 8.042-3.689 16.223-6.165 24.433l-35.364-21.977c2.519-8.207 4.599-16.391 6.208-24.433" fill="#777B80"/><path d="M327.226 224.608l35.355 21.977c-1.61 8.042-3.689 16.223-6.165 24.433l-35.364-21.977c2.519-8.207 4.599-16.391 6.208-24.433" fill="url(#paint18_radial_669_17456)"/><path d="M321.017 248.998l35.365 21.977a281.106 281.106 0 01-8.193 23.076l-35.365-21.967a282.64 282.64 0 008.193-23.086z" fill="#777B80"/><path d="M321.017 248.998l35.365 21.977a281.106 281.106 0 01-8.193 23.076l-35.365-21.967a282.64 282.64 0 008.193-23.086z" fill="url(#paint19_radial_669_17456)"/><path d="M312.824 272.083l35.364 21.967a289.482 289.482 0 01-9.504 21.034l-35.364-22.019a284.643 284.643 0 009.504-21.026" fill="#777B80"/><path d="M312.824 272.083l35.364 21.967a289.482 289.482 0 01-9.504 21.034l-35.364-22.019a284.643 284.643 0 009.504-21.026" fill="url(#paint20_radial_669_17456)"/><path d="M303.321 293.109l35.364 22.018a288.782 288.782 0 01-9.124 16.737l-1.065 1.76-35.365-21.974c.36-.591.712-1.19 1.065-1.763a259.599 259.599 0 009.125-16.734" fill="#777B80"/><path d="M303.321 293.109l35.364 22.018a288.782 288.782 0 01-9.124 16.737l-1.065 1.76-35.365-21.974c.36-.591.712-1.19 1.065-1.763a259.599 259.599 0 009.125-16.734" fill="url(#paint21_radial_669_17456)"/><path d="M293.131 311.589l35.365 21.975a274.51 274.51 0 01-11.593 17.617l-35.355-21.977a268.377 268.377 0 0011.583-17.615z" fill="#777B80"/><path d="M293.131 311.589l35.365 21.975a274.51 274.51 0 01-11.593 17.617l-35.355-21.977a268.377 268.377 0 0011.583-17.615z" fill="url(#paint22_radial_669_17456)"/><path d="M281.547 329.186l35.355 21.977a263.052 263.052 0 01-13.088 16.832l-35.365-22.021a269.61 269.61 0 0013.098-16.831" fill="#777B80"/><path d="M281.547 329.186l35.355 21.977a263.052 263.052 0 01-13.088 16.832l-35.365-22.021a269.61 269.61 0 0013.098-16.831" fill="url(#paint23_radial_669_17456)"/><path d="M268.45 346.019l35.364 22.02a264.708 264.708 0 01-15.265 16.569l-35.364-22.021a276.431 276.431 0 0015.265-16.568z" fill="#777B80"/><path d="M268.45 346.019l35.364 22.02a264.708 264.708 0 01-15.265 16.569l-35.364-22.021a276.431 276.431 0 0015.265-16.568z" fill="url(#paint24_radial_669_17456)"/><path d="M253.184 362.587l35.365 22.021a259.796 259.796 0 01-18.762 16.955l-35.365-22.018a259.837 259.837 0 0018.762-16.958z" fill="#777B80"/><path d="M253.184 362.587l35.365 22.021a259.796 259.796 0 01-18.762 16.955l-35.365-22.018a259.837 259.837 0 0018.762-16.958z" fill="url(#paint25_radial_669_17456)"/><path d="M234.422 379.544l35.365 22.018a262.167 262.167 0 01-25.798 18.587l-35.364-21.977a261.652 261.652 0 0025.79-18.628" fill="#777B80"/><path d="M234.422 379.544l35.365 22.018a262.167 262.167 0 01-25.798 18.587l-35.364-21.977a261.652 261.652 0 0025.79-18.628" fill="url(#paint26_radial_669_17456)"/><path d="M208.635 398.172l35.355 21.977a267.113 267.113 0 01-41.946 21.615 42.191 42.191 0 01-16.065 3.222 38.796 38.796 0 01-13.679-2.456 192.983 192.983 0 01-33.004-16.612l-35.355-21.977a192.926 192.926 0 0032.994 16.612 38.864 38.864 0 0013.689 2.459 42.111 42.111 0 0016.065-3.225 266.843 266.843 0 0041.936-21.615" fill="#777B80"/><path d="M208.635 398.172l35.355 21.977a267.113 267.113 0 01-41.946 21.615 42.191 42.191 0 01-16.065 3.222 38.796 38.796 0 01-13.679-2.456 192.983 192.983 0 01-33.004-16.612l-35.355-21.977a192.926 192.926 0 0032.994 16.612 38.864 38.864 0 0013.689 2.459 42.111 42.111 0 0016.065-3.225 266.843 266.843 0 0041.936-21.615" fill="url(#paint27_radial_669_17456)"/><path d="M178.968 0a38.813 38.813 0 0126.969 10.676c19.502 18.612 55.44 37.39 91.783 37.39h1.559a38.381 38.381 0 0115.86 3.261 38.372 38.372 0 0113.108 9.511c7.488 8.333 11.134 19.44 10.28 31.26l-7.532 103.619c-1.831 35.754-15.554 78.392-36.755 114.1a262.826 262.826 0 01-127.541 109.97 42.127 42.127 0 01-16.075 3.225 38.841 38.841 0 01-13.689-2.459c-12.33-4.633-55.333-23.234-90.662-68.166a213.688 213.688 0 01-35.488-66.607C1.765 257.866-1.598 227.725.7 196.176l7.602-104.57C9.965 68.755 28.56 49.484 50.58 47.731c32.422-2.642 76.632-14.49 97.04-34.493C156.19 4.828 167.613.001 178.968.001z" fill="#228DFD"/><g filter="url(#filter0_d_669_17456)" fill-rule="evenodd" clip-rule="evenodd" fill="#E5EDF6"><path d="M177.125 52.156c-.452-.407-1.265-.405-1.807.11-17.069 16.272-41.067 27.243-64.387 34.448-23.39 7.228-46.554 10.806-62.378 12.027-.537.041-.917.466-.944.918l-6.257 102.877c-6.62 108.846 74.205 165.347 117.12 180.68.093.034.248.051.475-.037 105.391-41.641 134.768-137.789 136.259-180.665l.002-.056 6.228-102.447c.027-.444-.34-.94-.98-.934-56.704.623-103.251-28.807-123.331-46.92zm-7.488-5.84c3.792-3.615 9.674-3.964 13.405-.598 19.207 17.326 63.908 45.476 117.84 44.884 5.17-.057 9.373 4.052 9.047 9.405l-6.224 102.336c-1.59 45.158-32.268 145.316-142.049 188.689-2.055.812-4.356.944-6.481.185C110.486 375.249 25.936 316.421 32.86 202.54l6.257-102.876c.302-4.965 4.4-8.996 9.297-9.374 15.28-1.178 37.79-4.654 60.457-11.659 22.743-7.027 45.19-17.469 60.766-32.315z"/><path d="M134.107 131.635c9.069-4.156 18.976-6.768 28.74-7.578l.01-.001.474-.037.007-.001c2.002-.163 3.967.281 5.635 1.274a9.002 9.002 0 013.721 4.292l.002.001 4.786 11.493a62.417 62.417 0 0115.864 4.315l10.916-7.222.01-.006c1.715-1.123 3.699-1.722 5.693-1.718 1.99.004 3.896.61 5.465 1.738l.007.004.377.268.005.005a74.548 74.548 0 0119.501 20.702l.01.018.246.396c1.031 1.633 1.522 3.569 1.408 5.554a10.368 10.368 0 01-2.065 5.594l-7.828 10.468a63.377 63.377 0 012.201 7.951 64.728 64.728 0 011.157 8.225l11.143 5.469.007.005c3.556 1.763 5.531 5.569 4.996 9.592l-.066.503-.005.027a85.45 85.45 0 01-5.343 19.774c-.895 2.215-3.38 3.397-5.552 2.641-2.172-.757-3.21-3.164-2.315-5.38a76.667 76.667 0 004.788-17.711l.059-.455.002-.002a1.31 1.31 0 00-.715-1.353l-.005-.002-15.26-7.49-.095-2.371a56.743 56.743 0 00-1.133-9.273 55.282 55.282 0 00-2.634-8.874l-.853-2.174 10.739-14.358a1.45 1.45 0 00.285-.77 1.3 1.3 0 00-.2-.772l-.012-.022-.251-.403a66.75 66.75 0 00-17.453-18.528l-.008-.005-.377-.268-.004-.005a1.303 1.303 0 00-.762-.242 1.44 1.44 0 00-.783.234l-.004.004-14.969 9.902-2.125-.988a54.352 54.352 0 00-17.785-4.835l-2.381-.227-6.571-15.778a1.244 1.244 0 00-.515-.594 1.312 1.312 0 00-.776-.176l-.01.001-.469.037-.01.001c-8.74.726-17.636 3.072-25.754 6.791l-.009.004-.436.202-.009.004a1.476 1.476 0 00-.628.546 1.417 1.417 0 00-.226.79l.319 17.481-2.021 1.396a63.018 63.018 0 00-13.94 13.17l-1.517 1.951-17.435-1.397a1.41 1.41 0 00-.793.178 1.49 1.49 0 00-.578.591l-.005.013-.239.437c-4.253 7.972-7.081 16.554-8.348 25.338l-.064.482-.002.026a1.285 1.285 0 00.696 1.348l15.425 7.555.09 2.379c.117 3.071.504 6.15 1.124 9.144.63 3.028 1.495 5.977 2.59 8.75l.861 2.176-10.822 14.492c-.171.226-.27.496-.287.771-.015.277.053.545.199.773l.012.022.248.399c4.606 7.247 10.472 13.509 17.459 18.533 0 0 .002.003.005.003l.377.27.005.002c.218.158.483.243.761.243.274 0 .547-.08.783-.233l.005-.005 15.068-9.963 2.128.992c5.574 2.597 11.505 4.241 17.653 4.83l2.378.228 6.603 15.839c.104.251.284.457.515.594.231.138.501.199.776.177l.01-.002.467-.037h.009a77.07 77.07 0 0018.023-3.735c2.264-.759 4.606.42 5.231 2.634.625 2.213-.705 4.625-2.969 5.384a85.84 85.84 0 01-20.1 4.163h-.009l-.477.039h-.01c-1.999.163-3.964-.282-5.632-1.274a9 9 0 01-3.721-4.293l-4.82-11.558a61.918 61.918 0 01-15.739-4.31l-11.009 7.284-.01.005c-1.715 1.123-3.699 1.722-5.693 1.717-1.989-.005-3.894-.611-5.465-1.737l-.007-.005-.377-.267-.005-.005c-7.816-5.62-14.367-12.622-19.496-20.695l-.012-.022-.249-.399c-1.03-1.634-1.522-3.57-1.408-5.555.115-1.996.835-3.947 2.065-5.595l7.909-10.591a62.27 62.27 0 01-2.157-7.841 64.188 64.188 0 01-1.153-8.103l-11.299-5.535-.007-.002c-3.56-1.766-5.54-5.599-4.966-9.657l.063-.482.005-.024c1.41-9.808 4.567-19.392 9.32-28.292l.004-.01.236-.435a10.75 10.75 0 014.212-4.297c1.79-1.003 3.811-1.457 5.793-1.302l.007.001 12.729 1.019a72.22 72.22 0 0112.405-11.72l-.234-12.779c-.036-1.989.538-3.98 1.644-5.707a10.761 10.761 0 014.558-3.964l.44-.203.007-.004z"/><path d="M164.413 181.181l13.052 14.721c1.734 1.955 1.554 5.012-.411 6.974l-8.315 8.31-7.639 6.698c-2.081 1.826-5.133 1.809-6.972-.039l-14.674-14.764c-1.021 4.044-1.128 8.239-.272 12.264 1.291 6.067 4.686 11.371 9.611 15.009 4.922 3.639 11.067 5.387 17.388 4.945a28.458 28.458 0 003.48-.465c1.67-.331 3.395.165 4.552 1.411l45.472 48.937c3.164 3.404 8.667 3.438 12.288.077l6.785-6.303c3.619-3.361 3.989-8.842.827-12.245l-45.948-49.45c-1.109-1.194-1.498-2.862-1.124-4.453.093-.403.18-.807.256-1.213 1.174-6.238.16-12.559-2.87-17.882-3.03-5.323-7.892-9.324-13.752-11.317-3.748-1.273-7.756-1.676-11.734-1.215zm-7.817-6.799c7.51-2.469 15.492-2.486 22.729-.026 7.687 2.613 14.061 7.858 18.037 14.841 3.95 6.941 5.29 15.17 3.794 23.307l44.835 48.249c6.255 6.734 5.522 17.585-1.639 24.237l-6.785 6.303c-7.16 6.646-18.031 6.581-24.285-.151l-44.307-47.682c-.9.131-1.807.229-2.714.292-8.288.581-16.347-1.71-22.802-6.481-6.456-4.772-10.912-11.729-12.604-19.689-1.6-7.522-.64-15.496 2.711-22.709 1.596-3.431 5.949-4.141 8.308-1.768l16.301 16.401 4.939-4.331 5.771-5.766-14.849-16.746c-2.294-2.586-1.158-7.058 2.56-8.281z"/></g><defs><radialGradient id="paint0_radial_669_17456" cx="0" cy="0" r="1" gradientUnits="userSpaceOnUse" gradientTransform="matrix(-263.87884 579.83362 -493.0991 -224.40647 392.269 79.168)"><stop stop-color="#4297E7"/><stop offset="1" stop-color="#0069CC"/></radialGradient><radialGradient id="paint1_radial_669_17456" cx="0" cy="0" r="1" gradientUnits="userSpaceOnUse" gradientTransform="matrix(-263.87884 579.83362 -493.1 -224.40688 392.269 79.168)"><stop stop-color="#4297E7"/><stop offset="1" stop-color="#0069CC"/></radialGradient><radialGradient id="paint2_radial_669_17456" cx="0" cy="0" r="1" gradientUnits="userSpaceOnUse" gradientTransform="matrix(-263.87884 579.83362 -493.0991 -224.40647 392.269 79.168)"><stop stop-color="#4297E7"/><stop offset="1" stop-color="#0069CC"/></radialGradient><radialGradient id="paint3_radial_669_17456" cx="0" cy="0" r="1" gradientUnits="userSpaceOnUse" gradientTransform="matrix(-263.87925 579.83453 -493.1 -224.40688 392.27 79.168)"><stop stop-color="#4297E7"/><stop offset="1" stop-color="#0069CC"/></radialGradient><radialGradient id="paint4_radial_669_17456" cx="0" cy="0" r="1" gradientUnits="userSpaceOnUse" gradientTransform="matrix(-263.87925 579.83453 -493.1 -224.40688 392.269 79.168)"><stop stop-color="#4297E7"/><stop offset="1" stop-color="#0069CC"/></radialGradient><radialGradient id="paint5_radial_669_17456" cx="0" cy="0" r="1" gradientUnits="userSpaceOnUse" gradientTransform="matrix(-263.87925 579.83453 -493.1 -224.40688 392.27 79.168)"><stop stop-color="#4297E7"/><stop offset="1" stop-color="#0069CC"/></radialGradient><radialGradient id="paint6_radial_669_17456" cx="0" cy="0" r="1" gradientUnits="userSpaceOnUse" gradientTransform="matrix(-263.87925 579.83453 -493.1 -224.40688 392.269 79.169)"><stop stop-color="#4297E7"/><stop offset="1" stop-color="#0069CC"/></radialGradient><radialGradient id="paint7_radial_669_17456" cx="0" cy="0" r="1" gradientUnits="userSpaceOnUse" gradientTransform="matrix(-263.87884 579.83362 -493.0991 -224.40647 392.269 79.168)"><stop stop-color="#4297E7"/><stop offset="1" stop-color="#0069CC"/></radialGradient><radialGradient id="paint8_radial_669_17456" cx="0" cy="0" r="1" gradientUnits="userSpaceOnUse" gradientTransform="matrix(-263.87925 579.83453 -493.0991 -224.40647 392.27 79.168)"><stop stop-color="#4297E7"/><stop offset="1" stop-color="#0069CC"/></radialGradient><radialGradient id="paint9_radial_669_17456" cx="0" cy="0" r="1" gradientUnits="userSpaceOnUse" gradientTransform="matrix(-263.87884 579.83362 -493.1 -224.40688 392.27 79.169)"><stop stop-color="#4297E7"/><stop offset="1" stop-color="#0069CC"/></radialGradient><radialGradient id="paint10_radial_669_17456" cx="0" cy="0" r="1" gradientUnits="userSpaceOnUse" gradientTransform="matrix(-263.87884 579.83362 -493.0991 -224.40647 392.269 79.169)"><stop stop-color="#4297E7"/><stop offset="1" stop-color="#0069CC"/></radialGradient><radialGradient id="paint11_radial_669_17456" cx="0" cy="0" r="1" gradientUnits="userSpaceOnUse" gradientTransform="matrix(-263.87925 579.83453 -493.1 -224.40688 392.269 79.168)"><stop stop-color="#4297E7"/><stop offset="1" stop-color="#0069CC"/></radialGradient><radialGradient id="paint12_radial_669_17456" cx="0" cy="0" r="1" gradientUnits="userSpaceOnUse" gradientTransform="matrix(-263.87884 579.83362 -493.0991 -224.40647 392.269 79.168)"><stop stop-color="#4297E7"/><stop offset="1" stop-color="#0069CC"/></radialGradient><radialGradient id="paint13_radial_669_17456" cx="0" cy="0" r="1" gradientUnits="userSpaceOnUse" gradientTransform="matrix(-263.87925 579.83453 -493.0991 -224.40647 392.269 79.168)"><stop stop-color="#4297E7"/><stop offset="1" stop-color="#0069CC"/></radialGradient><radialGradient id="paint14_radial_669_17456" cx="0" cy="0" r="1" gradientUnits="userSpaceOnUse" gradientTransform="matrix(-263.87925 579.83453 -493.1 -224.40688 392.27 79.167)"><stop stop-color="#4297E7"/><stop offset="1" stop-color="#0069CC"/></radialGradient><radialGradient id="paint15_radial_669_17456" cx="0" cy="0" r="1" gradientUnits="userSpaceOnUse" gradientTransform="matrix(-263.87884 579.83362 -493.0991 -224.40647 392.27 79.168)"><stop stop-color="#4297E7"/><stop offset="1" stop-color="#0069CC"/></radialGradient><radialGradient id="paint16_radial_669_17456" cx="0" cy="0" r="1" gradientUnits="userSpaceOnUse" gradientTransform="matrix(-263.87884 579.83362 -493.0991 -224.40647 392.269 79.168)"><stop stop-color="#4297E7"/><stop offset="1" stop-color="#0069CC"/></radialGradient><radialGradient id="paint17_radial_669_17456" cx="0" cy="0" r="1" gradientUnits="userSpaceOnUse" gradientTransform="matrix(-263.87925 579.83453 -493.1 -224.40688 392.27 79.169)"><stop stop-color="#4297E7"/><stop offset="1" stop-color="#0069CC"/></radialGradient><radialGradient id="paint18_radial_669_17456" cx="0" cy="0" r="1" gradientUnits="userSpaceOnUse" gradientTransform="matrix(-263.87884 579.83362 -493.1 -224.40688 392.27 79.168)"><stop stop-color="#4297E7"/><stop offset="1" stop-color="#0069CC"/></radialGradient><radialGradient id="paint19_radial_669_17456" cx="0" cy="0" r="1" gradientUnits="userSpaceOnUse" gradientTransform="matrix(-263.87925 579.83453 -493.1 -224.40688 392.27 79.168)"><stop stop-color="#4297E7"/><stop offset="1" stop-color="#0069CC"/></radialGradient><radialGradient id="paint20_radial_669_17456" cx="0" cy="0" r="1" gradientUnits="userSpaceOnUse" gradientTransform="matrix(-263.87884 579.83362 -493.1 -224.40688 392.269 79.168)"><stop stop-color="#4297E7"/><stop offset="1" stop-color="#0069CC"/></radialGradient><radialGradient id="paint21_radial_669_17456" cx="0" cy="0" r="1" gradientUnits="userSpaceOnUse" gradientTransform="matrix(-263.87925 579.83453 -493.0991 -224.40647 392.27 79.167)"><stop stop-color="#4297E7"/><stop offset="1" stop-color="#0069CC"/></radialGradient><radialGradient id="paint22_radial_669_17456" cx="0" cy="0" r="1" gradientUnits="userSpaceOnUse" gradientTransform="matrix(-263.87884 579.83362 -493.0991 -224.40647 392.27 79.168)"><stop stop-color="#4297E7"/><stop offset="1" stop-color="#0069CC"/></radialGradient><radialGradient id="paint23_radial_669_17456" cx="0" cy="0" r="1" gradientUnits="userSpaceOnUse" gradientTransform="matrix(-263.87925 579.83453 -493.0991 -224.40647 392.269 79.168)"><stop stop-color="#4297E7"/><stop offset="1" stop-color="#0069CC"/></radialGradient><radialGradient id="paint24_radial_669_17456" cx="0" cy="0" r="1" gradientUnits="userSpaceOnUse" gradientTransform="matrix(-263.87884 579.83362 -493.0991 -224.40647 392.27 79.169)"><stop stop-color="#4297E7"/><stop offset="1" stop-color="#0069CC"/></radialGradient><radialGradient id="paint25_radial_669_17456" cx="0" cy="0" r="1" gradientUnits="userSpaceOnUse" gradientTransform="matrix(-263.87925 579.83453 -493.0991 -224.40647 392.27 79.168)"><stop stop-color="#4297E7"/><stop offset="1" stop-color="#0069CC"/></radialGradient><radialGradient id="paint26_radial_669_17456" cx="0" cy="0" r="1" gradientUnits="userSpaceOnUse" gradientTransform="matrix(-263.87925 579.83453 -493.0991 -224.40647 392.269 79.168)"><stop stop-color="#4297E7"/><stop offset="1" stop-color="#0069CC"/></radialGradient><radialGradient id="paint27_radial_669_17456" cx="0" cy="0" r="1" gradientUnits="userSpaceOnUse" gradientTransform="matrix(-263.87884 579.83362 -493.0991 -224.40647 392.27 79.168)"><stop stop-color="#4297E7"/><stop offset="1" stop-color="#0069CC"/></radialGradient><filter id="filter0_d_669_17456" x="31.063" y="43.387" width="280.28" height="352.173" filterUnits="userSpaceOnUse" color-interpolation-filters="sRGB"><feFlood flood-opacity="0" result="BackgroundImageFix"/><feColorMatrix in="SourceAlpha" values="0 0 0 0 0 0 0 0 0 0 0 0 0 0 0 0 0 0 127 0" result="hardAlpha"/><feOffset dy="2.444"/><feGaussianBlur stdDeviation=".698"/><feComposite in2="hardAlpha" operator="out"/><feColorMatrix values="0 0 0 0 0.065625 0 0 0 0 0.419165 0 0 0 0 0.75 0 0 0 1 0"/><feBlend in2="BackgroundImageFix" result="effect1_dropShadow_669_17456"/><feBlend in="SourceGraphic" in2="effect1_dropShadow_669_17456" result="shape"/></filter></defs></svg>