<svg width="434" height="429" fill="none" xmlns="http://www.w3.org/2000/svg"><path d="M178.177 4.594l32.292 20.112a30.49 30.49 0 012.019 1.368L180.205 5.962a35.448 35.448 0 00-2.028-1.368z" fill="url(#paint0_radial_669_17062)"/><path d="M178.177 4.594l32.292 20.112a30.49 30.49 0 012.019 1.368L180.205 5.962a30.798 30.798 0 00-2.012-1.368" fill="url(#paint1_radial_669_17062)"/><path d="M180.188 5.962l32.3 20.072 10.49 7.739L190.687 13.7l-10.499-7.74z" fill="url(#paint2_radial_669_17062)"/><path d="M47.136 311.772l-32.294-20.113a30.726 30.726 0 0016.333 4.602 29.918 29.918 0 003.065-.146l32.3 20.072c-1.022.1-2.048.149-3.074.145a30.722 30.722 0 01-16.33-4.56z" fill="url(#paint3_radial_669_17062)"/><path d="M34.24 296.157l32.3 20.07c-1.022.1-2.048.149-3.074.145a30.738 30.738 0 01-16.33-4.6l-32.294-20.113a30.726 30.726 0 0016.333 4.602 29.918 29.918 0 003.065-.146" fill="url(#paint4_radial_669_17062)"/><path d="M236.865 12.47l32.291 20.112a40.753 40.753 0 016.781 5.277l-32.3-20.112a40.727 40.727 0 00-6.772-5.277z" fill="url(#paint5_radial_669_17062)"/><path d="M236.865 12.47l32.291 20.112a41.809 41.809 0 013.05 2.091l-32.3-20.112a42.507 42.507 0 00-3.041-2.091z" fill="url(#paint6_radial_669_17062)"/><path d="M239.906 14.562l32.3 20.072a42.57 42.57 0 012.967 2.478L242.873 17a42.543 42.543 0 00-2.967-2.478" fill="url(#paint7_radial_669_17062)"/><path d="M242.873 17.04l32.3 20.112.804.748-32.3-20.112-.804-.748z" fill="url(#paint8_radial_669_17062)"/><path d="M130.889 390.118l-32.291-20.055a164.29 164.29 0 0021.31 11.166l32.3 20.072a165.322 165.322 0 01-21.319-11.183z" fill="url(#paint9_radial_669_17062)"/><path d="M119.908 381.213l32.3 20.073a165.476 165.476 0 01-21.319-11.168l-32.291-20.055a164.29 164.29 0 0021.31 11.166" fill="url(#paint10_radial_669_17062)"/><path d="M148.219 390.544l32.291 20.072-29.033-6.756-32.293-20.073 29.035 6.757z" fill="url(#paint11_radial_669_17062)"/><path d="M155.386 392.221l32.301 20.07-7.177-1.672-32.291-20.073 7.167 1.675z" fill="url(#paint12_radial_669_17062)"/><path d="M303.533 39.847l32.291 20.112a165.367 165.367 0 0131.625 25.559 170.99 170.99 0 0130.514 43.603l-32.3-20.112a170.58 170.58 0 00-30.514-43.603 165.264 165.264 0 00-31.616-25.559z" fill="url(#paint13_radial_669_17062)"/><path d="M303.533 39.847l32.291 20.112a162.424 162.424 0 0112.414 8.52l-32.3-20.104a160.25 160.25 0 00-12.405-8.528z" fill="url(#paint14_radial_669_17062)"/><path d="M315.938 48.374l32.301 20.064a168.175 168.175 0 0112.065 10.088l-32.3-20.112a166.455 166.455 0 00-12.066-10.08" fill="url(#paint15_radial_669_17062)"/><path d="M328.021 58.455l32.3 20.112a162.166 162.166 0 017.128 6.95 187.553 187.553 0 014.753 5.134l-32.3-20.113a158.303 158.303 0 00-4.753-5.132 162.166 162.166 0 00-7.128-6.95z" fill="url(#paint16_radial_669_17062)"/><path d="M339.902 70.537l32.3 20.073a168.648 168.648 0 0111.948 15.1l-32.294-20.112a168.477 168.477 0 00-11.954-15.1" fill="url(#paint17_radial_669_17062)"/><path d="M351.857 85.638l32.293 20.112a172.524 172.524 0 0112.669 21.086l-32.291-20.112a172.475 172.475 0 00-12.671-21.086z" fill="url(#paint18_radial_669_17062)"/><path d="M364.528 106.724l32.292 20.112c.386.756.764 1.52 1.143 2.284l-32.3-20.112c-.371-.764-.757-1.528-1.135-2.284z" fill="url(#paint19_radial_669_17062)"/><path d="M196.866 420.12l-32.293-20.113a40.676 40.676 0 0021.61 6.082 46.47 46.47 0 0029.323-10.773l32.276 20.113a46.448 46.448 0 01-29.317 10.773 40.686 40.686 0 01-21.599-6.082z" fill="url(#paint20_radial_669_17062)"/><path d="M215.506 395.355l32.276 20.073a49.312 49.312 0 01-4.827 3.507l-32.309-20.07a51.393 51.393 0 004.827-3.51" fill="url(#paint21_radial_669_17062)"/><path d="M210.647 398.865l32.309 20.07a45.683 45.683 0 01-24.458 7.241 40.705 40.705 0 01-21.616-6.081l-32.293-20.113a40.68 40.68 0 0021.609 6.081 45.726 45.726 0 0024.464-7.238" fill="url(#paint22_radial_669_17062)"/><path d="M394.23 162.483l32.3 20.073-9.622 14.158-32.3-20.071 9.622-14.16z" fill="url(#paint23_radial_669_17062)"/><path d="M386.025 113.353l32.306 20.071c.427.266.807.54 1.264.805a31.624 31.624 0 0113.218 21.914 37.387 37.387 0 01-6.292 26.411l-32.322-20.047a37.418 37.418 0 006.299-26.412 31.63 31.63 0 00-4.312-12.346 31.571 31.571 0 00-8.94-9.544 10.975 10.975 0 00-1.221-.852z" fill="url(#paint24_radial_669_17062)"/><path d="M386.025 113.353l32.306 20.071c.427.266.807.54 1.264.805.458.265.74.523 1.095.804l-32.293-20.063a52.753 52.753 0 00-1.102-.805 11.69 11.69 0 00-1.255-.804" fill="url(#paint25_radial_669_17062)"/><path d="M388.381 114.978l32.292 20.063a28.896 28.896 0 012.245 1.875l-32.293-20.072a31.033 31.033 0 00-2.244-1.866z" fill="url(#paint26_radial_669_17062)"/><path d="M390.625 116.844l32.293 20.072a29.827 29.827 0 012.172 2.212l-32.293-20.064a29.242 29.242 0 00-2.172-2.212" fill="url(#paint27_radial_669_17062)"/><path d="M392.797 119.063l32.293 20.073c.78.869 1.504 1.785 2.173 2.743l-32.26-20.079a31.418 31.418 0 00-2.173-2.744" fill="url(#paint28_radial_669_17062)"/><path d="M395.003 121.799l32.291 20.072a32.2 32.2 0 012.301 3.829l-32.3-20.112a31.23 31.23 0 00-2.292-3.789z" fill="url(#paint29_radial_669_17062)"/><path d="M397.262 125.629l32.3 20.112a33.4 33.4 0 013.218 10.458c.371 2.53.467 5.092.291 7.643l-32.3-20.112a35.853 35.853 0 00-.282-7.643 33.64 33.64 0 00-3.267-10.458" fill="url(#paint30_radial_669_17062)"/><path d="M400.811 143.714l32.3 20.112a38.17 38.17 0 01-.629 4.69l-32.3-20.072c.316-1.547.525-3.114.629-4.69" fill="url(#paint31_radial_669_17062)"/><path d="M400.182 148.403l32.3 20.072a36.646 36.646 0 01-.917 3.604l-32.291-20.031c.362-1.191.668-2.414.908-3.612" fill="url(#paint32_radial_669_17062)"/><path d="M399.274 152.048l32.291 20.064a38.827 38.827 0 01-1.102 3.13l-32.3-20.064a33.46 33.46 0 001.111-3.13z" fill="url(#paint33_radial_669_17062)"/><path d="M398.163 155.146l32.3 20.064a33.211 33.211 0 01-1.294 2.855l-32.292-20.111c.467-.941.9-1.891 1.286-2.848" fill="url(#paint34_radial_669_17062)"/><path d="M396.877 157.994l32.291 20.113c-.457.909-.948 1.81-1.479 2.686l-32.3-20.112a40.531 40.531 0 001.488-2.687z" fill="url(#paint35_radial_669_17062)"/><path d="M395.389 160.681l32.3 20.111a39.25 39.25 0 01-1.159 1.804l-32.331-20.09c.402-.587.804-1.19 1.157-1.801" fill="url(#paint36_radial_669_17062)"/><path d="M260.129 423.964l-32.3-20.039a30.836 30.836 0 0016.357 4.609c11.536 0 22.573-6.033 29.517-16.155a37.852 37.852 0 006.723-22.856l32.3 20.073a37.809 37.809 0 01-6.732 22.856c-6.934 10.119-17.971 16.154-29.508 16.154a30.832 30.832 0 01-16.357-4.642z" fill="url(#paint37_radial_669_17062)"/><path d="M280.426 369.523l32.3 20.073c.052 1.304.032 2.61-.064 3.909l-32.291-20.07c.091-1.302.111-2.608.055-3.912z" fill="url(#paint38_radial_669_17062)"/><path d="M280.371 373.435l32.291 20.07a36.374 36.374 0 01-.626 4.732l-32.3-20.073a38.04 38.04 0 00.635-4.729z" fill="url(#paint39_radial_669_17062)"/><path d="M279.736 378.164l32.3 20.057a40.733 40.733 0 01-.926 3.645l-32.292-20.057a35.85 35.85 0 00.918-3.645z" fill="url(#paint40_radial_669_17062)"/><path d="M278.818 381.81l32.292 20.072a38.553 38.553 0 01-1.109 3.13l-32.293-20.073c.42-1.037.804-2.083 1.11-3.129z" fill="url(#paint41_radial_669_17062)"/><path d="M277.708 384.938l32.293 20.073a37.677 37.677 0 01-1.279 2.832l-32.3-20.079a38.55 38.55 0 001.286-2.832" fill="url(#paint42_radial_669_17062)"/><path d="M276.422 387.764l32.3 20.11a37.614 37.614 0 01-1.473 2.663l-32.291-20.07a42.57 42.57 0 001.464-2.663" fill="url(#paint43_radial_669_17062)"/><path d="M274.958 390.433l32.291 20.073a32.372 32.372 0 01-1.255 1.945c-.144.216-.297.434-.46.653l-32.291-20.072.46-.653c.442-.644.851-1.286 1.255-1.946z" fill="url(#paint44_radial_669_17062)"/><path d="M273.243 393.032l32.291 20.073a36.027 36.027 0 01-1.93 2.485l-32.3-20.112a37.294 37.294 0 001.939-2.486" fill="url(#paint45_radial_669_17062)"/><path d="M271.304 395.518l32.3 20.113a30.86 30.86 0 01-2.243 2.412l-32.293-20.071c.804-.804 1.521-1.61 2.236-2.414" fill="url(#paint46_radial_669_17062)"/><path d="M269.068 397.957l32.293 20.071a39.54 39.54 0 01-2.728 2.47l-32.3-20.113a40.515 40.515 0 002.735-2.47" fill="url(#paint47_radial_669_17062)"/><path d="M266.333 400.425l32.3 20.113a38.926 38.926 0 01-3.669 2.647l-32.3-20.137a37.877 37.877 0 003.669-2.645" fill="url(#paint48_radial_669_17062)"/><path d="M262.664 403.048l32.3 20.112a34.537 34.537 0 01-18.502 5.462 30.831 30.831 0 01-16.333-4.657l-32.3-20.04a30.82 30.82 0 0016.357 4.609 34.528 34.528 0 0018.502-5.462" fill="url(#paint49_radial_669_17062)"/><path d="M384.607 176.643l32.301 20.11a44.608 44.608 0 018.118 29.615 50.91 50.91 0 01-14.402 31.745L378.333 238a50.913 50.913 0 0014.4-31.744 44.63 44.63 0 00-8.126-29.613z" fill="url(#paint50_radial_669_17062)"/><path d="M384.608 176.643l32.3 20.11c.12.169.242.347.371.516l-32.3-20.073-.371-.513" fill="url(#paint51_radial_669_17062)"/><path d="M384.979 177.155l32.3 20.073a43.52 43.52 0 013.096 5.164l-32.3-20.11a42.232 42.232 0 00-3.096-5.167" fill="url(#paint52_radial_669_17062)"/><path d="M388.075 182.323l32.3 20.11a45.473 45.473 0 014.666 23.758l-32.3-20.064a45.324 45.324 0 00-4.666-23.764" fill="url(#paint53_radial_669_17062)"/><path d="M392.742 206.086l32.3 20.064v.177a50.444 50.444 0 01-.804 6.131l-32.34-20.073c.393-2.026.661-4.071.804-6.13v-.169" fill="url(#paint54_radial_669_17062)"/><path d="M391.897 212.385l32.3 20.113a51.616 51.616 0 01-1.223 4.826l-32.3-20.112a49.42 49.42 0 001.223-4.827z" fill="url(#paint55_radial_669_17062)"/><path d="M390.673 217.212l32.3 20.113a51.299 51.299 0 01-1.472 4.151L389.21 221.37a61.559 61.559 0 001.463-4.149" fill="url(#paint56_radial_669_17062)"/><path d="M389.21 221.371l32.291 20.072a71.935 71.935 0 01-1.706 3.765l-32.291-20.073a59.32 59.32 0 001.706-3.764z" fill="url(#paint57_radial_669_17062)"/><path d="M387.504 225.135l32.291 20.072a47.744 47.744 0 01-1.937 3.516l-32.293-20.072a55.091 55.091 0 001.939-3.516z" fill="url(#paint58_radial_669_17062)"/><path d="M385.565 228.651l32.293 20.073a49.332 49.332 0 01-2.212 3.363l-32.3-20.113a43.63 43.63 0 002.219-3.363" fill="url(#paint59_radial_669_17062)"/><path d="M383.346 232.014l32.3 20.113a48.58 48.58 0 01-2.552 3.265l-32.291-20.111a54.349 54.349 0 002.543-3.267z" fill="url(#paint60_radial_669_17062)"/><path d="M380.803 235.281l32.291 20.111a47.445 47.445 0 01-2.47 2.721L378.333 238a47.443 47.443 0 002.47-2.719z" fill="url(#paint61_radial_669_17062)"/><path d="M378.333 238l32.291 20.113a36.926 36.926 0 01-.746 3.547 210.092 210.092 0 01-52.18 92.755 205.206 205.206 0 01-44.971 35.221l-32.3-20.072a204.923 204.923 0 0044.971-35.219 210.104 210.104 0 0052.186-92.749c.307-1.224.525-2.414.749-3.596z" fill="url(#paint62_radial_669_17062)"/><path d="M378.333 238l32.291 20.113c-.071.457-.151.908-.24 1.357l-32.3-20.111c.096-.451.178-.901.249-1.359z" fill="url(#paint63_radial_669_17062)"/><path d="M378.108 239.358l32.301 20.113a36.253 36.253 0 01-.507 2.188 190.355 190.355 0 01-2.365 8.374l-32.325-20.113a251.309 251.309 0 002.412-8.365 40.8 40.8 0 00.5-2.197" fill="url(#paint64_radial_669_17062)"/><path d="M375.212 249.921l32.3 20.073a208.107 208.107 0 01-6.057 17.072l-32.294-20.073a207.702 207.702 0 006.051-17.072z" fill="url(#paint65_radial_669_17062)"/><path d="M369.162 266.994l32.275 20.072a207.836 207.836 0 01-6.974 15.431l-32.285-20.073a209.845 209.845 0 006.984-15.43z" fill="url(#paint66_radial_669_17062)"/><path d="M362.178 282.423l32.3 20.064a217.908 217.908 0 01-7.938 14.393l-32.3-20.024a214.404 214.404 0 007.938-14.393" fill="url(#paint67_radial_669_17062)"/><path d="M354.24 296.857l32.298 20.07a212.326 212.326 0 01-9.049 13.733l-32.293-20.112a193.237 193.237 0 009.044-13.734" fill="url(#paint68_radial_669_17062)"/><path d="M345.195 310.532l32.294 20.11a210.941 210.941 0 01-10.402 13.363l-32.293-20.071a198.764 198.764 0 0010.401-13.402z" fill="url(#paint69_radial_669_17062)"/><path d="M334.794 323.911l32.293 20.072a208.144 208.144 0 01-9.389 10.393c-.948.982-1.903 1.952-2.863 2.912l-32.3-20.07c.964-.962 1.919-1.933 2.863-2.915a209.394 209.394 0 009.396-10.392z" fill="url(#paint70_radial_669_17062)"/><path d="M322.535 337.217l32.3 20.07a211.362 211.362 0 01-14.939 13.507l-32.301-20.111a207.876 207.876 0 0014.94-13.509" fill="url(#paint71_radial_669_17062)"/><path d="M307.595 350.756l32.301 20.112a204.336 204.336 0 01-20 14.482l-32.293-20.161a202.999 202.999 0 0019.992-14.48" fill="url(#paint72_radial_669_17062)"/><path d="M287.603 365.189l32.294 20.073a208.727 208.727 0 01-7.17 4.335l-32.3-20.072a190.11 190.11 0 007.176-4.336z" fill="url(#paint73_radial_669_17062)"/><path d="M161.845 0a30.634 30.634 0 0118.36 5.962l10.458 7.715a45.765 45.765 0 0124.561-7.32 40.46 40.46 0 0128.422 11.407c2.059.014 4.114.232 6.131.651a164.42 164.42 0 0185.372 46.99 170.56 170.56 0 0130.514 43.603 32.373 32.373 0 014.023-.257 30.698 30.698 0 0117.569 5.43 31.593 31.593 0 0113.249 21.89 37.407 37.407 0 01-6.306 26.435l-9.655 14.159a44.63 44.63 0 018.125 29.612 50.897 50.897 0 01-14.4 31.747 36.963 36.963 0 01-.748 3.554 210.097 210.097 0 01-52.186 92.749 204.938 204.938 0 01-44.972 35.221 37.846 37.846 0 01-6.724 22.856c-6.943 10.119-17.98 16.154-29.517 16.154a30.77 30.77 0 01-17.698-5.519l-10.95-7.659a46.467 46.467 0 01-29.324 10.773 40.4 40.4 0 01-30.794-13.909l-7.17-1.675-29.041-6.757.733-2.574a164.518 164.518 0 01-56.01-40.007 171.88 171.88 0 01-29.66-45.052 29.859 29.859 0 01-3.066.146 30.642 30.642 0 01-18.349-5.97c-14.57-10.804-17.072-32.607-5.553-48.623l7.057-9.816a45.042 45.042 0 01-5.63-25.661 50.874 50.874 0 0113.86-31.15s4.229-19.583 14.795-42.212A211.058 211.058 0 0180.142 72.13a203.74 203.74 0 0145.438-33.94 37.996 37.996 0 017.241-22.727C139.78 5.769 150.624 0 161.845 0z" fill="#228DFD"/><g filter="url(#filter0_d_669_17062)" fill="#E5EDF6"><path d="M273.871 224.596a3.126 3.126 0 01-.486 2.281 3.355 3.355 0 01-1.937 1.402l-21.867 5.739 4.413 21.039c.08.38.082.777.009 1.171a3.253 3.253 0 01-.444 1.121 3.369 3.369 0 01-1.915 1.442 2.786 2.786 0 01-.759.122 2.802 2.802 0 01-1.804-.593 2.712 2.712 0 01-.973-1.602l-4.811-22.744-34.95-20.068-2.456 41.702 16.194 16.807a2.753 2.753 0 01.757 2.113 3.143 3.143 0 01-.297 1.157 3.322 3.322 0 01-.711.991 3.356 3.356 0 01-1.017.675c-.376.16-.771.246-1.169.253a2.894 2.894 0 01-1.139-.202 2.731 2.731 0 01-.942-.633l-15.017-15.586-16.896 16.281a3.27 3.27 0 01-2.184.929c-.802.017-1.55-.283-2.081-.836a2.788 2.788 0 01-.76-2.11 3.285 3.285 0 011.011-2.15l18.22-17.556 2.457-41.702-37.409 21.641-7.481 22.984a3.356 3.356 0 01-1.166 1.648 3.24 3.24 0 01-1.877.673 2.653 2.653 0 01-.746-.089 2.738 2.738 0 01-1.026-.497 2.667 2.667 0 01-.724-.866 2.812 2.812 0 01-.314-1.104 3.11 3.11 0 01.147-1.175l6.906-21.235-21.248-4.797a2.713 2.713 0 01-1.784-1.328 2.826 2.826 0 01-.335-1.1 3.027 3.027 0 01.122-1.177c.118-.389.309-.755.564-1.08a3.4 3.4 0 01.918-.813 3.23 3.23 0 011.132-.424c.396-.069.796-.06 1.175.027l23.029 5.22 37.409-21.659-34.95-20.081-23.702 6.234a3.137 3.137 0 01-.759.107 2.798 2.798 0 01-1.964-.7 2.739 2.739 0 01-.893-1.865 3.17 3.17 0 01.624-2.088 3.342 3.342 0 011.828-1.26l21.868-5.739-4.376-21.04a3.167 3.167 0 01.56-2.16 3.355 3.355 0 011.857-1.324 2.942 2.942 0 012.165.213c.647.343 1.12.928 1.326 1.639l4.789 22.716 34.95 20.066 2.457-41.702-16.195-16.807a2.783 2.783 0 01-.757-2.111 3.263 3.263 0 011.008-2.149 3.284 3.284 0 012.186-.929 2.787 2.787 0 012.081.836l15.017 15.585 16.897-16.28a3.335 3.335 0 011.017-.674c.373-.16.771-.246 1.166-.255a2.91 2.91 0 011.142.204 2.698 2.698 0 011.537 1.595c.129.362.184.752.162 1.148a3.21 3.21 0 01-.298 1.158 3.354 3.354 0 01-.713.991l-18.22 17.557-2.456 41.702 37.408-21.643 7.481-22.982a3.384 3.384 0 011.524-1.701 3.108 3.108 0 012.197-.309c.721.174 1.33.619 1.703 1.247a2.89 2.89 0 01.307 2.141l-6.906 21.233 21.248 4.8c.788.078 1.49.469 1.948 1.086.457.616.635 1.411.493 2.206a3.318 3.318 0 01-1.251 2.034 3.197 3.197 0 01-2.259.673 2.876 2.876 0 01-.748-.075l-23.029-5.218-37.409 21.659 34.95 20.081 23.702-6.237a3.052 3.052 0 011.188-.086 2.79 2.79 0 011.093.373 2.683 2.683 0 011.268 1.839z"/><path fill-rule="evenodd" clip-rule="evenodd" d="M139.793 189.236l21.868-5.74-4.376-21.04a3.163 3.163 0 01.56-2.159 3.365 3.365 0 011.857-1.325 2.937 2.937 0 012.165.214c.647.343 1.12.928 1.326 1.638l4.789 22.717 34.95 20.066 2.457-41.702-16.195-16.808a2.78 2.78 0 01-.757-2.11 3.273 3.273 0 011.008-2.15 3.278 3.278 0 012.186-.928 2.783 2.783 0 012.081.836l15.017 15.585 16.897-16.28a3.356 3.356 0 011.017-.675 3.167 3.167 0 011.166-.254c.398-.009.784.061 1.142.204a2.694 2.694 0 011.537 1.595c.129.362.184.752.162 1.147a3.184 3.184 0 01-.298 1.158 3.329 3.329 0 01-.713.991l-18.22 17.557-2.456 41.703 37.408-21.643 7.481-22.983a3.388 3.388 0 011.524-1.701 3.107 3.107 0 012.197-.308c.721.174 1.33.619 1.703 1.247a2.89 2.89 0 01.307 2.141l-6.906 21.233 21.248 4.8c.788.077 1.49.468 1.948 1.086.457.615.635 1.41.493 2.205a3.318 3.318 0 01-1.251 2.035 3.197 3.197 0 01-2.259.673 2.877 2.877 0 01-.748-.076l-23.029-5.217-37.409 21.658 34.95 20.082 23.702-6.237a3.034 3.034 0 011.188-.087c.391.049.764.176 1.093.373.331.198.613.462.831.778.218.315.366.677.437 1.062.143.77-.031 1.59-.486 2.281a3.35 3.35 0 01-1.937 1.401l-21.867 5.74 4.413 21.039c.08.379.082.777.009 1.17a3.266 3.266 0 01-.444 1.122c-.218.346-.5.653-.829.899a3.248 3.248 0 01-1.086.542 2.742 2.742 0 01-.759.122 2.797 2.797 0 01-1.804-.593 2.707 2.707 0 01-.973-1.601l-4.811-22.745-34.95-20.068-2.456 41.702 16.194 16.808c.264.275.467.602.598.964.128.362.184.753.16 1.148a3.154 3.154 0 01-.298 1.157 3.31 3.31 0 01-.711.991 3.338 3.338 0 01-1.017.675c-.376.16-.771.247-1.168.254a2.897 2.897 0 01-1.14-.203 2.717 2.717 0 01-.942-.633l-15.017-15.585-16.896 16.281a3.274 3.274 0 01-2.184.928 2.774 2.774 0 01-2.081-.835 2.79 2.79 0 01-.76-2.11c.049-.8.411-1.573 1.011-2.15l18.22-17.556 2.457-41.703-37.409 21.641-7.481 22.985a3.36 3.36 0 01-1.166 1.648c-.549.42-1.21.655-1.877.673a2.728 2.728 0 01-.746-.089 2.74 2.74 0 01-1.026-.498 2.657 2.657 0 01-.724-.866 2.79 2.79 0 01-.313-1.104c-.029-.391.022-.79.146-1.175l6.906-21.234-21.248-4.798a2.703 2.703 0 01-1.783-1.328 2.8 2.8 0 01-.336-1.099 3.053 3.053 0 01.122-1.178 3.3 3.3 0 01.564-1.079c.254-.324.565-.6.918-.813a3.208 3.208 0 011.133-.424c.395-.069.795-.06 1.175.026l23.029 5.22 37.408-21.658-34.95-20.082-23.702 6.235a3.185 3.185 0 01-.759.106 2.793 2.793 0 01-1.964-.699 2.739 2.739 0 01-.893-1.866 3.173 3.173 0 01.624-2.088 3.345 3.345 0 011.828-1.259zm.274 8.171c-1.286.034-2.504-.402-3.421-1.228-.922-.826-1.479-1.988-1.566-3.263-.086-1.275.302-2.574 1.093-3.654a5.872 5.872 0 013.201-2.205l.004-.002 19.604-5.142-3.936-18.923-.011-.094c-.153-1.3.198-2.649.98-3.779a5.886 5.886 0 013.247-2.318c1.304-.361 2.659-.227 3.791.374a4.7 4.7 0 012.319 2.867l.023.075 4.615 21.895 30.892 17.736 2.172-36.857-15.572-16.16c-.933-.967-1.408-2.296-1.326-3.693.082-1.398.717-2.75 1.765-3.76 1.047-1.01 2.424-1.595 3.823-1.625 1.399-.031 2.71.495 3.641 1.462l13.513 14.024 15.202-14.649a5.906 5.906 0 011.779-1.18 5.536 5.536 0 012.043-.445 5.058 5.058 0 011.997.357 4.752 4.752 0 011.646 1.105c.46.479.815 1.052 1.042 1.685.229.634.324 1.316.284 2.008a5.551 5.551 0 01-.522 2.026 5.85 5.85 0 01-1.244 1.734l-17.52 16.881-2.17 36.856 33.062-19.128 7.212-22.152.031-.076a5.895 5.895 0 012.665-2.976c1.206-.652 2.579-.845 3.843-.54a4.725 4.725 0 012.983 2.182c.651 1.099.842 2.436.535 3.746l-.022.098-6.206 19.089 18.92 4.274a4.768 4.768 0 013.254 1.881c.799 1.079 1.11 2.468.864 3.86-.249 1.391-1.035 2.672-2.186 3.561-1.113.857-2.479 1.281-3.816 1.186-.393 0-.779-.045-1.157-.129l-.004-.002-22.152-5.02-33.091 19.158 30.916 17.764 22.785-5.995.011-.002a5.369 5.369 0 012.066-.153 4.929 4.929 0 011.915.655c.577.347 1.07.809 1.45 1.362.382.553.642 1.184.766 1.857m-136.032-26.608a5.503 5.503 0 001.301-.184c.003 0 .002 0 .005-.002l22.802-5.997 30.914 17.762-33.091 19.158-22.156-5.02a5.231 5.231 0 00-2.054-.049 5.697 5.697 0 00-1.981.744 5.919 5.919 0 00-1.604 1.422 5.784 5.784 0 00-.984 1.883 5.335 5.335 0 00-.216 2.059c.065.682.265 1.335.589 1.919a4.652 4.652 0 001.302 1.491c.533.4 1.15.682 1.814.833l19.04 4.3-6.177 18.993a5.41 5.41 0 00-.255 2.055c.051.684.235 1.339.548 1.932a4.69 4.69 0 001.266 1.515c.52.406 1.124.699 1.775.864.435.115.886.169 1.346.158h.007a5.692 5.692 0 003.287-1.178 5.889 5.889 0 002.035-2.872l.004-.013 7.179-22.054 33.064-19.128-2.172 36.857-17.521 16.881c-1.048 1.011-1.684 2.361-1.766 3.761-.082 1.397.396 2.725 1.329 3.691.93.969 2.241 1.493 3.64 1.464 1.399-.031 2.774-.615 3.823-1.626l15.201-14.648 13.514 14.024a4.735 4.735 0 001.646 1.104 5.026 5.026 0 001.994.357 5.551 5.551 0 002.044-.444 5.887 5.887 0 001.781-1.181c.518-.5.942-1.089 1.244-1.735.302-.644.48-1.333.52-2.024a5.058 5.058 0 00-.282-2.008 4.698 4.698 0 00-1.044-1.685l-15.571-16.162 2.17-36.855 30.892 17.736 4.616 21.827a4.748 4.748 0 001.703 2.801 4.912 4.912 0 003.157 1.039h.006c.46-.011.92-.084 1.369-.217a5.903 5.903 0 003.329-2.519 5.679 5.679 0 00.778-1.961 5.197 5.197 0 00-.014-2.046v-.002l-3.949-18.825 19.593-5.142h.004a5.886 5.886 0 003.39-2.454c.793-1.208 1.099-2.643.848-3.991M187.851 61.268c1.492 1.01 1.781 3.106.644 4.68l-18.536 25.658c-1.137 1.575-3.269 2.032-4.762 1.022-1.493-1.011-1.781-3.107-.644-4.681l13.351-18.482c-53.201 14.59-96.64 57.442-111.706 110.628-.52 1.832-2.401 3.018-4.205 2.647-1.803-.37-2.845-2.158-2.326-3.993C75.52 122.785 121.36 77.764 177.445 62.713l-18.033-12.211c-1.493-1.011-1.782-3.107-.644-4.681 1.137-1.575 3.269-2.032 4.762-1.021l24.322 16.468zM55.745 238.947c1.137-1.574 3.267-2.032 4.76-1.021l24.322 16.47c1.492 1.01 1.78 3.105.644 4.68-1.138 1.574-3.27 2.032-4.763 1.021L63.19 248.234c10.433 52.279 50.363 92.398 103.024 102.951 1.806.362 2.857 2.143 2.348 3.978-.511 1.837-2.388 3.032-4.194 2.67-55.409-11.104-97.344-53.457-108.01-108.593l-13.745 19.024c-1.137 1.575-3.27 2.033-4.762 1.022-1.492-1.01-1.779-3.105-.642-4.68l18.536-25.659zm295.003-7.854c1.817.318 2.91 2.07 2.443 3.914-14.39 56.755-59.54 102.953-115.44 119.314l18.354 11.761c1.519.973 1.857 3.059.755 4.656-1.102 1.597-3.228 2.103-4.747 1.13l-24.748-15.861c-1.519-.973-1.857-3.059-.755-4.656l17.96-26.038c1.102-1.597 3.225-2.104 4.745-1.131 1.519.975 1.856 3.059.755 4.656l-12.936 18.755c53.023-15.832 95.8-59.802 109.476-113.739.467-1.843 2.319-3.081 4.138-2.761zM239.786 62.294c.466-1.844 2.319-3.08 4.136-2.761 55.691 9.766 98.392 50.861 110.569 105.079l13.222-19.368c1.093-1.603 3.217-2.12 4.74-1.155 1.526.965 1.875 3.046.78 4.649l-17.829 26.12c-1.095 1.603-3.217 2.121-4.742 1.154l-24.844-15.724c-1.524-.965-1.873-3.047-.778-4.65 1.093-1.602 3.217-2.119 4.74-1.155l17.896 11.327c-11.865-51.402-52.523-90.32-105.447-99.6-1.817-.32-2.912-2.073-2.443-3.916zm-26.05 8.733c4.162-.09 7.736-3.534 7.981-7.69.244-4.157-2.932-7.453-7.095-7.362-4.162.09-7.736 3.533-7.98 7.69-.245 4.157 2.932 7.453 7.094 7.362zm-.4 6.774c7.91-.173 14.698-6.715 15.164-14.612.464-7.898-5.568-14.16-13.478-13.988-7.91.172-14.7 6.714-15.164 14.612-.466 7.897 5.569 14.16 13.478 13.988zm-16.898 286.745c4.162-.091 7.736-3.533 7.98-7.689.247-4.158-2.93-7.454-7.092-7.363-4.162.091-7.736 3.533-7.981 7.689-.246 4.158 2.93 7.454 7.093 7.363zm-.398 6.775c7.907-.173 14.697-6.715 15.164-14.613.464-7.896-5.571-14.16-13.48-13.987-7.91.171-14.698 6.713-15.164 14.611-.464 7.899 5.57 14.16 13.48 13.989zM66.089 213.297c.244-4.156-2.932-7.452-7.094-7.361-4.163.089-7.737 3.532-7.981 7.69-.247 4.156 2.93 7.452 7.092 7.361 4.165-.091 7.736-3.534 7.983-7.69zm6.783-.146c.465-7.899-5.57-14.163-13.48-13.989-7.907.173-14.697 6.714-15.162 14.61-.466 7.899 5.569 14.16 13.479 13.989 7.909-.173 14.697-6.714 15.163-14.61zm287.176-6.254c.244-4.156-2.932-7.452-7.094-7.361-4.163.089-7.737 3.534-7.981 7.69-.247 4.155 2.93 7.451 7.094 7.36 4.163-.088 7.734-3.533 7.981-7.689zm6.783-.147c.465-7.898-5.568-14.162-13.478-13.989-7.909.174-14.699 6.715-15.163 14.611-.467 7.899 5.568 14.16 13.478 13.989 7.909-.173 14.697-6.715 15.163-14.611z"/></g><defs><radialGradient id="paint0_radial_669_17062" cx="0" cy="0" r="1" gradientUnits="userSpaceOnUse" gradientTransform="rotate(126.132 211.582 154.925) scale(693.212 744.674)"><stop stop-color="#4297E7"/><stop offset="1" stop-color="#0069CC"/></radialGradient><radialGradient id="paint1_radial_669_17062" cx="0" cy="0" r="1" gradientUnits="userSpaceOnUse" gradientTransform="rotate(126.132 211.582 154.925) scale(693.212 744.674)"><stop stop-color="#4297E7"/><stop offset="1" stop-color="#0069CC"/></radialGradient><radialGradient id="paint2_radial_669_17062" cx="0" cy="0" r="1" gradientUnits="userSpaceOnUse" gradientTransform="rotate(126.132 211.583 154.925) scale(693.212 744.675)"><stop stop-color="#4297E7"/><stop offset="1" stop-color="#0069CC"/></radialGradient><radialGradient id="paint3_radial_669_17062" cx="0" cy="0" r="1" gradientUnits="userSpaceOnUse" gradientTransform="rotate(126.132 211.582 154.925) scale(693.212 744.674)"><stop stop-color="#4297E7"/><stop offset="1" stop-color="#0069CC"/></radialGradient><radialGradient id="paint4_radial_669_17062" cx="0" cy="0" r="1" gradientUnits="userSpaceOnUse" gradientTransform="matrix(-408.75133 559.88089 -601.44392 -439.09519 461.468 75.39)"><stop stop-color="#4297E7"/><stop offset="1" stop-color="#0069CC"/></radialGradient><radialGradient id="paint5_radial_669_17062" cx="0" cy="0" r="1" gradientUnits="userSpaceOnUse" gradientTransform="rotate(126.132 211.583 154.925) scale(693.212 744.674)"><stop stop-color="#4297E7"/><stop offset="1" stop-color="#0069CC"/></radialGradient><radialGradient id="paint6_radial_669_17062" cx="0" cy="0" r="1" gradientUnits="userSpaceOnUse" gradientTransform="rotate(126.132 211.583 154.925) scale(693.212 744.675)"><stop stop-color="#4297E7"/><stop offset="1" stop-color="#0069CC"/></radialGradient><radialGradient id="paint7_radial_669_17062" cx="0" cy="0" r="1" gradientUnits="userSpaceOnUse" gradientTransform="rotate(126.132 211.582 154.925) scale(693.212 744.674)"><stop stop-color="#4297E7"/><stop offset="1" stop-color="#0069CC"/></radialGradient><radialGradient id="paint8_radial_669_17062" cx="0" cy="0" r="1" gradientUnits="userSpaceOnUse" gradientTransform="rotate(126.132 211.582 154.925) scale(693.212 744.674)"><stop stop-color="#4297E7"/><stop offset="1" stop-color="#0069CC"/></radialGradient><radialGradient id="paint9_radial_669_17062" cx="0" cy="0" r="1" gradientUnits="userSpaceOnUse" gradientTransform="rotate(126.132 211.583 154.925) scale(693.213 744.675)"><stop stop-color="#4297E7"/><stop offset="1" stop-color="#0069CC"/></radialGradient><radialGradient id="paint10_radial_669_17062" cx="0" cy="0" r="1" gradientUnits="userSpaceOnUse" gradientTransform="rotate(126.132 211.583 154.925) scale(693.213 744.675)"><stop stop-color="#4297E7"/><stop offset="1" stop-color="#0069CC"/></radialGradient><radialGradient id="paint11_radial_669_17062" cx="0" cy="0" r="1" gradientUnits="userSpaceOnUse" gradientTransform="matrix(-408.75133 559.88089 -601.44392 -439.09519 461.468 75.389)"><stop stop-color="#4297E7"/><stop offset="1" stop-color="#0069CC"/></radialGradient><radialGradient id="paint12_radial_669_17062" cx="0" cy="0" r="1" gradientUnits="userSpaceOnUse" gradientTransform="rotate(126.132 211.582 154.926) scale(693.212 744.675)"><stop stop-color="#4297E7"/><stop offset="1" stop-color="#0069CC"/></radialGradient><radialGradient id="paint13_radial_669_17062" cx="0" cy="0" r="1" gradientUnits="userSpaceOnUse" gradientTransform="rotate(126.132 211.582 154.925) scale(693.212 744.674)"><stop stop-color="#4297E7"/><stop offset="1" stop-color="#0069CC"/></radialGradient><radialGradient id="paint14_radial_669_17062" cx="0" cy="0" r="1" gradientUnits="userSpaceOnUse" gradientTransform="rotate(126.132 211.582 154.925) scale(693.212 744.674)"><stop stop-color="#4297E7"/><stop offset="1" stop-color="#0069CC"/></radialGradient><radialGradient id="paint15_radial_669_17062" cx="0" cy="0" r="1" gradientUnits="userSpaceOnUse" gradientTransform="rotate(126.132 211.583 154.925) scale(693.212 744.674)"><stop stop-color="#4297E7"/><stop offset="1" stop-color="#0069CC"/></radialGradient><radialGradient id="paint16_radial_669_17062" cx="0" cy="0" r="1" gradientUnits="userSpaceOnUse" gradientTransform="rotate(126.132 211.582 154.925) scale(693.212 744.674)"><stop stop-color="#4297E7"/><stop offset="1" stop-color="#0069CC"/></radialGradient><radialGradient id="paint17_radial_669_17062" cx="0" cy="0" r="1" gradientUnits="userSpaceOnUse" gradientTransform="rotate(126.132 211.582 154.925) scale(693.212 744.674)"><stop stop-color="#4297E7"/><stop offset="1" stop-color="#0069CC"/></radialGradient><radialGradient id="paint18_radial_669_17062" cx="0" cy="0" r="1" gradientUnits="userSpaceOnUse" gradientTransform="rotate(126.132 211.583 154.926) scale(693.213 744.675)"><stop stop-color="#4297E7"/><stop offset="1" stop-color="#0069CC"/></radialGradient><radialGradient id="paint19_radial_669_17062" cx="0" cy="0" r="1" gradientUnits="userSpaceOnUse" gradientTransform="rotate(126.132 211.582 154.925) scale(693.212 744.674)"><stop stop-color="#4297E7"/><stop offset="1" stop-color="#0069CC"/></radialGradient><radialGradient id="paint20_radial_669_17062" cx="0" cy="0" r="1" gradientUnits="userSpaceOnUse" gradientTransform="rotate(126.132 211.582 154.926) scale(693.212 744.674)"><stop stop-color="#4297E7"/><stop offset="1" stop-color="#0069CC"/></radialGradient><radialGradient id="paint21_radial_669_17062" cx="0" cy="0" r="1" gradientUnits="userSpaceOnUse" gradientTransform="rotate(126.132 211.582 154.925) scale(693.212 744.674)"><stop stop-color="#4297E7"/><stop offset="1" stop-color="#0069CC"/></radialGradient><radialGradient id="paint22_radial_669_17062" cx="0" cy="0" r="1" gradientUnits="userSpaceOnUse" gradientTransform="rotate(126.132 211.583 154.925) scale(693.212 744.674)"><stop stop-color="#4297E7"/><stop offset="1" stop-color="#0069CC"/></radialGradient><radialGradient id="paint23_radial_669_17062" cx="0" cy="0" r="1" gradientUnits="userSpaceOnUse" gradientTransform="rotate(126.132 211.582 154.926) scale(693.213 744.675)"><stop stop-color="#4297E7"/><stop offset="1" stop-color="#0069CC"/></radialGradient><radialGradient id="paint24_radial_669_17062" cx="0" cy="0" r="1" gradientUnits="userSpaceOnUse" gradientTransform="rotate(126.132 211.583 154.926) scale(693.212 744.674)"><stop stop-color="#4297E7"/><stop offset="1" stop-color="#0069CC"/></radialGradient><radialGradient id="paint25_radial_669_17062" cx="0" cy="0" r="1" gradientUnits="userSpaceOnUse" gradientTransform="rotate(126.132 211.583 154.926) scale(693.213 744.675)"><stop stop-color="#4297E7"/><stop offset="1" stop-color="#0069CC"/></radialGradient><radialGradient id="paint26_radial_669_17062" cx="0" cy="0" r="1" gradientUnits="userSpaceOnUse" gradientTransform="rotate(126.132 211.583 154.926) scale(693.212 744.675)"><stop stop-color="#4297E7"/><stop offset="1" stop-color="#0069CC"/></radialGradient><radialGradient id="paint27_radial_669_17062" cx="0" cy="0" r="1" gradientUnits="userSpaceOnUse" gradientTransform="rotate(126.132 211.582 154.926) scale(693.212 744.674)"><stop stop-color="#4297E7"/><stop offset="1" stop-color="#0069CC"/></radialGradient><radialGradient id="paint28_radial_669_17062" cx="0" cy="0" r="1" gradientUnits="userSpaceOnUse" gradientTransform="rotate(126.132 211.582 154.925) scale(693.212 744.674)"><stop stop-color="#4297E7"/><stop offset="1" stop-color="#0069CC"/></radialGradient><radialGradient id="paint29_radial_669_17062" cx="0" cy="0" r="1" gradientUnits="userSpaceOnUse" gradientTransform="rotate(126.132 211.582 154.925) scale(693.212 744.674)"><stop stop-color="#4297E7"/><stop offset="1" stop-color="#0069CC"/></radialGradient><radialGradient id="paint30_radial_669_17062" cx="0" cy="0" r="1" gradientUnits="userSpaceOnUse" gradientTransform="rotate(126.132 211.583 154.925) scale(693.212 744.674)"><stop stop-color="#4297E7"/><stop offset="1" stop-color="#0069CC"/></radialGradient><radialGradient id="paint31_radial_669_17062" cx="0" cy="0" r="1" gradientUnits="userSpaceOnUse" gradientTransform="rotate(126.132 211.583 154.925) scale(693.212 744.674)"><stop stop-color="#4297E7"/><stop offset="1" stop-color="#0069CC"/></radialGradient><radialGradient id="paint32_radial_669_17062" cx="0" cy="0" r="1" gradientUnits="userSpaceOnUse" gradientTransform="rotate(126.132 211.582 154.925) scale(693.212 744.674)"><stop stop-color="#4297E7"/><stop offset="1" stop-color="#0069CC"/></radialGradient><radialGradient id="paint33_radial_669_17062" cx="0" cy="0" r="1" gradientUnits="userSpaceOnUse" gradientTransform="rotate(126.132 211.582 154.925) scale(693.212 744.674)"><stop stop-color="#4297E7"/><stop offset="1" stop-color="#0069CC"/></radialGradient><radialGradient id="paint34_radial_669_17062" cx="0" cy="0" r="1" gradientUnits="userSpaceOnUse" gradientTransform="rotate(126.132 211.582 154.926) scale(693.212 744.674)"><stop stop-color="#4297E7"/><stop offset="1" stop-color="#0069CC"/></radialGradient><radialGradient id="paint35_radial_669_17062" cx="0" cy="0" r="1" gradientUnits="userSpaceOnUse" gradientTransform="rotate(126.132 211.582 154.926) scale(693.212 744.675)"><stop stop-color="#4297E7"/><stop offset="1" stop-color="#0069CC"/></radialGradient><radialGradient id="paint36_radial_669_17062" cx="0" cy="0" r="1" gradientUnits="userSpaceOnUse" gradientTransform="rotate(126.132 211.583 154.926) scale(693.212 744.674)"><stop stop-color="#4297E7"/><stop offset="1" stop-color="#0069CC"/></radialGradient><radialGradient id="paint37_radial_669_17062" cx="0" cy="0" r="1" gradientUnits="userSpaceOnUse" gradientTransform="rotate(126.132 211.582 154.925) scale(693.212 744.674)"><stop stop-color="#4297E7"/><stop offset="1" stop-color="#0069CC"/></radialGradient><radialGradient id="paint38_radial_669_17062" cx="0" cy="0" r="1" gradientUnits="userSpaceOnUse" gradientTransform="rotate(126.132 211.582 154.925) scale(693.212 744.674)"><stop stop-color="#4297E7"/><stop offset="1" stop-color="#0069CC"/></radialGradient><radialGradient id="paint39_radial_669_17062" cx="0" cy="0" r="1" gradientUnits="userSpaceOnUse" gradientTransform="rotate(126.132 211.583 154.925) scale(693.212 744.675)"><stop stop-color="#4297E7"/><stop offset="1" stop-color="#0069CC"/></radialGradient><radialGradient id="paint40_radial_669_17062" cx="0" cy="0" r="1" gradientUnits="userSpaceOnUse" gradientTransform="rotate(126.132 211.583 154.925) scale(693.213 744.675)"><stop stop-color="#4297E7"/><stop offset="1" stop-color="#0069CC"/></radialGradient><radialGradient id="paint41_radial_669_17062" cx="0" cy="0" r="1" gradientUnits="userSpaceOnUse" gradientTransform="rotate(126.132 211.582 154.926) scale(693.212 744.674)"><stop stop-color="#4297E7"/><stop offset="1" stop-color="#0069CC"/></radialGradient><radialGradient id="paint42_radial_669_17062" cx="0" cy="0" r="1" gradientUnits="userSpaceOnUse" gradientTransform="rotate(126.132 211.583 154.925) scale(693.213 744.675)"><stop stop-color="#4297E7"/><stop offset="1" stop-color="#0069CC"/></radialGradient><radialGradient id="paint43_radial_669_17062" cx="0" cy="0" r="1" gradientUnits="userSpaceOnUse" gradientTransform="rotate(126.132 211.583 154.926) scale(693.212 744.675)"><stop stop-color="#4297E7"/><stop offset="1" stop-color="#0069CC"/></radialGradient><radialGradient id="paint44_radial_669_17062" cx="0" cy="0" r="1" gradientUnits="userSpaceOnUse" gradientTransform="rotate(126.132 211.583 154.925) scale(693.213 744.675)"><stop stop-color="#4297E7"/><stop offset="1" stop-color="#0069CC"/></radialGradient><radialGradient id="paint45_radial_669_17062" cx="0" cy="0" r="1" gradientUnits="userSpaceOnUse" gradientTransform="rotate(126.132 211.583 154.925) scale(693.212 744.675)"><stop stop-color="#4297E7"/><stop offset="1" stop-color="#0069CC"/></radialGradient><radialGradient id="paint46_radial_669_17062" cx="0" cy="0" r="1" gradientUnits="userSpaceOnUse" gradientTransform="rotate(126.132 211.582 154.925) scale(693.212 744.674)"><stop stop-color="#4297E7"/><stop offset="1" stop-color="#0069CC"/></radialGradient><radialGradient id="paint47_radial_669_17062" cx="0" cy="0" r="1" gradientUnits="userSpaceOnUse" gradientTransform="rotate(126.132 211.583 154.926) scale(693.213 744.675)"><stop stop-color="#4297E7"/><stop offset="1" stop-color="#0069CC"/></radialGradient><radialGradient id="paint48_radial_669_17062" cx="0" cy="0" r="1" gradientUnits="userSpaceOnUse" gradientTransform="rotate(126.132 211.582 154.926) scale(693.212 744.674)"><stop stop-color="#4297E7"/><stop offset="1" stop-color="#0069CC"/></radialGradient><radialGradient id="paint49_radial_669_17062" cx="0" cy="0" r="1" gradientUnits="userSpaceOnUse" gradientTransform="rotate(126.132 211.582 154.926) scale(693.212 744.674)"><stop stop-color="#4297E7"/><stop offset="1" stop-color="#0069CC"/></radialGradient><radialGradient id="paint50_radial_669_17062" cx="0" cy="0" r="1" gradientUnits="userSpaceOnUse" gradientTransform="rotate(126.132 211.582 154.925) scale(693.212 744.674)"><stop stop-color="#4297E7"/><stop offset="1" stop-color="#0069CC"/></radialGradient><radialGradient id="paint51_radial_669_17062" cx="0" cy="0" r="1" gradientUnits="userSpaceOnUse" gradientTransform="rotate(126.132 211.583 154.926) scale(693.213 744.675)"><stop stop-color="#4297E7"/><stop offset="1" stop-color="#0069CC"/></radialGradient><radialGradient id="paint52_radial_669_17062" cx="0" cy="0" r="1" gradientUnits="userSpaceOnUse" gradientTransform="rotate(126.132 211.583 154.925) scale(693.213 744.675)"><stop stop-color="#4297E7"/><stop offset="1" stop-color="#0069CC"/></radialGradient><radialGradient id="paint53_radial_669_17062" cx="0" cy="0" r="1" gradientUnits="userSpaceOnUse" gradientTransform="rotate(126.132 211.582 154.925) scale(693.212 744.674)"><stop stop-color="#4297E7"/><stop offset="1" stop-color="#0069CC"/></radialGradient><radialGradient id="paint54_radial_669_17062" cx="0" cy="0" r="1" gradientUnits="userSpaceOnUse" gradientTransform="rotate(126.132 211.583 154.925) scale(693.212 744.674)"><stop stop-color="#4297E7"/><stop offset="1" stop-color="#0069CC"/></radialGradient><radialGradient id="paint55_radial_669_17062" cx="0" cy="0" r="1" gradientUnits="userSpaceOnUse" gradientTransform="rotate(126.132 211.583 154.925) scale(693.212 744.674)"><stop stop-color="#4297E7"/><stop offset="1" stop-color="#0069CC"/></radialGradient><radialGradient id="paint56_radial_669_17062" cx="0" cy="0" r="1" gradientUnits="userSpaceOnUse" gradientTransform="rotate(126.132 211.582 154.925) scale(693.212 744.674)"><stop stop-color="#4297E7"/><stop offset="1" stop-color="#0069CC"/></radialGradient><radialGradient id="paint57_radial_669_17062" cx="0" cy="0" r="1" gradientUnits="userSpaceOnUse" gradientTransform="rotate(126.132 211.583 154.926) scale(693.212 744.674)"><stop stop-color="#4297E7"/><stop offset="1" stop-color="#0069CC"/></radialGradient><radialGradient id="paint58_radial_669_17062" cx="0" cy="0" r="1" gradientUnits="userSpaceOnUse" gradientTransform="rotate(126.132 211.583 154.925) scale(693.212 744.675)"><stop stop-color="#4297E7"/><stop offset="1" stop-color="#0069CC"/></radialGradient><radialGradient id="paint59_radial_669_17062" cx="0" cy="0" r="1" gradientUnits="userSpaceOnUse" gradientTransform="rotate(126.132 211.582 154.925) scale(693.212 744.674)"><stop stop-color="#4297E7"/><stop offset="1" stop-color="#0069CC"/></radialGradient><radialGradient id="paint60_radial_669_17062" cx="0" cy="0" r="1" gradientUnits="userSpaceOnUse" gradientTransform="rotate(126.132 211.582 154.925) scale(693.212 744.674)"><stop stop-color="#4297E7"/><stop offset="1" stop-color="#0069CC"/></radialGradient><radialGradient id="paint61_radial_669_17062" cx="0" cy="0" r="1" gradientUnits="userSpaceOnUse" gradientTransform="rotate(126.132 211.582 154.925) scale(693.212 744.674)"><stop stop-color="#4297E7"/><stop offset="1" stop-color="#0069CC"/></radialGradient><radialGradient id="paint62_radial_669_17062" cx="0" cy="0" r="1" gradientUnits="userSpaceOnUse" gradientTransform="rotate(126.132 211.583 154.925) scale(693.212 744.674)"><stop stop-color="#4297E7"/><stop offset="1" stop-color="#0069CC"/></radialGradient><radialGradient id="paint63_radial_669_17062" cx="0" cy="0" r="1" gradientUnits="userSpaceOnUse" gradientTransform="rotate(126.132 211.583 154.925) scale(693.212 744.674)"><stop stop-color="#4297E7"/><stop offset="1" stop-color="#0069CC"/></radialGradient><radialGradient id="paint64_radial_669_17062" cx="0" cy="0" r="1" gradientUnits="userSpaceOnUse" gradientTransform="rotate(126.132 211.583 154.925) scale(693.213 744.675)"><stop stop-color="#4297E7"/><stop offset="1" stop-color="#0069CC"/></radialGradient><radialGradient id="paint65_radial_669_17062" cx="0" cy="0" r="1" gradientUnits="userSpaceOnUse" gradientTransform="rotate(126.132 211.582 154.925) scale(693.212 744.674)"><stop stop-color="#4297E7"/><stop offset="1" stop-color="#0069CC"/></radialGradient><radialGradient id="paint66_radial_669_17062" cx="0" cy="0" r="1" gradientUnits="userSpaceOnUse" gradientTransform="rotate(126.132 211.582 154.926) scale(693.212 744.675)"><stop stop-color="#4297E7"/><stop offset="1" stop-color="#0069CC"/></radialGradient><radialGradient id="paint67_radial_669_17062" cx="0" cy="0" r="1" gradientUnits="userSpaceOnUse" gradientTransform="rotate(126.132 211.582 154.925) scale(693.212 744.674)"><stop stop-color="#4297E7"/><stop offset="1" stop-color="#0069CC"/></radialGradient><radialGradient id="paint68_radial_669_17062" cx="0" cy="0" r="1" gradientUnits="userSpaceOnUse" gradientTransform="rotate(126.132 211.583 154.926) scale(693.213 744.675)"><stop stop-color="#4297E7"/><stop offset="1" stop-color="#0069CC"/></radialGradient><radialGradient id="paint69_radial_669_17062" cx="0" cy="0" r="1" gradientUnits="userSpaceOnUse" gradientTransform="rotate(126.132 211.583 154.925) scale(693.212 744.674)"><stop stop-color="#4297E7"/><stop offset="1" stop-color="#0069CC"/></radialGradient><radialGradient id="paint70_radial_669_17062" cx="0" cy="0" r="1" gradientUnits="userSpaceOnUse" gradientTransform="rotate(126.132 211.582 154.926) scale(693.212 744.674)"><stop stop-color="#4297E7"/><stop offset="1" stop-color="#0069CC"/></radialGradient><radialGradient id="paint71_radial_669_17062" cx="0" cy="0" r="1" gradientUnits="userSpaceOnUse" gradientTransform="rotate(126.132 211.582 154.925) scale(693.212 744.674)"><stop stop-color="#4297E7"/><stop offset="1" stop-color="#0069CC"/></radialGradient><radialGradient id="paint72_radial_669_17062" cx="0" cy="0" r="1" gradientUnits="userSpaceOnUse" gradientTransform="rotate(126.132 211.582 154.926) scale(693.212 744.674)"><stop stop-color="#4297E7"/><stop offset="1" stop-color="#0069CC"/></radialGradient><radialGradient id="paint73_radial_669_17062" cx="0" cy="0" r="1" gradientUnits="userSpaceOnUse" gradientTransform="rotate(126.132 211.582 154.926) scale(693.212 744.675)"><stop stop-color="#4297E7"/><stop offset="1" stop-color="#0069CC"/></radialGradient><filter id="filter0_d_669_17062" x="35.105" y="44.263" width="340.175" height="331.974" filterUnits="userSpaceOnUse" color-interpolation-filters="sRGB"><feFlood flood-opacity="0" result="BackgroundImageFix"/><feColorMatrix in="SourceAlpha" values="0 0 0 0 0 0 0 0 0 0 0 0 0 0 0 0 0 0 127 0" result="hardAlpha"/><feOffset dy="2.465"/><feGaussianBlur stdDeviation=".704"/><feComposite in2="hardAlpha" operator="out"/><feColorMatrix values="0 0 0 0 0.065625 0 0 0 0 0.419165 0 0 0 0 0.75 0 0 0 1 0"/><feBlend in2="BackgroundImageFix" result="effect1_dropShadow_669_17062"/><feBlend in="SourceGraphic" in2="effect1_dropShadow_669_17062" result="shape"/></filter></defs></svg>