<svg width="67" height="67" fill="none" xmlns="http://www.w3.org/2000/svg"><path d="M64.067 5.642a2.547 2.547 0 01-2.548-2.548c0-1.41 1.14-2.55 2.549-2.55s2.549 1.14 2.548 2.55a2.547 2.547 0 01-2.549 2.548zm2.549 12.696c0-1.41-1.14-2.549-2.55-2.549a2.547 2.547 0 00-2.548 2.55c0 1.408 1.14 2.548 2.549 2.548s2.549-1.14 2.549-2.55zm-.001 15.244a2.547 2.547 0 00-2.549-2.549 2.547 2.547 0 00-2.549 2.55 2.547 2.547 0 002.549 2.548c1.41 0 2.549-1.14 2.549-2.549zm0 15.245c0-1.41-1.14-2.549-2.55-2.549a2.547 2.547 0 00-2.549 2.55 2.547 2.547 0 002.55 2.548 2.547 2.547 0 002.548-2.55zm-.001 15.244a2.547 2.547 0 00-2.55-2.548 2.547 2.547 0 00-2.548 2.549 2.546 2.546 0 002.548 2.548c1.41 0 2.55-1.14 2.55-2.549zM51.371 3.094c0-1.41-1.14-2.549-2.549-2.549a2.547 2.547 0 00-2.549 2.55 2.547 2.547 0 002.549 2.548c1.41 0 2.549-1.14 2.549-2.549zm0 15.245c0-1.41-1.14-2.55-2.55-2.55a2.547 2.547 0 00-2.549 2.55 2.548 2.548 0 002.55 2.549 2.547 2.547 0 002.548-2.55zm-.002 15.244c0-1.41-1.14-2.549-2.548-2.549a2.547 2.547 0 00-2.55 2.55 2.547 2.547 0 002.55 2.548 2.547 2.547 0 002.548-2.549zm0 15.245c0-1.41-1.14-2.55-2.55-2.55a2.547 2.547 0 00-2.548 2.55c0 1.41 1.14 2.549 2.549 2.549s2.549-1.14 2.549-2.55zm-.001 15.244c0-1.41-1.14-2.549-2.549-2.549a2.547 2.547 0 00-2.549 2.55 2.547 2.547 0 002.549 2.548c1.41 0 2.549-1.14 2.549-2.549zM36.127 3.095c0-1.41-1.14-2.55-2.548-2.549a2.547 2.547 0 00-2.55 2.549c0 1.41 1.14 2.549 2.55 2.549a2.547 2.547 0 002.548-2.55zm0 15.244a2.546 2.546 0 00-2.55-2.548 2.547 2.547 0 00-2.548 2.549c0 1.409 1.14 2.548 2.549 2.548s2.549-1.14 2.549-2.549zm-.001 15.245c0-1.41-1.14-2.55-2.549-2.549a2.547 2.547 0 00-2.549 2.549c0 1.41 1.14 2.549 2.549 2.549 1.41 0 2.549-1.14 2.549-2.55zm0 15.244a2.548 2.548 0 00-2.55-2.549 2.547 2.547 0 00-2.549 2.55 2.547 2.547 0 002.55 2.548 2.547 2.547 0 002.548-2.549zm-.002 15.245c0-1.41-1.139-2.55-2.548-2.549a2.547 2.547 0 00-2.55 2.549c0 1.41 1.14 2.549 2.55 2.549a2.547 2.547 0 002.548-2.55zM20.883 3.096c0-1.41-1.14-2.55-2.549-2.55a2.547 2.547 0 00-2.549 2.55 2.547 2.547 0 002.549 2.549c1.41 0 2.549-1.14 2.549-2.55zm0 15.244c0-1.41-1.14-2.549-2.55-2.549a2.547 2.547 0 00-2.549 2.55 2.547 2.547 0 002.55 2.548 2.547 2.547 0 002.548-2.549zm-.002 15.244a2.546 2.546 0 00-2.548-2.548 2.547 2.547 0 00-2.55 2.549 2.548 2.548 0 002.55 2.549 2.548 2.548 0 002.549-2.55zm0 15.245c0-1.41-1.14-2.549-2.55-2.549a2.547 2.547 0 00-2.548 2.55 2.547 2.547 0 002.549 2.548 2.547 2.547 0 002.549-2.549zm-.001 15.244a2.547 2.547 0 00-2.549-2.548 2.547 2.547 0 00-2.549 2.549 2.547 2.547 0 002.549 2.549 2.547 2.547 0 002.549-2.55zM5.638 3.096A2.547 2.547 0 003.09.547a2.547 2.547 0 00-2.55 2.55 2.547 2.547 0 002.55 2.548 2.547 2.547 0 002.548-2.549zm0 15.245c0-1.41-1.14-2.55-2.55-2.55a2.547 2.547 0 00-2.548 2.55c0 1.41 1.14 2.549 2.549 2.549s2.549-1.14 2.549-2.55zm-.001 15.244a2.547 2.547 0 00-2.549-2.549 2.547 2.547 0 00-2.549 2.55 2.547 2.547 0 002.549 2.548 2.547 2.547 0 002.549-2.549zm0 15.245c0-1.41-1.14-2.55-2.55-2.55a2.547 2.547 0 00-2.549 2.55c0 1.41 1.14 2.549 2.55 2.549a2.547 2.547 0 002.548-2.55zm.005 15.238c0-1.41-1.14-2.549-2.55-2.549a2.547 2.547 0 00-2.548 2.55 2.547 2.547 0 002.549 2.548 2.547 2.547 0 002.549-2.549z" fill="#C1E4FF"/></svg>