<svg width="91" height="88" fill="none" xmlns="http://www.w3.org/2000/svg"><g fill-rule="evenodd" clip-rule="evenodd"><path d="M71.863 9.091c11.092 7.929 18.28 20.633 18.28 34.952v43.503h-9.855V44.043c0-8.369-3.223-16.05-8.425-22a34.72 34.72 0 00-13.635-9.484c-4.03-1.549-8.431-2.476-13.078-2.476-19.332 0-35.074 15.303-35.074 33.96 0 18.714 15.74 33.96 35.074 33.96 1.49 0 2.852-.063 4.28-.248v9.791h-4.28C20.424 87.546.224 68.026.224 44.043.224 20.121 20.424.6 45.15.6c4.586 0 8.986.618 13.077 1.859 4.958 1.486 9.544 3.72 13.635 6.632z" fill="#195CA1"/><path d="M76.512 44.044c0 5.824-1.737 11.215-4.65 15.863-3.222 5.081-7.994 9.11-13.633 11.65-3.965 1.8-8.366 2.79-13.079 2.79-17.227 0-31.295-13.635-31.295-30.303 0-16.672 14.068-30.244 31.295-30.244 4.713 0 9.114.99 13.078 2.787 5.64 2.478 10.412 6.571 13.634 11.655 2.913 4.583 4.65 10.037 4.65 15.802zm-4.65-7.5c-2.11-7.005-7.127-12.77-13.633-16.175-3.905-2.045-8.307-3.163-13.079-3.163-15.305 0-27.764 12.088-27.764 26.838 0 14.809 12.459 26.894 27.764 26.894 4.772 0 9.174-1.178 13.078-3.16 6.507-3.409 11.523-9.234 13.634-16.176.682-2.416 1.117-4.96 1.117-7.558 0-2.605-.435-5.084-1.117-7.5zm5.018 22.063v28.94H66.843V70.748c1.797-1.36 3.47-2.971 5.02-4.643a36.003 36.003 0 005.017-7.499zM63.06 73.231v14.316h-9.663V77.073a55.49 55.49 0 004.831-1.486 43.794 43.794 0 004.833-2.356z" fill="#195CA1"/><path d="M27.737 26.687h35.138v35.14H51.597v-5.639c4.586-2.23 7.747-6.817 7.747-12.085 0-7.436-6.258-13.508-13.942-13.508-7.687 0-14.009 6.072-14.009 13.508 0 5.394 3.346 10.103 8.178 12.271v5.453H27.738v-35.14z" fill="#195CA1"/><path d="M45.462 33.136l2.356 8.796 8.798 2.36-8.798 2.35-2.356 8.742-2.357-8.742-8.737-2.35 8.737-2.36 2.357-8.796z" fill="#195CA1"/><path d="M49.118 37.845a7.647 7.647 0 012.724 2.541l3.782 1.053c-.93-3.53-3.842-6.32-7.495-7.25l.99 3.656zm2.79 9.73c-.622 1.178-1.611 2.105-2.853 2.79l-.926 3.653c3.713-.927 6.629-3.843 7.558-7.436l-3.78.993zm-9.98 2.912c-1.302-.62-2.417-1.671-3.158-2.975l-3.72-.99c.93 3.72 3.965 6.633 7.87 7.559l-.993-3.594zm-3.036-9.978c.68-1.24 1.734-2.167 3.035-2.85l.932-3.534c-3.781.871-6.816 3.72-7.746 7.377l3.78-.993z" fill="#195CA1"/><path d="M45.478 39.208l1.07 3.995 3.996 1.071-3.996 1.067-1.07 3.97-1.07-3.97-3.968-1.067 3.968-1.072 1.07-3.994z" fill="#FEFEFE"/></g></svg>