<svg width="184" height="43" fill="none" xmlns="http://www.w3.org/2000/svg"><g clip-path="url(#clip0_479_795)"><path fill-rule="evenodd" clip-rule="evenodd" d="M34.736 3.173L19.038 29.165c-1.813 2.9-5.723.511-4.194-2.047l15.7-25.992c1.246-2.275 5.892-.854 4.193 2.047zm7.309.171l-19.55 32.191c-1.53 2.616-5.44.682-4.024-1.99L37.794 1.296c1.473-2.332 5.894-.741 4.25 2.047zm6.801.568l-22.554 37.82c-1.474 2.676-5.725.685-4.138-1.988L44.82 1.865c1.475-2.788 6.235-1.65 4.025 2.047z" fill="#1668A5"/><path fill-rule="evenodd" clip-rule="evenodd" d="M16.829 1.582L21.7 9.884c.567.681.453 1.478-.226 2.73l-6.064 10.01c-.679 1.08-3.852 1.08-4.476-.114L.28 3.456C-.74 1.752 1.188.102 3.453.102h10.824c1.134 0 1.985.568 2.552 1.48z" fill="#E63A33"/><path d="M145.579 40.425l-2.38-5.346v5.802h-5.668V26.775h6.914l.227.456 3.004 6.768 3.059-6.768.227-.456h6.914V40.88h-5.666v-5.802l-2.38 5.346-.227.456h-3.797l-.227-.456zm-2.494-9.269l3.74 8.132h1.757l3.74-8.132 1.475.341v7.79h2.492V28.369h-4.305l-3.572 7.906-.736 1.593-.681-1.593-3.569-7.906h-4.308v10.92h2.494v-7.791l1.473-.34zm-21.648-.911h10.03v7.28h-10.821v-7.28h.791zm8.444 1.593h-7.651v4.15h7.651v-4.149zm-8.954-4.892h10.259c.963 0 1.983.513 2.719 1.195.736.739 1.246 1.706 1.246 2.673v6.2c0 .91-.51 1.876-1.303 2.615-.736.684-1.699 1.137-2.662 1.137h-10.259c-1.02 0-2.039-.453-2.776-1.137-.736-.682-1.246-1.648-1.246-2.615v-6.2c0-1.023.51-1.99 1.246-2.673.737-.74 1.756-1.195 2.776-1.195zm10.259 1.593h-10.259c-.622 0-1.246.285-1.699.74-.453.398-.736.966-.736 1.535v6.2c0 .51.283 1.024.736 1.478.453.455 1.077.74 1.699.74h10.259c.565 0 1.132-.342 1.585-.74.455-.454.793-.967.793-1.478v-6.2c0-.569-.283-1.08-.793-1.536-.453-.454-1.02-.739-1.585-.739zm-46.583 2.39v10.01h-6.006V26.946H95.37V40.94h-5.95V30.93h-4.818zm-1.587 8.417v-9.954h7.991v9.954h2.776V28.539h-13.6v10.807h2.833zm29.186-3.242h-8.954v4.777h-5.043v-8.93h12.41v-.74h-12.41v-4.436h13.997c1.699 0 2.833 1.253 3.286 2.844a6.72 6.72 0 01.226 1.82c0 .627-.057 1.25-.226 1.821-.453 1.592-1.587 2.844-3.286 2.844zm-9.747-1.593h9.747c.906 0 1.473-.74 1.756-1.706.112-.398.226-.91.226-1.366 0-.455-.114-.967-.226-1.364-.283-.967-.85-1.706-1.756-1.706h-12.41v1.25h12.41v3.925H99.791v5.744h1.871V34.51h.793zm-4.76-12.568h-3.629l4.081-10.125c.453-.967.906-1.706 1.473-2.22.624-.51 1.36-.796 2.437-.907 1.077.055 1.871.397 2.55.908.624.57 1.134 1.31 1.531 2.22l4.022 10.009v.056h-3.626l-3.797-9.44h-1.132l-3.91 9.499zm38.533-9.67h-.848l-4.365 9.67v.055h-3.796l.055-.055 4.648-10.01c.396-.967.849-1.708 1.416-2.274.624-.514 1.36-.857 2.38-.968 1.077.111 1.927.454 2.607.967.624.567 1.134 1.308 1.586 2.275l4.194 10.01.057.055h-3.853v-.055l-4.081-9.67z" fill="#1668A5"/><path d="M131.922 15.8h8.161v2.5h-8.048c-.057-.055-.057-.055-.113-.055V15.8zm28.391-3.413l-5.952 6.484-.169.226c-1.189 1.308-2.323 2.56-3.683 2.846-.227.055-.396.055-.567.055-.737 0-1.361-.285-1.926-.74-.51-.453-.85-1.079-1.021-1.82-.056-.225-.056-.453-.056-.681V8.746h3.513v.056l.057 9.614h.114l6.006-6.428c.227-.226.453-.51.68-.739 1.134-1.137 2.325-2.387 3.116-2.503 1.587-.227 2.437.17 2.89.797.455.626.512 1.593.512 2.502v9.898h-3.457v-9.556h-.057zm-9.18-6.827h7.593c0 .742-.057 1.367-.398 1.821-.338.513-.962.796-1.925.796h-3.116c-.739 0-1.304-.283-1.644-.683-.398-.453-.567-1.137-.567-1.933h.057zM68.51 21.943H54.625V8.746h13.771c.793 0 1.699.398 2.323 1.023a3 3 0 01.963 2.22v1.818c0 .4-.227.683-.51.911a2.37 2.37 0 01-1.246.627v.112c.395.058.85.343 1.19.627.34.283.566.624.566.966v1.706c0 .682-.453 1.536-1.077 2.16-.622.57-1.416 1.027-2.097 1.027zm-.227-5.406h-10.2v2.334h10.2v-2.334zm0-4.662h-10.2v2.275h10.2v-2.275zm58.653-3.073H110.67v2.96h6.29v10.122h3.572V11.762h6.404v-2.96zm44.201 8.248h10.03c1.361 0 2.209-1.024 2.607-2.332.112-.51.226-1.022.226-1.592 0-.57-.114-1.138-.226-1.649-.398-1.308-1.246-2.332-2.607-2.332h-13.544v2.9h12.808v2.445h-12.808v7.453h3.514V17.05zM88.684 8.802H78.201c-.793 0-1.644.4-2.21 1.027-.625.624-1.02 1.42-1.02 2.216v6.712c0 .739.395 1.536 1.02 2.16.623.57 1.416.966 2.21.966h10.483c.736 0 1.53-.396 2.154-1.022.565-.568 1.02-1.365 1.02-2.104v-6.711c0-.796-.398-1.593-1.02-2.217-.624-.57-1.418-1.027-2.154-1.027zM78.427 12.33h9.916v6.087h-9.916V12.33z" fill="#1668A5"/><path d="M88.344 12.33h-9.917v6.086h9.916v-6.087z" stroke="#1668A5" stroke-width=".028" stroke-miterlimit="10" stroke-linecap="round" stroke-linejoin="round"/><path d="M145.579 40.425l-2.38-5.346v5.802h-5.668V26.775h6.914l.227.456 3.004 6.768 3.059-6.768.227-.456h6.914V40.88h-5.666v-5.802l-2.38 5.346-.227.456h-3.797l-.227-.456zm-2.494-9.269l3.74 8.132h1.757l3.74-8.132 1.475.341v7.79h2.492V28.369h-4.305l-3.572 7.906-.736 1.593-.681-1.593-3.569-7.906h-4.308v10.92h2.494v-7.791l1.473-.34zm-21.648-.911h10.03v7.28h-10.821v-7.28h.791zm8.444 1.593h-7.651v4.15h7.651v-4.149zm-8.954-4.892h10.259c.963 0 1.983.513 2.719 1.195.736.739 1.246 1.706 1.246 2.673v6.2c0 .91-.51 1.876-1.303 2.615-.736.684-1.699 1.137-2.662 1.137h-10.259c-1.02 0-2.039-.453-2.776-1.137-.736-.682-1.246-1.648-1.246-2.615v-6.2c0-1.023.51-1.99 1.246-2.673.737-.74 1.756-1.195 2.776-1.195zm10.259 1.593h-10.259c-.622 0-1.246.285-1.699.74-.453.398-.736.966-.736 1.535v6.2c0 .51.283 1.024.736 1.478.453.455 1.077.74 1.699.74h10.259c.565 0 1.132-.342 1.585-.74.455-.454.793-.967.793-1.478v-6.2c0-.569-.283-1.08-.793-1.536-.453-.454-1.02-.739-1.585-.739zm-46.583 2.39v10.01h-6.006V26.946H95.37V40.94h-5.95V30.93h-4.818zm-1.587 8.417v-9.954h7.991v9.954h2.776V28.539h-13.6v10.807h2.833zm29.186-3.242h-8.954v4.777h-5.043v-8.93h12.41v-.74h-12.41v-4.436h13.997c1.699 0 2.833 1.253 3.286 2.844a6.72 6.72 0 01.226 1.82c0 .627-.057 1.25-.226 1.821-.453 1.592-1.587 2.844-3.286 2.844zm-9.747-1.593h9.747c.906 0 1.473-.74 1.756-1.706.112-.398.226-.91.226-1.366 0-.455-.114-.967-.226-1.364-.283-.967-.85-1.706-1.756-1.706h-12.41v1.25h12.41v3.925H99.791v5.744h1.871V34.51h.793zm-4.76-12.568h-3.629l4.081-10.125c.453-.967.906-1.706 1.473-2.22.624-.51 1.36-.796 2.437-.907 1.077.055 1.871.397 2.55.908.624.57 1.134 1.31 1.531 2.22l4.022 10.009v.056h-3.626l-3.797-9.44h-1.132l-3.91 9.499zm62.618-9.556l-5.952 6.484-.169.226c-1.189 1.308-2.323 2.56-3.683 2.846-.227.055-.396.055-.567.055-.737 0-1.361-.285-1.926-.74-.51-.453-.85-1.079-1.021-1.82-.056-.225-.056-.453-.056-.681V8.746h3.513v.056l.057 9.614h.114l6.006-6.428c.227-.226.453-.51.68-.739 1.134-1.137 2.325-2.387 3.116-2.503 1.587-.227 2.437.17 2.89.797.455.626.512 1.593.512 2.502v9.898h-3.457v-9.556h-.057zm-9.18-6.827h7.593c0 .742-.057 1.367-.398 1.821-.338.513-.962.796-1.925.796h-3.116c-.739 0-1.304-.283-1.644-.683-.398-.453-.567-1.137-.567-1.933h.057zM68.51 21.943H54.625V8.746h13.771c.793 0 1.699.398 2.323 1.023a3 3 0 01.963 2.22v1.818c0 .4-.227.683-.51.911a2.37 2.37 0 01-1.246.627v.112c.395.058.85.343 1.19.627.34.283.566.624.566.966v1.706c0 .682-.453 1.536-1.077 2.16-.622.57-1.416 1.027-2.097 1.027zm-.227-5.406h-10.2v2.334h10.2v-2.334zm0-4.662h-10.2v2.275h10.2v-2.275zm58.653-3.073H110.67v2.96h6.29v10.122h3.572V11.762h6.404v-2.96zm44.201 8.248h10.03c1.361 0 2.209-1.024 2.607-2.332.112-.51.226-1.022.226-1.592 0-.57-.114-1.138-.226-1.649-.398-1.308-1.246-2.332-2.607-2.332h-13.544v2.9h12.808v2.445h-12.808v7.453h3.514V17.05z" fill="#1668A5"/></g><defs><clipPath id="clip0_479_795"><path fill="#fff" d="M0 0h184v43H0z"/></clipPath></defs></svg>