<svg width="125" height="16" fill="none" xmlns="http://www.w3.org/2000/svg"><g clip-path="url(#clip0_479_834)"><mask id="a" style="mask-type:luminance" maskUnits="userSpaceOnUse" x="0" y="0" width="125" height="16"><path d="M124.515 0H.934v15.79h123.581V0z" fill="#fff"/></mask><g fill="#0B1F33" mask="url(#a)"><path fill-rule="evenodd" clip-rule="evenodd" d="M124.197 0h-3.414a.671.671 0 00-.43.168l-6.308 5.8-6.288-5.8a.734.734 0 00-.43-.168h-3.404c-.246 0-.297.137-.113.294l8.21 7.554-8.312 7.649c-.174.168-.123.294.112.294h3.405a.672.672 0 00.43-.168l6.41-5.894 6.411 5.894a.707.707 0 00.429.168h3.395c.245 0 .296-.137.112-.294L116.1 7.848l8.22-7.554c.174-.168.123-.294-.112-.294h-.011z"/><path d="M16.147 0H1.148a.215.215 0 00-.153.074.21.21 0 00-.061.147v15.35c0 .052.02.115.06.146a.209.209 0 00.154.063h2.955a.222.222 0 00.153-.063.21.21 0 00.062-.147V3.194c0-.053.02-.116.061-.147a.205.205 0 01.154-.063h11.614a.21.21 0 00.215-.21V.22c0-.053-.02-.116-.061-.147a.205.205 0 00-.154-.063V0zm41.685 2.974a.222.222 0 00.153-.064.21.21 0 00.062-.147V.221c0-.053-.021-.116-.062-.147a.205.205 0 00-.153-.063h-9.458c-2.075 0-4.069.83-5.531 2.3a7.907 7.907 0 00-2.29 5.58 7.95 7.95 0 002.29 5.578 7.79 7.79 0 005.531 2.312h9.458a.235.235 0 00.153-.074.21.21 0 00.062-.147v-2.543c0-.052-.021-.115-.062-.147a.205.205 0 00-.153-.063h-9.038a4.899 4.899 0 01-4.816-4.906c0-1.292.5-2.532 1.41-3.446a4.844 4.844 0 013.406-1.45h9.038v-.031zm39.527 6.513A4.674 4.674 0 00100.67 8.1a4.718 4.718 0 001.37-3.34v-.032c0-1.25-.49-2.448-1.37-3.341A4.674 4.674 0 0097.359 0h-6.554a7.77 7.77 0 00-5.531 2.311 7.907 7.907 0 00-2.29 5.58 7.95 7.95 0 002.29 5.578 7.772 7.772 0 005.531 2.311h9.989a.22.22 0 00.153-.063.21.21 0 00.062-.147v-2.563c0-.053-.021-.116-.062-.147a.204.204 0 00-.153-.063h-9.57a4.887 4.887 0 01-2.73-.851 4.846 4.846 0 01-1.789-2.249c-.01-.02-.02-.042-.01-.073 0-.021 0-.053.02-.074.01-.02.03-.042.051-.042.02 0 .051-.01.072-.01h10.52v-.01zM86.623 6.304a4.846 4.846 0 011.78-2.396 4.873 4.873 0 012.821-.914h5.838c1.012 0 1.83.736 1.83 1.755v.031c0 1.02-.818 1.734-1.83 1.734H86.766s-.05 0-.071-.01c-.02 0-.041-.032-.061-.043a.508.508 0 01-.031-.073c-.01-.032 0-.053.01-.074l.01-.01zM35.461 2.311l-2.096 1.923s-.04.042-.051.063a.203.203 0 00-.02.084c0 .032 0 .053.01.084 0 .021.02.053.04.074a4.946 4.946 0 011.258 2.51 4.94 4.94 0 01-.327 2.795 4.871 4.871 0 01-1.8 2.154 4.77 4.77 0 01-2.668.799h-4.1a4.843 4.843 0 01-3.405-1.45 4.919 4.919 0 01-1.41-3.446c0-1.293.5-2.532 1.41-3.446a4.844 4.844 0 013.405-1.45h4.1c.184 0 .358 0 .542.031a.572.572 0 00.368-.115L33.058.767s.031-.032.041-.053c0-.02.01-.042 0-.073 0-.021-.02-.042-.03-.063-.02-.021-.041-.032-.062-.032A7.043 7.043 0 0030.247 0h-4.949c-2.065 0-4.059.83-5.531 2.311a7.907 7.907 0 00-2.29 5.58 7.95 7.95 0 002.29 5.578 7.772 7.772 0 005.531 2.311h4.949a7.856 7.856 0 004.355-1.323 7.857 7.857 0 002.884-3.541 7.927 7.927 0 00-1.707-8.594.205.205 0 00-.154-.063.205.205 0 00-.154.063l-.01-.01zm25.601.673h8.139c.051 0 .112.02.153.063a.21.21 0 01.062.147V15.57c0 .053.02.116.06.147a.209.209 0 00.154.063h2.965a.222.222 0 00.154-.063.21.21 0 00.061-.147V0H61.073a.222.222 0 00-.154.063.21.21 0 00-.061.147v2.564c0 .052.02.115.061.147a.206.206 0 00.154.063h-.01zM81.143 0h-5.552a.217.217 0 00-.215.21v2.564c0 .115.093.21.215.21h5.552a.217.217 0 00.215-.21V.21a.21.21 0 00-.215-.21z"/></g></g><defs><clipPath id="clip0_479_834"><path fill="#fff" d="M0 0h125v16H0z"/></clipPath></defs></svg>