<svg width="23" height="24" viewBox="0 0 23 24" fill="none" xmlns="http://www.w3.org/2000/svg">
<g clip-path="url(#clip0_301_1935)">
<path d="M6.9 19.2C5.635 19.2 4.6 20.28 4.6 21.6C4.6 22.92 5.635 24 6.9 24C8.165 24 9.2 22.92 9.2 21.6C9.2 20.28 8.165 19.2 6.9 19.2ZM0 0V2.4H2.3L6.44 11.52L4.83 14.4C4.715 14.76 4.6 15.24 4.6 15.6C4.6 16.92 5.635 18 6.9 18H20.7V15.6H7.36C7.245 15.6 7.13 15.48 7.13 15.36V15.24L8.165 13.2H16.675C17.595 13.2 18.285 12.72 18.63 12L22.77 4.2C23 3.96 23 3.84 23 3.6C23 2.88 22.54 2.4 21.85 2.4H4.83L3.795 0H0ZM18.4 19.2C17.135 19.2 16.1 20.28 16.1 21.6C16.1 22.92 17.135 24 18.4 24C19.665 24 20.7 22.92 20.7 21.6C20.7 20.28 19.665 19.2 18.4 19.2Z" fill="white"/>
</g>
<defs>
<clipPath id="clip0_301_1935">
<rect width="23" height="24" fill="white"/>
</clipPath>
</defs>
</svg>
