<svg width="38" height="41" viewBox="0 0 38 41" fill="none" xmlns="http://www.w3.org/2000/svg">
<path fill-rule="evenodd" clip-rule="evenodd" d="M4.02105 0.146424C3.65426 0.380813 0.128543 4.01469 0.068596 4.22001C-0.0640305 4.67414 0.0765045 4.86897 1.83592 6.67033C3.81377 8.69544 4.03727 8.88282 4.47398 8.88282C5.00132 8.88282 5.42079 8.31586 5.28856 7.78174C5.2559 7.64977 4.80321 7.12117 4.1593 6.46309L3.08444 5.36465L7.42798 5.34199C12.1851 5.31717 11.9859 5.33815 12.2538 4.83453C12.5243 4.3258 12.2149 3.73706 11.6012 3.59284C11.4338 3.55352 9.4468 3.52053 7.18558 3.51949L3.07424 3.51756L4.11248 2.45653C4.68348 1.87291 5.19018 1.31677 5.23834 1.2206C5.43922 0.819643 5.23407 0.287682 4.80922 0.107906C4.45342 -0.0425615 4.30537 -0.0353544 4.02105 0.146424ZM30.4209 0.150267C30.1126 0.340614 30.0007 0.539689 30.0007 0.897719C30.0007 1.25439 30.2472 1.58479 31.2986 2.6367L32.139 3.47753L27.8471 3.51756C23.9161 3.55424 23.5379 3.56946 23.3499 3.69886C22.9632 3.96496 22.8446 4.54289 23.0968 4.93271C23.371 5.35641 23.405 5.35937 27.9977 5.35937H32.2476L31.1241 6.50665C30.031 7.62303 30.0007 7.66322 30.0007 7.99611C30.0007 8.27847 30.0476 8.38585 30.2695 8.61055C30.4913 8.83509 30.5976 8.88282 30.8757 8.88282C31.2103 8.88282 31.2286 8.86712 33.1467 6.94092C34.2101 5.87283 35.1281 4.88675 35.1865 4.74957C35.396 4.25717 35.2814 4.09677 33.2643 2.0599C31.1332 -0.0920498 30.9801 -0.194951 30.4209 0.150267ZM16.7143 5.48773C15.5902 5.79227 14.6577 6.73039 14.2548 7.96192C14.1719 8.21537 14.1412 9.92456 14.1075 16.1448L14.0649 24.0074L12.6414 22.9237C10.5666 21.3443 10.1556 21.1069 9.13797 20.8998C7.37673 20.5414 5.2211 21.5073 4.55132 22.9548C4.3748 23.3364 4.33755 23.5288 4.33755 24.0577C4.33755 25.2811 3.91967 24.7906 11.4384 32.3946C15.5125 36.5148 18.3008 39.2735 18.62 39.4998C19.6085 40.2007 20.7151 40.6637 21.903 40.8734C22.8566 41.0418 27.5607 41.0423 28.6957 40.8741C29.9258 40.6919 30.8416 40.3958 31.8132 39.8658C34.2314 38.547 35.9897 36.3158 36.6854 33.6834C37.0095 32.4573 37.054 31.4271 37.023 25.8594C36.9964 21.073 36.9836 20.6659 36.8483 20.3054C36.6055 19.6585 36.3473 19.2551 35.905 18.8316C35.1373 18.0964 34.3389 17.8064 33.2609 17.871C32.6356 17.9085 32.1566 18.0561 31.577 18.3899C31.5522 18.4041 31.4455 18.2271 31.3397 17.9965C31.2339 17.7658 30.9517 17.3748 30.7124 17.1275C29.6748 16.0551 28.1099 15.7634 26.7367 16.3866C26.4857 16.5005 26.2677 16.5795 26.2522 16.562C26.2367 16.5446 26.144 16.3697 26.0462 16.1736C25.7744 15.628 25.0819 14.9423 24.5208 14.6632C23.5498 14.18 22.363 14.1425 21.5376 14.5688C21.3676 14.6566 21.2093 14.7285 21.1858 14.7285C21.1623 14.7285 21.1431 13.2747 21.1431 11.4979C21.1431 8.50589 21.1317 8.23378 20.9892 7.81441C20.3729 6.00048 18.528 4.99637 16.7143 5.48773ZM18.4232 7.30511C18.7605 7.48169 19.0886 7.83571 19.2546 8.20215C19.3917 8.50493 19.3998 8.90156 19.4015 15.4318C19.4034 22.866 19.3951 22.7135 19.8079 23.0062C20.1725 23.2648 20.8509 23.1097 21.0449 22.7232C21.1099 22.5935 21.1458 21.7506 21.1617 19.9737C21.187 17.1435 21.1954 17.0901 21.7028 16.5765C22.0466 16.2283 22.4298 16.0688 22.9225 16.0688C23.622 16.0688 24.1645 16.3944 24.4921 17.0108C24.6541 17.3155 24.6643 17.4614 24.7019 20.0004L24.7415 22.6697L24.9998 22.9033C25.378 23.2453 25.811 23.2309 26.1729 22.8645L26.4418 22.5922L26.4423 21.0427C26.4425 20.1888 26.481 19.3494 26.5279 19.1729C26.8081 18.1191 27.9671 17.5564 28.9374 18.0026C29.3892 18.2104 29.8143 18.7411 29.9169 19.2257C29.9629 19.4432 30.0007 20.2897 30.0007 21.1067V22.5922L30.2695 22.8645C30.4829 23.0806 30.6018 23.1368 30.8451 23.1368C31.4878 23.1368 31.7397 22.7387 31.7423 21.7194C31.7435 21.2086 31.784 20.9266 31.8891 20.6944C32.3882 19.5928 33.7177 19.2755 34.6329 20.0394C35.2435 20.549 35.2166 20.2515 35.2186 26.5235C35.2205 32.5067 35.2146 32.6101 34.8085 33.8272C34.178 35.717 32.6496 37.4568 30.8311 38.355C29.3356 39.0936 28.4604 39.2309 25.2414 39.2319C22.859 39.2326 22.1277 39.1652 21.2222 38.8616C19.9116 38.4222 20.0781 38.573 12.8903 31.3147C8.84448 27.2294 6.2141 24.514 6.14434 24.3511C5.99297 23.9977 6.11065 23.6296 6.47974 23.3014C7.33324 22.5426 8.61885 22.393 9.62608 22.9353C9.81858 23.0389 11.0258 23.9211 12.3088 24.8956C14.7299 26.7346 14.9549 26.8634 15.3622 26.643C15.4668 26.5864 15.6269 26.4384 15.7181 26.314C15.8835 26.0885 15.884 26.0684 15.9234 17.1851L15.963 8.28223L16.2183 7.90987C16.5813 7.38079 17.1527 7.09579 17.7494 7.14624C17.9924 7.16682 18.2957 7.23825 18.4232 7.30511Z" fill="#66B8B1"/>
</svg>
