<svg width="24" height="15" viewBox="0 0 24 15" fill="none" xmlns="http://www.w3.org/2000/svg">
<path d="M22.1777 14.2946H19.7019C18.7652 14.2946 18.4835 13.5361 16.8035 11.8562C15.3374 10.4426 14.7181 10.2662 14.3464 10.2662C13.834 10.2662 13.6931 10.407 13.6931 11.1146V13.341C13.6931 13.9434 13.498 14.2963 11.9249 14.2963C10.3983 14.1937 8.9179 13.7299 7.60563 12.9431C6.29337 12.1563 5.18681 11.0689 4.3771 9.77067C2.4548 7.37803 1.11725 4.56988 0.470825 1.56953C0.470825 1.1979 0.611668 0.861916 1.31928 0.861916H3.79337C4.42971 0.861916 4.65879 1.1453 4.90823 1.79861C6.10964 5.33496 8.15951 8.40975 8.99099 8.40975C9.31001 8.40975 9.44916 8.26891 9.44916 7.47306V3.8315C9.34395 2.17023 8.46156 2.02939 8.46156 1.42868C8.47289 1.27024 8.5455 1.12244 8.66398 1.01664C8.78246 0.91083 8.93749 0.855333 9.0962 0.861916H12.9855C13.5166 0.861916 13.6931 1.12663 13.6931 1.76297V6.67721C13.6931 7.20835 13.9222 7.38482 14.0817 7.38482C14.4007 7.38482 14.6468 7.20835 15.2305 6.62461C16.4843 5.09561 17.5087 3.39213 18.2714 1.56783C18.3493 1.3487 18.4968 1.16109 18.6914 1.03363C18.886 0.906173 19.1169 0.845867 19.3489 0.861916H21.8247C22.5662 0.861916 22.7241 1.23354 22.5662 1.76297C21.666 3.77963 20.5521 5.69393 19.2437 7.47306C18.9773 7.88032 18.8704 8.09243 19.2437 8.56926C19.4898 8.94089 20.3569 9.66546 20.9406 10.3544C21.7889 11.2006 22.4933 12.1795 23.0261 13.2527C23.2382 13.9417 22.8836 14.2946 22.1777 14.2946Z" fill="white"/>
</svg>
