<svg width="22" height="21" viewBox="0 0 22 21" fill="none" xmlns="http://www.w3.org/2000/svg">
<path fill-rule="evenodd" clip-rule="evenodd" d="M10.2013 0.273279C8.63973 0.425253 7.46218 0.762237 6.18502 1.42251C4.23528 2.43056 2.6609 4.03462 1.68747 6.00495C1.31349 6.76196 1.13723 7.22596 0.941771 7.96834C0.695349 8.90401 0.623602 9.47285 0.621378 10.508C0.620286 11.0234 0.641559 11.5828 0.670557 11.8004C0.891055 13.4552 1.41075 14.8812 2.27992 16.2164L2.56962 16.6614L1.92608 18.5585C1.57212 19.6018 1.28813 20.4611 1.29496 20.468C1.30184 20.4748 2.1871 20.1994 3.26225 19.8559C4.33744 19.5125 5.23148 19.2315 5.24908 19.2315C5.26667 19.2315 5.43265 19.3256 5.61792 19.4406C5.80319 19.5556 6.19137 19.7627 6.48054 19.9009C9.09536 21.1506 12.0845 21.2576 14.7619 20.1973C17.7955 18.9959 20.1256 16.3678 20.9573 13.2093C21.212 12.2419 21.2767 11.7115 21.2767 10.5888C21.2767 9.46607 21.212 8.93575 20.9573 7.96834C19.9816 4.26301 17.0076 1.38281 13.2548 0.508853C12.6243 0.362008 11.9682 0.287616 11.172 0.272714C10.7271 0.264354 10.2903 0.264596 10.2013 0.273279ZM7.73473 5.06565C7.8017 5.10034 7.89553 5.19868 7.94329 5.28414C8.06386 5.49996 9.04708 7.86471 9.07571 8.00776C9.11235 8.19075 8.93315 8.50184 8.53114 8.9532C8.11162 9.42415 8.02147 9.57535 8.0588 9.74518C8.12662 10.0534 9.06196 11.2921 9.63824 11.8368C10.5325 12.6821 11.8841 13.4848 12.4864 13.5281C12.7961 13.5505 12.909 13.4629 13.3827 12.8333C13.5975 12.5477 13.8267 12.2607 13.892 12.1955C14.0479 12.0398 14.2795 12.0068 14.5392 12.1033C14.8723 12.2271 16.9088 13.2174 17.0518 13.3251L17.1887 13.4283L17.1661 13.8562C17.1081 14.9548 16.7222 15.5252 15.7016 16.0212C14.7313 16.4928 13.9718 16.4799 12.4849 15.9667C10.49 15.2781 9.43109 14.6204 7.99627 13.1786C7.27832 12.4572 6.76813 11.8473 6.18457 11.0129C5.22299 9.63783 4.85423 8.57607 4.96399 7.49844C5.05199 6.63442 5.35435 5.99659 5.965 5.38684C6.2604 5.09182 6.64696 4.97038 7.22874 4.98976C7.47557 4.99796 7.65651 5.0251 7.73473 5.06565Z" fill="white"/>
</svg>
