<svg width="21" height="19" viewBox="0 0 21 19" fill="none" xmlns="http://www.w3.org/2000/svg">
<path fill-rule="evenodd" clip-rule="evenodd" d="M17.7293 16.9484L17.7299 16.9467L17.7473 16.9018L20.7331 1.32505V1.27446C20.7331 0.88635 20.5945 0.547534 20.293 0.344303C20.029 0.166414 19.7255 0.153745 19.5128 0.170457C19.2877 0.188131 19.0755 0.246254 18.9286 0.294636C18.853 0.319527 18.7898 0.343511 18.7446 0.36165C18.7219 0.370754 18.7035 0.37848 18.6901 0.384236L18.6769 0.389961L2.0293 7.14747L2.02472 7.14917C2.01572 7.15255 2.00383 7.15714 1.98947 7.16293C1.96084 7.17446 1.92187 7.19096 1.87609 7.21243C1.7862 7.25459 1.662 7.31964 1.53605 7.40889C1.32212 7.56048 0.914773 7.91935 0.983556 8.48829C1.04053 8.95955 1.35447 9.25884 1.56612 9.4138C1.67958 9.49687 1.78812 9.55676 1.86761 9.59592C1.90788 9.61576 1.94209 9.63095 1.96756 9.64169C1.98034 9.64707 1.99102 9.65137 1.99928 9.65462L2.00986 9.6587L2.01662 9.6613L4.92923 10.6759C4.9194 10.865 4.93753 11.0578 4.98599 11.248L6.44495 16.9747C6.61794 17.6537 7.21159 18.1267 7.89021 18.1262C8.49851 18.1257 9.03799 17.745 9.26719 17.1769L11.545 14.6567L15.457 17.7601L15.5126 17.7853C15.8681 17.9458 16.2001 17.9966 16.5037 17.9537C16.8069 17.9108 17.0478 17.7793 17.2288 17.6295C17.4069 17.482 17.529 17.3156 17.6057 17.1904C17.6447 17.1267 17.6738 17.0708 17.6939 17.0287C17.7041 17.0075 17.7121 16.9896 17.718 16.9757L17.7255 16.9578L17.7282 16.9511L17.7293 16.9484ZM6.43013 10.8541C6.39697 10.7239 6.44903 10.5865 6.55884 10.5144L16.438 4.02272C16.438 4.02272 17.0191 3.65769 16.9983 4.02272C16.9983 4.02272 17.102 4.08718 16.7906 4.38774C16.4953 4.6732 9.7495 11.4123 9.06692 12.0942C9.02752 12.1336 9.004 12.1787 8.99012 12.2335L7.88909 16.5808L6.43013 10.8541Z" fill="white"/>
</svg>
