<svg width="183" height="60" viewBox="0 0 183 60" fill="none" xmlns="http://www.w3.org/2000/svg">
<path fill-rule="evenodd" clip-rule="evenodd" d="M29.9236 59.6855C46.1231 59.6855 59.4918 46.4822 59.521 30.2516C59.5708 24.3695 57.8765 18.6052 54.6534 13.6903C51.4303 8.77539 46.8236 4.9314 41.4179 2.64619C36.0122 0.360983 30.0513 -0.262412 24.2917 0.855122C18.532 1.97266 13.2333 4.78074 9.06809 8.92298C4.90283 13.0652 2.05879 18.3549 0.896904 24.1206C-0.264983 29.8864 0.307672 35.8683 2.54219 41.3071C4.77671 46.746 8.57235 51.3966 13.4474 54.6687C18.3224 57.9408 24.0571 59.687 29.9236 59.6855ZM29.9236 3.19916C29.9072 3.18487 29.8918 3.16946 29.8776 3.15304L29.8358 3.10692C29.8208 3.09402 29.8068 3.08 29.7939 3.06499L28.3931 1.80713L31.4499 1.83648C31.3788 1.96646 30.831 2.28092 30.6595 2.44864C30.3961 2.7044 30.1912 2.93501 29.9236 3.19916ZM19.4946 3.77359C20.77 3.42558 22.221 2.65828 23.969 2.41929C23.4839 3.09853 22.8483 3.45074 22.6559 4.826C20.908 4.19287 22.2921 4.31866 19.4946 3.77359ZM37.1829 4.826C36.9905 3.3543 36.1667 2.90985 35.8656 2.43187C37.4797 2.70021 38.8555 3.33753 40.2647 3.74004C39.9667 3.83695 39.66 3.90436 39.3489 3.9413C38.3788 4.19287 37.8895 4.58281 37.1829 4.84277V4.826ZM17.5 5.83648C18.7545 5.63522 19.3399 5.26206 20.6947 5.78616C22.3465 6.41929 24.1822 8.15933 25.5831 8.27254C26.0654 8.31877 26.5506 8.21982 26.9766 7.9883C27.4027 7.75679 27.7502 7.40323 27.9749 6.97275C29.0622 4.97694 27.2013 3.70231 26.0179 4.51153C25.3865 4.93082 25.8841 5.28721 26.0765 5.72746C26.6661 7.0608 24.822 6.85115 24.3286 5.91614C23.7766 4.89308 24.638 3.65619 25.1649 3.32076C27.0884 2.06289 29.0454 4 29.3131 5.75681C29.7312 8.40252 26.3859 10.8847 22.8274 9.07338C20.3184 7.79455 18.2276 5.98742 14.9116 6.1761C15.8933 5.48517 16.9461 4.90182 18.052 4.43606C17.7564 4.8505 17.5668 5.3314 17.5 5.83648ZM44.9314 6.17191C42.6524 6.08386 40.9798 6.83858 39.3071 7.76939C38.5126 8.22222 37.7641 8.66247 36.957 9.10273C33.8125 10.8176 30.0407 8.59539 30.5257 5.68554C30.8143 4.00839 32.7922 2.01258 34.6655 3.32914C35.159 3.67296 36.0496 4.8847 35.5018 5.90356C34.9541 6.92243 33.1769 7.03564 33.7581 5.72327C33.9714 5.24948 34.423 4.8847 33.779 4.46541C32.6625 3.74424 30.7808 4.8847 31.8638 6.95598C32.0879 7.38723 32.4352 7.74167 32.8613 7.97395C33.2874 8.20624 33.7729 8.30582 34.2557 8.25996C35.159 8.18449 36.1416 7.48428 36.7647 7.09015C37.5096 6.5772 38.3005 6.13503 39.1273 5.76939C40.4403 5.28302 41.0508 5.58491 42.3137 5.8239C42.2635 5.31677 42.0771 4.83278 41.7743 4.42348C42.8872 4.88887 43.9459 5.47518 44.9314 6.17191ZM18.9259 12.1593C19.0597 10.4319 18.0269 8.90147 16.5549 8.72956C15.0119 8.54927 13.4815 10.2851 14.3178 11.7904C14.3557 11.8803 14.4115 11.9616 14.4816 12.0293C14.5518 12.0969 14.635 12.1496 14.7261 12.1841C14.8172 12.2186 14.9144 12.2342 15.0116 12.23C15.1089 12.2257 15.2043 12.2017 15.2921 12.1593C15.6224 11.9916 15.6726 11.6143 15.7772 11.2453C16.2581 9.61426 18.6541 11.6101 16.417 13.3417C16.0866 13.5511 15.7038 13.6623 15.313 13.6623C14.9222 13.6623 14.5394 13.5511 14.2091 13.3417C10.6505 11.3208 13.2347 7.32914 16.7264 7.78616C18.1983 7.97904 20.4689 9.54298 22.7061 10.4025C23.1243 10.566 24.5836 10.9937 24.7969 11.1363C24.4326 11.5779 24.1353 12.0709 23.9146 12.5996C23.6755 13.249 23.6036 13.9484 23.7055 14.6331C23.7725 15.2046 23.9733 15.7521 24.2917 16.2308C24.61 16.7096 25.0367 17.1061 25.5371 17.3878C25.4492 17.4465 23.4086 18.3354 23.3919 18.3396C23.549 17.7821 23.5668 17.1943 23.4435 16.6283C23.3203 16.0623 23.0598 15.5354 22.6852 15.0943C21.945 14.218 21.4307 14.0084 20.2139 13.3669C21.1965 13.044 22.2587 12.4361 22.3967 11.2704C21.0376 10.3732 19.1685 12.0461 18.9259 12.1593ZM35.021 11.153C35.2969 10.9811 36.7229 10.5786 37.1829 10.3983C37.8979 10.1132 38.5335 9.82809 39.1817 9.52201C40.4361 8.93501 41.6488 7.97904 43.1751 7.79455C43.9402 7.69637 44.7172 7.82658 45.4089 8.16889C46.1007 8.5112 46.6763 9.05041 47.064 9.71908C48.3812 11.8784 44.9732 14.805 43.3382 13.2872C41.8077 11.8826 42.644 10.8008 43.2797 10.6751C44.3418 10.4654 43.8442 11.9329 44.6052 12.1929C44.783 12.2539 44.9773 12.2445 45.1483 12.1666C45.3194 12.0886 45.4542 11.948 45.5252 11.7736C46.3615 10.2725 44.8059 8.49057 43.2086 8.72956C41.7659 8.9434 40.7999 10.4067 40.9129 12.1468L40.7372 12.0377C39.8089 11.413 38.5795 10.5912 37.4379 11.304C37.5239 11.6903 37.6951 12.0524 37.939 12.3637C38.1829 12.6749 38.4932 12.9275 38.8471 13.1027C38.9851 13.1698 39.1148 13.2117 39.2653 13.2662L39.6207 13.434C37.785 13.9371 35.7402 16.0964 36.4469 18.3438C36.3674 18.3438 34.4397 17.5052 34.2975 17.392C34.8052 17.1034 35.2365 16.6969 35.5552 16.2066C35.8738 15.7164 36.0707 15.1567 36.1291 14.5744C36.3256 12.9644 35.7402 12.1593 35.021 11.1363V11.153ZM8.81478 11.413C9.58007 10.4807 10.4328 9.62423 11.3614 8.85535C10.985 9.87422 10.8512 9.98742 11.1272 11.174C9.948 10.9015 9.81419 11.0105 8.81478 11.3962V11.413ZM48.7116 11.174C48.9834 9.86164 48.837 9.95807 48.4816 8.85954C49.4081 9.61713 50.257 10.4655 51.0156 11.392C50.0121 11.0398 49.9368 10.8763 48.7116 11.1572V11.174ZM30.4337 13.1321C31.7593 14.0294 32.6458 13.3711 33.4152 12.3732C32.9971 12.0964 32.2653 12.1887 31.3244 11.4591C31.0256 11.2375 30.7836 10.9478 30.6185 10.6139C30.4535 10.28 30.3701 9.91144 30.3752 9.53878L33.6118 11.3795C34.1025 11.8194 34.4359 12.4085 34.561 13.0566C34.7282 13.9623 34.4732 14.499 34.2097 15.174C33.899 14.9728 33.578 14.788 33.248 14.6205C31.7802 14.0964 31.0484 15.652 31.8471 16.7715C31.362 16.8134 30.5048 16.6751 29.9236 16.6751C29.2796 16.6751 28.5604 16.7966 27.9875 16.7757C28.3847 16.0461 28.5102 15.0985 27.77 14.6792C26.7999 14.1258 25.9845 15.0105 25.6332 15.153C25.3782 14.457 25.0938 14.0084 25.2778 13.0314C25.5747 11.4172 26.8626 11.0147 27.7868 10.478C28.3249 10.1301 28.8835 9.81511 29.4594 9.53459C29.3214 11.9916 26.7999 12.0797 26.4236 12.3606C27.2599 13.434 27.9624 13.9581 29.38 13.1321C29.3381 13.4591 28.6942 15.1237 29.9068 15.8029C30.8937 15.1614 30.6512 14.327 30.4337 13.1321ZM11.1063 24.8721C10.9516 24.6331 10.5125 23.1363 10.3494 22.7044C10.0818 22.0042 9.77655 21.3249 9.47966 20.7002C8.89841 19.4801 7.92828 18.2096 7.75683 16.6918C7.65672 15.9256 7.78568 15.1468 8.12736 14.4541C8.46905 13.7615 9.00809 13.1861 9.67619 12.8008C11.951 11.4885 14.7192 14.9308 13.2306 16.5325C11.8674 18.0042 10.7676 17.3082 10.6296 16.5912C10.4163 15.5094 11.8423 16.0252 12.135 15.2621C12.1938 15.0872 12.1868 14.8968 12.1151 14.7268C12.0434 14.5569 11.9122 14.4191 11.7461 14.3396C10.2282 13.4256 8.45516 15.1153 8.69769 16.6541C8.9235 18.0964 10.3703 19.0943 12.1099 18.9644C11.9301 19.3836 11.5621 19.543 11.2067 20.4948C10.9523 21.1109 10.9523 21.8031 11.2067 22.4193C11.8339 22.4654 12.2981 21.9623 12.6117 21.6562C13.0591 21.2369 13.1051 20.914 13.3393 20.26C14.0418 21.5178 14.1003 21.9371 15.0705 22.7254C15.5006 23.1125 16.0211 23.3845 16.5839 23.5165C17.1467 23.6484 17.7336 23.6359 18.2903 23.4801C18.2903 23.543 17.4247 25.4969 17.3411 25.6268C17.0677 25.1317 16.6789 24.7102 16.2079 24.3983C14.2676 23.174 12.5448 23.8029 11.1063 24.8889V24.8721ZM47.7247 18.9602C49.4392 19.0943 50.9571 18.0881 51.1453 16.5828C51.3334 15.0776 49.4726 13.4507 48.1052 14.3396C47.9251 14.4204 47.784 14.5692 47.7127 14.7538C47.6415 14.9383 47.6458 15.1436 47.7247 15.3249C47.892 15.6436 48.2725 15.6981 48.6447 15.8071C49.6942 16.1258 49.1715 17.1488 48.4732 17.3501C47.3567 17.6646 45.429 16.1593 46.5162 14.2264C48.4858 10.7296 52.5377 13.195 52.0652 16.7715C51.8896 18.13 50.9027 19.6436 50.334 20.7589L49.0796 23.8449C48.9953 24.1937 48.8849 24.5357 48.7492 24.8679C48.3007 24.5154 47.8105 24.2197 47.2898 23.9874C46.4301 23.6469 45.4776 23.6235 44.6023 23.9214C43.727 24.2194 42.9856 24.8193 42.5102 25.6143C42.4141 25.4675 41.6028 23.6268 41.5526 23.4759C44.5425 24.0168 45.4625 22.1258 46.5079 20.2516C46.7838 21.2662 47.5658 22.348 48.5987 22.4361C49.4434 21.0189 47.9254 19.3962 47.7247 18.9769V18.9602ZM4.4199 18.0964C4.88764 16.9884 5.47072 15.9329 6.15945 14.9476C5.87929 20.0377 10.2574 22.2977 9.60092 26.1258C9.29566 27.9036 7.7192 29.7945 5.6033 29.3627C3.8512 29.0021 2.01965 26.9979 3.37868 25.1279C3.74248 24.6247 5.07642 23.8197 6.00055 24.457C6.92469 25.0943 6.91633 26.8302 5.6033 26.0881C5.13914 25.8281 4.82552 25.5597 4.47008 26.1384C4.3437 26.3477 4.27105 26.5852 4.25864 26.8296C4.24624 27.074 4.29446 27.3177 4.39899 27.5388C5.0346 28.935 7.11704 28.4403 7.91991 27.1195C8.8106 25.6646 7.7861 24.2432 7.08359 23.0985C6.56855 22.3531 6.12606 21.5598 5.7622 20.7296C5.22695 19.3249 5.63675 18.8134 5.81238 17.5304C5.05969 17.6562 5.01787 17.7862 4.4199 18.0964ZM14.6356 19.9748C13.9874 18.3816 14.8154 17.5514 14.9827 16.0922C15.4008 16.239 16.2371 17.5136 15.8692 18.6331C15.8155 18.7827 15.7409 18.9239 15.6475 19.0524L15.3925 19.4088C15.5388 19.5094 15.2127 19.3417 15.5639 19.5136L16.0908 19.6478C16.9606 19.7275 17.2867 19.3836 17.7634 18.8679C18.1816 19.2327 18.7085 19.7484 19.6493 19.7065C19.7121 18.5618 19.0806 18.3312 18.8423 17.7484C19.6577 17.3291 19.6786 16.4906 19.4486 15.4465C18.8256 15.6688 18.6123 16.2055 17.5585 15.9874C17.0107 15.8742 16.1828 15.4088 16.0448 15.0314C17.5084 14.914 18.2485 14.021 19.917 14.6876C20.4304 14.9015 20.8913 15.2248 21.2676 15.6352C21.4837 15.8812 21.6376 16.1758 21.7162 16.4939C21.7948 16.8121 21.7958 17.1446 21.7192 17.4633C21.2676 17.4633 20.1511 17.3124 19.9964 18.4403C19.9683 18.7919 20.0786 19.1406 20.3037 19.4117C20.5288 19.6828 20.8508 19.8549 21.2007 19.891C21.0418 20.1593 20.6195 20.4319 20.2097 20.9182L19.8292 21.2621C19.7121 20.5786 19.1601 19.891 18.3112 20.0671C17.2324 20.2851 17.408 21.3836 17.4122 21.7862C16.0364 21.9832 15.1457 21.2117 14.6356 19.9748ZM38.107 17.4591C37.7557 15.283 40.156 14.0797 42.0168 14.5828C42.297 14.6583 43.61 15.0021 43.7814 15.0692C43.3806 15.5401 42.8373 15.867 42.2342 16C41.3687 16.1468 41.0299 15.8155 40.4821 15.4382C40.3523 15.6435 40.2679 15.8744 40.2347 16.1153C40.2015 16.3562 40.2203 16.6014 40.2898 16.8344C40.3353 17.028 40.42 17.2102 40.5387 17.3696C40.6574 17.529 40.8075 17.6622 40.9798 17.761C40.7958 18.1803 40.1183 18.5996 40.1727 19.7107C40.5203 19.7214 40.866 19.6548 41.1848 19.5156C41.5037 19.3764 41.7878 19.1681 42.0168 18.9057L42.5019 19.3249C42.7791 19.5251 43.1089 19.639 43.4502 19.6524C43.7915 19.6658 44.1293 19.5782 44.4212 19.4004L44.3251 19.2872C44.3135 19.2697 44.301 19.2529 44.2874 19.2369C44.1025 19.0139 43.9719 18.7508 43.9059 18.4685C43.8398 18.1861 43.8402 17.8922 43.9069 17.6101C44.0388 17.0099 44.367 16.4712 44.8394 16.0797C45.0527 17.3669 45.7719 18.6247 45.2074 19.9748C44.7892 20.9434 43.8818 22.1635 42.4182 21.7694C42.4475 21.3501 42.5688 21.0734 42.3053 20.6499C42.2185 20.4961 42.0982 20.3638 41.9534 20.2629C41.8086 20.162 41.6431 20.0951 41.469 20.0671C40.5992 19.9371 40.3065 20.6038 40.0556 21.0482C39.9135 21.3082 40.0556 21.1321 39.8925 21.2788C39.5873 20.717 39.0897 20.4403 38.6381 19.9539C39.2318 19.6646 39.9678 19.3543 39.8465 18.457C39.8145 18.285 39.747 18.1215 39.6483 17.9771C39.5497 17.8327 39.4221 17.7106 39.2737 17.6185C38.889 17.3501 38.567 17.4507 38.1195 17.4633L38.107 17.4591ZM55.4022 18.0922C54.9894 17.7867 54.5 17.6023 53.9888 17.5598C54.662 20.4948 54.0348 21.0063 52.7761 23.0692C52.3579 23.7526 51.7014 24.6541 51.5843 25.5849C51.5213 26.0719 51.6076 26.5665 51.8317 27.0032C52.0557 27.4398 52.407 27.7977 52.8388 28.0294C55.0174 29.2453 56.1465 27.0901 55.3018 26.0503C54.8042 25.4424 54.5031 26.0503 54.0682 26.1803C52.6883 26.6583 53.1064 24.7757 53.9846 24.3732C55.0342 23.891 56.159 24.7296 56.5228 25.2453C57.8484 27.1237 55.7743 29.1572 54.0975 29.3962C52.7594 29.5891 52.1238 29.0566 51.438 28.4528C49.9451 27.1363 49.8197 24.6792 50.7856 22.8805C52.0819 20.4319 53.9177 18.0503 53.671 14.9434C54.362 15.9295 54.9466 16.9864 55.4147 18.0964L55.4022 18.0922ZM2.42945 24.0335C2.6469 22.2935 3.54594 20.5451 3.76339 19.5514C4.31118 22.3732 4.20246 21.0147 4.81716 22.7254C3.50413 22.8805 3.11106 23.5304 2.42945 24.0335ZM55.0049 22.717C55.1722 22.239 55.49 21.761 55.6907 21.2243C55.8685 20.6786 55.9931 20.117 56.0629 19.5472C56.4099 20.805 57.171 22.26 57.4135 24.0294C56.7068 23.5304 56.3514 22.8973 55.0049 22.717ZM9.51311 29.5597C9.79268 28.9822 10.1069 28.4221 10.454 27.8826C10.9892 26.9266 11.4199 25.6394 13.0048 25.3669C13.7263 25.2307 14.4726 25.3713 15.0956 25.761C14.8948 26.0578 14.7159 26.3689 14.5603 26.6918C14.1714 27.8281 15.0454 28.9769 16.7348 28.088C16.7766 29.6604 16.5131 29.3459 16.7598 31.9539C15.9235 31.5975 15.0119 31.3962 14.6063 32.2306C14.1296 33.2076 14.9618 33.9455 15.1207 34.327C14.4223 34.5744 13.9456 34.8512 13.0006 34.6792C12.3784 34.5521 11.8105 34.2359 11.3739 33.7736L9.52147 30.4403C11.8883 30.608 12.0304 32.956 12.3315 33.4843C13.2431 32.8721 14.0042 31.8491 13.0926 30.5199C14.2383 30.7086 15.1834 30.9769 15.7604 30.0042C15.3005 29.1405 14.2383 29.2075 13.1386 29.4717C13.3518 28.9476 13.678 28.3019 13.3393 27.6017C13.1341 27.1174 12.7592 26.7252 12.2855 26.499C11.9468 28.1384 11.2903 29.434 9.51311 29.5597ZM45.0234 33.8239C45.2051 33.5884 45.3181 33.3069 45.3499 33.0108C45.3816 32.7147 45.3308 32.4156 45.2032 32.1467C44.785 31.392 43.8734 31.5933 43.0706 31.9203C43.1898 30.6373 43.1898 29.3459 43.0706 28.0629C43.9069 28.3774 44.7767 28.6667 45.2199 27.7778C45.6632 26.8889 44.8519 26.0252 44.739 25.7317C45.9935 24.8637 47.7582 25.4172 48.4607 26.2516L50.3215 29.5514C47.9171 29.4004 47.7749 26.9434 47.5114 26.5031C46.1231 27.4298 46.1775 28.1803 46.7002 29.4675C46.0521 29.3082 44.5676 28.9434 44.07 29.9958C44.7641 31.1698 46.2946 30.5828 46.7462 30.5199C46.5481 30.7646 46.4166 31.0566 46.3646 31.3675C46.3126 31.6783 46.3418 31.9973 46.4493 32.2935C46.6597 32.7978 47.0341 33.216 47.5114 33.4801C47.7331 33.1237 47.7414 32.2222 48.3854 31.4423C48.6019 31.1298 48.8908 30.8746 49.2272 30.6986C49.5637 30.5226 49.9378 30.431 50.3173 30.4319L48.4565 33.7358C48.0204 34.1981 47.4546 34.5168 46.834 34.6499C45.9308 34.8218 45.3914 34.566 44.7139 34.3019L45.0234 33.8239ZM1.82312 28.4738C1.9402 28.5409 2.29982 29.1279 2.43363 29.2662L3.18633 30.0042C2.91452 30.2767 2.69289 30.478 2.43363 30.7421C2.29564 30.8847 1.96111 31.4507 1.79803 31.5346L1.82312 28.4738ZM56.6483 30.0042C56.6863 29.9533 56.7314 29.9082 56.7821 29.87L56.8741 29.7904C56.9347 29.7442 56.9907 29.6922 57.0413 29.6352C57.3512 29.3033 57.643 28.9548 57.9153 28.5912C57.9153 28.5912 57.9613 28.5912 57.9697 28.5367C57.978 28.4822 58.0031 28.499 58.024 28.4822L57.9195 31.4172C57.902 31.4025 57.8866 31.3856 57.8735 31.3669L57.6602 31.065C57.3525 30.6841 57.014 30.3293 56.6483 30.0042ZM5.81656 42.4444C5.6033 41.1237 5.24786 40.5954 5.78729 39.195C6.41453 37.5556 8.17081 35.7275 8.25444 34.2725C8.39662 31.8532 5.15587 30.717 4.3739 32.5283C4.27658 32.7611 4.24009 33.015 4.2679 33.2659C4.2957 33.5169 4.38688 33.7565 4.53281 33.9623C5.00115 34.5157 5.30222 33.9623 5.7622 33.8197C7.10868 33.3333 6.78251 35.1488 5.82911 35.6226C4.8757 36.0964 3.67139 35.2579 3.32014 34.7841C1.96529 32.8847 4.05192 30.8763 5.73711 30.608C7.82792 30.2809 9.37093 32.1971 9.62601 34.021C10.1487 37.74 5.90856 39.891 6.15527 45.0524C5.46961 44.0629 4.88805 43.0049 4.4199 41.8952C4.82911 42.1984 5.3109 42.3878 5.81656 42.4444ZM53.6793 45.0692C53.8048 39.6184 49.6232 37.7526 50.2169 33.9497C50.7689 30.4319 54.6369 29.4675 56.4183 32.0713C58.0575 34.4654 55.3269 36.3438 53.9553 35.6059C52.9517 35.0692 52.8305 33.2579 54.1393 33.8532C54.6286 34.0797 54.9505 34.5031 55.3687 33.8532C55.5005 33.6252 55.5699 33.3663 55.5699 33.1027C55.5699 32.8391 55.5005 32.5802 55.3687 32.3522C54.3609 30.6751 51.2414 32.0671 51.6052 34.4948C51.8018 35.8449 53.5748 37.761 54.1142 39.3669C54.5826 40.7547 54.1937 41.2159 54.0097 42.4277C54.5161 42.3781 55.0006 42.1959 55.4147 41.8994C54.9304 43.0051 54.3497 44.0659 53.6793 45.0692ZM3.72575 40.3774C3.34523 38.9937 2.65944 37.5556 2.42527 35.9665C2.6168 36.112 2.79712 36.2718 2.9647 36.4444C3.61285 37.0273 4.11046 37.0608 4.79625 37.283C4.69171 37.7358 4.13973 38.5241 3.91393 39.5304C3.8898 39.82 3.8265 40.1049 3.72575 40.3774ZM55.0049 37.2746C55.4997 37.2171 55.9754 37.0495 56.3974 36.7841C56.5855 36.6775 56.7597 36.548 56.9159 36.3983C57.0705 36.244 57.2384 36.1037 57.4177 35.979C57.2695 36.7621 57.0726 37.5351 56.8281 38.2935C56.6106 39.0273 56.2803 39.7442 56.1172 40.3899C56.1039 40.3678 56.094 40.3438 56.0879 40.3187L56.0169 40.1006C55.4398 37.6604 55.6656 39.0524 55.0049 37.2746ZM11.0979 35.1195C11.537 35.4866 12.0309 35.7823 12.5615 35.9958C13.4184 36.3387 14.3691 36.3645 15.2433 36.0688C16.1175 35.773 16.8582 35.1749 17.3327 34.3815C17.3704 34.4319 18.2736 36.4444 18.2987 36.5241C16.8058 36.2432 16.0197 36.5241 15.0663 37.2621C14.297 37.9139 13.7188 38.7632 13.3936 39.7191C13.3779 39.7033 13.3652 39.6849 13.356 39.6646C13.3425 39.6471 13.3299 39.6289 13.3184 39.6101L13.1929 39.3166C12.8919 38.478 12.1099 37.6394 11.2652 37.5514C10.7049 38.348 11.1439 39.5514 11.6206 40.3187L12.1266 41.0189C11.2942 40.9063 10.4511 41.1278 9.78073 41.6352C7.27176 43.4633 9.6511 46.826 11.7377 45.6478C11.8278 45.61 11.9093 45.5545 11.9774 45.4844C12.0456 45.4144 12.099 45.3314 12.1346 45.2402C12.1701 45.1491 12.1869 45.0517 12.1841 44.9539C12.1813 44.8561 12.1589 44.7598 12.1183 44.6709C11.9426 44.3103 11.5537 44.2893 11.1439 44.1593C9.70128 43.6981 11.4157 41.3208 13.2766 43.4969C14.7025 45.174 11.8005 48.5493 9.62601 47.1572C8.97409 46.7651 8.45017 46.1911 8.11823 45.5054C7.7863 44.8196 7.66072 44.0517 7.75683 43.2956C7.92409 41.7778 8.92768 40.478 9.50893 39.2327C9.81419 38.587 10.1153 37.9161 10.3745 37.2243C10.5251 36.8176 10.9558 35.3543 11.1063 35.1195H11.0979ZM45.3077 36.2138C47.0222 36.4403 47.7373 35.7526 48.7408 35.1069C49.0001 35.8239 49.2008 36.5451 49.4852 37.2872C50.3508 39.522 51.8938 41.7694 52.0694 43.304C52.4667 46.8008 48.4774 49.3082 46.4869 45.7065C46.2619 45.3683 46.1511 44.9667 46.1706 44.5607C46.1902 44.1546 46.3392 43.7656 46.5957 43.4507C48.5192 41.3291 50.1166 43.7317 48.6279 44.1761C48.2349 44.2935 47.8292 44.3312 47.6871 44.7212C47.626 44.9 47.6353 45.0954 47.713 45.2676C47.7907 45.4398 47.931 45.5758 48.1052 45.6478C49.573 46.4864 51.3794 44.9057 51.1411 43.3417C50.8776 41.6436 49.2259 40.9308 47.7122 41.0147C48.214 40.2642 49.3555 38.8386 48.5736 37.5514C47.5156 37.6184 46.8006 38.7338 46.4828 39.7275C45.9141 38.5828 45.5628 37.8994 44.7641 37.2621C43.8358 36.5199 43.0037 36.2348 41.5317 36.5157C41.5694 36.4067 42.435 34.457 42.4893 34.3732C42.775 34.888 43.1819 35.3248 43.6746 35.6457C44.1674 35.9665 44.7309 36.1616 45.3161 36.2138H45.3077ZM39.9511 38.7296C40.1476 39.2117 40.1183 39.2788 40.4654 39.5975C41.1637 40.2432 42.6148 40.1342 42.389 38.239C43.8693 37.8616 44.7767 39.0482 45.1865 40.0294C45.8221 41.5597 44.9983 42.4864 44.831 43.891C44.4756 43.8029 43.9947 42.9392 43.8818 42.4025C43.6351 41.2369 44.3 40.9853 44.4296 40.4906C43.9111 40.3732 43.5933 40.2096 42.9828 40.3983C42.6378 40.5523 42.3265 40.7732 42.067 41.0482C42.067 41.0482 42.0377 41.0776 42.021 41.086C41.7876 40.8267 41.5015 40.6206 41.1819 40.4817C40.8624 40.3429 40.5168 40.2744 40.1685 40.2809C40.1687 40.6311 40.2408 40.9775 40.3804 41.2985C40.5199 41.6196 40.724 41.9083 40.9798 42.1467C40.4654 42.8973 39.9678 42.7463 40.386 44.566C40.8041 44.4277 41.1638 43.7736 42.2886 44.0126C42.8071 44.1216 43.6769 44.6122 43.7814 44.9644C42.3262 45.1027 41.4857 45.9916 39.8675 45.2956C38.9391 44.8763 37.7348 43.9581 38.1446 42.5157C39.0311 42.5912 39.7044 42.4654 39.8173 41.5639C39.9302 40.6625 39.2235 40.3312 38.6088 40.0671L39.9511 38.7296ZM15.0537 43.9161C14.9618 43.7065 14.6356 42.3774 14.552 42.0797C14.3987 41.4699 14.4151 40.8297 14.5994 40.2287C14.7837 39.6277 15.1289 39.0889 15.5974 38.6709C15.8522 38.465 16.1493 38.318 16.4673 38.2405C16.7854 38.1629 17.1166 38.1567 17.4373 38.2222C17.4373 38.717 17.3327 39.0608 17.6004 39.4298C17.7881 39.7016 18.075 39.8884 18.399 39.9497C18.749 39.9755 19.0952 39.8633 19.3639 39.6369C19.6326 39.4106 19.8025 39.088 19.8375 38.7379C20.1595 38.9182 20.2264 39.1111 20.54 39.4214C20.7343 39.6422 20.9614 39.8317 21.2133 39.9832C21.046 40.1677 20.9289 40.1593 20.7073 40.2851C20.4598 40.4046 20.2583 40.6022 20.1337 40.8476C20.009 41.093 19.9682 41.3727 20.0173 41.6436C20.0588 41.8126 20.1359 41.9708 20.2433 42.1074C20.3508 42.2441 20.4862 42.3562 20.6404 42.4361C21.0585 42.6583 21.3053 42.5451 21.7025 42.5199C22.0998 43.9958 20.8913 44.9057 19.9211 45.3166C18.5663 45.8826 17.3076 45.1614 16.0322 44.9434C16.4225 44.4706 16.9627 44.1464 17.5627 44.0252C18.5287 43.8197 18.9217 44.2851 19.3817 44.566C19.5646 44.2662 19.6514 43.9173 19.6305 43.5665C19.6096 43.2156 19.4819 42.8796 19.2646 42.6038L18.8465 42.1593C19.1011 41.9212 19.3061 41.6348 19.4497 41.3167C19.5932 40.9986 19.6725 40.6551 19.6828 40.3061C18.6039 40.26 18.307 40.8008 17.7216 41.1447C17.4373 40.5283 16.1242 39.9665 15.4134 40.6122C15.7897 41.1782 16.1452 41.5304 15.957 42.4319C15.8179 43.0091 15.502 43.5281 15.0537 43.9161ZM20.2348 46.6247C20.7449 46.3396 21.1129 46.2055 21.5812 45.8994C22.9361 44.9937 23.948 43.434 23.4337 41.6646C24.169 41.9405 24.888 42.2582 25.5872 42.6164C25.0734 42.9003 24.6364 43.3058 24.3143 43.7976C23.9922 44.2893 23.7947 44.8525 23.739 45.4382C23.5173 47.1153 24.2282 47.9119 24.8387 48.8721C24.4206 49.0901 22.1165 49.7107 20.6822 50.499C20.0466 50.8386 19.4277 51.1405 18.8088 51.4927C16.5675 52.7505 14.1087 52.478 12.8082 50.3019C11.5077 48.1258 14.899 45.2285 16.5299 46.7338C16.9062 47.0818 17.5962 47.7652 17.3327 48.6122C17.1111 49.3291 16.1201 49.8239 15.8023 48.7799C15.6894 48.4025 15.6392 47.9748 15.2628 47.8281C15.0846 47.7647 14.8888 47.773 14.7166 47.8511C14.5443 47.9293 14.4089 48.0713 14.3387 48.2474C13.448 49.6478 15.0663 51.543 16.6428 51.2872C18.1356 51.0482 19.0681 49.5556 18.9468 47.87L19.1308 47.979L19.1852 48.0168C20.6111 48.9937 20.8118 49.0985 22.4427 48.7631C22.2169 47.6185 21.3262 46.9602 20.2139 46.6247H20.2348ZM34.2892 42.6164C34.9871 42.2568 35.7063 41.9404 36.4427 41.6688C36.2885 42.2257 36.2738 42.8121 36.4 43.3761C36.5262 43.9401 36.7894 44.464 37.1661 44.9015C37.923 45.7778 38.4206 45.979 39.6333 46.6205C38.5335 46.9518 37.647 47.5891 37.4212 48.7463C39.1649 49.2872 39.8005 48.5618 40.9254 47.8574C40.8688 48.2681 40.894 48.686 40.9995 49.0869C41.105 49.4877 41.2888 49.8637 41.5401 50.1929C43.4762 52.8721 46.8424 50.0587 45.475 48.1384C45.4278 48.0509 45.3622 47.9748 45.2827 47.9153C45.2033 47.8557 45.112 47.8142 45.015 47.7934C44.918 47.7727 44.8177 47.7733 44.7209 47.7952C44.6242 47.8171 44.5334 47.8598 44.4547 47.9203C44.1787 48.1342 44.1662 48.5031 44.0365 48.9015C43.5807 50.2558 41.193 48.4361 43.4344 46.6541C45.107 45.3291 48.4523 48.1593 47.0138 50.4277C46.6114 51.0748 46.0297 51.5903 45.3398 51.9112C44.6499 52.2321 43.8817 52.3446 43.1291 52.2348C41.7785 52.0545 40.2563 51.0692 39.144 50.4906C38.5419 50.1761 37.8143 49.8952 37.141 49.6268C36.5932 49.4088 35.4015 49.0901 35.0502 48.8931C35.4045 48.4406 35.7022 47.9464 35.9367 47.4214C36.155 46.8149 36.2308 46.1661 36.1583 45.5254C36.0858 44.8848 35.8668 44.2695 35.5186 43.7275C35.214 43.2546 34.7898 42.8712 34.2892 42.6164ZM25.6667 44.8637C26.0179 44.9979 26.7957 45.8658 27.7575 45.3249C28.5729 44.8679 28.3011 44.021 27.9833 43.1908C29.2626 43.3417 30.5552 43.3417 31.8346 43.1908C30.9982 45.1656 32.1691 46.1593 33.9672 44.9811L34.2055 44.8344C34.4063 45.5807 34.7701 45.9874 34.5317 47.0398C34.39 47.6548 34.063 48.2111 33.595 48.6331C33.3734 48.8134 30.5675 50.3941 30.3417 50.4486C30.3558 50.0702 30.4548 49.6999 30.6315 49.3652C30.8081 49.0305 31.0579 48.7401 31.362 48.5157C32.1775 47.8532 33.0347 47.8784 33.3985 47.6394C32.604 46.4906 31.4624 46.0252 30.4379 46.8679C30.5132 46.3103 30.7515 46.0294 30.6177 45.2956C30.59 45.0709 30.513 44.8551 30.3922 44.6637C30.2715 44.4723 30.11 44.3101 29.9194 44.1887C28.8531 44.7086 29.2462 46.2055 29.38 46.8176C28.8238 46.5912 28.3011 46.2851 27.5651 46.5996C27.0898 46.8196 26.695 47.1832 26.4361 47.6394C26.8752 47.9161 29.3005 48.0252 29.4761 50.4612L26.1852 48.5954C25.6999 48.1181 25.3859 47.4932 25.2921 46.8181C25.1983 46.143 25.33 45.4558 25.6667 44.8637ZM11.3572 51.153C10.4275 50.3913 9.57708 49.5372 8.81896 48.6038C9.92291 48.9644 9.80164 49.1027 11.1188 48.8386C10.8429 50.0922 11.0101 50.1258 11.3572 51.153ZM48.7116 48.8386C50.058 49.1027 49.9075 48.956 51.0156 48.5996C50.2644 49.5366 49.4148 50.3898 48.4816 51.1447C48.7952 50.0545 49.0043 50.218 48.7116 48.847V48.8386ZM14.8948 53.8239C18.2067 54.0084 20.239 52.2558 22.865 50.8889C26.2103 49.1572 29.7689 51.4801 29.2963 54.3061C29.0162 55.9832 27.0383 57.9581 25.1607 56.6709C24.6422 56.3145 23.785 55.0943 24.3244 54.0713C24.7885 53.1866 26.6703 52.8847 26.0807 54.2725C25.905 54.6918 25.3405 55.044 26.0807 55.5094C26.3096 55.6395 26.5682 55.7079 26.8313 55.7079C27.0944 55.7079 27.353 55.6395 27.5819 55.5094C29.2545 54.5157 27.862 51.3585 25.4492 51.7358C24.5878 51.8658 23.6386 52.5493 22.9737 52.956C22.2223 53.4669 21.4209 53.8996 20.5818 54.2474C19.3023 54.7002 18.6876 54.3522 17.5376 54.1426C17.5731 54.6403 17.7437 55.1188 18.0311 55.5262C16.9273 55.0741 15.8758 54.5034 14.8948 53.8239ZM34.1303 55.0231C34.0676 54.6331 33.2061 53.631 33.9797 53.3459C34.6153 53.1111 35.3262 53.74 35.5102 54.0964C36.1751 55.3543 34.8704 56.7925 33.9672 57.0314C31.4582 57.673 29.3674 53.7862 31.2324 51.8281C33.3232 49.6352 35.552 50.0545 37.9732 51.4675C38.9758 52.0799 40.0179 52.6248 41.0927 53.0985C42.2901 53.6726 43.6157 53.9254 44.9398 53.8323C43.9407 54.4974 42.889 55.0793 41.7952 55.5723C42.0894 55.1571 42.2736 54.6738 42.3304 54.1677C40.3107 54.5157 39.8215 54.7463 38.0568 53.6813C37.2623 53.1992 35.5186 52.0545 34.745 51.8323C34.4119 51.7362 34.0625 51.7104 33.719 51.7565C33.3755 51.8025 33.0452 51.9194 32.7489 52.0999C32.4527 52.2803 32.197 52.5203 31.9979 52.8048C31.7987 53.0892 31.6606 53.4119 31.592 53.7526C31.153 55.8029 33.6536 56.3228 34.1303 55.0231ZM19.4946 56.218C20.0808 56.1381 20.6587 56.0062 21.2216 55.8239C21.7276 55.6226 22.2043 55.304 22.6559 55.1572C22.7407 55.8738 23.0479 56.5456 23.5341 57.0776C23.696 57.2279 23.8431 57.3936 23.9731 57.5723C21.9869 57.2034 20.1177 56.3438 19.4988 56.218H19.4946ZM35.8615 57.5723C36.2085 57.0398 37.0072 56.5828 37.1787 55.1572C38.3077 55.5346 38.2115 55.9539 40.3023 56.1971C39.4535 56.6792 36.9696 57.3627 35.8656 57.5723H35.8615ZM17.9182 32.0168C17.8596 30.9686 17.7676 30.2096 17.8011 29.0818C18.0603 27.2034 18.2861 26.0461 19.0556 24.5115C19.6981 23.2477 20.546 22.0999 21.5645 21.1153C29.15 14.0797 41.515 18.9434 42.0544 29.4088C42.2002 32.1322 41.4286 34.8256 39.8637 37.0563C38.2988 39.287 36.0313 40.9254 33.4258 41.7082C30.8203 42.491 28.0279 42.3727 25.4975 41.3724C22.9671 40.3722 20.8455 38.5479 19.4737 36.1929C18.2025 34.1132 18.2318 32.7044 17.9182 32.0168ZM29.9236 56.805C30.3098 57.2488 30.7478 57.6444 31.2282 57.9832L31.4331 58.1803L28.506 58.0713L28.5562 58.021C28.9807 57.7377 29.3684 57.4025 29.7103 57.0231L29.7856 56.9308C29.8242 56.8815 29.8709 56.8389 29.9236 56.805Z" fill="#C76F6B"/>
<path d="M59.4703 31.7906C60.4571 15.4256 48.0263 1.35705 31.7052 0.367591C15.3842 -0.621868 1.3534 11.8425 0.366596 28.2074C-0.620205 44.5724 11.8107 58.641 28.1317 59.6304C44.4527 60.6199 58.4835 48.1556 59.4703 31.7906Z" stroke="#C76F6B" stroke-width="1.5" stroke-miterlimit="2.61"/>
<path d="M40.2276 32.7189C41.7254 27.0105 38.3245 21.1655 32.6314 19.6637C26.9384 18.1619 21.1091 21.5719 19.6113 27.2803C18.1135 32.9887 21.5144 38.8337 27.2074 40.3355C32.9005 41.8373 38.7298 38.4272 40.2276 32.7189Z" fill="#FEFEFE"/>
<path d="M40.2276 32.7189C41.7254 27.0105 38.3245 21.1655 32.6314 19.6637C26.9384 18.1619 21.1091 21.5719 19.6113 27.2803C18.1135 32.9887 21.5144 38.8337 27.2074 40.3355C32.9005 41.8373 38.7298 38.4272 40.2276 32.7189Z" stroke="#C76F6B" stroke-width="0.5" stroke-miterlimit="2.61"/>
<path fill-rule="evenodd" clip-rule="evenodd" d="M29.9194 20.499C31.7935 20.499 33.6255 21.0563 35.1837 22.1002C36.742 23.1442 37.9565 24.6281 38.6736 26.3642C39.3908 28.1003 39.5785 30.0106 39.2129 31.8536C38.8472 33.6967 37.9448 35.3896 36.6196 36.7183C35.2944 38.0471 33.606 38.952 31.768 39.3186C29.9299 39.6852 28.0247 39.497 26.2933 38.7779C24.5618 38.0588 23.082 36.841 22.0408 35.2786C20.9996 33.7161 20.4438 31.8792 20.4438 30.0001C20.4438 27.4802 21.4422 25.0636 23.2192 23.2818C24.9962 21.5 27.4063 20.499 29.9194 20.499Z" fill="#FEFEFE"/>
<path d="M29.9194 20.499C31.7935 20.499 33.6255 21.0563 35.1837 22.1002C36.742 23.1442 37.9565 24.6281 38.6736 26.3642C39.3908 28.1003 39.5785 30.0106 39.2129 31.8536C38.8472 33.6967 37.9448 35.3896 36.6196 36.7183C35.2944 38.0471 33.606 38.952 31.768 39.3186C29.9299 39.6852 28.0247 39.497 26.2933 38.7779C24.5618 38.0588 23.082 36.841 22.0408 35.2786C20.9996 33.7161 20.4438 31.8792 20.4438 30.0001C20.4438 27.4802 21.4422 25.0636 23.2192 23.2818C24.9962 21.5 27.4063 20.499 29.9194 20.499V20.499Z" stroke="#C76F6B" stroke-miterlimit="2.61"/>
<path d="M35.4392 34.4153C34.882 34.5964 34.3018 34.6966 33.7164 34.713H33.5031C33.4049 34.7078 33.3072 34.6966 33.2104 34.6794L32.6668 34.6165C31.5535 34.3932 30.4631 34.0676 29.4093 33.6438C28.9911 33.4803 28.5061 33.2664 27.9374 33.0191C27.3687 32.7717 26.8878 32.5243 26.4069 32.2853V32.9939V33.2748C26.4133 33.3958 26.4273 33.5162 26.4487 33.6354C26.4574 33.7683 26.5087 33.8948 26.5951 33.996C26.6599 34.1074 26.7645 34.1898 26.8878 34.2266C26.9505 34.2266 27.0341 34.2266 27.1387 34.2601C27.2439 34.2773 27.35 34.2885 27.4565 34.2937L28.0001 34.2601V34.6249H24.4081V34.2601H25.3991V26.4698C25.4035 26.2793 25.343 26.0929 25.2277 25.9415C24.9687 25.8131 24.6784 25.7622 24.3914 25.7947V25.4509H26.3902V25.9247L27.1805 25.6648C27.4105 25.5977 27.6614 25.5306 27.975 25.4635C28.2512 25.4048 28.5304 25.3614 28.8113 25.3335C29.1029 25.3001 29.396 25.2833 29.6895 25.2832C29.9236 25.2832 30.1327 25.2832 30.3418 25.2832C30.5509 25.2832 30.76 25.3167 30.9732 25.3503C31.9931 25.4517 32.952 25.8846 33.7038 26.583C34.039 26.8797 34.3076 27.2442 34.4922 27.6525C34.6767 28.0608 34.7728 28.5037 34.7743 28.952V29.0526C34.771 29.5897 34.6347 30.1175 34.3778 30.5888C34.1209 31.06 33.7514 31.46 33.3024 31.7528C32.8211 32.1129 32.2804 32.3854 31.705 32.5578C31.0899 32.7317 30.454 32.8206 29.8149 32.822H29.6686C29.5216 32.8208 29.3749 32.8096 29.2295 32.7884L28.8113 32.7381L28.874 32.6081L30.9649 33.4467L32.4953 34.0547C32.9969 34.2259 33.5213 34.3206 34.0509 34.3356C34.2276 34.3343 34.404 34.3175 34.5778 34.2853C34.7869 34.2518 34.9959 34.1889 35.3346 34.105L35.4392 34.4153ZM33.9254 29.0191C33.9214 28.5253 33.7893 28.0412 33.5423 27.6141C33.2952 27.187 32.9416 26.8317 32.5162 26.583C32.0767 26.2888 31.5962 26.0613 31.0903 25.9079C30.5457 25.7576 29.9825 25.6856 29.4177 25.6941C28.8626 25.7022 28.3113 25.7854 27.7785 25.9415C27.5269 26.0179 27.281 26.1118 27.0425 26.2224C26.8261 26.3416 26.6166 26.4732 26.4153 26.6165V31.8325L26.7623 31.5725C27.2163 31.8797 27.712 32.1198 28.2343 32.2853C28.4742 32.3607 28.7186 32.4209 28.966 32.4656C29.2239 32.4996 29.4837 32.5164 29.7438 32.5159C30.7862 32.5382 31.8066 32.2138 32.6459 31.5935C33.0506 31.2998 33.3783 30.9122 33.6012 30.4639C33.824 30.0156 33.9352 29.5199 33.9254 29.0191Z" fill="#C76F6B"/>
<path d="M35.4392 34.4153C34.882 34.5964 34.3018 34.6966 33.7164 34.713H33.5031C33.4049 34.7078 33.3072 34.6966 33.2104 34.6794L32.6668 34.6165C31.5535 34.3932 30.4631 34.0676 29.4093 33.6438C28.9911 33.4803 28.5061 33.2664 27.9374 33.0191C27.3687 32.7717 26.8878 32.5243 26.4069 32.2853V32.9939V33.2748C26.4133 33.3958 26.4273 33.5162 26.4487 33.6354C26.4574 33.7683 26.5087 33.8948 26.5951 33.996C26.6599 34.1074 26.7645 34.1898 26.8878 34.2266C26.9505 34.2266 27.0341 34.2266 27.1387 34.2601C27.2439 34.2773 27.35 34.2885 27.4565 34.2937L28.0001 34.2601V34.6249H24.4081V34.2601H25.3991V26.4698C25.4035 26.2793 25.343 26.0929 25.2277 25.9415C24.9687 25.8131 24.6784 25.7622 24.3914 25.7947V25.4509H26.3902V25.9247L27.1805 25.6648C27.4105 25.5977 27.6614 25.5306 27.975 25.4635C28.2512 25.4048 28.5304 25.3614 28.8113 25.3335C29.1029 25.3001 29.396 25.2833 29.6895 25.2832C29.9236 25.2832 30.1327 25.2832 30.3418 25.2832C30.5509 25.2832 30.76 25.3167 30.9732 25.3503C31.9931 25.4517 32.952 25.8846 33.7038 26.583C34.039 26.8797 34.3076 27.2442 34.4922 27.6525C34.6767 28.0608 34.7728 28.5037 34.7743 28.952V29.0526C34.771 29.5897 34.6347 30.1175 34.3778 30.5888C34.1209 31.06 33.7514 31.46 33.3024 31.7528C32.8211 32.1129 32.2804 32.3854 31.705 32.5578C31.0899 32.7317 30.454 32.8206 29.8149 32.822H29.6686C29.5216 32.8208 29.3749 32.8096 29.2295 32.7884L28.8113 32.7381L28.874 32.6081L30.9649 33.4467L32.4953 34.0547C32.9969 34.2259 33.5213 34.3206 34.0509 34.3356C34.2276 34.3343 34.404 34.3175 34.5778 34.2853C34.7869 34.2518 34.9959 34.1889 35.3346 34.105L35.4392 34.4153ZM33.9254 29.0191C33.9214 28.5253 33.7893 28.0412 33.5423 27.6141C33.2952 27.187 32.9416 26.8317 32.5162 26.583C32.0767 26.2888 31.5962 26.0613 31.0903 25.9079C30.5457 25.7576 29.9825 25.6856 29.4177 25.6941C28.8626 25.7022 28.3113 25.7854 27.7785 25.9415C27.5269 26.0179 27.281 26.1118 27.0425 26.2224C26.8261 26.3416 26.6166 26.4732 26.4153 26.6165V31.8325L26.7623 31.5725C27.2163 31.8797 27.712 32.1198 28.2343 32.2853C28.4742 32.3607 28.7186 32.4209 28.966 32.4656C29.2239 32.4996 29.4837 32.5164 29.7438 32.5159C30.7862 32.5382 31.8066 32.2138 32.6459 31.5935C33.0506 31.2998 33.3783 30.9122 33.6012 30.4639C33.824 30.0156 33.9352 29.5199 33.9254 29.0191V29.0191Z" stroke="#C76F6B" stroke-width="0.22" stroke-miterlimit="2.61"/>
<path d="M86.8019 38.3139C85.8028 38.6342 84.7642 38.8135 83.7158 38.8464H83.3395C83.1628 38.8373 82.9869 38.8177 82.8126 38.7877L81.8341 38.6661C79.8404 38.2691 77.8876 37.688 76.0007 36.9302C75.2481 36.6325 74.3783 36.251 73.3621 35.8065C72.346 35.3621 71.4804 34.9218 70.6148 34.4816L70.5772 35.7395V36.2426C70.5942 36.4623 70.6249 36.6808 70.6692 36.8967C70.6856 37.1347 70.778 37.3611 70.9326 37.5424C71.0513 37.742 71.2387 37.8911 71.4595 37.9617C71.5724 37.991 71.723 37.991 71.9111 38.0204C72.098 38.0507 72.2865 38.0703 72.4756 38.0791L73.4541 38.0204V38.6661H67.0563V38.0204H68.8251V24.0749C68.8348 23.7352 68.7285 23.4024 68.524 23.1315C68.2982 22.9554 67.809 22.8673 67.0563 22.8673V22.2468H70.6316V23.0854C71.0497 22.9386 71.4972 22.7919 72.024 22.6116C72.4422 22.4942 72.8896 22.3768 73.4541 22.2594C73.9519 22.1494 74.4561 22.071 74.9637 22.0246C75.4761 21.9671 75.9912 21.9377 76.5067 21.9365C76.9249 21.9365 77.297 21.9365 77.6734 21.9659C78.0497 21.9952 78.4261 22.0246 78.8024 22.0833C80.6269 22.2764 82.3388 23.061 83.6782 24.3181C84.2808 24.8486 84.7637 25.5018 85.0947 26.2342C85.4257 26.9666 85.5971 27.7614 85.5976 28.5655V28.7416C85.5976 30.6577 84.732 32.2803 82.9631 33.5759C82.1008 34.2211 81.1329 34.7106 80.1029 35.0225C79.0004 35.3326 77.8609 35.4906 76.7158 35.4921H76.4524C76.1879 35.49 75.9239 35.4704 75.662 35.4334L74.9093 35.3453L75.0223 35.1105L78.7857 36.5822L81.533 37.6724C82.4303 37.9816 83.3695 38.1513 84.318 38.1755C84.6336 38.1736 84.9484 38.1441 85.2588 38.0875C85.6352 38.0288 86.0492 37.9114 86.6137 37.7604L86.8019 38.3139ZM84.0922 28.6451C84.0922 26.8757 83.2559 25.4292 81.5832 24.2803C80.7994 23.7466 79.9394 23.3352 79.0324 23.0602C78.0524 22.7878 77.0385 22.6579 76.0217 22.6745C75.0305 22.6904 74.046 22.8399 73.0945 23.1189C72.6441 23.2534 72.2039 23.4201 71.7773 23.6179C71.389 23.8343 71.0121 24.0708 70.6483 24.3265V33.6849L71.2881 33.2153C72.1015 33.7591 72.9888 34.1827 73.9225 34.4732C74.357 34.6041 74.798 34.7119 75.2439 34.7961C75.7056 34.8558 76.1708 34.8852 76.6364 34.8841C78.501 34.9215 80.3261 34.3425 81.8299 33.2363C82.5472 32.7096 83.1272 32.0173 83.521 31.2181C83.9148 30.4189 84.1107 29.5363 84.0922 28.6451Z" fill="white"/>
<path d="M86.8019 38.3139C85.8028 38.6342 84.7642 38.8135 83.7158 38.8464H83.3395C83.1628 38.8373 82.9869 38.8177 82.8126 38.7877L81.8341 38.6661C79.8404 38.2691 77.8876 37.688 76.0007 36.9302C75.2481 36.6325 74.3783 36.251 73.3621 35.8065C72.346 35.3621 71.4804 34.9218 70.6148 34.4816L70.5772 35.7395V36.2426C70.5942 36.4624 70.6249 36.6808 70.6692 36.8967C70.6856 37.1347 70.778 37.3611 70.9326 37.5424C71.0513 37.742 71.2387 37.8911 71.4595 37.9617C71.5724 37.991 71.723 37.991 71.9111 38.0204C72.098 38.0507 72.2865 38.0703 72.4756 38.0791L73.4541 38.0204V38.6661H67.0563V38.0204H68.8251V24.0749C68.8348 23.7352 68.7285 23.4024 68.524 23.1315C68.2982 22.9554 67.809 22.8673 67.0563 22.8673V22.2468H70.6316V23.0854C71.0497 22.9386 71.4972 22.7919 72.024 22.6116C72.4422 22.4942 72.8896 22.3768 73.4541 22.2594C73.9519 22.1494 74.4561 22.071 74.9637 22.0246C75.4761 21.9671 75.9912 21.9377 76.5067 21.9365C76.9249 21.9365 77.297 21.9365 77.6734 21.9659C78.0497 21.9952 78.4261 22.0246 78.8024 22.0833C80.6269 22.2764 82.3388 23.061 83.6782 24.3181C84.2808 24.8486 84.7637 25.5018 85.0947 26.2342C85.4257 26.9666 85.5971 27.7614 85.5976 28.5655V28.7416C85.5976 30.6577 84.732 32.2803 82.9631 33.5759C82.1008 34.2211 81.1329 34.7106 80.1029 35.0225C79.0004 35.3326 77.8609 35.4906 76.7158 35.4921H76.4524C76.1879 35.49 75.9239 35.4704 75.662 35.4334L74.9093 35.3453L75.0223 35.1105L78.7857 36.5822L81.533 37.6724C82.4303 37.9816 83.3695 38.1513 84.318 38.1755C84.6336 38.1736 84.9484 38.1441 85.2588 38.0875C85.6352 38.0288 86.0492 37.9114 86.6137 37.7604L86.8019 38.3139ZM84.0922 28.6451C84.0922 26.8757 83.2559 25.4292 81.5832 24.2803C80.7994 23.7466 79.9394 23.3352 79.0324 23.0602C78.0524 22.7878 77.0385 22.6579 76.0217 22.6745C75.0305 22.6904 74.046 22.8399 73.0945 23.1189C72.6441 23.2534 72.2039 23.4201 71.7773 23.6179C71.389 23.8343 71.0121 24.0708 70.6483 24.3265V33.6849L71.2881 33.2153C72.1015 33.7591 72.9888 34.1827 73.9225 34.4732C74.357 34.6041 74.798 34.7119 75.2439 34.7961C75.7056 34.8558 76.1708 34.8852 76.6364 34.8841C78.501 34.9215 80.3261 34.3425 81.8299 33.2363C82.5472 32.7096 83.1272 32.0173 83.521 31.2181C83.9148 30.4189 84.1107 29.5363 84.0922 28.6451V28.6451Z" stroke="white" stroke-width="0.22" stroke-miterlimit="2.61"/>
<path d="M104.235 22.8676H102.504V33.5091C102.51 34.1692 102.472 34.8289 102.391 35.484C102.314 35.9584 102.187 36.4235 102.015 36.8718C101.525 37.9326 100.434 38.6077 98.778 38.9054L97.4943 38.9934C96.426 39.0202 95.3671 38.7872 94.4082 38.3142C94.0597 38.1166 93.7425 37.8679 93.4674 37.5762C93.2133 37.2884 93.0097 36.9595 92.8652 36.6035C92.6208 35.8326 92.5064 35.0263 92.5265 34.2177V24.3687C92.5582 23.9761 92.4936 23.5816 92.3383 23.2198C92.1125 22.985 91.5857 22.8676 90.7577 22.8676V22.2471H96.1018V22.8676H94.333V34.0416C94.3256 34.5833 94.3633 35.1247 94.4459 35.6601C94.4965 36.0637 94.6243 36.4538 94.8222 36.8089C95.3491 37.7062 96.29 38.1548 97.6448 38.1548C98.3256 38.1769 99.0042 38.0673 99.6436 37.832C100.156 37.6217 100.594 37.2607 100.898 36.7963C101.118 36.4084 101.26 35.9811 101.316 35.5385C101.431 34.9065 101.481 34.2645 101.467 33.6223V24.6077C101.467 23.811 101.392 23.3498 101.203 23.1318C101.015 22.9137 100.413 22.8676 99.3969 22.8676V22.2471H104.252L104.235 22.8676Z" fill="white"/>
<path d="M104.235 22.8676H102.504V33.5091C102.51 34.1692 102.472 34.8289 102.391 35.484C102.314 35.9584 102.187 36.4235 102.015 36.8718C101.525 37.9326 100.434 38.6077 98.778 38.9054L97.4943 38.9934C96.426 39.0202 95.3671 38.7872 94.4082 38.3142C94.0597 38.1166 93.7425 37.8679 93.4674 37.5762C93.2133 37.2884 93.0097 36.9595 92.8652 36.6035C92.6208 35.8326 92.5064 35.0263 92.5265 34.2177V24.3687C92.5582 23.9761 92.4936 23.5816 92.3383 23.2198C92.1125 22.985 91.5857 22.8676 90.7577 22.8676V22.2471H96.1018V22.8676H94.333V34.0416C94.3256 34.5833 94.3633 35.1247 94.4459 35.6601C94.4965 36.0637 94.6243 36.4538 94.8222 36.8089C95.3491 37.7062 96.29 38.1548 97.6448 38.1548C98.3256 38.1769 99.0042 38.0673 99.6436 37.832C100.156 37.6217 100.594 37.2607 100.898 36.7963C101.118 36.4084 101.26 35.9811 101.316 35.5385C101.431 34.9065 101.481 34.2645 101.467 33.6223V24.6077C101.467 23.811 101.392 23.3498 101.203 23.1318C101.015 22.9137 100.413 22.8676 99.3969 22.8676V22.2471H104.252L104.235 22.8676Z" stroke="white" stroke-width="0.22" stroke-miterlimit="2.61"/>
<path d="M123.93 33.3326C123.939 34.1319 123.747 34.9206 123.372 35.6261C122.997 36.3316 122.452 36.9314 121.785 37.3704C120.318 38.4605 118.285 38.993 115.684 38.993C113.839 39.0521 112.013 38.5916 110.415 37.6639C108.872 36.7205 108.12 35.4836 108.12 33.9783C108.119 33.3614 108.265 32.7531 108.547 32.2045C108.828 31.6559 109.237 31.183 109.738 30.8253C110.988 29.8691 112.532 29.3798 114.104 29.4416C115.134 29.4157 116.147 29.7085 117.006 30.2802C117.842 30.8379 118.26 31.4878 118.26 32.2844C118.273 32.5095 118.236 32.7346 118.151 32.9435C118.067 33.1524 117.937 33.3397 117.771 33.4919C117.301 33.8763 116.703 34.0654 116.098 34.0202C115.908 34.0063 115.719 33.9768 115.534 33.9322C115.27 33.8735 115.045 33.8148 114.819 33.7561L114.969 33.2865H115.387C115.734 33.3085 116.079 33.2141 116.366 33.0182C116.487 32.9392 116.586 32.8302 116.653 32.7016C116.719 32.573 116.752 32.4292 116.746 32.2844C116.729 31.9836 116.635 31.6921 116.475 31.437C116.315 31.182 116.093 30.9715 115.831 30.8253C115.204 30.3863 114.453 30.1627 113.69 30.188C112.296 30.188 111.204 30.543 110.415 31.253C110.079 31.5388 109.811 31.8957 109.628 32.2981C109.446 32.7004 109.355 33.1382 109.362 33.58C109.362 34.8379 110.001 35.8777 111.319 36.7624C112.804 37.6949 114.535 38.158 116.286 38.0915C117.805 38.13 119.3 37.714 120.581 36.8966C121.898 36.058 122.538 35.0098 122.538 33.7393C122.554 33.2183 122.437 32.7018 122.199 32.2383C121.925 31.7816 121.567 31.3805 121.145 31.0559C120.481 30.5696 119.761 30.1642 119 29.8483C118.21 29.4961 117.382 29.1397 116.554 28.7582C115.801 28.4345 115.07 28.0605 114.367 27.6387C113.869 27.3276 113.441 26.9147 113.113 26.427C112.825 26.0226 112.668 25.5399 112.661 25.0433C112.666 24.5986 112.784 24.1625 113.004 23.776C113.223 23.3895 113.537 23.0652 113.915 22.8337C114.901 22.1967 116.061 21.8872 117.231 21.949C117.796 21.949 118.21 21.949 118.486 21.9783C118.882 22.0175 119.273 22.0962 119.653 22.2131V21.0098H120.405V27.3745H119.653V25.5758C119.705 24.8002 119.493 24.0299 119.051 23.3913C118.855 23.1371 118.6 22.9345 118.309 22.8008C118.017 22.6672 117.698 22.6065 117.378 22.624C116.658 22.5941 115.941 22.7379 115.287 23.0433C114.905 23.1922 114.579 23.4568 114.354 23.8002C114.129 24.1437 114.017 24.5489 114.033 24.9595C114.033 25.3787 114.409 25.8441 115.124 26.3724C116.14 27.0488 117.226 27.6113 118.365 28.0496C119.456 28.5234 120.246 28.8882 120.736 29.1397C121.313 29.3846 121.856 29.7016 122.354 30.0831C122.894 30.493 123.325 31.0302 123.608 31.6471C123.829 32.1811 123.939 32.7546 123.93 33.3326Z" fill="white"/>
<path d="M123.93 33.3326C123.939 34.1319 123.747 34.9206 123.372 35.6261C122.997 36.3316 122.452 36.9314 121.785 37.3704C120.318 38.4605 118.285 38.993 115.684 38.993C113.839 39.0521 112.013 38.5916 110.415 37.6639C108.872 36.7205 108.12 35.4836 108.12 33.9783C108.119 33.3614 108.265 32.7531 108.547 32.2045C108.828 31.6559 109.237 31.183 109.738 30.8253C110.988 29.8691 112.532 29.3798 114.104 29.4416C115.134 29.4157 116.147 29.7085 117.006 30.2802C117.842 30.8379 118.26 31.4878 118.26 32.2844C118.273 32.5095 118.236 32.7346 118.151 32.9435C118.067 33.1524 117.937 33.3397 117.771 33.4919C117.301 33.8763 116.703 34.0654 116.098 34.0202C115.908 34.0063 115.719 33.9768 115.534 33.9322C115.27 33.8735 115.045 33.8148 114.819 33.7561L114.969 33.2865H115.387C115.734 33.3085 116.079 33.2141 116.366 33.0182C116.487 32.9393 116.586 32.8302 116.653 32.7016C116.719 32.573 116.752 32.4292 116.746 32.2844C116.729 31.9836 116.635 31.6921 116.475 31.437C116.315 31.182 116.093 30.9715 115.831 30.8253C115.204 30.3863 114.453 30.1627 113.69 30.188C112.296 30.188 111.204 30.543 110.415 31.253C110.079 31.5388 109.811 31.8957 109.628 32.2981C109.446 32.7004 109.355 33.1382 109.362 33.58C109.362 34.8379 110.001 35.8777 111.319 36.7624C112.804 37.6949 114.535 38.158 116.286 38.0915C117.805 38.13 119.3 37.714 120.581 36.8966C121.898 36.058 122.538 35.0098 122.538 33.7393C122.554 33.2183 122.437 32.7018 122.199 32.2383C121.925 31.7816 121.567 31.3805 121.145 31.0559C120.481 30.5696 119.761 30.1642 119 29.8483C118.21 29.4961 117.382 29.1397 116.554 28.7582C115.801 28.4345 115.07 28.0605 114.367 27.6387C113.869 27.3276 113.441 26.9147 113.113 26.427C112.825 26.0226 112.668 25.5399 112.661 25.0433C112.666 24.5986 112.784 24.1625 113.004 23.776C113.223 23.3895 113.537 23.0652 113.915 22.8337C114.901 22.1967 116.061 21.8872 117.231 21.949C117.796 21.949 118.21 21.949 118.486 21.9783C118.882 22.0175 119.273 22.0962 119.653 22.2131V21.0098H120.405V27.3745H119.653V25.5758C119.705 24.8002 119.493 24.0299 119.051 23.3913C118.855 23.1371 118.6 22.9345 118.309 22.8008C118.017 22.6672 117.698 22.6065 117.378 22.624C116.658 22.5941 115.941 22.7379 115.287 23.0433C114.905 23.1922 114.579 23.4568 114.354 23.8002C114.129 24.1437 114.017 24.5489 114.033 24.9595C114.033 25.3787 114.409 25.8441 115.124 26.3724C116.14 27.0488 117.226 27.6113 118.365 28.0496C119.456 28.5234 120.246 28.8882 120.736 29.1397C121.313 29.3846 121.856 29.7016 122.354 30.0831C122.894 30.493 123.325 31.0302 123.608 31.6471C123.829 32.1811 123.939 32.7546 123.93 33.3326V33.3326Z" stroke="white" stroke-width="0.22" stroke-miterlimit="2.61"/>
<path d="M142.07 38.6668H137.215V38.0211H138.984L135.221 28.172H132.557L130.048 36.0169L129.935 36.5452V36.7506C129.937 36.8415 129.925 36.9322 129.898 37.019C129.883 37.2021 129.932 37.3847 130.034 37.537C130.137 37.6892 130.287 37.8022 130.462 37.8575C130.65 37.8869 130.951 37.9456 131.328 37.9749C131.704 38.0043 132.193 38.0336 132.758 38.0336V38.6793H127.163V38.0211H128.33L134.125 21.0986L140.151 36.4278L140.569 37.3418C140.795 37.7611 141.322 38.0211 142.074 38.0211L142.07 38.6668ZM135.033 27.5557L133.778 24.4278L132.8 27.5557H135.033Z" fill="white"/>
<path d="M142.07 38.6668H137.215V38.0211H138.984L135.221 28.172H132.557L130.048 36.0169L129.935 36.5452V36.7506C129.937 36.8415 129.925 36.9322 129.898 37.019C129.883 37.2021 129.932 37.3847 130.034 37.537C130.137 37.6892 130.287 37.8022 130.462 37.8575C130.65 37.8869 130.951 37.9456 131.328 37.9749C131.704 38.0043 132.193 38.0336 132.758 38.0336V38.6793H127.163V38.0211H128.33L134.125 21.0986L140.151 36.4278L140.569 37.3418C140.795 37.7611 141.322 38.0211 142.074 38.0211L142.07 38.6668ZM135.033 27.5557L133.778 24.4278L132.8 27.5557H135.033Z" stroke="white" stroke-width="0.22" stroke-miterlimit="2.61"/>
<path d="M165.906 38.3139C164.906 38.6342 163.868 38.8135 162.819 38.8464H162.443C162.266 38.8373 162.091 38.8177 161.916 38.7877L160.938 38.6661C158.944 38.2691 156.991 37.688 155.104 36.9302C154.352 36.6325 153.486 36.251 152.466 35.8065C151.445 35.3621 150.584 34.9218 149.718 34.4816L149.681 35.7395V36.2426C149.692 36.4606 149.718 36.6776 149.756 36.8925C149.773 37.1305 149.865 37.3569 150.02 37.5382C150.138 37.7378 150.326 37.8869 150.546 37.9575C150.659 37.9868 150.81 37.9868 150.998 38.0162C151.185 38.0465 151.373 38.0661 151.563 38.0749L152.541 38.0162V38.6619H146.143V38.0204H147.912V24.0749C147.922 23.7352 147.815 23.4024 147.611 23.1315C147.385 22.9554 146.896 22.8673 146.143 22.8673V22.2468H149.702V23.0854C150.12 22.9386 150.567 22.7919 151.094 22.6116C151.512 22.4942 151.96 22.3768 152.524 22.2594C153.022 22.15 153.526 22.0716 154.034 22.0246C154.546 21.9671 155.061 21.9377 155.577 21.9365C155.995 21.9365 156.367 21.9365 156.744 21.9659C157.12 21.9952 157.496 22.0246 157.873 22.0833C159.709 22.2693 161.434 23.0544 162.782 24.3181C163.384 24.8486 163.867 25.5018 164.198 26.2342C164.529 26.9666 164.701 27.7614 164.701 28.5655V28.7416C164.701 30.6577 163.836 32.2803 162.067 33.5759C161.204 34.2211 160.237 34.7106 159.207 35.0225C158.104 35.3326 156.965 35.4906 155.819 35.4921H155.556C155.292 35.49 155.028 35.4704 154.766 35.4334L154.013 35.3453L154.126 35.1105L157.889 36.5822L160.637 37.6724C161.534 37.9816 162.473 38.1513 163.422 38.1755C163.737 38.1736 164.052 38.1441 164.362 38.0875C164.739 38.0288 165.153 37.9114 165.717 37.7604L165.906 38.3139ZM163.196 28.6451C163.196 26.8757 162.359 25.4292 160.687 24.2803C159.897 23.7446 159.029 23.3332 158.115 23.0602C157.135 22.7878 156.121 22.6579 155.104 22.6745C154.113 22.6907 153.129 22.8402 152.177 23.1189C151.727 23.2534 151.287 23.4201 150.86 23.6179C150.472 23.8343 150.095 24.0708 149.731 24.3265V33.6849L150.371 33.2153C151.185 33.7599 152.074 34.1836 153.009 34.4732C153.434 34.6047 153.865 34.7138 154.302 34.8003C154.763 34.86 155.228 34.8894 155.694 34.8883C157.559 34.9257 159.384 34.3467 160.888 33.2405C161.614 32.7184 162.203 32.0277 162.605 31.2274C163.007 30.4271 163.21 29.5411 163.196 28.6451Z" fill="white"/>
<path d="M165.906 38.3139C164.906 38.6342 163.868 38.8135 162.819 38.8464H162.443C162.266 38.8373 162.091 38.8177 161.916 38.7877L160.938 38.6661C158.944 38.2691 156.991 37.688 155.104 36.9302C154.352 36.6325 153.486 36.251 152.466 35.8065C151.445 35.3621 150.584 34.9218 149.718 34.4816L149.681 35.7395V36.2426C149.692 36.4606 149.718 36.6776 149.756 36.8925C149.773 37.1305 149.865 37.3569 150.02 37.5382C150.138 37.7378 150.326 37.8869 150.546 37.9575C150.659 37.9868 150.81 37.9868 150.998 38.0162C151.185 38.0465 151.373 38.0661 151.563 38.0749L152.541 38.0162V38.6619H146.143V38.0204H147.912V24.0749C147.922 23.7352 147.815 23.4024 147.611 23.1315C147.385 22.9554 146.896 22.8673 146.143 22.8673V22.2468H149.702V23.0854C150.12 22.9386 150.567 22.7919 151.094 22.6116C151.512 22.4942 151.96 22.3768 152.524 22.2594C153.022 22.15 153.526 22.0716 154.034 22.0246C154.546 21.9671 155.061 21.9377 155.577 21.9365C155.995 21.9365 156.367 21.9365 156.744 21.9659C157.12 21.9952 157.496 22.0246 157.873 22.0833C159.709 22.2693 161.434 23.0544 162.782 24.3181C163.384 24.8486 163.867 25.5018 164.198 26.2342C164.529 26.9666 164.701 27.7614 164.701 28.5655V28.7416C164.701 30.6577 163.836 32.2803 162.067 33.5759C161.204 34.2211 160.237 34.7106 159.207 35.0225C158.104 35.3326 156.965 35.4906 155.819 35.4921H155.556C155.292 35.49 155.028 35.4704 154.766 35.4334L154.013 35.3453L154.126 35.1105L157.889 36.5822L160.637 37.6724C161.534 37.9816 162.473 38.1513 163.422 38.1755C163.737 38.1736 164.052 38.1441 164.362 38.0875C164.739 38.0288 165.153 37.9114 165.717 37.7604L165.906 38.3139ZM163.196 28.6451C163.196 26.8757 162.359 25.4292 160.687 24.2803C159.897 23.7446 159.029 23.3332 158.115 23.0602C157.135 22.7878 156.121 22.6579 155.104 22.6745C154.113 22.6907 153.129 22.8402 152.177 23.1189C151.727 23.2534 151.287 23.4201 150.86 23.6179C150.472 23.8343 150.095 24.0708 149.731 24.3265V33.6849L150.371 33.2153C151.185 33.7599 152.074 34.1836 153.009 34.4732C153.434 34.6047 153.865 34.7138 154.302 34.8003C154.763 34.86 155.228 34.8894 155.694 34.8883C157.559 34.9257 159.384 34.3467 160.888 33.2405C161.614 32.7184 162.203 32.0277 162.605 31.2274C163.007 30.4271 163.21 29.5411 163.196 28.6451Z" stroke="white" stroke-width="0.22" stroke-miterlimit="2.61"/>
<path d="M181.871 27.7312H181.118V25.2155C181.118 24.2427 180.855 23.5635 180.366 23.27C179.876 22.9765 178.672 22.8004 176.828 22.8004L176.79 35.7689L176.753 36.3308C176.753 37.0981 176.903 37.5886 177.204 37.7731C177.505 37.9576 178.333 38.0121 179.713 38.0121V38.6578H172.345V38.0205H174.942V22.8087H173.587C173.273 22.8005 172.959 22.8103 172.646 22.8381C172.432 22.8413 172.218 22.861 172.006 22.8968C171.837 22.9214 171.672 22.9709 171.517 23.0435C171.364 23.132 171.224 23.2406 171.099 23.3664C170.909 23.6628 170.759 23.9828 170.652 24.3182C170.614 24.4943 170.614 24.7039 170.576 24.9681C170.537 25.1927 170.512 25.4195 170.501 25.6473L170.614 27.7438H169.899V21.0352H170.61V22.2217H181.114V21.0394H181.867L181.871 27.7312Z" fill="white"/>
<path d="M181.871 27.7312H181.118V25.2155C181.118 24.2427 180.855 23.5635 180.366 23.27C179.876 22.9765 178.672 22.8004 176.828 22.8004L176.79 35.7689L176.753 36.3308C176.753 37.0981 176.903 37.5886 177.204 37.7731C177.505 37.9576 178.333 38.0121 179.713 38.0121V38.6578H172.345V38.0205H174.942V22.8087H173.587C173.273 22.8005 172.959 22.8103 172.646 22.8381C172.432 22.8413 172.218 22.861 172.006 22.8968C171.837 22.9214 171.672 22.9709 171.517 23.0435C171.364 23.132 171.224 23.2406 171.099 23.3664C170.909 23.6628 170.759 23.9828 170.652 24.3182C170.614 24.4943 170.614 24.7039 170.576 24.9681C170.537 25.1927 170.512 25.4195 170.501 25.6473L170.614 27.7438H169.899V21.0352H170.61V22.2217H181.114V21.0394H181.867L181.871 27.7312Z" stroke="white" stroke-width="0.22" stroke-miterlimit="2.61"/>
<path d="M69.6197 51.241C69.1917 51.4495 68.7195 51.5503 68.2439 51.5345C67.9273 51.5484 67.6115 51.4938 67.3178 51.3745C67.0242 51.2551 66.7596 51.0737 66.542 50.8427C66.1002 50.3497 65.8703 49.7018 65.9022 49.0398C65.8876 48.6858 65.9437 48.3324 66.0672 48.0005C66.1907 47.6686 66.3792 47.3647 66.6215 47.1068C66.8563 46.8616 67.14 46.6688 67.4542 46.541C67.7683 46.4131 68.1058 46.353 68.4446 46.3647C68.8462 46.3526 69.246 46.4225 69.6197 46.5702V47.1907C69.2572 46.9915 68.8497 46.8889 68.4363 46.893C68.177 46.8838 67.9188 46.9308 67.6792 47.0306C67.4397 47.1305 67.2244 47.2809 67.048 47.4716C66.6762 47.8933 66.4841 48.4442 66.5127 49.0062C66.4849 49.5374 66.6632 50.0588 67.0103 50.4611C67.1768 50.642 67.3804 50.7843 67.6071 50.8785C67.8338 50.9726 68.0782 51.0162 68.3234 51.0062C68.7778 51.0142 69.2259 50.8983 69.6197 50.6708V51.241Z" fill="white"/>
<path d="M72.4548 51.5339C72.1379 51.5479 71.8219 51.4916 71.5292 51.3691C71.2364 51.2467 70.9742 51.061 70.7612 50.8253C70.3212 50.3246 70.0918 49.6723 70.1215 49.0056C70.0841 48.3059 70.3161 47.6184 70.7696 47.0853C70.9955 46.8436 71.271 46.654 71.5771 46.5295C71.8832 46.405 72.2126 46.3486 72.5426 46.3641C72.8557 46.3493 73.1682 46.4044 73.4575 46.5255C73.7468 46.6466 74.0056 46.8307 74.2153 47.0643C74.6565 47.5641 74.8848 48.2174 74.8509 48.884C74.8911 49.588 74.6589 50.2804 74.2027 50.8169C73.9818 51.0579 73.7107 51.2471 73.4086 51.371C73.1065 51.495 72.7808 51.5506 72.4548 51.5339ZM72.5008 46.8924C72.2626 46.8879 72.0263 46.9367 71.8093 47.0354C71.5923 47.134 71.3999 47.28 71.2463 47.4626C70.9031 47.8817 70.7273 48.4136 70.7529 48.9553C70.7278 49.4916 70.8971 50.0188 71.2296 50.4396C71.3818 50.6236 71.574 50.7702 71.7914 50.8683C72.0089 50.9664 72.2458 51.0134 72.4841 51.0056C72.726 51.0156 72.9672 50.9727 73.191 50.8801C73.4148 50.7874 73.6159 50.6471 73.7804 50.4689C74.1173 50.0426 74.2855 49.5066 74.2529 48.9637C74.2887 48.4153 74.127 47.8722 73.7971 47.4333C73.6374 47.2488 73.4372 47.104 73.2123 47.0102C72.9874 46.9163 72.7439 46.876 72.5008 46.8924ZM75.499 51.2404V50.6031C75.8839 50.8831 76.3491 51.0303 76.8246 51.0224C77.1256 51.0355 77.4217 50.942 77.6609 50.7582C77.7653 50.6747 77.8487 50.5679 77.9046 50.4464C77.9605 50.3248 77.9873 50.1918 77.9829 50.058C77.9829 49.4123 77.5647 49.0937 76.6866 49.0937H76.1639V48.6366H76.6406C76.9458 48.6572 77.2486 48.5713 77.4978 48.3935C77.5998 48.3135 77.6809 48.2099 77.734 48.0916C77.7872 47.9733 77.8109 47.8438 77.8031 47.7142C77.8073 47.602 77.7871 47.4902 77.7437 47.3866C77.7004 47.2831 77.635 47.1902 77.5522 47.1146C77.3569 46.9523 77.107 46.8713 76.8539 46.8882C76.4186 46.8941 75.995 47.0299 75.637 47.2782V46.687C76.0224 46.4796 76.4542 46.3743 76.8915 46.3809C77.2926 46.3582 77.689 46.4769 78.0122 46.7163C78.1458 46.8228 78.253 46.9588 78.3255 47.1138C78.3981 47.2687 78.4339 47.4383 78.4303 47.6094C78.4514 47.8956 78.3661 48.1794 78.1908 48.4063C78.0156 48.6331 77.7627 48.7869 77.4811 48.8379C77.7986 48.8556 78.0975 48.9934 78.3174 49.2236C78.5192 49.4454 78.6271 49.737 78.6185 50.0371C78.627 50.2446 78.5877 50.4513 78.5036 50.6411C78.4195 50.8309 78.2928 50.9987 78.1334 51.1314C77.7522 51.4249 77.2796 51.5735 76.7995 51.5507C76.3457 51.5703 75.8954 51.4629 75.499 51.2404ZM83.7075 52.7876H83.1765V51.4459H79.6012V52.7876H79.0618V50.9176H79.4506C79.8053 50.2356 80.0857 49.5172 80.287 48.775C80.5114 48.0183 80.642 47.2367 80.6759 46.448H83.0259V50.9176H83.695L83.7075 52.7876ZM82.453 50.9176V46.9595H81.1986C81.0636 48.329 80.687 49.6635 80.0863 50.9008L82.453 50.9176ZM88.4578 51.4459H87.8139L87.287 50.0496H85.1711L84.6735 51.4459H84.0253L85.9321 46.448H86.5594L88.4578 51.4459ZM87.0905 49.5213L86.3085 47.3788C86.2767 47.2686 86.2516 47.1566 86.2332 47.0433C86.2166 47.1569 86.1914 47.269 86.158 47.3788L85.3802 49.5088L87.0905 49.5213ZM93.2082 51.4459H92.6227V47.8358C92.6185 47.606 92.6311 47.3762 92.6604 47.1482C92.6167 47.2575 92.5635 47.3627 92.5015 47.4626L89.9047 51.4459H89.1938V46.448H89.7792V49.97C89.7864 50.2149 89.7766 50.4601 89.75 50.7037C89.8075 50.5883 89.8717 50.4763 89.9423 50.3683L92.4513 46.448H93.1998L93.2082 51.4459ZM92.4722 44.9301C92.4591 45.0807 92.4153 45.2269 92.3433 45.3596C92.2714 45.4923 92.1729 45.6088 92.054 45.7016C91.8171 45.8919 91.5212 45.9928 91.2177 45.9867C90.9055 46.0004 90.5991 45.899 90.3563 45.7016C90.2453 45.6056 90.1556 45.4874 90.0929 45.3545C90.0303 45.2216 89.996 45.0771 89.9925 44.9301H90.5528C90.5571 45.0589 90.5979 45.1837 90.6706 45.2898C90.7433 45.396 90.8448 45.4791 90.963 45.5294C91.0813 45.5796 91.2114 45.5949 91.338 45.5734C91.4646 45.5519 91.5825 45.4946 91.6777 45.4081C91.8069 45.28 91.8881 45.1112 91.9077 44.9301H92.4722ZM99.8695 51.2195C99.4415 51.428 98.9693 51.5287 98.4937 51.513C98.1771 51.5269 97.8613 51.4723 97.5676 51.3529C97.2739 51.2335 97.0094 51.0522 96.7918 50.8211C96.3683 50.3338 96.1482 49.7017 96.1771 49.0559C96.1625 48.7019 96.2186 48.3486 96.3421 48.0167C96.4656 47.6847 96.654 47.3809 96.8963 47.123C97.1312 46.8778 97.4149 46.685 97.729 46.5571C98.0432 46.4292 98.3807 46.3692 98.7195 46.3809C99.121 46.3687 99.5208 46.4386 99.8946 46.5863V47.2069C99.532 47.0076 99.1245 46.9051 98.7112 46.9092C98.4519 46.9 98.1937 46.9469 97.9541 47.0468C97.7146 47.1466 97.4993 47.297 97.3229 47.4878C96.9511 47.9094 96.7589 48.4603 96.7876 49.0224C96.7598 49.5536 96.9381 50.075 97.2852 50.4773C97.4516 50.6581 97.6552 50.8005 97.882 50.8946C98.1087 50.9887 98.3531 51.0323 98.5983 51.0224C99.0527 51.0304 99.5007 50.9144 99.8946 50.687L99.8695 51.2195ZM100.886 51.4249V46.448H102.303C102.671 46.4282 103.034 46.5396 103.328 46.7624C103.453 46.862 103.553 46.9899 103.619 47.1357C103.685 47.2815 103.716 47.441 103.708 47.601C103.718 47.8648 103.636 48.1238 103.478 48.3348C103.324 48.551 103.101 48.709 102.847 48.7834C103.154 48.805 103.443 48.9393 103.658 49.1608C103.86 49.392 103.966 49.692 103.955 49.9993C103.963 50.1954 103.926 50.3906 103.847 50.5701C103.768 50.7496 103.649 50.9086 103.499 51.035C103.178 51.313 102.765 51.4624 102.341 51.4543L100.886 51.4249ZM101.471 46.9553V48.5696H102.069C102.34 48.5825 102.607 48.5027 102.826 48.3431C102.916 48.2598 102.986 48.1576 103.033 48.0438C103.079 47.9301 103.1 47.8075 103.093 47.6849C103.093 47.1985 102.78 46.9553 102.14 46.9553H101.471ZM101.471 49.0979V50.8966H102.261C102.548 50.9132 102.831 50.827 103.06 50.6534C103.155 50.5703 103.229 50.4667 103.279 50.3506C103.328 50.2344 103.35 50.1086 103.344 49.9826C103.344 49.3914 102.926 49.0979 102.14 49.0979H101.471ZM106.978 51.513C106.661 51.527 106.344 51.4707 106.051 51.3483C105.757 51.2258 105.494 51.0401 105.28 50.8044C104.84 50.3037 104.611 49.6514 104.641 48.9847C104.603 48.2849 104.835 47.5975 105.289 47.0643C105.515 46.8227 105.79 46.633 106.096 46.5085C106.402 46.384 106.732 46.3276 107.062 46.3431C107.375 46.3295 107.687 46.3852 107.976 46.5062C108.265 46.6272 108.524 46.8106 108.734 47.0433C109.173 47.5447 109.399 48.1973 109.366 48.8631C109.413 49.5735 109.182 50.2744 108.722 50.8169C108.502 51.057 108.232 51.2457 107.932 51.3696C107.631 51.4935 107.307 51.5496 106.982 51.5339L106.978 51.513ZM107.02 46.8714C106.778 46.8641 106.538 46.9115 106.317 47.0103C106.096 47.109 105.901 47.2565 105.745 47.4417C105.429 47.8733 105.258 48.3947 105.258 48.9301C105.258 49.4655 105.429 49.987 105.745 50.4186C105.896 50.6033 106.088 50.7505 106.306 50.8487C106.523 50.9468 106.761 50.9934 106.999 50.9847C107.241 50.9946 107.482 50.9518 107.706 50.8591C107.93 50.7665 108.131 50.6262 108.295 50.448C108.629 50.0201 108.796 49.4849 108.764 48.9427C108.8 48.3943 108.638 47.8512 108.308 47.4123C108.148 47.2327 107.949 47.0923 107.727 47.0022C107.504 46.912 107.264 46.8744 107.024 46.8924L107.02 46.8714ZM114.355 51.4249H113.773V47.8148C113.768 47.5851 113.78 47.3554 113.807 47.1272H113.786C113.745 47.2372 113.694 47.3426 113.631 47.4417L111.059 51.4249H110.34V46.448H110.921V49.97C110.929 50.2148 110.921 50.46 110.896 50.7037C110.954 50.5883 111.018 50.4763 111.089 50.3683L113.598 46.448H114.346L114.355 51.4249ZM113.623 44.9092C113.609 45.0595 113.564 45.2053 113.493 45.3379C113.421 45.4705 113.323 45.5871 113.205 45.6807C112.957 45.8658 112.656 45.9658 112.347 45.9658C112.039 45.9658 111.738 45.8658 111.49 45.6807C111.379 45.5847 111.289 45.4664 111.227 45.3336C111.164 45.2007 111.13 45.0561 111.126 44.9092H111.691C111.685 44.998 111.699 45.0871 111.73 45.1702C111.762 45.2534 111.812 45.3286 111.875 45.3908C111.939 45.4529 112.015 45.5005 112.099 45.5303C112.182 45.5601 112.272 45.5713 112.36 45.5633C112.444 45.5657 112.527 45.5514 112.606 45.5212C112.684 45.491 112.755 45.4454 112.816 45.3872C112.943 45.2585 113.023 45.0897 113.042 44.9092H113.623ZM122.709 51.4249H122.128V48.0706C122.128 47.8065 122.128 47.4836 122.174 47.0979C122.137 47.2638 122.087 47.4264 122.024 47.5842L120.322 51.4249H120.012L118.34 47.6345C118.273 47.4678 118.223 47.2951 118.189 47.1188C118.21 47.3201 118.218 47.6471 118.218 48.1V51.4543H117.629V46.448H118.398L119.929 49.9322C120.02 50.126 120.097 50.3264 120.159 50.5318C120.259 50.2635 120.343 50.0538 120.401 49.9197L121.961 46.448H122.693L122.709 51.4249ZM128.037 51.4249H127.456V47.8148C127.451 47.5851 127.462 47.3554 127.489 47.1272H127.468C127.428 47.2372 127.376 47.3426 127.313 47.4417L124.742 51.4249H124.027V46.448H124.612V49.97C124.619 50.2149 124.609 50.4601 124.583 50.7037C124.64 50.5883 124.705 50.4763 124.775 50.3683L127.284 46.448H128.028L128.037 51.4249ZM129.939 49.5339V51.4249H129.358V46.448H130.726C131.177 46.4156 131.624 46.5531 131.98 46.8337C132.132 46.9734 132.25 47.1453 132.327 47.3368C132.403 47.5283 132.436 47.7347 132.423 47.9406C132.43 48.1591 132.389 48.3764 132.304 48.5777C132.219 48.7789 132.091 48.9592 131.93 49.1062C131.565 49.4209 131.093 49.5817 130.613 49.5549L129.939 49.5339ZM129.939 46.9553V49.0056H130.554C130.884 49.0279 131.211 48.9296 131.474 48.7289C131.582 48.6309 131.666 48.51 131.721 48.3751C131.776 48.2401 131.8 48.0945 131.792 47.949C131.792 47.2865 131.403 46.9553 130.625 46.9553H129.939ZM135.296 51.4249V46.448H136.739C137.108 46.429 137.472 46.5403 137.767 46.7624C137.891 46.8628 137.99 46.9911 138.055 47.1367C138.121 47.2824 138.151 47.4414 138.144 47.601C138.153 47.8648 138.072 48.1238 137.914 48.3348C137.76 48.552 137.538 48.7102 137.282 48.7834C137.59 48.805 137.879 48.9393 138.094 49.1608C138.298 49.3908 138.404 49.6917 138.391 49.9993C138.398 50.1954 138.361 50.3906 138.282 50.5701C138.203 50.7496 138.084 50.9086 137.935 51.035C137.614 51.3137 137.201 51.4632 136.776 51.4543L135.296 51.4249ZM135.902 46.9595V48.5737H136.5C136.771 48.5867 137.038 48.5069 137.257 48.3473C137.347 48.264 137.418 48.1618 137.464 48.048C137.51 47.9343 137.531 47.8117 137.525 47.6891C137.525 47.2027 137.211 46.9595 136.572 46.9595H135.902ZM135.902 49.1021V50.9008H136.693C136.979 50.9182 137.263 50.8319 137.491 50.6576C137.586 50.5745 137.661 50.4709 137.71 50.3548C137.759 50.2386 137.782 50.1128 137.776 49.9867C137.776 49.3956 137.379 49.1021 136.572 49.1021H135.902ZM143.183 51.4291H142.593V46.993H139.988V51.4459H139.407V46.448H143.17L143.183 51.4291ZM147.122 51.4291H144.479V46.448H146.988V46.9595H145.043V48.6366H146.846V49.1649H145.043V50.9134H147.101L147.122 51.4291ZM151.437 51.4291H150.852V49.1817C150.399 49.4383 149.891 49.5821 149.371 49.601C149.003 49.6238 148.64 49.502 148.359 49.2614C148.237 49.1363 148.143 48.987 148.082 48.8231C148.02 48.6592 147.994 48.4843 148.004 48.3096V46.4312H148.589V48.2802C148.589 48.8169 148.874 49.0895 149.426 49.0895C149.918 49.0679 150.4 48.9361 150.835 48.7037V46.4312H151.42L151.437 51.4291ZM156.652 51.4291H155.974L155.447 50.0329H153.331L152.834 51.4291H152.211L154.118 46.4312H154.72L156.652 51.4291ZM155.284 49.5046L154.486 47.3788C154.452 47.2688 154.425 47.1567 154.406 47.0433C154.391 47.1573 154.366 47.2696 154.331 47.3788L153.553 49.5088L155.284 49.5046Z" fill="white"/>
<path d="M159.809 46.9765H158.37V51.4461H157.785V46.9765H156.346V46.4482H159.809V46.9765Z" fill="white"/>
<path d="M163.668 51.4464H163.083V46.96H161.703C161.54 48.2179 161.419 49.111 161.327 49.6309C161.266 50.0215 161.171 50.4059 161.042 50.7797C160.973 50.9977 160.838 51.1893 160.658 51.329C160.488 51.4526 160.282 51.516 160.072 51.5093C159.91 51.5141 159.749 51.49 159.595 51.438V50.8887C159.716 50.9541 159.851 50.9887 159.989 50.9894C160.074 50.9831 160.157 50.9561 160.229 50.9109C160.302 50.8656 160.363 50.8033 160.407 50.7294C160.612 50.308 160.742 49.8539 160.791 49.3877C160.925 48.6665 161.067 47.6812 161.21 46.4527H163.664L163.668 51.4464ZM167.628 51.4464H164.986V46.4485H167.515V46.96H165.592V48.6372H167.394V49.1655H165.592V50.9139H167.649L167.628 51.4464ZM172.337 51.4464H171.751V49.1697H169.176V51.4464H168.59V46.4485H169.176V48.6372H171.751V46.4443H172.337V51.4464ZM177.664 51.4464H177.083V47.8363C177.078 47.6066 177.089 47.3768 177.116 47.1487H177.096C177.055 47.2595 177.002 47.3651 176.937 47.4632L174.373 51.4464H173.654V46.4485H174.235V49.9705C174.243 50.2154 174.235 50.4605 174.21 50.7042C174.268 50.5888 174.332 50.4768 174.403 50.3688L176.912 46.4485H177.66L177.664 51.4464ZM183 51.4464H182.415V47.8363C182.41 47.6065 182.423 47.3767 182.452 47.1487H182.431C182.391 47.2595 182.338 47.3651 182.272 47.4632L179.705 51.4464H178.973V46.4485H179.554V49.9705C179.564 50.2155 179.554 50.4608 179.525 50.7042C179.583 50.5888 179.647 50.4768 179.717 50.3688L182.226 46.4485H182.975L183 51.4464ZM182.268 44.9307C182.254 45.0809 182.21 45.2268 182.138 45.3594C182.066 45.492 181.968 45.6086 181.85 45.7022C181.602 45.8873 181.302 45.9873 180.993 45.9873C180.684 45.9873 180.383 45.8873 180.136 45.7022C180.025 45.6062 179.935 45.4879 179.872 45.355C179.809 45.2222 179.775 45.0776 179.772 44.9307H180.336C180.33 45.0195 180.344 45.1086 180.376 45.1917C180.408 45.2748 180.457 45.3501 180.521 45.4122C180.584 45.4744 180.66 45.522 180.744 45.5518C180.828 45.5816 180.917 45.5928 181.005 45.5848C181.174 45.5888 181.338 45.5255 181.461 45.4087C181.589 45.28 181.668 45.1112 181.687 44.9307H182.268Z" fill="white"/>
</svg>
