<svg width="183" height="60" viewBox="0 0 183 60" fill="none" xmlns="http://www.w3.org/2000/svg">
<g clip-path="url(#clip0_301_1945)">
<path fill-rule="evenodd" clip-rule="evenodd" d="M29.9237 59.6855C46.1233 59.6855 59.4919 46.4822 59.5212 30.2516C59.5709 24.3695 57.8767 18.6052 54.6535 13.6903C51.4304 8.77539 46.8237 4.9314 41.418 2.64619C36.0123 0.360983 30.0514 -0.262412 24.2918 0.855122C18.5321 1.97266 13.2335 4.78074 9.06821 8.92298C4.90295 13.0652 2.05891 18.3549 0.897026 24.1206C-0.26486 29.8864 0.307794 35.8683 2.54231 41.3071C4.77683 46.746 8.57247 51.3966 13.4475 54.6687C18.3226 57.9408 24.0572 59.687 29.9237 59.6855ZM29.9237 3.19916C29.9073 3.18487 29.892 3.16946 29.8777 3.15304L29.8359 3.10692C29.8209 3.09402 29.8069 3.08 29.7941 3.06499L28.3932 1.80713L31.45 1.83648C31.3789 1.96646 30.8311 2.28092 30.6597 2.44864C30.3962 2.7044 30.1913 2.93501 29.9237 3.19916ZM19.4947 3.77359C20.7701 3.42558 22.2212 2.65828 23.9691 2.41929C23.484 3.09853 22.8484 3.45074 22.656 4.826C20.9081 4.19287 22.2922 4.31866 19.4947 3.77359ZM37.183 4.826C36.9906 3.3543 36.1668 2.90985 35.8658 2.43187C37.4799 2.70021 38.8556 3.33753 40.2648 3.74004C39.9669 3.83695 39.6601 3.90436 39.3491 3.9413C38.3789 4.19287 37.8897 4.58281 37.183 4.84277V4.826ZM17.5001 5.83648C18.7546 5.63522 19.34 5.26206 20.6949 5.78616C22.3466 6.41929 24.1823 8.15933 25.5832 8.27254C26.0656 8.31877 26.5507 8.21982 26.9768 7.9883C27.4028 7.75679 27.7504 7.40323 27.9751 6.97275C29.0623 4.97694 27.2015 3.70231 26.0181 4.51153C25.3866 4.93082 25.8843 5.28721 26.0766 5.72746C26.6662 7.0608 24.8221 6.85115 24.3287 5.91614C23.7767 4.89308 24.6381 3.65619 25.165 3.32076C27.0886 2.06289 29.0456 4 29.3132 5.75681C29.7313 8.40252 26.386 10.8847 22.8275 9.07338C20.3185 7.79455 18.2277 5.98742 14.9117 6.1761C15.8934 5.48517 16.9463 4.90182 18.0521 4.43606C17.7565 4.8505 17.567 5.3314 17.5001 5.83648ZM44.9315 6.17191C42.6525 6.08386 40.9799 6.83858 39.3072 7.76939C38.5127 8.22222 37.7642 8.66247 36.9572 9.10273C33.8126 10.8176 30.0408 8.59539 30.5258 5.68554C30.8144 4.00839 32.7923 2.01258 34.6656 3.32914C35.1591 3.67296 36.0498 4.8847 35.502 5.90356C34.9542 6.92243 33.177 7.03564 33.7582 5.72327C33.9715 5.24948 34.4231 4.8847 33.7791 4.46541C32.6627 3.74424 30.7809 4.8847 31.864 6.95598C32.0881 7.38723 32.4354 7.74167 32.8615 7.97395C33.2875 8.20624 33.773 8.30582 34.2558 8.25996C35.1591 8.18449 36.1418 7.48428 36.7648 7.09015C37.5097 6.5772 38.3006 6.13503 39.1274 5.76939C40.4405 5.28302 41.051 5.58491 42.3138 5.8239C42.2636 5.31677 42.0772 4.83278 41.7744 4.42348C42.8873 4.88887 43.946 5.47518 44.9315 6.17191ZM18.926 12.1593C19.0599 10.4319 18.027 8.90147 16.5551 8.72956C15.0121 8.54927 13.4816 10.2851 14.3179 11.7904C14.3558 11.8803 14.4116 11.9616 14.4818 12.0293C14.552 12.0969 14.6351 12.1496 14.7262 12.1841C14.8173 12.2186 14.9145 12.2342 15.0118 12.23C15.1091 12.2257 15.2045 12.2017 15.2922 12.1593C15.6226 11.9916 15.6727 11.6143 15.7773 11.2453C16.2582 9.61426 18.6542 11.6101 16.4171 13.3417C16.0867 13.5511 15.7039 13.6623 15.3131 13.6623C14.9223 13.6623 14.5395 13.5511 14.2092 13.3417C10.6506 11.3208 13.2349 7.32914 16.7265 7.78616C18.1984 7.97904 20.4691 9.54298 22.7062 10.4025C23.1244 10.566 24.5838 10.9937 24.797 11.1363C24.4327 11.5779 24.1354 12.0709 23.9147 12.5996C23.6756 13.249 23.6037 13.9484 23.7056 14.6331C23.7726 15.2046 23.9735 15.7521 24.2918 16.2308C24.6101 16.7096 25.0368 17.1061 25.5372 17.3878C25.4494 17.4465 23.4087 18.3354 23.392 18.3396C23.5492 17.7821 23.5669 17.1943 23.4436 16.6283C23.3204 16.0623 23.0599 15.5354 22.6853 15.0943C21.9452 14.218 21.4308 14.0084 20.214 13.3669C21.1967 13.044 22.2588 12.4361 22.3968 11.2704C21.0378 10.3732 19.1686 12.0461 18.926 12.1593ZM35.0211 11.153C35.2971 10.9811 36.723 10.5786 37.183 10.3983C37.898 10.1132 38.5336 9.82809 39.1818 9.52201C40.4363 8.93501 41.6489 7.97904 43.1752 7.79455C43.9404 7.69637 44.7174 7.82658 45.4091 8.16889C46.1008 8.5112 46.6765 9.05041 47.0641 9.71908C48.3813 11.8784 44.9733 14.805 43.3383 13.2872C41.8078 11.8826 42.6442 10.8008 43.2798 10.6751C44.3419 10.4654 43.8443 11.9329 44.6053 12.1929C44.7831 12.2539 44.9774 12.2445 45.1484 12.1666C45.3195 12.0886 45.4543 11.948 45.5253 11.7736C46.3616 10.2725 44.8061 8.49057 43.2087 8.72956C41.766 8.9434 40.8001 10.4067 40.913 12.1468L40.7374 12.0377C39.809 11.413 38.5796 10.5912 37.4381 11.304C37.5241 11.6903 37.6953 12.0524 37.9391 12.3637C38.183 12.6749 38.4933 12.9275 38.8473 13.1027C38.9853 13.1698 39.1149 13.2117 39.2654 13.2662L39.6209 13.434C37.7851 13.9371 35.7403 16.0964 36.447 18.3438C36.3676 18.3438 34.4398 17.5052 34.2977 17.392C34.8053 17.1034 35.2366 16.6969 35.5553 16.2066C35.874 15.7164 36.0708 15.1567 36.1292 14.5744C36.3257 12.9644 35.7403 12.1593 35.0211 11.1363V11.153ZM8.8149 11.413C9.58019 10.4807 10.433 9.62423 11.3615 8.85535C10.9852 9.87422 10.8513 9.98742 11.1273 11.174C9.94812 10.9015 9.81431 11.0105 8.8149 11.3962V11.413ZM48.7117 11.174C48.9835 9.86164 48.8371 9.95807 48.4817 8.85954C49.4083 9.61713 50.2571 10.4655 51.0158 11.392C50.0122 11.0398 49.9369 10.8763 48.7117 11.1572V11.174ZM30.4339 13.1321C31.7594 14.0294 32.6459 13.3711 33.4153 12.3732C32.9972 12.0964 32.2654 12.1887 31.3245 11.4591C31.0257 11.2375 30.7837 10.9478 30.6187 10.6139C30.4536 10.28 30.3702 9.91144 30.3753 9.53878L33.6119 11.3795C34.1026 11.8194 34.4361 12.4085 34.5611 13.0566C34.7284 13.9623 34.4733 14.499 34.2099 15.174C33.8991 14.9728 33.5781 14.788 33.2481 14.6205C31.7803 14.0964 31.0485 15.652 31.8472 16.7715C31.3622 16.8134 30.5049 16.6751 29.9237 16.6751C29.2797 16.6751 28.5605 16.7966 27.9876 16.7757C28.3849 16.0461 28.5103 15.0985 27.7702 14.6792C26.8 14.1258 25.9846 15.0105 25.6334 15.153C25.3783 14.457 25.0939 14.0084 25.2779 13.0314C25.5748 11.4172 26.8628 11.0147 27.7869 10.478C28.325 10.1301 28.8836 9.81511 29.4595 9.53459C29.3215 11.9916 26.8 12.0797 26.4237 12.3606C27.26 13.434 27.9625 13.9581 29.3801 13.1321C29.3383 13.4591 28.6943 15.1237 29.907 15.8029C30.8938 15.1614 30.6513 14.327 30.4339 13.1321ZM11.1064 24.8721C10.9517 24.6331 10.5126 23.1363 10.3496 22.7044C10.0819 22.0042 9.77667 21.3249 9.47978 20.7002C8.89853 19.4801 7.9284 18.2096 7.75695 16.6918C7.65684 15.9256 7.7858 15.1468 8.12749 14.4541C8.46917 13.7615 9.00821 13.1861 9.67631 12.8008C11.9511 11.4885 14.7193 14.9308 13.2307 16.5325C11.8675 18.0042 10.7677 17.3082 10.6297 16.5912C10.4165 15.5094 11.8424 16.0252 12.1351 15.2621C12.194 15.0872 12.1869 14.8968 12.1152 14.7268C12.0436 14.5569 11.9123 14.4191 11.7462 14.3396C10.2283 13.4256 8.45528 15.1153 8.69782 16.6541C8.92362 18.0964 10.3705 19.0943 12.11 18.9644C11.9302 19.3836 11.5622 19.543 11.2068 20.4948C10.9524 21.1109 10.9524 21.8031 11.2068 22.4193C11.834 22.4654 12.2982 21.9623 12.6118 21.6562C13.0592 21.2369 13.1052 20.914 13.3394 20.26C14.0419 21.5178 14.1005 21.9371 15.0706 22.7254C15.5007 23.1125 16.0213 23.3845 16.5841 23.5165C17.1469 23.6484 17.7337 23.6359 18.2904 23.4801C18.2904 23.543 17.4248 25.4969 17.3412 25.6268C17.0678 25.1317 16.679 24.7102 16.208 24.3983C14.2677 23.174 12.5449 23.8029 11.1064 24.8889V24.8721ZM47.7248 18.9602C49.4393 19.0943 50.9572 18.0881 51.1454 16.5828C51.3336 15.0776 49.4727 13.4507 48.1054 14.3396C47.9252 14.4204 47.7841 14.5692 47.7129 14.7538C47.6416 14.9383 47.6459 15.1436 47.7248 15.3249C47.8921 15.6436 48.2726 15.6981 48.6448 15.8071C49.6944 16.1258 49.1717 17.1488 48.4733 17.3501C47.3568 17.6646 45.4291 16.1593 46.5163 14.2264C48.4859 10.7296 52.5379 13.195 52.0653 16.7715C51.8897 18.13 50.9029 19.6436 50.3342 20.7589L49.0797 23.8449C48.9954 24.1937 48.885 24.5357 48.7493 24.8679C48.3008 24.5154 47.8106 24.2197 47.2899 23.9874C46.4302 23.6469 45.4778 23.6235 44.6024 23.9214C43.7271 24.2194 42.9857 24.8193 42.5104 25.6143C42.4142 25.4675 41.6029 23.6268 41.5528 23.4759C44.5426 24.0168 45.4626 22.1258 46.508 20.2516C46.784 21.2662 47.5659 22.348 48.5988 22.4361C49.4435 21.0189 47.9255 19.3962 47.7248 18.9769V18.9602ZM4.42002 18.0964C4.88776 16.9884 5.47084 15.9329 6.15958 14.9476C5.87941 20.0377 10.2576 22.2977 9.60104 26.1258C9.29579 27.9036 7.71932 29.7945 5.60342 29.3627C3.85132 29.0021 2.01978 26.9979 3.3788 25.1279C3.7426 24.6247 5.07654 23.8197 6.00067 24.457C6.92481 25.0943 6.91645 26.8302 5.60342 26.0881C5.13926 25.8281 4.82564 25.5597 4.4702 26.1384C4.34382 26.3477 4.27117 26.5852 4.25877 26.8296C4.24636 27.074 4.29458 27.3177 4.39912 27.5388C5.03472 28.935 7.11717 28.4403 7.92004 27.1195C8.81072 25.6646 7.78622 24.2432 7.08371 23.0985C6.56867 22.3531 6.12618 21.5598 5.76232 20.7296C5.22708 19.3249 5.63687 18.8134 5.8125 17.5304C5.05981 17.6562 5.01799 17.7862 4.42002 18.0964ZM14.6357 19.9748C13.9876 18.3816 14.8155 17.5514 14.9828 16.0922C15.4009 16.239 16.2373 17.5136 15.8693 18.6331C15.8156 18.7827 15.741 18.9239 15.6477 19.0524L15.3926 19.4088C15.5389 19.5094 15.2128 19.3417 15.564 19.5136L16.0909 19.6478C16.9607 19.7275 17.2869 19.3836 17.7636 18.8679C18.1817 19.2327 18.7086 19.7484 19.6495 19.7065C19.7122 18.5618 19.0808 18.3312 18.8424 17.7484C19.6578 17.3291 19.6787 16.4906 19.4487 15.4465C18.8257 15.6688 18.6124 16.2055 17.5587 15.9874C17.0109 15.8742 16.1829 15.4088 16.0449 15.0314C17.5085 14.914 18.2486 14.021 19.9171 14.6876C20.4306 14.9015 20.8915 15.2248 21.2677 15.6352C21.4838 15.8812 21.6377 16.1758 21.7163 16.4939C21.7949 16.8121 21.796 17.1446 21.7194 17.4633C21.2677 17.4633 20.1513 17.3124 19.9965 18.4403C19.9685 18.7919 20.0788 19.1406 20.3038 19.4117C20.5289 19.6828 20.8509 19.8549 21.2008 19.891C21.0419 20.1593 20.6196 20.4319 20.2098 20.9182L19.8293 21.2621C19.7122 20.5786 19.1602 19.891 18.3113 20.0671C17.2325 20.2851 17.4081 21.3836 17.4123 21.7862C16.0365 21.9832 15.1459 21.2117 14.6357 19.9748ZM38.1071 17.4591C37.7559 15.283 40.1561 14.0797 42.0169 14.5828C42.2971 14.6583 43.6101 15.0021 43.7816 15.0692C43.3807 15.5401 42.8374 15.867 42.2344 16C41.3688 16.1468 41.0301 15.8155 40.4823 15.4382C40.3524 15.6435 40.268 15.8744 40.2348 16.1153C40.2016 16.3562 40.2204 16.6014 40.2899 16.8344C40.3354 17.028 40.4201 17.2102 40.5388 17.3696C40.6575 17.529 40.8077 17.6622 40.9799 17.761C40.7959 18.1803 40.1185 18.5996 40.1728 19.7107C40.5204 19.7214 40.8661 19.6548 41.1849 19.5156C41.5038 19.3764 41.7879 19.1681 42.0169 18.9057L42.502 19.3249C42.7792 19.5251 43.109 19.639 43.4503 19.6524C43.7917 19.6658 44.1294 19.5782 44.4214 19.4004L44.3252 19.2872C44.3136 19.2697 44.3011 19.2529 44.2875 19.2369C44.1026 19.0139 43.972 18.7508 43.906 18.4685C43.8399 18.1861 43.8403 17.8922 43.907 17.6101C44.0389 17.0099 44.3671 16.4712 44.8395 16.0797C45.0528 17.3669 45.772 18.6247 45.2075 19.9748C44.7893 20.9434 43.8819 22.1635 42.4184 21.7694C42.4476 21.3501 42.5689 21.0734 42.3055 20.6499C42.2186 20.4961 42.0983 20.3638 41.9535 20.2629C41.8088 20.162 41.6432 20.0951 41.4691 20.0671C40.5994 19.9371 40.3066 20.6038 40.0557 21.0482C39.9136 21.3082 40.0557 21.1321 39.8927 21.2788C39.5874 20.717 39.0898 20.4403 38.6382 19.9539C39.232 19.6646 39.9679 19.3543 39.8467 18.457C39.8146 18.285 39.7471 18.1215 39.6485 17.9771C39.5498 17.8327 39.4222 17.7106 39.2738 17.6185C38.8891 17.3501 38.5671 17.4507 38.1197 17.4633L38.1071 17.4591ZM55.4023 18.0922C54.9896 17.7867 54.5002 17.6023 53.9889 17.5598C54.6621 20.4948 54.0349 21.0063 52.7762 23.0692C52.3581 23.7526 51.7015 24.6541 51.5845 25.5849C51.5214 26.0719 51.6077 26.5665 51.8318 27.0032C52.0559 27.4398 52.4071 27.7977 52.8389 28.0294C55.0176 29.2453 56.1466 27.0901 55.3019 26.0503C54.8043 25.4424 54.5032 26.0503 54.0683 26.1803C52.6884 26.6583 53.1066 24.7757 53.9847 24.3732C55.0343 23.891 56.1591 24.7296 56.5229 25.2453C57.8485 27.1237 55.7744 29.1572 54.0976 29.3962C52.7595 29.5891 52.1239 29.0566 51.4381 28.4528C49.9453 27.1363 49.8198 24.6792 50.7858 22.8805C52.0821 20.4319 53.9178 18.0503 53.6711 14.9434C54.3622 15.9295 54.9467 16.9864 55.4148 18.0964L55.4023 18.0922ZM2.42958 24.0335C2.64702 22.2935 3.54607 20.5451 3.76351 19.5514C4.3113 22.3732 4.20258 21.0147 4.81728 22.7254C3.50425 22.8805 3.11118 23.5304 2.42958 24.0335ZM55.005 22.717C55.1723 22.239 55.4901 21.761 55.6908 21.2243C55.8686 20.6786 55.9933 20.117 56.063 19.5472C56.41 20.805 57.1711 22.26 57.4136 24.0294C56.7069 23.5304 56.3515 22.8973 55.005 22.717ZM9.51323 29.5597C9.7928 28.9822 10.107 28.4221 10.4541 27.8826C10.9893 26.9266 11.42 25.6394 13.0049 25.3669C13.7264 25.2307 14.4727 25.3713 15.0957 25.761C14.8949 26.0578 14.716 26.3689 14.5604 26.6918C14.1715 27.8281 15.0455 28.9769 16.7349 28.088C16.7767 29.6604 16.5133 29.3459 16.76 31.9539C15.9236 31.5975 15.0121 31.3962 14.6064 32.2306C14.1297 33.2076 14.9619 33.9455 15.1208 34.327C14.4224 34.5744 13.9457 34.8512 13.0007 34.6792C12.3786 34.5521 11.8106 34.2359 11.3741 33.7736L9.52159 30.4403C11.8884 30.608 12.0306 32.956 12.3316 33.4843C13.2432 32.8721 14.0043 31.8491 13.0927 30.5199C14.2385 30.7086 15.1835 30.9769 15.7606 30.0042C15.3006 29.1405 14.2385 29.2075 13.1387 29.4717C13.352 28.9476 13.6781 28.3019 13.3394 27.6017C13.1342 27.1174 12.7594 26.7252 12.2856 26.499C11.9469 28.1384 11.2904 29.434 9.51323 29.5597ZM45.0235 33.8239C45.2052 33.5884 45.3182 33.3069 45.35 33.0108C45.3817 32.7147 45.331 32.4156 45.2033 32.1467C44.7852 31.392 43.8736 31.5933 43.0707 31.9203C43.1899 30.6373 43.1899 29.3459 43.0707 28.0629C43.907 28.3774 44.7768 28.6667 45.22 27.7778C45.6633 26.8889 44.8521 26.0252 44.7392 25.7317C45.9936 24.8637 47.7583 25.4172 48.4608 26.2516L50.3216 29.5514C47.9172 29.4004 47.775 26.9434 47.5116 26.5031C46.1233 27.4298 46.1776 28.1803 46.7003 29.4675C46.0522 29.3082 44.5677 28.9434 44.0701 29.9958C44.7642 31.1698 46.2947 30.5828 46.7463 30.5199C46.5482 30.7646 46.4168 31.0566 46.3647 31.3675C46.3127 31.6783 46.3419 31.9973 46.4494 32.2935C46.6599 32.7978 47.0342 33.216 47.5116 33.4801C47.7332 33.1237 47.7416 32.2222 48.3855 31.4423C48.602 31.1298 48.8909 30.8746 49.2274 30.6986C49.5639 30.5226 49.9379 30.431 50.3174 30.4319L48.4566 33.7358C48.0205 34.1981 47.4547 34.5168 46.8341 34.6499C45.9309 34.8218 45.3915 34.566 44.7141 34.3019L45.0235 33.8239ZM1.82324 28.4738C1.94033 28.5409 2.29995 29.1279 2.43376 29.2662L3.18645 30.0042C2.91464 30.2767 2.69302 30.478 2.43376 30.7421C2.29576 30.8847 1.96123 31.4507 1.79815 31.5346L1.82324 28.4738ZM56.6484 30.0042C56.6864 29.9533 56.7315 29.9082 56.7822 29.87L56.8742 29.7904C56.9348 29.7442 56.9908 29.6922 57.0415 29.6352C57.3514 29.3033 57.6431 28.9548 57.9154 28.5912C57.9154 28.5912 57.9614 28.5912 57.9698 28.5367C57.9781 28.4822 58.0032 28.499 58.0241 28.4822L57.9196 31.4172C57.9022 31.4025 57.8867 31.3856 57.8736 31.3669L57.6603 31.065C57.3526 30.6841 57.0142 30.3293 56.6484 30.0042ZM5.81668 42.4444C5.60342 41.1237 5.24798 40.5954 5.78741 39.195C6.41465 37.5556 8.17093 35.7275 8.25456 34.2725C8.39674 31.8532 5.15599 30.717 4.37403 32.5283C4.2767 32.7611 4.24022 33.015 4.26802 33.2659C4.29583 33.5169 4.387 33.7565 4.53293 33.9623C5.00127 34.5157 5.30234 33.9623 5.76232 33.8197C7.1088 33.3333 6.78264 35.1488 5.82923 35.6226C4.87582 36.0964 3.67151 35.2579 3.32026 34.7841C1.96542 32.8847 4.05204 30.8763 5.73723 30.608C7.82804 30.2809 9.37106 32.1971 9.62613 34.021C10.1488 37.74 5.90868 39.891 6.15539 45.0524C5.46974 44.0629 4.88817 43.0049 4.42002 41.8952C4.82923 42.1984 5.31102 42.3878 5.81668 42.4444ZM53.6794 45.0692C53.8049 39.6184 49.6233 37.7526 50.2171 33.9497C50.769 30.4319 54.637 29.4675 56.4184 32.0713C58.0576 34.4654 55.327 36.3438 53.9554 35.6059C52.9518 35.0692 52.8306 33.2579 54.1394 33.8532C54.6287 34.0797 54.9507 34.5031 55.3688 33.8532C55.5006 33.6252 55.57 33.3663 55.57 33.1027C55.57 32.8391 55.5006 32.5802 55.3688 32.3522C54.3611 30.6751 51.2416 32.0671 51.6054 34.4948C51.8019 35.8449 53.5749 37.761 54.1143 39.3669C54.5827 40.7547 54.1938 41.2159 54.0098 42.4277C54.5162 42.3781 55.0008 42.1959 55.4148 41.8994C54.9305 43.0051 54.3498 44.0659 53.6794 45.0692ZM3.72588 40.3774C3.34535 38.9937 2.65956 37.5556 2.42539 35.9665C2.61692 36.112 2.79724 36.2718 2.96482 36.4444C3.61297 37.0273 4.11058 37.0608 4.79637 37.283C4.69183 37.7358 4.13986 38.5241 3.91405 39.5304C3.88993 39.82 3.82662 40.1049 3.72588 40.3774ZM55.005 37.2746C55.4998 37.2171 55.9755 37.0495 56.3975 36.7841C56.5856 36.6775 56.7598 36.548 56.916 36.3983C57.0706 36.244 57.2385 36.1037 57.4178 35.979C57.2697 36.7621 57.0727 37.5351 56.8282 38.2935C56.6108 39.0273 56.2804 39.7442 56.1173 40.3899C56.104 40.3678 56.0942 40.3438 56.0881 40.3187L56.017 40.1006C55.4399 37.6604 55.6657 39.0524 55.005 37.2746ZM11.0981 35.1195C11.5372 35.4866 12.031 35.7823 12.5616 35.9958C13.4185 36.3387 14.3692 36.3645 15.2434 36.0688C16.1176 35.773 16.8583 35.1749 17.3329 34.3815C17.3705 34.4319 18.2737 36.4444 18.2988 36.5241C16.806 36.2432 16.0198 36.5241 15.0664 37.2621C14.2971 37.9139 13.719 38.7632 13.3938 39.7191C13.378 39.7033 13.3653 39.6849 13.3561 39.6646C13.3426 39.6471 13.3301 39.6289 13.3185 39.6101L13.1931 39.3166C12.892 38.478 12.11 37.6394 11.2653 37.5514C10.705 38.348 11.1441 39.5514 11.6208 40.3187L12.1267 41.0189C11.2943 40.9063 10.4512 41.1278 9.78085 41.6352C7.27188 43.4633 9.65122 46.826 11.7379 45.6478C11.8279 45.61 11.9094 45.5545 11.9776 45.4844C12.0457 45.4144 12.0992 45.3314 12.1347 45.2402C12.1702 45.1491 12.187 45.0517 12.1842 44.9539C12.1814 44.8561 12.159 44.7598 12.1184 44.6709C11.9427 44.3103 11.5539 44.2893 11.1441 44.1593C9.7014 43.6981 11.4159 41.3208 13.2767 43.4969C14.7026 45.174 11.8006 48.5493 9.62613 47.1572C8.97421 46.7651 8.45029 46.1911 8.11835 45.5054C7.78642 44.8196 7.66084 44.0517 7.75695 43.2956C7.92422 41.7778 8.9278 40.478 9.50905 39.2327C9.81431 38.587 10.1154 37.9161 10.3746 37.2243C10.5252 36.8176 10.9559 35.3543 11.1064 35.1195H11.0981ZM45.3079 36.2138C47.0223 36.4403 47.7374 35.7526 48.741 35.1069C49.0002 35.8239 49.2009 36.5451 49.4853 37.2872C50.3509 39.522 51.8939 41.7694 52.0695 43.304C52.4668 46.8008 48.4775 49.3082 46.4871 45.7065C46.2621 45.3683 46.1512 44.9667 46.1707 44.5607C46.1903 44.1546 46.3393 43.7656 46.5958 43.4507C48.5193 41.3291 50.1167 43.7317 48.6281 44.1761C48.235 44.2935 47.8294 44.3312 47.6872 44.7212C47.6261 44.9 47.6354 45.0954 47.7131 45.2676C47.7908 45.4398 47.9311 45.5758 48.1054 45.6478C49.5731 46.4864 51.3796 44.9057 51.1412 43.3417C50.8778 41.6436 49.226 40.9308 47.7123 41.0147C48.2141 40.2642 49.3557 38.8386 48.5737 37.5514C47.5158 37.6184 46.8007 38.7338 46.4829 39.7275C45.9142 38.5828 45.5629 37.8994 44.7642 37.2621C43.8359 36.5199 43.0038 36.2348 41.5319 36.5157C41.5695 36.4067 42.4351 34.457 42.4894 34.3732C42.7751 34.888 43.182 35.3248 43.6748 35.6457C44.1675 35.9665 44.731 36.1616 45.3162 36.2138H45.3079ZM39.9512 38.7296C40.1477 39.2117 40.1185 39.2788 40.4655 39.5975C41.1639 40.2432 42.6149 40.1342 42.3891 38.239C43.8694 37.8616 44.7768 39.0482 45.1866 40.0294C45.8222 41.5597 44.9984 42.4864 44.8312 43.891C44.4757 43.8029 43.9948 42.9392 43.8819 42.4025C43.6352 41.2369 44.3001 40.9853 44.4297 40.4906C43.9112 40.3732 43.5934 40.2096 42.9829 40.3983C42.6379 40.5523 42.3267 40.7732 42.0671 41.0482C42.0671 41.0482 42.0378 41.0776 42.0211 41.086C41.7878 40.8267 41.5016 40.6206 41.1821 40.4817C40.8625 40.3429 40.5169 40.2744 40.1686 40.2809C40.1688 40.6311 40.2409 40.9775 40.3805 41.2985C40.5201 41.6196 40.7241 41.9083 40.9799 42.1467C40.4655 42.8973 39.9679 42.7463 40.3861 44.566C40.8043 44.4277 41.1639 43.7736 42.2887 44.0126C42.8072 44.1216 43.677 44.6122 43.7816 44.9644C42.3264 45.1027 41.4859 45.9916 39.8676 45.2956C38.9393 44.8763 37.735 43.9581 38.1447 42.5157C39.0312 42.5912 39.7045 42.4654 39.8174 41.5639C39.9303 40.6625 39.2236 40.3312 38.6089 40.0671L39.9512 38.7296ZM15.0539 43.9161C14.9619 43.7065 14.6357 42.3774 14.5521 42.0797C14.3988 41.4699 14.4152 40.8297 14.5995 40.2287C14.7838 39.6277 15.129 39.0889 15.5975 38.6709C15.8524 38.465 16.1494 38.318 16.4675 38.2405C16.7855 38.1629 17.1167 38.1567 17.4374 38.2222C17.4374 38.717 17.3329 39.0608 17.6005 39.4298C17.7882 39.7016 18.0751 39.8884 18.3992 39.9497C18.7491 39.9755 19.0953 39.8633 19.364 39.6369C19.6327 39.4106 19.8026 39.088 19.8376 38.7379C20.1596 38.9182 20.2265 39.1111 20.5401 39.4214C20.7345 39.6422 20.9615 39.8317 21.2134 39.9832C21.0461 40.1677 20.929 40.1593 20.7074 40.2851C20.46 40.4046 20.2584 40.6022 20.1338 40.8476C20.0092 41.093 19.9683 41.3727 20.0174 41.6436C20.0589 41.8126 20.136 41.9708 20.2434 42.1074C20.3509 42.2441 20.4863 42.3562 20.6405 42.4361C21.0587 42.6583 21.3054 42.5451 21.7026 42.5199C22.0999 43.9958 20.8914 44.9057 19.9213 45.3166C18.5664 45.8826 17.3078 45.1614 16.0324 44.9434C16.4226 44.4706 16.9629 44.1464 17.5628 44.0252C18.5288 43.8197 18.9219 44.2851 19.3818 44.566C19.5647 44.2662 19.6516 43.9173 19.6306 43.5665C19.6097 43.2156 19.482 42.8796 19.2648 42.6038L18.8466 42.1593C19.1012 41.9212 19.3062 41.6348 19.4498 41.3167C19.5934 40.9986 19.6726 40.6551 19.6829 40.3061C18.6041 40.26 18.3072 40.8008 17.7217 41.1447C17.4374 40.5283 16.1244 39.9665 15.4135 40.6122C15.7898 41.1782 16.1453 41.5304 15.9571 42.4319C15.818 43.0091 15.5022 43.5281 15.0539 43.9161ZM20.2349 46.6247C20.745 46.3396 21.113 46.2055 21.5814 45.8994C22.9362 44.9937 23.9482 43.434 23.4338 41.6646C24.1692 41.9405 24.8882 42.2582 25.5874 42.6164C25.0735 42.9003 24.6365 43.3058 24.3144 43.7976C23.9924 44.2893 23.7948 44.8525 23.7391 45.4382C23.5175 47.1153 24.2283 47.9119 24.8389 48.8721C24.4207 49.0901 22.1166 49.7107 20.6823 50.499C20.0467 50.8386 19.4278 51.1405 18.809 51.4927C16.5676 52.7505 14.1088 52.478 12.8083 50.3019C11.5079 48.1258 14.8991 45.2285 16.53 46.7338C16.9063 47.0818 17.5963 47.7652 17.3329 48.6122C17.1112 49.3291 16.1202 49.8239 15.8024 48.7799C15.6895 48.4025 15.6393 47.9748 15.263 47.8281C15.0847 47.7647 14.889 47.773 14.7167 47.8511C14.5444 47.9293 14.409 48.0713 14.3388 48.2474C13.4481 49.6478 15.0664 51.543 16.6429 51.2872C18.1357 51.0482 19.0682 49.5556 18.947 47.87L19.1309 47.979L19.1853 48.0168C20.6112 48.9937 20.812 49.0985 22.4428 48.7631C22.217 47.6185 21.3263 46.9602 20.214 46.6247H20.2349ZM34.2893 42.6164C34.9872 42.2568 35.7064 41.9404 36.4428 41.6688C36.2886 42.2257 36.2739 42.8121 36.4001 43.3761C36.5263 43.9401 36.7895 44.464 37.1662 44.9015C37.9231 45.7778 38.4207 45.979 39.6334 46.6205C38.5336 46.9518 37.6471 47.5891 37.4213 48.7463C39.1651 49.2872 39.8007 48.5618 40.9255 47.8574C40.8689 48.2681 40.8941 48.686 40.9997 49.0869C41.1052 49.4877 41.2889 49.8637 41.5402 50.1929C43.4763 52.8721 46.8425 50.0587 45.4751 48.1384C45.4279 48.0509 45.3623 47.9748 45.2829 47.9153C45.2034 47.8557 45.1121 47.8142 45.0151 47.7934C44.9181 47.7727 44.8178 47.7733 44.7211 47.7952C44.6243 47.8171 44.5335 47.8598 44.4548 47.9203C44.1788 48.1342 44.1663 48.5031 44.0366 48.9015C43.5808 50.2558 41.1931 48.4361 43.4345 46.6541C45.1071 45.3291 48.4524 48.1593 47.014 50.4277C46.6115 51.0748 46.0298 51.5903 45.3399 51.9112C44.65 52.2321 43.8818 52.3446 43.1292 52.2348C41.7786 52.0545 40.2565 51.0692 39.1442 50.4906C38.542 50.1761 37.8144 49.8952 37.1412 49.6268C36.5934 49.4088 35.4016 49.0901 35.0504 48.8931C35.4046 48.4406 35.7024 47.9464 35.9369 47.4214C36.1551 46.8149 36.2309 46.1661 36.1584 45.5254C36.0859 44.8848 35.867 44.2695 35.5187 43.7275C35.2141 43.2546 34.7899 42.8712 34.2893 42.6164ZM25.6668 44.8637C26.0181 44.9979 26.7958 45.8658 27.7576 45.3249C28.573 44.8679 28.3012 44.021 27.9834 43.1908C29.2628 43.3417 30.5553 43.3417 31.8347 43.1908C30.9984 45.1656 32.1692 46.1593 33.9673 44.9811L34.2057 44.8344C34.4064 45.5807 34.7702 45.9874 34.5318 47.0398C34.3902 47.6548 34.0631 48.2111 33.5951 48.6331C33.3735 48.8134 30.5677 50.3941 30.3419 50.4486C30.3559 50.0702 30.4549 49.6999 30.6316 49.3652C30.8082 49.0305 31.058 48.7401 31.3622 48.5157C32.1776 47.8532 33.0348 47.8784 33.3986 47.6394C32.6041 46.4906 31.4625 46.0252 30.438 46.8679C30.5133 46.3103 30.7517 46.0294 30.6178 45.2956C30.5901 45.0709 30.5131 44.8551 30.3924 44.6637C30.2716 44.4723 30.1102 44.3101 29.9195 44.1887C28.8532 44.7086 29.2463 46.2055 29.3801 46.8176C28.8239 46.5912 28.3012 46.2851 27.5653 46.5996C27.0899 46.8196 26.6952 47.1832 26.4362 47.6394C26.8753 47.9161 29.3006 48.0252 29.4763 50.4612L26.1853 48.5954C25.7 48.1181 25.386 47.4932 25.2922 46.8181C25.1984 46.143 25.3301 45.4558 25.6668 44.8637ZM11.3573 51.153C10.4276 50.3913 9.5772 49.5372 8.81908 48.6038C9.92303 48.9644 9.80176 49.1027 11.119 48.8386C10.843 50.0922 11.0102 50.1258 11.3573 51.153ZM48.7117 48.8386C50.0582 49.1027 49.9076 48.956 51.0158 48.5996C50.2645 49.5366 49.4149 50.3898 48.4817 51.1447C48.7953 50.0545 49.0044 50.218 48.7117 48.847V48.8386ZM14.895 53.8239C18.2068 54.0084 20.2391 52.2558 22.8651 50.8889C26.2104 49.1572 29.769 51.4801 29.2965 54.3061C29.0163 55.9832 27.0384 57.9581 25.1608 56.6709C24.6423 56.3145 23.7851 55.0943 24.3245 54.0713C24.7887 53.1866 26.6704 52.8847 26.0808 54.2725C25.9052 54.6918 25.3406 55.044 26.0808 55.5094C26.3097 55.6395 26.5683 55.7079 26.8314 55.7079C27.0945 55.7079 27.3531 55.6395 27.582 55.5094C29.2546 54.5157 27.8622 51.3585 25.4494 51.7358C24.588 51.8658 23.6387 52.5493 22.9738 52.956C22.2224 53.4669 21.421 53.8996 20.582 54.2474C19.3024 54.7002 18.6877 54.3522 17.5377 54.1426C17.5732 54.6403 17.7438 55.1188 18.0312 55.5262C16.9275 55.0741 15.8759 54.5034 14.895 53.8239ZM34.1304 55.0231C34.0677 54.6331 33.2063 53.631 33.9799 53.3459C34.6155 53.1111 35.3263 53.74 35.5103 54.0964C36.1752 55.3543 34.8705 56.7925 33.9673 57.0314C31.4583 57.673 29.3675 53.7862 31.2325 51.8281C33.3233 49.6352 35.5521 50.0545 37.9733 51.4675C38.9759 52.0799 40.018 52.6248 41.0928 53.0985C42.2903 53.6726 43.6158 53.9254 44.9399 53.8323C43.9408 54.4974 42.8891 55.0793 41.7953 55.5723C42.0895 55.1571 42.2737 54.6738 42.3305 54.1677C40.3108 54.5157 39.8216 54.7463 38.0569 53.6813C37.2624 53.1992 35.5187 52.0545 34.7451 51.8323C34.412 51.7362 34.0627 51.7104 33.7191 51.7565C33.3756 51.8025 33.0453 51.9194 32.7491 52.0999C32.4528 52.2803 32.1971 52.5203 31.998 52.8048C31.7989 53.0892 31.6607 53.4119 31.5922 53.7526C31.1531 55.8029 33.6537 56.3228 34.1304 55.0231ZM19.4947 56.218C20.0809 56.1381 20.6588 56.0062 21.2218 55.8239C21.7277 55.6226 22.2044 55.304 22.656 55.1572C22.7408 55.8738 23.048 56.5456 23.5342 57.0776C23.6962 57.2279 23.8432 57.3936 23.9733 57.5723C21.987 57.2034 20.1178 56.3438 19.4989 56.218H19.4947ZM35.8616 57.5723C36.2087 57.0398 37.0074 56.5828 37.1788 55.1572C38.3078 55.5346 38.2117 55.9539 40.3025 56.1971C39.4536 56.6792 36.9697 57.3627 35.8658 57.5723H35.8616ZM17.9183 32.0168C17.8597 30.9686 17.7677 30.2096 17.8012 29.0818C18.0605 27.2034 18.2863 26.0461 19.0557 24.5115C19.6982 23.2477 20.5461 22.0999 21.5646 21.1153C29.1501 14.0797 41.5151 18.9434 42.0546 29.4088C42.2003 32.1322 41.4288 34.8256 39.8638 37.0563C38.2989 39.287 36.0315 40.9254 33.4259 41.7082C30.8204 42.491 28.0281 42.3727 25.4976 41.3724C22.9672 40.3722 20.8456 38.5479 19.4738 36.1929C18.2026 34.1132 18.2319 32.7044 17.9183 32.0168ZM29.9237 56.805C30.3099 57.2488 30.7479 57.6444 31.2284 57.9832L31.4333 58.1803L28.5061 58.0713L28.5563 58.021C28.9809 57.7377 29.3686 57.4025 29.7104 57.0231L29.7857 56.9308C29.8244 56.8815 29.871 56.8389 29.9237 56.805Z" fill="#C76F6B"/>
<path d="M59.4706 31.7906C60.4574 15.4256 48.0265 1.35705 31.7055 0.367591C15.3844 -0.621868 1.35364 11.8425 0.36684 28.2074C-0.619961 44.5724 11.8109 58.641 28.1319 59.6304C44.453 60.6199 58.4838 48.1556 59.4706 31.7906Z" stroke="#C76F6B" stroke-width="1.5" stroke-miterlimit="2.61"/>
<path d="M40.2287 32.7189C41.7265 27.0105 38.3256 21.1655 32.6325 19.6637C26.9395 18.1619 21.1102 21.5719 19.6124 27.2803C18.1146 32.9887 21.5155 38.8337 27.2085 40.3355C32.9016 41.8373 38.7309 38.4272 40.2287 32.7189Z" fill="#FEFEFE"/>
<path d="M40.2287 32.7189C41.7265 27.0105 38.3256 21.1655 32.6325 19.6637C26.9395 18.1619 21.1102 21.5719 19.6124 27.2803C18.1146 32.9887 21.5155 38.8337 27.2085 40.3355C32.9016 41.8373 38.7309 38.4272 40.2287 32.7189Z" stroke="#C76F6B" stroke-width="0.5" stroke-miterlimit="2.61"/>
<path fill-rule="evenodd" clip-rule="evenodd" d="M29.9189 20.499C31.793 20.499 33.625 21.0563 35.1832 22.1002C36.7415 23.1442 37.956 24.6281 38.6732 26.3642C39.3903 28.1003 39.578 30.0106 39.2124 31.8536C38.8468 33.6967 37.9443 35.3896 36.6191 36.7183C35.2939 38.0471 33.6056 38.952 31.7675 39.3186C29.9294 39.6852 28.0242 39.497 26.2928 38.7779C24.5613 38.0588 23.0815 36.841 22.0403 35.2786C20.9991 33.7161 20.4434 31.8792 20.4434 30.0001C20.4434 27.4802 21.4417 25.0636 23.2187 23.2818C24.9957 21.5 27.4058 20.499 29.9189 20.499Z" fill="#FEFEFE"/>
<path d="M29.9189 20.499C31.793 20.499 33.625 21.0563 35.1832 22.1002C36.7415 23.1442 37.956 24.6281 38.6732 26.3642C39.3903 28.1003 39.578 30.0106 39.2124 31.8536C38.8468 33.6967 37.9443 35.3896 36.6191 36.7183C35.2939 38.0471 33.6056 38.952 31.7675 39.3186C29.9294 39.6852 28.0242 39.497 26.2928 38.7779C24.5613 38.0588 23.0815 36.841 22.0403 35.2786C20.9991 33.7161 20.4434 31.8792 20.4434 30.0001C20.4434 27.4802 21.4417 25.0636 23.2187 23.2818C24.9957 21.5 27.4058 20.499 29.9189 20.499V20.499Z" stroke="#C76F6B" stroke-miterlimit="2.61"/>
<path d="M35.4384 34.4153C34.8813 34.5964 34.3011 34.6966 33.7156 34.713H33.5024C33.4042 34.7078 33.3064 34.6966 33.2096 34.6794L32.666 34.6165C31.5527 34.3932 30.4623 34.0676 29.4086 33.6438C28.9904 33.4803 28.5053 33.2664 27.9366 33.0191C27.3679 32.7717 26.887 32.5243 26.4062 32.2853V32.9939V33.2748C26.4126 33.3958 26.4265 33.5162 26.448 33.6354C26.4566 33.7683 26.508 33.8948 26.5943 33.996C26.6591 34.1074 26.7638 34.1898 26.887 34.2266C26.9498 34.2266 27.0334 34.2266 27.1379 34.2601C27.2432 34.2773 27.3493 34.2885 27.4557 34.2937L27.9994 34.2601V34.6249H24.4074V34.2601H25.3984V26.4698C25.4028 26.2793 25.3423 26.0929 25.2269 25.9415C24.968 25.8131 24.6777 25.7622 24.3906 25.7947V25.4509H26.3894V25.9247L27.1798 25.6648C27.4097 25.5977 27.6606 25.5306 27.9743 25.4635C28.2504 25.4048 28.5296 25.3614 28.8106 25.3335C29.1021 25.3001 29.3953 25.2833 29.6887 25.2832C29.9229 25.2832 30.132 25.2832 30.3411 25.2832C30.5501 25.2832 30.7592 25.3167 30.9725 25.3503C31.9924 25.4517 32.9513 25.8846 33.7031 26.583C34.0382 26.8797 34.3069 27.2442 34.4914 27.6525C34.6759 28.0608 34.7721 28.5037 34.7736 28.952V29.0526C34.7702 29.5897 34.634 30.1175 34.3771 30.5888C34.1202 31.06 33.7507 31.46 33.3016 31.7528C32.8203 32.1129 32.2796 32.3854 31.7043 32.5578C31.0892 32.7317 30.4533 32.8206 29.8142 32.822H29.6678C29.5209 32.8208 29.3742 32.8096 29.2288 32.7884L28.8106 32.7381L28.8733 32.6081L30.9641 33.4467L32.4946 34.0547C32.9962 34.2259 33.5205 34.3206 34.0502 34.3356C34.2269 34.3343 34.4032 34.3175 34.577 34.2853C34.7861 34.2518 34.9952 34.1889 35.3339 34.105L35.4384 34.4153ZM33.9247 29.0191C33.9206 28.5253 33.7886 28.0412 33.5415 27.6141C33.2945 27.187 32.9409 26.8317 32.5155 26.583C32.0759 26.2888 31.5954 26.0613 31.0896 25.9079C30.5449 25.7576 29.9818 25.6856 29.4169 25.6941C28.8619 25.7022 28.3105 25.7854 27.7777 25.9415C27.5262 26.0179 27.2803 26.1118 27.0418 26.2224C26.8253 26.3416 26.6159 26.4732 26.4145 26.6165V31.8325L26.7616 31.5725C27.2156 31.8797 27.7113 32.1198 28.2335 32.2853C28.4734 32.3607 28.7179 32.4209 28.9653 32.4656C29.2232 32.4996 29.483 32.5164 29.7431 32.5159C30.7855 32.5382 31.8059 32.2138 32.6451 31.5935C33.0498 31.2998 33.3776 30.9122 33.6004 30.4639C33.8232 30.0156 33.9345 29.5199 33.9247 29.0191Z" fill="#C76F6B"/>
<path d="M35.4384 34.4153C34.8813 34.5964 34.3011 34.6966 33.7156 34.713H33.5024C33.4042 34.7078 33.3064 34.6966 33.2096 34.6794L32.666 34.6165C31.5527 34.3932 30.4623 34.0676 29.4086 33.6438C28.9904 33.4803 28.5053 33.2664 27.9366 33.0191C27.3679 32.7717 26.887 32.5243 26.4062 32.2853V32.9939V33.2748C26.4126 33.3958 26.4265 33.5162 26.448 33.6354C26.4566 33.7683 26.508 33.8948 26.5943 33.996C26.6591 34.1074 26.7638 34.1898 26.887 34.2266C26.9498 34.2266 27.0334 34.2266 27.1379 34.2601C27.2432 34.2773 27.3493 34.2885 27.4557 34.2937L27.9994 34.2601V34.6249H24.4074V34.2601H25.3984V26.4698C25.4028 26.2793 25.3423 26.0929 25.2269 25.9415C24.968 25.8131 24.6777 25.7622 24.3906 25.7947V25.4509H26.3894V25.9247L27.1798 25.6648C27.4097 25.5977 27.6606 25.5306 27.9743 25.4635C28.2504 25.4048 28.5296 25.3614 28.8106 25.3335C29.1021 25.3001 29.3953 25.2833 29.6887 25.2832C29.9229 25.2832 30.132 25.2832 30.3411 25.2832C30.5501 25.2832 30.7592 25.3167 30.9725 25.3503C31.9924 25.4517 32.9513 25.8846 33.7031 26.583C34.0382 26.8797 34.3069 27.2442 34.4914 27.6525C34.6759 28.0608 34.7721 28.5037 34.7736 28.952V29.0526C34.7702 29.5897 34.634 30.1175 34.3771 30.5888C34.1202 31.06 33.7507 31.46 33.3016 31.7528C32.8203 32.1129 32.2796 32.3854 31.7043 32.5578C31.0892 32.7317 30.4533 32.8206 29.8142 32.822H29.6678C29.5209 32.8208 29.3742 32.8096 29.2288 32.7884L28.8106 32.7381L28.8733 32.6081L30.9641 33.4467L32.4946 34.0547C32.9962 34.2259 33.5205 34.3206 34.0502 34.3356C34.2269 34.3343 34.4032 34.3175 34.577 34.2853C34.7861 34.2518 34.9952 34.1889 35.3339 34.105L35.4384 34.4153ZM33.9247 29.0191C33.9206 28.5253 33.7886 28.0412 33.5415 27.6141C33.2945 27.187 32.9409 26.8317 32.5155 26.583C32.0759 26.2888 31.5954 26.0613 31.0896 25.9079C30.5449 25.7576 29.9818 25.6856 29.4169 25.6941C28.8619 25.7022 28.3105 25.7854 27.7777 25.9415C27.5262 26.0179 27.2803 26.1118 27.0418 26.2224C26.8253 26.3416 26.6159 26.4732 26.4145 26.6165V31.8325L26.7616 31.5725C27.2156 31.8797 27.7113 32.1198 28.2335 32.2853C28.4734 32.3607 28.7179 32.4209 28.9653 32.4656C29.2232 32.4996 29.483 32.5164 29.7431 32.5159C30.7855 32.5382 31.8059 32.2138 32.6451 31.5935C33.0498 31.2998 33.3776 30.9122 33.6004 30.4639C33.8232 30.0156 33.9345 29.5199 33.9247 29.0191V29.0191Z" stroke="#C76F6B" stroke-width="0.22" stroke-miterlimit="2.61"/>
<path d="M86.8022 38.3139C85.8032 38.6342 84.7645 38.8135 83.7162 38.8464H83.3398C83.1632 38.8373 82.9873 38.8177 82.813 38.7877L81.8345 38.6661C79.8408 38.2691 77.888 37.688 76.0011 36.9302C75.2484 36.6325 74.3786 36.251 73.3625 35.8065C72.3464 35.3621 71.4808 34.9218 70.6152 34.4816L70.5776 35.7395V36.2426C70.5945 36.4623 70.6252 36.6808 70.6696 36.8967C70.686 37.1347 70.7783 37.3611 70.933 37.5424C71.0517 37.742 71.2391 37.8911 71.4599 37.9617C71.5728 37.991 71.7233 37.991 71.9115 38.0204C72.0984 38.0507 72.2869 38.0703 72.476 38.0791L73.4545 38.0204V38.6661H67.0566V38.0204H68.8255V24.0749C68.8351 23.7352 68.7289 23.4024 68.5244 23.1315C68.2986 22.9554 67.8093 22.8673 67.0566 22.8673V22.2468H70.6319V23.0854C71.0501 22.9386 71.4975 22.7919 72.0244 22.6116C72.4426 22.4942 72.89 22.3768 73.4545 22.2594C73.9523 22.1494 74.4565 22.071 74.9641 22.0246C75.4764 21.9671 75.9915 21.9377 76.5071 21.9365C76.9253 21.9365 77.2974 21.9365 77.6738 21.9659C78.0501 21.9952 78.4264 22.0246 78.8028 22.0833C80.6273 22.2764 82.3391 23.061 83.6786 24.3181C84.2812 24.8486 84.7641 25.5018 85.0951 26.2342C85.426 26.9666 85.5975 27.7614 85.5979 28.5655V28.7416C85.5979 30.6577 84.7323 32.2803 82.9635 33.5759C82.1012 34.2211 81.1333 34.7106 80.1033 35.0225C79.0008 35.3326 77.8612 35.4906 76.7162 35.4921H76.4527C76.1883 35.49 75.9243 35.4704 75.6624 35.4334L74.9097 35.3453L75.0226 35.1105L78.7861 36.5822L81.5334 37.6724C82.4307 37.9816 83.3699 38.1513 84.3183 38.1755C84.6339 38.1736 84.9487 38.1441 85.2592 38.0875C85.6356 38.0288 86.0495 37.9114 86.6141 37.7604L86.8022 38.3139ZM84.0925 28.6451C84.0925 26.8757 83.2562 25.4292 81.5836 24.2803C80.7998 23.7466 79.9397 23.3352 79.0328 23.0602C78.0528 22.7878 77.0389 22.6579 76.022 22.6745C75.0309 22.6904 74.0463 22.8399 73.0949 23.1189C72.6445 23.2534 72.2043 23.4201 71.7777 23.6179C71.3894 23.8343 71.0125 24.0708 70.6486 24.3265V33.6849L71.2884 33.2153C72.1019 33.7591 72.9891 34.1827 73.9229 34.4732C74.3573 34.6041 74.7984 34.7119 75.2442 34.7961C75.706 34.8558 76.1711 34.8852 76.6367 34.8841C78.5014 34.9215 80.3265 34.3425 81.8303 33.2363C82.5475 32.7096 83.1276 32.0173 83.5214 31.2181C83.9152 30.4189 84.1111 29.5363 84.0925 28.6451Z" fill="#334C61"/>
<path d="M86.8022 38.3139C85.8032 38.6342 84.7645 38.8135 83.7162 38.8464H83.3398C83.1632 38.8373 82.9873 38.8177 82.813 38.7877L81.8345 38.6661C79.8408 38.2691 77.888 37.688 76.0011 36.9302C75.2484 36.6325 74.3786 36.251 73.3625 35.8065C72.3464 35.3621 71.4808 34.9218 70.6152 34.4816L70.5776 35.7395V36.2426C70.5945 36.4624 70.6252 36.6808 70.6696 36.8967C70.686 37.1347 70.7783 37.3611 70.933 37.5424C71.0517 37.742 71.2391 37.8911 71.4599 37.9617C71.5728 37.991 71.7233 37.991 71.9115 38.0204C72.0984 38.0507 72.2869 38.0703 72.476 38.0791L73.4545 38.0204V38.6661H67.0566V38.0204H68.8255V24.0749C68.8351 23.7352 68.7289 23.4024 68.5244 23.1315C68.2986 22.9554 67.8093 22.8673 67.0566 22.8673V22.2468H70.6319V23.0854C71.0501 22.9386 71.4975 22.7919 72.0244 22.6116C72.4426 22.4942 72.89 22.3768 73.4545 22.2594C73.9523 22.1494 74.4565 22.071 74.9641 22.0246C75.4764 21.9671 75.9915 21.9377 76.5071 21.9365C76.9253 21.9365 77.2974 21.9365 77.6738 21.9659C78.0501 21.9952 78.4264 22.0246 78.8028 22.0833C80.6273 22.2764 82.3391 23.061 83.6786 24.3181C84.2812 24.8486 84.7641 25.5018 85.0951 26.2342C85.426 26.9666 85.5975 27.7614 85.5979 28.5655V28.7416C85.5979 30.6577 84.7323 32.2803 82.9635 33.5759C82.1012 34.2211 81.1333 34.7106 80.1033 35.0225C79.0008 35.3326 77.8612 35.4906 76.7162 35.4921H76.4527C76.1883 35.49 75.9243 35.4704 75.6624 35.4334L74.9097 35.3453L75.0226 35.1105L78.7861 36.5822L81.5334 37.6724C82.4307 37.9816 83.3699 38.1513 84.3183 38.1755C84.6339 38.1736 84.9487 38.1441 85.2592 38.0875C85.6356 38.0288 86.0495 37.9114 86.6141 37.7604L86.8022 38.3139ZM84.0925 28.6451C84.0925 26.8757 83.2562 25.4292 81.5836 24.2803C80.7998 23.7466 79.9397 23.3352 79.0328 23.0602C78.0528 22.7878 77.0389 22.6579 76.022 22.6745C75.0309 22.6904 74.0463 22.8399 73.0949 23.1189C72.6445 23.2534 72.2043 23.4201 71.7777 23.6179C71.3894 23.8343 71.0125 24.0708 70.6486 24.3265V33.6849L71.2884 33.2153C72.1019 33.7591 72.9891 34.1827 73.9229 34.4732C74.3573 34.6041 74.7984 34.7119 75.2442 34.7961C75.706 34.8558 76.1711 34.8852 76.6367 34.8841C78.5014 34.9215 80.3265 34.3425 81.8303 33.2363C82.5475 32.7096 83.1276 32.0173 83.5214 31.2181C83.9152 30.4189 84.1111 29.5363 84.0925 28.6451V28.6451Z" stroke="#51667A" stroke-width="0.22" stroke-miterlimit="2.61"/>
<path d="M104.235 22.8676H102.504V33.5091C102.51 34.1692 102.472 34.8289 102.391 35.484C102.314 35.9584 102.188 36.4235 102.015 36.8718C101.525 37.9326 100.434 38.6077 98.7782 38.9054L97.4944 38.9934C96.4261 39.0202 95.3672 38.7872 94.4084 38.3142C94.0598 38.1166 93.7427 37.8679 93.4675 37.5762C93.2134 37.2884 93.0098 36.9595 92.8653 36.6035C92.621 35.8326 92.5065 35.0263 92.5266 34.2177V24.3687C92.5583 23.9761 92.4937 23.5816 92.3385 23.2198C92.1127 22.985 91.5858 22.8676 90.7578 22.8676V22.2471H96.1019V22.8676H94.3331V34.0416C94.3257 34.5833 94.3635 35.1247 94.446 35.6601C94.4967 36.0637 94.6244 36.4538 94.8223 36.8089C95.3492 37.7062 96.2901 38.1548 97.6449 38.1548C98.3257 38.1769 99.0043 38.0673 99.6437 37.832C100.157 37.6217 100.594 37.2607 100.898 36.7963C101.118 36.4084 101.26 35.9811 101.316 35.5385C101.431 34.9065 101.482 34.2645 101.467 33.6223V24.6077C101.467 23.811 101.392 23.3498 101.203 23.1318C101.015 22.9137 100.413 22.8676 99.397 22.8676V22.2471H104.252L104.235 22.8676Z" fill="#334C61"/>
<path d="M104.235 22.8676H102.504V33.5091C102.51 34.1692 102.472 34.8289 102.391 35.484C102.314 35.9584 102.188 36.4235 102.015 36.8718C101.525 37.9326 100.434 38.6077 98.7782 38.9054L97.4944 38.9934C96.4261 39.0202 95.3672 38.7872 94.4084 38.3142C94.0598 38.1166 93.7427 37.8679 93.4675 37.5762C93.2134 37.2884 93.0098 36.9595 92.8653 36.6035C92.621 35.8326 92.5065 35.0263 92.5266 34.2177V24.3687C92.5583 23.9761 92.4937 23.5816 92.3385 23.2198C92.1127 22.985 91.5858 22.8676 90.7578 22.8676V22.2471H96.1019V22.8676H94.3331V34.0416C94.3257 34.5833 94.3635 35.1247 94.446 35.6601C94.4967 36.0637 94.6244 36.4538 94.8223 36.8089C95.3492 37.7062 96.2901 38.1548 97.6449 38.1548C98.3257 38.1769 99.0043 38.0673 99.6437 37.832C100.157 37.6217 100.594 37.2607 100.898 36.7963C101.118 36.4084 101.26 35.9811 101.316 35.5385C101.431 34.9065 101.482 34.2645 101.467 33.6223V24.6077C101.467 23.811 101.392 23.3498 101.203 23.1318C101.015 22.9137 100.413 22.8676 99.397 22.8676V22.2471H104.252L104.235 22.8676Z" stroke="#51667A" stroke-width="0.22" stroke-miterlimit="2.61"/>
<path d="M123.93 33.3326C123.938 34.1319 123.746 34.9206 123.371 35.6261C122.997 36.3316 122.451 36.9314 121.785 37.3704C120.317 38.4605 118.285 38.993 115.684 38.993C113.838 39.0521 112.013 38.5916 110.415 37.6639C108.872 36.7205 108.119 35.4836 108.119 33.9783C108.118 33.3614 108.264 32.7531 108.546 32.2045C108.828 31.6559 109.236 31.183 109.737 30.8253C110.988 29.8691 112.532 29.3798 114.103 29.4416C115.133 29.4157 116.147 29.7085 117.005 30.2802C117.841 30.8379 118.26 31.4878 118.26 32.2844C118.273 32.5095 118.235 32.7346 118.151 32.9435C118.066 33.1524 117.936 33.3397 117.77 33.4919C117.301 33.8763 116.702 34.0654 116.098 34.0202C115.907 34.0063 115.719 33.9768 115.533 33.9322C115.27 33.8735 115.044 33.8148 114.818 33.7561L114.969 33.2865H115.387C115.734 33.3085 116.078 33.2141 116.365 33.0182C116.487 32.9392 116.585 32.8302 116.652 32.7016C116.719 32.573 116.751 32.4292 116.746 32.2844C116.728 31.9836 116.635 31.6921 116.475 31.437C116.315 31.182 116.093 30.9715 115.83 30.8253C115.204 30.3863 114.453 30.1627 113.689 30.188C112.295 30.188 111.204 30.543 110.415 31.253C110.079 31.5388 109.81 31.8957 109.628 32.2981C109.446 32.7004 109.355 33.1382 109.361 33.58C109.361 34.8379 110.001 35.8777 111.318 36.7624C112.804 37.6949 114.534 38.158 116.286 38.0915C117.804 38.13 119.299 37.714 120.58 36.8966C121.898 36.058 122.537 35.0098 122.537 33.7393C122.553 33.2183 122.437 32.7018 122.199 32.2383C121.924 31.7816 121.567 31.3805 121.145 31.0559C120.48 30.5696 119.76 30.1642 119 29.8483C118.209 29.4961 117.381 29.1397 116.553 28.7582C115.8 28.4345 115.07 28.0605 114.366 27.6387C113.868 27.3276 113.441 26.9147 113.112 26.427C112.825 26.0226 112.667 25.5399 112.66 25.0433C112.666 24.5986 112.784 24.1625 113.003 23.776C113.222 23.3895 113.536 23.0652 113.915 22.8337C114.9 22.1967 116.06 21.8872 117.231 21.949C117.795 21.949 118.209 21.949 118.485 21.9783C118.881 22.0175 119.272 22.0962 119.652 22.2131V21.0098H120.405V27.3745H119.652V25.5758C119.704 24.8002 119.492 24.0299 119.05 23.3913C118.854 23.1371 118.599 22.9345 118.308 22.8008C118.017 22.6672 117.697 22.6065 117.377 22.624C116.657 22.5941 115.94 22.7379 115.286 23.0433C114.905 23.1922 114.578 23.4568 114.354 23.8002C114.129 24.1437 114.016 24.5489 114.032 24.9595C114.032 25.3787 114.408 25.8441 115.123 26.3724C116.139 27.0488 117.226 27.6113 118.364 28.0496C119.456 28.5234 120.246 28.8882 120.735 29.1397C121.312 29.3846 121.856 29.7016 122.353 30.0831C122.894 30.493 123.324 31.0302 123.608 31.6471C123.829 32.1811 123.938 32.7546 123.93 33.3326Z" fill="#334C61"/>
<path d="M123.93 33.3326C123.938 34.1319 123.746 34.9206 123.371 35.6261C122.997 36.3316 122.451 36.9314 121.785 37.3704C120.317 38.4605 118.285 38.993 115.684 38.993C113.838 39.0521 112.013 38.5916 110.415 37.6639C108.872 36.7205 108.119 35.4836 108.119 33.9783C108.118 33.3614 108.264 32.7531 108.546 32.2045C108.828 31.6559 109.236 31.183 109.737 30.8253C110.988 29.8691 112.532 29.3798 114.103 29.4416C115.133 29.4157 116.147 29.7085 117.005 30.2802C117.841 30.8379 118.26 31.4878 118.26 32.2844C118.273 32.5095 118.235 32.7346 118.151 32.9435C118.066 33.1524 117.936 33.3397 117.77 33.4919C117.301 33.8763 116.702 34.0654 116.098 34.0202C115.907 34.0063 115.719 33.9768 115.533 33.9322C115.27 33.8735 115.044 33.8148 114.818 33.7561L114.969 33.2865H115.387C115.734 33.3085 116.078 33.2141 116.365 33.0182C116.487 32.9393 116.585 32.8302 116.652 32.7016C116.719 32.573 116.751 32.4292 116.746 32.2844C116.728 31.9836 116.635 31.6921 116.475 31.437C116.315 31.182 116.093 30.9715 115.83 30.8253C115.204 30.3863 114.453 30.1627 113.689 30.188C112.295 30.188 111.204 30.543 110.415 31.253C110.079 31.5388 109.81 31.8957 109.628 32.2981C109.446 32.7004 109.355 33.1382 109.361 33.58C109.361 34.8379 110.001 35.8777 111.318 36.7624C112.804 37.6949 114.534 38.158 116.286 38.0915C117.804 38.13 119.299 37.714 120.58 36.8966C121.898 36.058 122.537 35.0098 122.537 33.7393C122.553 33.2183 122.437 32.7018 122.199 32.2383C121.924 31.7816 121.567 31.3805 121.145 31.0559C120.48 30.5696 119.76 30.1642 119 29.8483C118.209 29.4961 117.381 29.1397 116.553 28.7582C115.8 28.4345 115.07 28.0605 114.366 27.6387C113.868 27.3276 113.441 26.9147 113.112 26.427C112.825 26.0226 112.667 25.5399 112.66 25.0433C112.666 24.5986 112.784 24.1625 113.003 23.776C113.222 23.3895 113.536 23.0652 113.915 22.8337C114.9 22.1967 116.06 21.8872 117.231 21.949C117.795 21.949 118.209 21.949 118.485 21.9783C118.881 22.0175 119.272 22.0962 119.652 22.2131V21.0098H120.405V27.3745H119.652V25.5758C119.704 24.8002 119.492 24.0299 119.05 23.3913C118.854 23.1371 118.599 22.9345 118.308 22.8008C118.017 22.6672 117.697 22.6065 117.377 22.624C116.657 22.5941 115.94 22.7379 115.286 23.0433C114.905 23.1922 114.578 23.4568 114.354 23.8002C114.129 24.1437 114.016 24.5489 114.032 24.9595C114.032 25.3787 114.408 25.8441 115.123 26.3724C116.139 27.0488 117.226 27.6113 118.364 28.0496C119.456 28.5234 120.246 28.8882 120.735 29.1397C121.312 29.3846 121.856 29.7016 122.353 30.0831C122.894 30.493 123.324 31.0302 123.608 31.6471C123.829 32.1811 123.938 32.7546 123.93 33.3326V33.3326Z" stroke="#51667A" stroke-width="0.22" stroke-miterlimit="2.61"/>
<path d="M142.072 38.6668H137.217V38.0211H138.985L135.222 28.172H132.558L130.049 36.0169L129.936 36.5452V36.7506C129.939 36.8415 129.926 36.9322 129.899 37.019C129.885 37.2021 129.933 37.3847 130.035 37.537C130.138 37.6892 130.289 37.8022 130.463 37.8575C130.652 37.8869 130.953 37.9456 131.329 37.9749C131.705 38.0043 132.195 38.0336 132.759 38.0336V38.6793H127.164V38.0211H128.331L134.126 21.0986L140.152 36.4278L140.57 37.3418C140.796 37.7611 141.323 38.0211 142.076 38.0211L142.072 38.6668ZM135.034 27.5557L133.779 24.4278L132.801 27.5557H135.034Z" fill="#334C61"/>
<path d="M142.072 38.6668H137.217V38.0211H138.985L135.222 28.172H132.558L130.049 36.0169L129.936 36.5452V36.7506C129.939 36.8415 129.926 36.9322 129.899 37.019C129.885 37.2021 129.933 37.3847 130.035 37.537C130.138 37.6892 130.289 37.8022 130.463 37.8575C130.652 37.8869 130.953 37.9456 131.329 37.9749C131.705 38.0043 132.195 38.0336 132.759 38.0336V38.6793H127.164V38.0211H128.331L134.126 21.0986L140.152 36.4278L140.57 37.3418C140.796 37.7611 141.323 38.0211 142.076 38.0211L142.072 38.6668ZM135.034 27.5557L133.779 24.4278L132.801 27.5557H135.034Z" stroke="#51667A" stroke-width="0.22" stroke-miterlimit="2.61"/>
<path d="M165.905 38.3139C164.906 38.6342 163.867 38.8135 162.819 38.8464H162.443C162.266 38.8373 162.09 38.8177 161.916 38.7877L160.937 38.6661C158.943 38.2691 156.991 37.688 155.104 36.9302C154.351 36.6325 153.485 36.251 152.465 35.8065C151.445 35.3621 150.583 34.9218 149.718 34.4816L149.68 35.7395V36.2426C149.692 36.4606 149.717 36.6776 149.755 36.8925C149.772 37.1305 149.864 37.3569 150.019 37.5382C150.138 37.7378 150.325 37.8869 150.546 37.9575C150.659 37.9868 150.809 37.9868 150.997 38.0162C151.184 38.0465 151.373 38.0661 151.562 38.0749L152.54 38.0162V38.6619H146.143V38.0204H147.911V24.0749C147.921 23.7352 147.815 23.4024 147.61 23.1315C147.385 22.9554 146.895 22.8673 146.143 22.8673V22.2468H149.701V23.0854C150.119 22.9386 150.567 22.7919 151.094 22.6116C151.512 22.4942 151.959 22.3768 152.524 22.2594C153.022 22.15 153.526 22.0716 154.033 22.0246C154.546 21.9671 155.061 21.9377 155.576 21.9365C155.994 21.9365 156.367 21.9365 156.743 21.9659C157.119 21.9952 157.496 22.0246 157.872 22.0833C159.708 22.2693 161.433 23.0544 162.781 24.3181C163.384 24.8486 163.867 25.5018 164.198 26.2342C164.529 26.9666 164.7 27.7614 164.701 28.5655V28.7416C164.701 30.6577 163.835 32.2803 162.066 33.5759C161.204 34.2211 160.236 34.7106 159.206 35.0225C158.103 35.3326 156.964 35.4906 155.819 35.4921H155.555C155.291 35.49 155.027 35.4704 154.765 35.4334L154.012 35.3453L154.125 35.1105L157.889 36.5822L160.636 37.6724C161.533 37.9816 162.473 38.1513 163.421 38.1755C163.737 38.1736 164.051 38.1441 164.362 38.0875C164.738 38.0288 165.152 37.9114 165.717 37.7604L165.905 38.3139ZM163.195 28.6451C163.195 26.8757 162.359 25.4292 160.686 24.2803C159.896 23.7446 159.029 23.3332 158.115 23.0602C157.135 22.7878 156.121 22.6579 155.104 22.6745C154.113 22.6907 153.128 22.8402 152.177 23.1189C151.726 23.2534 151.286 23.4201 150.859 23.6179C150.471 23.8343 150.094 24.0708 149.73 24.3265V33.6849L150.37 33.2153C151.185 33.7599 152.073 34.1836 153.009 34.4732C153.434 34.6047 153.865 34.7138 154.301 34.8003C154.763 34.86 155.228 34.8894 155.693 34.8883C157.558 34.9257 159.383 34.3467 160.887 33.2405C161.613 32.7184 162.203 32.0277 162.605 31.2274C163.007 30.4271 163.209 29.5411 163.195 28.6451Z" fill="#334C61"/>
<path d="M165.905 38.3139C164.906 38.6342 163.867 38.8135 162.819 38.8464H162.443C162.266 38.8373 162.09 38.8177 161.916 38.7877L160.937 38.6661C158.943 38.2691 156.991 37.688 155.104 36.9302C154.351 36.6325 153.485 36.251 152.465 35.8065C151.445 35.3621 150.583 34.9218 149.718 34.4816L149.68 35.7395V36.2426C149.692 36.4606 149.717 36.6776 149.755 36.8925C149.772 37.1305 149.864 37.3569 150.019 37.5382C150.138 37.7378 150.325 37.8869 150.546 37.9575C150.659 37.9868 150.809 37.9868 150.997 38.0162C151.184 38.0465 151.373 38.0661 151.562 38.0749L152.54 38.0162V38.6619H146.143V38.0204H147.911V24.0749C147.921 23.7352 147.815 23.4024 147.61 23.1315C147.385 22.9554 146.895 22.8673 146.143 22.8673V22.2468H149.701V23.0854C150.119 22.9386 150.567 22.7919 151.094 22.6116C151.512 22.4942 151.959 22.3768 152.524 22.2594C153.022 22.15 153.526 22.0716 154.033 22.0246C154.546 21.9671 155.061 21.9377 155.576 21.9365C155.994 21.9365 156.367 21.9365 156.743 21.9659C157.119 21.9952 157.496 22.0246 157.872 22.0833C159.708 22.2693 161.433 23.0544 162.781 24.3181C163.384 24.8486 163.867 25.5018 164.198 26.2342C164.529 26.9666 164.7 27.7614 164.701 28.5655V28.7416C164.701 30.6577 163.835 32.2803 162.066 33.5759C161.204 34.2211 160.236 34.7106 159.206 35.0225C158.103 35.3326 156.964 35.4906 155.819 35.4921H155.555C155.291 35.49 155.027 35.4704 154.765 35.4334L154.012 35.3453L154.125 35.1105L157.889 36.5822L160.636 37.6724C161.533 37.9816 162.473 38.1513 163.421 38.1755C163.737 38.1736 164.051 38.1441 164.362 38.0875C164.738 38.0288 165.152 37.9114 165.717 37.7604L165.905 38.3139ZM163.195 28.6451C163.195 26.8757 162.359 25.4292 160.686 24.2803C159.896 23.7446 159.029 23.3332 158.115 23.0602C157.135 22.7878 156.121 22.6579 155.104 22.6745C154.113 22.6907 153.128 22.8402 152.177 23.1189C151.726 23.2534 151.286 23.4201 150.859 23.6179C150.471 23.8343 150.094 24.0708 149.73 24.3265V33.6849L150.37 33.2153C151.185 33.7599 152.073 34.1836 153.009 34.4732C153.434 34.6047 153.865 34.7138 154.301 34.8003C154.763 34.86 155.228 34.8894 155.693 34.8883C157.558 34.9257 159.383 34.3467 160.887 33.2405C161.613 32.7184 162.203 32.0277 162.605 31.2274C163.007 30.4271 163.209 29.5411 163.195 28.6451Z" stroke="#51667A" stroke-width="0.22" stroke-miterlimit="2.61"/>
<path d="M181.87 27.7312H181.118V25.2155C181.118 24.2427 180.854 23.5635 180.365 23.27C179.876 22.9765 178.671 22.8004 176.827 22.8004L176.79 35.7689L176.752 36.3308C176.752 37.0981 176.903 37.5886 177.204 37.7731C177.505 37.9576 178.333 38.0121 179.713 38.0121V38.6578H172.345V38.0205H174.941V22.8087H173.587C173.273 22.8005 172.959 22.8103 172.646 22.8381C172.431 22.8413 172.217 22.861 172.006 22.8968C171.837 22.9214 171.672 22.9709 171.517 23.0435C171.364 23.132 171.223 23.2406 171.099 23.3664C170.909 23.6628 170.758 23.9828 170.651 24.3182C170.614 24.4943 170.614 24.7039 170.576 24.9681C170.537 25.1927 170.511 25.4195 170.501 25.6473L170.614 27.7438H169.898V21.0352H170.609V22.2217H181.114V21.0394H181.866L181.87 27.7312Z" fill="#334C61"/>
<path d="M181.87 27.7312H181.118V25.2155C181.118 24.2427 180.854 23.5635 180.365 23.27C179.876 22.9765 178.671 22.8004 176.827 22.8004L176.79 35.7689L176.752 36.3308C176.752 37.0981 176.903 37.5886 177.204 37.7731C177.505 37.9576 178.333 38.0121 179.713 38.0121V38.6578H172.345V38.0205H174.941V22.8087H173.587C173.273 22.8005 172.959 22.8103 172.646 22.8381C172.431 22.8413 172.217 22.861 172.006 22.8968C171.837 22.9214 171.672 22.9709 171.517 23.0435C171.364 23.132 171.223 23.2406 171.099 23.3664C170.909 23.6628 170.758 23.9828 170.651 24.3182C170.614 24.4943 170.614 24.7039 170.576 24.9681C170.537 25.1927 170.511 25.4195 170.501 25.6473L170.614 27.7438H169.898V21.0352H170.609V22.2217H181.114V21.0394H181.866L181.87 27.7312Z" stroke="#51667A" stroke-width="0.22" stroke-miterlimit="2.61"/>
<path d="M69.6208 51.241C69.1928 51.4495 68.7206 51.5503 68.245 51.5345C67.9284 51.5484 67.6126 51.4938 67.3189 51.3745C67.0253 51.2551 66.7607 51.0737 66.5431 50.8427C66.1013 50.3497 65.8714 49.7018 65.9033 49.0398C65.8887 48.6858 65.9448 48.3324 66.0683 48.0005C66.1918 47.6686 66.3803 47.3647 66.6226 47.1068C66.8574 46.8616 67.1411 46.6688 67.4553 46.541C67.7694 46.4131 68.1069 46.353 68.4457 46.3647C68.8473 46.3526 69.2471 46.4225 69.6208 46.5702V47.1907C69.2583 46.9915 68.8508 46.8889 68.4374 46.893C68.1781 46.8838 67.9199 46.9308 67.6803 47.0306C67.4408 47.1305 67.2255 47.2809 67.0491 47.4716C66.6773 47.8933 66.4852 48.4442 66.5138 49.0062C66.486 49.5374 66.6643 50.0588 67.0114 50.4611C67.1779 50.642 67.3815 50.7843 67.6082 50.8785C67.8349 50.9726 68.0793 51.0162 68.3245 51.0062C68.7789 51.0142 69.227 50.8983 69.6208 50.6708V51.241Z" fill="#334C61"/>
<path d="M72.4544 51.5339C72.1376 51.5479 71.8215 51.4916 71.5288 51.3691C71.2361 51.2467 70.9739 51.061 70.7609 50.8253C70.3208 50.3246 70.0915 49.6723 70.1211 49.0056C70.0837 48.3059 70.3157 47.6184 70.7692 47.0853C70.9952 46.8436 71.2707 46.654 71.5768 46.5295C71.8829 46.405 72.2123 46.3486 72.5422 46.3641C72.8554 46.3493 73.1679 46.4044 73.4571 46.5255C73.7464 46.6466 74.0052 46.8307 74.2149 47.0643C74.6562 47.5641 74.8844 48.2174 74.8505 48.884C74.8907 49.588 74.6586 50.2804 74.2024 50.8169C73.9815 51.0579 73.7103 51.2471 73.4082 51.371C73.1061 51.495 72.7804 51.5506 72.4544 51.5339ZM72.5004 46.8924C72.2622 46.8879 72.026 46.9367 71.8089 47.0354C71.5919 47.134 71.3996 47.28 71.246 47.4626C70.9027 47.8817 70.7269 48.4136 70.7525 48.9553C70.7274 49.4916 70.8967 50.0188 71.2292 50.4396C71.3815 50.6236 71.5736 50.7702 71.7911 50.8683C72.0085 50.9664 72.2454 51.0134 72.4837 51.0056C72.7256 51.0156 72.9669 50.9727 73.1907 50.8801C73.4145 50.7874 73.6156 50.6471 73.78 50.4689C74.1169 50.0426 74.2852 49.5066 74.2525 48.9637C74.2884 48.4153 74.1266 47.8722 73.7967 47.4333C73.637 47.2488 73.4369 47.104 73.212 47.0102C72.987 46.9163 72.7435 46.876 72.5004 46.8924ZM75.4987 51.2404V50.6031C75.8836 50.8831 76.3487 51.0303 76.8242 51.0224C77.1253 51.0355 77.4213 50.942 77.6605 50.7582C77.7649 50.6747 77.8483 50.5679 77.9042 50.4464C77.9601 50.3248 77.987 50.1918 77.9825 50.058C77.9825 49.4123 77.5644 49.0937 76.6862 49.0937H76.1635V48.6366H76.6402C76.9454 48.6572 77.2483 48.5713 77.4975 48.3935C77.5994 48.3135 77.6805 48.2099 77.7337 48.0916C77.7868 47.9733 77.8105 47.8438 77.8027 47.7142C77.8069 47.602 77.7867 47.4902 77.7433 47.3866C77.7 47.2831 77.6347 47.1902 77.5518 47.1146C77.3565 46.9523 77.1066 46.8713 76.8535 46.8882C76.4183 46.8941 75.9946 47.0299 75.6366 47.2782V46.687C76.022 46.4796 76.4538 46.3743 76.8911 46.3809C77.2923 46.3582 77.6887 46.4769 78.0118 46.7163C78.1454 46.8228 78.2526 46.9588 78.3252 47.1138C78.3977 47.2687 78.4336 47.4383 78.43 47.6094C78.4511 47.8956 78.3657 48.1794 78.1905 48.4063C78.0152 48.6331 77.7624 48.7869 77.4807 48.8379C77.7982 48.8556 78.0971 48.9934 78.3171 49.2236C78.5188 49.4454 78.6268 49.737 78.6181 50.0371C78.6267 50.2446 78.5874 50.4513 78.5032 50.6411C78.4191 50.8309 78.2924 50.9987 78.1331 51.1314C77.7519 51.4249 77.2792 51.5735 76.7991 51.5507C76.3453 51.5703 75.895 51.4629 75.4987 51.2404ZM83.7072 52.7876H83.1761V51.4459H79.6008V52.7876H79.0614V50.9176H79.4503C79.805 50.2356 80.0854 49.5172 80.2866 48.775C80.5111 48.0183 80.6417 47.2367 80.6755 46.448H83.0256V50.9176H83.6946L83.7072 52.7876ZM82.4527 50.9176V46.9595H81.1982C81.0632 48.329 80.6866 49.6635 80.0859 50.9008L82.4527 50.9176ZM88.4575 51.4459H87.8135L87.2866 50.0496H85.1707L84.6731 51.4459H84.025L85.9318 46.448H86.559L88.4575 51.4459ZM87.0901 49.5213L86.3081 47.3788C86.2763 47.2686 86.2512 47.1566 86.2329 47.0433C86.2162 47.1569 86.191 47.269 86.1576 47.3788L85.3798 49.5088L87.0901 49.5213ZM93.2078 51.4459H92.6224V47.8358C92.6182 47.606 92.6308 47.3762 92.66 47.1482C92.6163 47.2575 92.5632 47.3627 92.5011 47.4626L89.9043 51.4459H89.1934V46.448H89.7789V49.97C89.786 50.2149 89.7763 50.4601 89.7496 50.7037C89.8071 50.5883 89.8714 50.4763 89.9419 50.3683L92.4509 46.448H93.1994L93.2078 51.4459ZM92.4718 44.9301C92.4588 45.0807 92.4149 45.2269 92.343 45.3596C92.271 45.4923 92.1725 45.6088 92.0537 45.7016C91.8168 45.8919 91.5208 45.9928 91.2173 45.9867C90.9051 46.0004 90.5987 45.899 90.3559 45.7016C90.2449 45.6056 90.1552 45.4874 90.0925 45.3545C90.0299 45.2216 89.9957 45.0771 89.9921 44.9301H90.5525C90.5567 45.0589 90.5976 45.1837 90.6703 45.2898C90.7429 45.396 90.8444 45.4791 90.9626 45.5294C91.0809 45.5796 91.211 45.5949 91.3376 45.5734C91.4643 45.5519 91.5821 45.4946 91.6773 45.4081C91.8065 45.28 91.8877 45.1112 91.9073 44.9301H92.4718ZM99.8691 51.2195C99.4411 51.428 98.9689 51.5287 98.4933 51.513C98.1768 51.5269 97.8609 51.4723 97.5672 51.3529C97.2736 51.2335 97.009 51.0522 96.7914 50.8211C96.368 50.3338 96.1479 49.7017 96.1767 49.0559C96.1621 48.7019 96.2182 48.3486 96.3417 48.0167C96.4652 47.6847 96.6537 47.3809 96.896 47.123C97.1308 46.8778 97.4145 46.685 97.7287 46.5571C98.0428 46.4292 98.3803 46.3692 98.7192 46.3809C99.1207 46.3687 99.5205 46.4386 99.8942 46.5863V47.2069C99.5317 47.0076 99.1242 46.9051 98.7108 46.9092C98.4515 46.9 98.1933 46.9469 97.9538 47.0468C97.7142 47.1466 97.4989 47.297 97.3225 47.4878C96.9507 47.9094 96.7586 48.4603 96.7873 49.0224C96.7594 49.5536 96.9378 50.075 97.2849 50.4773C97.4513 50.6581 97.6549 50.8005 97.8816 50.8946C98.1083 50.9887 98.3527 51.0323 98.5979 51.0224C99.0523 51.0304 99.5004 50.9144 99.8942 50.687L99.8691 51.2195ZM100.885 51.4249V46.448H102.303C102.671 46.4282 103.034 46.5396 103.327 46.7624C103.452 46.862 103.552 46.9899 103.618 47.1357C103.685 47.2815 103.715 47.441 103.708 47.601C103.717 47.8648 103.636 48.1238 103.478 48.3348C103.323 48.551 103.101 48.709 102.846 48.7834C103.154 48.805 103.443 48.9393 103.658 49.1608C103.86 49.392 103.966 49.692 103.955 49.9993C103.962 50.1954 103.925 50.3906 103.846 50.5701C103.767 50.7496 103.648 50.9086 103.499 51.035C103.177 51.313 102.765 51.4624 102.34 51.4543L100.885 51.4249ZM101.471 46.9553V48.5696H102.069C102.339 48.5825 102.606 48.5027 102.826 48.3431C102.915 48.2598 102.986 48.1576 103.032 48.0438C103.079 47.9301 103.099 47.8075 103.093 47.6849C103.093 47.1985 102.78 46.9553 102.14 46.9553H101.471ZM101.471 49.0979V50.8966H102.261C102.548 50.9132 102.831 50.827 103.06 50.6534C103.154 50.5703 103.229 50.4667 103.278 50.3506C103.328 50.2344 103.35 50.1086 103.344 49.9826C103.344 49.3914 102.926 49.0979 102.14 49.0979H101.471ZM106.978 51.513C106.66 51.527 106.344 51.4707 106.05 51.3483C105.757 51.2258 105.494 51.0401 105.28 50.8044C104.84 50.3037 104.611 49.6514 104.64 48.9847C104.603 48.2849 104.835 47.5975 105.288 47.0643C105.514 46.8227 105.79 46.633 106.096 46.5085C106.402 46.384 106.732 46.3276 107.061 46.3431C107.374 46.3295 107.687 46.3852 107.976 46.5062C108.265 46.6272 108.524 46.8106 108.734 47.0433C109.172 47.5447 109.399 48.1973 109.366 48.8631C109.412 49.5735 109.181 50.2744 108.722 50.8169C108.502 51.057 108.232 51.2457 107.931 51.3696C107.631 51.4935 107.307 51.5496 106.982 51.5339L106.978 51.513ZM107.02 46.8714C106.778 46.8641 106.538 46.9115 106.317 47.0103C106.096 47.109 105.9 47.2565 105.744 47.4417C105.428 47.8733 105.258 48.3947 105.258 48.9301C105.258 49.4655 105.428 49.987 105.744 50.4186C105.896 50.6033 106.088 50.7505 106.306 50.8487C106.523 50.9468 106.76 50.9934 106.999 50.9847C107.241 50.9946 107.482 50.9518 107.706 50.8591C107.93 50.7665 108.131 50.6262 108.295 50.448C108.629 50.0201 108.795 49.4849 108.763 48.9427C108.799 48.3943 108.638 47.8512 108.308 47.4123C108.148 47.2327 107.949 47.0923 107.726 47.0022C107.504 46.912 107.263 46.8744 107.024 46.8924L107.02 46.8714ZM114.354 51.4249H113.773V47.8148C113.768 47.5851 113.779 47.3554 113.806 47.1272H113.786C113.745 47.2372 113.693 47.3426 113.631 47.4417L111.059 51.4249H110.34V46.448H110.921V49.97C110.929 50.2148 110.921 50.46 110.896 50.7037C110.954 50.5883 111.018 50.4763 111.088 50.3683L113.597 46.448H114.346L114.354 51.4249ZM113.622 44.9092C113.608 45.0595 113.564 45.2053 113.492 45.3379C113.42 45.4705 113.322 45.5871 113.204 45.6807C112.957 45.8658 112.656 45.9658 112.347 45.9658C112.038 45.9658 111.737 45.8658 111.49 45.6807C111.379 45.5847 111.289 45.4664 111.226 45.3336C111.164 45.2007 111.13 45.0561 111.126 44.9092H111.691C111.685 44.998 111.698 45.0871 111.73 45.1702C111.762 45.2534 111.811 45.3286 111.875 45.3908C111.938 45.4529 112.015 45.5005 112.098 45.5303C112.182 45.5601 112.271 45.5713 112.36 45.5633C112.443 45.5657 112.527 45.5514 112.605 45.5212C112.683 45.491 112.755 45.4454 112.815 45.3872C112.943 45.2585 113.023 45.0897 113.041 44.9092H113.622ZM122.709 51.4249H122.128V48.0706C122.128 47.8065 122.128 47.4836 122.174 47.0979C122.137 47.2638 122.086 47.4264 122.023 47.5842L120.321 51.4249H120.012L118.339 47.6345C118.273 47.4678 118.223 47.2951 118.189 47.1188C118.21 47.3201 118.218 47.6471 118.218 48.1V51.4543H117.628V46.448H118.398L119.928 49.9322C120.02 50.126 120.097 50.3264 120.158 50.5318C120.259 50.2635 120.342 50.0538 120.401 49.9197L121.961 46.448H122.692L122.709 51.4249ZM128.036 51.4249H127.455V47.8148C127.45 47.5851 127.461 47.3554 127.489 47.1272H127.468C127.427 47.2372 127.375 47.3426 127.313 47.4417L124.741 51.4249H124.026V46.448H124.612V49.97C124.619 50.2149 124.609 50.4601 124.582 50.7037C124.64 50.5883 124.704 50.4763 124.775 50.3683L127.284 46.448H128.028L128.036 51.4249ZM129.939 49.5339V51.4249H129.358V46.448H130.725C131.177 46.4156 131.624 46.5531 131.98 46.8337C132.131 46.9734 132.25 47.1453 132.326 47.3368C132.403 47.5283 132.436 47.7347 132.423 47.9406C132.43 48.1591 132.389 48.3764 132.304 48.5777C132.218 48.7789 132.091 48.9592 131.93 49.1062C131.565 49.4209 131.093 49.5817 130.612 49.5549L129.939 49.5339ZM129.939 46.9553V49.0056H130.554C130.884 49.0279 131.211 48.9296 131.474 48.7289C131.581 48.6309 131.666 48.51 131.721 48.3751C131.776 48.2401 131.8 48.0945 131.792 47.949C131.792 47.2865 131.403 46.9553 130.625 46.9553H129.939ZM135.296 51.4249V46.448H136.738C137.107 46.429 137.471 46.5403 137.767 46.7624C137.891 46.8628 137.99 46.9911 138.055 47.1367C138.12 47.2824 138.151 47.4414 138.143 47.601C138.153 47.8648 138.072 48.1238 137.913 48.3348C137.76 48.552 137.537 48.7102 137.282 48.7834C137.589 48.805 137.878 48.9393 138.093 49.1608C138.297 49.3908 138.404 49.6917 138.39 49.9993C138.398 50.1954 138.361 50.3906 138.282 50.5701C138.203 50.7496 138.084 50.9086 137.934 51.035C137.613 51.3137 137.201 51.4632 136.776 51.4543L135.296 51.4249ZM135.902 46.9595V48.5737H136.5C136.771 48.5867 137.038 48.5069 137.257 48.3473C137.347 48.264 137.417 48.1618 137.464 48.048C137.51 47.9343 137.531 47.8117 137.525 47.6891C137.525 47.2027 137.211 46.9595 136.571 46.9595H135.902ZM135.902 49.1021V50.9008H136.692C136.979 50.9182 137.262 50.8319 137.491 50.6576C137.586 50.5745 137.661 50.4709 137.71 50.3548C137.759 50.2386 137.781 50.1128 137.775 49.9867C137.775 49.3956 137.378 49.1021 136.571 49.1021H135.902ZM143.182 51.4291H142.593V46.993H139.988V51.4459H139.406V46.448H143.17L143.182 51.4291ZM147.121 51.4291H144.479V46.448H146.988V46.9595H145.043V48.6366H146.845V49.1649H145.043V50.9134H147.1L147.121 51.4291ZM151.437 51.4291H150.851V49.1817C150.398 49.4383 149.891 49.5821 149.371 49.601C149.003 49.6238 148.64 49.502 148.359 49.2614C148.237 49.1363 148.142 48.987 148.081 48.8231C148.02 48.6592 147.994 48.4843 148.004 48.3096V46.4312H148.589V48.2802C148.589 48.8169 148.873 49.0895 149.425 49.0895C149.918 49.0679 150.399 48.9361 150.835 48.7037V46.4312H151.42L151.437 51.4291ZM156.651 51.4291H155.974L155.447 50.0329H153.331L152.833 51.4291H152.21L154.117 46.4312H154.719L156.651 51.4291ZM155.284 49.5046L154.485 47.3788C154.452 47.2688 154.425 47.1567 154.406 47.0433C154.391 47.1573 154.366 47.2696 154.33 47.3788L153.553 49.5088L155.284 49.5046Z" fill="#334C61"/>
<path d="M159.808 46.9765H158.37V51.4461H157.784V46.9765H156.346V46.4482H159.808V46.9765Z" fill="#334C61"/>
<path d="M163.669 51.4464H163.083V46.96H161.703C161.54 48.2179 161.419 49.111 161.327 49.6309C161.266 50.0215 161.171 50.4059 161.043 50.7797C160.973 50.9977 160.839 51.1893 160.658 51.329C160.488 51.4526 160.282 51.516 160.072 51.5093C159.911 51.5141 159.749 51.49 159.596 51.438V50.8887C159.717 50.9541 159.852 50.9887 159.989 50.9894C160.074 50.9831 160.157 50.9561 160.23 50.9109C160.302 50.8656 160.363 50.8033 160.407 50.7294C160.612 50.308 160.742 49.8539 160.792 49.3877C160.925 48.6665 161.068 47.6812 161.21 46.4527H163.664L163.669 51.4464ZM167.629 51.4464H164.986V46.4485H167.516V46.96H165.592V48.6372H167.394V49.1655H165.592V50.9139H167.649L167.629 51.4464ZM172.337 51.4464H171.752V49.1697H169.176V51.4464H168.59V46.4485H169.176V48.6372H171.752V46.4443H172.337V51.4464ZM177.664 51.4464H177.083V47.8363C177.078 47.6066 177.089 47.3768 177.117 47.1487H177.096C177.055 47.2595 177.002 47.3651 176.937 47.4632L174.374 51.4464H173.654V46.4485H174.236V49.9705C174.243 50.2154 174.235 50.4605 174.21 50.7042C174.268 50.5888 174.332 50.4768 174.403 50.3688L176.912 46.4485H177.66L177.664 51.4464ZM183 51.4464H182.415V47.8363C182.411 47.6065 182.423 47.3767 182.452 47.1487H182.431C182.391 47.2595 182.338 47.3651 182.273 47.4632L179.705 51.4464H178.973V46.4485H179.555V49.9705C179.564 50.2155 179.554 50.4608 179.525 50.7042C179.583 50.5888 179.647 50.4768 179.718 50.3688L182.227 46.4485H182.975L183 51.4464ZM182.268 44.9307C182.254 45.0809 182.21 45.2268 182.138 45.3594C182.066 45.492 181.968 45.6086 181.85 45.7022C181.603 45.8873 181.302 45.9873 180.993 45.9873C180.684 45.9873 180.383 45.8873 180.136 45.7022C180.025 45.6062 179.935 45.4879 179.872 45.355C179.81 45.2222 179.776 45.0776 179.772 44.9307H180.337C180.331 45.0195 180.344 45.1086 180.376 45.1917C180.408 45.2748 180.457 45.3501 180.521 45.4122C180.584 45.4744 180.661 45.522 180.744 45.5518C180.828 45.5816 180.917 45.5928 181.006 45.5848C181.175 45.5888 181.339 45.5255 181.461 45.4087C181.589 45.28 181.669 45.1112 181.687 44.9307H182.268Z" fill="#334C61"/>
</g>
<defs>
<clipPath id="clip0_301_1945">
<rect width="183" height="60" fill="white"/>
</clipPath>
</defs>
</svg>
