<svg width="15" height="13" viewBox="0 0 15 13" fill="none" xmlns="http://www.w3.org/2000/svg">
<path d="M2.44444 0.333008C1.79614 0.333008 1.17438 0.585864 0.715961 1.03595C0.257539 1.48604 0 2.09649 0 2.73301V2.97421L7.33333 6.85141L14.6667 2.97541V2.73301C14.6667 2.09649 14.4091 1.48604 13.9507 1.03595C13.4923 0.585864 12.8705 0.333008 12.2222 0.333008H2.44444ZM14.6667 4.33741L7.623 8.06101C7.53397 8.10806 7.43444 8.13269 7.33333 8.13269C7.23222 8.13269 7.1327 8.10806 7.04367 8.06101L0 4.33741V9.93301C0 10.5695 0.257539 11.18 0.715961 11.6301C1.17438 12.0802 1.79614 12.333 2.44444 12.333H12.2222C12.8705 12.333 13.4923 12.0802 13.9507 11.6301C14.4091 11.18 14.6667 10.5695 14.6667 9.93301V4.33741Z" fill="#66B8B1"/>
</svg>
