<svg width="15" height="15" viewBox="0 0 15 15" fill="none" xmlns="http://www.w3.org/2000/svg">
<g clip-path="url(#clip0_301_1923)">
<path d="M14.9251 0.990767L8.10691 14.6271C7.98618 14.8757 7.78376 15 7.49967 15C7.46416 15 7.41089 14.9929 7.33987 14.9787C7.18362 14.9432 7.05755 14.8633 6.96167 14.739C6.86579 14.6147 6.81785 14.4744 6.81785 14.3182V8.18182H0.681488C0.525238 8.18182 0.384969 8.13388 0.260679 8.038C0.136389 7.94212 0.0564884 7.81605 0.0209771 7.6598C-0.0145343 7.50355 -0.00032975 7.3544 0.0635907 7.21236C0.127511 7.07031 0.230494 6.96378 0.37254 6.89276L14.0089 0.0745739C14.1012 0.024858 14.2042 0 14.3179 0C14.5096 0 14.6694 0.0674716 14.7973 0.202415C14.9038 0.301847 14.9695 0.424361 14.9943 0.569957C15.0192 0.715554 14.9961 0.855824 14.9251 0.990767Z" fill="#BDBDBD"/>
</g>
<defs>
<clipPath id="clip0_301_1923">
<rect width="15" height="15" fill="white"/>
</clipPath>
</defs>
</svg>
