<svg width="25" height="25" viewBox="0 0 25 25" fill="none" xmlns="http://www.w3.org/2000/svg">
<path d="M20.2212 20.4888L15.4793 15.7469C16.3978 14.6123 16.9509 13.1707 16.9509 11.6005C16.9509 7.96118 13.9897 5 10.3504 5C6.71115 5 3.75 7.96115 3.75 11.6004C3.75 15.2397 6.71118 18.2009 10.3505 18.2009C11.9207 18.2009 13.3623 17.6479 14.4969 16.7293L19.2388 21.4712C19.3743 21.6067 19.5522 21.6748 19.73 21.6748C19.9079 21.6748 20.0858 21.6067 20.2213 21.4712C20.4929 21.1996 20.4929 20.7605 20.2212 20.4888ZM10.3505 16.8113C7.47682 16.8113 5.13958 14.4741 5.13958 11.6004C5.13958 8.72679 7.47682 6.38955 10.3505 6.38955C13.2241 6.38955 15.5613 8.72679 15.5613 11.6004C15.5613 14.4741 13.2241 16.8113 10.3505 16.8113Z" fill="#51667A"/>
</svg>
