<svg width="30" height="30" viewBox="0 0 30 30" fill="none" xmlns="http://www.w3.org/2000/svg">
<path d="M17.3475 10.9375H5C4.48223 10.9375 4.0625 10.5178 4.0625 10C4.0625 9.48223 4.48223 9.0625 5 9.0625H17.3475C17.7336 7.97013 18.7754 7.1875 20 7.1875C21.2246 7.1875 22.2664 7.97013 22.6525 9.0625H25C25.5178 9.0625 25.9375 9.48223 25.9375 10C25.9375 10.5178 25.5178 10.9375 25 10.9375H22.6525C22.2664 12.0299 21.2246 12.8125 20 12.8125C18.7754 12.8125 17.7336 12.0299 17.3475 10.9375Z" fill="#858585"/>
<path d="M25 20.9375C25.5178 20.9375 25.9375 20.5178 25.9375 20C25.9375 19.4822 25.5178 19.0625 25 19.0625H12.6525C12.2664 17.9701 11.2246 17.1875 10 17.1875C8.77542 17.1875 7.73363 17.9701 7.34754 19.0625H5C4.48223 19.0625 4.0625 19.4822 4.0625 20C4.0625 20.5178 4.48223 20.9375 5 20.9375H7.34754C7.73363 22.0299 8.77542 22.8125 10 22.8125C11.2246 22.8125 12.2664 22.0299 12.6525 20.9375H25Z" fill="#858585"/>
</svg>
