<svg width="18" height="20" viewBox="0 0 18 20" fill="none" xmlns="http://www.w3.org/2000/svg">
<path d="M10.8371 4.10041C11.2032 4.46653 11.7968 4.46653 12.1629 4.10041L13.0625 3.20082L13.0625 15.9375C13.0625 16.4553 13.4822 16.875 14 16.875C14.5178 16.875 14.9375 16.4553 14.9375 15.9375L14.9375 3.20082L15.8371 4.10041C16.2032 4.46653 16.7968 4.46653 17.1629 4.10041C17.529 3.7343 17.529 3.1407 17.1629 2.77459L14.6629 0.274587C14.2968 -0.0915292 13.7032 -0.0915291 13.3371 0.274587L10.8371 2.77459C10.471 3.1407 10.471 3.7343 10.8371 4.10041Z" fill="#858585"/>
<path d="M4.9375 16.1742L5.83709 15.2746C6.2032 14.9085 6.7968 14.9085 7.16291 15.2746C7.52903 15.6407 7.52903 16.2343 7.16291 16.6004L4.66291 19.1004C4.2968 19.4665 3.7032 19.4665 3.33709 19.1004L0.837087 16.6004C0.470971 16.2343 0.470971 15.6407 0.837087 15.2746C1.2032 14.9085 1.7968 14.9085 2.16291 15.2746L3.0625 16.1742L3.0625 3.4375C3.0625 2.91973 3.48223 2.5 4 2.5C4.51777 2.5 4.9375 2.91973 4.9375 3.4375L4.9375 16.1742Z" fill="#858585"/>
</svg>
