<svg width="15" height="14" viewBox="0 0 15 14" fill="none" xmlns="http://www.w3.org/2000/svg">
<path d="M7.67098 0C3.80983 0 0.669687 3.13876 0.667969 6.99699C0.66754 8.31914 1.0377 9.60672 1.7383 10.7208L1.9047 10.9856L1.19745 13.5678L3.84676 12.873L4.10248 13.0246C5.17711 13.6623 6.40912 13.9996 7.66518 14H7.66797C11.5261 14 14.6663 10.861 14.668 7.00258C14.6686 5.13272 13.9412 3.37472 12.6196 2.05214C11.2981 0.729565 9.54046 0.000644126 7.67098 0ZM11.7883 10.0054C11.6128 10.4967 10.7723 10.9452 10.368 11.0057C10.0053 11.0598 9.54669 11.0824 9.04255 10.9224C8.7368 10.8254 8.34495 10.6959 7.84274 10.4793C5.73192 9.56808 4.35326 7.44336 4.24806 7.30295C4.14285 7.16253 3.38878 6.16222 3.38878 5.12671C3.38878 4.0914 3.93243 3.58234 4.12524 3.37193C4.31827 3.1613 4.54629 3.1087 4.6865 3.1087C4.8267 3.1087 4.96712 3.10999 5.08972 3.116C5.21898 3.12244 5.39246 3.06683 5.56316 3.47713C5.73858 3.89838 6.15941 4.93369 6.21202 5.03889C6.26462 5.14431 6.29962 5.26712 6.22962 5.40754C6.15941 5.54796 5.92624 5.8509 5.70358 6.12701C5.61018 6.24274 5.48844 6.3458 5.61126 6.55642C5.73385 6.76683 6.15641 7.45582 6.78186 8.01362C7.58574 8.7303 8.26379 8.95231 8.47421 9.05772C8.68441 9.16293 8.80722 9.14532 8.93004 9.00512C9.05264 8.86471 9.45608 8.39085 9.59629 8.18023C9.73649 7.9696 9.87691 8.00482 10.0697 8.07502C10.2627 8.14502 11.2972 8.65408 11.5076 8.75929C11.7181 8.86471 11.8583 8.91731 11.9109 9.00512C11.9637 9.09294 11.9637 9.51397 11.7883 10.0054Z" fill="#66B8B1"/>
</svg>
