<svg width="15" height="14" viewBox="0 0 15 14" fill="none" xmlns="http://www.w3.org/2000/svg">
<path d="M7.66902 0C3.80788 0 0.667734 3.13876 0.666016 6.99699C0.665587 8.31914 1.03575 9.60672 1.73635 10.7208L1.90275 10.9856L1.19549 13.5678L3.84481 12.873L4.10053 13.0246C5.17516 13.6623 6.40717 13.9996 7.66323 14H7.66602C11.5242 14 14.6643 10.861 14.666 7.00258C14.6667 5.13272 13.9392 3.37472 12.6177 2.05214C11.2961 0.729565 9.53851 0.000644126 7.66902 0ZM11.7863 10.0054C11.6109 10.4967 10.7703 10.9452 10.366 11.0057C10.0034 11.0598 9.54473 11.0824 9.04059 10.9224C8.73485 10.8254 8.343 10.6959 7.84079 10.4793C5.72997 9.56808 4.35131 7.44336 4.2461 7.30295C4.14089 7.16253 3.38683 6.16222 3.38683 5.12671C3.38683 4.0914 3.93048 3.58234 4.12329 3.37193C4.31631 3.1613 4.54434 3.1087 4.68454 3.1087C4.82475 3.1087 4.96517 3.10999 5.08777 3.116C5.21703 3.12244 5.39051 3.06683 5.56121 3.47713C5.73663 3.89838 6.15746 4.93369 6.21006 5.03889C6.26267 5.14431 6.29766 5.26712 6.22767 5.40754C6.15746 5.54796 5.92428 5.8509 5.70163 6.12701C5.60823 6.24274 5.48649 6.3458 5.6093 6.55642C5.7319 6.76683 6.15445 7.45582 6.7799 8.01362C7.58378 8.7303 8.26184 8.95231 8.47225 9.05772C8.68246 9.16293 8.80527 9.14532 8.92809 9.00512C9.05069 8.86471 9.45413 8.39085 9.59433 8.18023C9.73454 7.9696 9.87496 8.00482 10.0678 8.07502C10.2608 8.14502 11.2953 8.65408 11.5057 8.75929C11.7161 8.86471 11.8563 8.91731 11.9089 9.00512C11.9617 9.09294 11.9617 9.51397 11.7863 10.0054Z" fill="#66B8B1"/>
</svg>
